<?xml version="1.0" encoding="UTF-8"?>
<svg width="644px" height="602px" viewBox="0 0 644 602" version="1.1" xmlns="http://www.w3.org/2000/svg" xmlns:xlink="http://www.w3.org/1999/xlink">
    <!-- Generator: Sketch 42 (36781) - http://www.bohemiancoding.com/sketch -->
    <title>Group 2</title>
    <desc>Created with Sketch.</desc>
    <defs>
        <linearGradient x1="0%" y1="50%" x2="75.135523%" y2="48.5359749%" id="linearGradient-1">
            <stop stop-color="#3EB5F1" offset="0%"></stop>
            <stop stop-color="#4D59A1" offset="100%"></stop>
        </linearGradient>
    </defs>
    <g id="Page-1" stroke="none" stroke-width="1" fill="none" fill-rule="evenodd">
        <g id="Artboard" transform="translate(-393.000000, -269.000000)">
            <g id="Group-2" transform="translate(393.000000, 277.000000)">
                <rect id="Rectangle" fill="#F9F9F9" x="0" y="0" width="644" height="586"></rect>
                <g id="Group-4">
                    <ellipse id="Oval" stroke="url(#linearGradient-1)" stroke-width="15" cx="321.3" cy="293" rx="286.3" ry="293"></ellipse>
                    <path d="M322.5,8.5 L322.5,579.5" id="Path-2" stroke="#3EB5F1" stroke-dasharray="3,3"></path>
                    <path d="M599.5,293.5 L35,293.5" id="Path-2" stroke="#3EB5F1" stroke-dasharray="3,3"></path>
                    <path d="M313.486793,263.559446 C313.486793,263.559446 474.547374,390.288654 644.929778,263.559446" id="Path-3" stroke="#3EB5F1" stroke-dasharray="3,3" transform="translate(479.208285, 291.721493) rotate(90.000000) translate(-479.208285, -291.721493) "></path>
                    <path d="M-2.51320729,266.559446 C-2.51320729,266.559446 158.547374,393.288654 328.929778,266.559446" id="Path-3" stroke="#3EB5F1" stroke-dasharray="3,3" transform="translate(163.208285, 294.721493) scale(-1, 1) rotate(90.000000) translate(-163.208285, -294.721493) "></path>
                    <path d="M228,384.5 L414.3,384.5" id="Shape" stroke="#000000" stroke-width="0.763"></path>
                    <rect id="Rectangle-2" fill="#F9F9F9" x="293" y="69" width="56" height="107"></rect>
                    <g id="Group" transform="translate(0.000000, 245.500000)" fill="#F9F9F9">
                        <rect id="Rectangle-5" x="574" y="1.42108547e-14" width="70" height="95"></rect>
                        <rect id="Rectangle-5" x="0" y="1.42108547e-14" width="70" height="95"></rect>
                    </g>
                    <g id="Group-3" transform="translate(294.000000, 69.000000)" fill-rule="nonzero" fill="#000000">
                        <g id="Group" transform="translate(4.000000, 7.000000)">
                            <polygon id="Shape" points="19.7 41.7 32.1 50.7 28.8 53.9 21.3 47.1"></polygon>
                            <polygon id="Shape" points="10.6 73.6 5.3 78 6.9 0.1 10.6 7.2"></polygon>
                            <polygon id="Shape" points="42 48.3 18.5 26.9 18.5 22.2 47.6 43.9"></polygon>
                            <polygon id="Shape" points="42.3 66.1 0.9 98.4 0.9 95.1 38.5 62.1"></polygon>
                            <polygon id="Shape" points="18.5 40.8 21.9 43.4 22 60.8 18.5 64.1"></polygon>
                            <polygon id="Shape" points="42.2 48.1 18.5 66.9 18.5 63.9 38.3 44.3"></polygon>
                            <polygon id="Shape" points="42.2 66.2 29.4 54.5 31.9 50.7 47.4 62.3"></polygon>
                        </g>
                    </g>
                </g>
            </g>
        </g>
    </g>
</svg>