<?xml version="1.0" encoding="utf-8"?>
<!-- Generator: Adobe Illustrator 18.0.0, SVG Export Plug-In . SVG Version: 6.00 Build 0)  -->
<!DOCTYPE svg PUBLIC "-//W3C//DTD SVG 1.1//EN" "http://www.w3.org/Graphics/SVG/1.1/DTD/svg11.dtd">
<svg version="1.1" id="START" xmlns="http://www.w3.org/2000/svg" xmlns:xlink="http://www.w3.org/1999/xlink" x="0px" y="0px"
	 viewBox="136.4 -16.1 850.4 708.7" enable-background="new 136.4 -16.1 850.4 708.7" xml:space="preserve">
<ellipse stroke="#FFFFFF" stroke-width="1.0505" stroke-miterlimit="10" cx="561.6" cy="338.4" rx="286.3" ry="291.2"/>
<linearGradient id="SVGID_1_" gradientUnits="userSpaceOnUse" x1="278.5948" y1="422.4631" x2="844.506" y2="260.1906">
	<stop  offset="0" style="stop-color:#EAFF00"/>
	<stop  offset="0.2033" style="stop-color:#EAFF00"/>
	<stop  offset="0.73" style="stop-color:#A2FC59"/>
	<stop  offset="1" style="stop-color:#57F866"/>
</linearGradient>
<ellipse fill="none" stroke="url(#SVGID_1_)" stroke-width="15" stroke-miterlimit="10" cx="561.6" cy="341.3" rx="286.3" ry="293"/>
<g>
	<path fill="#FFFFFF" d="M192,382.6v-24h14.6c5,0,7.1,3.3,7.1,6.1c0,3-1.8,5-4.1,5.5c2.6,0.4,4.6,2.8,4.6,5.9c0,3.3-2.3,6.5-7.1,6.5
		H192z M206.3,366c0-0.8-0.7-1.4-1.4-1.4h-5.6v2.8h5.6C205.6,367.4,206.3,366.8,206.3,366z M206.8,375c0-0.9-0.6-1.5-1.7-1.5h-5.8
		v3.1h5.8C206.1,376.5,206.8,375.9,206.8,375z"/>
	<path fill="#FFFFFF" d="M234.2,382.6v-1.7c-1,1.2-3.1,2.1-5.3,2.1c-2.6,0-6-1.8-6-5.7c0-4.3,3.4-5.5,6-5.5c2.3,0,4.3,0.7,5.3,1.9
		v-1.8c0-1.2-1.1-2.2-3.2-2.2c-1.6,0-3.5,0.6-4.8,1.7l-2.2-4c2.3-1.9,5.6-2.6,8.2-2.6c4.3,0,8.5,1.5,8.5,7.3v10.5H234.2z
		 M234.2,377.8v-1c-0.4-0.6-1.5-0.9-2.6-0.9c-1.1,0-2.3,0.4-2.3,1.4c0,1.1,1.2,1.4,2.3,1.4C232.6,378.8,233.7,378.5,234.2,377.8z"/>
	<path fill="#FFFFFF" d="M251.5,382.6v-24h6.5v24H251.5z"/>
	<path fill="#FFFFFF" d="M268.7,382.6v-24h6.5v24H268.7z"/>
	<path fill="#FFFFFF" d="M286,382.6v-17.4h6.5v1.9c1.1-1.3,3.3-2.4,5.3-2.4v6.2c-0.3-0.1-0.9-0.2-1.5-0.2c-1.4,0-3.1,0.4-3.9,1.2
		v10.7H286z"/>
	<path fill="#FFFFFF" d="M306.9,360.3c0-2,1.6-3.6,3.6-3.6c2,0,3.6,1.6,3.6,3.6s-1.6,3.6-3.6,3.6
		C308.5,363.9,306.9,362.3,306.9,360.3z M307.3,382.6v-17.4h6.5v17.4H307.3z"/>
	<path fill="#FFFFFF" d="M335.9,382.6v-1.8c-1.5,1.7-3.1,2.3-4.9,2.3c-4.2,0-7.7-3.2-7.7-9.1c0-5.8,3.4-9.1,7.7-9.1
		c1.8,0,3.5,0.6,4.9,2.3v-8.5h6.5v24H335.9z M335.9,376.1v-4.5c-0.6-0.8-1.8-1.2-2.7-1.2c-1.8,0-3.2,1.2-3.2,3.4
		c0,2.2,1.5,3.4,3.2,3.4C334.1,377.3,335.3,376.8,335.9,376.1z"/>
	<path fill="#FFFFFF" d="M352,373.8c0-5,3.9-9.1,9.5-9.1c5.1,0,9,3.7,9,9.8v1.3h-11.8c0.4,1.1,1.6,2.2,3.7,2.2c1,0,3.1-0.5,4-1.2
		l2.7,4c-1.7,1.5-4.8,2.2-7.4,2.2C356.3,383,352,379.6,352,373.8z M361.5,369.7c-2,0-2.6,1.3-2.8,2.1h5.7
		C364.2,371,363.6,369.7,361.5,369.7z"/>
	<path fill="#FFFFFF" d="M403.5,379.2l3.8-5.4c1.8,1.7,4.5,3.1,7.7,3.1c1.4,0,2.7-0.4,2.7-1.3c0-2.3-13.4,0-13.4-9.4
		c0-4.1,3.4-8,10-8c3.9,0,7.5,1.1,10.2,3.3l-3.9,5.1c-2.1-1.6-4.8-2.4-7.1-2.4c-1.4,0-1.8,0.5-1.8,1.1c0,2.3,13.4,0.3,13.4,9.3
		c0,5.3-3.9,8.4-10.4,8.4C409.6,383,406.1,381.5,403.5,379.2z"/>
	<path fill="#FFFFFF" d="M435.8,377.5v-6.7h-2.9v-5.6h2.9v-4.8h6.5v4.8h3.5v5.6h-3.5v4.9c0,0.9,0.6,1.6,1.4,1.6
		c0.6,0,1.2-0.2,1.3-0.3l1.2,4.9c-0.7,0.6-2.2,1.2-4.4,1.2C437.9,383,435.8,381.2,435.8,377.5z"/>
	<path fill="#FFFFFF" d="M456.1,383.6c0.4,0.2,0.9,0.3,1.4,0.3c1.3,0,2.1-0.2,2.3-0.7l0.1-0.4l-6.8-17.7h6.8l3.3,9.9l3.3-9.9h6.8
		l-7.6,19.5c-1.5,4-4.4,4.8-8.1,4.9c-0.5,0-1.9-0.1-2.5-0.3L456.1,383.6z"/>
	<path fill="#FFFFFF" d="M481.9,382.6v-24h6.5v24H481.9z"/>
	<path fill="#FFFFFF" d="M498,373.8c0-5,3.9-9.1,9.5-9.1c5.1,0,9,3.7,9,9.8v1.3h-11.8c0.4,1.1,1.6,2.2,3.7,2.2c1,0,3.1-0.5,4-1.2
		l2.7,4c-1.7,1.5-4.8,2.2-7.4,2.2C502.2,383,498,379.6,498,373.8z M507.4,369.7c-2,0-2.6,1.3-2.8,2.1h5.7
		C510.1,371,509.5,369.7,507.4,369.7z"/>
	<path fill="#FFFFFF" d="M572.6,382.6v-14.4l-5.4,14.4H564l-5.4-14.4v14.4h-7.3v-24h10l4.2,11.5l4.2-11.5h10v24H572.6z"/>
	<path fill="#FFFFFF" d="M600.8,382.6v-1.7c-1,1.2-3.1,2.1-5.3,2.1c-2.6,0-6-1.8-6-5.7c0-4.3,3.4-5.5,6-5.5c2.3,0,4.3,0.7,5.3,1.9
		v-1.8c0-1.2-1.1-2.2-3.2-2.2c-1.6,0-3.5,0.6-4.8,1.7l-2.2-4c2.3-1.9,5.6-2.6,8.2-2.6c4.3,0,8.5,1.5,8.5,7.3v10.5H600.8z
		 M600.8,377.8v-1c-0.4-0.6-1.5-0.9-2.6-0.9c-1.1,0-2.3,0.4-2.3,1.4c0,1.1,1.2,1.4,2.3,1.4C599.3,378.8,600.4,378.5,600.8,377.8z"/>
	<path fill="#FFFFFF" d="M616.6,380.3l2.6-4.4c1.4,1.1,4.3,2.2,6.3,2.2c1.3,0,1.7-0.3,1.7-0.8c0-1.7-9.9,0.5-9.9-6.7
		c0-3.1,2.7-5.9,7.8-5.9c2.9,0,5.5,0.9,7.5,2.2l-2.4,4.2c-1.1-0.9-3.1-1.8-5.1-1.8c-0.9,0-1.6,0.4-1.6,0.8c0,1.4,9.9-0.4,9.9,6.9
		c0,3.5-3.1,6-8.2,6C621.9,383,618.5,381.9,616.6,380.3z"/>
	<path fill="#FFFFFF" d="M644.3,377.5v-6.7h-2.9v-5.6h2.9v-4.8h6.5v4.8h3.5v5.6h-3.5v4.9c0,0.9,0.6,1.6,1.4,1.6
		c0.6,0,1.2-0.2,1.3-0.3l1.2,4.9c-0.7,0.6-2.2,1.2-4.4,1.2C646.4,383,644.3,381.2,644.3,377.5z"/>
	<path fill="#FFFFFF" d="M662.7,373.8c0-5,3.9-9.1,9.5-9.1c5.1,0,9,3.7,9,9.8v1.3h-11.8c0.4,1.1,1.6,2.2,3.7,2.2c1,0,3.1-0.5,4-1.2
		l2.7,4c-1.7,1.5-4.8,2.2-7.4,2.2C666.9,383,662.7,379.6,662.7,373.8z M672.2,369.7c-2,0-2.6,1.3-2.8,2.1h5.7
		C674.9,371,674.3,369.7,672.2,369.7z"/>
	<path fill="#FFFFFF" d="M690.6,382.6v-17.4h6.5v1.9c1.1-1.3,3.3-2.4,5.3-2.4v6.2c-0.3-0.1-0.9-0.2-1.5-0.2c-1.4,0-3.1,0.4-3.9,1.2
		v10.7H690.6z"/>
	<path fill="#FFFFFF" d="M710.7,373.8c0-5.5,4.2-9.1,9.8-9.1c4,0,6.4,1.8,7.4,3.3l-4.2,3.9c-0.5-0.8-1.5-1.5-2.9-1.5
		c-1.8,0-3.4,1.2-3.4,3.4c0,2.2,1.6,3.4,3.4,3.4c1.4,0,2.4-0.7,2.9-1.5l4.2,4c-1,1.4-3.4,3.3-7.4,3.3
		C714.9,383,710.7,379.4,710.7,373.8z"/>
	<path fill="#FFFFFF" d="M737.1,382.6v-24h6.5v24H737.1z"/>
	<path fill="#FFFFFF" d="M764.5,382.6v-1.7c-1,1.2-3.1,2.1-5.3,2.1c-2.6,0-6-1.8-6-5.7c0-4.3,3.4-5.5,6-5.5c2.3,0,4.3,0.7,5.3,1.9
		v-1.8c0-1.2-1.1-2.2-3.2-2.2c-1.6,0-3.5,0.6-4.8,1.7l-2.2-4c2.3-1.9,5.6-2.6,8.2-2.6c4.3,0,8.5,1.5,8.5,7.3v10.5H764.5z
		 M764.5,377.8v-1c-0.4-0.6-1.5-0.9-2.6-0.9c-1.1,0-2.3,0.4-2.3,1.4c0,1.1,1.2,1.4,2.3,1.4C762.9,378.8,764,378.5,764.5,377.8z"/>
	<path fill="#FFFFFF" d="M780.3,380.3l2.6-4.4c1.4,1.1,4.3,2.2,6.3,2.2c1.3,0,1.7-0.3,1.7-0.8c0-1.7-9.9,0.5-9.9-6.7
		c0-3.1,2.7-5.9,7.8-5.9c2.9,0,5.5,0.9,7.5,2.2l-2.4,4.2c-1.1-0.9-3.1-1.8-5.1-1.8c-0.9,0-1.6,0.4-1.6,0.8c0,1.4,9.9-0.4,9.9,6.9
		c0,3.5-3.1,6-8.2,6C785.6,383,782.1,381.9,780.3,380.3z"/>
	<path fill="#FFFFFF" d="M805.1,380.3l2.6-4.4c1.4,1.1,4.3,2.2,6.3,2.2c1.3,0,1.7-0.3,1.7-0.8c0-1.7-9.9,0.5-9.9-6.7
		c0-3.1,2.7-5.9,7.8-5.9c2.9,0,5.5,0.9,7.5,2.2l-2.4,4.2c-1.1-0.9-3.1-1.8-5.1-1.8c-0.9,0-1.6,0.4-1.6,0.8c0,1.4,9.9-0.4,9.9,6.9
		c0,3.5-3.1,6-8.2,6C810.4,383,807,381.9,805.1,380.3z"/>
</g>
<g>
	<path fill="#FFFFFF" d="M596.1,160.1l2.5-3.6c1.2,1.2,3,2.1,5.2,2.1c0.9,0,1.8-0.2,1.8-0.9c0-1.5-8.9,0-8.9-6.3
		c0-2.7,2.3-5.3,6.6-5.3c2.6,0,5,0.7,6.8,2.2l-2.6,3.4c-1.4-1.1-3.2-1.6-4.7-1.6c-1,0-1.2,0.3-1.2,0.7c0,1.5,8.9,0.2,8.9,6.2
		c0,3.5-2.6,5.6-6.9,5.6C600.1,162.6,597.8,161.6,596.1,160.1z"/>
	<path fill="#FFFFFF" d="M624.6,162.3v-6.5c0-1.2-0.6-1.6-1.7-1.6c-1,0-1.5,0.5-1.8,0.9v7.2h-4.3v-16h4.3v5.7c0.7-0.8,1.9-1.6,4-1.6
		c2.7,0,3.9,1.6,3.9,3.6v8.3H624.6z"/>
	<path fill="#FFFFFF" d="M635.3,156.5c0-3.2,2.4-6.1,6.5-6.1c4.1,0,6.5,2.8,6.5,6.1s-2.4,6.1-6.5,6.1
		C637.7,162.6,635.3,159.7,635.3,156.5z M643.9,156.5c0-1.3-0.7-2.3-2.1-2.3c-1.3,0-2.1,1-2.1,2.3c0,1.3,0.7,2.3,2.1,2.3
		C643.1,158.8,643.9,157.8,643.9,156.5z"/>
	<path fill="#FFFFFF" d="M665.1,162.3l-1.9-6.5l-1.9,6.5h-4.7l-3.4-11.6h4.4l1.5,6.4l2-6.4h3.9l2,6.4l1.5-6.4h4.5l-3.4,11.6H665.1z"
		/>
	<path fill="#FFFFFF" d="M688.6,162.3v-16h7.2c5,0,8.8,2.9,8.8,8s-3.7,8-8.8,8H688.6z M699.6,154.3c0-2.2-1.2-3.8-3.8-3.8h-2.3v7.6
		h2.3C698.2,158.1,699.6,156.3,699.6,154.3z"/>
	<path fill="#FFFFFF" d="M710.7,147.5c0-1.3,1.1-2.4,2.4-2.4c1.3,0,2.4,1.1,2.4,2.4c0,1.3-1.1,2.4-2.4,2.4
		C711.8,149.9,710.7,148.8,710.7,147.5z M711,162.3v-11.6h4.3v11.6H711z"/>
	<path fill="#FFFFFF" d="M722.5,162.3v-11.6h4.3v1.3c0.7-0.8,2.2-1.6,3.6-1.6v4.1c-0.2-0.1-0.6-0.1-1-0.1c-0.9,0-2.1,0.2-2.6,0.8
		v7.1H722.5z"/>
	<path fill="#FFFFFF" d="M735.9,156.5c0-3.4,2.6-6.1,6.3-6.1c3.4,0,6,2.4,6,6.5v0.9h-7.9c0.2,0.7,1.1,1.5,2.5,1.5
		c0.6,0,2.1-0.3,2.7-0.8l1.8,2.7c-1.2,1-3.2,1.4-4.9,1.4C738.7,162.6,735.9,160.3,735.9,156.5z M742.2,153.7c-1.3,0-1.8,0.9-1.9,1.4
		h3.8C744,154.6,743.6,153.7,742.2,153.7z"/>
	<path fill="#FFFFFF" d="M753.7,156.5c0-3.7,2.8-6.1,6.5-6.1c2.6,0,4.3,1.2,4.9,2.2l-2.8,2.6c-0.4-0.6-1-1-1.9-1
		c-1.2,0-2.3,0.8-2.3,2.3s1.1,2.3,2.3,2.3c0.9,0,1.6-0.5,1.9-1l2.8,2.6c-0.6,1-2.3,2.2-4.9,2.2C756.5,162.6,753.7,160.2,753.7,156.5
		z"/>
	<path fill="#FFFFFF" d="M772.2,159v-4.5h-1.9v-3.7h1.9v-3.2h4.3v3.2h2.4v3.7h-2.4v3.2c0,0.6,0.4,1.1,1,1.1c0.4,0,0.8-0.1,0.9-0.2
		l0.8,3.3c-0.5,0.4-1.5,0.8-2.9,0.8C773.7,162.6,772.2,161.4,772.2,159z"/>
	<path fill="#FFFFFF" d="M785.1,147.5c0-1.3,1.1-2.4,2.4-2.4s2.4,1.1,2.4,2.4c0,1.3-1.1,2.4-2.4,2.4S785.1,148.8,785.1,147.5z
		 M785.3,162.3v-11.6h4.3v11.6H785.3z"/>
	<path fill="#FFFFFF" d="M804.7,162.3v-6.4c0-1.2-0.6-1.7-1.7-1.7c-1,0-1.5,0.5-1.8,0.9v7.2h-4.3v-11.6h4.3v1.3
		c0.7-0.8,1.9-1.6,4-1.6c2.7,0,3.9,1.6,3.9,3.6v8.2H804.7z"/>
	<path fill="#FFFFFF" d="M815.8,165.3l1.8-3.1c0.9,0.9,2.2,1.3,3.5,1.3c1,0,2.7-0.4,2.7-2.4v-0.6c-1,1.1-2.1,1.6-3.3,1.6
		c-2.8,0-5.1-1.8-5.1-5.8c0-3.9,2.2-5.8,5.1-5.8c1.2,0,2.3,0.4,3.3,1.5v-1.2h4.3v10.3c0,5-4.1,6-7,6
		C819.1,167,817.3,166.5,815.8,165.3z M823.8,157.4V155c-0.4-0.5-1.2-0.7-1.8-0.7c-1.2,0-2.2,0.6-2.2,2s1,2,2.2,2
		C822.5,158.2,823.4,157.9,823.8,157.4z"/>
</g>
<g>
	<path fill="#FFFFFF" d="M362.3,492v-11.3h6.4c2.8,0,4.3,1.8,4.3,3.9c0,2.1-1.5,3.9-4.3,3.9h-2.8v3.6H362.3z M369.3,484.5
		c0-0.6-0.5-0.9-1.1-0.9h-2.3v1.8h2.3C368.8,485.4,369.3,485.1,369.3,484.5z"/>
	<path fill="#FFFFFF" d="M383.9,492v-4.6c0-0.9-0.5-1.1-1.3-1.1c-0.7,0-1.1,0.4-1.4,0.6v5.1h-3.2v-11.3h3.2v4.1
		c0.5-0.5,1.4-1.1,3-1.1c2,0,2.9,1.1,2.9,2.5v5.9H383.9z"/>
	<path fill="#FFFFFF" d="M392.4,487.8c0-2.3,1.8-4.3,4.9-4.3c3.1,0,4.9,2,4.9,4.3s-1.8,4.3-4.9,4.3
		C394.2,492.2,392.4,490.1,392.4,487.8z M398.8,487.8c0-0.9-0.6-1.6-1.6-1.6c-1,0-1.5,0.7-1.5,1.6c0,0.9,0.6,1.6,1.5,1.6
		C398.2,489.5,398.8,488.8,398.8,487.8z"/>
	<path fill="#FFFFFF" d="M407.9,489.6v-3.2h-1.4v-2.7h1.4v-2.2h3.2v2.2h1.8v2.7h-1.8v2.3c0,0.4,0.3,0.8,0.7,0.8
		c0.3,0,0.6-0.1,0.6-0.2l0.6,2.3c-0.3,0.3-1.1,0.5-2.2,0.5C409,492.2,407.9,491.3,407.9,489.6z"/>
	<path fill="#FFFFFF" d="M417.5,487.8c0-2.3,1.8-4.3,4.9-4.3c3.1,0,4.9,2,4.9,4.3s-1.8,4.3-4.9,4.3
		C419.3,492.2,417.5,490.1,417.5,487.8z M423.9,487.8c0-0.9-0.6-1.6-1.6-1.6c-1,0-1.5,0.7-1.5,1.6c0,0.9,0.6,1.6,1.5,1.6
		C423.4,489.5,423.9,488.8,423.9,487.8z"/>
	<path fill="#FFFFFF" d="M431.7,490.9l1.3-2.1c0.7,0.5,2.1,1,3.1,1c0.7,0,0.9-0.2,0.9-0.4c0-0.8-4.9,0.2-4.9-3.2
		c0-1.5,1.4-2.8,3.9-2.8c1.4,0,2.7,0.4,3.7,1.1l-1.2,2c-0.5-0.4-1.5-0.9-2.5-0.9c-0.5,0-0.8,0.2-0.8,0.4c0,0.7,4.9-0.2,4.9,3.2
		c0,1.6-1.5,2.8-4.1,2.8C434.4,492.2,432.6,491.6,431.7,490.9z"/>
	<path fill="#FFFFFF" d="M451.1,492v-4.6c0-0.9-0.5-1.1-1.3-1.1c-0.7,0-1.1,0.4-1.4,0.6v5.1h-3.2v-11.3h3.2v4.1
		c0.5-0.5,1.4-1.1,3-1.1c2,0,2.9,1.1,2.9,2.5v5.9H451.1z"/>
	<path fill="#FFFFFF" d="M459.5,487.8c0-2.3,1.8-4.3,4.9-4.3c3.1,0,4.9,2,4.9,4.3s-1.8,4.3-4.9,4.3
		C461.3,492.2,459.5,490.1,459.5,487.8z M465.9,487.8c0-0.9-0.6-1.6-1.6-1.6c-1,0-1.5,0.7-1.5,1.6c0,0.9,0.6,1.6,1.5,1.6
		C465.3,489.5,465.9,488.8,465.9,487.8z"/>
	<path fill="#FFFFFF" d="M473.8,487.8c0-2.3,1.8-4.3,4.9-4.3c3.1,0,4.9,2,4.9,4.3s-1.8,4.3-4.9,4.3
		C475.6,492.2,473.8,490.1,473.8,487.8z M480.2,487.8c0-0.9-0.6-1.6-1.6-1.6c-1,0-1.5,0.7-1.5,1.6c0,0.9,0.6,1.6,1.5,1.6
		C479.7,489.5,480.2,488.8,480.2,487.8z"/>
	<path fill="#FFFFFF" d="M489.4,489.6v-3.2H488v-2.7h1.4v-2.2h3.2v2.2h1.8v2.7h-1.8v2.3c0,0.4,0.3,0.8,0.7,0.8
		c0.3,0,0.6-0.1,0.6-0.2l0.6,2.3c-0.3,0.3-1.1,0.5-2.2,0.5C490.5,492.2,489.4,491.3,489.4,489.6z"/>
	<path fill="#FFFFFF" d="M499.4,481.4c0-1,0.8-1.7,1.8-1.7c1,0,1.8,0.8,1.8,1.7c0,1-0.8,1.7-1.8,1.7
		C500.2,483.2,499.4,482.4,499.4,481.4z M499.6,492v-8.2h3.2v8.2H499.6z"/>
	<path fill="#FFFFFF" d="M514.4,492v-4.5c0-0.9-0.5-1.2-1.3-1.2c-0.7,0-1.1,0.4-1.4,0.6v5.1h-3.2v-8.2h3.2v0.9
		c0.5-0.5,1.4-1.1,3-1.1c2,0,2.9,1.2,2.9,2.6v5.8H514.4z"/>
	<path fill="#FFFFFF" d="M523.1,494.1l1.4-2.2c0.7,0.6,1.6,0.9,2.6,0.9c0.8,0,2-0.3,2-1.7v-0.4c-0.7,0.8-1.5,1.1-2.4,1.1
		c-2.1,0-3.8-1.3-3.8-4.1c0-2.7,1.7-4.1,3.8-4.1c0.9,0,1.7,0.3,2.4,1.1v-0.9h3.2v7.3c0,3.6-3.1,4.2-5.2,4.2
		C525.6,495.3,524.3,494.9,523.1,494.1z M529.1,488.5v-1.7c-0.3-0.3-0.9-0.5-1.3-0.5c-0.9,0-1.6,0.4-1.6,1.4s0.7,1.4,1.6,1.4
		C528.2,489,528.8,488.8,529.1,488.5z"/>
</g>
<g>
	<path fill="#FFFFFF" d="M322.6,294.2l3.8-5.4c1.8,1.7,4.5,3.1,7.7,3.1c1.4,0,2.7-0.4,2.7-1.3c0-2.3-13.4,0-13.4-9.4
		c0-4.1,3.4-8,10-8c3.9,0,7.5,1.1,10.2,3.3l-3.9,5.1c-2.1-1.6-4.8-2.4-7.1-2.4c-1.4,0-1.8,0.5-1.8,1.1c0,2.3,13.4,0.3,13.4,9.3
		c0,5.3-3.9,8.4-10.4,8.4C328.6,298,325.1,296.5,322.6,294.2z"/>
	<path fill="#FFFFFF" d="M352.3,288.9c0-4.9,3.6-9.1,9.8-9.1c6.2,0,9.8,4.2,9.8,9.1s-3.6,9.1-9.8,9.1
		C355.9,298,352.3,293.7,352.3,288.9z M365.2,288.9c0-1.9-1.1-3.4-3.1-3.4c-2,0-3.1,1.5-3.1,3.4c0,1.9,1.1,3.4,3.1,3.4
		C364.1,292.3,365.2,290.8,365.2,288.9z"/>
	<path fill="#FFFFFF" d="M391.5,297.6v-1.7c-1,1.2-3.1,2.1-5.3,2.1c-2.6,0-6-1.8-6-5.7c0-4.3,3.4-5.5,6-5.5c2.3,0,4.3,0.7,5.3,1.9
		v-1.8c0-1.2-1.1-2.2-3.2-2.2c-1.6,0-3.5,0.6-4.8,1.7l-2.2-4c2.3-1.9,5.6-2.6,8.2-2.6c4.3,0,8.5,1.5,8.5,7.3v10.5H391.5z
		 M391.5,292.9v-1c-0.4-0.6-1.5-0.9-2.6-0.9c-1.1,0-2.3,0.4-2.3,1.4s1.2,1.4,2.3,1.4C390,293.8,391.1,293.5,391.5,292.9z"/>
	<path fill="#FFFFFF" d="M408.8,297.6v-17.4h6.5v1.9c1.1-1.3,3.3-2.4,5.3-2.4v6.2c-0.3-0.1-0.9-0.2-1.5-0.2c-1.4,0-3.1,0.4-3.9,1.2
		v10.7H408.8z"/>
	<path fill="#FFFFFF" d="M429.7,275.3c0-2,1.6-3.6,3.6-3.6c2,0,3.6,1.6,3.6,3.6s-1.6,3.6-3.6,3.6C431.3,279,429.7,277.3,429.7,275.3
		z M430.1,297.6v-17.4h6.5v17.4H430.1z"/>
	<path fill="#FFFFFF" d="M459.1,297.6V288c0-1.8-1-2.5-2.5-2.5c-1.5,0-2.2,0.8-2.8,1.4v10.7h-6.5v-17.4h6.5v2c1-1.2,2.9-2.4,6-2.4
		c4,0,5.8,2.4,5.8,5.5v12.3H459.1z"/>
	<path fill="#FFFFFF" d="M475.8,302.1l2.7-4.6c1.3,1.3,3.3,1.9,5.2,1.9c1.5,0,4-0.6,4-3.6v-0.9c-1.5,1.7-3.1,2.3-4.9,2.3
		c-4.2,0-7.6-2.7-7.6-8.7c0-5.8,3.3-8.7,7.6-8.7c1.8,0,3.5,0.6,4.9,2.3v-1.8h6.5v15.5c0,7.5-6.2,8.9-10.5,8.9
		C480.7,304.7,478,303.9,475.8,302.1z M487.7,290.3v-3.7c-0.6-0.7-1.8-1.1-2.7-1.1c-1.8,0-3.2,0.8-3.2,3c0,2.1,1.5,3,3.2,3
		C485.9,291.4,487.1,291,487.7,290.3z"/>
	<path fill="#FFFFFF" d="M559.5,297.6v-24h14.6c5,0,7.1,3.3,7.1,6.1c0,3-1.8,5-4.1,5.5c2.6,0.4,4.6,2.8,4.6,5.9
		c0,3.3-2.3,6.5-7.1,6.5H559.5z M573.8,281c0-0.8-0.7-1.4-1.4-1.4h-5.6v2.8h5.6C573.1,282.4,573.8,281.9,573.8,281z M574.3,290
		c0-0.9-0.6-1.5-1.7-1.5h-5.8v3.1h5.8C573.6,291.5,574.3,290.9,574.3,290z"/>
	<path fill="#FFFFFF" d="M601.7,297.6v-1.7c-1,1.2-3.1,2.1-5.3,2.1c-2.6,0-6-1.8-6-5.7c0-4.3,3.4-5.5,6-5.5c2.3,0,4.3,0.7,5.3,1.9
		v-1.8c0-1.2-1.1-2.2-3.2-2.2c-1.6,0-3.5,0.6-4.8,1.7l-2.2-4c2.3-1.9,5.6-2.6,8.2-2.6c4.3,0,8.5,1.5,8.5,7.3v10.5H601.7z
		 M601.7,292.9v-1c-0.4-0.6-1.5-0.9-2.6-0.9c-1.1,0-2.3,0.4-2.3,1.4s1.2,1.4,2.3,1.4C600.1,293.8,601.2,293.5,601.7,292.9z"/>
	<path fill="#FFFFFF" d="M619,297.6v-24h6.5v24H619z"/>
	<path fill="#FFFFFF" d="M636.2,297.6v-24h6.5v24H636.2z"/>
	<path fill="#FFFFFF" d="M652,295.4l2.6-4.4c1.4,1.1,4.3,2.2,6.3,2.2c1.3,0,1.7-0.3,1.7-0.8c0-1.7-9.9,0.5-9.9-6.7
		c0-3.1,2.7-5.9,7.8-5.9c2.9,0,5.5,0.9,7.5,2.2l-2.4,4.2c-1.1-0.9-3.1-1.8-5.1-1.8c-0.9,0-1.6,0.4-1.6,0.8c0,1.4,9.9-0.4,9.9,6.9
		c0,3.5-3.1,6-8.2,6C657.4,298,653.9,296.9,652,295.4z"/>
	<path fill="#FFFFFF" d="M731,294.2l3.8-5.4c1.8,1.7,4.5,3.1,7.7,3.1c1.4,0,2.7-0.4,2.7-1.3c0-2.3-13.4,0-13.4-9.4c0-4.1,3.4-8,10-8
		c3.9,0,7.5,1.1,10.2,3.3l-3.9,5.1c-2.1-1.6-4.8-2.4-7.1-2.4c-1.4,0-1.8,0.5-1.8,1.1c0,2.3,13.4,0.3,13.4,9.3
		c0,5.3-3.9,8.4-10.4,8.4C737,298,733.6,296.5,731,294.2z"/>
	<path fill="#FFFFFF" d="M773.8,297.6v-9.7c0-1.8-1-2.4-2.5-2.4c-1.5,0-2.2,0.8-2.8,1.4v10.7H762v-24h6.5v8.6c1-1.2,2.9-2.4,6-2.4
		c4,0,5.8,2.4,5.8,5.4v12.4H773.8z"/>
	<path fill="#FFFFFF" d="M789.9,288.9c0-4.9,3.6-9.1,9.8-9.1c6.2,0,9.8,4.2,9.8,9.1s-3.6,9.1-9.8,9.1
		C793.5,298,789.9,293.7,789.9,288.9z M802.7,288.9c0-1.9-1.1-3.4-3.1-3.4c-2,0-3.1,1.5-3.1,3.4c0,1.9,1.1,3.4,3.1,3.4
		C801.6,292.3,802.7,290.8,802.7,288.9z"/>
	<path fill="#FFFFFF" d="M834.5,297.6l-2.8-9.7l-2.8,9.7h-7.1l-5-17.4h6.7l2.3,9.6l3.1-9.6h5.8l3,9.6l2.3-9.6h6.7l-5,17.4H834.5z"/>
	<path fill="#FFFFFF" d="M854,288.9c0-5.5,4.2-9.1,9.8-9.1c4,0,6.4,1.8,7.4,3.3L867,287c-0.5-0.8-1.5-1.5-2.9-1.5
		c-1.8,0-3.4,1.2-3.4,3.4s1.6,3.4,3.4,3.4c1.4,0,2.4-0.7,2.9-1.5l4.2,4c-1,1.4-3.4,3.3-7.4,3.3C858.3,298,854,294.4,854,288.9z"/>
	<path fill="#FFFFFF" d="M890.5,297.6v-1.7c-1,1.2-3.1,2.1-5.3,2.1c-2.6,0-6-1.8-6-5.7c0-4.3,3.4-5.5,6-5.5c2.3,0,4.3,0.7,5.3,1.9
		v-1.8c0-1.2-1.1-2.2-3.2-2.2c-1.6,0-3.5,0.6-4.8,1.7l-2.2-4c2.3-1.9,5.6-2.6,8.2-2.6c4.3,0,8.5,1.5,8.5,7.3v10.5H890.5z
		 M890.5,292.9v-1c-0.4-0.6-1.5-0.9-2.6-0.9c-1.1,0-2.3,0.4-2.3,1.4s1.2,1.4,2.3,1.4C889,293.8,890.1,293.5,890.5,292.9z"/>
	<path fill="#FFFFFF" d="M906.3,295.4l2.6-4.4c1.4,1.1,4.3,2.2,6.3,2.2c1.3,0,1.7-0.3,1.7-0.8c0-1.7-9.9,0.5-9.9-6.7
		c0-3.1,2.7-5.9,7.8-5.9c2.9,0,5.5,0.9,7.5,2.2l-2.4,4.2c-1.1-0.9-3.1-1.8-5.1-1.8c-0.9,0-1.6,0.4-1.6,0.8c0,1.4,9.9-0.4,9.9,6.9
		c0,3.5-3.1,6-8.2,6C911.6,298,908.2,296.9,906.3,295.4z"/>
	<path fill="#FFFFFF" d="M931.4,288.9c0-5,3.9-9.1,9.5-9.1c5.1,0,9,3.7,9,9.8v1.3h-11.8c0.4,1.1,1.6,2.2,3.7,2.2c1,0,3.1-0.5,4-1.2
		l2.7,4c-1.7,1.5-4.8,2.2-7.4,2.2C935.7,298,931.4,294.6,931.4,288.9z M940.9,284.7c-2,0-2.6,1.3-2.8,2.1h5.7
		C943.6,286,943,284.7,940.9,284.7z"/>
</g>
<g>
	<path fill="#FFFFFF" d="M561.6,582.7c-1,0-1.8-0.8-1.8-1.7c0-1,0.8-1.8,1.8-1.8s1.8,0.8,1.8,1.8
		C563.3,581.9,562.5,582.7,561.6,582.7z"/>
</g>
<g>
	<path fill="#FFFFFF" d="M561.6,109c-1,0-1.8-0.8-1.8-1.7c0-1,0.8-1.8,1.8-1.8s1.8,0.8,1.8,1.8C563.3,108.2,562.5,109,561.6,109z"/>
</g>
<g>
	<path fill="#FFFFFF" d="M196.7,433.9l-6.9-16h1.7l6.1,14.5l6.1-14.5h1.7l-6.9,16H196.7z"/>
	<path fill="#FFFFFF" d="M212.5,419.5c0-0.5,0.5-0.9,1-0.9c0.6,0,1,0.4,1,0.9c0,0.5-0.5,1-1,1C213,420.5,212.5,420.1,212.5,419.5z
		 M212.8,433.9v-11.6h1.3v11.6H212.8z"/>
	<path fill="#FFFFFF" d="M232.3,433.9v-1.8c-0.9,1.2-2.4,2.1-4.2,2.1c-3.2,0-5.5-2.4-5.5-6.1c0-3.7,2.2-6.1,5.5-6.1
		c1.7,0,3.3,0.8,4.2,2.2v-6.3h1.3v16H232.3z M232.3,431v-5.7c-0.7-1.1-2.3-2.1-4-2.1c-2.7,0-4.3,2.2-4.3,5c0,2.8,1.6,4.9,4.3,4.9
		C230,433.1,231.6,432.1,232.3,431z"/>
	<path fill="#FFFFFF" d="M242,428.1c0-3.4,2.5-6.1,5.9-6.1c3.7,0,5.8,2.8,5.8,6.1v0.3h-10.2c0.1,2.5,1.9,4.6,4.8,4.6
		c1.5,0,3-0.6,4-1.6l0.7,0.8c-1.2,1.2-2.8,1.9-4.8,1.9C244.6,434.2,242,431.7,242,428.1z M247.9,423.1c-2.9,0-4.3,2.4-4.4,4.4h8.9
		C252.3,425.6,251,423.1,247.9,423.1z"/>
	<path fill="#FFFFFF" d="M261.4,428.1c0-3.4,2.3-6.1,5.9-6.1c3.6,0,5.9,2.7,5.9,6.1c0,3.4-2.3,6.1-5.9,6.1
		C263.7,434.2,261.4,431.5,261.4,428.1z M271.8,428.1c0-2.6-1.6-4.9-4.5-4.9c-2.8,0-4.4,2.4-4.4,4.9c0,2.6,1.6,5,4.4,5
		C270.2,433.1,271.8,430.7,271.8,428.1z"/>
	<path fill="#FFFFFF" d="M292.1,432.4l0.8-0.9c0.8,0.9,2.2,1.7,3.9,1.7c2,0,3.3-1,3.3-2.4c0-3.2-7.7-1.4-7.7-5.5
		c0-1.8,1.6-3.2,4.3-3.2c2.1,0,3.5,0.8,4.4,1.7l-0.7,0.9c-0.7-0.9-2-1.5-3.6-1.5c-1.9,0-3.1,0.9-3.1,2.1c0,2.9,7.7,1.1,7.7,5.6
		c0,1.9-1.5,3.4-4.6,3.4C294.9,434.2,293.3,433.7,292.1,432.4z"/>
	<path fill="#FFFFFF" d="M318.1,433.9V426c0-2.2-1.2-2.9-3-2.9c-1.6,0-3.2,0.9-4,2v8.8h-1.3v-16h1.3v6.2c0.9-1,2.6-2,4.4-2
		c2.5,0,3.8,1.1,3.8,3.7v8.2H318.1z"/>
	<path fill="#FFFFFF" d="M327.8,428.1c0-3.4,2.3-6.1,5.9-6.1c3.6,0,5.9,2.7,5.9,6.1c0,3.4-2.3,6.1-5.9,6.1
		C330.1,434.2,327.8,431.5,327.8,428.1z M338.2,428.1c0-2.6-1.6-4.9-4.5-4.9c-2.8,0-4.4,2.4-4.4,4.9c0,2.6,1.6,5,4.4,5
		C336.6,433.1,338.2,430.7,338.2,428.1z"/>
	<path fill="#FFFFFF" d="M347.3,428.1c0-3.4,2.3-6.1,5.9-6.1c3.6,0,5.9,2.7,5.9,6.1c0,3.4-2.3,6.1-5.9,6.1
		C349.6,434.2,347.3,431.5,347.3,428.1z M357.6,428.1c0-2.6-1.6-4.9-4.5-4.9c-2.8,0-4.4,2.4-4.4,4.9c0,2.6,1.6,5,4.4,5
		C356,433.1,357.6,430.7,357.6,428.1z"/>
	<path fill="#FFFFFF" d="M367.7,431.7v-8.3h-2v-1.1h2v-3.2h1.3v3.2h2.5v1.1h-2.5v8.1c0,0.9,0.4,1.6,1.3,1.6c0.6,0,1.1-0.3,1.4-0.6
		l0.5,1c-0.5,0.4-1.1,0.7-2.1,0.7C368.5,434.2,367.7,433.3,367.7,431.7z"/>
	<path fill="#FFFFFF" d="M379.1,419.5c0-0.5,0.5-0.9,1-0.9c0.6,0,1,0.4,1,0.9c0,0.5-0.5,1-1,1C379.6,420.5,379.1,420.1,379.1,419.5z
		 M379.5,433.9v-11.6h1.3v11.6H379.5z"/>
	<path fill="#FFFFFF" d="M398.2,433.9v-7.8c0-2.2-1.2-2.9-3-2.9c-1.6,0-3.2,0.9-4,2v8.8h-1.3v-11.6h1.3v1.8c0.9-1,2.6-2,4.4-2
		c2.5,0,3.8,1.2,3.8,3.8v8.1H398.2z"/>
	<path fill="#FFFFFF" d="M408.7,436.9l0.8-1c1.1,1.2,2.2,1.6,4,1.6c2.2,0,4.2-1.1,4.2-3.7V432c-0.9,1.2-2.4,2.2-4.2,2.2
		c-3.2,0-5.5-2.3-5.5-6c0-3.7,2.2-6.1,5.5-6.1c1.7,0,3.3,0.8,4.2,2.2v-1.9h1.3v11.5c0,3.6-2.5,4.8-5.5,4.8
		C411.4,438.6,410.1,438.3,408.7,436.9z M417.6,430.9v-5.6c-0.7-1.1-2.3-2.1-4-2.1c-2.7,0-4.3,2.1-4.3,4.9s1.6,4.9,4.3,4.9
		C415.3,433,416.9,432,417.6,430.9z"/>
</g>
<g>
	<path fill="#FFFFFF" d="M728.3,517v-10l-4.3,10h-0.4l-4.4-10v10h-1v-11.3h1.5l4.1,9.3l4-9.3h1.5V517H728.3z"/>
	<path fill="#FFFFFF" d="M735.4,512.9c0-2.4,1.6-4.3,4.2-4.3c2.6,0,4.2,1.9,4.2,4.3c0,2.4-1.6,4.3-4.2,4.3
		C737,517.2,735.4,515.3,735.4,512.9z M742.7,512.9c0-1.8-1.1-3.5-3.2-3.5c-2,0-3.2,1.7-3.2,3.5c0,1.8,1.1,3.5,3.2,3.5
		C741.6,516.4,742.7,514.7,742.7,512.9z"/>
	<path fill="#FFFFFF" d="M756,517v-1.3c-0.6,0.8-1.7,1.5-3,1.5c-2.3,0-3.9-1.7-3.9-4.3c0-2.6,1.6-4.3,3.9-4.3c1.2,0,2.3,0.6,3,1.5
		v-4.5h0.9V517H756z M756,515v-4.1c-0.5-0.8-1.6-1.5-2.8-1.5c-1.9,0-3,1.5-3,3.5c0,2,1.1,3.5,3,3.5C754.4,516.4,755.5,515.7,756,515
		z"/>
	<path fill="#FFFFFF" d="M762.9,512.9c0-2.4,1.8-4.3,4.2-4.3c2.6,0,4.1,2,4.1,4.4v0.2H764c0.1,1.8,1.3,3.3,3.4,3.3
		c1.1,0,2.1-0.4,2.8-1.1l0.5,0.6c-0.9,0.9-2,1.3-3.4,1.3C764.8,517.2,762.9,515.4,762.9,512.9z M767.1,509.4c-2,0-3.1,1.7-3.1,3.1
		h6.3C770.2,511.1,769.3,509.4,767.1,509.4z"/>
	<path fill="#FFFFFF" d="M777.2,517v-11.3h0.9V517H777.2z"/>
	<path fill="#FFFFFF" d="M784.3,506.8c0-0.4,0.3-0.7,0.7-0.7c0.4,0,0.7,0.3,0.7,0.7s-0.3,0.7-0.7,0.7
		C784.7,507.5,784.3,507.2,784.3,506.8z M784.6,517v-8.2h0.9v8.2H784.6z"/>
	<path fill="#FFFFFF" d="M797.8,517v-5.6c0-1.6-0.8-2.1-2.1-2.1c-1.1,0-2.3,0.7-2.8,1.4v6.2H792v-8.2h0.9v1.2
		c0.6-0.7,1.9-1.4,3.1-1.4c1.8,0,2.7,0.8,2.7,2.7v5.7H797.8z"/>
	<path fill="#FFFFFF" d="M805.2,519.1l0.5-0.7c0.8,0.8,1.6,1.2,2.9,1.2c1.6,0,3-0.7,3-2.6v-1.3c-0.6,0.8-1.7,1.5-3,1.5
		c-2.3,0-3.9-1.6-3.9-4.3c0-2.6,1.6-4.3,3.9-4.3c1.2,0,2.3,0.6,3,1.5v-1.3h0.9v8.1c0,2.5-1.8,3.4-3.9,3.4
		C807.2,520.3,806.3,520.1,805.2,519.1z M811.6,514.9v-4c-0.5-0.8-1.6-1.5-2.8-1.5c-1.9,0-3,1.5-3,3.5c0,2,1.1,3.5,3,3.5
		C810,516.4,811.1,515.7,811.6,514.9z"/>
</g>
<g>
	<path fill="#FFFFFF" d="M426.7,223.6c0-3.5,2.8-5.9,6.3-5.9c2,0,3.5,0.8,4.5,2l-0.9,0.5c-0.8-1-2.1-1.6-3.6-1.6c-2.9,0-5.2,2-5.2,5
		c0,2.9,2.3,5,5.2,5c1.5,0,2.9-0.7,3.6-1.6l0.9,0.5c-1.1,1.2-2.6,2-4.5,2C429.5,229.5,426.7,227.1,426.7,223.6z"/>
	<path fill="#FFFFFF" d="M449.5,229.3v-5.6c0-1.6-0.9-2-2.2-2c-1.2,0-2.4,0.7-2.9,1.4v6.2h-1v-11.3h1v4.4c0.7-0.7,1.9-1.4,3.2-1.4
		c1.8,0,2.8,0.8,2.8,2.6v5.8H449.5z"/>
	<path fill="#FFFFFF" d="M456.7,225.1c0-2.4,1.7-4.3,4.3-4.3c2.7,0,4.4,1.9,4.4,4.3c0,2.4-1.7,4.3-4.4,4.3
		C458.4,229.5,456.7,227.5,456.7,225.1z M464.3,225.1c0-1.8-1.2-3.5-3.3-3.5c-2.1,0-3.3,1.7-3.3,3.5c0,1.8,1.2,3.5,3.3,3.5
		C463.2,228.7,464.3,227,464.3,225.1z"/>
	<path fill="#FFFFFF" d="M471.6,229.3V221h1v1.4c0.8-0.9,1.8-1.6,3-1.6v1c-0.2,0-0.3,0-0.5,0c-0.9,0-2.1,0.7-2.6,1.5v6H471.6z"/>
	<path fill="#FFFFFF" d="M480.8,225.1c0-2.4,1.8-4.3,4.4-4.3c2.7,0,4.3,2,4.3,4.4v0.2h-7.5c0.1,1.8,1.4,3.3,3.5,3.3
		c1.1,0,2.2-0.4,3-1.1l0.5,0.6c-0.9,0.9-2,1.3-3.5,1.3C482.7,229.5,480.8,227.7,480.8,225.1z M485.1,221.6c-2.1,0-3.2,1.7-3.3,3.1
		h6.6C488.4,223.3,487.4,221.6,485.1,221.6z"/>
	<path fill="#FFFFFF" d="M495.1,225.1c0-2.4,1.7-4.3,4.3-4.3c2.7,0,4.4,1.9,4.4,4.3c0,2.4-1.7,4.3-4.4,4.3
		C496.8,229.5,495.1,227.5,495.1,225.1z M502.7,225.1c0-1.8-1.2-3.5-3.3-3.5c-2.1,0-3.3,1.7-3.3,3.5c0,1.8,1.2,3.5,3.3,3.5
		C501.6,228.7,502.7,227,502.7,225.1z"/>
	<path fill="#FFFFFF" d="M510,231.3l0.6-0.7c0.8,0.9,1.6,1.2,3,1.2c1.6,0,3.1-0.7,3.1-2.6v-1.3c-0.6,0.8-1.8,1.5-3.1,1.5
		c-2.4,0-4-1.6-4-4.3c0-2.6,1.6-4.3,4-4.3c1.3,0,2.4,0.6,3.1,1.5V221h1v8.1c0,2.5-1.9,3.4-4.1,3.4
		C512.1,232.6,511.1,232.3,510,231.3z M516.7,227.1v-4c-0.5-0.8-1.7-1.5-3-1.5c-2,0-3.2,1.5-3.2,3.5s1.2,3.5,3.2,3.5
		C515,228.6,516.2,227.9,516.7,227.1z"/>
	<path fill="#FFFFFF" d="M524.4,229.3V221h1v1.4c0.8-0.9,1.8-1.6,3-1.6v1c-0.2,0-0.3,0-0.5,0c-0.9,0-2.1,0.7-2.6,1.5v6H524.4z"/>
	<path fill="#FFFFFF" d="M539.8,229.3v-1c-0.8,0.8-1.8,1.2-3.1,1.2c-1.5,0-3.2-1-3.2-2.7c0-1.8,1.6-2.7,3.2-2.7
		c1.3,0,2.3,0.4,3.1,1.2v-1.7c0-1.2-1.1-1.9-2.4-1.9c-1.1,0-2,0.4-2.8,1.2l-0.5-0.6c0.9-0.9,2-1.4,3.5-1.4c1.8,0,3.3,0.8,3.3,2.6
		v5.8H539.8z M539.8,227.6v-1.8c-0.6-0.7-1.6-1.1-2.7-1.1c-1.5,0-2.5,0.9-2.5,2c0,1.2,1,2,2.5,2
		C538.2,228.8,539.2,228.4,539.8,227.6z"/>
	<path fill="#FFFFFF" d="M548.5,227.9v4.5h-1V221h1v1.3c0.6-0.8,1.8-1.5,3.1-1.5c2.4,0,4,1.7,4,4.3c0,2.6-1.6,4.3-4,4.3
		C550.4,229.5,549.2,228.9,548.5,227.9z M554.6,225.1c0-2-1.1-3.5-3.2-3.5c-1.3,0-2.4,0.7-3,1.5v4.1c0.5,0.8,1.7,1.5,3,1.5
		C553.5,228.7,554.6,227.1,554.6,225.1z"/>
	<path fill="#FFFFFF" d="M568,229.3v-5.6c0-1.6-0.9-2-2.2-2c-1.2,0-2.4,0.7-2.9,1.4v6.2h-1v-11.3h1v4.4c0.7-0.7,1.9-1.4,3.2-1.4
		c1.8,0,2.8,0.8,2.8,2.6v5.8H568z"/>
	<path fill="#FFFFFF" d="M575.4,219.1c0-0.4,0.4-0.7,0.7-0.7c0.4,0,0.7,0.3,0.7,0.7s-0.3,0.7-0.7,0.7
		C575.8,219.7,575.4,219.4,575.4,219.1z M575.7,229.3V221h1v8.2H575.7z"/>
	<path fill="#FFFFFF" d="M589.5,229.3v-5.6c0-1.6-0.9-2.1-2.2-2.1c-1.2,0-2.4,0.7-2.9,1.4v6.2h-1V221h1v1.2c0.7-0.7,1.9-1.4,3.2-1.4
		c1.8,0,2.8,0.8,2.8,2.7v5.7H589.5z"/>
	<path fill="#FFFFFF" d="M597.3,231.3l0.6-0.7c0.8,0.9,1.6,1.2,3,1.2c1.6,0,3.1-0.7,3.1-2.6v-1.3c-0.6,0.8-1.8,1.5-3.1,1.5
		c-2.4,0-4-1.6-4-4.3c0-2.6,1.6-4.3,4-4.3c1.3,0,2.4,0.6,3.1,1.5V221h1v8.1c0,2.5-1.9,3.4-4.1,3.4
		C599.3,232.6,598.3,232.3,597.3,231.3z M603.9,227.1v-4c-0.5-0.8-1.7-1.5-3-1.5c-2,0-3.2,1.5-3.2,3.5s1.2,3.5,3.2,3.5
		C602.2,228.6,603.4,227.9,603.9,227.1z"/>
</g>
<g>
	<path fill="#FFFFFF" d="M464.9,199.7v-9.3h3.1v9.3H464.9z"/>
	<path fill="#FFFFFF" d="M484.6,199.7V199c-0.6,0.6-1.3,0.9-2.1,0.9c-1.8,0-3.3-1.2-3.3-3.6c0-2.2,1.4-3.5,3.3-3.5
		c0.8,0,1.5,0.2,2.1,0.9v-3.3h2.8v9.3H484.6z M484.6,197.2v-1.7c-0.3-0.3-0.8-0.4-1.2-0.4c-0.8,0-1.4,0.5-1.4,1.3
		c0,0.8,0.6,1.3,1.4,1.3C483.8,197.6,484.3,197.5,484.6,197.2z"/>
	<path fill="#FFFFFF" d="M491.4,196.3c0-1.9,1.5-3.5,4.2-3.5c2.6,0,4.2,1.7,4.2,3.5c0,1.9-1.5,3.6-4.2,3.6
		C493,199.9,491.4,198.2,491.4,196.3z M496.9,196.3c0-0.7-0.5-1.3-1.3-1.3c-0.8,0-1.3,0.6-1.3,1.3c0,0.8,0.5,1.3,1.3,1.3
		C496.5,197.6,496.9,197.1,496.9,196.3z"/>
	<path fill="#FFFFFF" d="M503.7,194.3c0-0.8,0.8-1.5,1.6-1.5c0.9,0,1.6,0.7,1.6,1.5s-0.8,1.5-1.6,1.5
		C504.4,195.8,503.7,195.1,503.7,194.3z M503.7,198.4c0-0.8,0.8-1.5,1.6-1.5c0.9,0,1.6,0.7,1.6,1.5s-0.8,1.5-1.6,1.5
		C504.4,199.9,503.7,199.2,503.7,198.4z"/>
</g>
</svg>
