<?xml version="1.0" encoding="utf-8"?>
<!-- Generator: Adobe Illustrator 18.0.0, SVG Export Plug-In . SVG Version: 6.00 Build 0)  -->
<!DOCTYPE svg PUBLIC "-//W3C//DTD SVG 1.1//EN" "http://www.w3.org/Graphics/SVG/1.1/DTD/svg11.dtd">
<svg version="1.1" id="Слой_1" xmlns="http://www.w3.org/2000/svg" xmlns:xlink="http://www.w3.org/1999/xlink" x="0px" y="0px"
	 viewBox="0 0 310.7 367.4" enable-background="new 0 0 310.7 367.4" xml:space="preserve">
<path d="M245.3,188.9c-0.8-2.2-2-4.2-3-6.2c-4-6.9-15.4-21.2-15.4-21.2s-0.3-0.4-0.5-0.2c0,0-0.2,0.1-0.6,0.8c0,0.1-0.1,0.2-0.1,0.2
	c-1.3,2.7-8.5,16.4-11.3,20.1c-1.6,2.1-1.8,4.1-0.3,6.2c1.2,1.7,5.6,7.8,7,9.1c0.2,0.2,0.6,0.2,0.8,0c0.3-0.3,0.4-0.7,0.6-1
	c0.8-1.7,1.3-3.5,2.2-5.2c0.3-0.5,0.6-0.9,1.2-0.9c1.2,0-1,6.6-1,6.6c-0.8,2.2-1.6,4.3-2.3,6.6c-1.7,5.5-1.9,11.2-1.8,16.8
	c0.1,1.9,0.3,3.7,0.6,5.6c0.3,1.7,1.1,2.1,2.7,1.6c0.3-0.1,0.5-0.2,0.8-0.3c3.8-1.7,7.9-2.2,12.1-1.9c2.4,0.2,3.2-0.5,3.6-2.9
	c1.5-8.2,2.9-16.5,4.5-24.7C245.5,195,246.3,191.9,245.3,188.9z"/>
<path d="M247,231.9c-3.5-2.4-7.4-3.6-11.5-3.4c-6.6,0.3-12.6,2.5-17.9,6.3c-5,3.5-9.1,7.8-11,13.8c-0.5,1.7-0.5,2.8,0.2,3.8
	c0,0,0.2,0.3,0.3,0.4c0.4,0.4,1.1,1.1,1.9,1.7c0,0,0.5,0.4,0.3,0.9c0,0,0,0,0,0c-0.1,0.1-0.6,0.4-2.5-0.7c-0.4-0.3-0.8-0.5-1.2-0.6
	c0,0-0.1,0-0.1,0c-0.8-0.2-1.7-0.2-2.6,0c-5,1-10.1,2.1-15.2,2.8c-3.5,0.5-7,0.4-10.5-0.3l-1.3-0.3c-6.6-1.8-14.1-8.7-14.1-8.7
	c-3.8-3.4-4.3-4.6-4.2-5c0.1-0.2,0.3-0.3,0.8,0.1c0,0,7.8,7.1,14,9.9c0,0,0.6,0.3,0.4-0.3c-0.6-1.8-1-3.6-1.7-5.3
	c-1.7-3.9-4.2-7.3-7.8-9.6c-6.3-4-10-9.8-12.7-16.5c-4.1-9.9-4.7-20.6-6.7-30.9c-0.1-0.4-0.2-1,0.2-1.1c1.1-0.2,1.4,1.7,1.4,1.7
	l3.7,18.6c0.3,1.4,0.7,2.7,1.2,4.1l0.8,2.5c0.2,0.4,0.3,0.2,0.3,0.2c0.2-0.5,0.3-2.1,0.3-2.1s0,0,0,0c0-0.9,0.2-4.6,0.1-8.6
	l0.5-12.5c0,0,0.1-9.8,0-10.7c0,0-0.1-0.9,0.2-1.1c0,0,0.1,0,0.1,0c0,0,0,0,0,0c0.1,0,0.3,0.1,0.5,0.2c0.1,0.2,0.5,0.8,0.5,2.8
	l0,0.6c0.1,3.2,0.3,8.9,0.4,14.5c0,4.3-0.1,8.5,0,12.8c0,2.9,0.1,5.8,0.7,8.6c1.3,6.2,7.5,12.6,12.3,16.5c0.9,0.7,1.6,0.7,2.6,0.2
	c4.4-2.7,31.3-41.3,36.3-48.5l-0.2,0.2c0.2-0.2,0.4-0.5,0.5-0.7c2-2.8,4-5.9,6-8.9c0.1-0.2,0.4-0.7,0.8-1.3
	c7-11.5,12.9-24.2,15.9-31c1.9-4.4,3.3-9,3.8-13.8c0.2-2.1,0.2-3.2,0.2-3.2c0-0.9-0.1-1.9-0.3-2.8c-0.7-3-2.1-4.8-5.4-5.9
	c-7.8-2.5-13.7,8.6-15.5,12.4c-1.3,2.7-2.4,5.5-3.6,8.2c-5.4,12.5-12.7,23.6-21.9,33.6c-3,3.3-6.1,6.4-9.2,9.6
	c-0.8,0.8-1.1,1.8-0.9,3c0.4,2,0.9,4.1,1.1,6.1c0.2,1.7,0,3.3-0.1,5c-0.2,0-0.4,0-0.6,0.1c-0.2-0.8-0.4-1.5-0.6-2.3
	c-0.7-3.1-1.5-6.3-2.2-9.4c-0.3-1.7-0.4-3.4,0.8-4.8c1-1.2,2-2.3,3.1-3.4c7.1-6.8,13.5-14.2,18.7-22.6c1.7-2.7,3.2-5.4,4.8-8.1
	c0.1-0.1,0.1-0.3,0-0.4c-0.6-0.7-1.3-0.4-1.9-0.2c-4.7,1.8-9.5,3.4-14.1,5.4c0,0-0.5,0.2-1.3,0.6c-0.6,0.3-1.2,0.6-1.8,0.9
	c-3.7,1.9-15.6,9.5-19.5,12c-1,0.7-1.5,1.9-1.2,3c0.2,0.9,0.9,4.6,1.1,6c0,0,0,0.1,0,0.3l-0.1,0.2c-0.8,0.4-1.4-2.6-1.4-2.6
	c-1.5-5.7-4.2-9.5-5.3-10.9c-0.1-0.1-0.1-0.1-0.2-0.2c-0.2-0.3-0.3-0.4-0.3-0.4l0,0c-1.2-1.4-2.5-2.7-4-3.9
	c-0.9-0.7-1.8-1.5-2.6-2.3c-2.2-2-2.4-3-1.2-5.7c1.4-3.1,2.9-6,4.2-9.1c2.9-7,5.8-14,8.6-21.1c0.8-1.9,0.6-2.2-1.1-3.4
	c-0.5-0.4-1.1-0.7-1.6-1.1c-3.3-2.6-5.4-5.8-5.4-5.8c-2.8-4.1-2.4-6.4-2.4-6.4c0.5-0.8,1.2,0.5,1.2,0.5s2.7,5.1,7.6,9
	c0.8,0.6,1.6,1.1,2.4,1.7c0.5,0.4,1,0.8,1.6,0.2c0.6-0.6,0.2-1.1-0.2-1.6c-0.8-0.8-1.7-1.6-2.6-2.4c-1.4-1.4-3.8-4.3-5.6-8.7
	c0-0.2,0.1-0.4,0.5-0.3c0,0,0.5,0.3,1.2,1.1c2.3,2.8,5.6,5.9,5.6,5.9c5.9,5.2,26.7,2.2,31.6,0.2c2.4-1,3-1.8,2.9-4.5
	c-0.1-2.3,0.2-4.5,0.9-6.6c0.2-0.5,0.4-0.8,0.8-0.8c0.8-0.2,0.6,1.7,0.6,1.7c-0.2,2-0.2,4.7-0.2,5.9c0,0,0,0.1,0,0.1
	c0,1.5,0.6,2.9,2,3.8c0.8,0.6,1.7,1.1,2.5,1.6c2.9,1.8,9.9,6.2,15.9,8.6c0.5,0.2,1.1,0.3,1.7,0.1c4.2-1.1,7.8-2.1,14,2.9
	c0,0,1,0.6,2.3,0c2.5-0.9,4.6-2.5,6.2-4.7c1.9-2.7,1.6-4.5-1.1-6.3c-3.8-2.5-7.6-4.9-11.4-7.4c-1-0.7-1.9-1.5-2.6-2.4
	c-3.8-4.8-7.5-9.6-11.3-14.5c-1.3-1.7-3.2-2.8-5.3-3c-4.5-0.5-9.1-1.1-13.6-1.4c-8.3-0.5-16.6-1.1-24.9-1.2
	c-8.9-0.1-17.7,0.3-26.6,0.6c-1.3,0-2.7,0.6-3.9,1.2c-2.8,1.5-4.9,3.8-6.9,6.3c-0.6,0.7-0.8,1.9-0.7,2.9c0.4,5.7,1,11.4,1.6,17.1
	c0.6,6.3,1.3,13.5,2,19.8c0.9,7.1,1,13,2.1,20.5c0.5,3.6,2.3,6.8,4.9,9.4c1.5,1.5,2.5,3.3,3.2,5.3c0.2,0.7,0,0.7,0,0.7
	c-0.1,0.2-0.6-0.1-1-0.3c-0.4-0.3-0.8-0.6-1.1-0.9c-1.2-1.2-2.1-2.6-3.4-3.7c-2.2-1.8-4.5-3.9-5.1-6.6c-0.7-3.8-1.2-7.6-1.7-11.5
	c-0.7-5.5-4.5-50.8-4.9-56.4c-0.5-6.7-0.9-28.4-0.9-31.2c0-0.8,0-1.7,0-2.5c0.2-6.9-0.4-13.6-2.5-20.2c-1.8-5.9-5.1-10.7-10.6-13.8
	c-5-2.9-11.2,0.6-10.9,6.5c0.4,7-0.7,13.9-1.7,20.9c-0.7,4.9-1.4,9.9-1.7,14.8c-0.2,3.9,0.4,7.9,0.3,11.9c0,5.2-1.2,34.9-1.6,40
	c-0.3,3.5-0.8,7-0.9,10.5c-0.1,2.8,0.4,5.6,0.4,8.4c0.1,7.2,0.2,14.3,0,21.5c-0.1,4.8-0.8,9.6-2.3,14.3c-0.8,2.4-1.5,4.9-1.7,7.4
	c-0.3,4.8-1,9.5-2.9,13.9c-3.6,8.6-7.2,17.3-11.3,25.6c-4.9,9.8-9.7,19.7-13.7,29.9c-7.5,19.5-12.4,39.5-12.2,60.6
	c0.1,6.2-0.5,12.4-0.7,18.5c-0.1,2.9-0.4,5.7-0.6,8.6c-0.1,1.8,0.7,3.2,2.3,4c8.7,4.4,17.5,8.8,26.8,11.9c11.6,3.9,23.2,4.2,35,1.1
	c1.9-0.5,2.1-1,1.9-2.9c-0.3-2.8-0.6-5.6-0.5-8.3c0.2-4.3,2.9-6.8,6.5-8.6c2.6-1.3,5.3-2.6,8-3.9c10.3-5.1,20.4-10.7,29.7-17.4
	l0.9-0.7c1.7-1.3,0.1-1.2-0.3-1.2l-4.2,0.2l-2.7,0.2c-12.7,0.6-20.5-1.4-20.5-1.4c-1.6-0.6-0.7-1.1-0.7-1.1c0.5-0.1,1-0.1,1.4,0
	c6.1,0.4,12.2,0.4,18.3-0.2c4.4-0.5,8.8-0.9,13.2-1.5c6-0.8,12.1-1.6,18.1-2.8c13.4-2.7,26.3-7.3,38.9-12.6
	c3.8-1.6,7.3-3.5,10.3-6.2c2-1.7,2.8-3.9,2.2-6.5c-0.2-0.8-0.4-1.6-0.6-2.4c-2.5-10.9-0.9-21.1,5.8-30.3c1-1.4,1.8-2.9,2.5-4.5
	C248.6,234.3,248.2,232.7,247,231.9z"/>
</svg>
