<?xml version="1.0" encoding="UTF-8" standalone="no"?>
<svg width="340px" height="676px" viewBox="0 0 340 676" version="1.1" xmlns="http://www.w3.org/2000/svg" xmlns:xlink="http://www.w3.org/1999/xlink" xmlns:sketch="http://www.bohemiancoding.com/sketch/ns">
    <!-- Generator: Sketch 3.3.1 (12005) - http://www.bohemiancoding.com/sketch -->
    <title>logo_bllrdrs</title>
    <desc>Created with Sketch.</desc>
    <defs></defs>
    <g id="Page-1" stroke="none" stroke-width="1" fill="none" fill-rule="evenodd" sketch:type="MSPage">
        <path d="M79.5,468.589661 L79.5,29.719717" id="Path-6" stroke="#000000" stroke-width="25" sketch:type="MSShapeGroup"></path>
        <path d="M136.88662,159.993985 L291.279444,275.442565 L157.874785,380.27641 L156.750424,277.253708 L290.389547,381.148442 L21.4487383,590" id="Path-8" stroke="#000000" stroke-width="25" sketch:type="MSShapeGroup"></path>
        <path d="M135.5,111.493985 L135.5,208.993985" id="Path-4" stroke="#FFFFFF" stroke-width="17" sketch:type="MSShapeGroup"></path>
        <path d="M121.345477,432 L52.8521827,488.682066" id="Path-5" stroke="#FFFFFF" stroke-width="20" sketch:type="MSShapeGroup"></path>
        <path d="M21.4487383,519.118196 L21.4487383,631.767285" id="Path-6" stroke="#FFFFFF" stroke-width="21" sketch:type="MSShapeGroup"></path>
        <path d="M133.5,80.5578549 L63.1296538,12.5786878" id="Path-7" stroke="#FFFFFF" stroke-width="20" sketch:type="MSShapeGroup"></path>
        <path id="Path-7" stroke="#979797" stroke-width="3" sketch:type="MSShapeGroup" d=""></path>
        <path d="M169.380652,149.317205 L293.627699,274.334356 L171.597996,379.960161 L171.597996,264.111651 L293.627699,381.574026 L53.1632522,608.277886" id="Path-23" stroke="#000000" stroke-width="25" sketch:type="MSShapeGroup"></path>
        <path d="M112.652104,463.489956 L112.652104,30.9640206" id="Path-24" stroke="#000000" stroke-width="25" sketch:type="MSShapeGroup"></path>
        <path d="M146.844948,60.2006672 L96.9429191,12.6176288" id="Path-10" stroke="#FFFFFF" stroke-width="25" sketch:type="MSShapeGroup"></path>
        <path d="M53.1632522,600.178421 L53.1632522,663.356149" id="Path-11" stroke="#FFFFFF" stroke-width="25" sketch:type="MSShapeGroup"></path>
        <path d="M172.011775,96.8162568 L172.011775,159.993985" id="Path-11-Copy" stroke="#FFFFFF" stroke-width="25" sketch:type="MSShapeGroup"></path>
        <path d="M137.978662,439.673982 L102.53482,473.484603" id="Path-12" stroke="#FFFFFF" stroke-width="25" sketch:type="MSShapeGroup"></path>
    </g>
</svg>