<?xml version="1.0" encoding="utf-8"?>
<!-- Generator: Adobe Illustrator 18.0.0, SVG Export Plug-In . SVG Version: 6.00 Build 0)  -->
<!DOCTYPE svg PUBLIC "-//W3C//DTD SVG 1.1//EN" "http://www.w3.org/Graphics/SVG/1.1/DTD/svg11.dtd">
<svg version="1.1" id="START" xmlns="http://www.w3.org/2000/svg" xmlns:xlink="http://www.w3.org/1999/xlink" x="0px" y="0px"
	 viewBox="126 -11.4 850.4 708.7" enable-background="new 126 -11.4 850.4 708.7" xml:space="preserve">
<linearGradient id="SVGID_1_" gradientUnits="userSpaceOnUse" x1="268.262" y1="422.495" x2="834.1732" y2="260.2225">
	<stop  offset="0" style="stop-color:#EAFF00"/>
	<stop  offset="0.2033" style="stop-color:#EAFF00"/>
	<stop  offset="0.73" style="stop-color:#A2FC59"/>
	<stop  offset="1" style="stop-color:#57F866"/>
</linearGradient>
<ellipse fill="none" stroke="url(#SVGID_1_)" stroke-width="15" stroke-miterlimit="10" cx="551.2" cy="341.4" rx="286.3" ry="293"/>
<g>
	<path d="M472.8,314.3v-14.7h9.3v1.1h-8.1v5.4h7.9v1.1h-7.9v7H472.8z"/>
	<path d="M485.3,306.9c0-4.3,2.8-7.6,7.1-7.6c4.3,0,7.1,3.3,7.1,7.6s-2.8,7.6-7.1,7.6C488.1,314.5,485.3,311.2,485.3,306.9z
		 M498.3,306.9c0-3.7-2.3-6.4-5.8-6.4c-3.6,0-5.8,2.7-5.8,6.4c0,3.7,2.2,6.4,5.8,6.4C496,313.4,498.3,310.6,498.3,306.9z"/>
	<path d="M512.4,314.3l-4.1-6.1H505v6.1h-1.3v-14.7h5.5c2.5,0,4.5,1.6,4.5,4.3c0,2.7-1.9,4.1-4.1,4.2l4.2,6.2H512.4z M512.4,303.9
		c0-1.8-1.3-3.1-3.3-3.1H505v6.3h4.1C511.1,307.1,512.4,305.7,512.4,303.9z"/>
	<path d="M524.2,306.9c0-4.5,3.3-7.6,7.4-7.6c2.3,0,4.1,1,5.3,2.6l-1.1,0.7c-0.9-1.3-2.5-2.1-4.3-2.1c-3.5,0-6.1,2.6-6.1,6.4
		c0,3.8,2.7,6.4,6.1,6.4c1.8,0,3.4-0.9,4.3-2.1l1.1,0.7c-1.3,1.6-3,2.6-5.3,2.6C527.5,314.5,524.2,311.5,524.2,306.9z"/>
	<path d="M540.1,306.9c0-4.3,2.8-7.6,7.1-7.6c4.3,0,7.1,3.3,7.1,7.6s-2.8,7.6-7.1,7.6C542.9,314.5,540.1,311.2,540.1,306.9z
		 M553,306.9c0-3.7-2.3-6.4-5.8-6.4c-3.6,0-5.8,2.7-5.8,6.4c0,3.7,2.2,6.4,5.8,6.4C550.7,313.4,553,310.6,553,306.9z"/>
	<path d="M569,314.3l-9.2-12.6v12.6h-1.3v-14.7h1.3L569,312v-12.4h1.3v14.7H569z"/>
	<path d="M578.8,314.3v-13.5H574v-1.1h10.9v1.1H580v13.5H578.8z"/>
	<path d="M599.1,314.3l-1.5-3.6h-7.8l-1.5,3.6H587l6-14.7h1.6l6,14.7H599.1z M593.8,300.9l-3.5,8.6h6.9L593.8,300.9z"/>
	<path d="M603.3,306.9c0-4.5,3.3-7.6,7.4-7.6c2.3,0,4.1,1,5.3,2.6l-1.1,0.7c-0.9-1.3-2.5-2.1-4.3-2.1c-3.5,0-6.1,2.6-6.1,6.4
		c0,3.8,2.7,6.4,6.1,6.4c1.8,0,3.4-0.9,4.3-2.1l1.1,0.7c-1.3,1.6-3,2.6-5.3,2.6C606.6,314.5,603.3,311.5,603.3,306.9z"/>
	<path d="M623.5,314.3v-13.5h-4.8v-1.1h10.9v1.1h-4.8v13.5H623.5z"/>
</g>
<g>
	<path d="M376,528.3c-3,0-5.5-2.5-5.5-5.5c0-3.1,2.5-5.5,5.5-5.5c3.1,0,5.5,2.5,5.5,5.5C381.5,525.8,379.1,528.3,376,528.3z
		 M376,517.7c-2.8,0-5.1,2.3-5.1,5.1c0,2.8,2.3,5.1,5.1,5.1c2.8,0,5.1-2.3,5.1-5.1C381.1,520,378.8,517.7,376,517.7z M378.4,525.1
		c-0.6,0.7-1.3,1.1-2.3,1.1c-1.8,0-3.3-1.5-3.3-3.5c0-2,1.5-3.4,3.3-3.4c1,0,1.8,0.4,2.3,1l-0.4,0.4c-0.4-0.6-1.2-0.9-2-0.9
		c-1.5,0-2.8,1.2-2.8,2.9c0,1.7,1.3,3,2.8,3c0.8,0,1.6-0.4,2-0.9L378.4,525.1z"/>
	<path d="M384.6,528.1v-0.8c3.6-2.9,6.1-5,6.1-7.1c0-1.5-1.3-2.2-2.4-2.2c-1.3,0-2.4,0.6-2.9,1.4l-0.6-0.6c0.8-1,2-1.6,3.6-1.6
		c1.6,0,3.4,0.9,3.4,3c0,2.4-2.5,4.5-5.6,7h5.6v0.8H384.6z"/>
	<path d="M395.4,522.8c0-2.5,1.1-5.5,4-5.5c2.8,0,3.9,3,3.9,5.5c0,2.5-1.1,5.5-3.9,5.5C396.4,528.3,395.4,525.3,395.4,522.8z
		 M402.3,522.8c0-2.2-0.7-4.7-3-4.7c-2.3,0-3,2.5-3,4.7c0,2.2,0.7,4.7,3,4.7C401.5,527.5,402.3,525,402.3,522.8z"/>
	<path d="M408.3,528.1v-9.4l-1.7,1.8l-0.6-0.6l2.4-2.5h0.8v10.7H408.3z"/>
	<path d="M412.9,522.8c0-2.7,1.1-5.5,4.1-5.5c1.4,0,2.2,0.6,2.9,1.4l-0.5,0.7c-0.5-0.7-1.2-1.2-2.3-1.2c-2.3,0-3.2,2.4-3.2,4.7
		c0,0.2,0,0.3,0,0.5c0.4-0.7,1.7-1.8,3.1-1.8c1.9,0,3.4,1.1,3.4,3.4c0,1.7-1.3,3.4-3.6,3.4C413.9,528.3,412.9,525.6,412.9,522.8z
		 M419.5,524.9c0-1.7-1.1-2.6-2.7-2.6c-1.2,0-2.3,0.8-2.9,1.8c0.1,1.5,0.9,3.3,2.9,3.3C418.6,527.5,419.5,526.1,419.5,524.9z"/>
	<path d="M431.2,525.9c-0.9,0-1.6-0.7-1.6-1.6c0-0.9,0.7-1.6,1.6-1.6c0.9,0,1.6,0.7,1.6,1.6C432.9,525.1,432.1,525.9,431.2,525.9z"
		/>
	<path d="M442.4,528.1v-10.7h4.4c1.8,0,2.9,1,2.9,2.7c0,1.3-0.9,2.3-1.9,2.4c1.1,0.2,2.1,1.4,2.1,2.6c0,1.8-1.2,2.9-3.1,2.9H442.4z
		 M448.8,520.2c0-1.1-0.7-2-2.1-2h-3.4v4h3.4C448.1,522.2,448.8,521.3,448.8,520.2z M449,525.2c0-1.1-0.8-2.1-2.2-2.1h-3.4v4.2h3.4
		C448.2,527.3,449,526.5,449,525.2z"/>
	<path d="M458.6,528.1v-0.9c-0.7,0.8-1.6,1.1-2.6,1.1c-1.3,0-2.7-0.9-2.7-2.6c0-1.7,1.4-2.6,2.7-2.6c1.1,0,2,0.4,2.6,1.1v-1.6
		c0-1.2-0.9-1.8-2.1-1.8c-1,0-1.7,0.3-2.4,1.1l-0.5-0.6c0.8-0.9,1.7-1.3,3-1.3c1.6,0,2.8,0.8,2.8,2.5v5.4H458.6z M458.6,526.6v-1.7
		c-0.5-0.7-1.4-1.1-2.3-1.1c-1.3,0-2.1,0.8-2.1,1.9c0,1.1,0.8,1.9,2.1,1.9C457.2,527.6,458,527.3,458.6,526.6z"/>
	<path d="M463.4,528.1v-10.7h0.8v10.7H463.4z"/>
	<path d="M468.3,528.1v-10.7h0.8v10.7H468.3z"/>
	<path d="M473.2,528.1v-7.7h0.8v1.3c0.7-0.9,1.5-1.5,2.6-1.5v0.9c-0.1,0-0.3,0-0.4,0c-0.8,0-1.8,0.7-2.2,1.4v5.6H473.2z"/>
	<path d="M479.4,518.5c0-0.4,0.3-0.6,0.6-0.6c0.4,0,0.6,0.3,0.6,0.6s-0.3,0.6-0.6,0.6C479.7,519.2,479.4,518.9,479.4,518.5z
		 M479.7,528.1v-7.7h0.8v7.7H479.7z"/>
	<path d="M490.2,528.1v-1.2c-0.5,0.8-1.5,1.4-2.7,1.4c-2,0-3.5-1.6-3.5-4c0-2.4,1.4-4.1,3.5-4.1c1.1,0,2.1,0.6,2.7,1.4v-4.2h0.8
		v10.7H490.2z M490.2,526.2v-3.8c-0.4-0.8-1.5-1.4-2.5-1.4c-1.7,0-2.7,1.4-2.7,3.3s1,3.3,2.7,3.3
		C488.8,527.5,489.8,526.9,490.2,526.2z"/>
	<path d="M494.7,524.2c0-2.2,1.6-4,3.7-4c2.4,0,3.6,1.9,3.6,4.1v0.2h-6.5c0.1,1.7,1.2,3.1,3,3.1c1,0,1.9-0.4,2.5-1.1l0.4,0.5
		c-0.8,0.8-1.7,1.2-3,1.2C496.3,528.3,494.7,526.6,494.7,524.2z M498.4,520.9c-1.8,0-2.7,1.6-2.8,2.9h5.6
		C501.2,522.5,500.3,520.9,498.4,520.9z"/>
	<path d="M505.6,528.1v-7.7h0.8v1.3c0.7-0.9,1.5-1.5,2.6-1.5v0.9c-0.1,0-0.3,0-0.4,0c-0.8,0-1.8,0.7-2.2,1.4v5.6H505.6z"/>
	<path d="M511.5,527.1l0.5-0.6c0.5,0.6,1.4,1.1,2.5,1.1c1.3,0,2.1-0.7,2.1-1.6c0-2.1-4.9-0.9-4.9-3.7c0-1.2,1-2.1,2.8-2.1
		c1.3,0,2.2,0.5,2.8,1.1l-0.5,0.6c-0.4-0.6-1.3-1-2.3-1c-1.2,0-1.9,0.6-1.9,1.4c0,1.9,4.9,0.8,4.9,3.7c0,1.2-1,2.3-2.9,2.3
		C513.2,528.3,512.2,527.9,511.5,527.1z"/>
	<path d="M528.1,525.9c-0.9,0-1.6-0.7-1.6-1.6c0-0.9,0.7-1.6,1.6-1.6c0.9,0,1.6,0.7,1.6,1.6C529.7,525.1,529,525.9,528.1,525.9z"/>
	<path d="M538.7,526.6l0.6-0.7c0.7,0.8,1.8,1.6,3.3,1.6c2.2,0,2.8-1.2,2.8-2.1c0-3.1-6.4-1.5-6.4-5.2c0-1.7,1.6-2.8,3.5-2.8
		c1.6,0,2.8,0.6,3.6,1.5l-0.6,0.7c-0.8-0.9-1.9-1.3-3.1-1.3c-1.4,0-2.5,0.8-2.5,2c0,2.7,6.4,1.2,6.4,5.2c0,1.4-0.9,3-3.8,3
		C540.8,528.3,539.5,527.6,538.7,526.6z"/>
	<path d="M549.5,524.2c0-2.3,1.5-4,3.7-4c2.3,0,3.7,1.8,3.7,4c0,2.3-1.4,4.1-3.7,4.1C551,528.3,549.5,526.5,549.5,524.2z
		 M556.1,524.2c0-1.7-1-3.3-2.8-3.3c-1.8,0-2.8,1.6-2.8,3.3c0,1.7,1,3.3,2.8,3.3C555.1,527.5,556.1,526,556.1,524.2z"/>
	<path d="M565.5,528.1v-0.9c-0.7,0.8-1.6,1.1-2.6,1.1c-1.3,0-2.7-0.9-2.7-2.6c0-1.7,1.4-2.6,2.7-2.6c1.1,0,2,0.4,2.6,1.1v-1.6
		c0-1.2-0.9-1.8-2.1-1.8c-1,0-1.7,0.3-2.4,1.1l-0.5-0.6c0.8-0.9,1.7-1.3,3-1.3c1.6,0,2.8,0.8,2.8,2.5v5.4H565.5z M565.5,526.6v-1.7
		c-0.5-0.7-1.4-1.1-2.3-1.1c-1.3,0-2.1,0.8-2.1,1.9c0,1.1,0.8,1.9,2.1,1.9C564.1,527.6,564.9,527.3,565.5,526.6z"/>
	<path d="M570.3,528.1v-7.7h0.8v1.3c0.7-0.9,1.5-1.5,2.6-1.5v0.9c-0.1,0-0.3,0-0.4,0c-0.8,0-1.8,0.7-2.2,1.4v5.6H570.3z"/>
	<path d="M576.6,518.5c0-0.4,0.3-0.6,0.6-0.6c0.4,0,0.6,0.3,0.6,0.6s-0.3,0.6-0.6,0.6C576.9,519.2,576.6,518.9,576.6,518.5z
		 M576.8,528.1v-7.7h0.8v7.7H576.8z"/>
	<path d="M586.9,528.1v-5.2c0-1.5-0.8-1.9-1.9-1.9c-1,0-2,0.6-2.5,1.3v5.8h-0.8v-7.7h0.8v1.2c0.6-0.7,1.7-1.4,2.8-1.4
		c1.6,0,2.4,0.8,2.4,2.5v5.4H586.9z"/>
	<path d="M591.8,530.1l0.5-0.6c0.7,0.8,1.4,1.1,2.6,1.1c1.4,0,2.6-0.7,2.6-2.5v-1.2c-0.5,0.8-1.5,1.4-2.7,1.4c-2,0-3.5-1.6-3.5-4
		c0-2.4,1.4-4,3.5-4c1.1,0,2.1,0.6,2.7,1.4v-1.2h0.8v7.7c0,2.4-1.6,3.2-3.5,3.2C593.6,531.2,592.7,531,591.8,530.1z M597.5,526.1
		v-3.8c-0.4-0.8-1.5-1.4-2.5-1.4c-1.7,0-2.7,1.4-2.7,3.3c0,1.9,1,3.3,2.7,3.3C596,527.5,597,526.9,597.5,526.1z"/>
	<path d="M608,528.1v-10.7h4.4c1.8,0,2.9,1,2.9,2.7c0,1.3-0.9,2.3-1.9,2.4c1.1,0.2,2.1,1.4,2.1,2.6c0,1.8-1.2,2.9-3.1,2.9H608z
		 M614.3,520.2c0-1.1-0.7-2-2.1-2h-3.4v4h3.4C613.6,522.2,614.3,521.3,614.3,520.2z M614.5,525.2c0-1.1-0.8-2.1-2.2-2.1h-3.4v4.2
		h3.4C613.7,527.3,614.5,526.5,614.5,525.2z"/>
	<path d="M624.1,528.1v-0.9c-0.7,0.8-1.6,1.1-2.6,1.1c-1.3,0-2.7-0.9-2.7-2.6c0-1.7,1.4-2.6,2.7-2.6c1.1,0,2,0.4,2.6,1.1v-1.6
		c0-1.2-0.9-1.8-2.1-1.8c-1,0-1.7,0.3-2.4,1.1l-0.5-0.6c0.8-0.9,1.7-1.3,3-1.3c1.6,0,2.8,0.8,2.8,2.5v5.4H624.1z M624.1,526.6v-1.7
		c-0.5-0.7-1.4-1.1-2.3-1.1c-1.3,0-2.1,0.8-2.1,1.9c0,1.1,0.8,1.9,2.1,1.9C622.7,527.6,623.6,527.3,624.1,526.6z"/>
	<path d="M629,528.1v-10.7h0.8v10.7H629z"/>
	<path d="M633.8,528.1v-10.7h0.8v10.7H633.8z"/>
	<path d="M638,527.1l0.5-0.6c0.5,0.6,1.4,1.1,2.5,1.1c1.3,0,2.1-0.7,2.1-1.6c0-2.1-4.9-0.9-4.9-3.7c0-1.2,1-2.1,2.8-2.1
		c1.3,0,2.2,0.5,2.8,1.1l-0.5,0.6c-0.4-0.6-1.3-1-2.3-1c-1.2,0-1.9,0.6-1.9,1.4c0,1.9,4.9,0.8,4.9,3.7c0,1.2-1,2.3-2.9,2.3
		C639.8,528.3,638.8,527.9,638,527.1z"/>
	<path d="M652.5,526.6l0.6-0.7c0.7,0.8,1.8,1.6,3.3,1.6c2.2,0,2.8-1.2,2.8-2.1c0-3.1-6.4-1.5-6.4-5.2c0-1.7,1.6-2.8,3.5-2.8
		c1.6,0,2.8,0.6,3.6,1.5l-0.6,0.7c-0.8-0.9-1.9-1.3-3.1-1.3c-1.4,0-2.5,0.8-2.5,2c0,2.7,6.4,1.2,6.4,5.2c0,1.4-0.9,3-3.8,3
		C654.7,528.3,653.3,527.6,652.5,526.6z"/>
	<path d="M663.4,530.4c0.2,0.1,0.5,0.1,0.7,0.1c0.5,0,0.9-0.2,1.2-0.9l0.6-1.4l-3.3-7.8h0.9l2.8,6.8l2.8-6.8h0.9l-4,9.4
		c-0.4,1-1.1,1.4-2,1.4c-0.3,0-0.6,0-0.8-0.1L663.4,530.4z"/>
	<path d="M678.2,528.1v-5.2c0-1.5-0.8-1.9-1.9-1.9c-1,0-2,0.6-2.5,1.3v5.8h-0.8v-7.7h0.8v1.2c0.6-0.7,1.7-1.4,2.8-1.4
		c1.6,0,2.4,0.8,2.4,2.5v5.4H678.2z"/>
	<path d="M688.7,528.1v-1.2c-0.5,0.8-1.5,1.4-2.7,1.4c-2,0-3.5-1.6-3.5-4c0-2.4,1.4-4.1,3.5-4.1c1.1,0,2.1,0.6,2.7,1.4v-4.2h0.8
		v10.7H688.7z M688.7,526.2v-3.8c-0.4-0.8-1.5-1.4-2.5-1.4c-1.7,0-2.7,1.4-2.7,3.3s1,3.3,2.7,3.3
		C687.3,527.5,688.3,526.9,688.7,526.2z"/>
	<path d="M693.4,518.5c0-0.4,0.3-0.6,0.6-0.6c0.4,0,0.6,0.3,0.6,0.6s-0.3,0.6-0.6,0.6C693.7,519.2,693.4,518.9,693.4,518.5z
		 M693.6,528.1v-7.7h0.8v7.7H693.6z"/>
	<path d="M698,524.2c0-2.3,1.5-4,3.8-4c1.3,0,2.1,0.5,2.7,1.3l-0.6,0.5c-0.6-0.8-1.3-1.1-2.1-1.1c-1.8,0-2.9,1.4-2.9,3.3
		c0,1.9,1.1,3.3,2.9,3.3c0.8,0,1.6-0.3,2.1-1.1l0.6,0.5c-0.6,0.8-1.4,1.3-2.7,1.3C699.5,528.3,698,526.5,698,524.2z"/>
	<path d="M712.7,528.1v-0.9c-0.7,0.8-1.6,1.1-2.6,1.1c-1.3,0-2.7-0.9-2.7-2.6c0-1.7,1.4-2.6,2.7-2.6c1.1,0,2,0.4,2.6,1.1v-1.6
		c0-1.2-0.9-1.8-2.1-1.8c-1,0-1.7,0.3-2.4,1.1l-0.5-0.6c0.8-0.9,1.7-1.3,3-1.3c1.6,0,2.8,0.8,2.8,2.5v5.4H712.7z M712.7,526.6v-1.7
		c-0.5-0.7-1.4-1.1-2.3-1.1c-1.3,0-2.1,0.8-2.1,1.9c0,1.1,0.8,1.9,2.1,1.9C711.3,527.6,712.2,527.3,712.7,526.6z"/>
	<path d="M717.7,526.6v-5.5h-1.3v-0.7h1.3v-2.1h0.8v2.1h1.6v0.7h-1.6v5.4c0,0.6,0.3,1.1,0.8,1.1c0.4,0,0.7-0.2,0.9-0.4l0.3,0.6
		c-0.3,0.3-0.7,0.5-1.3,0.5C718.2,528.3,717.7,527.7,717.7,526.6z"/>
	<path d="M723,524.2c0-2.2,1.6-4,3.7-4c2.4,0,3.6,1.9,3.6,4.1v0.2h-6.5c0.1,1.7,1.2,3.1,3,3.1c1,0,1.9-0.4,2.5-1.1l0.4,0.5
		c-0.8,0.8-1.7,1.2-3,1.2C724.6,528.3,723,526.6,723,524.2z M726.7,520.9c-1.8,0-2.7,1.6-2.8,2.9h5.6
		C729.5,522.5,728.6,520.9,726.7,520.9z"/>
</g>
<g>
	<path d="M191.7,419v-34.2H146V419h-6.2v-72h6.2v32.2h45.7V347h6.3v72H191.7z"/>
	<path d="M248.2,419v-72h6.2v72H248.2z"/>
	<path d="M323,419v-66.4h-23.5V347h53.4v5.6h-23.5V419H323z"/>
	<path d="M459.1,419v-63.6L432.9,419h-2.4l-26.4-63.6V419H398v-72h9.2l24.5,59.4l24.4-59.4h9.3v72H459.1z"/>
	<path d="M515.7,419v-72h45.7v5.6h-39.5v26.7h38.8v5.6h-38.8v28.5h39.5v5.6H515.7z"/>
	<path d="M609,419v-72h29.6c12.1,0,19.9,7,19.9,18.4c0,9.1-6.2,15.2-12.6,16.5c7.7,1.2,14,9.2,14,17.7c0,12-7.8,19.4-20.6,19.4H609z
		 M652,366c0-7.3-4.9-13.4-14.1-13.4h-22.7v26.7h22.7C647.1,379.3,652,373.4,652,366z M653.4,399.1c0-7.3-5.1-14.3-15.1-14.3h-23.1
		v28.5h23.1C647.8,413.4,653.4,407.9,653.4,399.1z"/>
	<path d="M759.9,419l-7.1-17.7h-38.1l-7.1,17.7h-7.1l29.5-72h7.7l29.5,72H759.9z M733.6,353.6l-17,42.1h34L733.6,353.6z"/>
	<path d="M810,419v-72h29.6c12.1,0,19.9,7,19.9,18.4c0,9.1-6.2,15.2-12.6,16.5c7.7,1.2,14,9.2,14,17.7c0,12-7.8,19.4-20.6,19.4H810z
		 M853,366c0-7.3-4.9-13.4-14.1-13.4h-22.7v26.7h22.7C848.1,379.3,853,373.4,853,366z M854.4,399.1c0-7.3-5.1-14.3-15.1-14.3h-23.1
		v28.5h23.1C848.8,413.4,854.4,407.9,854.4,399.1z"/>
	<path d="M930,419v-30.8L901.4,347h7.5l24.3,35.4l24.3-35.4h7.5l-28.6,41.3V419H930z"/>
</g>
<line fill="none" stroke="#000000" stroke-width="0.763" x1="458.1" y1="470.6" x2="644.4" y2="470.6"/>
<g>
	<polygon points="546.7,169.7 559.1,178.7 555.8,181.9 548.3,175.1 	"/>
	<polygon points="537.6,201.6 532.3,206 533.9,128.1 537.6,135.2 	"/>
	<polygon points="569,176.3 545.5,154.9 545.5,150.2 574.6,171.9 	"/>
	<polygon points="569.3,194.1 527.9,226.4 527.9,223.1 565.5,190.1 	"/>
	<polygon points="545.5,168.8 548.9,171.4 549,188.8 545.5,192.1 	"/>
	<polygon points="569.2,176.1 545.5,194.9 545.5,191.9 565.3,172.3 	"/>
	<polygon points="569.2,194.2 556.4,182.5 558.9,178.7 574.4,190.3 	"/>
</g>
<g>
	<path d="M461.3,556.7c0-3.3,2.4-5.5,5.4-5.5c1.7,0,3,0.8,3.9,1.9l-0.8,0.5c-0.7-0.9-1.8-1.6-3.1-1.6c-2.5,0-4.5,1.9-4.5,4.7
		c0,2.8,1.9,4.7,4.5,4.7c1.3,0,2.4-0.6,3.1-1.6l0.8,0.5c-0.9,1.2-2.2,1.9-3.9,1.9C463.7,562.2,461.3,560,461.3,556.7z"/>
	<path d="M473.8,562v-10.7h0.8V562H473.8z"/>
	<path d="M478.5,552.4c0-0.4,0.3-0.6,0.6-0.6c0.4,0,0.6,0.3,0.6,0.6s-0.3,0.6-0.6,0.6C478.8,553.1,478.5,552.8,478.5,552.4z
		 M478.7,562v-7.7h0.8v7.7H478.7z"/>
	<path d="M483.1,558.1c0-2.3,1.5-4,3.8-4c1.3,0,2.1,0.5,2.7,1.3l-0.6,0.5c-0.6-0.8-1.3-1.1-2.1-1.1c-1.8,0-2.9,1.4-2.9,3.3
		c0,1.9,1.1,3.3,2.9,3.3c0.8,0,1.6-0.3,2.1-1.1l0.6,0.5c-0.6,0.8-1.4,1.3-2.7,1.3C484.6,562.2,483.1,560.4,483.1,558.1z"/>
	<path d="M498.3,562l-3.1-3.7l-1.4,1.4v2.3h-0.8v-10.7h0.8v7.4l4.6-4.4h1.1l-3.6,3.5l3.6,4.2H498.3z"/>
	<path d="M507.6,558.1c0-2.3,1.5-4,3.7-4c2.3,0,3.7,1.8,3.7,4c0,2.3-1.4,4.1-3.7,4.1C509,562.2,507.6,560.4,507.6,558.1z
		 M514.1,558.1c0-1.7-1-3.3-2.8-3.3c-1.8,0-2.8,1.6-2.8,3.3c0,1.7,1,3.3,2.8,3.3C513.1,561.4,514.1,559.9,514.1,558.1z"/>
	<path d="M523.8,562v-5.2c0-1.5-0.8-1.9-1.9-1.9c-1,0-2,0.6-2.5,1.3v5.8h-0.8v-7.7h0.8v1.2c0.6-0.7,1.7-1.4,2.8-1.4
		c1.6,0,2.4,0.8,2.4,2.5v5.4H523.8z"/>
	<path d="M534.4,560.5V555h-1.3v-0.7h1.3v-2.1h0.8v2.1h1.6v0.7h-1.6v5.4c0,0.6,0.3,1.1,0.8,1.1c0.4,0,0.7-0.2,0.9-0.4l0.3,0.6
		c-0.3,0.3-0.7,0.5-1.3,0.5C534.9,562.2,534.4,561.6,534.4,560.5z"/>
	<path d="M539.7,558.1c0-2.3,1.5-4,3.7-4c2.3,0,3.7,1.8,3.7,4c0,2.3-1.4,4.1-3.7,4.1C541.1,562.2,539.7,560.4,539.7,558.1z
		 M546.2,558.1c0-1.7-1-3.3-2.8-3.3c-1.8,0-2.8,1.6-2.8,3.3c0,1.7,1,3.3,2.8,3.3C545.2,561.4,546.2,559.9,546.2,558.1z"/>
	<path d="M562.9,562l-2.2-6.6l-2.2,6.6h-0.8l-2.5-7.7h0.9l2,6.6l2.2-6.6h0.7l2.2,6.6l2-6.6h0.9l-2.5,7.7H562.9z"/>
	<path d="M569.2,562v-7.7h0.8v1.3c0.7-0.9,1.5-1.5,2.6-1.5v0.9c-0.1,0-0.3,0-0.4,0c-0.8,0-1.8,0.7-2.2,1.4v5.6H569.2z"/>
	<path d="M575.5,552.4c0-0.4,0.3-0.6,0.6-0.6c0.4,0,0.6,0.3,0.6,0.6s-0.3,0.6-0.6,0.6C575.8,553.1,575.5,552.8,575.5,552.4z
		 M575.7,562v-7.7h0.8v7.7H575.7z"/>
	<path d="M580.7,560.5V555h-1.3v-0.7h1.3v-2.1h0.8v2.1h1.6v0.7h-1.6v5.4c0,0.6,0.3,1.1,0.8,1.1c0.4,0,0.7-0.2,0.9-0.4l0.3,0.6
		c-0.3,0.3-0.7,0.5-1.3,0.5C581.2,562.2,580.7,561.6,580.7,560.5z"/>
	<path d="M586,558.1c0-2.2,1.6-4,3.7-4c2.4,0,3.6,1.9,3.6,4.1v0.2h-6.5c0.1,1.7,1.2,3.1,3,3.1c1,0,1.9-0.4,2.5-1.1l0.4,0.5
		c-0.8,0.8-1.7,1.2-3,1.2C587.6,562.2,586,560.5,586,558.1z M589.7,554.8c-1.8,0-2.7,1.6-2.8,2.9h5.6
		C592.5,556.4,591.6,554.8,589.7,554.8z"/>
	<path d="M602.7,560.5V555h-1.3v-0.7h1.3v-2.1h0.8v2.1h1.6v0.7h-1.6v5.4c0,0.6,0.3,1.1,0.8,1.1c0.4,0,0.7-0.2,0.9-0.4l0.3,0.6
		c-0.3,0.3-0.7,0.5-1.3,0.5C603.2,562.2,602.7,561.6,602.7,560.5z"/>
	<path d="M607.9,558.1c0-2.3,1.5-4,3.7-4c2.3,0,3.7,1.8,3.7,4c0,2.3-1.4,4.1-3.7,4.1C609.4,562.2,607.9,560.4,607.9,558.1z
		 M614.5,558.1c0-1.7-1-3.3-2.8-3.3c-1.8,0-2.8,1.6-2.8,3.3c0,1.7,1,3.3,2.8,3.3C613.4,561.4,614.5,559.9,614.5,558.1z"/>
	<path d="M629.7,562v-1.1c-0.6,0.7-1.7,1.3-2.8,1.3c-1.6,0-2.4-0.7-2.4-2.5v-5.4h0.8v5.2c0,1.5,0.8,1.9,1.9,1.9c1,0,2-0.6,2.5-1.3
		v-5.9h0.8v7.7H629.7z"/>
	<path d="M633.9,561l0.5-0.6c0.5,0.6,1.4,1.1,2.5,1.1c1.3,0,2.1-0.7,2.1-1.6c0-2.1-4.9-0.9-4.9-3.7c0-1.2,1-2.1,2.8-2.1
		c1.3,0,2.2,0.5,2.8,1.1l-0.5,0.6c-0.4-0.6-1.3-1-2.3-1c-1.2,0-1.9,0.6-1.9,1.4c0,1.9,4.9,0.8,4.9,3.7c0,1.2-1,2.3-2.9,2.3
		C635.6,562.2,634.7,561.8,633.9,561z"/>
</g>
<g id="Ebene_5">
	<g display="none">
		<path display="inline" d="M551.2,578c0.3,0,0.6,0.3,0.6,0.6v26.8l9.2-9.3c0.1-0.1,0.2-0.2,0.4-0.2c0.3,0,0.6,0.3,0.6,0.6
			c0,0.1-0.1,0.3-0.2,0.4l-10.2,10.2c-0.1,0.1-0.2,0.2-0.4,0.2c-0.1,0-0.3-0.1-0.4-0.2l-10.2-10.2c-0.1-0.1-0.2-0.2-0.2-0.4
			c0-0.3,0.3-0.6,0.6-0.6c0.1,0,0.3,0.1,0.4,0.2l9.2,9.2v-26.8C550.6,578.2,550.9,578,551.2,578z"/>
	</g>
	<g display="none">
		<path display="inline" d="M550.6,606.8V580l-9.2,9.2c-0.1,0.1-0.2,0.2-0.4,0.2c-0.3,0-0.6-0.3-0.6-0.6c0-0.1,0.1-0.3,0.2-0.4
			l10.2-10.2c0.1-0.1,0.3-0.2,0.4-0.2c0.1,0,0.3,0.1,0.4,0.2l10.2,10.2c0.1,0.1,0.2,0.2,0.2,0.4c0,0.3-0.3,0.6-0.6,0.6
			c-0.1,0-0.3-0.1-0.4-0.2l-9.2-9.3v26.8c0,0.3-0.3,0.6-0.6,0.6C550.9,607.3,550.6,607.1,550.6,606.8z"/>
	</g>
	<g>
		<path d="M536.5,592.7c0-0.3,0.3-0.6,0.6-0.6H564l-9.3-9.2c-0.1-0.1-0.2-0.2-0.2-0.4c0-0.3,0.3-0.6,0.6-0.6c0.2,0,0.3,0.1,0.4,0.2
			l10.2,10.2c0.1,0.1,0.2,0.2,0.2,0.4c0,0.1-0.1,0.3-0.2,0.4l-10.2,10.2c-0.1,0.1-0.2,0.2-0.4,0.2c-0.3,0-0.6-0.3-0.6-0.6
			c0-0.1,0.1-0.3,0.2-0.4l9.2-9.2h-26.8C536.8,593.3,536.5,593,536.5,592.7z"/>
	</g>
	<g display="none">
		<path display="inline" d="M565.3,593.3h-26.8l9.2,9.2c0.1,0.1,0.2,0.2,0.2,0.4c0,0.3-0.3,0.6-0.6,0.6c-0.1,0-0.3-0.1-0.4-0.2
			l-10.2-10.2c-0.1-0.1-0.2-0.3-0.2-0.4c0-0.1,0.1-0.3,0.2-0.4l10.2-10.2c0.1-0.1,0.2-0.2,0.4-0.2c0.3,0,0.6,0.3,0.6,0.6
			c0,0.1-0.1,0.3-0.2,0.4l-9.3,9.2h26.9c0.3,0,0.6,0.3,0.6,0.6C565.9,593,565.6,593.3,565.3,593.3z"/>
	</g>
</g>
</svg>
