<?xml version="1.0" encoding="utf-8"?>
<!-- Generator: Adobe Illustrator 18.0.0, SVG Export Plug-In . SVG Version: 6.00 Build 0)  -->
<!DOCTYPE svg PUBLIC "-//W3C//DTD SVG 1.1//EN" "http://www.w3.org/Graphics/SVG/1.1/DTD/svg11.dtd">
<svg version="1.1" id="START" xmlns="http://www.w3.org/2000/svg" xmlns:xlink="http://www.w3.org/1999/xlink" x="0px" y="0px"
	 viewBox="126 -11.4 850.4 708.7" enable-background="new 126 -11.4 850.4 708.7" xml:space="preserve">
<linearGradient id="SVGID_1_" gradientUnits="userSpaceOnUse" x1="268.262" y1="422.495" x2="834.1732" y2="260.2225">
	<stop  offset="0" style="stop-color:#EAFF00"/>
	<stop  offset="0.2033" style="stop-color:#EAFF00"/>
	<stop  offset="0.73" style="stop-color:#A2FC59"/>
	<stop  offset="1" style="stop-color:#57F866"/>
</linearGradient>
<ellipse fill="none" stroke="url(#SVGID_1_)" stroke-width="15" stroke-miterlimit="10" cx="551.2" cy="341.4" rx="286.3" ry="293"/>
<g>
	<path d="M472.8,314.3v-14.7h9.3v1.1h-8.1v5.4h7.9v1.1h-7.9v7H472.8z"/>
	<path d="M485.3,306.9c0-4.3,2.8-7.6,7.1-7.6c4.3,0,7.1,3.3,7.1,7.6s-2.8,7.6-7.1,7.6C488.1,314.5,485.3,311.2,485.3,306.9z
		 M498.3,306.9c0-3.7-2.3-6.4-5.8-6.4c-3.6,0-5.8,2.7-5.8,6.4c0,3.7,2.2,6.4,5.8,6.4C496,313.4,498.3,310.6,498.3,306.9z"/>
	<path d="M512.4,314.3l-4.1-6.1H505v6.1h-1.3v-14.7h5.5c2.5,0,4.5,1.6,4.5,4.3c0,2.7-1.9,4.1-4.1,4.2l4.2,6.2H512.4z M512.4,303.9
		c0-1.8-1.3-3.1-3.3-3.1H505v6.3h4.1C511.1,307.1,512.4,305.7,512.4,303.9z"/>
	<path d="M524.2,306.9c0-4.5,3.3-7.6,7.4-7.6c2.3,0,4.1,1,5.3,2.6l-1.1,0.7c-0.9-1.3-2.5-2.1-4.3-2.1c-3.5,0-6.1,2.6-6.1,6.4
		c0,3.8,2.7,6.4,6.1,6.4c1.8,0,3.4-0.9,4.3-2.1l1.1,0.7c-1.3,1.6-3,2.6-5.3,2.6C527.5,314.5,524.2,311.5,524.2,306.9z"/>
	<path d="M540.1,306.9c0-4.3,2.8-7.6,7.1-7.6c4.3,0,7.1,3.3,7.1,7.6s-2.8,7.6-7.1,7.6C542.9,314.5,540.1,311.2,540.1,306.9z
		 M553,306.9c0-3.7-2.3-6.4-5.8-6.4c-3.6,0-5.8,2.7-5.8,6.4c0,3.7,2.2,6.4,5.8,6.4C550.7,313.4,553,310.6,553,306.9z"/>
	<path d="M569,314.3l-9.2-12.6v12.6h-1.3v-14.7h1.3L569,312v-12.4h1.3v14.7H569z"/>
	<path d="M578.8,314.3v-13.5H574v-1.1h10.9v1.1H580v13.5H578.8z"/>
	<path d="M599.1,314.3l-1.5-3.6h-7.8l-1.5,3.6H587l6-14.7h1.6l6,14.7H599.1z M593.8,300.9l-3.5,8.6h6.9L593.8,300.9z"/>
	<path d="M603.3,306.9c0-4.5,3.3-7.6,7.4-7.6c2.3,0,4.1,1,5.3,2.6l-1.1,0.7c-0.9-1.3-2.5-2.1-4.3-2.1c-3.5,0-6.1,2.6-6.1,6.4
		c0,3.8,2.7,6.4,6.1,6.4c1.8,0,3.4-0.9,4.3-2.1l1.1,0.7c-1.3,1.6-3,2.6-5.3,2.6C606.6,314.5,603.3,311.5,603.3,306.9z"/>
	<path d="M623.5,314.3v-13.5h-4.8v-1.1h10.9v1.1h-4.8v13.5H623.5z"/>
</g>
<g>
	<path d="M278.2,569.3c0-6.2,4.7-10.3,10.8-10.3c4.8,0,7.4,2.7,8.7,5.4l-4.4,2.1c-0.7-1.6-2.4-2.9-4.3-2.9c-3.3,0-5.6,2.5-5.6,5.8
		c0,3.3,2.3,5.8,5.6,5.8c1.9,0,3.6-1.3,4.3-2.9l4.4,2.1c-1.3,2.6-3.9,5.4-8.7,5.4C282.9,579.7,278.2,575.5,278.2,569.3z"/>
	<path d="M302.6,579.3v-20h4.6v20H302.6z"/>
	<path d="M312.9,560.9c0-1.5,1.2-2.6,2.6-2.6c1.5,0,2.6,1.2,2.6,2.6s-1.2,2.7-2.6,2.7C314.1,563.5,312.9,562.3,312.9,560.9z
		 M313.2,579.3v-14.5h4.6v14.5H313.2z"/>
	<path d="M323,572.1c0-4.5,3.4-7.6,7.9-7.6c3.1,0,5.1,1.4,5.9,2.7l-3,2.8c-0.6-0.8-1.5-1.4-2.7-1.4c-1.9,0-3.4,1.3-3.4,3.5
		c0,2.2,1.5,3.5,3.4,3.5c1.2,0,2.2-0.6,2.7-1.4l3,2.8c-0.9,1.3-2.8,2.7-5.9,2.7C326.4,579.7,323,576.6,323,572.1z"/>
	<path d="M350.8,579.3l-3.2-5.1l-1.4,1.7v3.5h-4.6v-20h4.6v11.3l4.4-5.8h5.6l-5.3,6.6l5.6,7.9H350.8z"/>
	<path d="M370.1,572.1c0-4.1,3-7.6,7.9-7.6c5,0,7.9,3.5,7.9,7.6s-2.9,7.6-7.9,7.6C373.1,579.7,370.1,576.1,370.1,572.1z
		 M381.2,572.1c0-1.9-1.1-3.5-3.2-3.5c-2,0-3.1,1.6-3.1,3.5c0,2,1.1,3.5,3.1,3.5C380.1,575.6,381.2,574,381.2,572.1z"/>
	<path d="M400.9,579.3V571c0-1.8-0.9-2.4-2.4-2.4c-1.4,0-2.3,0.8-2.8,1.4v9.4h-4.6v-14.5h4.6v1.8c0.9-1,2.6-2.1,5-2.1
		c3.3,0,4.8,1.9,4.8,4.6v10.3H400.9z"/>
	<path d="M422.9,575.4v-6.6h-2.4v-4h2.4v-4h4.6v4h2.9v4h-2.9v5.3c0,0.8,0.5,1.5,1.3,1.5c0.5,0,1-0.2,1.2-0.4l0.9,3.5
		c-0.6,0.5-1.7,1-3.4,1C424.5,579.7,422.9,578.2,422.9,575.4z"/>
	<path d="M434.5,572.1c0-4.1,3-7.6,7.9-7.6c5,0,7.9,3.5,7.9,7.6s-2.9,7.6-7.9,7.6C437.4,579.7,434.5,576.1,434.5,572.1z
		 M445.5,572.1c0-1.9-1.1-3.5-3.2-3.5c-2,0-3.1,1.6-3.1,3.5c0,2,1.1,3.5,3.1,3.5C444.4,575.6,445.5,574,445.5,572.1z"/>
	<path d="M464.6,577.5l1.9-3.2c1.1,1,3.4,1.9,5.1,1.9c1.4,0,2-0.5,2-1.1c0-1.9-8.4,0-8.4-5.8c0-2.6,2.2-4.8,6.2-4.8
		c2.4,0,4.5,0.8,6.1,1.9l-1.8,3.1c-0.9-0.8-2.5-1.6-4.3-1.6c-1.1,0-1.8,0.5-1.8,1.1c0,1.7,8.4,0,8.4,6c0,2.8-2.4,4.8-6.6,4.8
		C468.8,579.7,466.1,578.8,464.6,577.5z"/>
	<path d="M482.1,572.1c0-4.2,3.2-7.6,7.7-7.6c4.3,0,7.4,3.2,7.4,8.1v1h-10.3c0.3,1.4,1.5,2.6,3.6,2.6c1,0,2.8-0.5,3.6-1.2l2,2.9
		c-1.4,1.3-3.8,1.9-6.1,1.9C485.5,579.7,482.1,576.8,482.1,572.1z M489.8,568c-2,0-2.8,1.4-3,2.5h6C492.6,569.5,491.9,568,489.8,568
		z"/>
	<path d="M512,579.3V571c0-1.8-0.9-2.4-2.4-2.4c-1.4,0-2.3,0.8-2.8,1.4v9.4h-4.6v-14.5h4.6v1.8c0.9-1,2.6-2.1,5-2.1
		c3.3,0,4.8,1.9,4.8,4.6v10.3H512z"/>
	<path d="M532.4,579.3v-1.7c-1.2,1.4-2.7,2-4.3,2c-3.6,0-6.4-2.7-6.4-7.6c0-4.7,2.8-7.6,6.4-7.6c1.6,0,3.1,0.6,4.3,2.1v-7.2h4.6v20
		H532.4z M532.4,574.3v-4.4c-0.6-0.8-1.8-1.3-2.8-1.3c-1.8,0-3.2,1.3-3.2,3.5s1.3,3.5,3.2,3.5C530.6,575.6,531.8,575.1,532.4,574.3z
		"/>
	<path d="M562,579.3v-1.4c-0.9,1.1-2.6,1.8-4.5,1.8c-2.2,0-5-1.5-5-4.8c0-3.5,2.8-4.6,5-4.6c1.9,0,3.6,0.6,4.5,1.7v-1.7
		c0-1.3-1.1-2.1-2.9-2.1c-1.4,0-2.9,0.5-4.1,1.5l-1.6-2.9c1.9-1.6,4.3-2.2,6.6-2.2c3.5,0,6.8,1.3,6.8,5.8v9.1H562z M562,575.6v-1.3
		c-0.5-0.7-1.6-1-2.6-1c-1.2,0-2.3,0.5-2.3,1.7c0,1.1,1.1,1.7,2.3,1.7C560.4,576.7,561.5,576.3,562,575.6z"/>
	<path d="M601.3,579.3v-8.8c0-1.1-0.5-2-1.9-2c-1.3,0-2.2,0.8-2.6,1.4v9.4h-4.6v-8.8c0-1.1-0.5-2-1.9-2c-1.2,0-2.1,0.8-2.6,1.4v9.4
		h-4.6v-14.5h4.6v1.8c0.6-0.8,2.5-2.1,4.8-2.1c2.1,0,3.5,0.9,4.1,2.6c0.8-1.3,2.7-2.6,5-2.6c2.7,0,4.3,1.4,4.3,4.3v10.5H601.3z"/>
	<path d="M611.1,572.1c0-4.2,3.2-7.6,7.7-7.6c4.3,0,7.4,3.2,7.4,8.1v1h-10.3c0.3,1.4,1.5,2.6,3.6,2.6c1,0,2.8-0.5,3.6-1.2l2,2.9
		c-1.4,1.3-3.8,1.9-6.1,1.9C614.5,579.7,611.1,576.8,611.1,572.1z M618.8,568c-2,0-2.8,1.4-3,2.5h6C621.6,569.5,620.9,568,618.8,568
		z"/>
	<path d="M629.9,577.5l1.9-3.2c1.1,1,3.4,1.9,5.1,1.9c1.4,0,2-0.5,2-1.1c0-1.9-8.4,0-8.4-5.8c0-2.6,2.2-4.8,6.2-4.8
		c2.4,0,4.5,0.8,6.1,1.9l-1.8,3.1c-0.9-0.8-2.5-1.6-4.3-1.6c-1.1,0-1.8,0.5-1.8,1.1c0,1.7,8.4,0,8.4,6c0,2.8-2.4,4.8-6.6,4.8
		C634.1,579.7,631.5,578.8,629.9,577.5z"/>
	<path d="M647.1,577.5l1.9-3.2c1.1,1,3.4,1.9,5.1,1.9c1.4,0,2-0.5,2-1.1c0-1.9-8.4,0-8.4-5.8c0-2.6,2.2-4.8,6.2-4.8
		c2.4,0,4.5,0.8,6.1,1.9l-1.8,3.1c-0.9-0.8-2.5-1.6-4.3-1.6c-1.1,0-1.8,0.5-1.8,1.1c0,1.7,8.4,0,8.4,6c0,2.8-2.4,4.8-6.6,4.8
		C651.3,579.7,648.7,578.8,647.1,577.5z"/>
	<path d="M674.1,579.3v-1.4c-0.9,1.1-2.6,1.8-4.5,1.8c-2.2,0-5-1.5-5-4.8c0-3.5,2.8-4.6,5-4.6c1.9,0,3.6,0.6,4.5,1.7v-1.7
		c0-1.3-1.1-2.1-2.9-2.1c-1.4,0-2.9,0.5-4.1,1.5l-1.6-2.9c1.9-1.6,4.3-2.2,6.6-2.2c3.5,0,6.8,1.3,6.8,5.8v9.1H674.1z M674.1,575.6
		v-1.3c-0.5-0.7-1.6-1-2.6-1c-1.2,0-2.3,0.5-2.3,1.7c0,1.1,1.1,1.7,2.3,1.7C672.6,576.7,673.7,576.3,674.1,575.6z"/>
	<path d="M684.4,583l2-3.3c1.1,1.2,2.7,1.7,4.4,1.7c1.5,0,3.7-0.6,3.7-3.3V577c-1.2,1.4-2.6,2.1-4.3,2.1c-3.5,0-6.4-2.4-6.4-7.3
		c0-4.8,2.8-7.3,6.4-7.3c1.6,0,3.1,0.6,4.3,2.1v-1.7h4.6V578c0,5.9-4.7,7.2-8.3,7.2C688.4,585.2,686.3,584.6,684.4,583z
		 M694.5,573.7v-3.9c-0.6-0.8-1.8-1.3-2.8-1.3c-1.8,0-3.2,1.1-3.2,3.2c0,2.1,1.3,3.2,3.2,3.2C692.7,575,694,574.5,694.5,573.7z"/>
	<path d="M704.3,572.1c0-4.2,3.2-7.6,7.7-7.6c4.3,0,7.4,3.2,7.4,8.1v1h-10.3c0.3,1.4,1.5,2.6,3.6,2.6c1,0,2.8-0.5,3.6-1.2l2,2.9
		c-1.4,1.3-3.8,1.9-6.1,1.9C707.7,579.7,704.3,576.8,704.3,572.1z M712,568c-2,0-2.8,1.4-3,2.5h6C714.8,569.5,714.1,568,712,568z"/>
	<path d="M735.7,575.4v-6.6h-2.4v-4h2.4v-4h4.6v4h2.9v4h-2.9v5.3c0,0.8,0.5,1.5,1.3,1.5c0.5,0,1-0.2,1.2-0.4l0.9,3.5
		c-0.6,0.5-1.7,1-3.4,1C737.3,579.7,735.7,578.2,735.7,575.4z"/>
	<path d="M747.3,572.1c0-4.1,3-7.6,7.9-7.6c5,0,7.9,3.5,7.9,7.6s-2.9,7.6-7.9,7.6C750.2,579.7,747.3,576.1,747.3,572.1z
		 M758.3,572.1c0-1.9-1.1-3.5-3.2-3.5c-2,0-3.1,1.6-3.1,3.5c0,2,1.1,3.5,3.1,3.5C757.2,575.6,758.3,574,758.3,572.1z"/>
	<path d="M796.9,579.3v-8.8c0-1.1-0.5-2-1.9-2c-1.3,0-2.2,0.8-2.6,1.4v9.4h-4.6v-8.8c0-1.1-0.5-2-1.9-2c-1.2,0-2.1,0.8-2.6,1.4v9.4
		h-4.6v-14.5h4.6v1.8c0.6-0.8,2.5-2.1,4.8-2.1c2.1,0,3.5,0.9,4.1,2.6c0.8-1.3,2.7-2.6,5-2.6c2.7,0,4.3,1.4,4.3,4.3v10.5H796.9z"/>
	<path d="M806.6,572.1c0-4.2,3.2-7.6,7.7-7.6c4.3,0,7.4,3.2,7.4,8.1v1h-10.3c0.3,1.4,1.5,2.6,3.6,2.6c1,0,2.8-0.5,3.6-1.2l2,2.9
		c-1.4,1.3-3.8,1.9-6.1,1.9C810,579.7,806.6,576.8,806.6,572.1z M814.3,568c-2,0-2.8,1.4-3,2.5h6C817.2,569.5,816.4,568,814.3,568z"
		/>
</g>
<g>
	<path d="M191.7,419v-34.2H146V419h-6.2v-72h6.2v32.2h45.7V347h6.3v72H191.7z"/>
	<path d="M248.2,419v-72h6.2v72H248.2z"/>
	<path d="M323,419v-66.4h-23.5V347h53.4v5.6h-23.5V419H323z"/>
	<path d="M459.1,419v-63.6L432.9,419h-2.4l-26.4-63.6V419H398v-72h9.2l24.5,59.4l24.4-59.4h9.3v72H459.1z"/>
	<path d="M515.7,419v-72h45.7v5.6h-39.5v26.7h38.8v5.6h-38.8v28.5h39.5v5.6H515.7z"/>
	<path d="M609,419v-72h29.6c12.1,0,19.9,7,19.9,18.4c0,9.1-6.2,15.2-12.6,16.5c7.7,1.2,14,9.2,14,17.7c0,12-7.8,19.4-20.6,19.4H609z
		 M652,366c0-7.3-4.9-13.4-14.1-13.4h-22.7v26.7h22.7C647.1,379.3,652,373.4,652,366z M653.4,399.1c0-7.3-5.1-14.3-15.1-14.3h-23.1
		v28.5h23.1C647.8,413.4,653.4,407.9,653.4,399.1z"/>
	<path d="M759.9,419l-7.1-17.7h-38.1l-7.1,17.7h-7.1l29.5-72h7.7l29.5,72H759.9z M733.6,353.6l-17,42.1h34L733.6,353.6z"/>
	<path d="M810,419v-72h29.6c12.1,0,19.9,7,19.9,18.4c0,9.1-6.2,15.2-12.6,16.5c7.7,1.2,14,9.2,14,17.7c0,12-7.8,19.4-20.6,19.4H810z
		 M853,366c0-7.3-4.9-13.4-14.1-13.4h-22.7v26.7h22.7C848.1,379.3,853,373.4,853,366z M854.4,399.1c0-7.3-5.1-14.3-15.1-14.3h-23.1
		v28.5h23.1C848.8,413.4,854.4,407.9,854.4,399.1z"/>
	<path d="M930,419v-30.8L901.4,347h7.5l24.3,35.4l24.3-35.4h7.5l-28.6,41.3V419H930z"/>
</g>
<line fill="none" stroke="#000000" stroke-width="0.763" x1="458.1" y1="470.6" x2="644.4" y2="470.6"/>
<g>
	<polygon points="546.7,169.7 559.1,178.7 555.8,181.9 548.3,175.1 	"/>
	<polygon points="537.6,201.6 532.3,206 533.9,128.1 537.6,135.2 	"/>
	<polygon points="569,176.3 545.5,154.9 545.5,150.2 574.6,171.9 	"/>
	<polygon points="569.3,194.1 527.9,226.4 527.9,223.1 565.5,190.1 	"/>
	<polygon points="545.5,168.8 548.9,171.4 549,188.8 545.5,192.1 	"/>
	<polygon points="569.2,176.1 545.5,194.9 545.5,191.9 565.3,172.3 	"/>
	<polygon points="569.2,194.2 556.4,182.5 558.9,178.7 574.4,190.3 	"/>
</g>
<g id="Ebene_5">
	<g display="none">
		<path display="inline" d="M551.2,501.2c0.3,0,0.6,0.3,0.6,0.6v26.8l9.2-9.3c0.1-0.1,0.2-0.2,0.4-0.2c0.3,0,0.6,0.3,0.6,0.6
			c0,0.1-0.1,0.3-0.2,0.4l-10.2,10.2c-0.1,0.1-0.2,0.2-0.4,0.2c-0.1,0-0.3-0.1-0.4-0.2l-10.2-10.2c-0.1-0.1-0.2-0.2-0.2-0.4
			c0-0.3,0.3-0.6,0.6-0.6c0.1,0,0.3,0.1,0.4,0.2l9.2,9.2v-26.8C550.6,501.4,550.9,501.2,551.2,501.2z"/>
	</g>
	<g display="none">
		<path display="inline" d="M550.6,530v-26.8l-9.2,9.2c-0.1,0.1-0.2,0.2-0.4,0.2c-0.3,0-0.6-0.3-0.6-0.6c0-0.1,0.1-0.3,0.2-0.4
			l10.2-10.2c0.1-0.1,0.3-0.2,0.4-0.2c0.1,0,0.3,0.1,0.4,0.2l10.2,10.2c0.1,0.1,0.2,0.2,0.2,0.4c0,0.3-0.3,0.6-0.6,0.6
			c-0.1,0-0.3-0.1-0.4-0.2l-9.2-9.3V530c0,0.3-0.3,0.6-0.6,0.6C550.9,530.5,550.6,530.3,550.6,530z"/>
	</g>
	<g>
		<path d="M536.5,515.9c0-0.3,0.3-0.6,0.6-0.6H564l-9.3-9.2c-0.1-0.1-0.2-0.2-0.2-0.4c0-0.3,0.3-0.6,0.6-0.6c0.2,0,0.3,0.1,0.4,0.2
			l10.2,10.2c0.1,0.1,0.2,0.2,0.2,0.4c0,0.1-0.1,0.3-0.2,0.4l-10.2,10.2c-0.1,0.1-0.2,0.2-0.4,0.2c-0.3,0-0.6-0.3-0.6-0.6
			c0-0.1,0.1-0.3,0.2-0.4l9.2-9.2h-26.8C536.8,516.5,536.5,516.2,536.5,515.9z"/>
	</g>
	<g display="none">
		<path display="inline" d="M565.3,516.5h-26.8l9.2,9.2c0.1,0.1,0.2,0.2,0.2,0.4c0,0.3-0.3,0.6-0.6,0.6c-0.1,0-0.3-0.1-0.4-0.2
			l-10.2-10.2c-0.1-0.1-0.2-0.3-0.2-0.4c0-0.1,0.1-0.3,0.2-0.4l10.2-10.2c0.1-0.1,0.2-0.2,0.4-0.2c0.3,0,0.6,0.3,0.6,0.6
			c0,0.1-0.1,0.3-0.2,0.4l-9.3,9.2h26.9c0.3,0,0.6,0.3,0.6,0.6C565.9,516.2,565.6,516.5,565.3,516.5z"/>
	</g>
</g>
</svg>
