<?xml version="1.0" encoding="utf-8"?>
<!-- Generator: Adobe Illustrator 18.0.0, SVG Export Plug-In . SVG Version: 6.00 Build 0)  -->
<!DOCTYPE svg PUBLIC "-//W3C//DTD SVG 1.1//EN" "http://www.w3.org/Graphics/SVG/1.1/DTD/svg11.dtd">
<svg version="1.1" id="START" xmlns="http://www.w3.org/2000/svg" xmlns:xlink="http://www.w3.org/1999/xlink" x="0px" y="0px"
	 viewBox="126 -11.4 850.4 708.7" enable-background="new 126 -11.4 850.4 708.7" xml:space="preserve">
<linearGradient id="SVGID_1_" gradientUnits="userSpaceOnUse" x1="268.262" y1="422.495" x2="834.1732" y2="260.2225">
	<stop  offset="0" style="stop-color:#EAFF00"/>
	<stop  offset="0.2033" style="stop-color:#EAFF00"/>
	<stop  offset="0.73" style="stop-color:#A2FC59"/>
	<stop  offset="1" style="stop-color:#57F866"/>
</linearGradient>
<ellipse fill="none" stroke="url(#SVGID_1_)" stroke-width="15" stroke-miterlimit="10" cx="551.2" cy="341.4" rx="286.3" ry="293"/>
<g>
	<path d="M472.8,314.3v-14.7h9.3v1.1h-8.1v5.4h7.9v1.1h-7.9v7H472.8z"/>
	<path d="M485.3,306.9c0-4.3,2.8-7.6,7.1-7.6c4.3,0,7.1,3.3,7.1,7.6s-2.8,7.6-7.1,7.6C488.1,314.5,485.3,311.2,485.3,306.9z
		 M498.3,306.9c0-3.7-2.3-6.4-5.8-6.4c-3.6,0-5.8,2.7-5.8,6.4c0,3.7,2.2,6.4,5.8,6.4C496,313.4,498.3,310.6,498.3,306.9z"/>
	<path d="M512.4,314.3l-4.1-6.1H505v6.1h-1.3v-14.7h5.5c2.5,0,4.5,1.6,4.5,4.3c0,2.7-1.9,4.1-4.1,4.2l4.2,6.2H512.4z M512.4,303.9
		c0-1.8-1.3-3.1-3.3-3.1H505v6.3h4.1C511.1,307.1,512.4,305.7,512.4,303.9z"/>
	<path d="M524.2,306.9c0-4.5,3.3-7.6,7.4-7.6c2.3,0,4.1,1,5.3,2.6l-1.1,0.7c-0.9-1.3-2.5-2.1-4.3-2.1c-3.5,0-6.1,2.6-6.1,6.4
		c0,3.8,2.7,6.4,6.1,6.4c1.8,0,3.4-0.9,4.3-2.1l1.1,0.7c-1.3,1.6-3,2.6-5.3,2.6C527.5,314.5,524.2,311.5,524.2,306.9z"/>
	<path d="M540.1,306.9c0-4.3,2.8-7.6,7.1-7.6c4.3,0,7.1,3.3,7.1,7.6s-2.8,7.6-7.1,7.6C542.9,314.5,540.1,311.2,540.1,306.9z
		 M553,306.9c0-3.7-2.3-6.4-5.8-6.4c-3.6,0-5.8,2.7-5.8,6.4c0,3.7,2.2,6.4,5.8,6.4C550.7,313.4,553,310.6,553,306.9z"/>
	<path d="M569,314.3l-9.2-12.6v12.6h-1.3v-14.7h1.3L569,312v-12.4h1.3v14.7H569z"/>
	<path d="M578.8,314.3v-13.5H574v-1.1h10.9v1.1H580v13.5H578.8z"/>
	<path d="M599.1,314.3l-1.5-3.6h-7.8l-1.5,3.6H587l6-14.7h1.6l6,14.7H599.1z M593.8,300.9l-3.5,8.6h6.9L593.8,300.9z"/>
	<path d="M603.3,306.9c0-4.5,3.3-7.6,7.4-7.6c2.3,0,4.1,1,5.3,2.6l-1.1,0.7c-0.9-1.3-2.5-2.1-4.3-2.1c-3.5,0-6.1,2.6-6.1,6.4
		c0,3.8,2.7,6.4,6.1,6.4c1.8,0,3.4-0.9,4.3-2.1l1.1,0.7c-1.3,1.6-3,2.6-5.3,2.6C606.6,314.5,603.3,311.5,603.3,306.9z"/>
	<path d="M623.5,314.3v-13.5h-4.8v-1.1h10.9v1.1h-4.8v13.5H623.5z"/>
</g>
<g>
	<path d="M411.8,522.8c0-3.3,2.4-5.5,5.4-5.5c1.7,0,3,0.8,3.9,1.9l-0.8,0.5c-0.7-0.9-1.8-1.6-3.1-1.6c-2.5,0-4.5,1.9-4.5,4.7
		c0,2.8,1.9,4.7,4.5,4.7c1.3,0,2.4-0.6,3.1-1.6l0.8,0.5c-0.9,1.2-2.2,1.9-3.9,1.9C414.2,528.3,411.8,526.1,411.8,522.8z"/>
	<path d="M424.4,528.1v-10.7h0.8v10.7H424.4z"/>
	<path d="M429,518.5c0-0.4,0.3-0.6,0.6-0.6c0.4,0,0.6,0.3,0.6,0.6s-0.3,0.6-0.6,0.6C429.3,519.2,429,518.9,429,518.5z M429.2,528.1
		v-7.7h0.8v7.7H429.2z"/>
	<path d="M433.7,524.2c0-2.3,1.5-4,3.8-4c1.3,0,2.1,0.5,2.7,1.3l-0.6,0.5c-0.6-0.8-1.3-1.1-2.1-1.1c-1.8,0-2.9,1.4-2.9,3.3
		c0,1.9,1.1,3.3,2.9,3.3c0.8,0,1.6-0.3,2.1-1.1l0.6,0.5c-0.6,0.8-1.4,1.3-2.7,1.3C435.1,528.3,433.7,526.5,433.7,524.2z"/>
	<path d="M448.8,528.1l-3.1-3.7l-1.4,1.4v2.3h-0.8v-10.7h0.8v7.4l4.6-4.4h1.1l-3.6,3.5l3.6,4.2H448.8z"/>
	<path d="M458.1,524.2c0-2.3,1.5-4,3.7-4c2.3,0,3.7,1.8,3.7,4c0,2.3-1.4,4.1-3.7,4.1C459.6,528.3,458.1,526.5,458.1,524.2z
		 M464.7,524.2c0-1.7-1-3.3-2.8-3.3c-1.8,0-2.8,1.6-2.8,3.3c0,1.7,1,3.3,2.8,3.3C463.6,527.5,464.7,526,464.7,524.2z"/>
	<path d="M474.3,528.1v-5.2c0-1.5-0.8-1.9-1.9-1.9c-1,0-2,0.6-2.5,1.3v5.8h-0.8v-7.7h0.8v1.2c0.6-0.7,1.7-1.4,2.8-1.4
		c1.6,0,2.4,0.8,2.4,2.5v5.4H474.3z"/>
	<path d="M485,526.6v-5.5h-1.3v-0.7h1.3v-2.1h0.8v2.1h1.6v0.7h-1.6v5.4c0,0.6,0.3,1.1,0.8,1.1c0.4,0,0.7-0.2,0.9-0.4l0.3,0.6
		c-0.3,0.3-0.7,0.5-1.3,0.5C485.5,528.3,485,527.7,485,526.6z"/>
	<path d="M490.2,524.2c0-2.3,1.5-4,3.7-4c2.3,0,3.7,1.8,3.7,4c0,2.3-1.4,4.1-3.7,4.1C491.6,528.3,490.2,526.5,490.2,524.2z
		 M496.7,524.2c0-1.7-1-3.3-2.8-3.3c-1.8,0-2.8,1.6-2.8,3.3c0,1.7,1,3.3,2.8,3.3C495.7,527.5,496.7,526,496.7,524.2z"/>
	<path d="M506.1,527.1l0.5-0.6c0.5,0.6,1.4,1.1,2.5,1.1c1.3,0,2.1-0.7,2.1-1.6c0-2.1-4.9-0.9-4.9-3.7c0-1.2,1-2.1,2.8-2.1
		c1.3,0,2.2,0.5,2.8,1.1l-0.5,0.6c-0.4-0.6-1.3-1-2.3-1c-1.2,0-1.9,0.6-1.9,1.4c0,1.9,4.9,0.8,4.9,3.7c0,1.2-1,2.3-2.9,2.3
		C507.9,528.3,506.9,527.9,506.1,527.1z"/>
	<path d="M515.1,524.2c0-2.2,1.6-4,3.7-4c2.4,0,3.6,1.9,3.6,4.1v0.2H516c0.1,1.7,1.2,3.1,3,3.1c1,0,1.9-0.4,2.5-1.1l0.4,0.5
		c-0.8,0.8-1.7,1.2-3,1.2C516.7,528.3,515.1,526.6,515.1,524.2z M518.8,520.9c-1.8,0-2.7,1.6-2.8,2.9h5.6
		C521.6,522.5,520.8,520.9,518.8,520.9z"/>
	<path d="M531.3,528.1v-5.2c0-1.5-0.8-1.9-1.9-1.9c-1,0-2,0.6-2.5,1.3v5.8h-0.8v-7.7h0.8v1.2c0.6-0.7,1.7-1.4,2.8-1.4
		c1.6,0,2.4,0.8,2.4,2.5v5.4H531.3z"/>
	<path d="M541.9,528.1v-1.2c-0.5,0.8-1.5,1.4-2.7,1.4c-2,0-3.5-1.6-3.5-4c0-2.4,1.4-4.1,3.5-4.1c1.1,0,2.1,0.6,2.7,1.4v-4.2h0.8
		v10.7H541.9z M541.9,526.2v-3.8c-0.4-0.8-1.5-1.4-2.5-1.4c-1.7,0-2.7,1.4-2.7,3.3s1,3.3,2.7,3.3
		C540.4,527.5,541.4,526.9,541.9,526.2z"/>
	<path d="M557.2,528.1v-0.9c-0.7,0.8-1.6,1.1-2.6,1.1c-1.3,0-2.7-0.9-2.7-2.6c0-1.7,1.4-2.6,2.7-2.6c1.1,0,2,0.4,2.6,1.1v-1.6
		c0-1.2-0.9-1.8-2.1-1.8c-1,0-1.7,0.3-2.4,1.1l-0.5-0.6c0.8-0.9,1.7-1.3,3-1.3c1.6,0,2.8,0.8,2.8,2.5v5.4H557.2z M557.2,526.6v-1.7
		c-0.5-0.7-1.4-1.1-2.3-1.1c-1.3,0-2.1,0.8-2.1,1.9c0,1.1,0.8,1.9,2.1,1.9C555.8,527.6,556.7,527.3,557.2,526.6z"/>
	<path d="M576.9,528.1v-5.4c0-1.1-0.5-1.8-1.6-1.8c-0.8,0-1.8,0.6-2.2,1.3v5.9h-0.8v-5.4c0-1.1-0.4-1.8-1.6-1.8
		c-0.8,0-1.7,0.6-2.2,1.3v5.8h-0.8v-7.7h0.8v1.2c0.3-0.5,1.4-1.4,2.5-1.4c1.2,0,1.8,0.7,2,1.5c0.4-0.7,1.5-1.5,2.6-1.5
		c1.4,0,2.1,0.8,2.1,2.4v5.6H576.9z"/>
	<path d="M581.3,524.2c0-2.2,1.6-4,3.7-4c2.4,0,3.6,1.9,3.6,4.1v0.2h-6.5c0.1,1.7,1.2,3.1,3,3.1c1,0,1.9-0.4,2.5-1.1l0.4,0.5
		c-0.8,0.8-1.7,1.2-3,1.2C582.9,528.3,581.3,526.6,581.3,524.2z M585,520.9c-1.8,0-2.7,1.6-2.8,2.9h5.6
		C587.8,522.5,587,520.9,585,520.9z"/>
	<path d="M591.6,527.1l0.5-0.6c0.5,0.6,1.4,1.1,2.5,1.1c1.3,0,2.1-0.7,2.1-1.6c0-2.1-4.9-0.9-4.9-3.7c0-1.2,1-2.1,2.8-2.1
		c1.3,0,2.2,0.5,2.8,1.1l-0.5,0.6c-0.4-0.6-1.3-1-2.3-1c-1.2,0-1.9,0.6-1.9,1.4c0,1.9,4.9,0.8,4.9,3.7c0,1.2-1,2.3-2.9,2.3
		C593.3,528.3,592.4,527.9,591.6,527.1z"/>
	<path d="M600.4,527.1l0.5-0.6c0.5,0.6,1.4,1.1,2.5,1.1c1.3,0,2.1-0.7,2.1-1.6c0-2.1-4.9-0.9-4.9-3.7c0-1.2,1-2.1,2.8-2.1
		c1.3,0,2.2,0.5,2.8,1.1l-0.5,0.6c-0.4-0.6-1.3-1-2.3-1c-1.2,0-1.9,0.6-1.9,1.4c0,1.9,4.9,0.8,4.9,3.7c0,1.2-1,2.3-2.9,2.3
		C602.1,528.3,601.1,527.9,600.4,527.1z"/>
	<path d="M614.7,528.1v-0.9c-0.7,0.8-1.6,1.1-2.6,1.1c-1.3,0-2.7-0.9-2.7-2.6c0-1.7,1.4-2.6,2.7-2.6c1.1,0,2,0.4,2.6,1.1v-1.6
		c0-1.2-0.9-1.8-2.1-1.8c-1,0-1.7,0.3-2.4,1.1l-0.5-0.6c0.8-0.9,1.7-1.3,3-1.3c1.6,0,2.8,0.8,2.8,2.5v5.4H614.7z M614.7,526.6v-1.7
		c-0.5-0.7-1.4-1.1-2.3-1.1c-1.3,0-2.1,0.8-2.1,1.9c0,1.1,0.8,1.9,2.1,1.9C613.3,527.6,614.2,527.3,614.7,526.6z"/>
	<path d="M619.6,530.1l0.5-0.6c0.7,0.8,1.4,1.1,2.6,1.1c1.4,0,2.6-0.7,2.6-2.5v-1.2c-0.5,0.8-1.5,1.4-2.7,1.4c-2,0-3.5-1.6-3.5-4
		c0-2.4,1.4-4,3.5-4c1.1,0,2.1,0.6,2.7,1.4v-1.2h0.8v7.7c0,2.4-1.6,3.2-3.5,3.2C621.4,531.2,620.5,531,619.6,530.1z M625.3,526.1
		v-3.8c-0.4-0.8-1.5-1.4-2.5-1.4c-1.7,0-2.7,1.4-2.7,3.3c0,1.9,1,3.3,2.7,3.3C623.8,527.5,624.9,526.9,625.3,526.1z"/>
	<path d="M629.7,524.2c0-2.2,1.6-4,3.7-4c2.4,0,3.6,1.9,3.6,4.1v0.2h-6.5c0.1,1.7,1.2,3.1,3,3.1c1,0,1.9-0.4,2.5-1.1l0.4,0.5
		c-0.8,0.8-1.7,1.2-3,1.2C631.3,528.3,629.7,526.6,629.7,524.2z M633.4,520.9c-1.8,0-2.7,1.6-2.8,2.9h5.6
		C636.2,522.5,635.4,520.9,633.4,520.9z"/>
	<path d="M646.4,526.6v-5.5h-1.3v-0.7h1.3v-2.1h0.8v2.1h1.6v0.7h-1.6v5.4c0,0.6,0.3,1.1,0.8,1.1c0.4,0,0.7-0.2,0.9-0.4l0.3,0.6
		c-0.3,0.3-0.7,0.5-1.3,0.5C646.9,528.3,646.4,527.7,646.4,526.6z"/>
	<path d="M651.7,524.2c0-2.3,1.5-4,3.7-4c2.3,0,3.7,1.8,3.7,4c0,2.3-1.4,4.1-3.7,4.1C653.1,528.3,651.7,526.5,651.7,524.2z
		 M658.2,524.2c0-1.7-1-3.3-2.8-3.3c-1.8,0-2.8,1.6-2.8,3.3c0,1.7,1,3.3,2.8,3.3C657.2,527.5,658.2,526,658.2,524.2z"/>
	<path d="M677.5,528.1v-5.4c0-1.1-0.5-1.8-1.6-1.8c-0.8,0-1.8,0.6-2.2,1.3v5.9h-0.8v-5.4c0-1.1-0.4-1.8-1.6-1.8
		c-0.8,0-1.7,0.6-2.2,1.3v5.8h-0.8v-7.7h0.8v1.2c0.3-0.5,1.4-1.4,2.5-1.4c1.2,0,1.8,0.7,2,1.5c0.4-0.7,1.5-1.5,2.6-1.5
		c1.4,0,2.1,0.8,2.1,2.4v5.6H677.5z"/>
	<path d="M681.9,524.2c0-2.2,1.6-4,3.7-4c2.4,0,3.6,1.9,3.6,4.1v0.2h-6.5c0.1,1.7,1.2,3.1,3,3.1c1,0,1.9-0.4,2.5-1.1l0.4,0.5
		c-0.8,0.8-1.7,1.2-3,1.2C683.5,528.3,681.9,526.6,681.9,524.2z M685.6,520.9c-1.8,0-2.7,1.6-2.8,2.9h5.6
		C688.4,522.5,687.5,520.9,685.6,520.9z"/>
</g>
<g>
	<path d="M191.7,419v-34.2H146V419h-6.2v-72h6.2v32.2h45.7V347h6.3v72H191.7z"/>
	<path d="M248.2,419v-72h6.2v72H248.2z"/>
	<path d="M323,419v-66.4h-23.5V347h53.4v5.6h-23.5V419H323z"/>
	<path d="M459.1,419v-63.6L432.9,419h-2.4l-26.4-63.6V419H398v-72h9.2l24.5,59.4l24.4-59.4h9.3v72H459.1z"/>
	<path d="M515.7,419v-72h45.7v5.6h-39.5v26.7h38.8v5.6h-38.8v28.5h39.5v5.6H515.7z"/>
	<path d="M609,419v-72h29.6c12.1,0,19.9,7,19.9,18.4c0,9.1-6.2,15.2-12.6,16.5c7.7,1.2,14,9.2,14,17.7c0,12-7.8,19.4-20.6,19.4H609z
		 M652,366c0-7.3-4.9-13.4-14.1-13.4h-22.7v26.7h22.7C647.1,379.3,652,373.4,652,366z M653.4,399.1c0-7.3-5.1-14.3-15.1-14.3h-23.1
		v28.5h23.1C647.8,413.4,653.4,407.9,653.4,399.1z"/>
	<path d="M759.9,419l-7.1-17.7h-38.1l-7.1,17.7h-7.1l29.5-72h7.7l29.5,72H759.9z M733.6,353.6l-17,42.1h34L733.6,353.6z"/>
	<path d="M810,419v-72h29.6c12.1,0,19.9,7,19.9,18.4c0,9.1-6.2,15.2-12.6,16.5c7.7,1.2,14,9.2,14,17.7c0,12-7.8,19.4-20.6,19.4H810z
		 M853,366c0-7.3-4.9-13.4-14.1-13.4h-22.7v26.7h22.7C848.1,379.3,853,373.4,853,366z M854.4,399.1c0-7.3-5.1-14.3-15.1-14.3h-23.1
		v28.5h23.1C848.8,413.4,854.4,407.9,854.4,399.1z"/>
	<path d="M930,419v-30.8L901.4,347h7.5l24.3,35.4l24.3-35.4h7.5l-28.6,41.3V419H930z"/>
</g>
<line fill="none" stroke="#000000" stroke-width="0.763" x1="458.1" y1="470.6" x2="644.4" y2="470.6"/>
<g>
	<polygon points="546.7,169.7 559.1,178.7 555.8,181.9 548.3,175.1 	"/>
	<polygon points="537.6,201.6 532.3,206 533.9,128.1 537.6,135.2 	"/>
	<polygon points="569,176.3 545.5,154.9 545.5,150.2 574.6,171.9 	"/>
	<polygon points="569.3,194.1 527.9,226.4 527.9,223.1 565.5,190.1 	"/>
	<polygon points="545.5,168.8 548.9,171.4 549,188.8 545.5,192.1 	"/>
	<polygon points="569.2,176.1 545.5,194.9 545.5,191.9 565.3,172.3 	"/>
	<polygon points="569.2,194.2 556.4,182.5 558.9,178.7 574.4,190.3 	"/>
</g>
<g id="Ebene_5">
	<g display="none">
		<path display="inline" d="M551.2,558.6c0.3,0,0.6,0.3,0.6,0.6V586l9.2-9.3c0.1-0.1,0.2-0.2,0.4-0.2c0.3,0,0.6,0.3,0.6,0.6
			c0,0.2-0.1,0.3-0.2,0.4l-10.2,10.2c-0.1,0.1-0.2,0.2-0.4,0.2c-0.1,0-0.3-0.1-0.4-0.2l-10.2-10.2c-0.1-0.1-0.2-0.2-0.2-0.4
			c0-0.3,0.3-0.6,0.6-0.6c0.1,0,0.3,0.1,0.4,0.2l9.2,9.2v-26.8C550.6,558.9,550.9,558.6,551.2,558.6z"/>
	</g>
	<g display="none">
		<path display="inline" d="M550.6,587.4v-26.8l-9.2,9.2c-0.1,0.1-0.2,0.2-0.4,0.2c-0.3,0-0.6-0.3-0.6-0.6c0-0.2,0.1-0.3,0.2-0.4
			l10.2-10.2c0.1-0.1,0.3-0.2,0.4-0.2c0.1,0,0.3,0.1,0.4,0.2l10.2,10.2c0.1,0.1,0.2,0.2,0.2,0.4c0,0.3-0.3,0.6-0.6,0.6
			c-0.1,0-0.3-0.1-0.4-0.2l-9.2-9.3v26.9c0,0.3-0.3,0.6-0.6,0.6C550.9,588,550.6,587.7,550.6,587.4z"/>
	</g>
	<g>
		<path d="M536.5,573.3c0-0.3,0.3-0.6,0.6-0.6H564l-9.3-9.2c-0.1-0.1-0.2-0.2-0.2-0.4c0-0.3,0.3-0.6,0.6-0.6c0.2,0,0.3,0.1,0.4,0.2
			l10.2,10.2c0.1,0.1,0.2,0.2,0.2,0.4c0,0.1-0.1,0.3-0.2,0.4l-10.2,10.2c-0.1,0.1-0.2,0.2-0.4,0.2c-0.3,0-0.6-0.3-0.6-0.6
			c0-0.2,0.1-0.3,0.2-0.4l9.2-9.2h-26.8C536.8,573.9,536.5,573.6,536.5,573.3z"/>
	</g>
	<g display="none">
		<path display="inline" d="M565.3,573.9h-26.8l9.2,9.2c0.1,0.1,0.2,0.2,0.2,0.4c0,0.3-0.3,0.6-0.6,0.6c-0.1,0-0.3-0.1-0.4-0.2
			l-10.2-10.2c-0.1-0.1-0.2-0.3-0.2-0.4c0-0.2,0.1-0.3,0.2-0.4l10.2-10.2c0.1-0.1,0.2-0.2,0.4-0.2c0.3,0,0.6,0.3,0.6,0.6
			c0,0.2-0.1,0.3-0.2,0.4l-9.3,9.2h26.9c0.3,0,0.6,0.3,0.6,0.6C565.9,573.6,565.6,573.9,565.3,573.9z"/>
	</g>
</g>
</svg>
