<?xml version="1.0" encoding="utf-8"?>
<!-- Generator: Adobe Illustrator 18.0.0, SVG Export Plug-In . SVG Version: 6.00 Build 0)  -->
<!DOCTYPE svg PUBLIC "-//W3C//DTD SVG 1.1//EN" "http://www.w3.org/Graphics/SVG/1.1/DTD/svg11.dtd">
<svg version="1.1" id="Слой_1" xmlns="http://www.w3.org/2000/svg" xmlns:xlink="http://www.w3.org/1999/xlink" x="0px" y="0px"
	 viewBox="0 0 1417.3 1417.3" enable-background="new 0 0 1417.3 1417.3" xml:space="preserve">
<g>
	<g>
		<path d="M999.3,889.1c-0.1,44.1-10.2,88.5-29.4,127.6c-19.4,39.4-46.1,72.4-80.5,100c-68.4,55.1-162.7,75.3-248.4,54.8
			c-84.9-20.2-156.2-78.7-194.3-157.2c-8.9-18.4-16-39-20.9-60c-5.1-22-7.3-42.3-7.3-65.2c0-15.5-24-15.5-24,0
			c0.2,91.7,40.9,180.2,110.9,239.6c71.5,60.7,166.9,85.8,259.2,69.9c89.1-15.4,168.5-71.5,214.8-148.9
			c28.9-48.3,43.9-104.4,44-160.6C1023.3,873.6,999.3,873.7,999.3,889.1L999.3,889.1z"/>
	</g>
</g>
<g>
	<g>
		<path d="M695.7,659.6c0,33.4,0,66.8,0,100.2c0,64.2,0,128.4,0,192.6c0,41,0,81.9,0,122.9c0,0.8,0,1.6,0,2.4c0,15.5,24,15.5,24,0
			c0-33.4,0-66.8,0-100.2c0-64.2,0-128.4,0-192.6c0-41,0-81.9,0-122.9c0-0.8,0-1.6,0-2.4C719.7,644.1,695.7,644.1,695.7,659.6
			L695.7,659.6z"/>
	</g>
</g>
<g>
	<g>
		<path d="M494.6,888c33,0,66,0,99.1,0c64.2,0,128.5,0,192.7,0c43.2,0,86.4,0,129.6,0c1.5,0,3,0,4.6,0c15.5,0,15.5-24,0-24
			c-33,0-66,0-99.1,0c-64.2,0-128.5,0-192.7,0c-43.2,0-86.4,0-129.6,0c-1.5,0-3,0-4.6,0C479.1,864,479.1,888,494.6,888L494.6,888z"
			/>
	</g>
</g>
<g>
	<g>
		<path d="M542.6,724.3c37.2,35.2,63,81.9,66.9,133.3c3.9,51.2-14.2,101.5-47,140.9c-6.2,7.4-12.9,14.4-19.9,21
			c-11.3,10.7,5.7,27.6,17,17c39.7-37.6,66.3-86.4,73.1-140.8c6.6-53.3-9.5-107.7-40.5-151.1c-9.6-13.4-20.5-25.9-32.5-37.2
			C548.3,696.7,531.3,713.6,542.6,724.3L542.6,724.3z"/>
	</g>
</g>
<g>
	<g>
		<path d="M871.4,1024c-36.8-35.5-62.3-82.3-66.5-133.5c-4.2-51.1,12.8-101.9,44.9-141.8c6.7-8.3,14-16.1,21.7-23.6
			c11.2-10.8-5.8-27.7-17-17c-39.3,37.9-65.6,86.7-72.6,141.1c-6.9,53.3,8.4,107.9,38.6,151.9c9.9,14.4,21.4,27.8,34,39.9
			C865.6,1051.7,882.6,1034.8,871.4,1024L871.4,1024z"/>
	</g>
</g>
<g>
	<g>
		<path d="M696.5,172.2c-9.8,58.3-19,116.9-36.3,173.6c-8.6,27.9-19.3,55.1-32.9,81c-13.1,24.9-28.6,48.5-44.9,71.4
			c-32.1,45.3-68,87.8-99.7,133.4c-33.2,47.7-60.7,98.7-74.3,155.6c-7.7,32.4-11.6,65.6-14.5,98.8c-0.6,6.5,5.9,12,12,12
			c7,0,11.4-5.5,12-12c5.1-59.2,15.1-117.7,42.2-171.1c25.2-49.6,59.1-94,92.9-137.9c34-44.2,68.7-88.5,94.9-137.9
			c28-52.8,44-111,55.6-169.3c6-30.2,10.9-60.6,16-91c1.1-6.4-1.6-12.9-8.4-14.8C705.5,162.2,697.6,165.8,696.5,172.2L696.5,172.2z"
			/>
	</g>
</g>
<g>
	<g>
		<path d="M697.8,178.6c9.8,58.3,19,116.9,36.3,173.6c8.8,28.7,19.9,56.8,33.6,83.6c12.9,25.1,28.4,48.8,44.6,71.8
			c32,45.4,67.8,87.9,99.7,133.4c15.9,22.7,30.8,46.2,43.6,70.8c13.5,26,23.4,53.2,30.2,81.7c7.2,30.3,10.9,61.4,13.6,92.4
			c0.6,6.5,5,12,12,12c6.1,0,12.6-5.5,12-12c-5.3-61.2-15.3-121.6-42.5-177.3c-24.4-50-58.1-94.7-91.8-138.6
			c-33.9-44.1-68.5-88-95.6-136.9c-28.6-51.6-44.3-109-55.9-166.5c-6.3-31.3-11.4-62.9-16.7-94.5c-1.1-6.5-8.9-10-14.8-8.4
			C699.4,165.7,696.7,172.1,697.8,178.6L697.8,178.6z"/>
	</g>
</g>
</svg>
