<?xml version="1.0" encoding="utf-8"?>
<!-- Generator: Adobe Illustrator 18.0.0, SVG Export Plug-In . SVG Version: 6.00 Build 0)  -->
<!DOCTYPE svg PUBLIC "-//W3C//DTD SVG 1.1//EN" "http://www.w3.org/Graphics/SVG/1.1/DTD/svg11.dtd">
<svg version="1.1" id="Слой_1" xmlns="http://www.w3.org/2000/svg" xmlns:xlink="http://www.w3.org/1999/xlink" x="0px" y="0px"
	 viewBox="0 0 1417.3 1417.3" enable-background="new 0 0 1417.3 1417.3" xml:space="preserve">
<g>
	<g>
		<path d="M996.3,853.8c0,11.6-0.7,23.2-2,34.8c-0.2,1.4-0.3,2.7-0.5,4.1c0.4-3.5-0.2,1.1-0.2,1.5c-0.4,2.7-0.8,5.4-1.3,8.1
			c-1,5.8-2.2,11.6-3.5,17.3c-2.5,10.9-5.8,21.6-9.5,32.2c-1.8,5-3.7,10-5.8,14.9c1.3-3.1-0.4,0.9-0.6,1.3c-0.5,1.2-1.1,2.4-1.6,3.6
			c-1.3,2.8-2.6,5.6-4,8.4c-4.8,9.9-10.3,19.4-16.2,28.7c-2.8,4.4-5.8,8.8-8.8,13.1c-1.5,2.1-3.1,4.2-4.6,6.3
			c-0.2,0.3-2.9,3.7-0.8,1.1c-1.1,1.4-2.2,2.7-3.3,4.1c-13.7,17-29.3,32.4-46.3,46.1c-1,0.8-2.1,1.6-3.1,2.4c2.6-2-0.8,0.6-1.1,0.8
			c-2.1,1.6-4.2,3.1-6.3,4.7c-4.6,3.3-9.4,6.5-14.2,9.5c-9.3,5.9-18.9,11.2-28.8,16c-2.4,1.2-4.8,2.3-7.2,3.4
			c-1.2,0.6-2.4,1.1-3.6,1.6c-0.3,0.2-4.4,1.9-1.3,0.6c-5.3,2.2-10.7,4.3-16.2,6.2c-10.6,3.8-21.3,6.8-32.2,9.4
			c-5.3,1.2-10.6,2.3-16,3.2c-2.7,0.5-5.4,0.9-8.1,1.3c-0.4,0.1-4.9,0.7-1.5,0.2c-1.8,0.2-3.6,0.4-5.5,0.7
			c-11.6,1.3-23.2,1.8-34.8,1.8c-11.6,0-23.2-0.8-34.7-2.1c-0.4,0-4.9-0.6-1.5-0.2c-1.4-0.2-2.7-0.4-4.1-0.6
			c-2.7-0.4-5.4-0.9-8.1-1.3c-5.8-1-11.5-2.3-17.3-3.6c-10.9-2.6-21.6-5.9-32.1-9.7c-2.5-0.9-5-1.9-7.5-2.8c-1.2-0.5-2.5-1-3.7-1.5
			c-0.4-0.1-4.4-1.9-1.3-0.5c-5.3-2.3-10.5-4.7-15.6-7.2c-9.8-4.9-19.4-10.4-28.6-16.3c-4.4-2.8-8.7-5.8-13-8.9
			c-2.1-1.5-4.2-3.1-6.3-4.7c-3.5-2.6,2.3,1.8-1.1-0.9c-1.4-1.1-2.7-2.2-4.1-3.3c-16.9-13.8-32.3-29.4-45.9-46.5
			c-0.2-0.3-2.9-3.7-0.9-1.1c-0.8-1-1.6-2.1-2.4-3.1c-1.6-2.1-3.1-4.2-4.6-6.4c-3.3-4.6-6.4-9.4-9.5-14.2
			c-5.8-9.3-11.1-19-15.9-28.8c-1.2-2.4-2.3-4.8-3.4-7.2c-0.5-1.2-1.1-2.4-1.6-3.6c-1.8-4,1.1,2.8-0.6-1.3c-2-4.9-3.9-9.9-5.7-14.9
			c-3.8-10.6-6.8-21.3-9.4-32.2c-1.2-5.3-2.3-10.6-3.2-16c-0.5-2.7-0.9-5.4-1.3-8.1c-0.1-0.4-0.7-4.9-0.2-1.5
			c-0.2-1.4-0.3-2.7-0.5-4.1c-1.3-11.5-2-23.2-2-34.8c0-19.3-30-19.3-30,0c0.2,92.4,41.2,181.9,111.7,241.7
			c35,29.7,76,51.6,120.2,64.1c46.1,13,94.8,14.7,141.9,6.6c89.9-15.5,169.9-72.3,216.6-150.3c29.2-48.7,44.3-105.4,44.5-162.1
			C1026.3,834.5,996.3,834.5,996.3,853.8L996.3,853.8z"/>
	</g>
</g>
<g>
	<g>
		<path d="M693.9,184.6c0,16.7,0,33.4,0,50.2c0,43.4,0,86.7,0,130.1c0,59.9,0,119.7,0,179.6c0,66.2,0,132.3,0,198.5
			c0,62.3,0,124.6,0,186.9c0,48.3,0,96.5,0,144.8c0,24,0,48.1,0,72.1c0,1,0,2.1,0,3.1c0,19.3,30,19.3,30,0c0-16.7,0-33.4,0-50.2
			c0-43.4,0-86.7,0-130.1c0-59.9,0-119.7,0-179.6c0-66.2,0-132.3,0-198.5c0-62.3,0-124.6,0-186.9c0-48.3,0-96.5,0-144.8
			c0-24,0-48.1,0-72.1c0-1,0-2.1,0-3.1C723.9,165.2,693.9,165.2,693.9,184.6L693.9,184.6z"/>
	</g>
</g>
<g>
	<g>
		<path d="M413.7,865.6c25.3,0,50.6,0,76,0c58.3,0,116.5,0,174.8,0c64.6,0,129.3,0,193.9,0c44.4,0,88.9,0,133.3,0
			c6.4,0,12.7,0,19.1,0c19.3,0,19.3-30,0-30c-25.3,0-50.6,0-76,0c-58.3,0-116.5,0-174.8,0c-64.6,0-129.3,0-193.9,0
			c-44.4,0-88.9,0-133.3,0c-6.4,0-12.7,0-19.1,0C394.4,835.6,394.4,865.6,413.7,865.6L413.7,865.6z"/>
	</g>
</g>
<g>
	<g>
		<path d="M471.6,664.2c9.1,10.3,14.9,17.9,22.6,29.3c7.3,10.9,13.9,22.4,19.7,34.2c6,12.1,9.8,21.4,14.2,34.8
			c4.3,12.8,7.6,25.9,10.1,39.2c2.6,13.4,3.7,24.2,4.4,38.7c0.7,14,0.2,28-1,41.9c-2.2,24.1-8.9,51.8-18.3,76.4
			c-2.9,7.5-5.4,13-9.4,21.2c-3.9,8-8.3,15.9-13,23.6c-9.3,15.4-18,27.1-29.4,39.9c-5.4,6.1-6.1,15.2,0,21.2
			c5.5,5.5,15.8,6.1,21.2,0c36.1-41.1,61.7-90.7,73.1-144.2c11.8-55.3,8.6-113.7-9.4-167.4c-13.6-40.6-35.5-77.8-63.8-110
			c-5.4-6.1-15.7-5.5-21.2,0C465.5,649.1,466.2,658.1,471.6,664.2L471.6,664.2z"/>
	</g>
</g>
<g>
	<g>
		<path d="M946.5,1043c-9-10.2-14.9-18-22.6-29.5c-7.4-11-13.9-22.5-19.8-34.4c-6-12.1-9.7-21.6-14.2-35c-4.3-12.9-7.5-26.1-10-39.4
			c-9.6-51.8-3.8-107,16-157.8c11-28.2,30.4-59.3,50.6-82.3c5.4-6.1,6.1-15.1,0-21.2c-5.5-5.5-15.8-6.2-21.2,0
			c-36.2,41.3-61.8,91.3-73.1,145.2c-11.6,55.6-8.1,114.3,10.3,168.1c13.6,39.7,35.1,76.1,62.8,107.6c5.4,6.2,15.7,5.5,21.2,0
			C952.5,1058.2,951.9,1049.2,946.5,1043L946.5,1043z"/>
	</g>
</g>
<g>
	<g>
		<path d="M693.6,136.1c-9.8,58.3-19,116.9-36.3,173.6c-8.7,28.4-18.9,54.3-32.6,80.3c-13.1,24.9-28.6,48.5-44.9,71.4
			c-32.1,45.3-68,87.8-99.7,133.4c-33.4,47.9-61,99.2-74.6,156.3c-7.8,32.7-11.7,66.2-14.6,99.6c-0.7,8.2,7.4,15,15,15
			c8.7,0,14.3-6.9,15-15c5.1-58.3,15-116.8,41.8-169.6c25.2-49.6,59.1-94,92.9-137.9c34-44.2,68.7-88.5,94.9-137.9
			c28.2-53.1,44.2-111.4,55.9-170.1c6-30.2,10.9-60.6,16-91c1.4-8.1-2-16.1-10.5-18.5C704.8,123.6,695,128,693.6,136.1L693.6,136.1z
			"/>
	</g>
</g>
<g>
	<g>
		<path d="M694.9,144.1c9.8,58.3,19,116.9,36.3,173.6c8.9,29,20.1,57.3,33.9,84.3c12.9,25.1,28.4,48.8,44.6,71.8
			c32,45.4,67.8,87.9,99.7,133.4c15.9,22.7,30.8,46.2,43.6,70.8c13.4,25.8,23,52.3,29.9,81c7.4,30.9,10.8,60.2,13.5,91.6
			c0.7,8.1,6.3,15,15,15c7.6,0,15.7-6.8,15-15c-2.7-31-6.4-62.1-13-92.5c-6.5-29.9-16.5-58.8-30-86.3c-24.4-50-58.1-94.7-91.8-138.6
			c-33.9-44.1-68.5-88-95.6-136.9c-28.3-51-44-108.1-55.6-165.8c-6.3-31.3-11.4-62.9-16.7-94.5c-1.4-8.1-11.2-12.5-18.5-10.5
			C696.9,128,693.6,136,694.9,144.1L694.9,144.1z"/>
	</g>
</g>
</svg>
