<?xml version="1.0" encoding="utf-8"?>
<!-- Generator: Adobe Illustrator 18.0.0, SVG Export Plug-In . SVG Version: 6.00 Build 0)  -->
<!DOCTYPE svg PUBLIC "-//W3C//DTD SVG 1.1//EN" "http://www.w3.org/Graphics/SVG/1.1/DTD/svg11.dtd">
<svg version="1.1" id="Слой_1" xmlns="http://www.w3.org/2000/svg" xmlns:xlink="http://www.w3.org/1999/xlink" x="0px" y="0px"
	 viewBox="0 0 270 274" enable-background="new 0 0 270 274" xml:space="preserve">
<path id="Blue_1_" d="M253.7,270.3c8.1,0,14.7-6.6,14.7-14.7V18.1c0-8.1-6.6-14.7-14.7-14.7H16.3C8.1,3.4,1.6,10,1.6,18.1v237.4
	c0,8.1,6.6,14.7,14.7,14.7H253.7z"/>
<path id="f" fill="#FFFFFF" d="M186.6,270.3V167h34.7l5.2-40.3h-39.9V101c0-11.7,3.2-19.6,20-19.6l21.3,0v-36
	c-3.7-0.5-16.4-1.6-31.1-1.6C166,43.7,145,62.5,145,97v29.7h-34.8V167H145v103.4H186.6z"/>
</svg>
