<?xml version="1.0" encoding="UTF-8"?>
<svg width="50px" height="149px" viewBox="0 0 50 149" version="1.1" xmlns="http://www.w3.org/2000/svg" xmlns:xlink="http://www.w3.org/1999/xlink">
    <!-- Generator: Sketch 42 (36781) - http://www.bohemiancoding.com/sketch -->
    <title>instagram</title>
    <desc>Created with Sketch.</desc>
    <defs></defs>
    <g id="Page-1" stroke="none" stroke-width="1" fill="none" fill-rule="evenodd">
        <g id="Desktop-HD" transform="translate(-372.000000, -603.000000)">
            <g id="instagram" transform="translate(372.000000, 603.000000)">
                <path d="M35.6673448,25.1673448 C35.6673448,19.3841417 30.9505479,14.6673448 25.1673448,14.6673448 C19.3841417,14.6673448 14.6673448,19.3841417 14.6673448,25.1673448 C14.6673448,30.9505479 19.3841417,35.6673448 25.1673448,35.6673448 C30.9505479,35.6673448 35.6673448,30.9505479 35.6673448,25.1673448 Z M37.8244772,25 C37.8244772,32.0957767 32.0957767,37.8244772 25,37.8244772 C17.9042233,37.8244772 12.1755228,32.0957767 12.1755228,25 C12.1755228,17.9042233 17.9042233,12.1755228 25,12.1755228 C32.0957767,12.1755228 37.8244772,17.9042233 37.8244772,25 Z M41.3507202,12.1601839 C41.3507202,13.5460535 40.2365897,14.6601839 38.8507202,14.6601839 C37.4648506,14.6601839 36.3507202,13.5460535 36.3507202,12.1601839 C36.3507202,10.7743143 37.4648506,9.6601839 38.8507202,9.6601839 C40.2365897,9.6601839 41.3507202,10.7743143 41.3507202,12.1601839 Z M24.9656416,3.49518311 C21.1486712,3.49518311 12.9694489,3.18846227 9.52735955,4.55166599 C8.3345563,5.02878729 7.44847388,5.60814887 6.52831137,6.52831137 C5.60814887,7.44847388 5.02878729,8.3345563 4.55166599,9.52735955 C3.18846227,12.9694489 3.49518311,21.1486712 3.49518311,24.9656416 C3.49518311,28.782612 3.18846227,36.9618343 4.55166599,40.4039237 C5.02878729,41.596727 5.60814887,42.4828094 6.52831137,43.4029719 C7.44847388,44.3231344 8.3345563,44.902496 9.52735955,45.3796173 C12.9694489,46.742821 21.1486712,46.4361001 24.9656416,46.4361001 C28.782612,46.4361001 36.9618343,46.742821 40.4039237,45.3796173 C41.596727,44.902496 42.4828094,44.3231344 43.4029719,43.4029719 C44.3231344,42.4828094 44.902496,41.596727 45.3796173,40.4039237 C46.742821,36.9618343 46.4361001,28.782612 46.4361001,24.9656416 C46.4361001,21.1486712 46.742821,12.9694489 45.3796173,9.52735955 C44.902496,8.3345563 44.3231344,7.44847388 43.4029719,6.52831137 C42.4828094,5.60814887 41.596727,5.02878729 40.4039237,4.55166599 C36.9618343,3.18846227 28.782612,3.49518311 24.9656416,3.49518311 Z M49.9979657,25 C49.9979657,28.4502401 50.0305151,31.8679307 49.8352185,35.3181707 C49.6399219,39.3217512 48.7285377,42.8696395 45.7990886,45.7990886 C42.8696395,48.7285377 39.3217512,49.6399219 35.3181707,49.8352185 C31.8679307,50.0305151 28.4502401,49.9979657 25,49.9979657 C21.5497599,49.9979657 18.1320693,50.0305151 14.6818293,49.8352185 C10.6782488,49.6399219 7.13036048,48.7285377 4.20091138,45.7990886 C1.27146228,42.8696395 0.360078119,39.3217512 0.164781512,35.3181707 C-0.0305150948,31.8679307 0.00203433965,28.4502401 0.00203433965,25 C0.00203433965,21.5497599 -0.0305150948,18.1320693 0.164781512,14.6818293 C0.360078119,10.6782488 1.27146228,7.13036048 4.20091138,4.20091138 C7.13036048,1.27146228 10.6782488,0.360078119 14.6818293,0.164781512 C18.1320693,-0.0305150948 21.5497599,0.00203433965 25,0.00203433965 C28.4502401,0.00203433965 31.8679307,-0.0305150948 35.3181707,0.164781512 C39.3217512,0.360078119 42.8696395,1.27146228 45.7990886,4.20091138 C48.7285377,7.13036048 49.6399219,10.6782488 49.8352185,14.6818293 C50.0305151,18.1320693 49.9979657,21.5497599 49.9979657,25 Z" id="instagram---FontAwesome" fill="#F9F9F9"></path>
                <path d="M24.6660969,49.7029467 L24.6660969,149.702947" id="Path-4" stroke="#F9F9F9" stroke-dasharray="3"></path>
            </g>
        </g>
    </g>
</svg>