<?xml version="1.0" encoding="utf-8"?>
<!-- Generator: Adobe Illustrator 18.0.0, SVG Export Plug-In . SVG Version: 6.00 Build 0)  -->
<!DOCTYPE svg PUBLIC "-//W3C//DTD SVG 1.1//EN" "http://www.w3.org/Graphics/SVG/1.1/DTD/svg11.dtd">
<svg version="1.1" id="Слой_1" xmlns="http://www.w3.org/2000/svg" xmlns:xlink="http://www.w3.org/1999/xlink" x="0px" y="0px"
	 viewBox="0 0 1417.3 1417.3" enable-background="new 0 0 1417.3 1417.3" xml:space="preserve">
<g>
	<g>
		<path d="M925.1,897.9c-16.9,19.1-35.3,35.3-54.9,48.6c-10.5,7.1-21.5,13.5-32.8,19.3c-12.3,6.3-20.5,9.6-33.2,14.1
			c-12.3,4.3-24.8,7.7-37.5,10.4c-13.9,2.9-23,4.1-36.9,5.1c-13.5,1-27.1,0.9-40.6,0.1c-6.4-0.4-12.8-1-19.2-1.8
			c2.8,0.3-2.4-0.3-2.3-0.3c-1.6-0.2-3.1-0.5-4.7-0.7c-3.6-0.6-7.3-1.3-10.9-2c-62.6-12.6-117.1-44.7-159.4-92.3
			c-5.4-6.1-15.7-5.5-21.2,0c-6,6-5.4,15.1,0,21.2c35.1,39.5,79.6,69.3,129,87.6c51.5,19.1,107.8,23.2,161.8,14.4
			c70.7-11.5,136.7-48.9,184-102.4c5.4-6.1,6-15.2,0-21.2C940.7,892.4,930.5,891.8,925.1,897.9L925.1,897.9z"/>
	</g>
</g>
<g>
	<g>
		<path d="M492.6,519.1c17-19.2,35.5-35.3,55.2-48.7c10.6-7.1,21.6-13.5,33-19.3c12.2-6.2,20.4-9.6,33.4-14
			c12.3-4.3,25-7.7,37.7-10.3c6.2-1.3,12.5-2.3,18.8-3.2c-2.8,0.4,2.4-0.3,2.4-0.3c1.6-0.2,3.2-0.4,4.8-0.5
			c3.7-0.4,7.5-0.7,11.2-0.9c13.5-0.9,27.1-0.8,40.6,0.1c13.9,0.9,23,2.2,36.9,5.1c62.2,12.8,116.4,44.9,158.4,92.4
			c5.4,6.1,15.7,5.5,21.2,0c6-6,5.4-15.1,0-21.2c-34.9-39.4-79.1-69.2-128.3-87.6c-51.4-19.3-107.5-23.5-161.5-15
			c-71,11.2-137.4,48.6-185.1,102.3c-5.4,6.1-6,15.2,0,21.2C476.9,524.6,487.2,525.2,492.6,519.1L492.6,519.1z"/>
	</g>
</g>
<g>
	<g>
		<path d="M693.7,411.3c0,25.5,0,50.9,0,76.4c0,58.5,0,116.9,0,175.4c0,64.5,0,129,0,193.6c0,43.7,0,87.3,0,131c0,5.7,0,11.3,0,17
			c0,19.3,30,19.3,30,0c0-25.5,0-50.9,0-76.4c0-58.5,0-116.9,0-175.4c0-64.5,0-129,0-193.6c0-43.7,0-87.3,0-131c0-5.7,0-11.3,0-17
			C723.7,392,693.7,392,693.7,411.3L693.7,411.3z"/>
	</g>
</g>
<g>
	<g>
		<path d="M557.7,720.4c41.5,0,82.9,0,124.4,0c55.4,0,110.9,0,166.3,0c3.9,0,7.9,0,11.8,0c19.3,0,19.3-30,0-30
			c-41.5,0-82.9,0-124.4,0c-55.4,0-110.9,0-166.3,0c-3.9,0-7.9,0-11.8,0C538.4,690.4,538.4,720.4,557.7,720.4L557.7,720.4z"/>
	</g>
</g>
<g>
	<g>
		<path d="M471.4,519.1c9.1,10.3,14.9,17.9,22.6,29.3c7.3,10.9,13.9,22.4,19.7,34.2c6,12.1,9.8,21.4,14.2,34.8
			c4.3,12.8,7.6,25.9,10.1,39.2c2.6,13.4,3.7,24.2,4.4,38.7c0.7,14,0.2,28-1,41.9c-2.2,24.1-8.9,51.8-18.3,76.4
			c-2.9,7.5-5.4,13-9.4,21.2c-3.9,8-8.3,15.9-13,23.6c-9.3,15.4-18,27.1-29.4,39.9c-5.4,6.1-6.1,15.2,0,21.2
			c5.5,5.5,15.8,6.1,21.2,0c36.1-41.1,61.7-90.7,73.1-144.2c11.8-55.3,8.6-113.7-9.4-167.4c-13.6-40.6-35.5-77.8-63.8-110
			c-5.4-6.1-15.7-5.5-21.2,0C465.3,503.9,466,512.9,471.4,519.1L471.4,519.1z"/>
	</g>
</g>
<g>
	<g>
		<path d="M946.3,897.9c-9-10.2-14.9-18-22.6-29.5c-7.4-11-13.9-22.5-19.8-34.4c-6-12.1-9.7-21.6-14.2-35
			c-4.3-12.9-7.5-26.1-10-39.4c-9.6-51.8-3.8-107,16-157.8c11-28.2,30.4-59.3,50.6-82.3c5.4-6.1,6.1-15.1,0-21.2
			c-5.5-5.5-15.8-6.2-21.2,0c-36.2,41.3-61.8,91.3-73.1,145.2c-11.6,55.6-8.1,114.3,10.3,168.1c13.6,39.7,35.1,76.1,62.8,107.6
			c5.4,6.2,15.7,5.5,21.2,0C952.3,913,951.6,904,946.3,897.9L946.3,897.9z"/>
	</g>
</g>
<g>
	<g>
		<path d="M302.9,1199.3c0-131.9,0-263.8,0-395.6c0-36.8,0-73.7,0-110.5c0-19.3-30-19.3-30,0c0,131.9,0,263.8,0,395.6
			c0,36.8,0,73.7,0,110.5C272.9,1218.6,302.9,1218.6,302.9,1199.3L302.9,1199.3z"/>
	</g>
</g>
<g>
	<g>
		<path d="M302.9,689c0-5.6,0.3-11.1,0.8-16.7c0.1-1.4,0.3-2.7,0.4-4.1c0.5-4.5-0.5,3,0.2-1.4c0.5-3.1,1.1-6.3,1.7-9.4
			c1.1-5.3,2.5-10.5,4.1-15.6c0.8-2.6,1.7-5.1,2.6-7.6c0.5-1.3,0.9-2.5,1.4-3.7c0.3-0.8,0.7-1.6,1-2.5c-0.7,1.5-0.6,1.5,0-0.1
			c4.4-10.1,9.8-19.6,16-28.7c1.5-2.2,3-4.3,4.6-6.3c-2,2.6,0.7-0.8,0.9-1.1c0.8-1,1.7-2,2.5-3c3.7-4.3,7.6-8.4,11.6-12.4
			c3.8-3.6,7.7-7.1,11.8-10.3c3.4-2.7-2.4,1.8,1.1-0.9c1-0.8,2.1-1.6,3.2-2.3c2.5-1.8,5-3.5,7.6-5.1c4.4-2.8,9-5.4,13.7-7.9
			c2.3-1.2,4.7-2.4,7.1-3.5c1.2-0.6,2.4-1.1,3.6-1.6c-3.1,1.3,2-0.8,2.6-1c10.4-4.1,21.3-7,32.4-8.9c1.3-0.2,2.7-0.4,4-0.6
			c-3.5,0.5,1.1-0.1,1.5-0.2c2.7-0.3,5.5-0.5,8.3-0.7c6.9-0.5,13.9-0.4,20.8-0.1c7.4,0.4,13.2,1.2,20.3,2.6
			c8,1.6,16.2-2.2,18.5-10.5c2-7.4-2.4-16.9-10.5-18.5c-50.3-9.8-103,0.2-145,30.1c-38.1,27.1-65.4,67.9-74.9,113.7
			c-2.6,12.6-3.9,25.5-4,38.3C272.8,708.4,302.8,708.4,302.9,689L302.9,689z"/>
	</g>
</g>
<g>
	<g>
		<path d="M287.9,1214.1c22,0,44.1,0,66.1,0c19.3,0,19.3-30,0-30c-22,0-44.1,0-66.1,0C268.6,1184.1,268.6,1214.1,287.9,1214.1
			L287.9,1214.1z"/>
	</g>
</g>
<g>
	<g>
		<path d="M369,1199.3c0-85.3,0-170.6,0-255.9c0-19.3-30-19.3-30,0c0,85.3,0,170.6,0,255.9C339,1218.6,369,1218.6,369,1199.3
			L369,1199.3z"/>
	</g>
</g>
<g>
	<g>
		<path d="M378,913.5c16.3,12.5,34.9,21.2,55.7,22c21.8,0.8,42.9-8.3,62-17.7c7.3-3.6,9.3-13.9,5.4-20.5c-4.4-7.4-13.2-9-20.5-5.4
			c-8.9,4.4-14.7,7-24,9.9c-4.1,1.3-8.2,2.3-12.4,3.1c-1.8,0.3-1.8,0.3,0,0.1c-0.9,0.1-1.8,0.2-2.6,0.3c-2.2,0.2-4.3,0.3-6.5,0.3
			c-1.7,0-3.4-0.1-5.1-0.2c-1.8-0.2-1.7-0.2,0.2,0.1c-1.3-0.2-2.6-0.4-3.8-0.7c-3.9-0.8-7.7-2.1-11.5-3.5c2.8,1.1-2.4-1.2-2.9-1.4
			c-2.2-1.1-4.4-2.4-6.6-3.7c-4.2-2.5-8.3-5.5-12.2-8.5c-6.5-5-16.8-1-20.5,5.4C368.1,900.7,371.6,908.5,378,913.5L378,913.5z"/>
	</g>
</g>
<g>
	<g>
		<path d="M369,943.4c0.1-3.8,0.4-7.6,0.7-11.3c0-0.6,0.8-6.5,0.3-3.3c0.2-1.8,0.6-3.6,0.9-5.3c0.6-3.1,1.4-6.2,2.4-9.3
			c0.2-0.7,0.5-1.3,0.7-2c-0.9,2-1,2.3-0.3,0.8c0.5-1.1,1.1-2.1,1.8-3.2c1.4-2.3-2.5,2.7,0.1-0.1c2.6-2.8-2.2,1.3-0.2,0.1
			c2.1-1.3-4,1.2-0.4,0.3c-4.5,1.1-2.3,0.2-0.5,0.3c-4.8-0.3-1.6-0.2-0.1,0.3c-4.3-1.4-0.5-0.2,0.6,0.5c1.3,0.7,2.4,1.6,3.6,2.4
			c-3-2.2,1.3,1.3,1.8,1.8c6,5.5,15.3,6,21.2,0c5.6-5.6,6-15.7,0-21.2c-13.3-12.2-32.2-20.3-47.2-5.7
			c-13.6,13.3-14.7,37.3-15.4,54.9c-0.3,8.2,7.1,15,15,15C362.4,958.4,368.7,951.5,369,943.4L369,943.4z"/>
	</g>
</g>
<g>
	<g>
		<path d="M300,1133.4c16.3,0,32.7,0,49,0c19.3,0,19.3-30,0-30c-16.3,0-32.7,0-49,0C280.7,1103.4,280.7,1133.4,300,1133.4
			L300,1133.4z"/>
	</g>
</g>
<g>
	<g>
		<path d="M283.7,1098.7c0.4,13.4,0.8,26.8,2.3,40.1c0.7,6.4,1.4,12.8,2.9,19c1.7,7.2,5,13,9.5,18.7c6.8,8.7,18.4,9.9,28.4,8.3
			c8.9-1.4,14.8-8.8,19.9-15.3c2.7-3.5,4.4-7.7,6.1-11.7c3.9-9.1,7.3-18.2,10.4-27.6c-17.2-2.3-34.5-4.7-51.7-7
			c1.4,16.3,1.7,32.7,3.1,49.1c1.2,14.3,11,26.3,26.3,26.3c13.4,0,27.6-12,26.3-26.3c-1.4-16.3-1.7-32.7-3.1-49.1
			c-1-11.8-7.3-22.1-19.3-25.4c-14.3-3.9-27.9,4.8-32.4,18.4c-1.9,5.9-4,11.8-6.2,17.6c-0.7,1.8-2.8,6.6,0.6-1.4
			c-0.5,1.1-0.9,2.1-1.4,3.1c-0.8,1.7-1.7,3.4-2.6,5c-0.4,0.6-0.8,1.3-1.2,1.9c-2,3,4.9-5.9,2.6-3.4c-1.5,1.7-4.7,3.4,3.9-2.9
			c-2.5,1.8,7.8-2.8,5-2.1c6.5-1.8,12.6-0.6,18.5,2.4c6.2,3.2,6.1,5.2,4.3,3.2c5.7,6.4,4.4,6,3.2,3.8c-1.6-2.9,3,7.5,1.8,4.3
			c-1-2.6-1.5-5.3-2-8.1c-0.2-0.9-0.3-1.9-0.4-2.8c-0.7-4.4,1,7.5,0.4,2.9c-0.3-2.3-0.5-4.6-0.7-6.8c-1-11.4-1.4-22.9-1.7-34.3
			c-0.4-14.3-11.7-26.3-26.3-26.3C296,1072.4,283.3,1084.3,283.7,1098.7L283.7,1098.7z"/>
	</g>
</g>
<g>
	<g>
		<path d="M297,1101.5c17,0,34,0,51,0c19.3,0,19.3-30,0-30c-17,0-34,0-51,0C277.7,1071.5,277.7,1101.5,297,1101.5L297,1101.5z"/>
	</g>
</g>
<g>
	<g>
		<path d="M289.5,1179.4c-0.6,3.4-1,6.9-1.4,10.3c-0.1,1.1-0.2,2.2-0.3,3.3c-0.5,5.2,0.6-2.5-0.3,2.3c-1.2,6.7,0.7,13.3,6.9,16.9
			c6.8,4,16.8,1.9,20.5-5.4c4.4-8.6,6-17.9,9.5-26.9c3-7.6-3.2-16.4-10.5-18.5c-8.5-2.3-15.5,2.9-18.5,10.5
			c-1.3,3.3-2.3,6.7-3.2,10.2c-0.6,2-1.1,4-1.8,6c-0.3,1-0.7,2-1.1,2.9c0.5-1.2,0.3-1-0.5,0.7c9.1,3.9,18.3,7.7,27.4,11.6
			c0.6-3.4,1-6.9,1.4-10.3c0.1-1.1,0.2-2.2,0.3-3.3c0.5-5.2-0.6,2.5,0.3-2.3c1.5-8-2.1-16.1-10.5-18.5
			C300.6,1166.9,291,1171.3,289.5,1179.4L289.5,1179.4z"/>
	</g>
</g>
<g>
	<g>
		<path d="M1148.6,1202.5c0-132.2,0-264.4,0-396.6c0-37.6,0-75.2,0-112.8c0-19.3-30-19.3-30,0c0,132.2,0,264.4,0,396.6
			c0,37.6,0,75.2,0,112.8C1118.6,1221.8,1148.6,1221.8,1148.6,1202.5L1148.6,1202.5z"/>
	</g>
</g>
<g>
	<g>
		<path d="M1148.6,689c-0.2-47.7-18.6-93.5-51.3-128.2c-32.5-34.5-77.8-54.6-124.9-57.5c-16-1-32.1,0.6-47.7,3.6
			c-8,1.6-12.5,11-10.5,18.5c2.3,8.3,10.4,12,18.5,10.5c13.2-2.6,27.1-3.3,41.1-2.5c2.8,0.2,5.5,0.4,8.3,0.7c0.4,0,4.9,0.7,1.5,0.2
			c1.4,0.2,2.7,0.4,4,0.6c5.8,1,11.5,2.3,17.2,3.8c5.2,1.4,10.2,3.1,15.2,5c1.2,0.5,2.5,1,3.7,1.5c-3.1-1.3,0.9,0.4,1.3,0.6
			c2.8,1.3,5.6,2.6,8.3,4c4.7,2.4,9.2,5.1,13.7,7.9c2.2,1.4,4.4,2.9,6.5,4.4c1.1,0.8,2.1,1.5,3.2,2.3c0.7,0.5,1.4,1,2.1,1.6
			c-1.3-1-1.3-1,0.1,0.1c8.5,6.8,16.3,14.4,23.4,22.7c0.9,1,1.7,2,2.5,3c0.2,0.3,2.9,3.7,0.9,1.1c1.6,2.1,3.1,4.2,4.6,6.3
			c3.3,4.7,6.2,9.5,9,14.5c2.6,4.6,4.9,9.4,7,14.2c1.8,4-1.1-2.8,0.5,1.3c0.5,1.2,1,2.5,1.4,3.7c1.1,2.9,2.1,5.9,3,8.8
			c1.6,5.1,3,10.4,4.1,15.6c0.6,2.7,1.1,5.3,1.5,8c0.1,0.4,0.7,4.9,0.3,1.4c0.2,1.8,0.4,3.6,0.6,5.5c0.6,5.6,0.8,11.1,0.8,16.7
			C1118.6,708.4,1148.6,708.4,1148.6,689L1148.6,689z"/>
	</g>
</g>
<g>
	<g>
		<path d="M1133.6,1187.3c-22,0-44.1,0-66.1,0c-19.3,0-19.3,30,0,30c22,0,44.1,0,66.1,0C1152.9,1217.3,1152.9,1187.3,1133.6,1187.3
			L1133.6,1187.3z"/>
	</g>
</g>
<g>
	<g>
		<path d="M1082.4,1202.5c0-85.5,0-171,0-256.5c0-19.3-30-19.3-30,0c0,85.5,0,171,0,256.5
			C1052.4,1221.8,1082.4,1221.8,1082.4,1202.5L1082.4,1202.5z"/>
	</g>
</g>
<g>
	<g>
		<path d="M1028.3,887.6c-7.1,5.4-14.5,10.3-22.6,14c2.7-1.2-2.3,0.8-2.8,1c-2.1,0.7-4.2,1.3-6.4,1.8c-1.7,0.4-3.4,0.7-5.1,1
			c1.9-0.2,1.9-0.3,0.2-0.1c-1.3,0.1-2.6,0.2-3.9,0.2c-1.7,0.1-3.5,0-5.2-0.1c-0.9,0-1.7-0.1-2.6-0.2c-0.5,0-4.8-0.6-1.3-0.1
			c-4.2-0.6-8.3-1.7-12.4-2.9c-9.9-2.9-16.1-5.8-25.4-10.3c-7.3-3.6-16.2-2-20.5,5.4c-3.9,6.7-2,16.9,5.4,20.5
			c19,9.4,39.2,17.6,60.7,17.7c21.1,0.1,40.6-9.4,57-22c6.5-5,9.9-12.8,5.4-20.5C1045.1,886.6,1034.8,882.6,1028.3,887.6
			L1028.3,887.6z"/>
	</g>
</g>
<g>
	<g>
		<path d="M1082.4,937.7c-0.7-16.7-2.6-36.6-14.9-49.3c-5.4-5.6-13.9-8.9-21.7-8c-10.2,1.3-18.1,6.1-26,12.5
			c-6.4,5.2-5.3,15.9,0,21.2c6.2,6.2,14.9,5.1,21.2,0c3.5-2.9-2.2,1.6,1.2-0.9c1.3-0.9,2.6-1.7,4-2.4c3.2-1.7-3.1,1.1,0.1-0.1
			c1.2-0.4,5.3-1.1,0.3-0.4c0.8-0.1,1.6-0.1,2.3,0c-2.7-0.4-3.3-0.5-1.8-0.2c1.5,0.5,1,0.2-1.5-0.8c0.7,0.3,1.3,0.7,1.9,1.1
			c-3.8-2.5-1.1-0.7-0.2,0.3c-2.8-3.2-1-1.2-0.3-0.2c0.7,1.1,1.2,2.2,1.8,3.4c-1.7-3.8-0.3-0.4,0,0.4c0.5,1.5,0.9,3,1.3,4.5
			c0.3,1.2,0.6,2.5,0.8,3.7c0.1,0.6,0.9,6,0.5,2.8c0.5,4.1,0.8,8.2,1,12.3c0.4,8.2,6.6,15,15,15
			C1075.3,952.7,1082.8,945.9,1082.4,937.7L1082.4,937.7z"/>
	</g>
</g>
<g>
	<g>
		<path d="M1121.5,1104.4c-16.3,0-32.7,0-49,0c-9.1,0-16.7,7.6-16.7,16.7s7.6,16.7,16.7,16.7c16.3,0,32.7,0,49,0
			c9.1,0,16.7-7.6,16.7-16.7S1130.5,1104.4,1121.5,1104.4L1121.5,1104.4z"/>
	</g>
</g>
<g>
	<g>
		<path d="M1091.7,1134.3c-0.2,7.2-0.5,14.5-1,21.7c-0.1,1.6-1.1,10.5-0.3,4.3c-0.3,2.2-0.7,4.3-1.3,6.5c-0.4,1.5-1.7,3.7,0.9-2
			c-0.1,0.3-0.3,0.5-0.5,0.8c2-3.5,5.1-5.8,9.1-6.9c4.9-2,12.2,1,14.4,3.3c3.9,4.1,1.9,2.5,0.8,0.8c-0.5-0.8-0.9-1.6-1.3-2.4
			c-2.1-4.3,0.7,2-0.6-1.3c-1.6-4.1-3-8.4-4.3-12.6c-2.3-7.4-8.8-12.8-16.8-12.8c-10.1,0-16.6,8-17.4,17.4
			c-0.9,11.1-1.1,22.2-2,33.2c-0.8,9.5,8.5,17.4,17.4,17.4c10.1,0,16.6-8,17.4-17.4c0.9-11.1,1.1-22.2,2-33.2
			c-11.4,1.5-22.8,3.1-34.2,4.6c2.8,8.9,5.5,18.8,10.8,26.6c7.1,10.4,21.9,15.5,31.6,4.9c6.1-6.7,7.1-15.4,8.2-24.1
			c1.2-9.5,1.4-19.1,1.6-28.6c0.3-9.5-8.1-17.4-17.4-17.4C1099.4,1116.9,1092,1124.8,1091.7,1134.3L1091.7,1134.3z"/>
	</g>
</g>
<g>
	<g>
		<path d="M1124.5,1072.3c-17,0-34,0-51,0c-9.1,0-16.7,7.6-16.7,16.7s7.6,16.7,16.7,16.7c17,0,34,0,51,0c9.1,0,16.7-7.6,16.7-16.7
			S1133.5,1072.3,1124.5,1072.3L1124.5,1072.3z"/>
	</g>
</g>
<g>
	<g>
		<path d="M1103,1190.4c0.3,1.8,0.4,2,0.1,0.7c0.2,1.7,0.3,3.3,0.5,5c0.3,3.5,0.8,6.9,1.4,10.3c9.1-3.9,18.3-7.7,27.4-11.6
			c-2.2-4.4,0.7,2.4-1-2.2c-0.7-2-1.3-4-1.9-6c-1.1-3.9-2.1-7.9-3.6-11.7c-2.9-7.6-10-12.8-18.5-10.5c-7.3,2-13.4,10.8-10.5,18.5
			c3.5,9,5.1,18.4,9.5,27c3,5.9,10.7,8.6,16.9,6.9c8.4-2.3,11.9-10.4,10.5-18.5c-0.3-1.8-0.4-2-0.1-0.7c-0.2-1.7-0.3-3.3-0.5-5
			c-0.3-3.5-0.8-6.9-1.4-10.3c-1.4-8.1-11.1-12.5-18.5-10.5C1105.1,1174.3,1101.6,1182.4,1103,1190.4L1103,1190.4z"/>
	</g>
</g>
</svg>
