<?xml version="1.0" encoding="utf-8"?>
<!-- Generator: Adobe Illustrator 18.0.0, SVG Export Plug-In . SVG Version: 6.00 Build 0)  -->
<!DOCTYPE svg PUBLIC "-//W3C//DTD SVG 1.1//EN" "http://www.w3.org/Graphics/SVG/1.1/DTD/svg11.dtd">
<svg version="1.1" id="Слой_1" xmlns="http://www.w3.org/2000/svg" xmlns:xlink="http://www.w3.org/1999/xlink" x="0px" y="0px"
	 viewBox="0 0 1417.3 1417.3" enable-background="new 0 0 1417.3 1417.3" xml:space="preserve">
<g>
	<g>
		<path d="M693.7,411.3c0,25.5,0,50.9,0,76.4c0,58.5,0,116.9,0,175.4c0,64.5,0,129,0,193.6c0,43.7,0,87.3,0,131c0,5.7,0,11.3,0,17
			c0,19.3,30,19.3,30,0c0-25.5,0-50.9,0-76.4c0-58.5,0-116.9,0-175.4c0-64.5,0-129,0-193.6c0-43.7,0-87.3,0-131c0-5.7,0-11.3,0-17
			C723.7,392,693.7,392,693.7,411.3L693.7,411.3z"/>
	</g>
</g>
<g>
	<g>
		<path d="M465.5,720.4c29.4,0,58.9,0,88.3,0c62.5,0,125.1,0,187.6,0c57,0,114.1,0,171.1,0c16,0,32,0,47.9,0c19.3,0,19.3-30,0-30
			c-29.4,0-58.9,0-88.3,0c-62.5,0-125.1,0-187.6,0c-57,0-114.1,0-171.1,0c-16,0-32,0-47.9,0C446.1,690.4,446.1,720.4,465.5,720.4
			L465.5,720.4z"/>
	</g>
</g>
<g>
	<g>
		<path d="M471.4,519.1c9.1,10.3,14.9,17.9,22.6,29.3c7.3,10.9,13.9,22.4,19.7,34.2c6,12.1,9.8,21.4,14.2,34.8
			c4.3,12.8,7.6,25.9,10.1,39.2c2.6,13.4,3.7,24.2,4.4,38.7c0.7,14,0.2,28-1,41.9c-2.2,24.1-8.9,51.8-18.3,76.4
			c-2.9,7.5-5.4,13-9.4,21.2c-3.9,8-8.3,15.9-13,23.6c-9.3,15.4-18,27.1-29.4,39.9c-5.4,6.1-6.1,15.2,0,21.2
			c5.5,5.5,15.8,6.1,21.2,0c36.1-41.1,61.7-90.7,73.1-144.2c11.8-55.3,8.6-113.7-9.4-167.4c-13.6-40.6-35.5-77.8-63.8-110
			c-5.4-6.1-15.7-5.5-21.2,0C465.3,503.9,466,512.9,471.4,519.1L471.4,519.1z"/>
	</g>
</g>
<g>
	<g>
		<path d="M946.3,897.9c-9-10.2-14.9-18-22.6-29.5c-7.4-11-13.9-22.5-19.8-34.4c-6-12.1-9.7-21.6-14.2-35
			c-4.3-12.9-7.5-26.1-10-39.4c-9.6-51.8-3.8-107,16-157.8c11-28.2,30.4-59.3,50.6-82.3c5.4-6.1,6.1-15.1,0-21.2
			c-5.5-5.5-15.8-6.2-21.2,0c-36.2,41.3-61.8,91.3-73.1,145.2c-11.6,55.6-8.1,114.3,10.3,168.1c13.6,39.7,35.1,76.1,62.8,107.6
			c5.4,6.2,15.7,5.5,21.2,0C952.3,913,951.6,904,946.3,897.9L946.3,897.9z"/>
	</g>
</g>
<g>
	<g>
		<path d="M302.9,1106c0-131.7,0-263.5,0-395.2c0-5.9,0-11.8,0-17.7c0-19.3-30-19.3-30,0c0,131.7,0,263.5,0,395.2
			c0,5.9,0,11.8,0,17.7C272.9,1125.3,302.9,1125.3,302.9,1106L302.9,1106z"/>
	</g>
</g>
<g>
	<g>
		<path d="M303,689c0-12.9,1.1-23.8,2.9-34c2.1-11.6,5.3-23,9.3-34c0.5-1.3,1-2.6,1.5-3.9c0.1-0.3,1.9-4.5,0.6-1.5
			c1.1-2.5,2.2-5,3.4-7.5c2.5-5.3,5.3-10.5,8.3-15.5c2.7-4.6,5.7-9,8.8-13.4c0.8-1.1,1.6-2.1,2.4-3.2c-2,2.7,0.6-0.8,0.9-1.1
			c1.9-2.4,3.9-4.7,5.9-7c3.5-3.9,7.1-7.6,10.9-11.1c1.9-1.8,3.8-3.5,5.8-5.1c1-0.8,2-1.6,3-2.5c0.7-0.5,1.3-1.1,2-1.6
			c-1.4,1.1-1.4,1.1,0,0c8.5-6.4,17.6-11.8,27.2-16.3c1.1-0.5,2.3-1,3.5-1.6c-3.3,1.4,0.6-0.2,1.1-0.4c2.4-0.9,4.7-1.8,7.1-2.6
			c5.2-1.8,10.5-3.2,15.9-4.3c2.5-0.5,5-1,7.5-1.4c4.3-0.7-3.2,0.4,1.1-0.2c1.3-0.2,2.6-0.3,3.9-0.4c6.2-0.6,12.5-0.7,18.8-0.5
			c8.1,0.3,14.4,1.2,22.2,3c8,1.8,16.3-2.3,18.6-10.6c2.1-7.6-2.5-16.8-10.6-18.6c-26.3-5.9-53.5-5.4-79.4,1.9
			c-22.2,6.3-42.3,17.7-60.3,32.1c-36.4,29.2-60.1,73.6-68.6,119c-2.6,13.8-3.9,27.9-4,42C272.7,708.5,302.9,708.5,303,689L303,689z
			"/>
	</g>
</g>
<g>
	<g>
		<path d="M287.9,1120.9c22,0,44.1,0,66.1,0c19.3,0,19.3-30,0-30c-22,0-44.1,0-66.1,0C268.6,1090.9,268.6,1120.9,287.9,1120.9
			L287.9,1120.9z"/>
	</g>
</g>
<g>
	<g>
		<path d="M369,1106c0-54,0-108,0-162c0-19.3-30-19.3-30,0c0,54,0,108,0,162C339,1125.3,369,1125.3,369,1106L369,1106z"/>
	</g>
</g>
<g>
	<g>
		<path d="M378,913.5c16.3,12.5,34.9,21.2,55.7,22c21.8,0.8,42.9-8.3,62-17.7c7.3-3.6,9.3-13.9,5.4-20.5c-4.4-7.4-13.2-9-20.5-5.4
			c-8.9,4.4-14.7,7-24,9.9c-4.1,1.3-8.2,2.3-12.4,3.1c-1.8,0.3-1.8,0.3,0,0.1c-0.9,0.1-1.8,0.2-2.6,0.3c-2.2,0.2-4.3,0.3-6.5,0.3
			c-1.7,0-3.4-0.1-5.1-0.2c-1.8-0.2-1.7-0.2,0.2,0.1c-1.3-0.2-2.6-0.4-3.8-0.7c-3.9-0.8-7.7-2.1-11.5-3.5c2.8,1.1-2.4-1.2-2.9-1.4
			c-2.2-1.1-4.4-2.4-6.6-3.7c-4.2-2.5-8.3-5.5-12.2-8.5c-6.5-5-16.8-1-20.5,5.4C368.1,900.7,371.6,908.5,378,913.5L378,913.5z"/>
	</g>
</g>
<g>
	<g>
		<path d="M369,943.4c0.1-3.8,0.4-7.6,0.7-11.3c0-0.6,0.8-6.5,0.3-3.3c0.2-1.8,0.6-3.6,0.9-5.3c0.6-3.1,1.4-6.2,2.4-9.3
			c0.2-0.7,0.5-1.3,0.7-2c-0.9,2-1,2.3-0.3,0.8c0.5-1.1,1.1-2.1,1.8-3.2c1.4-2.3-2.5,2.7,0.1-0.1c2.6-2.8-2.2,1.3-0.2,0.1
			c2.1-1.3-4,1.2-0.4,0.3c-4.5,1.1-2.3,0.2-0.5,0.3c-4.8-0.3-1.6-0.2-0.1,0.3c-4.3-1.4-0.5-0.2,0.6,0.5c1.3,0.7,2.4,1.6,3.6,2.4
			c-3-2.2,1.3,1.3,1.8,1.8c6,5.5,15.3,6,21.2,0c5.6-5.6,6-15.7,0-21.2c-13.3-12.2-32.2-20.3-47.2-5.7
			c-13.6,13.3-14.7,37.3-15.4,54.9c-0.3,8.2,7.1,15,15,15C362.4,958.4,368.7,951.5,369,943.4L369,943.4z"/>
	</g>
</g>
<g>
	<g>
		<path d="M300,1055c16.3,0,32.7,0,49,0c19.3,0,19.3-30,0-30c-16.3,0-32.7,0-49,0C280.7,1025,280.7,1055,300,1055L300,1055z"/>
	</g>
</g>
<g>
	<g>
		<path d="M295,1054c0.6,13.1,0.6,28.4,11.9,37.1c7,5.3,16.2,2.3,22.3-2.7c5.2-4.2,8.7-11,11.8-16.8c-9.3-2.5-18.6-5-28-7.6
			c0.9,6.6,1.1,13.4,2,20c1.1,8.1,6,15,15,15c7.4,0,16.1-6.9,15-15c-0.9-6.6-1.1-13.4-2-20c-0.9-6.7-3.9-12.5-11-14.5
			c-6.3-1.7-13.8,1-16.9,6.9c-1.1,2.1-2.2,4.1-3.4,6.1c-0.5,0.8-1,1.6-1.5,2.4c-2.3,3.5,1.9-2.1-0.4,0.5c-0.4,0.4-0.8,0.8-1.2,1.2
			c1.3-1.3,2.8-2.1,4.5-2.5c3.2-0.8,6.3-0.4,9.4,1.3c0.6,0.3,4.5,4.7,3.7,3.3c2.3,4.3,0.6,1.3,0.3-0.2c-0.2-0.9-1-6.5-0.5-2.3
			c-0.5-4.1-0.7-8.1-0.9-12.2c-0.4-8.2-6.5-15-15-15C302.1,1039,294.6,1045.8,295,1054L295,1054z"/>
	</g>
</g>
<g>
	<g>
		<path d="M297,1029c17,0,34,0,51,0c19.3,0,19.3-30,0-30c-17,0-34,0-51,0C277.7,999,277.7,1029,297,1029L297,1029z"/>
	</g>
</g>
<g>
	<g>
		<path d="M289.5,1089c-0.6,2.9-1,5.8-1.3,8.7c-0.2,1.2-0.3,2.4-0.4,3.7c0.4-3.8-0.1,0-0.3,0.7c-1.5,6.6,0.9,13.4,6.9,16.9
			c7.2,4.2,16.2,1.5,20.5-5.4c2.3-3.7,4-7.8,5.5-11.9c0.6-1.6,1.1-3.2,1.7-4.9c0.3-0.8,0.6-1.6,0.9-2.4c-0.7,1.6-0.7,1.7,0,0.1
			c3.5-7.4,2.1-16.1-5.4-20.5c-6.6-3.9-17-2-20.5,5.4c-1.8,3.9-3.3,7.8-4.7,11.9c-0.2,0.6-2.1,5.6-0.8,2.5c-0.7,1.6-1.6,3.2-2.5,4.7
			c9.1,3.9,18.3,7.7,27.4,11.6c0.6-2.9,1-5.8,1.3-8.7c0.2-1.2,0.3-2.4,0.4-3.7c-0.4,3.8,0.1,0,0.3-0.7c1.8-8-2.3-16.2-10.5-18.5
			C300.4,1076.4,291.3,1081,289.5,1089L289.5,1089z"/>
	</g>
</g>
<g>
	<g>
		<path d="M1148.6,1106c0-131.7,0-263.5,0-395.2c0-5.9,0-11.8,0-17.7c0-19.3-30-19.3-30,0c0,131.7,0,263.5,0,395.2
			c0,5.9,0,11.8,0,17.7C1118.6,1125.3,1148.6,1125.3,1148.6,1106L1148.6,1106z"/>
	</g>
</g>
<g>
	<g>
		<path d="M1148.8,689c-0.2-49.7-16.2-97.8-47-136.8c-28.3-35.9-69.8-59.2-115.2-64.4c-17.3-2-34.9-0.4-51.8,3.4
			c-8.1,1.8-12.8,11.1-10.7,18.8c2.3,8.3,10.7,12.5,18.8,10.7c13-2.9,26-3.7,39.8-2.7c1.3,0.1,2.6,0.2,3.8,0.4
			c0.6,0.1,4.9,0.6,1,0.1c2.5,0.4,5,0.8,7.5,1.3c5.4,1.1,10.7,2.5,15.9,4.1c2.4,0.8,4.8,1.6,7.1,2.5c1.2,0.4,2.3,0.9,3.5,1.4
			c-3.4-1.4,0.5,0.2,1,0.4c5,2.2,9.8,4.8,14.5,7.5c4.4,2.5,8.6,5.4,12.7,8.3c1,0.7,2,1.5,3.1,2.3c-2.8-2.1,0.5,0.5,0.9,0.8
			c2.3,1.9,4.6,3.8,6.8,5.8c3.8,3.5,7.5,7.1,11,10.9c1.8,1.9,3.5,3.9,5.2,5.9c0.8,1,1.7,2,2.5,3c0.5,0.7,1.1,1.4,1.6,2.1
			c-1-1.4-1-1.3,0,0c6.7,8.9,12.5,18.5,17.6,28.4c1.2,2.4,2.4,4.9,3.5,7.4c0.6,1.2,1.1,2.5,1.7,3.8c-1.3-3.1,0.4,1.1,0.6,1.4
			c2.2,5.6,4.2,11.3,5.9,17.1c1.6,5.4,3,10.9,4.1,16.5c0.6,2.8,1.1,5.6,1.6,8.5c0.2,1.4,0.5,2.9,0.7,4.3c-0.5-3.2,0.3,2.6,0.4,3.2
			c0.9,7.8,1.3,15.8,1.3,23.6c0,8.3,6.9,15.3,15.3,15.3C1141.9,704.3,1148.9,697.3,1148.8,689L1148.8,689z"/>
	</g>
</g>
<g>
	<g>
		<path d="M1133.6,1090.9c-22,0-44.1,0-66.1,0c-19.3,0-19.3,30,0,30c22,0,44.1,0,66.1,0C1152.9,1120.9,1152.9,1090.9,1133.6,1090.9
			L1133.6,1090.9z"/>
	</g>
</g>
<g>
	<g>
		<path d="M1082.4,1106c0-54,0-108,0-162c0-19.3-30-19.3-30,0c0,54,0,108,0,162C1052.4,1125.3,1082.4,1125.3,1082.4,1106
			L1082.4,1106z"/>
	</g>
</g>
<g>
	<g>
		<path d="M1028.3,887.6c-7.1,5.4-14.5,10.3-22.6,14c2.7-1.2-2.3,0.8-2.8,1c-2.1,0.7-4.2,1.3-6.4,1.8c-1.7,0.4-3.4,0.7-5.1,1
			c1.9-0.2,1.9-0.3,0.2-0.1c-1.3,0.1-2.6,0.2-3.9,0.2c-1.7,0.1-3.5,0-5.2-0.1c-0.9,0-1.7-0.1-2.6-0.2c-0.5,0-4.8-0.6-1.3-0.1
			c-4.2-0.6-8.3-1.7-12.4-2.9c-9.9-2.9-16.1-5.8-25.4-10.3c-7.3-3.6-16.2-2-20.5,5.4c-3.9,6.7-2,16.9,5.4,20.5
			c19,9.4,39.2,17.6,60.7,17.7c21.1,0.1,40.6-9.4,57-22c6.5-5,9.9-12.8,5.4-20.5C1045.1,886.6,1034.8,882.6,1028.3,887.6
			L1028.3,887.6z"/>
	</g>
</g>
<g>
	<g>
		<path d="M1082.4,937.7c-0.7-16.7-2.6-36.6-14.9-49.3c-5.4-5.6-13.9-8.9-21.7-8c-10.2,1.3-18.1,6.1-26,12.5
			c-6.4,5.2-5.3,15.9,0,21.2c6.2,6.2,14.9,5.1,21.2,0c3.5-2.9-2.2,1.6,1.2-0.9c1.3-0.9,2.6-1.7,4-2.4c3.2-1.7-3.1,1.1,0.1-0.1
			c1.2-0.4,5.3-1.1,0.3-0.4c0.8-0.1,1.6-0.1,2.3,0c-2.7-0.4-3.3-0.5-1.8-0.2c1.5,0.5,1,0.2-1.5-0.8c0.7,0.3,1.3,0.7,1.9,1.1
			c-3.8-2.5-1.1-0.7-0.2,0.3c-2.8-3.2-1-1.2-0.3-0.2c0.7,1.1,1.2,2.2,1.8,3.4c-1.7-3.8-0.3-0.4,0,0.4c0.5,1.5,0.9,3,1.3,4.5
			c0.3,1.2,0.6,2.5,0.8,3.7c0.1,0.6,0.9,6,0.5,2.8c0.5,4.1,0.8,8.2,1,12.3c0.4,8.2,6.6,15,15,15
			C1075.3,952.7,1082.8,945.9,1082.4,937.7L1082.4,937.7z"/>
	</g>
</g>
<g>
	<g>
		<path d="M1121.5,1025c-16.3,0-32.7,0-49,0c-19.3,0-19.3,30,0,30c16.3,0,32.7,0,49,0C1140.8,1055,1140.8,1025,1121.5,1025
			L1121.5,1025z"/>
	</g>
</g>
<g>
	<g>
		<path d="M1096.5,1054c-0.2,4.1-0.4,8.2-0.9,12.2c0.5-4.1-0.1,0.5-0.3,1.4c-0.3,1.4-2.1,5.9,0.1,1.1c-0.8,1.3-0.3,0.8,1.4-1.6
			c2.4-2.2,5.3-3.3,8.7-3.4c2,0,3.9,0.5,5.6,1.4c3.4,1.8,2,1.6,0.7,0.3c-1-1.2-0.9-1,0.3,0.5c-0.5-0.7-1-1.5-1.5-2.2
			c-1.5-2.4-2.9-4.9-4.2-7.4c-3.1-5.9-10.7-8.6-16.9-6.9c-7.1,1.9-10.1,7.7-11,14.5c-0.9,6.6-1.1,13.4-2,20c-1.1,8.1,7.6,15,15,15
			c9,0,13.9-6.9,15-15c0.9-6.6,1.1-13.4,2-20c-9.3,2.5-18.6,5-28,7.6c3.1,5.8,6.6,12.6,11.8,16.8c6,4.9,15.3,8,22.3,2.7
			c11.3-8.6,11.3-24,11.9-37.1c0.4-8.2-7.1-15-15-15C1103,1039,1096.8,1045.8,1096.5,1054L1096.5,1054z"/>
	</g>
</g>
<g>
	<g>
		<path d="M1124.5,999c-17,0-34,0-51,0c-19.3,0-19.3,30,0,30c17,0,34,0,51,0C1143.8,1029,1143.8,999,1124.5,999L1124.5,999z"/>
	</g>
</g>
<g>
	<g>
		<path d="M1103,1097c0.2,0.8,0.3,1.5,0.5,2.3c-0.7-3.9,0,0.2,0.1,0.9c0.4,3.3,0.7,6.6,1.5,9.9c9.1-3.9,18.3-7.7,27.4-11.6
			c-1-1.5-1.8-3-2.5-4.7c1.4,3.1-0.6-1.9-0.8-2.5c-1.4-4-2.9-8-4.7-11.9c-3.5-7.4-13.9-9.2-20.5-5.4c-7.5,4.4-8.9,13.1-5.4,20.5
			c0.7,1.6,0.7,1.5,0-0.1c0.3,0.8,0.6,1.6,0.9,2.4c0.6,1.6,1.1,3.2,1.7,4.9c1.4,4.1,3.1,8.2,5.5,11.9c3.6,5.7,10.3,8.7,16.9,6.9
			c8.2-2.2,12.3-10.5,10.5-18.5c-0.2-0.8-0.3-1.5-0.5-2.3c0.7,3.9,0-0.2-0.1-0.9c-0.4-3.3-0.7-6.6-1.5-9.9
			c-1.8-8-10.9-12.6-18.5-10.5C1105.3,1080.8,1101.2,1089,1103,1097L1103,1097z"/>
	</g>
</g>
</svg>
