<?xml version="1.0" encoding="utf-8"?>
<!-- Generator: Adobe Illustrator 18.0.0, SVG Export Plug-In . SVG Version: 6.00 Build 0)  -->
<!DOCTYPE svg PUBLIC "-//W3C//DTD SVG 1.1//EN" "http://www.w3.org/Graphics/SVG/1.1/DTD/svg11.dtd">
<svg version="1.1" xmlns="http://www.w3.org/2000/svg" xmlns:xlink="http://www.w3.org/1999/xlink" x="0px" y="0px"
	 viewBox="0 0 1417.3 1417.3" enable-background="new 0 0 1417.3 1417.3" xml:space="preserve">
<g id="Слой_2">
	<g>
		<linearGradient id="SVGID_1_" gradientUnits="userSpaceOnUse" x1="699.0488" y1="198.7928" x2="699.0488" y2="1462.8556">
			<stop  offset="0" style="stop-color:#E2E2E2"/>
			<stop  offset="1" style="stop-color:#979695"/>
		</linearGradient>
		<path fill="url(#SVGID_1_)" d="M1164.9,521.7c-8.6-15.9-19-31.2-31.5-44.3c-13.8-11.7-29.3-21.3-45.3-29.8
			c-8.1-3.8-16.3-7.5-24.5-11c-5.1-2.1-10-4.1-15.2-5.6c-6.5-1.2-13-2.2-19.6-3.2c-16.4-2.6-32.4-5.8-48.6-9.7
			c-14.1-3.4-27.4-8.9-39.9-16.5c-10.8-6.6-20.9-17.1-26.5-29c-92.5-14.4-184.3-32.6-275.3-54.7c-12.3,1.4-24.6,2.8-37,3.8
			c-15.6,1.2-31.2,2-46.7,4.1c-1,0.2-2,0.5-3,0.8c-8.5,13.9-20.2,24.4-35.2,32.1c-11,5.6-23,9.4-35.4,11.1c-0.6,0.3-1.2,0.7-1.8,1
			c-4,12.9-14,24.4-23.9,32.3c-16.2,12.9-36.7,20.5-57.2,22.3c-4.3,0.4-8.8,0.5-13.2,0.3c-1.7,1.5-3.4,3-5.2,4.5
			c-11.3,9.5-24.2,17.3-37.2,24.1c-12.1,6.3-24.8,11.5-36.8,17.9c-8.9,7-16.7,15.4-24.7,23.3c4.3-4.3,8.7-8.6,13-12.9
			c-23.6,23.4-46.1,47.9-68.9,72c0.6,44.7,1.1,89.4,0.8,134.1c4.7,7.5,7.3,16.3,5.8,25c-4.5,26.1-7.1,52.5-8.3,79
			c-1.2,26-1.3,52.1-0.7,78.2c0.3,13,0.7,25.9,1.2,38.8c0.5,12.1,1.5,24.2,1.2,36.3c-0.7,38.1-5.7,76.1-3.4,114.2
			c1.8,14.1,4.9,28,10.4,41.1c0.3,0.5,0.6,1.1,1,1.6c6.4,8.6,9.1,18.2,8.3,28.8l-2.3,8.9c16.9-7.1,35.1-9.8,53.4-8.2
			c1.4,0.1,2.9,0.2,4.3,0.4c-3.3-80.2-1.5-160.5-1.5-240.7c0-7.8,6.6-15.6,12.2-20.1c7.7-6.1,17.4-9.7,27.2-10.6
			c13.6-1.2,28.5,3.8,33,16.2c18.7,0.3,36.6,2.1,54.7,7.5c13.6,4.1,26.7,10.5,38.9,17.7c21,12.3,40.3,27.2,61.9,38.6
			c6.4,3,12.9,5.7,19.2,8.8c7.6,3.6,15.2,7.1,23,10.2c14,5.6,28.4,10.2,43,13.8c21.4,4.4,43.1,6.5,64.9,7c34.6,0.1,69.2-3,103.3-9
			c25.9-5.1,51.4-12,76.1-21.3c16.6-6.8,32.7-14.8,48-24.2c11.4-7.6,22.2-16.1,32.1-25.5c1.2-1.2,2.4-2.5,3.5-3.8
			c12.6-13.7,33-21.1,51.2-14.7c6.1,2.1,11.7,6.1,14.6,11.9c5.6-2.5,11.1-5.3,16.4-8.4c3.3-2,7.2-3.5,11.4-4.5
			c2-2.6,4.4-4.9,6.6-6.6c7.7-6.1,17.4-9.7,27.2-10.6c16.2-1.4,34.3,5.9,34.4,24.4c0,25.2,0.3,50.4,0.9,75.5
			c1.5,61.3,4.3,122.6,7,183.9h51.3c2.8-2.5,5.5-5,8-7.7c0.5,0.2,0.9,0.3,1.4,0.5c0.2,2.4,0.4,4.8,0.6,7.2h7.3V558.6
			c0.4-3,1-6,1.8-8.8C1173.1,540.2,1169.2,530.9,1164.9,521.7z"/>
	</g>
</g>
<g id="Слой_3">
	<g>
		
			<linearGradient id="SVGID_2_" gradientUnits="userSpaceOnUse" x1="3244.6211" y1="2142.0093" x2="3727.509" y2="2142.0093" gradientTransform="matrix(0 1 -1 0 2834.7891 -2854.7878)">
			<stop  offset="0" style="stop-color:#FFFFFF"/>
			<stop  offset="1" style="stop-color:#000000"/>
		</linearGradient>
		<path fill="url(#SVGID_2_)" d="M582.4,540c64.6,10.4,134.2,22.9,203.8,30.9l17-35.6C729.6,537.3,655.5,534.7,582.4,540z"/>
		
			<linearGradient id="SVGID_3_" gradientUnits="userSpaceOnUse" x1="3244.6204" y1="2114.637" x2="3727.5088" y2="2114.637" gradientTransform="matrix(0 1 -1 0 2834.7891 -2854.7878)">
			<stop  offset="0" style="stop-color:#FFFFFF"/>
			<stop  offset="1" style="stop-color:#000000"/>
		</linearGradient>
		<path fill="url(#SVGID_3_)" d="M887.9,474.6c-13.9-6-31.4-9.3-50.6-11l25.9-54.4c-98.9,0-199.6-26.5-298.5-17.7
			c49.7,37.7,134.4,55.5,195.8,71c-26.7,0.8-52.2,2-72.2,1.4c-42.4-1.8-93.6-7.1-136,7.1c49.4,21.2,114.8,23,167.8,33.6
			c29.8,5.1,60.3,9.7,90.6,14.7l19.5-40.8C850.3,481.3,870.5,481.3,887.9,474.6z"/>
		
			<linearGradient id="SVGID_4_" gradientUnits="userSpaceOnUse" x1="3244.6199" y1="2207.989" x2="3727.5088" y2="2207.989" gradientTransform="matrix(0 1 -1 0 2834.7891 -2854.7878)">
			<stop  offset="0" style="stop-color:#FFFFFF"/>
			<stop  offset="1" style="stop-color:#000000"/>
		</linearGradient>
		<path fill="url(#SVGID_4_)" d="M550.6,750.1c46.3,7.9,92.8,15.4,139.4,22.4l13-27.2C651.4,746.6,601,747,550.6,750.1z"/>
		
			<linearGradient id="SVGID_5_" gradientUnits="userSpaceOnUse" x1="3244.6223" y1="2241.3408" x2="3727.5095" y2="2241.3408" gradientTransform="matrix(0 1 -1 0 2834.7891 -2854.7878)">
			<stop  offset="0" style="stop-color:#FFFFFF"/>
			<stop  offset="1" style="stop-color:#000000"/>
		</linearGradient>
		<path fill="url(#SVGID_5_)" d="M520.6,847.3c38.8,9.7,82.9,12.8,126.7,15l19.1-40C616.4,827.9,567.4,835.9,520.6,847.3z"/>
		
			<linearGradient id="SVGID_6_" gradientUnits="userSpaceOnUse" x1="3244.6206" y1="2165.9561" x2="3727.5098" y2="2165.9561" gradientTransform="matrix(0 1 -1 0 2834.7891 -2854.7878)">
			<stop  offset="0" style="stop-color:#FFFFFF"/>
			<stop  offset="1" style="stop-color:#000000"/>
		</linearGradient>
		<path fill="url(#SVGID_6_)" d="M646,864.9c15.1,0,30.4-0.3,45.7-0.6c-14.6-0.7-29.5-1.4-44.4-2.1L646,864.9z"/>
		
			<linearGradient id="SVGID_7_" gradientUnits="userSpaceOnUse" x1="3244.6309" y1="2060.8782" x2="3727.5098" y2="2060.8782" gradientTransform="matrix(0 1 -1 0 2834.7891 -2854.7878)">
			<stop  offset="0" style="stop-color:#FFFFFF"/>
			<stop  offset="1" style="stop-color:#000000"/>
		</linearGradient>
		<path fill="url(#SVGID_7_)" d="M856.1,868.5c-53.8-6.9-109.7-5.2-164.4-4.1c12.7,0.6,25.2,1.4,37.3,2.3
			C769.6,870.2,815.5,877.3,856.1,868.5z"/>
		
			<linearGradient id="SVGID_8_" gradientUnits="userSpaceOnUse" x1="3244.6169" y1="1995.4302" x2="3727.519" y2="1995.4302" gradientTransform="matrix(0 1 -1 0 2834.7891 -2854.7878)">
			<stop  offset="0" style="stop-color:#FFFFFF"/>
			<stop  offset="1" style="stop-color:#000000"/>
		</linearGradient>
		<path fill="url(#SVGID_8_)" d="M810.7,519.3l-7.6,15.9c24.2-0.7,48.4-1.9,72.4-4.1C854.2,526.7,832.5,522.9,810.7,519.3z"/>
		
			<linearGradient id="SVGID_9_" gradientUnits="userSpaceOnUse" x1="3244.623" y1="1982.0715" x2="3727.509" y2="1982.0715" gradientTransform="matrix(0 1 -1 0 2834.7891 -2854.7878)">
			<stop  offset="0" style="stop-color:#FFFFFF"/>
			<stop  offset="1" style="stop-color:#000000"/>
		</linearGradient>
		<path fill="url(#SVGID_9_)" d="M878,732.1c-17.4,0.7-34.9,2-52.3,3.6c17.9,1.1,36.1,2,54.2,2.2C879.2,736,878.6,734.1,878,732.1z"
			/>
		
			<linearGradient id="SVGID_10_" gradientUnits="userSpaceOnUse" x1="3244.6218" y1="2070.4761" x2="3727.5105" y2="2070.4761" gradientTransform="matrix(0 1 -1 0 2834.7891 -2854.7878)">
			<stop  offset="0" style="stop-color:#FFFFFF"/>
			<stop  offset="1" style="stop-color:#000000"/>
		</linearGradient>
		<path fill="url(#SVGID_10_)" d="M825.6,735.8c-25.4-1.6-50.3-3.7-73.7-5c-13.5-0.7-27.2-1.4-40.9-2.2l-8,16.8
			c6.3-0.2,12.6-0.3,18.9-0.5C755.1,743.2,790.2,739,825.6,735.8z"/>
		
			<linearGradient id="SVGID_11_" gradientUnits="userSpaceOnUse" x1="3244.6208" y1="2047.2405" x2="3727.5095" y2="2047.2405" gradientTransform="matrix(0 1 -1 0 2834.7891 -2854.7878)">
			<stop  offset="0" style="stop-color:#FFFFFF"/>
			<stop  offset="1" style="stop-color:#000000"/>
		</linearGradient>
		<path fill="url(#SVGID_11_)" d="M905.3,801c-71.9-8.2-143.8-17.8-215.3-28.5l-23.7,49.8c80.5-9.1,163.3-12.3,242.5-14.4
			C907.6,805.6,906.5,803.3,905.3,801z"/>
		
			<linearGradient id="SVGID_12_" gradientUnits="userSpaceOnUse" x1="3244.6201" y1="2145.6848" x2="3727.5105" y2="2145.6848" gradientTransform="matrix(0 1 -1 0 2834.7891 -2854.7878)">
			<stop  offset="0" style="stop-color:#FFFFFF"/>
			<stop  offset="1" style="stop-color:#000000"/>
		</linearGradient>
		<path fill="url(#SVGID_12_)" d="M743.1,661.2l22-46.2c32.5,1,65,1.8,97.5,2.3c0-0.5,0.1-0.9,0.2-1.4c-32.4-1.6-64.9-1.9-97.4-1.5
			l19.3-40.4c-45.7,0.6-91.3,1.8-137,4.9c-43.8,3-88.1,6-132.4,9.9c1.2,3.6,2.4,7.1,3.5,10.7c0.6,1.9,1.1,3.7,1.7,5.5
			c77.1,3.6,154.5,7.1,232,9.6c-49.2,0.8-98.4,3.1-147.2,4.9c-26.5,0.9-53.4,1.9-80.6,3.2c2.2,11,3.6,22.1,4.5,33.7
			c0.1,1.3,0.2,2.6,0.2,3.9c32.1,0.3,64,0.6,95.2,1.6c18.6,0.9,37.7,2.3,57.1,3.8c-24.7,2-49.2,4-72.9,5.1
			c-26.3,1.5-52.8,2.6-79.5,3.8c-0.6,8.6-2,17-3.8,25.6c-1.1,5-2.2,10.1-3.3,15.1c63.2,6,126.8,10,188.7,13.4l28.2-59.2
			c39.7,1.8,79.4,1.5,116.9-5.7C819.2,658.8,781.1,659.1,743.1,661.2z"/>
		
			<linearGradient id="SVGID_13_" gradientUnits="userSpaceOnUse" x1="3244.6418" y1="2035.8574" x2="3727.4741" y2="2035.8574" gradientTransform="matrix(0 1 -1 0 2834.7891 -2854.7878)">
			<stop  offset="0" style="stop-color:#FFFFFF"/>
			<stop  offset="1" style="stop-color:#000000"/>
		</linearGradient>
		<path fill="url(#SVGID_13_)" d="M786.2,570.8l-1.5,3.1c9.5-0.1,19-0.2,28.5-0.3C804.2,572.8,795.2,571.9,786.2,570.8z"/>
		
			<linearGradient id="SVGID_14_" gradientUnits="userSpaceOnUse" x1="3244.6184" y1="1992.541" x2="3727.5132" y2="1992.541" gradientTransform="matrix(0 1 -1 0 2834.7891 -2854.7878)">
			<stop  offset="0" style="stop-color:#FFFFFF"/>
			<stop  offset="1" style="stop-color:#000000"/>
		</linearGradient>
		<path fill="url(#SVGID_14_)" d="M871.3,573.5c-19.4,0-38.8,0-58.2,0.2c19.1,1.8,38.1,3.3,57,4.1
			C870.6,576.4,870.9,575,871.3,573.5z"/>
		<g>
			<linearGradient id="SVGID_15_" gradientUnits="userSpaceOnUse" x1="529.95" y1="180.1709" x2="1127.1538" y2="524.9667">
				<stop  offset="0" style="stop-color:#DC8A52"/>
				<stop  offset="1" style="stop-color:#D26650"/>
			</linearGradient>
			<path fill="url(#SVGID_15_)" d="M739.3,302.1c1.2,0,2.5,0,3.7,0C741.8,302.1,740.5,302.1,739.3,302.1z"/>
			<linearGradient id="SVGID_16_" gradientUnits="userSpaceOnUse" x1="370.9498" y1="455.4902" x2="968.2495" y2="800.3413">
				<stop  offset="0" style="stop-color:#DC8A52"/>
				<stop  offset="1" style="stop-color:#D26650"/>
			</linearGradient>
			<path fill="url(#SVGID_16_)" d="M948.9,865.5c-11.5-11.1-21-24.2-29.2-37.9c-11.2-18.8-20.9-38.7-29-59.1
				c-11.5-28.8-20.3-59-25.3-89.7c-4-24.9-5.3-50.6-0.9-75.5c4.5-25.4,12-50.9,23.3-74.2c17.7-36.4,41.7-69.7,70.6-98.2
				c-15.2-13.6-29.8-27.8-44.6-41.8c-25.8-24-52.7-46.6-83.6-63.7c-16.2-7.4-32.9-13.6-50.1-18.2c-14.7-2.8-29.5-4.4-44.5-5.1
				c-44.9,2.6-89.9,7.6-134.2,15.4c-24.2,4.8-48.4,10.6-71.6,18.9c-4.1,1.8-8.2,3.8-12.2,5.9c-2.2,6.7-5.6,12.9-10.3,18.5
				c-4.3,4.3-8.7,8.6-13,12.9c-11.4,9.1-24.9,15.5-39.1,19.2c0.1,7.6,1,15.2,2.7,22.8c-3.2,5.4-5.8,11-8.1,16.9
				c1.8,3,3.2,6.3,4.1,9.8c0.6,2.7,1.4,5.3,2.3,7.8c2,2.9,4.1,5.7,6.5,8.4c0.4,0.3,0.8,0.6,1.1,0.9c4.9,1.8,9.6,4.2,13.9,7.1
				c6.8,4.7,12.7,11.4,16.3,19.1c3.3,3.2,6.4,6.5,9.1,10c6.5,8.3,11,18.2,15.5,27.7c2.7,10.4,1.8,20.5-2.6,30.3
				c-2.8,4.6-5.6,9.1-8.4,13.7c3.7,10.6,7.6,21.2,11,31.9c5.9,18.8,8.8,37.2,10.4,56.9c1.2,14.9-0.7,29.2-3.7,43.8
				c-4.6,21.8-10,43.5-17.1,64.6c-2.8,8.3-5.9,16.6-9.5,24.6c-5.7,12.8-12.9,24.4-20.2,36.4c-4.3,7.1-9.1,14-14.7,20.2
				c-7.4,8.4-15.2,16.7-23.9,23.9c3.7,2.7,7.1,5.8,10.3,9.5c6,6.8,12.2,13.4,18.6,19.7c20.3,18.2,42.6,33.9,66.6,46.7
				c20.8,9.7,42.6,17.3,64.9,23c4.8,0.4,9.6,0.8,14.4,1.1c10,3,20.4,4.5,31,4.5c15.4,0,30.8-0.3,46.3-0.6
				c13.2,0.6,26.4,1.4,39.5,2.6c12.5,1.1,24.9,2.4,37.3,3.5c17.3-9.6,36.2-16.5,54.6-23.5c12.2-4.7,24.6-8.9,36.9-13.5
				c7.8-3.3,15.6-6.9,23-11.1c4.4-3.3,8.6-6.8,12.5-10.7c10.9-8.5,23-14.7,36.4-18.4c0.7-0.1,1.4-0.3,2.2-0.4
				c5.5-10.8,14.2-19.9,24.5-27C955.7,872.1,952.3,868.8,948.9,865.5z"/>
		</g>
	</g>
</g>
<g id="Слой_1">
	<g>
		<g>
			<path d="M947.9,859.5c-32.9,37.2-73.9,67.3-119.6,86.4c-48.6,20.3-101,28.4-153.4,24.5c-84.7-6.2-164.4-47.2-220.7-110.6
				c-4.4-5-12.7-4.5-17.2,0c-4.9,4.9-4.4,12.2,0,17.2c70.7,79.6,175.4,123.5,281.7,118.2c94.1-4.6,183.9-48.1,246.3-118.6
				c4.4-5,4.9-12.3,0-17.2C960.6,855.1,952.3,854.6,947.9,859.5L947.9,859.5z"/>
		</g>
	</g>
	<g>
		<g>
			<path d="M454.3,426.3c33.1-37.3,74.3-67.4,120.3-86.4c48.8-20.2,101.3-28.1,153.9-24c84.3,6.5,163.6,47.6,219.5,110.9
				c4.4,5,12.7,4.5,17.2,0c4.9-4.9,4.4-12.2,0-17.2c-70.3-79.5-174.5-123.4-280.5-118.7c-94.5,4.2-184.8,47.6-247.5,118.3
				c-4.4,4.9-4.9,12.3,0,17.2C441.6,430.8,449.9,431.3,454.3,426.3L454.3,426.3z"/>
		</g>
	</g>
	<g>
		<g>
			<path d="M688.8,308.3c0,23,0,46.1,0,69.1c0,55,0,109.9,0,164.9c0,65.7,0,131.4,0,197.2c0,55.3,0,110.6,0,165.9
				c0,23.7,0,47.3,0,71c0,0,0,0,0,0c0,15.7,24.3,15.7,24.3,0c0-23,0-46.1,0-69.1c0-55,0-109.9,0-164.9c0-65.7,0-131.4,0-197.2
				c0-55.3,0-110.6,0-165.9c0-23.7,0-47.3,0-71c0,0,0,0,0,0C713.1,292.6,688.8,292.6,688.8,308.3L688.8,308.3z"/>
		</g>
	</g>
	<g>
		<g>
			<path d="M530.9,651.6c38.6,0,77.1,0,115.7,0c61.2,0,122.5,0,183.7,0c13.7,0,27.5,0,41.2,0c15.7,0,15.7-24.3,0-24.3
				c-38.6,0-77.1,0-115.7,0c-61.2,0-122.5,0-183.7,0c-13.7,0-27.5,0-41.2,0C515.3,627.3,515.3,651.6,530.9,651.6L530.9,651.6z"/>
		</g>
	</g>
	<g>
		<g>
			<path d="M437.1,426.3c70.9,80.6,97.8,193,71.8,297.1c-12.6,50.4-37.5,97.5-71.8,136.5c-4.4,5-4.9,12.3,0,17.2
				c4.5,4.5,12.8,5,17.2,0c35.7-40.6,62.1-88.8,76.4-141c14.9-54.3,16.1-112,4.6-167.1c-12.4-59.3-41.1-114.5-81-159.9
				c-4.4-5-12.7-4.5-17.2,0C432.2,414,432.7,421.4,437.1,426.3L437.1,426.3z"/>
		</g>
	</g>
	<g>
		<g>
			<path d="M965.1,859.5c-71.1-81.1-97.7-194.2-71-298.6c12.7-49.5,37.3-95.8,71-134.2c4.4-5,4.9-12.3,0-17.2
				c-4.5-4.5-12.8-5-17.2,0c-35.8,40.9-62.2,89.3-76.4,141.8c-14.8,54.6-15.7,112.6-3.8,167.8c12.6,58.4,41,112.8,80.3,157.6
				c4.4,5,12.7,4.5,17.2,0C970,871.8,969.5,864.5,965.1,859.5L965.1,859.5z"/>
		</g>
	</g>
	<g>
		<g>
			<path d="M239.3,1186c0-132.1,0-264.1,0-396.2c0-54.7,0-109.4,0-164.2c0-15.7-24.3-15.7-24.3,0c0,132.1,0,264.1,0,396.2
				c0,54.7,0,109.4,0,164.2C215,1201.6,239.3,1201.6,239.3,1186L239.3,1186z"/>
		</g>
	</g>
	<g>
		<g>
			<path d="M239.3,621c0.2-43.2,15.8-85.6,43.9-118c28.7-33.1,67.1-53.9,110.6-60.6c1.5-0.2,1.2-0.2,3.6-0.5
				c2.3-0.3,4.6-0.5,6.9-0.7c4.6-0.4,9.3-0.5,14-0.6c12.2-0.1,24.4,1,36.4,3.4c6.5,1.3,13.1-1.7,14.9-8.5c1.7-6-2-13.7-8.5-14.9
				c-50.3-9.9-102.5-1.5-146.6,24.8c-39.5,23.6-69.5,60.3-86.2,103c-9,23-13.2,48-13.3,72.6C214.9,636.7,239.2,636.7,239.3,621
				L239.3,621z"/>
		</g>
	</g>
	<g>
		<g>
			<path d="M227.1,1198.1c24.8,0,49.6,0,74.5,0c15.7,0,15.7-24.3,0-24.3c-24.8,0-49.6,0-74.5,0
				C211.5,1173.8,211.5,1198.1,227.1,1198.1L227.1,1198.1z"/>
		</g>
	</g>
	<g>
		<g>
			<path d="M313.8,1186c0-92.6,0-185.2,0-277.8c0-15.7-24.3-15.7-24.3,0c0,92.6,0,185.2,0,277.8
				C289.5,1201.6,313.8,1201.6,313.8,1186L313.8,1186z"/>
		</g>
	</g>
	<g>
		<g>
			<path d="M331,869.7c17.9,13.7,38.2,23.5,61.1,24.1c23.4,0.6,46.1-9.1,66.7-19.3c5.9-2.9,7.5-11.2,4.4-16.6
				c-3.5-6-10.7-7.3-16.6-4.4c-9.5,4.7-19.2,8.9-29.3,12c-9.3,2.9-15.9,4-25.1,3.9c-8.2-0.1-15.1-1.8-23.7-5.2
				c-7.8-3.1-17.6-9.8-25.1-15.6c-5.3-4-13.6-0.8-16.6,4.4C323,859.3,325.8,865.6,331,869.7L331,869.7z"/>
		</g>
	</g>
	<g>
		<g>
			<path d="M313.8,907.4c0.3-9,1-17,2.6-25c0.7-3.4,1.6-6.8,2.8-10.2c0.2-0.7,0.5-1.3,0.7-1.9c-0.6,1.4-0.6,1.4,0,0.2
				c0.6-1.4,1.4-2.6,2.2-3.9c1.2-1.8-1.7,1.8,0.6-0.6c2.3-2.4-1.8,0.9,1-0.7c1.8-1-2.9,0.8,0.3,0c1.3-0.2,0.9-0.2-1.2,0.2
				c0.7-0.1,1.4,0,2.2,0.1c-3.8-0.3-0.4,0.1,0.6,0.4c1.2,0.5,1.1,0.4-0.4-0.2c0.9,0.4,1.7,0.9,2.6,1.4c3.7,2.1,3.7,2.3,7,5.4
				c11.5,10.6,28.7-6.5,17.2-17.2c-13-12-32.3-21.1-46.8-6c-13.8,14.4-14.8,39.4-15.5,58.1C288.9,923.1,313.2,923,313.8,907.4
				L313.8,907.4z"/>
		</g>
	</g>
	<g>
		<g>
			<path d="M234.9,1121.3c18.4,0,36.8,0,55.2,0c15.7,0,15.7-24.3,0-24.3c-18.4,0-36.8,0-55.2,0
				C219.2,1097,219.2,1121.3,234.9,1121.3L234.9,1121.3z"/>
		</g>
	</g>
	<g>
		<g>
			<path d="M234,1124.9c0.3,7.1,0.9,14.2,2,21.2c0.8,5.1,2.7,11.4,6.9,14.7c15.4,12.4,27.6-6.5,34-18.6c-7.5-2-15.1-4.1-22.6-6.1
				c1,7.5,1.3,15,2.3,22.5c0.9,6.6,4.9,12.2,12.2,12.2c6,0,13-5.6,12.1-12.2c-1-7.5-1.3-15-2.3-22.5c-0.7-5.5-3.2-10.1-8.9-11.7
				c-5.1-1.4-11.2,0.8-13.7,5.6c-1.3,2.5-2.7,5.1-4.2,7.5c-0.5,0.8-1,1.6-1.5,2.3c-2.2,3.3,1.3-1.4-0.8,1.1
				c-0.4,0.4-0.8,0.9-1.2,1.3c-1.6,1.6,2.4-1.2,2.7-1.4c3-1.2,6.7,0.7,8.9,2.5c-1.6-1.3,1.7,2.7,0.6,0.7c1.9,3.3,0-0.3-0.3-1.5
				c-0.2-0.7-1-5.5-0.6-2.9c-0.7-4.9-0.9-9.8-1.1-14.7c-0.3-6.6-5.3-12.2-12.2-12.2C239.8,1112.7,233.7,1118.3,234,1124.9
				L234,1124.9z"/>
		</g>
	</g>
	<g>
		<g>
			<path d="M231.5,1092c19.1,0,38.3,0,57.4,0c15.7,0,15.7-24.3,0-24.3c-19.1,0-38.3,0-57.4,0C215.9,1067.7,215.9,1092,231.5,1092
				L231.5,1092z"/>
		</g>
	</g>
	<g>
		<g>
			<path d="M246.3,1086.8c-1.2,5.2-1.4,10.9-2.3,14.6c-3,13.5,14.8,21.2,22.2,9.4c4.1-6.6,6.2-15.4,9-21.4c2.8-6,1.7-13.1-4.4-16.6
				c-5.3-3.1-13.8-1.6-16.6,4.4c-3.5,7.3-5,15-9,21.4c7.4,3.1,14.8,6.2,22.2,9.4c1.2-5.2,1.4-10.9,2.3-14.6
				c1.4-6.5-1.9-13.1-8.5-14.9C255.1,1076.6,247.7,1080.3,246.3,1086.8L246.3,1086.8z"/>
		</g>
	</g>
	<g>
		<g>
			<path d="M1191.5,1186c0-132.1,0-264.1,0-396.2c0-54.7,0-109.4,0-164.2c0-15.7-24.3-15.7-24.3,0c0,132.1,0,264.1,0,396.2
				c0,54.7,0,109.4,0,164.2C1167.2,1201.6,1191.5,1201.6,1191.5,1186L1191.5,1186z"/>
		</g>
	</g>
	<g>
		<g>
			<path d="M1191.5,621c-0.2-47.2-16.6-92.3-46-129.1c-28.2-35.3-69.1-60.3-113-70.4c-28.6-6.6-58.3-6.6-87.1-0.9
				c-6.5,1.3-10.1,8.9-8.5,14.9c1.9,6.7,8.5,9.8,14.9,8.5c14.3-2.8,28.8-3.8,43.4-3.2c11.9,0.5,20.6,1.7,32.1,4.4
				c21.9,5,40.2,13,59.1,25.4c35,22.9,61.5,59.2,73.5,99.4c5.2,17.5,7.2,32.8,7.3,51C1167.2,636.7,1191.5,636.7,1191.5,621
				L1191.5,621z"/>
		</g>
	</g>
	<g>
		<g>
			<path d="M1180.4,1173.8c-24.8,0-49.6,0-74.5,0c-15.7,0-15.7,24.3,0,24.3c24.8,0,49.6,0,74.5,0
				C1196.1,1198.1,1196.1,1173.8,1180.4,1173.8L1180.4,1173.8z"/>
		</g>
	</g>
	<g>
		<g>
			<path d="M1117,1186c0-95,0-190,0-284.9c0-15.7-24.3-15.7-24.3,0c0,95,0,190,0,284.9C1092.7,1201.6,1117,1201.6,1117,1186
				L1117,1186z"/>
		</g>
	</g>
	<g>
		<g>
			<path d="M1063.2,848.7c-7.6,5.8-17.3,12.3-25.1,15.6c-4.1,1.7-8.4,3-12.8,4c-3.9,0.9-5.9,1.1-10.9,1.2
				c-9.2,0.2-15.8-1.2-25.1-3.9c-10.2-3-19.8-7.3-29.3-12c-5.9-2.9-13.1-1.7-16.6,4.4c-3.2,5.4-1.6,13.7,4.4,16.6
				c20.8,10.2,43.1,19.4,66.7,19.3c22.7-0.2,43.5-10.6,61.1-24.1c5.2-4,8-10.4,4.4-16.6C1076.8,847.9,1068.5,844.6,1063.2,848.7
				L1063.2,848.7z"/>
		</g>
	</g>
	<g>
		<g>
			<path d="M1117,901c-0.8-17.5-2.5-38.8-15.3-52.1c-14.2-14.7-33.8-5.7-47,5.1c-5.1,4.2-4.3,12.9,0,17.2c5,5,12.1,4.2,17.2,0
				c1.5-1.2,4.2-3,6.8-4.5c0.6-0.3,1.3-0.6,1.9-0.9c-1.4,0.6-1.4,0.6-0.2,0.2c0.8-0.3,4.7-1,1-0.5c1-0.1,2.1-0.1,3.1,0
				c-4.7-0.4,2.2,1.3-1.9-0.5c0.8,0.3,3.5,2.3,0.7,0.1c0.8,0.7,1.6,1.4,2.3,2.2c-2.2-2.5,0.2,0.4,0.6,1.1c0.7,1.1,1.2,2.3,1.8,3.4
				c-1.2-2.6,0.5,1.6,0.7,2.1c0.5,1.5,0.9,3,1.3,4.5c2,7.8,2.4,14,2.8,22.5c0.3,6.6,5.3,12.2,12.2,12.2
				C1111.3,913.2,1117.3,907.7,1117,901L1117,901z"/>
		</g>
	</g>
	<g>
		<g>
			<path d="M1167.4,1097.9c-18.4,0-36.8,0-55.2,0c-15.7,0-15.7,24.3,0,24.3c18.4,0,36.8,0,55.2,0
				C1183.1,1122.2,1183.1,1097.9,1167.4,1097.9L1167.4,1097.9z"/>
		</g>
	</g>
	<g>
		<g>
			<path d="M1144,1125.8c-0.2,4.5-0.5,9.1-1,13.6c-0.2,1.5-0.2,1.6,0,0.2c-0.1,1-0.3,2-0.5,3c-0.2,1.2-2.2,6-0.5,2.4
				c-0.7,1.1-0.3,0.8,0.9-1c-0.6,0.8,4.4-2.3,6.2-2.4c1.5,0,2.9,0.3,4.2,1c2.7,1.4,1.2,1,0.2,0c-0.4-0.5-0.9-0.9-1.3-1.4
				c1.7,2-0.9-1.4-0.9-1.5c-1.8-2.8-3.4-5.8-5-8.7c-2.5-4.8-8.6-7-13.7-5.6c-5.7,1.6-8.2,6.3-8.9,11.7c-1,7.5-1.3,15-2.3,22.5
				c-0.9,6.6,6.2,12.2,12.2,12.2c7.3,0,11.3-5.6,12.2-12.2c1-7.5,1.3-15,2.3-22.5c-7.5,2-15.1,4.1-22.6,6.1
				c6.4,12.1,18.6,31,34,18.6c4-3.2,5.7-8.9,6.7-13.7c1.5-7.3,1.9-14.8,2.2-22.2c0.3-6.6-5.8-12.2-12.2-12.2
				C1149.3,1113.6,1144.3,1119.2,1144,1125.8L1144,1125.8z"/>
		</g>
	</g>
	<g>
		<g>
			<path d="M1170.8,1068.6c-19.1,0-38.3,0-57.4,0c-15.7,0-15.7,24.3,0,24.3c19.1,0,38.3,0,57.4,0
				C1186.5,1092.9,1186.5,1068.6,1170.8,1068.6L1170.8,1068.6z"/>
		</g>
	</g>
	<g>
		<g>
			<path d="M1151.2,1172.9c0.8,3.8,1.1,9.4,2.3,14.6c7.4-3.1,14.8-6.2,22.2-9.4c-4.1-6.4-5.5-14.1-9-21.4c-2.8-6-11.3-7.5-16.6-4.4
				c-6.1,3.6-7.2,10.6-4.4,16.6c2.8,6,4.9,14.8,9,21.4c7.5,11.8,25.2,4.1,22.2-9.4c-0.8-3.8-1.1-9.4-2.3-14.6
				c-1.4-6.5-8.8-10.2-14.9-8.5C1153.1,1159.8,1149.7,1166.5,1151.2,1172.9L1151.2,1172.9z"/>
		</g>
	</g>
	<g>
		<g>
			<path d="M234.8,1107.9c12.9-5.4,28.3,3.3,42.7,2.1c-3.9-3-7.8-5.9-11.7-8.9c1.5,8.7-0.5,18.7-0.7,27.7c-0.2,8,1.5,15.8,1,23.8
				c-0.2,1.5-0.2,1.8,0,0.7c-0.1,0.9-0.3,1.7-0.5,2.6c-0.1,0.6-1.7,4.6-0.8,2.9c-0.8,1.2-0.8,1.4,0,0.4c-1.2,1.2-1,1.1,0.4-0.2
				c-1.2,0.6-0.9,0.5,0.6-0.2c-0.7,0.2-3.4,0.5-0.4,0.2c-5.7,0.6-10.1-1.1-15.3-4c-0.4-0.2-4.2-2.8-2.1-1.2c-1.1-0.8-2-1.8-2.9-2.7
				c2.3,2.5-1-2.8,0.4,1c-0.3-1-0.3-1-0.1,0.1c-0.2-1.4-0.2-2.7-0.3-4.1c-0.3-4.5-0.1-9,0.3-13.4c-0.1,1.5,0.7-2.7,0.8-3.1
				c0.5-1.5,0.5-1.6,0-0.2c-0.6,1.2-2.4,2.4-3.7,2.8c-1.9,0.2-2.1,0.3-0.7,0.3c-1.6-0.3-1.6-0.3,0,0c1.8,0.3,3.5,0.7,5.3,0.9
				c-1.1-0.2,7.6,1,4.5,0.6c2,0.3,3.9,0.6,5.8,1.2c1.4,0.5,1.4,0.5,0-0.1c-1.4-1-2.3-2.4-2.7-4.1c-0.2-0.9-0.2-1.7,0-2.5
				c-0.2,1.2-0.7,2.4-1.1,3.5c0.4-0.9,0.3-0.6-0.3,0.7c-0.6,1.4-1.2,2.7-1.7,4.1c-0.7,1.7-1.4,3.3-1.7,5.1
				c-1.2,6.5,1.7,13.1,8.5,14.9c6,1.6,13.7-2,14.9-8.5c0.8-4.5,3.4-7.8,4.9-13.4c1.7-6.4,0.2-14.1-5.2-18.4
				c-4.8-3.8-10.1-5.3-16-6.1c-1.8-0.2-3.7-0.5-5.5-0.7c2.8,0.3-0.2,0-0.7-0.1c-3-0.5-5.9-1.1-8.9-1.4c-15.1-1.5-19.8,14.2-20.9,26
				c-1.2,11.6-0.7,24,7.6,32.9c13.5,14.5,45.6,22.4,57.1,2c5.6-9.9,5.3-22.4,4-33.4c-1.6-14.4,1.7-28.6-0.7-43
				c-0.8-4.9-6.8-9.3-11.7-8.9c-16.3,1.4-32.7-8.1-49.1-1.2c-6.1,2.6-10.4,7.9-8.5,14.9C221.4,1105.2,228.7,1110.5,234.8,1107.9
				L234.8,1107.9z"/>
		</g>
	</g>
	<g>
		<g>
			<path d="M1112.8,1108.8c8.5,2.9,17.8,3.8,26.7,4.6c9.5,0.8,19.7,0.8,28.9-1.9c-5-2.8-10-5.7-14.9-8.5c1.4,6,1.3,12.3,1.3,18.5
				c0,6.9,0.6,13.6,1.7,20.4c-0.3-2.3,0.1,1.5,0.2,1.6c0.1,1.1,0.1,2.1,0.1,3.2c0-2.7,0-0.4-0.2,0.5c0.2-0.7,2.3-3.2,0.5-1.6
				c2-2-1.4,0.2,0.1-0.3c-0.8,0.3-1.7,0.7-2.5,1c-2.5,1-5,2-7.6,3c-2.4,0.9-4.8,1.6-7.3,2.3c-0.2,0-4.2,0.8-1.5,0.4
				c-1.1,0.1-2.1,0.1-3.2,0.1c0.4,0.1,0.9,0.1,1.3,0.2c-2-0.7-1.2-0.1,2.3,1.6c0.3,0.4,0.5,0.8,0.8,1.2c-0.6-1.1-0.6-1,0,0.4
				c-0.4-1-0.6-2.1-0.8-3.1c0.5,2.5-0.1-2.2-0.2-2.7c-0.2-4.6,0.1-9.1,0-13.7c-0.1-7.3-2.1-14.3-1.7-21.6c-8,1.1-15.9,2.2-23.9,3.2
				c2.4,7.4,4.2,15,5.4,22.6c-0.4-2.6,0.1,1.2,0.1,1.4c0.1,1.1,0.2,2.3,0.2,3.4c0.1,2.2,0,4.4-0.1,6.6c0.2-2.9-0.1,0.2-0.2,0.7
				c-0.2,0.9-0.5,1.8-0.8,2.7c1-2.8,0.1-0.5-0.3,0.1c1.1-1.4,1.2-1.6,0.3-0.6c1.4-1,1.6-1.2,0.5-0.5c5.9,4.6,11.9,9.1,17.8,13.7
				c5-17.8,14.4-34.1,17.8-52.4c1.2-6.5-1.7-13.1-8.5-14.9c-6-1.6-13.7,2-14.9,8.5c-3.4,18.3-12.8,34.6-17.8,52.4
				c-2.9,10.2,8.7,19.2,17.8,13.7c20.7-12.4,12.2-45.5,6.1-63.9c-4.3-13.2-23.1-10.6-23.9,3.2c-0.4,7.9,1.7,15.6,1.7,23.5
				c0,7.1-0.1,13.9,1,21c1.3,8.1,6.4,13.6,13.7,16.6c6.6,2.8,15.6,0.2,22.1-1.9c6-2,12-4.4,17.8-7c7.9-3.5,11.5-11.7,12.1-19.8
				c0.5-7.5-1.8-14.6-1.9-21.8c-0.2-9.5,0.1-19-2.2-28.4c-1.5-6.3-8.8-10.3-14.9-8.5c-1.3,0.4-2.6,0.7-3.9,0.9
				c-1.4,0.2-1.4,0.2-0.1,0c-1.2,0.1-2.4,0.2-3.6,0.3c-4.5,0.3-9,0.1-13.4-0.2c-5-0.3-7.5-0.6-11.4-1.3c-3.5-0.6-6.9-1.4-10.3-2.5
				c-6.3-2.1-13.3,2.4-14.9,8.5C1102.5,1100.5,1106.5,1106.7,1112.8,1108.8L1112.8,1108.8z"/>
		</g>
	</g>
	<g>
		<g>
			<path d="M276.2,1089.3c1.1,23.1-1.1,46.2-1.2,69.3c0,15.7,24.3,15.7,24.3,0c0.1-23.1,2.3-46.2,1.2-69.3
				c-0.3-6.6-5.3-12.2-12.1-12.2C282,1077.2,275.9,1082.7,276.2,1089.3L276.2,1089.3z"/>
		</g>
	</g>
	<g>
		<g>
			<path d="M280.3,1150c-2.9,4.6-4.4,9.9-6.1,15.1c-2.1,6.3,2.3,13.3,8.5,14.9c6.6,1.8,12.9-2.2,14.9-8.5c0.6-1.9,1.2-3.8,1.8-5.7
				c0.2-0.5,0.4-1,0.5-1.5c-0.7,1.7-0.8,1.9-0.3,0.7c0.4-1,1-1.9,1.5-2.7c3.6-5.6,1.2-13.4-4.4-16.6
				C291.1,1142.2,283.9,1144.5,280.3,1150L280.3,1150z"/>
		</g>
	</g>
	<g>
		<g>
			<path d="M277.9,1129.9c-4.2,1-8.2,2.6-12.3,4c-4,1.4-5.2,1.8-8.7-0.3c-13.4-8.2-25.6,12.9-12.3,21c6.7,4.1,13.9,5.5,21.6,4.2
				c6.3-1,12-3.9,18.1-5.4C299.5,1149.6,293.1,1126.1,277.9,1129.9L277.9,1129.9z"/>
		</g>
	</g>
</g>
</svg>
