<?xml version="1.0" encoding="utf-8"?>
<!-- Generator: Adobe Illustrator 18.0.0, SVG Export Plug-In . SVG Version: 6.00 Build 0)  -->
<!DOCTYPE svg PUBLIC "-//W3C//DTD SVG 1.1//EN" "http://www.w3.org/Graphics/SVG/1.1/DTD/svg11.dtd">
<svg version="1.1" id="Слой_1" xmlns="http://www.w3.org/2000/svg" xmlns:xlink="http://www.w3.org/1999/xlink" x="0px" y="0px"
	 viewBox="0 0 1417.3 1417.3" enable-background="new 0 0 1417.3 1417.3" xml:space="preserve">
<g>
	<g>
		<path d="M948.6,882.8c-32.9,37.2-73.9,67.3-119.6,86.4c-48.6,20.3-101,28.4-153.4,24.5c-84.7-6.2-164.4-47.2-220.7-110.6
			c-4.4-5-12.7-4.5-17.2,0c-4.9,4.9-4.4,12.2,0,17.2c70.7,79.6,175.4,123.5,281.7,118.2c94.1-4.6,183.9-48.1,246.3-118.6
			c4.4-5,4.9-12.3,0-17.2C961.3,878.4,953,877.9,948.6,882.8L948.6,882.8z"/>
	</g>
</g>
<g>
	<g>
		<path d="M454.9,449.6c33.1-37.3,74.3-67.4,120.3-86.4c48.8-20.2,101.3-28.1,153.9-24c84.3,6.5,163.6,47.6,219.5,110.9
			c4.4,5,12.7,4.5,17.2,0c4.9-4.9,4.4-12.2,0-17.2c-70.3-79.5-174.5-123.4-280.5-118.7c-94.5,4.2-184.8,47.6-247.5,118.3
			c-4.4,4.9-4.9,12.3,0,17.2C442.2,454.1,450.5,454.6,454.9,449.6L454.9,449.6z"/>
	</g>
</g>
<g>
	<g>
		<path d="M689.4,331.6c0,23,0,46.1,0,69.1c0,55,0,109.9,0,164.9c0,65.7,0,131.4,0,197.2c0,55.3,0,110.6,0,165.9c0,23.7,0,47.3,0,71
			c0,0,0,0,0,0c0,15.7,24.3,15.7,24.3,0c0-23,0-46.1,0-69.1c0-55,0-109.9,0-164.9c0-65.7,0-131.4,0-197.2c0-55.3,0-110.6,0-165.9
			c0-23.7,0-47.3,0-71c0,0,0,0,0,0C713.7,315.9,689.4,315.9,689.4,331.6L689.4,331.6z"/>
	</g>
</g>
<g>
	<g>
		<path d="M531.6,674.9c38.6,0,77.1,0,115.7,0c61.2,0,122.5,0,183.7,0c13.7,0,27.5,0,41.2,0c15.7,0,15.7-24.3,0-24.3
			c-38.6,0-77.1,0-115.7,0c-61.2,0-122.5,0-183.7,0c-13.7,0-27.5,0-41.2,0C515.9,650.6,515.9,674.9,531.6,674.9L531.6,674.9z"/>
	</g>
</g>
<g>
	<g>
		<path d="M437.7,449.6c70.9,80.6,97.8,193,71.8,297.1c-12.6,50.4-37.5,97.5-71.8,136.5c-4.4,5-4.9,12.3,0,17.2
			c4.5,4.5,12.8,5,17.2,0c35.7-40.6,62.1-88.8,76.4-141c14.9-54.3,16.1-112,4.6-167.1c-12.4-59.3-41.1-114.5-81-159.9
			c-4.4-5-12.7-4.5-17.2,0C432.8,437.3,433.4,444.6,437.7,449.6L437.7,449.6z"/>
	</g>
</g>
<g>
	<g>
		<path d="M965.8,882.8c-71.1-81.1-97.7-194.2-71-298.6c12.7-49.5,37.3-95.8,71-134.2c4.4-5,4.9-12.3,0-17.2c-4.5-4.5-12.8-5-17.2,0
			c-35.8,40.9-62.2,89.3-76.4,141.8c-14.8,54.6-15.7,112.6-3.8,167.8c12.6,58.4,41,112.8,80.3,157.6c4.4,5,12.7,4.5,17.2,0
			C970.7,895.1,970.1,887.8,965.8,882.8L965.8,882.8z"/>
	</g>
</g>
<g>
	<g>
		<path d="M240,1209.2c0-132.1,0-264.1,0-396.2c0-54.7,0-109.4,0-164.2c0-15.7-24.3-15.7-24.3,0c0,132.1,0,264.1,0,396.2
			c0,54.7,0,109.4,0,164.2C215.7,1224.9,240,1224.9,240,1209.2L240,1209.2z"/>
	</g>
</g>
<g>
	<g>
		<path d="M240,644.3c0.2-43.2,15.8-85.6,43.9-118c28.7-33.1,67.1-53.9,110.6-60.6c1.5-0.2,1.2-0.2,3.6-0.5c2.3-0.3,4.6-0.5,6.9-0.7
			c4.6-0.4,9.3-0.5,14-0.6c12.2-0.1,24.4,1,36.4,3.4c6.5,1.3,13.1-1.7,14.9-8.5c1.7-6-2-13.7-8.5-14.9
			c-50.3-9.9-102.5-1.5-146.6,24.8c-39.5,23.6-69.5,60.3-86.2,103c-9,23-13.2,48-13.3,72.6C215.6,660,239.9,660,240,644.3L240,644.3
			z"/>
	</g>
</g>
<g>
	<g>
		<path d="M227.8,1221.4c24.8,0,49.6,0,74.5,0c15.7,0,15.7-24.3,0-24.3c-24.8,0-49.6,0-74.5,0
			C212.1,1197.1,212.1,1221.4,227.8,1221.4L227.8,1221.4z"/>
	</g>
</g>
<g>
	<g>
		<path d="M314.4,1209.2c0-92.6,0-185.2,0-277.8c0-15.7-24.3-15.7-24.3,0c0,92.6,0,185.2,0,277.8
			C290.1,1224.9,314.4,1224.9,314.4,1209.2L314.4,1209.2z"/>
	</g>
</g>
<g>
	<g>
		<path d="M331.7,892.9c17.9,13.7,38.2,23.5,61.1,24.1c23.4,0.6,46.1-9.1,66.7-19.3c5.9-2.9,7.5-11.2,4.4-16.6
			c-3.5-6-10.7-7.3-16.6-4.4c-9.5,4.7-19.2,8.9-29.3,12c-9.3,2.9-15.9,4-25.1,3.9c-8.2-0.1-15.1-1.8-23.7-5.2
			c-7.8-3.1-17.6-9.8-25.1-15.6c-5.3-4-13.6-0.8-16.6,4.4C323.7,882.6,326.5,888.9,331.7,892.9L331.7,892.9z"/>
	</g>
</g>
<g>
	<g>
		<path d="M314.4,930.7c0.3-9,1-17,2.6-25c0.7-3.4,1.6-6.8,2.8-10.2c0.2-0.7,0.5-1.3,0.7-1.9c-0.6,1.4-0.6,1.4,0,0.2
			c0.6-1.4,1.4-2.6,2.2-3.9c1.2-1.8-1.7,1.8,0.6-0.6c2.3-2.4-1.8,0.9,1-0.7c1.8-1-2.9,0.8,0.3,0c1.3-0.2,0.9-0.2-1.2,0.2
			c0.7-0.1,1.4,0,2.2,0.1c-3.8-0.3-0.4,0.1,0.6,0.4c1.2,0.5,1.1,0.4-0.4-0.2c0.9,0.4,1.7,0.9,2.6,1.4c3.7,2.1,3.7,2.3,7,5.4
			c11.5,10.6,28.7-6.5,17.2-17.2c-13-12-32.3-21.1-46.8-6c-13.8,14.4-14.8,39.4-15.5,58.1C289.5,946.4,313.8,946.3,314.4,930.7
			L314.4,930.7z"/>
	</g>
</g>
<g>
	<g>
		<path d="M235.6,1144.5c18.4,0,36.8,0,55.2,0c15.7,0,15.7-24.3,0-24.3c-18.4,0-36.8,0-55.2,0
			C219.9,1120.2,219.9,1144.5,235.6,1144.5L235.6,1144.5z"/>
	</g>
</g>
<g>
	<g>
		<path d="M234.7,1148.2c0.3,7.1,0.9,14.2,2,21.2c0.8,5.1,2.7,11.4,6.9,14.7c15.4,12.4,27.6-6.5,34-18.6c-7.5-2-15.1-4.1-22.6-6.1
			c1,7.5,1.3,15,2.3,22.5c0.9,6.6,4.9,12.2,12.1,12.2c6,0,13-5.6,12.1-12.2c-1-7.5-1.3-15-2.3-22.5c-0.7-5.5-3.2-10.1-8.9-11.7
			c-5.1-1.4-11.2,0.8-13.7,5.6c-1.3,2.5-2.7,5.1-4.2,7.5c-0.5,0.8-1,1.6-1.5,2.3c-2.2,3.3,1.3-1.4-0.8,1.1c-0.4,0.4-0.8,0.9-1.2,1.3
			c-1.6,1.6,2.4-1.2,2.7-1.4c3-1.2,6.7,0.7,8.9,2.5c-1.6-1.3,1.7,2.7,0.6,0.7c1.9,3.3,0-0.3-0.3-1.5c-0.2-0.7-1-5.5-0.6-2.9
			c-0.7-4.9-0.9-9.8-1.1-14.7c-0.3-6.6-5.3-12.2-12.1-12.2C240.5,1136,234.4,1141.5,234.7,1148.2L234.7,1148.2z"/>
	</g>
</g>
<g>
	<g>
		<path d="M232.2,1115.3c19.1,0,38.3,0,57.4,0c15.7,0,15.7-24.3,0-24.3c-19.1,0-38.3,0-57.4,0C216.5,1091,216.5,1115.3,232.2,1115.3
			L232.2,1115.3z"/>
	</g>
</g>
<g>
	<g>
		<path d="M247,1110c-1.2,5.2-1.4,10.9-2.3,14.6c-3,13.5,14.8,21.2,22.2,9.4c4.1-6.6,6.2-15.4,9-21.4c2.8-6,1.7-13.1-4.4-16.6
			c-5.3-3.1-13.8-1.6-16.6,4.4c-3.5,7.3-5,15-9,21.4c7.4,3.1,14.8,6.2,22.2,9.4c1.2-5.2,1.4-10.9,2.3-14.6
			c1.4-6.5-1.9-13.1-8.5-14.9C255.8,1099.9,248.4,1103.6,247,1110L247,1110z"/>
	</g>
</g>
<g>
	<g>
		<path d="M1192.2,1209.2c0-132.1,0-264.1,0-396.2c0-54.7,0-109.4,0-164.2c0-15.7-24.3-15.7-24.3,0c0,132.1,0,264.1,0,396.2
			c0,54.7,0,109.4,0,164.2C1167.9,1224.9,1192.2,1224.9,1192.2,1209.2L1192.2,1209.2z"/>
	</g>
</g>
<g>
	<g>
		<path d="M1192.2,644.3c-0.2-47.2-16.6-92.3-46-129.1c-28.2-35.3-69.1-60.3-113-70.4c-28.6-6.6-58.3-6.6-87.1-0.9
			c-6.5,1.3-10.1,8.9-8.5,14.9c1.9,6.7,8.5,9.8,14.9,8.5c14.3-2.8,28.8-3.8,43.4-3.2c11.9,0.5,20.6,1.7,32.1,4.4
			c21.9,5,40.2,13,59.1,25.4c35,22.9,61.5,59.2,73.5,99.4c5.2,17.5,7.2,32.8,7.3,51C1167.9,660,1192.2,660,1192.2,644.3
			L1192.2,644.3z"/>
	</g>
</g>
<g>
	<g>
		<path d="M1181.1,1197.1c-24.8,0-49.6,0-74.5,0c-15.7,0-15.7,24.3,0,24.3c24.8,0,49.6,0,74.5,0
			C1196.8,1221.4,1196.8,1197.1,1181.1,1197.1L1181.1,1197.1z"/>
	</g>
</g>
<g>
	<g>
		<path d="M1117.7,1209.2c0-95,0-190,0-284.9c0-15.7-24.3-15.7-24.3,0c0,95,0,190,0,284.9
			C1093.4,1224.9,1117.7,1224.9,1117.7,1209.2L1117.7,1209.2z"/>
	</g>
</g>
<g>
	<g>
		<path d="M1063.9,872c-7.6,5.8-17.3,12.3-25.1,15.6c-4.1,1.7-8.4,3-12.8,4c-3.9,0.9-5.9,1.1-10.9,1.2c-9.2,0.2-15.8-1.2-25.1-3.9
			c-10.2-3-19.8-7.3-29.3-12c-5.9-2.9-13.1-1.7-16.6,4.4c-3.2,5.4-1.6,13.7,4.4,16.6c20.8,10.2,43.1,19.4,66.7,19.3
			c22.7-0.2,43.5-10.6,61.1-24.1c5.2-4,8-10.4,4.4-16.6C1077.5,871.1,1069.1,867.9,1063.9,872L1063.9,872z"/>
	</g>
</g>
<g>
	<g>
		<path d="M1117.7,924.3c-0.8-17.5-2.5-38.8-15.3-52.1c-14.2-14.7-33.8-5.7-47,5.1c-5.1,4.2-4.3,12.9,0,17.2c5,5,12.1,4.2,17.2,0
			c1.5-1.2,4.2-3,6.8-4.5c0.6-0.3,1.3-0.6,1.9-0.9c-1.4,0.6-1.4,0.6-0.2,0.2c0.8-0.3,4.7-1,1-0.5c1-0.1,2.1-0.1,3.1,0
			c-4.7-0.4,2.2,1.3-1.9-0.5c0.8,0.3,3.5,2.3,0.7,0.1c0.8,0.7,1.6,1.4,2.3,2.2c-2.2-2.5,0.2,0.4,0.6,1.1c0.7,1.1,1.2,2.3,1.8,3.4
			c-1.2-2.6,0.5,1.6,0.7,2.1c0.5,1.5,0.9,3,1.3,4.5c2,7.8,2.4,14,2.8,22.5c0.3,6.6,5.3,12.2,12.2,12.2
			C1112,936.5,1118,930.9,1117.7,924.3L1117.7,924.3z"/>
	</g>
</g>
<g>
	<g>
		<path d="M1168.1,1121.2c-18.4,0-36.8,0-55.2,0c-15.7,0-15.7,24.3,0,24.3c18.4,0,36.8,0,55.2,0
			C1183.7,1145.5,1183.7,1121.2,1168.1,1121.2L1168.1,1121.2z"/>
	</g>
</g>
<g>
	<g>
		<path d="M1144.7,1149.1c-0.2,4.5-0.5,9.1-1,13.6c-0.2,1.5-0.2,1.6,0,0.2c-0.1,1-0.3,2-0.5,3c-0.2,1.2-2.2,6-0.5,2.4
			c-0.7,1.1-0.3,0.8,0.9-1c-0.6,0.8,4.4-2.3,6.2-2.4c1.5,0,2.9,0.3,4.2,1c2.7,1.4,1.2,1,0.2,0c-0.4-0.5-0.9-0.9-1.3-1.4
			c1.7,2-0.9-1.4-0.9-1.5c-1.8-2.8-3.4-5.8-5-8.7c-2.5-4.8-8.6-7-13.7-5.6c-5.7,1.6-8.2,6.3-8.9,11.7c-1,7.5-1.3,15-2.3,22.5
			c-0.9,6.6,6.2,12.2,12.1,12.2c7.3,0,11.3-5.6,12.2-12.2c1-7.5,1.3-15,2.3-22.5c-7.5,2-15.1,4.1-22.6,6.1c6.4,12.1,18.6,31,34,18.6
			c4-3.2,5.7-8.9,6.7-13.7c1.5-7.3,1.9-14.8,2.2-22.2c0.3-6.6-5.8-12.2-12.2-12.2C1150,1136.9,1145,1142.5,1144.7,1149.1
			L1144.7,1149.1z"/>
	</g>
</g>
<g>
	<g>
		<path d="M1171.5,1091.9c-19.1,0-38.3,0-57.4,0c-15.7,0-15.7,24.3,0,24.3c19.1,0,38.3,0,57.4,0
			C1187.1,1116.2,1187.1,1091.9,1171.5,1091.9L1171.5,1091.9z"/>
	</g>
</g>
<g>
	<g>
		<path d="M1151.9,1196.2c0.8,3.8,1.1,9.4,2.3,14.6c7.4-3.1,14.8-6.2,22.2-9.4c-4.1-6.4-5.5-14.1-9-21.4c-2.8-6-11.3-7.5-16.6-4.4
			c-6.1,3.6-7.2,10.6-4.4,16.6c2.8,6,4.9,14.8,9,21.4c7.5,11.8,25.2,4.1,22.2-9.4c-0.8-3.8-1.1-9.4-2.3-14.6
			c-1.4-6.5-8.8-10.2-14.9-8.5C1153.7,1183.1,1150.4,1189.8,1151.9,1196.2L1151.9,1196.2z"/>
	</g>
</g>
<g>
	<g>
		<path d="M235.4,1131.2c12.9-5.4,28.3,3.3,42.7,2.1c-3.9-3-7.8-5.9-11.7-8.9c1.5,8.7-0.5,18.7-0.7,27.7c-0.2,8,1.5,15.8,1,23.8
			c-0.2,1.5-0.2,1.8,0,0.7c-0.1,0.9-0.3,1.7-0.5,2.6c-0.1,0.6-1.7,4.6-0.8,2.9c-0.8,1.2-0.8,1.4,0,0.4c-1.2,1.2-1,1.1,0.4-0.2
			c-1.2,0.6-0.9,0.5,0.6-0.2c-0.7,0.2-3.4,0.5-0.4,0.2c-5.7,0.6-10.1-1.1-15.3-4c-0.4-0.2-4.2-2.8-2.1-1.2c-1.1-0.8-2-1.8-2.9-2.7
			c2.3,2.5-1-2.8,0.4,1c-0.3-1-0.3-1-0.1,0.1c-0.2-1.4-0.2-2.7-0.3-4.1c-0.3-4.5-0.1-9,0.3-13.4c-0.1,1.5,0.7-2.7,0.8-3.1
			c0.5-1.5,0.5-1.6,0-0.2c-0.6,1.2-2.4,2.4-3.7,2.8c-1.9,0.2-2.1,0.3-0.7,0.3c-1.6-0.3-1.6-0.3,0,0c1.8,0.3,3.5,0.7,5.3,0.9
			c-1.1-0.2,7.6,1,4.5,0.6c2,0.3,3.9,0.6,5.8,1.2c1.4,0.5,1.4,0.5,0-0.1c-1.4-1-2.3-2.4-2.7-4.1c-0.2-0.9-0.2-1.7,0-2.5
			c-0.2,1.2-0.7,2.4-1.1,3.5c0.4-0.9,0.3-0.6-0.3,0.7c-0.6,1.4-1.2,2.7-1.7,4.1c-0.7,1.7-1.4,3.3-1.7,5.1
			c-1.2,6.5,1.7,13.1,8.5,14.9c6,1.6,13.7-2,14.9-8.5c0.8-4.5,3.4-7.8,4.9-13.4c1.7-6.4,0.2-14.1-5.2-18.4c-4.8-3.8-10.1-5.3-16-6.1
			c-1.8-0.2-3.7-0.5-5.5-0.7c2.8,0.3-0.2,0-0.7-0.1c-3-0.5-5.9-1.1-8.9-1.4c-15.1-1.5-19.8,14.2-20.9,26c-1.2,11.6-0.7,24,7.6,32.9
			c13.5,14.5,45.6,22.4,57.1,2c5.6-9.9,5.3-22.4,4-33.4c-1.6-14.4,1.7-28.6-0.7-43c-0.8-4.9-6.8-9.3-11.7-8.9
			c-16.3,1.4-32.7-8.1-49.1-1.2c-6.1,2.6-10.4,7.9-8.5,14.9C222.1,1128.5,229.3,1133.8,235.4,1131.2L235.4,1131.2z"/>
	</g>
</g>
<g>
	<g>
		<path d="M1113.5,1132.1c8.5,2.9,17.8,3.8,26.7,4.6c9.5,0.8,19.7,0.8,28.9-1.9c-5-2.8-10-5.7-14.9-8.5c1.4,6,1.3,12.3,1.3,18.5
			c0,6.9,0.6,13.6,1.7,20.4c-0.3-2.3,0.1,1.5,0.2,1.6c0.1,1.1,0.1,2.1,0.1,3.2c0-2.7,0-0.4-0.2,0.5c0.2-0.7,2.3-3.2,0.5-1.6
			c2-2-1.4,0.2,0.1-0.3c-0.8,0.3-1.7,0.7-2.5,1c-2.5,1-5,2-7.6,3c-2.4,0.9-4.8,1.6-7.3,2.3c-0.2,0-4.2,0.8-1.5,0.4
			c-1.1,0.1-2.1,0.1-3.2,0.1c0.4,0.1,0.9,0.1,1.3,0.2c-2-0.7-1.2-0.1,2.3,1.6c0.3,0.4,0.5,0.8,0.8,1.2c-0.6-1.1-0.6-1,0,0.4
			c-0.4-1-0.6-2.1-0.8-3.1c0.5,2.5-0.1-2.2-0.2-2.7c-0.2-4.6,0.1-9.1,0-13.7c-0.1-7.3-2.1-14.3-1.7-21.6c-8,1.1-15.9,2.2-23.9,3.2
			c2.4,7.4,4.2,15,5.4,22.6c-0.4-2.6,0.1,1.2,0.1,1.4c0.1,1.1,0.2,2.3,0.2,3.4c0.1,2.2,0,4.4-0.1,6.6c0.2-2.9-0.1,0.2-0.2,0.7
			c-0.2,0.9-0.5,1.8-0.8,2.7c1-2.8,0.1-0.5-0.3,0.1c1.1-1.4,1.2-1.6,0.3-0.6c1.4-1,1.6-1.2,0.5-0.5c5.9,4.6,11.9,9.1,17.8,13.7
			c5-17.8,14.4-34.1,17.8-52.4c1.2-6.5-1.7-13.1-8.5-14.9c-6-1.6-13.7,2-14.9,8.5c-3.4,18.3-12.8,34.6-17.8,52.4
			c-2.9,10.2,8.7,19.2,17.8,13.7c20.7-12.4,12.2-45.5,6.1-63.9c-4.3-13.2-23.1-10.6-23.9,3.2c-0.4,7.9,1.7,15.6,1.7,23.5
			c0,7.1-0.1,13.9,1,21c1.3,8.1,6.4,13.6,13.7,16.6c6.6,2.8,15.6,0.2,22.1-1.9c6-2,12-4.4,17.8-7c7.9-3.5,11.5-11.7,12.1-19.8
			c0.5-7.5-1.8-14.6-1.9-21.8c-0.2-9.5,0.1-19-2.2-28.4c-1.5-6.3-8.8-10.3-14.9-8.5c-1.3,0.4-2.6,0.7-3.9,0.9
			c-1.4,0.2-1.4,0.2-0.1,0c-1.2,0.1-2.4,0.2-3.6,0.3c-4.5,0.3-9,0.1-13.4-0.2c-5-0.3-7.5-0.6-11.4-1.3c-3.5-0.6-6.9-1.4-10.3-2.5
			c-6.3-2.1-13.3,2.4-14.9,8.5C1103.2,1123.8,1107.2,1130,1113.5,1132.1L1113.5,1132.1z"/>
	</g>
</g>
<g>
	<g>
		<path d="M276.9,1112.6c1.1,23.1-1.1,46.2-1.2,69.3c0,15.7,24.3,15.7,24.3,0c0.1-23.1,2.3-46.2,1.2-69.3
			c-0.3-6.6-5.3-12.2-12.1-12.2C282.7,1100.5,276.6,1106,276.9,1112.6L276.9,1112.6z"/>
	</g>
</g>
<g>
	<g>
		<path d="M281,1173.3c-2.9,4.6-4.4,9.9-6.1,15.1c-2.1,6.3,2.3,13.3,8.5,14.9c6.6,1.8,12.9-2.2,14.9-8.5c0.6-1.9,1.2-3.8,1.8-5.7
			c0.2-0.5,0.4-1,0.5-1.5c-0.7,1.7-0.8,1.9-0.3,0.7c0.4-1,1-1.9,1.5-2.7c3.6-5.6,1.2-13.4-4.4-16.6
			C291.7,1165.5,284.5,1167.7,281,1173.3L281,1173.3z"/>
	</g>
</g>
<g>
	<g>
		<path d="M278.5,1153.2c-4.2,1-8.2,2.6-12.3,4c-4,1.4-5.2,1.8-8.7-0.3c-13.4-8.2-25.6,12.9-12.3,21c6.7,4.1,13.9,5.5,21.6,4.2
			c6.3-1,12-3.9,18.1-5.4C300.2,1172.8,293.8,1149.4,278.5,1153.2L278.5,1153.2z"/>
	</g>
</g>
</svg>
