<?xml version="1.0" encoding="utf-8"?>
<!-- Generator: Adobe Illustrator 18.0.0, SVG Export Plug-In . SVG Version: 6.00 Build 0)  -->
<!DOCTYPE svg PUBLIC "-//W3C//DTD SVG 1.1//EN" "http://www.w3.org/Graphics/SVG/1.1/DTD/svg11.dtd">
<svg version="1.1" xmlns="http://www.w3.org/2000/svg" xmlns:xlink="http://www.w3.org/1999/xlink" x="0px" y="0px"
	 viewBox="0 0 1417.3 1417.3" enable-background="new 0 0 1417.3 1417.3" xml:space="preserve">
<g id="Слой_2">
	<g>
		<linearGradient id="SVGID_1_" gradientUnits="userSpaceOnUse" x1="710.4213" y1="319.0347" x2="710.4213" y2="1116.2275">
			<stop  offset="0" style="stop-color:#9C85BB"/>
			<stop  offset="0.3442" style="stop-color:#9C75B0"/>
			<stop  offset="0.5029" style="stop-color:#9D6EAB"/>
			<stop  offset="0.5342" style="stop-color:#9D6CA8"/>
			<stop  offset="0.8429" style="stop-color:#9E5D90"/>
			<stop  offset="1" style="stop-color:#9E5788"/>
		</linearGradient>
		<path fill="url(#SVGID_1_)" d="M863.7,676.6c6.9-27.6,17.4-53,31.1-77.9c12.7-23.2,26.4-45.8,38-69.6c1.2-2.5,2.7-4.9,4.4-7.2
			C869.6,454.3,801.9,386.7,734.3,319c-20.3,2.1-40.6,4-60.9,5.9c-14.4,22.3-34.8,40.7-55.3,57.1c-12,9.6-24.5,18.6-36.6,28
			c-4,9-8.8,17.4-14.1,25.8c-6.5,10.4-14.6,18.9-23.4,27.5c-10.6,10.4-23,18.4-36.1,25.1c-6.3,8.1-12.5,16.3-18.7,24.3
			c-1.8,2.3-3.6,4.7-5.4,7c2.4,2.7,4.2,5.8,5,9.3c1.2,5.4,3.1,10.6,5.4,15.7c6.6,12.1,14.6,23.4,21.8,35.2
			c9.7,15.9,16.8,32.3,22.5,50c10.1,31.2,17.5,62.9,19.1,95.8c1.3,27-1.7,53.8-8.4,80c-7.3,28.5-17.4,55.7-31.8,81.4
			c-8.1,14.4-16.8,28.4-26.3,41.9c14.3,13.3,28.4,27,42,41.1c45.2,46.7,86.6,96.9,129.1,146.1c29.7-0.3,59.5-0.6,89.2-0.6
			c13-17.9,26.3-35.6,40.4-52.7c19-23.2,39.2-45.7,61.6-65.6c18.5-16.4,38.1-31.4,56.9-47.4c1.6-3.6,3.2-7.2,4.6-10.9
			c3.2-8.4,9.7-15,17.6-19.9c-18.2-20.7-36.2-41.6-49.9-65.6c-7.7-13.5-15.6-28.2-19.5-43.4c-4.1-16.1-5.1-33.1-5.2-49.7
			c0-14.7,0.3-29.4,0.7-44C858.8,703.1,860.5,689.6,863.7,676.6z"/>
	</g>
</g>
<g id="Слой_1">
	<g>
		<g>
			<path d="M693.3,305.3c0,18.8,0,37.6,0,56.4c0,47.6,0,95.1,0,142.7c0,63.1,0,126.2,0,189.2c0,65.4,0,130.7,0,196.1
				c0,54.4,0,108.8,0,163.2c0,30.2,0,60.4,0,90.6c0,2.4,0,4.8,0,7.2c0,19.3,30,19.3,30,0c0-18.8,0-37.6,0-56.4
				c0-47.6,0-95.1,0-142.7c0-63.1,0-126.2,0-189.2c0-65.4,0-130.7,0-196.1c0-54.4,0-108.8,0-163.2c0-30.2,0-60.4,0-90.6
				c0-2.4,0-4.8,0-7.2C723.3,286,693.3,286,693.3,305.3L693.3,305.3z"/>
		</g>
	</g>
	<g>
		<g>
			<path d="M374.4,735.8c23.1,0,46.1,0,69.2,0c55,0,110,0,165.1,0c65.7,0,131.5,0,197.2,0c55.2,0,110.5,0,165.7,0
				c23.5,0,47,0,70.5,0c0,0,0,0,0,0c19.3,0,19.3-30,0-30c-23.1,0-46.1,0-69.2,0c-55,0-110,0-165.1,0c-65.7,0-131.5,0-197.2,0
				c-55.2,0-110.5,0-165.7,0c-23.5,0-47,0-70.5,0c0,0,0,0,0,0C355,705.8,355,735.8,374.4,735.8L374.4,735.8z"/>
		</g>
	</g>
	<g>
		<g>
			<path d="M471,534.4c9.1,10.3,14.9,17.9,22.6,29.3c7.3,10.9,13.9,22.4,19.7,34.2c6,12.1,9.8,21.4,14.2,34.8
				c4.3,12.8,7.6,25.9,10.1,39.2c2.6,13.4,3.7,24.2,4.4,38.7c0.7,14,0.2,28-1,41.9c-2.2,24.1-8.9,51.8-18.3,76.4
				c-2.9,7.5-5.4,13-9.4,21.2c-3.9,8-8.3,15.9-13,23.6c-9.3,15.4-18,27.1-29.4,39.9c-5.4,6.1-6.1,15.2,0,21.2
				c5.5,5.5,15.8,6.1,21.2,0c36.1-41.1,61.7-90.7,73.1-144.2c11.8-55.3,8.6-113.7-9.4-167.4c-13.6-40.6-35.5-77.8-63.8-110
				c-5.4-6.1-15.7-5.5-21.2,0C464.9,519.3,465.6,528.3,471,534.4L471,534.4z"/>
		</g>
	</g>
	<g>
		<g>
			<path d="M945.9,913.2c-9-10.2-14.9-18-22.7-29.5c-7.4-11-13.9-22.5-19.8-34.4c-6-12.1-9.7-21.6-14.2-35
				c-4.3-12.9-7.5-26.1-10-39.4c-9.6-51.8-3.8-107,16-157.8c11-28.2,30.4-59.3,50.6-82.3c5.4-6.1,6.1-15.1,0-21.2
				c-5.5-5.5-15.8-6.2-21.2,0c-36.2,41.3-61.8,91.3-73.1,145.2c-11.6,55.6-8.1,114.3,10.3,168.1c13.6,39.7,35.1,76.1,62.8,107.6
				c5.4,6.2,15.7,5.5,21.2,0C952,928.4,951.3,919.4,945.9,913.2L945.9,913.2z"/>
		</g>
	</g>
	<g>
		<g>
			<path d="M492.2,534.4c75.6-75.6,151.1-151.1,226.7-226.7c5.8-5.8,5.8-15.4,0-21.2c-5.8-5.8-15.4-5.8-21.2,0
				C622.1,362.1,546.6,437.6,471,513.2c-5.8,5.8-5.8,15.4,0,21.2C476.8,540.2,486.4,540.2,492.2,534.4L492.2,534.4z"/>
		</g>
	</g>
	<g>
		<g>
			<path d="M718.9,1161.8c75.7-75.7,151.3-151.3,227-227c5.8-5.8,5.8-15.4,0-21.2s-15.4-5.8-21.2,0c-75.7,75.7-151.3,151.3-227,227
				c-5.8,5.8-5.8,15.4,0,21.2C703.5,1167.6,713.1,1167.6,718.9,1161.8L718.9,1161.8z"/>
		</g>
	</g>
	<g>
		<g>
			<path d="M718.9,1140.3c-75.6-75.6-151.1-151.1-226.7-226.7c-5.8-5.8-15.4-5.8-21.2,0c-5.8,5.8-5.8,15.4,0,21.2
				c75.6,75.6,151.1,151.1,226.7,226.7c5.8,5.8,15.4,5.8,21.2,0C724.7,1155.7,724.7,1146,718.9,1140.3L718.9,1140.3z"/>
		</g>
	</g>
	<g>
		<g>
			<path d="M945.7,513.2c-75.6-75.6-151.1-151.1-226.7-226.7c-5.8-5.8-15.4-5.8-21.2,0c-5.8,5.8-5.8,15.4,0,21.2
				c75.6,75.6,151.1,151.1,226.7,226.7c5.8,5.8,15.4,5.8,21.2,0S951.5,519,945.7,513.2L945.7,513.2z"/>
		</g>
	</g>
	<g>
		<g>
			<path d="M410.2,668.2c-15.5,14-31,28-46.4,42c-6.1,5.5-5.6,15.7,0,21.2c6,6,15.2,5.5,21.2,0c15.5-14,31-28,46.4-42
				c6.1-5.5,5.6-15.7,0-21.2C425.4,662.2,416.3,662.7,410.2,668.2L410.2,668.2z"/>
		</g>
	</g>
	<g>
		<g>
			<path d="M1031.4,710.2c-15.5,14-31,28-46.4,42c-6.1,5.5-5.6,15.7,0,21.2c6,6,15.2,5.5,21.2,0c15.5-14,31-28,46.4-42
				c6.1-5.5,5.6-15.7,0-21.2C1046.6,704.2,1037.5,704.7,1031.4,710.2L1031.4,710.2z"/>
		</g>
	</g>
	<g>
		<g>
			<path d="M431.4,752.2c-15.5-14-31-28-46.4-42c-6.1-5.5-15.2-6-21.2,0c-5.6,5.6-6.1,15.7,0,21.2c15.5,14,31,28,46.4,42
				c6.1,5.5,15.2,6,21.2,0C437,767.8,437.5,757.6,431.4,752.2L431.4,752.2z"/>
		</g>
	</g>
	<g>
		<g>
			<path d="M1052.6,710.2c-15.5-14-31-28-46.4-42c-6.1-5.5-15.2-6-21.2,0c-5.6,5.6-6.1,15.7,0,21.2c15.5,14,31,28,46.4,42
				c6.1,5.5,15.2,6,21.2,0C1058.2,725.8,1058.7,715.6,1052.6,710.2L1052.6,710.2z"/>
		</g>
	</g>
</g>
</svg>
