<?xml version="1.0" encoding="utf-8"?>
<!-- Generator: Adobe Illustrator 18.0.0, SVG Export Plug-In . SVG Version: 6.00 Build 0)  -->
<!DOCTYPE svg PUBLIC "-//W3C//DTD SVG 1.1//EN" "http://www.w3.org/Graphics/SVG/1.1/DTD/svg11.dtd">
<svg version="1.1" id="Слой_1" xmlns="http://www.w3.org/2000/svg" xmlns:xlink="http://www.w3.org/1999/xlink" x="0px" y="0px"
	 viewBox="0 0 1417.3 1417.3" enable-background="new 0 0 1417.3 1417.3" xml:space="preserve">
<g>
	<g>
		<path d="M696.3,305.3c0,18.8,0,37.6,0,56.4c0,47.6,0,95.1,0,142.7c0,63.1,0,126.2,0,189.3c0,65.4,0,130.7,0,196.1
			c0,54.4,0,108.8,0,163.2c0,30.2,0,60.4,0,90.6c0,2.4,0,4.8,0,7.2c0,15.5,24,15.5,24,0c0-18.8,0-37.6,0-56.4c0-47.6,0-95.1,0-142.7
			c0-63.1,0-126.2,0-189.3c0-65.4,0-130.7,0-196.1c0-54.4,0-108.8,0-163.2c0-30.2,0-60.4,0-90.6c0-2.4,0-4.8,0-7.2
			C720.3,289.9,696.3,289.9,696.3,305.3L696.3,305.3z"/>
	</g>
</g>
<g>
	<g>
		<path d="M374.4,732.8c23.1,0,46.1,0,69.2,0c55,0,110,0,165.1,0c65.7,0,131.5,0,197.2,0c55.2,0,110.5,0,165.7,0c23.5,0,47,0,70.4,0
			c0,0,0,0,0,0c15.5,0,15.5-24,0-24c-23.1,0-46.1,0-69.2,0c-55,0-110,0-165.1,0c-65.7,0-131.5,0-197.2,0c-55.2,0-110.5,0-165.7,0
			c-23.5,0-47,0-70.4,0c0,0,0,0,0,0C358.9,708.8,358.9,732.8,374.4,732.8L374.4,732.8z"/>
	</g>
</g>
<g>
	<g>
		<path d="M473.1,532.3c34.6,39.3,57.7,87.4,67.4,138.7c10.1,53,4.3,108.4-15,158.7c-12,31.4-30.3,60.8-52.5,86
			c-4.3,4.9-4.8,12.1,0,17c4.4,4.4,12.6,4.9,17,0c35.8-40.7,61-89.9,72.3-142.9c11.7-54.8,8.4-112.7-9.4-165.8
			c-13.4-40.1-35.1-76.9-63-108.6c-4.3-4.9-12.6-4.4-17,0C468.3,520.2,468.8,527.4,473.1,532.3L473.1,532.3z"/>
	</g>
</g>
<g>
	<g>
		<path d="M943.8,915.3c-34.7-39.6-57.8-88-67.4-139.7c-9.9-53.3-3.7-109,16-159.3c11.9-30.5,29.8-59,51.4-83.6
			c4.3-4.9,4.9-12.1,0-17c-4.4-4.4-12.7-4.9-17,0c-35.9,41-61.2,90.5-72.3,143.8c-11.5,55.1-7.9,113.2,10.3,166.5
			c13.4,39.2,34.7,75.2,62,106.3c4.3,4.9,12.6,4.4,17,0C948.6,927.5,948.1,920.3,943.8,915.3L943.8,915.3z"/>
	</g>
</g>
<g>
	<g>
		<path d="M490.1,532.3c75.6-75.6,151.1-151.1,226.7-226.7c11-11-6-27.9-17-17c-75.6,75.6-151.1,151.1-226.7,226.7
			C462.2,526.3,479.1,543.3,490.1,532.3L490.1,532.3z"/>
	</g>
</g>
<g>
	<g>
		<path d="M716.8,1159.7c75.7-75.7,151.3-151.3,227-227c11-11-6-27.9-17-17c-75.7,75.7-151.3,151.3-227,227
			C688.9,1153.6,705.8,1170.6,716.8,1159.7L716.8,1159.7z"/>
	</g>
</g>
<g>
	<g>
		<path d="M716.8,1142.4c-75.6-75.6-151.1-151.1-226.7-226.7c-11-11-27.9,6-17,17c75.6,75.6,151.1,151.1,226.7,226.7
			C710.8,1170.3,727.7,1153.3,716.8,1142.4L716.8,1142.4z"/>
	</g>
</g>
<g>
	<g>
		<path d="M943.6,515.3c-75.6-75.6-151.1-151.1-226.7-226.7c-11-11-27.9,6-17,17c75.6,75.6,151.1,151.1,226.7,226.7
			C937.6,543.3,954.6,526.3,943.6,515.3L943.6,515.3z"/>
	</g>
</g>
<g>
	<g>
		<path d="M412.3,670.3c-15.5,14-31,28-46.4,42c-4.9,4.4-4.4,12.5,0,17c4.8,4.8,12.1,4.4,17,0c15.5-14,31-28,46.4-42
			c4.9-4.4,4.4-12.5,0-17C424.5,665.5,417.2,665.9,412.3,670.3L412.3,670.3z"/>
	</g>
</g>
<g>
	<g>
		<path d="M1033.5,712.3c-15.5,14-31,28-46.4,42c-4.9,4.4-4.4,12.5,0,17c4.8,4.8,12.1,4.4,17,0c15.5-14,31-28,46.4-42
			c4.9-4.4,4.4-12.5,0-17C1045.7,707.5,1038.4,707.9,1033.5,712.3L1033.5,712.3z"/>
	</g>
</g>
<g>
	<g>
		<path d="M429.3,754.3c-15.5-14-31-28-46.4-42c-4.8-4.4-12.2-4.8-17,0c-4.4,4.4-4.9,12.6,0,17c15.5,14,31,28,46.4,42
			c4.8,4.4,12.2,4.8,17,0C433.8,766.8,434.2,758.7,429.3,754.3L429.3,754.3z"/>
	</g>
</g>
<g>
	<g>
		<path d="M1050.5,712.3c-15.5-14-31-28-46.4-42c-4.8-4.4-12.2-4.8-17,0c-4.4,4.4-4.9,12.6,0,17c15.5,14,31,28,46.4,42
			c4.8,4.4,12.2,4.8,17,0C1054.9,724.8,1055.3,716.7,1050.5,712.3L1050.5,712.3z"/>
	</g>
</g>
</svg>
