<svg xmlns="http://www.w3.org/2000/svg" viewBox="208.5 8.8 704 668.3"><ellipse stroke="#FFF" stroke-width="1.05" stroke-miterlimit="10" cx="563.3" cy="338.4" rx="286.3" ry="291.2"/><linearGradient id="a" gradientUnits="userSpaceOnUse" x1="280.055" y1="422.495" x2="845.966" y2="260.223"><stop offset="0" stop-color="#eaff00"/><stop offset=".203" stop-color="#eaff00"/><stop offset=".73" stop-color="#a2fc59"/><stop offset="1" stop-color="#57f866"/></linearGradient><ellipse fill="none" stroke="url(#a)" stroke-width="15" stroke-miterlimit="10" cx="563" cy="341.4" rx="286.3" ry="293"/><path fill="#E0DCDC" d="M569 166.6l8.6 6.2-2.3 2.2-5.1-4.7zM562.8 188.6l-3.6 3 1-53.7 2.6 4.9zM584.4 171.1l-16.2-14.7v-3.3l20 15zM584.6 183.4l-28.5 22.2v-2.2l25.9-22.8z"/><path fill="#E0DCDC" d="M568.2 166l2.3 1.7.1 12-2.4 2.3z"/><path fill="#E0DCDC" d="M584.5 171l-16.3 12.9v-2l13.6-13.6z"/><path fill="#E0DCDC" d="M584.5 183.4l-8.8-8 1.7-2.7 10.7 8z"/><path fill="none" d="M312.6 325.1h506.7v29.8H312.6z"/><text transform="translate(312.568 335.055)"><tspan x="0" y="0" fill="#FFF" font-family="'ProximaNova-Light'" font-size="15" letter-spacing="3">Audience</tspan><tspan x="86.1" y="0" fill="#FFF" font-family="'ProximaNova-Light'" font-size="15" letter-spacing="14"> </tspan><tspan x="104.3" y="0" fill="#FFF" font-family="'ProximaNova-Light'" font-size="15" letter-spacing="3">Entertainment</tspan><tspan x="233" y="0" fill="#FFF" font-family="'ProximaNova-Light'" font-size="15" letter-spacing="14"> </tspan><tspan x="251.2" y="0" fill="#FFF" font-family="'ProximaNova-Light'" font-size="15" letter-spacing="2">Play</tspan><tspan x="290" y="0" fill="#FFF" font-family="'ProximaNova-Light'" font-size="15" letter-spacing="14"> </tspan><tspan x="308.2" y="0" fill="#FFF" font-family="'ProximaNova-Light'" font-size="15" letter-spacing="3">•</tspan><tspan x="316.5" y="0" fill="#FFF" font-family="'ProximaNova-Light'" font-size="15" letter-spacing="14"> </tspan><tspan x="334.7" y="0" fill="#FFF" font-family="'ProximaNova-Light'" font-size="15" letter-spacing="3">Solo</tspan><tspan x="375.8" y="0" fill="#FFF" font-family="'ProximaNova-Light'" font-size="15" letter-spacing="14"> </tspan><tspan x="393.9" y="0" fill="#FFF" font-family="'ProximaNova-Light'" font-size="15" letter-spacing="3">Performance</tspan></text><path fill="none" d="M321.2 288.9h490.6v18.6H321.2z"/><text transform="translate(321.2 298.88)"><tspan x="0" y="0" fill="#FFF" font-family="'ProximaNova-Light'" font-size="15" letter-spacing="3">Ballride</tspan><tspan x="72.5" y="0" fill="#FFF" font-family="'ProximaNova-Light'" font-size="15" letter-spacing="12"> </tspan><tspan x="88.4" y="0" fill="#FFF" font-family="'ProximaNova-Light'" font-size="15" letter-spacing="3">Style</tspan><tspan x="135.2" y="0" fill="#FFF" font-family="'ProximaNova-Light'" font-size="15" letter-spacing="12"> </tspan><tspan x="151.2" y="0" fill="#FFF" font-family="'ProximaNova-Light'" font-size="15" letter-spacing="3">Masterclass</tspan><tspan x="260.3" y="0" fill="#FFF" font-family="'ProximaNova-Light'" font-size="15" letter-spacing="12"> </tspan><tspan x="276.2" y="0" fill="#FFF" font-family="'ProximaNova-Light'" font-size="15" letter-spacing="3">•</tspan><tspan x="284.6" y="0" fill="#FFF" font-family="'ProximaNova-Light'" font-size="15" letter-spacing="12"> </tspan><tspan x="300.6" y="0" fill="#FFF" font-family="'ProximaNova-Light'" font-size="15" letter-spacing="3">Creative</tspan><tspan x="378.8" y="0" fill="#FFF" font-family="'ProximaNova-Light'" font-size="15" letter-spacing="12"> </tspan><tspan x="394.7" y="0" fill="#FFF" font-family="'ProximaNova-Light'" font-size="15" letter-spacing="3">Consulting</tspan></text><path fill="none" d="M327 401.2h477.2v23H327z"/><text transform="translate(326.982 411.16)" fill="#FFF" font-family="'ProximaNova-Light'" font-size="15" letter-spacing="1">Show</text><text transform="translate(369.147 411.16)" fill="#FFF" font-family="'ProximaNova-Light'" font-size="15" letter-spacing="8"></text><text transform="translate(381.915 411.16)" fill="#FFF" font-family="'ProximaNova-Light'" font-size="15" letter-spacing="1">Directing</text><text transform="translate(453.659 411.16)" fill="#FFF" font-family="'ProximaNova-Light'" font-size="15" letter-spacing="8"></text><text transform="translate(466.427 411.16)" fill="#FFF" font-family="'ProximaNova-Light'" font-size="15" letter-spacing="1">•</text><text transform="translate(473.297 411.16)" fill="#FFF" font-family="'ProximaNova-Light'" font-size="15" letter-spacing="8"></text><text transform="translate(486.065 411.16)" fill="#FFF" font-family="'ProximaNova-Light'" font-size="15" letter-spacing="3">Choreographing</text><text transform="translate(634.22 411.16)" fill="#FFF" font-family="'ProximaNova-Light'" font-size="15" letter-spacing="12"></text><text transform="translate(650.545 411.16)" fill="#FFF" font-family="'ProximaNova-Light'" font-size="15" letter-spacing="3">•</text><text transform="translate(658.915 411.16)" fill="#FFF" font-family="'ProximaNova-Light'" font-size="15" letter-spacing="12"></text><text transform="matrix(1.0525 0 0 1 675.24 411.16)" fill="#FFF" font-family="'ProximaNova-Light'" font-size="15" letter-spacing="2.9">Collaborating</text><text transform="translate(814.634 411.16)" fill="#FFF" font-family="'ProximaNova-Light'" font-size="15" letter-spacing="3"></text><path fill="none" d="M317.8 362h495.7v20.6H317.8z"/><text transform="matrix(1.0525 0 0 1 317.81 372.018)"><tspan x="0" y="0" fill="#FFF" font-family="'ProximaNova-Light'" font-size="15" letter-spacing="2.9">Photoshooting</tspan><tspan x="133" y="0" fill="#FFF" font-family="'ProximaNova-Light'" font-size="15" letter-spacing="21.9"> </tspan><tspan x="159.5" y="0" fill="#FFF" font-family="'ProximaNova-Light'" font-size="15" letter-spacing="2.9">•</tspan><tspan x="167.9" y="0" fill="#FFF" font-family="'ProximaNova-Light'" font-size="15" letter-spacing="21.9"> </tspan><tspan x="194.4" y="0" fill="#FFF" font-family="'ProximaNova-Light'" font-size="15" letter-spacing="2.9">Videoshooting</tspan><tspan x="328" y="0" fill="#FFF" font-family="'ProximaNova-Light'" font-size="15" letter-spacing="21.9"> </tspan><tspan x="354.5" y="0" fill="#FFF" font-family="'ProximaNova-Light'" font-size="15" letter-spacing="2.9">•</tspan><tspan x="362.9" y="0" fill="#FFF" font-family="'ProximaNova-Light'" font-size="15" letter-spacing="21.9"> </tspan><tspan x="389.4" y="0" fill="#FFF" font-family="'ProximaNova-Light'" font-size="15" letter-spacing="2.9">Modeling</tspan></text><path fill="none" d="M434.5 552.8h256.4V571H434.5z"/><text transform="translate(434.501 562.779)" fill="#FFF" font-family="'ProximaNova-Light'" font-size="15" letter-spacing="3">Soaring</text><text transform="translate(505.21 562.779)" fill="#FFF" font-family="'ProximaNova-Light'" font-size="15" letter-spacing="22"></text><text transform="translate(531.479 562.779)" fill="#FFF" font-family="'ProximaNova-Light'" font-size="15" letter-spacing="3">Balls</text><text transform="translate(576.808 562.779)" fill="#FFF" font-family="'ProximaNova-Light'" font-size="15" letter-spacing="22"></text><text transform="translate(603.077 562.779)" fill="#FFF" font-family="'ProximaNova-Light'" font-size="15" letter-spacing="3">Showcase</text><text transform="matrix(1.0525 0 0 1 693.856 562.779)" fill="#FFF" font-family="'ProximaNova-Light'" font-size="15" letter-spacing="2.9"></text><path fill="none" d="M336.2 438.3h455.9v25.1H336.2z"/><text transform="translate(336.216 448.274)"><tspan x="0" y="0" fill="#FFF" font-family="'ProximaNova-Light'" font-size="15" letter-spacing="3">Children</tspan><tspan x="78.5" y="0" fill="#FFF" font-family="'ProximaNova-Light'" font-size="15" letter-spacing="14"> </tspan><tspan x="96.6" y="0" fill="#FFF" font-family="'ProximaNova-Light'" font-size="15" letter-spacing="3">Fun</tspan><tspan x="129.9" y="0" fill="#FFF" font-family="'ProximaNova-Light'" font-size="15" letter-spacing="14"> </tspan><tspan x="148" y="0" fill="#FFF" font-family="'ProximaNova-Light'" font-size="15" letter-spacing="3">Showcase</tspan><tspan x="238.8" y="0" fill="#FFF" font-family="'ProximaNova-Light'" font-size="15" letter-spacing="14"> </tspan><tspan x="256.9" y="0" fill="#FFF" font-family="'ProximaNova-Light'" font-size="15" letter-spacing="3">•</tspan><tspan x="265.3" y="0" fill="#FFF" font-family="'ProximaNova-Light'" font-size="15" letter-spacing="14"> </tspan><tspan x="283.4" y="0" fill="#FFF" font-family="'ProximaNova-Light'" font-size="15" letter-spacing="3">Ballride</tspan><tspan x="355.8" y="0" fill="#FFF" font-family="'ProximaNova-Light'" font-size="15" letter-spacing="14"> </tspan><tspan x="373.9" y="0" fill="#FFF" font-family="'ProximaNova-Light'" font-size="15" letter-spacing="3">Intensive</tspan></text><path fill="none" d="M354.7 477.8h414.8v22.3H354.7z"/><text transform="translate(354.719 487.789)"><tspan x="0" y="0" fill="#FFF" font-family="'ProximaNova-Light'" font-size="15" letter-spacing="3">Multy-language</tspan><tspan x="141.6" y="0" fill="#FFF" font-family="'ProximaNova-Light'" font-size="15" letter-spacing="2"> </tspan><tspan x="155" y="0" fill="#FFF" font-family="'ProximaNova-Light'" font-size="15" letter-spacing="3">Freestyle</tspan><tspan x="241.8" y="0" fill="#FFF" font-family="'ProximaNova-Light'" font-size="15" letter-spacing="2"> </tspan><tspan x="248.5" y="0" fill="#FFF" font-family="'ProximaNova-Light'" font-size="15" letter-spacing="3">Lessons</tspan><tspan x="322.9" y="0" fill="#FFF" font-family="'ProximaNova-Light'" font-size="15" letter-spacing="2"> </tspan><tspan x="329.6" y="0" fill="#FFF" font-family="'ProximaNova-Light'" font-size="15" letter-spacing="3">•</tspan><tspan x="338" y="0" fill="#FFF" font-family="'ProximaNova-Light'" font-size="15" letter-spacing="2"> </tspan><tspan x="344.6" y="0" fill="#FFF" font-family="'ProximaNova-Light'" font-size="15" letter-spacing="3">Judging</tspan></text><path fill="none" d="M368.4 516.7h393v21h-393z"/><text transform="translate(368.426 526.668)"><tspan x="0" y="0" fill="#FFF" font-family="'ProximaNova-Light'" font-size="15" letter-spacing="3">Wedding</tspan><tspan x="79.5" y="0" fill="#FFF" font-family="'ProximaNova-Light'" font-size="15" letter-spacing="17"> </tspan><tspan x="100.5" y="0" fill="#FFF" font-family="'ProximaNova-Light'" font-size="15" letter-spacing="2">Performance</tspan><tspan x="216.2" y="0" fill="#FFF" font-family="'ProximaNova-Light'" font-size="15" letter-spacing="17"> </tspan><tspan x="237.2" y="0" fill="#FFF" font-family="'ProximaNova-Light'" font-size="15" letter-spacing="3">•</tspan><tspan x="245.6" y="0" fill="#FFF" font-family="'ProximaNova-Light'" font-size="15" letter-spacing="17"> </tspan><tspan x="266.5" y="0" fill="#FFF" font-family="'ProximaNova-Light'" font-size="15" letter-spacing="3">FSBB</tspan><tspan x="313.8" y="0" fill="#FFF" font-family="'ProximaNova-Light'" font-size="15" letter-spacing="17"> </tspan><tspan x="334.7" y="0" fill="#FFF" font-family="'ProximaNova-Light'" font-size="15" letter-spacing="3">Events</tspan></text></svg>