<svg xmlns="http://www.w3.org/2000/svg" viewBox="136.4 -16.1 850.4 708.7"><ellipse stroke="#FFF" stroke-width="1.05" stroke-miterlimit="10" cx="561.6" cy="338.4" rx="286.3" ry="291.2"/><linearGradient id="a" gradientUnits="userSpaceOnUse" x1="278.595" y1="422.463" x2="844.506" y2="260.191"><stop offset="0" stop-color="#eaff00"/><stop offset=".203" stop-color="#eaff00"/><stop offset=".73" stop-color="#a2fc59"/><stop offset="1" stop-color="#57f866"/></linearGradient><ellipse fill="none" stroke="url(#a)" stroke-width="15" stroke-miterlimit="10" cx="561.6" cy="341.3" rx="286.3" ry="293"/><g fill="#FFF"><path d="M318.9 309.3l-1.1-2.8h-6l-1.1 2.8h-1.1l4.6-11.3h1.2l4.6 11.3h-1.1zm-4.1-10.3l-2.7 6.6h5.4l-2.7-6.6zM330.6 309.3v-1.2c-.7.7-1.8 1.4-3 1.4-1.7 0-2.6-.8-2.6-2.6v-5.8h.9v5.6c0 1.6.8 2 2 2 1.1 0 2.1-.6 2.7-1.4V301h.9v8.2h-.9zM343.7 309.3V308c-.6.9-1.6 1.5-2.9 1.5-2.2 0-3.7-1.7-3.7-4.3 0-2.6 1.5-4.3 3.7-4.3 1.2 0 2.2.6 2.9 1.5V298h.9v11.3h-.9zm0-2.1v-4.1c-.5-.8-1.5-1.5-2.7-1.5-1.8 0-2.9 1.5-2.9 3.5s1.1 3.5 2.9 3.5c1.2.1 2.2-.6 2.7-1.4zM350.5 299.1c0-.4.3-.7.7-.7.4 0 .7.3.7.7s-.3.7-.7.7c-.3 0-.7-.3-.7-.7zm.3 10.2v-8.2h.9v8.2h-.9zM357.3 305.2c0-2.4 1.7-4.3 4-4.3 2.5 0 3.9 2 3.9 4.4v.2h-6.9c.1 1.8 1.3 3.3 3.2 3.3 1 0 2-.4 2.7-1.1l.5.6c-.8.9-1.9 1.3-3.2 1.3-2.4-.1-4.2-1.9-4.2-4.4zm4-3.6c-1.9 0-2.9 1.7-3 3.1h6c0-1.3-1-3.1-3-3.1zM376.4 309.3v-5.6c0-1.6-.8-2.1-2-2.1-1.1 0-2.1.7-2.7 1.4v6.2h-.9V301h.9v1.2c.6-.7 1.8-1.4 3-1.4 1.7 0 2.6.8 2.6 2.7v5.7h-.9zM383 305.2c0-2.4 1.6-4.3 4-4.3 1.4 0 2.2.6 2.9 1.4l-.6.5c-.6-.8-1.3-1.1-2.2-1.1-1.9 0-3.1 1.5-3.1 3.5s1.2 3.5 3.1 3.5c.9 0 1.6-.3 2.2-1.2l.6.5c-.7.9-1.5 1.4-2.9 1.4-2.5.1-4-1.8-4-4.2zM394.8 305.2c0-2.4 1.7-4.3 4-4.3 2.5 0 3.9 2 3.9 4.4v.2h-6.9c.1 1.8 1.3 3.3 3.2 3.3 1 0 2-.4 2.7-1.1l.5.6c-.8.9-1.9 1.3-3.2 1.3-2.5-.1-4.2-1.9-4.2-4.4zm3.9-3.6c-1.9 0-2.9 1.7-3 3.1h6c0-1.3-.9-3.1-3-3.1zM414.9 309.3V298h7.2v.9h-6.2v4.2h6.1v.9h-6.1v4.5h6.2v.9h-7.2zM433.4 309.3v-5.6c0-1.6-.8-2.1-2-2.1-1.1 0-2.1.7-2.7 1.4v6.2h-.9V301h.9v1.2c.6-.7 1.8-1.4 3-1.4 1.7 0 2.6.8 2.6 2.7v5.7h-.9zM440.6 307.7v-5.8h-1.4v-.8h1.4v-2.2h.9v2.2h1.7v.8h-1.7v5.7c0 .7.3 1.1.9 1.1.4 0 .7-.2.9-.4l.3.7c-.3.3-.7.5-1.4.5-1 0-1.6-.7-1.6-1.8zM448.1 305.2c0-2.4 1.7-4.3 4-4.3 2.5 0 3.9 2 3.9 4.4v.2h-7c.1 1.8 1.3 3.3 3.2 3.3 1 0 2-.4 2.7-1.1l.5.6c-.8.9-1.9 1.3-3.2 1.3-2.4-.1-4.1-1.9-4.1-4.4zm3.9-3.6c-1.9 0-2.9 1.7-3 3.1h6c0-1.3-.9-3.1-3-3.1zM461.6 309.3v-8.2h.9v1.4c.7-.9 1.6-1.6 2.8-1.6v1h-.4c-.8 0-2 .7-2.3 1.5v6h-1zM470.5 307.7v-5.8h-1.4v-.8h1.4v-2.2h.9v2.2h1.7v.8h-1.7v5.7c0 .7.3 1.1.9 1.1.4 0 .7-.2.9-.4l.3.7c-.3.3-.7.5-1.4.5-1 0-1.6-.7-1.6-1.8zM483.7 309.3v-1c-.7.8-1.6 1.2-2.8 1.2-1.4 0-2.9-1-2.9-2.7 0-1.8 1.4-2.7 2.9-2.7 1.1 0 2.1.4 2.8 1.2v-1.7c0-1.2-1-1.9-2.2-1.9-1 0-1.8.4-2.6 1.2l-.5-.6c.9-.9 1.8-1.4 3.2-1.4 1.7 0 3 .8 3 2.6v5.8h-.9zm0-1.6v-1.8c-.6-.7-1.5-1.1-2.5-1.1-1.4 0-2.2.9-2.2 2 0 1.2.9 2 2.2 2 1 0 1.9-.4 2.5-1.1zM490.5 299.1c0-.4.3-.7.7-.7.4 0 .7.3.7.7s-.3.7-.7.7c-.4 0-.7-.3-.7-.7zm.2 10.2v-8.2h.9v8.2h-.9zM503.3 309.3v-5.6c0-1.6-.8-2.1-2-2.1-1.1 0-2.1.7-2.7 1.4v6.2h-.9V301h.9v1.2c.6-.7 1.8-1.4 3-1.4 1.7 0 2.6.8 2.6 2.7v5.7h-.9zM520.1 309.3v-5.7c0-1.2-.5-1.9-1.6-1.9-.9 0-1.9.6-2.3 1.4v6.2h-.9v-5.7c0-1.2-.5-1.9-1.6-1.9-.9 0-1.9.7-2.3 1.4v6.2h-.9v-8.2h.9v1.2c.3-.5 1.5-1.4 2.7-1.4 1.3 0 2 .7 2.2 1.5.5-.8 1.6-1.5 2.7-1.5 1.5 0 2.2.8 2.2 2.5v5.9h-1.1zM526.7 305.2c0-2.4 1.7-4.3 4-4.3 2.5 0 3.9 2 3.9 4.4v.2h-6.9c.1 1.8 1.3 3.3 3.2 3.3 1 0 2-.4 2.7-1.1l.5.6c-.8.9-1.9 1.3-3.2 1.3-2.5-.1-4.2-1.9-4.2-4.4zm3.9-3.6c-1.9 0-2.9 1.7-3 3.1h6c0-1.3-.9-3.1-3-3.1zM545.7 309.3v-5.6c0-1.6-.8-2.1-2-2.1-1.1 0-2.1.7-2.7 1.4v6.2h-.9V301h.9v1.2c.6-.7 1.8-1.4 3-1.4 1.7 0 2.6.8 2.6 2.7v5.7h-.9zM552.9 307.7v-5.8h-1.4v-.8h1.4v-2.2h.9v2.2h1.7v.8h-1.7v5.7c0 .7.3 1.1.9 1.1.4 0 .7-.2.9-.4l.3.7c-.3.3-.7.5-1.4.5-1.1 0-1.6-.7-1.6-1.8zM567.5 309.3V298h4.2c2.2 0 3.4 1.5 3.4 3.3 0 1.8-1.3 3.3-3.4 3.3h-3.3v4.7h-.9zm6.6-8c0-1.4-1-2.4-2.5-2.4h-3.2v4.9h3.2c1.5-.1 2.5-1.1 2.5-2.5zM580.6 309.3V298h.9v11.3h-.9zM592.8 309.3v-1c-.7.8-1.6 1.2-2.8 1.2-1.4 0-2.9-1-2.9-2.7 0-1.8 1.4-2.7 2.9-2.7 1.1 0 2.1.4 2.8 1.2v-1.7c0-1.2-1-1.9-2.2-1.9-1 0-1.8.4-2.6 1.2l-.5-.6c.8-.9 1.8-1.4 3.2-1.4 1.7 0 3 .8 3 2.6v5.8h-.9zm0-1.6v-1.8c-.6-.7-1.5-1.1-2.5-1.1-1.4 0-2.2.9-2.2 2 0 1.2.9 2 2.2 2 1 0 1.9-.4 2.5-1.1zM599.5 311.7c.2.1.5.1.7.1.5 0 .9-.2 1.2-1l.6-1.5-3.5-8.3h1l3 7.2 3-7.2h1l-4.2 10c-.4 1-1.1 1.5-2.1 1.5-.3 0-.6-.1-.9-.1l.2-.7zM619.7 306.9c-1 0-1.8-.8-1.8-1.7 0-1 .8-1.8 1.8-1.8s1.8.8 1.8 1.8c0 .9-.8 1.7-1.8 1.7zM633.6 307.7l.6-.7c.7.8 1.9 1.6 3.5 1.6 2.3 0 3-1.3 3-2.3 0-3.3-6.8-1.6-6.8-5.6 0-1.9 1.7-3 3.7-3 1.7 0 3 .6 3.8 1.6l-.6.7c-.8-1-2-1.4-3.2-1.4-1.5 0-2.7.9-2.7 2.1 0 2.9 6.8 1.3 6.8 5.5 0 1.5-1 3.2-4 3.2-1.8.1-3.2-.7-4.1-1.7zM647 305.2c0-2.4 1.5-4.3 3.9-4.3s4 1.9 4 4.3-1.5 4.3-4 4.3c-2.4 0-3.9-1.9-3.9-4.3zm6.9 0c0-1.8-1.1-3.5-3-3.5s-3 1.7-3 3.5 1.1 3.5 3 3.5c2 0 3-1.7 3-3.5zM660.6 309.3V298h.9v11.3h-.9zM667.1 305.2c0-2.4 1.5-4.3 3.9-4.3s4 1.9 4 4.3-1.5 4.3-4 4.3c-2.3 0-3.9-1.9-3.9-4.3zm7 0c0-1.8-1.1-3.5-3-3.5s-3 1.7-3 3.5 1.1 3.5 3 3.5 3-1.7 3-3.5zM687.4 309.3V298h4.2c2.2 0 3.4 1.5 3.4 3.3 0 1.8-1.3 3.3-3.4 3.3h-3.3v4.7h-.9zm6.6-8c0-1.4-1-2.4-2.5-2.4h-3.2v4.9h3.2c1.5-.1 2.5-1.1 2.5-2.5zM700 305.2c0-2.4 1.7-4.3 4-4.3 2.5 0 3.9 2 3.9 4.4v.2H701c.1 1.8 1.3 3.3 3.2 3.3 1 0 2-.4 2.7-1.1l.5.6c-.8.9-1.9 1.3-3.2 1.3-2.5-.1-4.2-1.9-4.2-4.4zm3.9-3.6c-1.9 0-2.9 1.7-3 3.1h6c0-1.3-.9-3.1-3-3.1zM713.5 309.3v-8.2h.9v1.4c.7-.9 1.6-1.6 2.8-1.6v1h-.4c-.8 0-2 .7-2.3 1.5v6h-1zM722.6 309.3v-7.4h-1.4v-.8h1.4v-.7c0-1.6.8-2.5 2.2-2.5.6 0 1 .1 1.6.6l-.4.6c-.3-.3-.6-.4-1.1-.4-.9 0-1.4.6-1.4 1.8v.7h1.7v.8h-1.7v7.4h-.9zM729.7 305.2c0-2.4 1.5-4.3 3.9-4.3s4 1.9 4 4.3-1.5 4.3-4 4.3c-2.3 0-3.9-1.9-3.9-4.3zm7 0c0-1.8-1.1-3.5-3-3.5s-3 1.7-3 3.5 1.1 3.5 3 3.5 3-1.7 3-3.5zM743.3 309.3v-8.2h.9v1.4c.7-.9 1.6-1.6 2.8-1.6v1h-.4c-.8 0-2 .7-2.3 1.5v6h-1zM761.9 309.3v-5.7c0-1.2-.5-1.9-1.6-1.9-.9 0-1.9.6-2.3 1.4v6.2h-1v-5.7c0-1.2-.5-1.9-1.6-1.9-.9 0-1.9.7-2.3 1.4v6.2h-.9v-8.2h.9v1.2c.3-.5 1.5-1.4 2.7-1.4 1.3 0 2 .7 2.2 1.5.5-.8 1.6-1.5 2.7-1.5 1.5 0 2.2.8 2.2 2.5v5.9h-1zM774.1 309.3v-1c-.7.8-1.6 1.2-2.8 1.2-1.4 0-2.9-1-2.9-2.7 0-1.8 1.4-2.7 2.9-2.7 1.1 0 2.1.4 2.8 1.2v-1.7c0-1.2-1-1.9-2.2-1.9-1 0-1.8.4-2.6 1.2l-.5-.6c.8-.9 1.8-1.4 3.2-1.4 1.7 0 3 .8 3 2.6v5.8h-.9zm0-1.6v-1.8c-.6-.7-1.5-1.1-2.5-1.1-1.4 0-2.2.9-2.2 2 0 1.2.9 2 2.2 2 1 0 1.9-.4 2.5-1.1zM786.7 309.3v-5.6c0-1.6-.8-2.1-2-2.1-1.1 0-2.1.7-2.7 1.4v6.2h-.9V301h.9v1.2c.6-.7 1.8-1.4 3-1.4 1.7 0 2.6.8 2.6 2.7v5.7h-.9zM793.3 305.2c0-2.4 1.6-4.3 4-4.3 1.4 0 2.2.6 2.9 1.4l-.6.5c-.6-.8-1.3-1.1-2.2-1.1-1.9 0-3.1 1.5-3.1 3.5s1.2 3.5 3.1 3.5c.9 0 1.6-.3 2.2-1.2l.6.5c-.7.9-1.5 1.4-2.9 1.4-2.5.1-4-1.8-4-4.2zM805 305.2c0-2.4 1.7-4.3 4-4.3 2.5 0 3.9 2 3.9 4.4v.2H806c.1 1.8 1.3 3.3 3.2 3.3 1 0 2-.4 2.7-1.1l.5.6c-.8.9-1.9 1.3-3.2 1.3-2.4-.1-4.2-1.9-4.2-4.4zm4-3.6c-1.9 0-2.9 1.7-3 3.1h6c0-1.3-1-3.1-3-3.1z"/></g><g fill="#FFF"><path d="M358.2 202.3V191h4.7c1.9 0 3.1 1.1 3.1 2.9 0 1.4-1 2.4-2 2.6 1.2.2 2.2 1.4 2.2 2.8 0 1.9-1.2 3.1-3.2 3.1h-4.8zm6.7-8.4c0-1.2-.8-2.1-2.2-2.1h-3.6v4.2h3.6c1.5 0 2.2-.9 2.2-2.1zm.3 5.3c0-1.2-.8-2.2-2.4-2.2h-3.6v4.5h3.6c1.5-.1 2.4-1 2.4-2.3zM377.2 202.3v-1c-.7.8-1.6 1.2-2.8 1.2-1.4 0-2.9-1-2.9-2.7 0-1.8 1.4-2.7 2.9-2.7 1.1 0 2.1.4 2.8 1.2v-1.7c0-1.2-1-1.9-2.2-1.9-1 0-1.8.4-2.6 1.2l-.5-.6c.9-.9 1.8-1.4 3.2-1.4 1.7 0 3 .8 3 2.6v5.8h-.9zm0-1.6v-1.8c-.6-.7-1.5-1.1-2.5-1.1-1.4 0-2.2.9-2.2 2 0 1.2.9 2 2.2 2 1 0 1.9-.4 2.5-1.1zM384.2 202.3V191h.9v11.3h-.9zM391.3 202.3V191h.9v11.3h-.9zM398.3 202.3v-8.2h.9v1.4c.7-.9 1.6-1.6 2.8-1.6v1h-.4c-.8 0-2 .7-2.3 1.5v6h-1zM406.9 192.1c0-.4.3-.7.7-.7.4 0 .7.3.7.7s-.3.7-.7.7c-.4 0-.7-.3-.7-.7zm.2 10.2v-8.2h.9v8.2h-.9zM420.2 202.3V201c-.6.9-1.6 1.5-2.9 1.5-2.2 0-3.7-1.7-3.7-4.3 0-2.6 1.5-4.3 3.7-4.3 1.2 0 2.2.6 2.9 1.5V191h.9v11.3h-.9zm0-2.1v-4.1c-.5-.8-1.5-1.5-2.7-1.5-1.8 0-2.9 1.5-2.9 3.5s1.1 3.5 2.9 3.5c1.1.1 2.2-.6 2.7-1.4zM426.8 198.2c0-2.4 1.7-4.3 4-4.3 2.5 0 3.9 2 3.9 4.4v.2h-6.9c.1 1.8 1.3 3.3 3.2 3.3 1 0 2-.4 2.7-1.1l.5.6c-.8.9-1.9 1.3-3.2 1.3-2.5-.1-4.2-1.9-4.2-4.4zm3.9-3.6c-1.9 0-2.9 1.7-3 3.1h6c0-1.3-.9-3.1-3-3.1zM455.1 200.7l.6-.7c.7.8 1.9 1.6 3.5 1.6 2.3 0 3-1.3 3-2.3 0-3.3-6.8-1.6-6.8-5.6 0-1.9 1.7-3 3.7-3 1.7 0 3 .6 3.8 1.6l-.6.7c-.8-1-2-1.4-3.2-1.4-1.5 0-2.7.9-2.7 2.1 0 2.9 6.8 1.3 6.8 5.5 0 1.5-1 3.2-4 3.2-1.8.1-3.2-.7-4.1-1.7zM469.2 200.7v-5.8h-1.4v-.8h1.4v-2.2h.9v2.2h1.7v.8h-1.7v5.7c0 .7.3 1.1.9 1.1.4 0 .7-.2.9-.4l.3.7c-.3.3-.7.5-1.4.5-1.1 0-1.6-.7-1.6-1.8zM476.7 204.7c.2.1.5.1.7.1.5 0 .9-.2 1.2-1l.6-1.5-3.5-8.3h1l3 7.2 3-7.2h1l-4.2 10c-.4 1-1.1 1.5-2.1 1.5-.3 0-.6-.1-.9-.1l.2-.7zM488.7 202.3V191h.9v11.3h-.9zM495.2 198.2c0-2.4 1.7-4.3 4-4.3 2.5 0 3.9 2 3.9 4.4v.2h-6.9c.1 1.8 1.3 3.3 3.2 3.3 1 0 2-.4 2.7-1.1l.5.6c-.8.9-1.9 1.3-3.2 1.3-2.5-.1-4.2-1.9-4.2-4.4zm4-3.6c-1.9 0-2.9 1.7-3 3.1h6c-.1-1.3-1-3.1-3-3.1zM533.8 202.3v-10l-4.1 10h-.4l-4.1-10v10h-1V191h1.4l3.9 9.3 3.8-9.3h1.5v11.3h-1zM546.2 202.3v-1c-.7.8-1.6 1.2-2.8 1.2-1.4 0-2.9-1-2.9-2.7 0-1.8 1.4-2.7 2.9-2.7 1.1 0 2.1.4 2.8 1.2v-1.7c0-1.2-1-1.9-2.2-1.9-1 0-1.8.4-2.6 1.2l-.5-.6c.8-.9 1.8-1.4 3.2-1.4 1.7 0 3 .8 3 2.6v5.8h-.9zm0-1.6v-1.8c-.6-.7-1.5-1.1-2.5-1.1-1.4 0-2.2.9-2.2 2 0 1.2.9 2 2.2 2 1 0 1.9-.4 2.5-1.1zM552.5 201.2l.5-.7c.5.7 1.5 1.2 2.7 1.2 1.4 0 2.2-.7 2.2-1.7 0-2.2-5.2-1-5.2-3.9 0-1.3 1.1-2.3 2.9-2.3 1.4 0 2.3.5 2.9 1.2l-.5.6c-.5-.6-1.4-1.1-2.4-1.1-1.3 0-2.1.6-2.1 1.5 0 2.1 5.2.8 5.2 4 0 1.3-1 2.4-3.1 2.4-1.2.1-2.2-.3-3.1-1.2zM564.6 200.7v-5.8h-1.4v-.8h1.4v-2.2h.9v2.2h1.7v.8h-1.7v5.7c0 .7.3 1.1.9 1.1.4 0 .7-.2.9-.4l.3.7c-.3.3-.7.5-1.4.5-1 0-1.6-.7-1.6-1.8zM572.1 198.2c0-2.4 1.7-4.3 4-4.3 2.5 0 3.9 2 3.9 4.4v.2h-7c.1 1.8 1.3 3.3 3.2 3.3 1 0 2-.4 2.7-1.1l.5.6c-.8.9-1.9 1.3-3.2 1.3-2.4-.1-4.1-1.9-4.1-4.4zm3.9-3.6c-1.9 0-2.9 1.7-3 3.1h6c0-1.3-.9-3.1-3-3.1zM585.6 202.3v-8.2h.9v1.4c.7-.9 1.6-1.6 2.8-1.6v1h-.4c-.8 0-2 .7-2.3 1.5v6h-1zM593.9 198.2c0-2.4 1.6-4.3 4-4.3 1.4 0 2.2.6 2.9 1.4l-.6.5c-.6-.8-1.3-1.1-2.2-1.1-1.9 0-3.1 1.5-3.1 3.5s1.2 3.5 3.1 3.5c.9 0 1.6-.3 2.2-1.2l.6.5c-.7.9-1.5 1.4-2.9 1.4-2.4.1-4-1.8-4-4.2zM606.2 202.3V191h.9v11.3h-.9zM618.4 202.3v-1c-.7.8-1.6 1.2-2.8 1.2-1.4 0-2.9-1-2.9-2.7 0-1.8 1.4-2.7 2.9-2.7 1.1 0 2.1.4 2.8 1.2v-1.7c0-1.2-1-1.9-2.2-1.9-1 0-1.8.4-2.6 1.2l-.5-.6c.8-.9 1.8-1.4 3.2-1.4 1.7 0 3 .8 3 2.6v5.8h-.9zm0-1.6v-1.8c-.6-.7-1.5-1.1-2.5-1.1-1.4 0-2.2.9-2.2 2 0 1.2.9 2 2.2 2 1 0 1.9-.4 2.5-1.1zM624.7 201.2l.5-.7c.5.7 1.5 1.2 2.7 1.2 1.4 0 2.2-.7 2.2-1.7 0-2.2-5.2-1-5.2-3.9 0-1.3 1.1-2.3 2.9-2.3 1.4 0 2.3.5 2.9 1.2l-.5.6c-.5-.6-1.4-1.1-2.4-1.1-1.3 0-2.1.6-2.1 1.5 0 2.1 5.2.8 5.2 4 0 1.3-1 2.4-3.1 2.4-1.2.1-2.2-.3-3.1-1.2zM635.9 201.2l.5-.7c.5.7 1.5 1.2 2.7 1.2 1.4 0 2.2-.7 2.2-1.7 0-2.2-5.2-1-5.2-3.9 0-1.3 1.1-2.3 2.9-2.3 1.4 0 2.3.5 2.9 1.2l-.5.6c-.5-.6-1.4-1.1-2.4-1.1-1.3 0-2.1.6-2.1 1.5 0 2.1 5.2.8 5.2 4 0 1.3-1 2.4-3.1 2.4-1.2.1-2.2-.3-3.1-1.2zM665 199.9c-1 0-1.8-.8-1.8-1.7 0-1 .8-1.8 1.8-1.8s1.8.8 1.8 1.8c-.1.9-.8 1.7-1.8 1.7zM687.1 201.1l.6-.7c.5.7 1.2 1.2 2.3 1.2 1.5 0 2.5-1.1 2.5-2.6v-8h1v8.1c0 2.4-1.5 3.5-3.4 3.5-1.3-.1-2.2-.5-3-1.5zM705.2 202.3v-1.2c-.7.7-1.8 1.4-3 1.4-1.7 0-2.6-.8-2.6-2.6v-5.8h.9v5.6c0 1.6.8 2 2 2 1.1 0 2.1-.6 2.7-1.4V194h.9v8.2h-.9zM718.3 202.3V201c-.6.9-1.6 1.5-2.9 1.5-2.2 0-3.7-1.7-3.7-4.3 0-2.6 1.5-4.3 3.7-4.3 1.2 0 2.2.6 2.9 1.5V191h.9v11.3h-.9zm0-2.1v-4.1c-.5-.8-1.5-1.5-2.7-1.5-1.8 0-2.9 1.5-2.9 3.5s1.1 3.5 2.9 3.5c1.1.1 2.2-.6 2.7-1.4zM725.3 204.4l.5-.7c.7.9 1.5 1.2 2.7 1.2 1.5 0 2.8-.7 2.8-2.6V201c-.6.8-1.6 1.5-2.9 1.5-2.2 0-3.7-1.6-3.7-4.3 0-2.6 1.5-4.3 3.7-4.3 1.2 0 2.2.6 2.9 1.5v-1.3h.9v8.1c0 2.5-1.7 3.4-3.7 3.4-1.3 0-2.2-.2-3.2-1.2zm6.1-4.2v-4c-.5-.8-1.6-1.5-2.7-1.5-1.8 0-2.9 1.5-2.9 3.5s1.1 3.5 2.9 3.5c1.1 0 2.2-.7 2.7-1.5zM738.2 192.1c0-.4.3-.7.7-.7.4 0 .7.3.7.7s-.3.7-.7.7c-.4 0-.7-.3-.7-.7zm.2 10.2v-8.2h.9v8.2h-.9zM751 202.3v-5.6c0-1.6-.8-2.1-2-2.1-1.1 0-2.1.7-2.7 1.4v6.2h-.9V194h.9v1.2c.6-.7 1.8-1.4 3-1.4 1.7 0 2.6.8 2.6 2.7v5.7h-.9zM758 204.4l.5-.7c.7.9 1.5 1.2 2.7 1.2 1.5 0 2.8-.7 2.8-2.6V201c-.6.8-1.6 1.5-2.9 1.5-2.2 0-3.7-1.6-3.7-4.3 0-2.6 1.5-4.3 3.7-4.3 1.2 0 2.2.6 2.9 1.5v-1.3h.9v8.1c0 2.5-1.7 3.4-3.7 3.4-1.3 0-2.2-.2-3.2-1.2zm6.1-4.2v-4c-.5-.8-1.6-1.5-2.7-1.5-1.8 0-2.9 1.5-2.9 3.5s1.1 3.5 2.9 3.5c1.1 0 2.2-.7 2.7-1.5z"/></g><g fill="#FFF"><path d="M305.1 363.8l.6-.7c.7.9 1.9 1.6 3.5 1.6 2.3 0 3-1.3 3-2.3 0-3.3-6.8-1.6-6.8-5.6 0-1.9 1.7-3 3.7-3 1.7 0 3 .6 3.8 1.6l-.6.7c-.8-1-2-1.4-3.2-1.4-1.5 0-2.7.9-2.7 2.1 0 2.9 6.8 1.3 6.8 5.5 0 1.5-1 3.2-4 3.2-1.8.1-3.2-.6-4.1-1.7zM322.9 365.4v-5.6c0-1.6-.8-2-2-2-1.1 0-2.1.7-2.7 1.4v6.2h-.9v-11.3h.9v4.4c.6-.7 1.8-1.4 3-1.4 1.7 0 2.6.8 2.6 2.6v5.8h-.9zM327.7 361.3c0-2.4 1.5-4.3 3.9-4.3s4 1.9 4 4.3-1.5 4.3-4 4.3c-2.3 0-3.9-1.9-3.9-4.3zm7 0c0-1.8-1.1-3.5-3-3.5s-3 1.7-3 3.5 1.1 3.5 3 3.5 3-1.6 3-3.5zM346.6 365.4l-2.3-7-2.3 7h-.9l-2.7-8.2h1l2.2 7 2.3-7h.8l2.3 7 2.2-7h1l-2.7 8.2h-.9zM363.3 365.4v-11.3h3.6c3.5 0 5.7 2.6 5.7 5.7s-2.2 5.7-5.7 5.7h-3.6zm8.3-5.6c0-2.7-1.7-4.8-4.7-4.8h-2.7v9.6h2.7c3-.1 4.7-2.2 4.7-4.8zM376.5 355.2c0-.4.3-.7.7-.7.4 0 .7.3.7.7s-.3.7-.7.7c-.4 0-.7-.3-.7-.7zm.2 10.2v-8.2h.9v8.2h-.9zM382 365.4v-8.2h.9v1.4c.7-.9 1.6-1.6 2.8-1.6v1h-.4c-.8 0-2 .7-2.3 1.5v6h-1zM388.6 361.3c0-2.4 1.7-4.3 4-4.3 2.5 0 3.9 2 3.9 4.4v.2h-6.9c.1 1.8 1.3 3.3 3.2 3.3 1 0 2-.4 2.7-1.1l.5.6c-.8.8-1.9 1.3-3.2 1.3-2.4-.1-4.2-1.9-4.2-4.4zm4-3.5c-1.9 0-2.9 1.7-3 3.1h6c0-1.4-1-3.1-3-3.1zM400 361.3c0-2.4 1.6-4.3 4-4.3 1.4 0 2.2.6 2.9 1.4l-.6.5c-.6-.8-1.3-1.1-2.2-1.1-1.9 0-3.1 1.5-3.1 3.5s1.2 3.5 3.1 3.5c.9 0 1.6-.3 2.2-1.2l.6.5c-.7.8-1.5 1.4-2.9 1.4-2.4.1-4-1.8-4-4.2zM410.7 363.8V358h-1.4v-.8h1.4V355h.9v2.2h1.7v.8h-1.7v5.7c0 .7.3 1.1.9 1.1.4 0 .7-.2.9-.4l.3.7c-.3.3-.7.5-1.4.5-1 0-1.6-.6-1.6-1.8zM416.7 355.2c0-.4.3-.7.7-.7.4 0 .7.3.7.7s-.3.7-.7.7c-.4 0-.7-.3-.7-.7zm.2 10.2v-8.2h.9v8.2h-.9zM427.8 365.4v-5.6c0-1.6-.8-2.1-2-2.1-1.1 0-2.1.7-2.7 1.4v6.2h-.9v-8.2h.9v1.2c.6-.7 1.8-1.4 3-1.4 1.7 0 2.6.8 2.6 2.7v5.7h-.9zM433.2 367.5l.5-.7c.7.8 1.5 1.2 2.7 1.2 1.5 0 2.8-.7 2.8-2.6v-1.3c-.6.8-1.6 1.5-2.9 1.5-2.2 0-3.7-1.6-3.7-4.3 0-2.6 1.5-4.3 3.7-4.3 1.2 0 2.2.6 2.9 1.5v-1.3h.9v8.1c0 2.5-1.7 3.4-3.7 3.4-1.4.1-2.3-.2-3.2-1.2zm6-4.2v-4c-.5-.8-1.6-1.5-2.7-1.5-1.8 0-2.9 1.5-2.9 3.5s1.1 3.5 2.9 3.5c1.1 0 2.2-.7 2.7-1.5zM455.9 363c-1 0-1.8-.8-1.8-1.7 0-1 .8-1.8 1.8-1.8s1.8.8 1.8 1.8-.8 1.7-1.8 1.7zM471.3 359.8c0-3.5 2.5-5.9 5.7-5.9 1.8 0 3.2.8 4.1 2l-.8.5c-.7-1-2-1.6-3.3-1.6-2.7 0-4.7 2-4.7 5 0 2.9 2.1 5 4.7 5 1.4 0 2.6-.7 3.3-1.6l.8.5c-1 1.2-2.3 2-4.1 2-3.1-.1-5.7-2.4-5.7-5.9zM492.1 365.4v-5.6c0-1.6-.8-2-2-2-1.1 0-2.1.7-2.7 1.4v6.2h-.9v-11.3h.9v4.4c.6-.7 1.8-1.4 3-1.4 1.7 0 2.6.8 2.6 2.6v5.8h-.9zM498.6 361.3c0-2.4 1.5-4.3 3.9-4.3s4 1.9 4 4.3-1.5 4.3-4 4.3c-2.3 0-3.9-1.9-3.9-4.3zm7 0c0-1.8-1.1-3.5-3-3.5s-3 1.7-3 3.5 1.1 3.5 3 3.5 3-1.6 3-3.5zM512.2 365.4v-8.2h.9v1.4c.7-.9 1.6-1.6 2.8-1.6v1h-.4c-.8 0-2 .7-2.3 1.5v6h-1zM520.5 361.3c0-2.4 1.7-4.3 4-4.3 2.5 0 3.9 2 3.9 4.4v.2h-6.9c.1 1.8 1.3 3.3 3.2 3.3 1 0 2-.4 2.7-1.1l.5.6c-.8.8-1.9 1.3-3.2 1.3-2.4-.1-4.2-1.9-4.2-4.4zm4-3.5c-1.9 0-2.9 1.7-3 3.1h6c0-1.4-1-3.1-3-3.1zM533.6 361.3c0-2.4 1.5-4.3 3.9-4.3s4 1.9 4 4.3-1.5 4.3-4 4.3c-2.4 0-3.9-1.9-3.9-4.3zm6.9 0c0-1.8-1.1-3.5-3-3.5s-3 1.7-3 3.5 1.1 3.5 3 3.5c2 0 3-1.6 3-3.5zM547.2 367.5l.5-.7c.7.8 1.5 1.2 2.7 1.2 1.5 0 2.8-.7 2.8-2.6v-1.3c-.6.8-1.6 1.5-2.9 1.5-2.2 0-3.7-1.6-3.7-4.3 0-2.6 1.5-4.3 3.7-4.3 1.2 0 2.2.6 2.9 1.5v-1.3h.9v8.1c0 2.5-1.7 3.4-3.7 3.4-1.4.1-2.2-.2-3.2-1.2zm6-4.2v-4c-.5-.8-1.6-1.5-2.7-1.5-1.8 0-2.9 1.5-2.9 3.5s1.1 3.5 2.9 3.5c1.2 0 2.2-.7 2.7-1.5zM560.3 365.4v-8.2h.9v1.4c.7-.9 1.6-1.6 2.8-1.6v1h-.4c-.8 0-2 .7-2.3 1.5v6h-1zM574.3 365.4v-1c-.7.8-1.6 1.2-2.8 1.2-1.4 0-2.9-1-2.9-2.7 0-1.8 1.4-2.7 2.9-2.7 1.1 0 2.1.4 2.8 1.2v-1.7c0-1.2-1-1.9-2.2-1.9-1 0-1.8.4-2.6 1.2l-.5-.6c.8-.9 1.8-1.4 3.2-1.4 1.7 0 3 .8 3 2.6v5.8h-.9zm0-1.6V362c-.6-.7-1.5-1.1-2.5-1.1-1.4 0-2.2.9-2.2 2 0 1.2.9 2 2.2 2 1 0 1.9-.3 2.5-1.1zM582.2 364.1v4.5h-.9v-11.3h.9v1.3c.6-.8 1.6-1.5 2.9-1.5 2.2 0 3.7 1.7 3.7 4.3 0 2.6-1.5 4.3-3.7 4.3-1.2-.1-2.3-.7-2.9-1.6zm5.6-2.8c0-2-1-3.5-2.9-3.5-1.1 0-2.2.7-2.7 1.5v4.1c.5.8 1.6 1.5 2.7 1.5 1.8-.1 2.9-1.6 2.9-3.6zM599.9 365.4v-5.6c0-1.6-.8-2-2-2-1.1 0-2.1.7-2.7 1.4v6.2h-.9v-11.3h.9v4.4c.6-.7 1.8-1.4 3-1.4 1.7 0 2.6.8 2.6 2.6v5.8h-.9zM606.7 355.2c0-.4.3-.7.7-.7.4 0 .7.3.7.7s-.3.7-.7.7c-.4 0-.7-.3-.7-.7zm.2 10.2v-8.2h.9v8.2h-.9zM619.5 365.4v-5.6c0-1.6-.8-2.1-2-2.1-1.1 0-2.1.7-2.7 1.4v6.2h-.8v-8.2h.9v1.2c.6-.7 1.8-1.4 3-1.4 1.7 0 2.6.8 2.6 2.7v5.7h-1zM626.6 367.5l.5-.7c.7.8 1.5 1.2 2.7 1.2 1.5 0 2.8-.7 2.8-2.6v-1.3c-.6.8-1.6 1.5-2.9 1.5-2.2 0-3.7-1.6-3.7-4.3 0-2.6 1.5-4.3 3.7-4.3 1.2 0 2.2.6 2.9 1.5v-1.3h.9v8.1c0 2.5-1.7 3.4-3.7 3.4-1.4.1-2.3-.2-3.2-1.2zm6-4.2v-4c-.5-.8-1.6-1.5-2.7-1.5-1.8 0-2.9 1.5-2.9 3.5s1.1 3.5 2.9 3.5c1.1 0 2.2-.7 2.7-1.5zM653.7 363c-1 0-1.8-.8-1.8-1.7 0-1 .8-1.8 1.8-1.8s1.8.8 1.8 1.8-.8 1.7-1.8 1.7zM673.6 359.8c0-3.5 2.7-5.9 6-5.9 1.9 0 3.3.8 4.3 2l-.9.5c-.8-1-2.1-1.6-3.5-1.6-2.8 0-5 2-5 5 0 2.9 2.2 5 5 5 1.4 0 2.7-.7 3.5-1.6l.9.5c-1.1 1.2-2.5 2-4.3 2-3.4-.1-6-2.4-6-5.9zM689.1 361.3c0-2.4 1.6-4.3 4.2-4.3s4.2 1.9 4.2 4.3-1.6 4.3-4.2 4.3-4.2-1.9-4.2-4.3zm7.3 0c0-1.8-1.1-3.5-3.2-3.5-2 0-3.2 1.7-3.2 3.5s1.1 3.5 3.2 3.5 3.2-1.6 3.2-3.5zM703.4 365.4v-11.3h.9v11.3h-.9zM710.8 365.4v-11.3h.9v11.3h-.9zM723.7 365.4v-1c-.8.8-1.7 1.2-2.9 1.2-1.5 0-3-1-3-2.7 0-1.8 1.5-2.7 3-2.7 1.2 0 2.2.4 2.9 1.2v-1.7c0-1.2-1-1.9-2.3-1.9-1.1 0-1.9.4-2.7 1.2l-.5-.6c.9-.9 1.9-1.4 3.3-1.4 1.8 0 3.1.8 3.1 2.6v5.8h-.9zm0-1.6V362c-.6-.7-1.6-1.1-2.6-1.1-1.4 0-2.4.9-2.4 2 0 1.2.9 2 2.4 2 1 0 2-.3 2.6-1.1zM731.1 365.4v-11.3h.9v4.5c.7-.9 1.8-1.5 3-1.5 2.3 0 3.9 1.7 3.9 4.3 0 2.6-1.6 4.3-3.9 4.3-1.3 0-2.4-.7-3-1.5v1.3h-.9zm3.8-.6c1.9 0 3-1.5 3-3.5s-1.1-3.5-3-3.5c-1.2 0-2.3.7-2.8 1.5v4.1c.4.8 1.6 1.4 2.8 1.4zM744.4 361.3c0-2.4 1.6-4.3 4.2-4.3s4.2 1.9 4.2 4.3-1.6 4.3-4.2 4.3-4.2-1.9-4.2-4.3zm7.3 0c0-1.8-1.1-3.5-3.2-3.5-2 0-3.2 1.7-3.2 3.5s1.1 3.5 3.2 3.5 3.2-1.6 3.2-3.5zM758.7 365.4v-8.2h.9v1.4c.7-.9 1.7-1.6 2.9-1.6v1h-.5c-.9 0-2.1.7-2.5 1.5v6h-.8zM773.4 365.4v-1c-.8.8-1.7 1.2-2.9 1.2-1.5 0-3-1-3-2.7 0-1.8 1.5-2.7 3-2.7 1.2 0 2.2.4 2.9 1.2v-1.7c0-1.2-1-1.9-2.3-1.9-1.1 0-1.9.4-2.7 1.2l-.5-.6c.9-.9 1.9-1.4 3.3-1.4 1.8 0 3.1.8 3.1 2.6v5.8h-.9zm0-1.6V362c-.6-.7-1.6-1.1-2.6-1.1-1.4 0-2.4.9-2.4 2 0 1.2.9 2 2.4 2 1.1 0 2-.3 2.6-1.1zM781 363.8V358h-1.4v-.8h1.4V355h.9v2.2h1.8v.8H782v5.7c0 .7.3 1.1.9 1.1.4 0 .8-.2 1-.4l.4.7c-.3.3-.8.5-1.5.5-1.2 0-1.8-.6-1.8-1.8zM789.1 355.2c0-.4.3-.7.7-.7.4 0 .7.3.7.7s-.3.7-.7.7c-.4 0-.7-.3-.7-.7zm.2 10.2v-8.2h.9v8.2h-.9zM802.6 365.4v-5.6c0-1.6-.8-2.1-2.1-2.1-1.1 0-2.3.7-2.8 1.4v6.2h-.9v-8.2h.9v1.2c.6-.7 1.9-1.4 3.1-1.4 1.8 0 2.7.8 2.7 2.7v5.7h-.9zM810 367.5l.5-.7c.8.8 1.6 1.2 2.9 1.2 1.6 0 3-.7 3-2.6v-1.3c-.6.8-1.7 1.5-3 1.5-2.3 0-3.9-1.6-3.9-4.3 0-2.6 1.6-4.3 3.9-4.3 1.2 0 2.3.6 3 1.5v-1.3h.9v8.1c0 2.5-1.8 3.4-3.9 3.4-1.5.1-2.4-.2-3.4-1.2zm6.4-4.2v-4c-.5-.8-1.6-1.5-2.8-1.5-1.9 0-3 1.5-3 3.5s1.1 3.5 3 3.5c1.1 0 2.2-.7 2.8-1.5z"/></g><g fill="#FFF"><path d="M320.8 251.7v-11.3h4.5c2.3 0 3.6 1.5 3.6 3.3 0 1.8-1.3 3.3-3.6 3.3h-3.5v4.7h-1zm7-8c0-1.4-1.1-2.4-2.6-2.4h-3.3v4.9h3.3c1.6-.1 2.6-1.1 2.6-2.5zM340.4 251.7v-5.6c0-1.6-.8-2-2.1-2-1.1 0-2.3.7-2.8 1.4v6.2h-.9v-11.3h.9v4.4c.6-.7 1.9-1.4 3.1-1.4 1.8 0 2.7.8 2.7 2.6v5.8h-.9zM347.3 247.6c0-2.4 1.6-4.3 4.2-4.3s4.2 1.9 4.2 4.3-1.6 4.3-4.2 4.3-4.2-1.9-4.2-4.3zm7.3 0c0-1.8-1.1-3.5-3.2-3.5-2 0-3.1 1.7-3.1 3.5s1.1 3.5 3.1 3.5c2.1 0 3.2-1.7 3.2-3.5zM361.8 250.1v-5.8h-1.4v-.8h1.4v-2.2h.9v2.2h1.8v.8h-1.8v5.7c0 .7.3 1.1.9 1.1.4 0 .8-.2 1-.4l.4.7c-.3.3-.8.5-1.5.5-1.2 0-1.7-.7-1.7-1.8zM369.6 247.6c0-2.4 1.6-4.3 4.2-4.3s4.2 1.9 4.2 4.3-1.6 4.3-4.2 4.3-4.2-1.9-4.2-4.3zm7.3 0c0-1.8-1.1-3.5-3.2-3.5-2 0-3.1 1.7-3.1 3.5s1.1 3.5 3.1 3.5c2.1 0 3.2-1.7 3.2-3.5zM383.1 250.6l.6-.7c.6.7 1.6 1.2 2.8 1.2 1.4 0 2.3-.7 2.3-1.7 0-2.2-5.5-1-5.5-3.9 0-1.3 1.1-2.3 3.1-2.3 1.5 0 2.5.5 3.1 1.2l-.5.6c-.5-.6-1.4-1.1-2.6-1.1-1.3 0-2.2.6-2.2 1.5 0 2.1 5.5.8 5.5 4 0 1.3-1.1 2.4-3.2 2.4-1.4.1-2.5-.3-3.4-1.2zM401.5 251.7v-5.6c0-1.6-.8-2-2.1-2-1.1 0-2.3.7-2.8 1.4v6.2h-.9v-11.3h.9v4.4c.6-.7 1.9-1.4 3.1-1.4 1.8 0 2.7.8 2.7 2.6v5.8h-.9zM408.4 247.6c0-2.4 1.6-4.3 4.2-4.3s4.2 1.9 4.2 4.3-1.6 4.3-4.2 4.3c-2.5 0-4.2-1.9-4.2-4.3zm7.3 0c0-1.8-1.1-3.5-3.2-3.5-2 0-3.1 1.7-3.1 3.5s1.1 3.5 3.1 3.5c2.1 0 3.2-1.7 3.2-3.5zM422.2 247.6c0-2.4 1.6-4.3 4.2-4.3s4.2 1.9 4.2 4.3-1.6 4.3-4.2 4.3c-2.5 0-4.2-1.9-4.2-4.3zm7.3 0c0-1.8-1.1-3.5-3.2-3.5-2 0-3.1 1.7-3.1 3.5s1.1 3.5 3.1 3.5c2.1 0 3.2-1.7 3.2-3.5zM436.7 250.1v-5.8h-1.4v-.8h1.4v-2.2h.9v2.2h1.8v.8h-1.8v5.7c0 .7.3 1.1.9 1.1.4 0 .8-.2 1-.4l.4.7c-.3.3-.8.5-1.5.5-1.1 0-1.7-.7-1.7-1.8zM444.8 241.5c0-.4.3-.7.7-.7.4 0 .7.3.7.7s-.3.7-.7.7c-.4 0-.7-.3-.7-.7zm.2 10.2v-8.2h.9v8.2h-.9zM458.3 251.7v-5.6c0-1.6-.8-2.1-2.1-2.1-1.1 0-2.3.7-2.8 1.4v6.2h-.9v-8.2h.9v1.2c.6-.7 1.9-1.4 3.1-1.4 1.8 0 2.7.8 2.7 2.7v5.7h-.9zM465.7 253.8l.5-.7c.8.8 1.6 1.2 2.9 1.2 1.6 0 3-.7 3-2.6v-1.3c-.6.8-1.7 1.5-3 1.5-2.3 0-3.9-1.6-3.9-4.3 0-2.6 1.6-4.3 3.9-4.3 1.2 0 2.3.6 3 1.5v-1.3h.9v8.1c0 2.5-1.8 3.4-3.9 3.4-1.5 0-2.4-.2-3.4-1.2zm6.3-4.2v-4c-.5-.8-1.6-1.5-2.8-1.5-1.9 0-3 1.5-3 3.5s1.1 3.5 3 3.5c1.2 0 2.3-.7 2.8-1.5zM493.5 249.3c-1 0-1.8-.8-1.8-1.7 0-1 .8-1.8 1.8-1.8s1.8.8 1.8 1.8c0 .9-.8 1.7-1.8 1.7zM517.7 251.7l-4.9-11.3h1.2l4.3 10.2 4.3-10.2h1.2l-4.9 11.3h-1.2zM528.9 241.5c0-.4.3-.7.7-.7.4 0 .7.3.7.7s-.3.7-.7.7c-.4 0-.7-.3-.7-.7zm.2 10.2v-8.2h.9v8.2h-.9zM542.9 251.7v-1.3c-.6.8-1.7 1.5-3 1.5-2.3 0-3.9-1.7-3.9-4.3 0-2.6 1.6-4.3 3.9-4.3 1.2 0 2.3.6 3 1.5v-4.5h.9v11.3h-.9zm0-2.1v-4.1c-.5-.8-1.6-1.5-2.8-1.5-1.9 0-3 1.5-3 3.5s1.1 3.5 3 3.5c1.2.1 2.3-.6 2.8-1.4zM549.8 247.6c0-2.4 1.8-4.3 4.2-4.3 2.6 0 4.1 2 4.1 4.4v.2h-7.2c.1 1.8 1.3 3.3 3.4 3.3 1.1 0 2.1-.4 2.8-1.1l.5.6c-.9.9-2 1.3-3.4 1.3-2.6-.1-4.4-1.9-4.4-4.4zm4.2-3.6c-2 0-3.1 1.7-3.1 3.1h6.3c-.1-1.3-1-3.1-3.2-3.1zM563.6 247.6c0-2.4 1.6-4.3 4.2-4.3s4.2 1.9 4.2 4.3-1.6 4.3-4.2 4.3-4.2-1.9-4.2-4.3zm7.3 0c0-1.8-1.1-3.5-3.2-3.5-2 0-3.2 1.7-3.2 3.5s1.1 3.5 3.2 3.5 3.2-1.7 3.2-3.5zM577.1 250.6l.6-.7c.6.7 1.6 1.2 2.8 1.2 1.5 0 2.3-.7 2.3-1.7 0-2.2-5.5-1-5.5-3.9 0-1.3 1.1-2.3 3.1-2.3 1.5 0 2.5.5 3.1 1.2l-.5.6c-.5-.6-1.4-1.1-2.6-1.1-1.3 0-2.2.6-2.2 1.5 0 2.1 5.5.8 5.5 4 0 1.3-1.1 2.4-3.2 2.4-1.5.1-2.5-.3-3.4-1.2zM595.5 251.7v-5.6c0-1.6-.8-2-2.1-2-1.1 0-2.3.7-2.8 1.4v6.2h-.9v-11.3h.9v4.4c.6-.7 1.9-1.4 3.1-1.4 1.8 0 2.7.8 2.7 2.6v5.8h-.9zM602.4 247.6c0-2.4 1.6-4.3 4.2-4.3s4.2 1.9 4.2 4.3-1.6 4.3-4.2 4.3-4.2-1.9-4.2-4.3zm7.3 0c0-1.8-1.1-3.5-3.2-3.5-2 0-3.2 1.7-3.2 3.5s1.1 3.5 3.2 3.5 3.2-1.7 3.2-3.5zM616.2 247.6c0-2.4 1.6-4.3 4.2-4.3s4.2 1.9 4.2 4.3-1.6 4.3-4.2 4.3-4.2-1.9-4.2-4.3zm7.3 0c0-1.8-1.1-3.5-3.2-3.5-2 0-3.2 1.7-3.2 3.5s1.1 3.5 3.2 3.5 3.2-1.7 3.2-3.5zM630.7 250.1v-5.8h-1.4v-.8h1.4v-2.2h.9v2.2h1.8v.8h-1.8v5.7c0 .7.3 1.1.9 1.1.4 0 .8-.2 1-.4l.4.7c-.3.3-.8.5-1.5.5-1.2 0-1.7-.7-1.7-1.8zM638.7 241.5c0-.4.3-.7.7-.7.4 0 .7.3.7.7s-.3.7-.7.7c-.3 0-.7-.3-.7-.7zm.3 10.2v-8.2h.9v8.2h-.9zM652.2 251.7v-5.6c0-1.6-.8-2.1-2.1-2.1-1.1 0-2.3.7-2.8 1.4v6.2h-.9v-8.2h.9v1.2c.6-.7 1.9-1.4 3.1-1.4 1.8 0 2.7.8 2.7 2.7v5.7h-.9zM659.6 253.8l.5-.7c.8.8 1.6 1.2 2.9 1.2 1.6 0 3-.7 3-2.6v-1.3c-.6.8-1.7 1.5-3 1.5-2.3 0-3.9-1.6-3.9-4.3 0-2.6 1.6-4.3 3.9-4.3 1.2 0 2.3.6 3 1.5v-1.3h.9v8.1c0 2.5-1.8 3.4-3.9 3.4-1.4 0-2.3-.2-3.4-1.2zm6.4-4.2v-4c-.5-.8-1.6-1.5-2.8-1.5-1.9 0-3 1.5-3 3.5s1.1 3.5 3 3.5c1.1 0 2.3-.7 2.8-1.5zM687.5 249.3c-1 0-1.8-.8-1.8-1.7 0-1 .8-1.8 1.8-1.8s1.8.8 1.8 1.8c0 .9-.8 1.7-1.8 1.7zM718.1 251.7v-10l-4.3 10h-.4l-4.4-10v10h-1v-11.3h1.5l4.1 9.3 4-9.3h1.5v11.3h-1zM725.2 247.6c0-2.4 1.6-4.3 4.2-4.3s4.2 1.9 4.2 4.3-1.6 4.3-4.2 4.3-4.2-1.9-4.2-4.3zm7.3 0c0-1.8-1.1-3.5-3.2-3.5-2 0-3.2 1.7-3.2 3.5s1.1 3.5 3.2 3.5 3.2-1.7 3.2-3.5zM745.8 251.7v-1.3c-.6.8-1.7 1.5-3 1.5-2.3 0-3.9-1.7-3.9-4.3 0-2.6 1.6-4.3 3.9-4.3 1.2 0 2.3.6 3 1.5v-4.5h.9v11.3h-.9zm0-2.1v-4.1c-.5-.8-1.6-1.5-2.8-1.5-1.9 0-3 1.5-3 3.5s1.1 3.5 3 3.5c1.2.1 2.3-.6 2.8-1.4zM752.7 247.6c0-2.4 1.8-4.3 4.2-4.3 2.6 0 4.1 2 4.1 4.4v.2h-7.2c.1 1.8 1.3 3.3 3.4 3.3 1.1 0 2.1-.4 2.8-1.1l.5.6c-.9.9-2 1.3-3.4 1.3-2.5-.1-4.4-1.9-4.4-4.4zm4.2-3.6c-2 0-3.1 1.7-3.1 3.1h6.3c-.1-1.3-1-3.1-3.2-3.1zM767 251.7v-11.3h.9v11.3h-.9zM774.1 241.5c0-.4.3-.7.7-.7.4 0 .7.3.7.7s-.3.7-.7.7c-.3 0-.7-.3-.7-.7zm.3 10.2v-8.2h.9v8.2h-.9zM787.6 251.7v-5.6c0-1.6-.8-2.1-2.1-2.1-1.1 0-2.3.7-2.8 1.4v6.2h-.9v-8.2h.9v1.2c.6-.7 1.9-1.4 3.1-1.4 1.8 0 2.7.8 2.7 2.7v5.7h-.9zM795 253.8l.5-.7c.8.8 1.6 1.2 2.9 1.2 1.6 0 3-.7 3-2.6v-1.3c-.6.8-1.7 1.5-3 1.5-2.3 0-3.9-1.6-3.9-4.3 0-2.6 1.6-4.3 3.9-4.3 1.2 0 2.3.6 3 1.5v-1.3h.9v8.1c0 2.5-1.8 3.4-3.9 3.4-1.4 0-2.3-.2-3.4-1.2zm6.4-4.2v-4c-.5-.8-1.6-1.5-2.8-1.5-1.9 0-3 1.5-3 3.5s1.1 3.5 3 3.5c1.2 0 2.3-.7 2.8-1.5z"/></g><g fill="#FFF"><path d="M410 151.7l.6-.7c.7.9 1.9 1.6 3.5 1.6 2.3 0 3-1.3 3-2.3 0-3.3-6.8-1.6-6.8-5.6 0-1.9 1.7-3 3.7-3 1.7 0 3 .6 3.8 1.6l-.6.7c-.8-1-2-1.4-3.2-1.4-1.5 0-2.7.9-2.7 2.1 0 2.9 6.8 1.3 6.8 5.5 0 1.5-1 3.2-4 3.2-1.9.2-3.3-.6-4.1-1.7zM423.4 149.2c0-2.4 1.5-4.3 3.9-4.3s4 1.9 4 4.3-1.5 4.3-4 4.3c-2.4.1-3.9-1.9-3.9-4.3zm6.9 0c0-1.8-1.1-3.5-3-3.5s-3 1.7-3 3.5 1.1 3.5 3 3.5c1.9.1 3-1.6 3-3.5zM442.2 153.3v-1c-.7.8-1.6 1.2-2.8 1.2-1.4 0-2.9-1-2.9-2.7 0-1.8 1.4-2.7 2.9-2.7 1.1 0 2.1.4 2.8 1.2v-1.7c0-1.2-1-1.9-2.2-1.9-1 0-1.8.4-2.6 1.2l-.5-.6c.9-.9 1.8-1.4 3.2-1.4 1.7 0 3 .8 3 2.6v5.8h-.9zm0-1.6v-1.8c-.6-.7-1.5-1.1-2.5-1.1-1.4 0-2.2.9-2.2 2 0 1.2.9 2 2.2 2 1 .1 1.9-.3 2.5-1.1zM449.2 153.3v-8.2h.9v1.4c.7-.9 1.6-1.6 2.8-1.6v1h-.4c-.8 0-2 .7-2.3 1.5v6h-1zM457.7 143.2c0-.4.3-.7.7-.7.4 0 .7.3.7.7s-.3.7-.7.7c-.3-.1-.7-.4-.7-.7zm.3 10.1v-8.2h.9v8.2h-.9zM470.6 153.3v-5.6c0-1.6-.8-2.1-2-2.1-1.1 0-2.1.7-2.7 1.4v6.2h-.9V145h.9v1.2c.6-.7 1.8-1.4 3-1.4 1.7 0 2.6.8 2.6 2.7v5.7h-.9zM477.6 155.4l.5-.7c.7.8 1.5 1.2 2.7 1.2 1.5 0 2.8-.7 2.8-2.6V152c-.6.8-1.6 1.5-2.9 1.5-2.2 0-3.7-1.6-3.7-4.3 0-2.6 1.5-4.3 3.7-4.3 1.2 0 2.2.6 2.9 1.5v-1.3h.9v8.1c0 2.5-1.7 3.4-3.7 3.4-1.3.1-2.2-.2-3.2-1.2zm6.1-4.2v-4c-.5-.8-1.6-1.5-2.7-1.5-1.8 0-2.9 1.5-2.9 3.5s1.1 3.5 2.9 3.5c1.1 0 2.2-.7 2.7-1.5zM527.6 153.3V142h4.7c1.9 0 3.1 1.1 3.1 2.9 0 1.4-1 2.4-2 2.6 1.2.2 2.2 1.4 2.2 2.8 0 1.9-1.2 3.1-3.2 3.1h-4.8zm6.8-8.3c0-1.2-.8-2.1-2.2-2.1h-3.6v4.2h3.6c1.4 0 2.2-.9 2.2-2.1zm.2 5.2c0-1.2-.8-2.2-2.4-2.2h-3.6v4.5h3.6c1.5 0 2.4-.9 2.4-2.3zM546.6 153.3v-1c-.7.8-1.6 1.2-2.8 1.2-1.4 0-2.9-1-2.9-2.7 0-1.8 1.4-2.7 2.9-2.7 1.1 0 2.1.4 2.8 1.2v-1.7c0-1.2-1-1.9-2.2-1.9-1 0-1.8.4-2.6 1.2l-.5-.6c.8-.9 1.8-1.4 3.2-1.4 1.7 0 3 .8 3 2.6v5.8h-.9zm0-1.6v-1.8c-.6-.7-1.5-1.1-2.5-1.1-1.4 0-2.2.9-2.2 2 0 1.2.9 2 2.2 2 1 .1 1.9-.3 2.5-1.1zM553.7 153.3V142h.9v11.3h-.9zM560.7 153.3V142h.9v11.3h-.9zM567 152.3l.5-.7c.5.7 1.5 1.2 2.7 1.2 1.4 0 2.2-.7 2.2-1.7 0-2.2-5.2-1-5.2-3.9 0-1.3 1.1-2.3 2.9-2.3 1.4 0 2.3.5 2.9 1.2l-.5.6c-.5-.6-1.4-1.1-2.4-1.1-1.3 0-2.1.6-2.1 1.5 0 2.1 5.2.8 5.2 4 0 1.3-1 2.4-3.1 2.4-1.2.1-2.3-.3-3.1-1.2zM615.2 151.7l.6-.7c.7.9 1.9 1.6 3.5 1.6 2.3 0 3-1.3 3-2.3 0-3.3-6.8-1.6-6.8-5.6 0-1.9 1.7-3 3.7-3 1.7 0 3 .6 3.8 1.6l-.6.7c-.8-1-2-1.4-3.2-1.4-1.5 0-2.7.9-2.7 2.1 0 2.9 6.8 1.3 6.8 5.5 0 1.5-1 3.2-4 3.2-1.8.2-3.2-.6-4.1-1.7zM634.6 153.3v-5.6c0-1.6-.8-2-2-2-1.1 0-2.1.7-2.7 1.4v6.2h-.9V142h.9v4.4c.6-.7 1.8-1.4 3-1.4 1.7 0 2.6.8 2.6 2.6v5.8h-.9zM641.2 149.2c0-2.4 1.5-4.3 3.9-4.3s4 1.9 4 4.3-1.5 4.3-4 4.3c-2.4.1-3.9-1.9-3.9-4.3zm7 0c0-1.8-1.1-3.5-3-3.5s-3 1.7-3 3.5 1.1 3.5 3 3.5c1.9.1 3-1.6 3-3.5zM661.8 153.3l-2.3-7-2.3 7h-.8l-2.7-8.2h1l2.2 7 2.3-7h.8l2.3 7 2.2-7h1l-2.7 8.2h-1zM669.9 149.2c0-2.4 1.6-4.3 4-4.3 1.4 0 2.2.6 2.9 1.4l-.6.5c-.6-.8-1.3-1.1-2.2-1.1-1.9 0-3.1 1.5-3.1 3.5s1.2 3.5 3.1 3.5c.9 0 1.6-.3 2.2-1.2l.6.5c-.7.8-1.5 1.4-2.9 1.4-2.4.2-4-1.8-4-4.2zM687.4 153.3v-1c-.7.8-1.6 1.2-2.8 1.2-1.4 0-2.9-1-2.9-2.7 0-1.8 1.4-2.7 2.9-2.7 1.1 0 2.1.4 2.8 1.2v-1.7c0-1.2-1-1.9-2.2-1.9-1 0-1.8.4-2.6 1.2l-.5-.6c.8-.9 1.8-1.4 3.2-1.4 1.7 0 3 .8 3 2.6v5.8h-.9zm0-1.6v-1.8c-.6-.7-1.5-1.1-2.5-1.1-1.4 0-2.2.9-2.2 2 0 1.2.9 2 2.2 2 1 .1 1.9-.3 2.5-1.1zM693.7 152.3l.5-.7c.5.7 1.5 1.2 2.7 1.2 1.4 0 2.2-.7 2.2-1.7 0-2.2-5.2-1-5.2-3.9 0-1.3 1.1-2.3 2.9-2.3 1.4 0 2.3.5 2.9 1.2l-.5.6c-.5-.6-1.4-1.1-2.4-1.1-1.3 0-2.1.6-2.1 1.5 0 2.1 5.2.8 5.2 4 0 1.3-1 2.4-3.1 2.4-1.2.1-2.2-.3-3.1-1.2zM705.2 149.2c0-2.4 1.7-4.3 4-4.3 2.5 0 3.9 2 3.9 4.4v.2h-6.9c.1 1.8 1.3 3.3 3.2 3.3 1 0 2-.4 2.7-1.1l.5.6c-.8.8-1.9 1.3-3.2 1.3-2.5 0-4.2-1.8-4.2-4.4zm3.9-3.5c-1.9 0-2.9 1.7-3 3.1h6c0-1.4-.9-3.1-3-3.1z"/></g><g fill="#FFF"><path d="M329.3 414.1c0-3.5 2.5-5.9 5.7-5.9 1.8 0 3.2.8 4.1 2l-.8.5c-.7-1-2-1.6-3.3-1.6-2.7 0-4.7 2-4.7 5 0 2.9 2.1 5 4.7 5 1.4 0 2.6-.7 3.3-1.6l.8.5c-1 1.2-2.3 2-4.1 2-3.2 0-5.7-2.4-5.7-5.9zM350 419.8v-5.6c0-1.6-.8-2-2-2-1.1 0-2.1.7-2.7 1.4v6.2h-.9v-11.3h.9v4.4c.6-.7 1.8-1.4 3-1.4 1.7 0 2.6.8 2.6 2.6v5.8h-.9zM356.8 409.6c0-.4.3-.7.7-.7.4 0 .7.3.7.7s-.3.7-.7.7c-.3 0-.7-.3-.7-.7zm.3 10.2v-8.2h.9v8.2h-.9zM364.1 419.8v-11.3h.9v11.3h-.9zM377.2 419.8v-1.3c-.6.8-1.6 1.5-2.9 1.5-2.2 0-3.7-1.7-3.7-4.3 0-2.6 1.5-4.3 3.7-4.3 1.2 0 2.2.6 2.9 1.5v-4.5h.9v11.3h-.9zm0-2.1v-4.1c-.5-.8-1.5-1.5-2.7-1.5-1.8 0-2.9 1.5-2.9 3.5s1.1 3.5 2.9 3.5c1.2.1 2.2-.6 2.7-1.4zM384.3 419.8v-8.2h.9v1.4c.7-.9 1.6-1.6 2.8-1.6v1h-.4c-.8 0-2 .7-2.3 1.5v6h-1zM392.6 415.7c0-2.4 1.7-4.3 4-4.3 2.5 0 3.9 2 3.9 4.4v.2h-6.9c.1 1.8 1.3 3.3 3.2 3.3 1 0 2-.4 2.7-1.1l.5.6c-.8.9-1.9 1.3-3.2 1.3-2.5-.1-4.2-1.9-4.2-4.4zm3.9-3.6c-1.9 0-2.9 1.7-3 3.1h6c0-1.3-.9-3.1-3-3.1zM411.6 419.8v-5.6c0-1.6-.8-2.1-2-2.1-1.1 0-2.1.7-2.7 1.4v6.2h-.9v-8.2h.9v1.2c.6-.7 1.8-1.4 3-1.4 1.7 0 2.6.8 2.6 2.7v5.7h-.9zM429.2 419.8v-11.3h7.2v.9h-6.2v4.2h6.1v.9h-6.1v5.4h-1zM447.3 419.8v-1.2c-.7.7-1.8 1.4-3 1.4-1.7 0-2.6-.8-2.6-2.6v-5.8h.9v5.6c0 1.6.8 2 2 2 1.1 0 2.1-.6 2.7-1.4v-6.3h.9v8.2h-.9zM459.9 419.8v-5.6c0-1.6-.8-2.1-2-2.1-1.1 0-2.1.7-2.7 1.4v6.2h-.9v-8.2h.9v1.2c.6-.7 1.8-1.4 3-1.4 1.7 0 2.6.8 2.6 2.7v5.7h-.9zM476.8 418.2l.6-.7c.7.9 1.9 1.6 3.5 1.6 2.3 0 3-1.3 3-2.3 0-3.3-6.8-1.6-6.8-5.6 0-1.9 1.7-3 3.7-3 1.7 0 3 .6 3.8 1.6l-.6.7c-.8-1-2-1.4-3.2-1.4-1.5 0-2.7.9-2.7 2.1 0 2.9 6.8 1.3 6.8 5.5 0 1.5-1 3.2-4 3.2-1.9.1-3.3-.7-4.1-1.7zM496.2 419.8v-5.6c0-1.6-.8-2-2-2-1.1 0-2.1.7-2.7 1.4v6.2h-.9v-11.3h.9v4.4c.6-.7 1.8-1.4 3-1.4 1.7 0 2.6.8 2.6 2.6v5.8h-.9zM502.7 415.7c0-2.4 1.5-4.3 3.9-4.3s4 1.9 4 4.3-1.5 4.3-4 4.3c-2.3 0-3.9-1.9-3.9-4.3zm7 0c0-1.8-1.1-3.5-3-3.5s-3 1.7-3 3.5 1.1 3.5 3 3.5 3-1.7 3-3.5zM523.4 419.8l-2.3-7-2.3 7h-.8l-2.7-8.2h1l2.2 7 2.3-7h.8l2.3 7 2.2-7h1l-2.7 8.2h-1zM531.5 415.7c0-2.4 1.6-4.3 4-4.3 1.4 0 2.2.6 2.9 1.4l-.6.5c-.6-.8-1.3-1.1-2.2-1.1-1.9 0-3.1 1.5-3.1 3.5s1.2 3.5 3.1 3.5c.9 0 1.6-.3 2.2-1.2l.6.5c-.7.8-1.5 1.4-2.9 1.4-2.4.1-4-1.8-4-4.2zM549 419.8v-1c-.7.8-1.6 1.2-2.8 1.2-1.4 0-2.9-1-2.9-2.7 0-1.8 1.4-2.7 2.9-2.7 1.1 0 2.1.4 2.8 1.2V414c0-1.2-1-1.9-2.2-1.9-1 0-1.8.4-2.6 1.2l-.5-.6c.8-.9 1.8-1.4 3.2-1.4 1.7 0 3 .8 3 2.6v5.8h-.9zm0-1.6v-1.8c-.6-.7-1.5-1.1-2.5-1.1-1.4 0-2.2.9-2.2 2 0 1.2.9 2 2.2 2 1 0 1.9-.4 2.5-1.1zM555.3 418.7l.5-.7c.5.7 1.5 1.2 2.7 1.2 1.4 0 2.2-.7 2.2-1.7 0-2.2-5.2-1-5.2-3.9 0-1.3 1.1-2.3 2.9-2.3 1.4 0 2.3.5 2.9 1.2l-.5.6c-.5-.6-1.4-1.1-2.4-1.1-1.3 0-2.1.6-2.1 1.5 0 2.1 5.2.8 5.2 4 0 1.3-1 2.4-3.1 2.4-1.3.1-2.3-.3-3.1-1.2zM566.7 415.7c0-2.4 1.7-4.3 4-4.3 2.5 0 3.9 2 3.9 4.4v.2h-6.9c.1 1.8 1.3 3.3 3.2 3.3 1 0 2-.4 2.7-1.1l.5.6c-.8.9-1.9 1.3-3.2 1.3-2.5-.1-4.2-1.9-4.2-4.4zm4-3.6c-1.9 0-2.9 1.7-3 3.1h6c0-1.3-1-3.1-3-3.1zM592.4 417.4c-1 0-1.8-.8-1.8-1.7 0-1 .8-1.8 1.8-1.8s1.8.8 1.8 1.8c-.1.9-.8 1.7-1.8 1.7zM610.7 419.8v-11.3h4.7c1.9 0 3.1 1.1 3.1 2.9 0 1.4-1 2.4-2 2.6 1.2.2 2.2 1.4 2.2 2.8 0 1.9-1.2 3.1-3.2 3.1h-4.8zm6.8-8.4c0-1.2-.8-2.1-2.2-2.1h-3.6v4.2h3.6c1.4 0 2.2-.9 2.2-2.1zm.2 5.3c0-1.2-.8-2.2-2.4-2.2h-3.6v4.5h3.6c1.5-.1 2.4-1 2.4-2.3zM629.7 419.8v-1c-.7.8-1.6 1.2-2.8 1.2-1.4 0-2.9-1-2.9-2.7 0-1.8 1.4-2.7 2.9-2.7 1.1 0 2.1.4 2.8 1.2V414c0-1.2-1-1.9-2.2-1.9-1 0-1.8.4-2.6 1.2l-.5-.6c.8-.9 1.8-1.4 3.2-1.4 1.7 0 3 .8 3 2.6v5.8h-.9zm0-1.6v-1.8c-.6-.7-1.5-1.1-2.5-1.1-1.4 0-2.2.9-2.2 2 0 1.2.9 2 2.2 2 1 0 1.9-.4 2.5-1.1zM636.7 419.8v-11.3h.9v11.3h-.9zM643.8 419.8v-11.3h.9v11.3h-.9zM650.8 419.8v-8.2h.9v1.4c.7-.9 1.6-1.6 2.8-1.6v1h-.4c-.8 0-2 .7-2.3 1.5v6h-1zM659.4 409.6c0-.4.3-.7.7-.7.4 0 .7.3.7.7s-.3.7-.7.7c-.4 0-.7-.3-.7-.7zm.2 10.2v-8.2h.9v8.2h-.9zM672.7 419.8v-1.3c-.6.8-1.6 1.5-2.9 1.5-2.2 0-3.7-1.7-3.7-4.3 0-2.6 1.5-4.3 3.7-4.3 1.2 0 2.2.6 2.9 1.5v-4.5h.9v11.3h-.9zm0-2.1v-4.1c-.5-.8-1.5-1.5-2.7-1.5-1.8 0-2.9 1.5-2.9 3.5s1.1 3.5 2.9 3.5c1.2.1 2.2-.6 2.7-1.4zM679.3 415.7c0-2.4 1.7-4.3 4-4.3 2.5 0 3.9 2 3.9 4.4v.2h-6.9c.1 1.8 1.3 3.3 3.2 3.3 1 0 2-.4 2.7-1.1l.5.6c-.8.9-1.9 1.3-3.2 1.3-2.5-.1-4.2-1.9-4.2-4.4zm3.9-3.6c-1.9 0-2.9 1.7-3 3.1h6c0-1.3-.9-3.1-3-3.1zM703.3 419.8v-11.3h1v11.3h-1zM716 419.8v-5.6c0-1.6-.8-2.1-2-2.1-1.1 0-2.1.7-2.7 1.4v6.2h-.9v-8.2h.9v1.2c.6-.7 1.8-1.4 3-1.4 1.7 0 2.6.8 2.6 2.7v5.7h-.9zM723.2 418.2v-5.8h-1.4v-.8h1.4v-2.2h.9v2.2h1.7v.8h-1.7v5.7c0 .7.3 1.1.9 1.1.4 0 .7-.2.9-.4l.3.7c-.3.3-.7.5-1.4.5-1.1 0-1.6-.7-1.6-1.8zM730.6 415.7c0-2.4 1.7-4.3 4-4.3 2.5 0 3.9 2 3.9 4.4v.2h-6.9c.1 1.8 1.3 3.3 3.2 3.3 1 0 2-.4 2.7-1.1l.5.6c-.8.9-1.9 1.3-3.2 1.3-2.5-.1-4.2-1.9-4.2-4.4zm4-3.6c-1.9 0-2.9 1.7-3 3.1h6c-.1-1.3-1-3.1-3-3.1zM749.7 419.8v-5.6c0-1.6-.8-2.1-2-2.1-1.1 0-2.1.7-2.7 1.4v6.2h-.9v-8.2h.9v1.2c.6-.7 1.8-1.4 3-1.4 1.7 0 2.6.8 2.6 2.7v5.7h-.9zM756 418.7l.5-.7c.5.7 1.5 1.2 2.7 1.2 1.4 0 2.2-.7 2.2-1.7 0-2.2-5.2-1-5.2-3.9 0-1.3 1.1-2.3 2.9-2.3 1.4 0 2.3.5 2.9 1.2l-.5.6c-.5-.6-1.4-1.1-2.4-1.1-1.3 0-2.1.6-2.1 1.5 0 2.1 5.2.8 5.2 4 0 1.3-1 2.4-3.1 2.4-1.3.1-2.3-.3-3.1-1.2zM767.7 409.6c0-.4.3-.7.7-.7.4 0 .7.3.7.7s-.3.7-.7.7c-.4 0-.7-.3-.7-.7zm.2 10.2v-8.2h.9v8.2h-.9zM777.2 419.8l-3.5-8.2h1l3 7.2 3-7.2h1l-3.5 8.2h-1zM786.1 415.7c0-2.4 1.7-4.3 4-4.3 2.5 0 3.9 2 3.9 4.4v.2h-7c.1 1.8 1.3 3.3 3.2 3.3 1 0 2-.4 2.7-1.1l.5.6c-.8.9-1.9 1.3-3.2 1.3-2.4-.1-4.1-1.9-4.1-4.4zm3.9-3.6c-1.9 0-2.9 1.7-3 3.1h6c0-1.3-.9-3.1-3-3.1z"/></g><g fill="#FFF"><path d="M394.5 528.7v-10l-4.1 10h-.4l-4.1-10v10h-1v-11.3h1.4l3.9 9.3 3.8-9.3h1.5v11.3h-1zM407.2 528.7v-1.2c-.7.7-1.8 1.4-3 1.4-1.7 0-2.6-.8-2.6-2.6v-5.8h.9v5.6c0 1.6.8 2 2 2 1.1 0 2.1-.6 2.7-1.4v-6.3h.9v8.2h-.9zM414.2 528.7v-11.3h.9v11.3h-.9zM421.4 527.1v-5.8H420v-.8h1.4v-2.2h.9v2.2h1.7v.8h-1.7v5.7c0 .7.3 1.1.9 1.1.4 0 .7-.2.9-.4l.3.7c-.3.3-.7.5-1.4.5-1 0-1.6-.7-1.6-1.8zM429 531.1c.2.1.5.1.7.1.5 0 .9-.2 1.2-1l.6-1.5-3.5-8.3h1l3 7.2 3-7.2h1l-4.2 10c-.4 1-1.1 1.5-2.1 1.5-.3 0-.6-.1-.9-.1l.2-.7zM440.1 524.9v-.8h4.1v.8h-4.1zM449.4 528.7v-11.3h.9v11.3h-.9zM461.7 528.7v-1c-.7.8-1.6 1.2-2.8 1.2-1.4 0-2.9-1-2.9-2.7 0-1.8 1.4-2.7 2.9-2.7 1.1 0 2.1.4 2.8 1.2V523c0-1.2-1-1.9-2.2-1.9-1 0-1.8.4-2.6 1.2l-.5-.6c.9-.9 1.8-1.4 3.2-1.4 1.7 0 3 .8 3 2.6v5.8h-.9zm0-1.7v-1.8c-.6-.7-1.5-1.1-2.5-1.1-1.4 0-2.2.9-2.2 2 0 1.2.9 2 2.2 2 1 .1 1.9-.3 2.5-1.1zM474.3 528.7v-5.6c0-1.6-.8-2.1-2-2.1-1.1 0-2.1.7-2.7 1.4v6.2h-.9v-8.2h.9v1.2c.6-.7 1.8-1.4 3-1.4 1.7 0 2.6.8 2.6 2.7v5.7h-.9zM481.3 530.7l.5-.7c.7.8 1.5 1.2 2.7 1.2 1.5 0 2.8-.7 2.8-2.6v-1.3c-.6.8-1.6 1.5-2.9 1.5-2.2 0-3.7-1.6-3.7-4.3 0-2.6 1.5-4.3 3.7-4.3 1.2 0 2.2.6 2.9 1.5v-1.3h.9v8.1c0 2.5-1.7 3.4-3.7 3.4-1.3.1-2.2-.2-3.2-1.2zm6-4.2v-4c-.5-.8-1.6-1.5-2.7-1.5-1.8 0-2.9 1.5-2.9 3.5s1.1 3.5 2.9 3.5c1.2 0 2.3-.7 2.7-1.5zM499.9 528.7v-1.2c-.7.7-1.8 1.4-3 1.4-1.7 0-2.6-.8-2.6-2.6v-5.8h.9v5.6c0 1.6.8 2 2 2 1.1 0 2.1-.6 2.7-1.4v-6.3h.9v8.2h-.9zM512.2 528.7v-1c-.7.8-1.6 1.2-2.8 1.2-1.4 0-2.9-1-2.9-2.7 0-1.8 1.4-2.7 2.9-2.7 1.1 0 2.1.4 2.8 1.2V523c0-1.2-1-1.9-2.2-1.9-1 0-1.8.4-2.6 1.2l-.5-.6c.8-.9 1.8-1.4 3.2-1.4 1.7 0 3 .8 3 2.6v5.8h-.9zm0-1.7v-1.8c-.6-.7-1.5-1.1-2.5-1.1-1.4 0-2.2.9-2.2 2 0 1.2.9 2 2.2 2 1 .1 1.9-.3 2.5-1.1zM519.2 530.7l.5-.7c.7.8 1.5 1.2 2.7 1.2 1.5 0 2.8-.7 2.8-2.6v-1.3c-.6.8-1.6 1.5-2.9 1.5-2.2 0-3.7-1.6-3.7-4.3 0-2.6 1.5-4.3 3.7-4.3 1.2 0 2.2.6 2.9 1.5v-1.3h.9v8.1c0 2.5-1.7 3.4-3.7 3.4-1.3.1-2.2-.2-3.2-1.2zm6.1-4.2v-4c-.5-.8-1.6-1.5-2.7-1.5-1.8 0-2.9 1.5-2.9 3.5s1.1 3.5 2.9 3.5c1.1 0 2.2-.7 2.7-1.5zM531.8 524.5c0-2.4 1.7-4.3 4-4.3 2.5 0 3.9 2 3.9 4.4v.2h-6.9c.1 1.8 1.3 3.3 3.2 3.3 1 0 2-.4 2.7-1.1l.5.6c-.8.9-1.9 1.3-3.2 1.3-2.4 0-4.2-1.8-4.2-4.4zm4-3.5c-1.9 0-2.9 1.7-3 3.1h6c0-1.4-1-3.1-3-3.1zM553.6 528.7v-11.3h7.2v.9h-6.2v4.2h6.1v.9h-6.1v5.4h-1zM566.1 528.7v-8.2h.9v1.4c.7-.9 1.6-1.6 2.8-1.6v1h-.4c-.8 0-2 .7-2.3 1.5v6h-1zM574.5 524.5c0-2.4 1.7-4.3 4-4.3 2.5 0 3.9 2 3.9 4.4v.2h-6.9c.1 1.8 1.3 3.3 3.2 3.3 1 0 2-.4 2.7-1.1l.5.6c-.8.9-1.9 1.3-3.2 1.3-2.5 0-4.2-1.8-4.2-4.4zm3.9-3.5c-1.9 0-2.9 1.7-3 3.1h6c0-1.4-.9-3.1-3-3.1zM587.5 524.5c0-2.4 1.7-4.3 4-4.3 2.5 0 3.9 2 3.9 4.4v.2h-6.9c.1 1.8 1.3 3.3 3.2 3.3 1 0 2-.4 2.7-1.1l.5.6c-.8.9-1.9 1.3-3.2 1.3-2.5 0-4.2-1.8-4.2-4.4zm3.9-3.5c-1.9 0-2.9 1.7-3 3.1h6c0-1.4-.9-3.1-3-3.1zM600.3 527.6l.5-.7c.5.7 1.5 1.2 2.7 1.2 1.4 0 2.2-.7 2.2-1.7 0-2.2-5.2-1-5.2-3.9 0-1.3 1.1-2.3 2.9-2.3 1.4 0 2.3.5 2.9 1.2l-.5.6c-.5-.6-1.4-1.1-2.4-1.1-1.3 0-2.1.6-2.1 1.5 0 2.1 5.2.8 5.2 4 0 1.3-1 2.4-3.1 2.4-1.3.1-2.3-.3-3.1-1.2zM612.4 527.1v-5.8H611v-.8h1.4v-2.2h.9v2.2h1.7v.8h-1.7v5.7c0 .7.3 1.1.9 1.1.4 0 .7-.2.9-.4l.3.7c-.3.3-.7.5-1.4.5-1.1 0-1.6-.7-1.6-1.8zM619.9 531.1c.2.1.5.1.7.1.5 0 .9-.2 1.2-1l.6-1.5-3.5-8.3h1l3 7.2 3-7.2h1l-4.2 10c-.4 1-1.1 1.5-2.1 1.5-.3 0-.6-.1-.9-.1l.2-.7zM631.9 528.7v-11.3h.9v11.3h-.9zM638.4 524.5c0-2.4 1.7-4.3 4-4.3 2.5 0 3.9 2 3.9 4.4v.2h-6.9c.1 1.8 1.3 3.3 3.2 3.3 1 0 2-.4 2.7-1.1l.5.6c-.8.9-1.9 1.3-3.2 1.3-2.5 0-4.2-1.8-4.2-4.4zm4-3.5c-1.9 0-2.9 1.7-3 3.1h6c-.1-1.4-1-3.1-3-3.1zM660.2 528.7v-11.3h1v10.5h5.5v.9h-6.5zM671.6 524.5c0-2.4 1.7-4.3 4-4.3 2.5 0 3.9 2 3.9 4.4v.2h-6.9c.1 1.8 1.3 3.3 3.2 3.3 1 0 2-.4 2.7-1.1l.5.6c-.8.9-1.9 1.3-3.2 1.3-2.5 0-4.2-1.8-4.2-4.4zm4-3.5c-1.9 0-2.9 1.7-3 3.1h6c-.1-1.4-1-3.1-3-3.1zM684.4 527.6l.5-.7c.5.7 1.5 1.2 2.7 1.2 1.4 0 2.2-.7 2.2-1.7 0-2.2-5.2-1-5.2-3.9 0-1.3 1.1-2.3 2.9-2.3 1.4 0 2.3.5 2.9 1.2l-.5.6c-.5-.6-1.4-1.1-2.4-1.1-1.3 0-2.1.6-2.1 1.5 0 2.1 5.2.8 5.2 4 0 1.3-1 2.4-3.1 2.4-1.2.1-2.3-.3-3.1-1.2zM695.6 527.6l.5-.7c.5.7 1.5 1.2 2.7 1.2 1.4 0 2.2-.7 2.2-1.7 0-2.2-5.2-1-5.2-3.9 0-1.3 1.1-2.3 2.9-2.3 1.4 0 2.3.5 2.9 1.2l-.5.6c-.5-.6-1.4-1.1-2.4-1.1-1.3 0-2.1.6-2.1 1.5 0 2.1 5.2.8 5.2 4 0 1.3-1 2.4-3.1 2.4-1.2.1-2.3-.3-3.1-1.2zM707.1 524.5c0-2.4 1.5-4.3 3.9-4.3s4 1.9 4 4.3-1.5 4.3-4 4.3c-2.4.1-3.9-1.9-3.9-4.3zm6.9 0c0-1.8-1.1-3.5-3-3.5s-3 1.7-3 3.5 1.1 3.5 3 3.5c1.9.1 3-1.6 3-3.5zM726.2 528.7v-5.6c0-1.6-.8-2.1-2-2.1-1.1 0-2.1.7-2.7 1.4v6.2h-.9v-8.2h.9v1.2c.6-.7 1.8-1.4 3-1.4 1.7 0 2.6.8 2.6 2.7v5.7h-.9zM732.5 527.6l.5-.7c.5.7 1.5 1.2 2.7 1.2 1.4 0 2.2-.7 2.2-1.7 0-2.2-5.2-1-5.2-3.9 0-1.3 1.1-2.3 2.9-2.3 1.4 0 2.3.5 2.9 1.2l-.5.6c-.5-.6-1.4-1.1-2.4-1.1-1.3 0-2.1.6-2.1 1.5 0 2.1 5.2.8 5.2 4 0 1.3-1 2.4-3.1 2.4-1.3.1-2.3-.3-3.1-1.2z"/></g><g fill="#FFF"><path d="M360.8 476.5l-2.7-9.7-2.7 9.7h-1.1l-3.2-11.3h1.1l2.7 10 2.8-10h.9l2.8 10 2.7-10h1.1l-3.2 11.3h-1.2zM369.7 472.4c0-2.4 1.7-4.3 4-4.3 2.5 0 3.9 2 3.9 4.4v.2h-6.9c.1 1.8 1.3 3.3 3.2 3.3 1 0 2-.4 2.7-1.1l.5.6c-.8.9-1.9 1.3-3.2 1.3-2.5-.1-4.2-1.9-4.2-4.4zm4-3.6c-1.9 0-2.9 1.7-3 3.1h6c-.1-1.3-1-3.1-3-3.1zM389.3 476.5v-1.3c-.6.8-1.6 1.5-2.9 1.5-2.2 0-3.7-1.7-3.7-4.3 0-2.6 1.5-4.3 3.7-4.3 1.2 0 2.2.6 2.9 1.5v-4.5h.9v11.3h-.9zm0-2.1v-4.1c-.5-.8-1.5-1.5-2.7-1.5-1.8 0-2.9 1.5-2.9 3.5s1.1 3.5 2.9 3.5c1.1.1 2.2-.6 2.7-1.4zM402.4 476.5v-1.3c-.6.8-1.6 1.5-2.9 1.5-2.2 0-3.7-1.7-3.7-4.3 0-2.6 1.5-4.3 3.7-4.3 1.2 0 2.2.6 2.9 1.5v-4.5h.9v11.3h-.9zm0-2.1v-4.1c-.5-.8-1.5-1.5-2.7-1.5-1.8 0-2.9 1.5-2.9 3.5s1.1 3.5 2.9 3.5c1.1.1 2.2-.6 2.7-1.4zM409.2 466.3c0-.4.3-.7.7-.7.4 0 .7.3.7.7s-.3.7-.7.7c-.4 0-.7-.3-.7-.7zm.2 10.2v-8.2h.9v8.2h-.9zM422 476.5v-5.6c0-1.6-.8-2.1-2-2.1-1.1 0-2.1.7-2.7 1.4v6.2h-.9v-8.2h.9v1.2c.6-.7 1.8-1.4 3-1.4 1.7 0 2.6.8 2.6 2.7v5.7h-.9zM429.1 478.6l.5-.7c.7.8 1.5 1.2 2.7 1.2 1.5 0 2.8-.7 2.8-2.6v-1.3c-.6.8-1.6 1.5-2.9 1.5-2.2 0-3.7-1.6-3.7-4.3 0-2.6 1.5-4.3 3.7-4.3 1.2 0 2.2.6 2.9 1.5v-1.3h.9v8.1c0 2.5-1.7 3.4-3.7 3.4-1.4 0-2.3-.2-3.2-1.2zm6-4.2v-4c-.5-.8-1.6-1.5-2.7-1.5-1.8 0-2.9 1.5-2.9 3.5s1.1 3.5 2.9 3.5c1.1 0 2.2-.7 2.7-1.5zM460 476.5v-11.3h4.2c2.2 0 3.4 1.5 3.4 3.3 0 1.8-1.3 3.3-3.4 3.3H461v4.7h-1zm6.7-8c0-1.4-1-2.4-2.5-2.4H461v4.9h3.2c1.5-.1 2.5-1.1 2.5-2.5zM472.6 472.4c0-2.4 1.7-4.3 4-4.3 2.5 0 3.9 2 3.9 4.4v.2h-6.9c.1 1.8 1.3 3.3 3.2 3.3 1 0 2-.4 2.7-1.1l.5.6c-.8.9-1.9 1.3-3.2 1.3-2.5-.1-4.2-1.9-4.2-4.4zm4-3.6c-1.9 0-2.9 1.7-3 3.1h6c-.1-1.3-1-3.1-3-3.1zM486.1 476.5v-8.2h.9v1.4c.7-.9 1.6-1.6 2.8-1.6v1h-.4c-.8 0-2 .7-2.3 1.5v6h-1zM495.2 476.5v-7.4h-1.4v-.8h1.4v-.7c0-1.6.8-2.5 2.2-2.5.6 0 1 .1 1.6.6l-.4.6c-.3-.3-.6-.4-1.1-.4-.9 0-1.4.6-1.4 1.8v.7h1.7v.8h-1.7v7.4h-.9zM502.3 472.4c0-2.4 1.5-4.3 3.9-4.3s4 1.9 4 4.3-1.5 4.3-4 4.3c-2.3 0-3.9-1.9-3.9-4.3zm7 0c0-1.8-1.1-3.5-3-3.5s-3 1.7-3 3.5 1.1 3.5 3 3.5 3-1.7 3-3.5zM515.9 476.5v-8.2h.9v1.4c.7-.9 1.6-1.6 2.8-1.6v1h-.4c-.8 0-2 .7-2.3 1.5v6h-1zM534.5 476.5v-5.7c0-1.2-.5-1.9-1.6-1.9-.9 0-1.9.6-2.3 1.4v6.2h-.9v-5.7c0-1.2-.5-1.9-1.6-1.9-.9 0-1.9.7-2.3 1.4v6.2h-.9v-8.2h.9v1.2c.3-.5 1.5-1.4 2.7-1.4 1.3 0 2 .7 2.2 1.5.5-.8 1.6-1.5 2.7-1.5 1.5 0 2.2.8 2.2 2.5v5.9h-1.1zM546.7 476.5v-1c-.7.8-1.6 1.2-2.8 1.2-1.4 0-2.9-1-2.9-2.7 0-1.8 1.4-2.7 2.9-2.7 1.1 0 2.1.4 2.8 1.2v-1.7c0-1.2-1-1.9-2.2-1.9-1 0-1.8.4-2.6 1.2l-.5-.6c.8-.9 1.8-1.4 3.2-1.4 1.7 0 3 .8 3 2.6v5.8h-.9zm0-1.6v-1.8c-.6-.7-1.5-1.1-2.5-1.1-1.4 0-2.2.9-2.2 2 0 1.2.9 2 2.2 2 1 0 2-.4 2.5-1.1zM559.3 476.5v-5.6c0-1.6-.8-2.1-2-2.1-1.1 0-2.1.7-2.7 1.4v6.2h-.9v-8.2h.9v1.2c.6-.7 1.8-1.4 3-1.4 1.7 0 2.6.8 2.6 2.7v5.7h-.9zM565.9 472.4c0-2.4 1.6-4.3 4-4.3 1.4 0 2.2.6 2.9 1.4l-.6.5c-.6-.8-1.3-1.1-2.2-1.1-1.9 0-3.1 1.5-3.1 3.5s1.2 3.5 3.1 3.5c.9 0 1.6-.3 2.2-1.2l.6.5c-.7.8-1.5 1.4-2.9 1.4-2.4.1-4-1.8-4-4.2zM577.7 472.4c0-2.4 1.7-4.3 4-4.3 2.5 0 3.9 2 3.9 4.4v.2h-6.9c.1 1.8 1.3 3.3 3.2 3.3 1 0 2-.4 2.7-1.1l.5.6c-.8.9-1.9 1.3-3.2 1.3-2.5-.1-4.2-1.9-4.2-4.4zm3.9-3.6c-1.9 0-2.9 1.7-3 3.1h6c0-1.3-.9-3.1-3-3.1zM610.7 474.1c-1 0-1.8-.8-1.8-1.7 0-1 .8-1.8 1.8-1.8s1.8.8 1.8 1.8c0 .9-.8 1.7-1.8 1.7zM636.4 476.5v-11.3h7.2v.9h-6.2v4.2h6.1v.9h-6.1v5.4h-1zM648.4 474.9l.6-.7c.7.9 1.9 1.6 3.5 1.6 2.3 0 3-1.3 3-2.3 0-3.3-6.8-1.6-6.8-5.6 0-1.9 1.7-3 3.7-3 1.7 0 3 .6 3.8 1.6l-.6.7c-.8-1-2-1.4-3.2-1.4-1.5 0-2.7.9-2.7 2.1 0 2.9 6.8 1.3 6.8 5.5 0 1.5-1 3.2-4 3.2-1.9.1-3.3-.6-4.1-1.7zM662.3 476.5v-11.3h4.7c1.9 0 3.1 1.1 3.1 2.9 0 1.4-1 2.4-2 2.6 1.2.2 2.2 1.4 2.2 2.8 0 1.9-1.2 3.1-3.2 3.1h-4.8zm6.7-8.3c0-1.2-.8-2.1-2.2-2.1h-3.6v4.2h3.6c1.5-.1 2.2-1 2.2-2.1zm.3 5.2c0-1.2-.8-2.2-2.4-2.2h-3.6v4.5h3.6c1.5-.1 2.4-1 2.4-2.3zM676.1 476.5v-11.3h4.7c1.9 0 3.1 1.1 3.1 2.9 0 1.4-1 2.4-2 2.6 1.2.2 2.2 1.4 2.2 2.8 0 1.9-1.2 3.1-3.2 3.1h-4.8zm6.8-8.3c0-1.2-.8-2.1-2.2-2.1h-3.6v4.2h3.6c1.4-.1 2.2-1 2.2-2.1zm.2 5.2c0-1.2-.8-2.2-2.4-2.2h-3.6v4.5h3.6c1.5-.1 2.4-1 2.4-2.3zM707.8 476.5v-11.3h7.2v.9h-6.2v4.2h6.1v.9h-6.1v4.5h6.2v.9h-7.2zM722.9 476.5l-3.5-8.2h1l3 7.2 3-7.2h1l-3.5 8.2h-1zM731.8 472.4c0-2.4 1.7-4.3 4-4.3 2.5 0 3.9 2 3.9 4.4v.2h-6.9c.1 1.8 1.3 3.3 3.2 3.3 1 0 2-.4 2.7-1.1l.5.6c-.8.9-1.9 1.3-3.2 1.3-2.5-.1-4.2-1.9-4.2-4.4zm4-3.6c-1.9 0-2.9 1.7-3 3.1h6c-.1-1.3-1-3.1-3-3.1zM750.9 476.5v-5.6c0-1.6-.8-2.1-2-2.1-1.1 0-2.1.7-2.7 1.4v6.2h-.9v-8.2h.9v1.2c.6-.7 1.8-1.4 3-1.4 1.7 0 2.6.8 2.6 2.7v5.7h-.9zM758.1 474.9v-5.8h-1.4v-.8h1.4V466h.9v2.2h1.7v.8H759v5.7c0 .7.3 1.1.8 1.1.4 0 .7-.2.9-.4l.3.7c-.3.3-.7.5-1.4.5-1 .1-1.5-.6-1.5-1.7zM765.3 475.4l.5-.7c.5.7 1.5 1.2 2.7 1.2 1.4 0 2.2-.7 2.2-1.7 0-2.2-5.2-1-5.2-3.9 0-1.3 1.1-2.3 2.9-2.3 1.4 0 2.3.5 2.9 1.2l-.5.6c-.5-.6-1.4-1.1-2.4-1.1-1.3 0-2.1.6-2.1 1.5 0 2.1 5.2.8 5.2 4 0 1.3-1 2.4-3.1 2.4-1.3.1-2.3-.3-3.1-1.2z"/></g><path fill="#FFF" d="M561.6 582.7c-1 0-1.8-.8-1.8-1.7 0-1 .8-1.8 1.8-1.8s1.8.8 1.8 1.8c-.1.9-.9 1.7-1.8 1.7zM561.6 106.8c-1 0-1.8-.8-1.8-1.7 0-1 .8-1.8 1.8-1.8s1.8.8 1.8 1.8c-.1.9-.9 1.7-1.8 1.7z"/></svg>