<svg xmlns="http://www.w3.org/2000/svg" viewBox="208.5 8.8 704 668.3"><path fill="none" stroke="#000" stroke-width=".763" d="M470.3 470.2h186.3"/><linearGradient id="a" gradientUnits="userSpaceOnUse" x1="280.055" y1="422.495" x2="845.966" y2="260.223"><stop offset="0" stop-color="#eaff00"/><stop offset=".203" stop-color="#eaff00"/><stop offset=".73" stop-color="#a2fc59"/><stop offset="1" stop-color="#57f866"/></linearGradient><ellipse fill="none" stroke="url(#a)" stroke-width="15" stroke-miterlimit="10" cx="563" cy="341.4" rx="286.3" ry="293"/><path d="M415.6 307.6l.8-.9c.9 1.1 2.5 2.1 4.6 2.1 3 0 3.9-1.7 3.9-2.9 0-4.3-8.8-2.1-8.8-7.2 0-2.4 2.2-3.9 4.8-3.9 2.2 0 3.8.8 5 2.1l-.8.9c-1.1-1.3-2.6-1.8-4.2-1.8-2 0-3.4 1.1-3.4 2.7 0 3.8 8.8 1.7 8.8 7.2 0 1.9-1.3 4.2-5.2 4.2-2.5-.2-4.4-1.2-5.5-2.5zM429.8 302.3c0-4.3 2.8-7.6 7.1-7.6s7.1 3.3 7.1 7.6-2.8 7.6-7.1 7.6-7.1-3.3-7.1-7.6zm12.9 0c0-3.7-2.3-6.4-5.8-6.4-3.6 0-5.8 2.7-5.8 6.4s2.2 6.4 5.8 6.4c3.5.1 5.8-2.7 5.8-6.4zM458.8 309.6l-1.5-3.6h-7.8l-1.5 3.6h-1.5l6-14.7h1.6l6 14.7h-1.3zm-5.3-13.3l-3.5 8.6h6.9l-3.4-8.6zM472.2 309.6l-4.1-6.1h-3.2v6.1h-1.3V295h5.5c2.5 0 4.5 1.6 4.5 4.3 0 2.7-1.9 4.1-4.1 4.2l4.2 6.2h-1.5zm0-10.4c0-1.8-1.3-3.1-3.3-3.1h-4.1v6.3h4.1c2 0 3.3-1.3 3.3-3.2zM477.7 309.6V295h1.3v14.7h-1.3zM494.2 309.6L485 297v12.6h-1.3V295h1.3l9.2 12.4V295h1.3v14.7h-1.3zM499.7 302.3c0-4.5 3.3-7.6 7.4-7.6 2.4 0 4.2 1 5.5 2.5l-.9.7c-1-1.2-2.7-2-4.6-2-3.5 0-6.1 2.6-6.1 6.4 0 3.8 2.7 6.5 6.1 6.5 2 0 3.5-1 4.3-1.8v-3.5h-5.5v-1.1h6.8v5.1c-1.3 1.5-3.3 2.4-5.6 2.4-4.1 0-7.4-3.1-7.4-7.6zM523.7 309.6V295h6c2.5 0 4 1.4 4 3.7 0 1.8-1.3 3.1-2.6 3.4 1.6.2 2.9 1.9 2.9 3.6 0 2.4-1.6 4-4.2 4h-6.1zm8.8-10.8c0-1.5-1-2.7-2.9-2.7H525v5.4h4.6c1.9 0 2.9-1.1 2.9-2.7zm.3 6.8c0-1.5-1-2.9-3.1-2.9H525v5.8h4.7c1.9 0 3.1-1.1 3.1-2.9zM549 309.6l-1.5-3.6h-7.8l-1.5 3.6h-1.5l6-14.7h1.6l6 14.7H549zm-5.4-13.3l-3.5 8.6h6.9l-3.4-8.6zM553.7 309.6V295h1.3v13.5h7.1v1.1h-8.4zM565.9 309.6V295h1.3v13.5h7.1v1.1h-8.4zM577.2 307.6l.8-.9c.9 1.1 2.5 2.1 4.6 2.1 3 0 3.9-1.7 3.9-2.9 0-4.3-8.8-2.1-8.8-7.2 0-2.4 2.2-3.9 4.8-3.9 2.2 0 3.8.8 5 2.1l-.8.9c-1.1-1.3-2.6-1.8-4.2-1.8-2 0-3.4 1.1-3.4 2.7 0 3.8 8.8 1.7 8.8 7.2 0 1.9-1.3 4.2-5.2 4.2-2.5-.2-4.3-1.2-5.5-2.5zM597.9 307.6l.8-.9c.9 1.1 2.5 2.1 4.6 2.1 3 0 3.9-1.7 3.9-2.9 0-4.3-8.8-2.1-8.8-7.2 0-2.4 2.2-3.9 4.8-3.9 2.2 0 3.8.8 5 2.1l-.8.9c-1.1-1.3-2.6-1.8-4.2-1.8-2 0-3.4 1.1-3.4 2.7 0 3.8 8.8 1.7 8.8 7.2 0 1.9-1.3 4.2-5.2 4.2-2.5-.2-4.4-1.2-5.5-2.5zM617 309.6v-6.3l-5.8-8.4h1.5l5 7.2 5-7.2h1.5l-5.8 8.4v6.3H617zM637.8 309.6l-9.2-12.6v12.6h-1.3V295h1.3l9.2 12.4V295h1.3v14.7h-1.3zM643.8 309.6V295h4.7c4.6 0 7.4 3.3 7.4 7.3 0 4.1-2.9 7.3-7.4 7.3h-4.7zm10.8-7.3c0-3.4-2.2-6.2-6.1-6.2H645v12.4h3.4c4 0 6.2-2.8 6.2-6.2zM660.1 309.6V295h1.3v14.7h-1.3zM665.6 302.3c0-4.5 3.3-7.6 7.4-7.6 2.3 0 4.1 1 5.3 2.6l-1.1.7c-.9-1.3-2.5-2.1-4.3-2.1-3.5 0-6.1 2.6-6.1 6.4 0 3.8 2.7 6.4 6.1 6.4 1.8 0 3.4-.9 4.3-2.1l1.1.7c-1.3 1.6-3 2.6-5.3 2.6-4.1 0-7.4-3.1-7.4-7.6zM692.6 309.6l-1.5-3.6h-7.8l-1.5 3.6h-1.5l6-14.7h1.6l6 14.7h-1.3zm-5.3-13.3l-3.5 8.6h6.9l-3.4-8.6zM701.1 309.6v-13.5h-4.8V295h10.9v1.1h-4.8v13.5h-1.3zM710.8 309.6V295h9.3v1.1H712v5.4h7.9v1.1H712v5.8h8.1v1.1h-9.3z"/><g><path d="M385.2 528.7V518h4c2 0 3.2 1.4 3.2 3.1s-1.2 3.1-3.2 3.1h-3.1v4.4h-.9zm6.3-7.5c0-1.3-.9-2.3-2.4-2.3h-3v4.6h3c1.5 0 2.4-1 2.4-2.3zM395.3 524.9c0-2.2 1.6-4 3.7-4 2.4 0 3.6 1.9 3.6 4.1v.2h-6.5c.1 1.7 1.2 3.1 3 3.1 1 0 1.9-.4 2.5-1.1l.4.5c-.8.8-1.7 1.2-3 1.2-2 0-3.7-1.6-3.7-4zm3.8-3.4c-1.8 0-2.7 1.6-2.8 2.9h5.6c0-1.2-.9-2.9-2.8-2.9zM406.3 528.7V521h.8v1.3c.7-.9 1.5-1.5 2.6-1.5v.9h-.4c-.8 0-1.8.7-2.2 1.4v5.6h-.8zM413.1 528.7v-7h-1.3v-.7h1.3v-.7c0-1.5.8-2.4 2.1-2.4.5 0 1 .1 1.5.5l-.4.6c-.3-.2-.6-.4-1-.4-.9 0-1.3.6-1.3 1.7v.7h1.6v.7H414v7h-.9zM418 524.9c0-2.3 1.5-4 3.7-4 2.3 0 3.7 1.8 3.7 4 0 2.3-1.4 4.1-3.7 4.1-2.2-.1-3.7-1.9-3.7-4.1zm6.6 0c0-1.7-1-3.3-2.8-3.3-1.8 0-2.8 1.6-2.8 3.3 0 1.7 1 3.3 2.8 3.3 1.8 0 2.8-1.6 2.8-3.3zM429.1 528.7V521h.8v1.3c.7-.9 1.5-1.5 2.6-1.5v.9h-.4c-.8 0-1.8.7-2.2 1.4v5.6h-.8zM444.8 528.7v-5.4c0-1.1-.5-1.8-1.6-1.8-.8 0-1.8.6-2.2 1.3v5.9h-.8v-5.4c0-1.1-.4-1.8-1.6-1.8-.8 0-1.7.6-2.2 1.3v5.8h-.8V521h.8v1.2c.3-.5 1.4-1.4 2.5-1.4 1.2 0 1.8.7 2 1.5.4-.7 1.5-1.5 2.6-1.5 1.4 0 2.1.8 2.1 2.4v5.6h-.8zM454.6 528.7v-.9c-.7.8-1.6 1.1-2.6 1.1-1.3 0-2.7-.9-2.7-2.6 0-1.7 1.4-2.6 2.7-2.6 1.1 0 2 .4 2.6 1.1v-1.6c0-1.2-.9-1.8-2.1-1.8-1 0-1.7.3-2.4 1.1l-.5-.6c.8-.9 1.7-1.3 3-1.3 1.6 0 2.8.8 2.8 2.5v5.4h-.8zm0-1.5v-1.7c-.5-.7-1.4-1.1-2.3-1.1-1.3 0-2.1.8-2.1 1.9 0 1.1.8 1.9 2.1 1.9.9.1 1.7-.3 2.3-1zM464.6 528.7v-5.2c0-1.5-.8-1.9-1.9-1.9-1 0-2 .6-2.5 1.3v5.8h-.8V521h.8v1.2c.6-.7 1.7-1.4 2.8-1.4 1.6 0 2.4.8 2.4 2.5v5.4h-.8zM469.1 524.9c0-2.3 1.5-4 3.8-4 1.3 0 2.1.5 2.7 1.3l-.6.5c-.6-.8-1.3-1.1-2.1-1.1-1.8 0-2.9 1.4-2.9 3.3s1.1 3.3 2.9 3.3c.8 0 1.6-.3 2.1-1.1l.6.5c-.6.8-1.4 1.3-2.7 1.3-2.4 0-3.8-1.8-3.8-4zM478.4 524.9c0-2.2 1.6-4 3.7-4 2.4 0 3.6 1.9 3.6 4.1v.2h-6.5c.1 1.7 1.2 3.1 3 3.1 1 0 1.9-.4 2.5-1.1l.4.5c-.8.8-1.7 1.2-3 1.2-2.1 0-3.7-1.6-3.7-4zm3.7-3.4c-1.8 0-2.7 1.6-2.8 2.9h5.6c0-1.2-.8-2.9-2.8-2.9zM496.5 526.5c-.9 0-1.6-.7-1.6-1.6 0-.9.7-1.6 1.6-1.6.9 0 1.6.7 1.6 1.6.1.9-.7 1.6-1.6 1.6zM516.8 528.7v-9.4l-3.9 9.4h-.4l-3.9-9.4v9.4h-.9V518h1.4l3.6 8.8 3.6-8.8h1.4v10.7h-.9zM526.7 528.7v-.9c-.7.8-1.6 1.1-2.6 1.1-1.3 0-2.7-.9-2.7-2.6 0-1.7 1.4-2.6 2.7-2.6 1.1 0 2 .4 2.6 1.1v-1.6c0-1.2-.9-1.8-2.1-1.8-1 0-1.7.3-2.4 1.1l-.5-.6c.8-.9 1.7-1.3 3-1.3 1.6 0 2.8.8 2.8 2.5v5.4h-.8zm0-1.5v-1.7c-.5-.7-1.4-1.1-2.3-1.1-1.3 0-2.1.8-2.1 1.9 0 1.1.8 1.9 2.1 1.9.9.1 1.7-.3 2.3-1zM530.9 527.7l.5-.6c.5.6 1.4 1.1 2.5 1.1 1.3 0 2.1-.7 2.1-1.6 0-2.1-4.9-.9-4.9-3.7 0-1.2 1-2.1 2.8-2.1 1.3 0 2.2.5 2.8 1.1l-.5.6c-.4-.6-1.3-1-2.3-1-1.2 0-1.9.6-1.9 1.4 0 1.9 4.9.8 4.9 3.7 0 1.2-1 2.3-2.9 2.3-1.4 0-2.4-.3-3.1-1.2zM540.5 527.3v-5.5h-1.3v-.8h1.3v-2.1h.8v2.1h1.6v.7h-1.6v5.4c0 .6.3 1.1.8 1.1.4 0 .7-.2.9-.4l.3.6c-.3.3-.7.5-1.3.5-1 0-1.5-.6-1.5-1.6zM545.7 524.9c0-2.2 1.6-4 3.7-4 2.4 0 3.6 1.9 3.6 4.1v.2h-6.5c.1 1.7 1.2 3.1 3 3.1 1 0 1.9-.4 2.5-1.1l.4.5c-.8.8-1.7 1.2-3 1.2-2.1 0-3.7-1.6-3.7-4zm3.7-3.4c-1.8 0-2.7 1.6-2.8 2.9h5.6c0-1.2-.8-2.9-2.8-2.9zM556.7 528.7V521h.8v1.3c.7-.9 1.5-1.5 2.6-1.5v.9h-.4c-.8 0-1.8.7-2.2 1.4v5.6h-.8zM562.8 523.4c0-3.3 2.4-5.5 5.4-5.5 1.7 0 3 .8 3.9 1.9l-.8.5c-.7-.9-1.8-1.6-3.1-1.6-2.5 0-4.5 1.9-4.5 4.7 0 2.8 1.9 4.7 4.5 4.7 1.3 0 2.4-.6 3.1-1.6l.8.5c-.9 1.2-2.2 1.9-3.9 1.9-3 0-5.4-2.2-5.4-5.5zM575.4 528.7V518h.8v10.7h-.8zM585.2 528.7v-.9c-.7.8-1.6 1.1-2.6 1.1-1.3 0-2.7-.9-2.7-2.6 0-1.7 1.4-2.6 2.7-2.6 1.1 0 2 .4 2.6 1.1v-1.6c0-1.2-.9-1.8-2.1-1.8-1 0-1.7.3-2.4 1.1l-.5-.6c.8-.9 1.7-1.3 3-1.3 1.6 0 2.8.8 2.8 2.5v5.4h-.8zm0-1.5v-1.7c-.5-.7-1.4-1.1-2.3-1.1-1.3 0-2.1.8-2.1 1.9 0 1.1.8 1.9 2.1 1.9.9.1 1.7-.3 2.3-1zM589.4 527.7l.5-.6c.5.6 1.4 1.1 2.5 1.1 1.3 0 2.1-.7 2.1-1.6 0-2.1-4.9-.9-4.9-3.7 0-1.2 1-2.1 2.8-2.1 1.3 0 2.2.5 2.8 1.1l-.5.6c-.4-.6-1.3-1-2.3-1-1.2 0-1.9.6-1.9 1.4 0 1.9 4.9.8 4.9 3.7 0 1.2-1 2.3-2.9 2.3-1.4 0-2.4-.3-3.1-1.2zM598.1 527.7l.5-.6c.5.6 1.4 1.1 2.5 1.1 1.3 0 2.1-.7 2.1-1.6 0-2.1-4.9-.9-4.9-3.7 0-1.2 1-2.1 2.8-2.1 1.3 0 2.2.5 2.8 1.1l-.5.6c-.4-.6-1.3-1-2.3-1-1.2 0-1.9.6-1.9 1.4 0 1.9 4.9.8 4.9 3.7 0 1.2-1 2.3-2.9 2.3-1.3 0-2.3-.3-3.1-1.2zM614.8 526.5c-.9 0-1.6-.7-1.6-1.6 0-.9.7-1.6 1.6-1.6.9 0 1.6.7 1.6 1.6 0 .9-.7 1.6-1.6 1.6zM625.6 523.4c0-3.3 2.4-5.5 5.4-5.5 1.7 0 3 .8 3.9 1.9l-.8.5c-.7-.9-1.8-1.6-3.1-1.6-2.5 0-4.5 1.9-4.5 4.7 0 2.8 1.9 4.7 4.5 4.7 1.3 0 2.4-.6 3.1-1.6l.8.5c-.9 1.2-2.2 1.9-3.9 1.9-3 0-5.4-2.2-5.4-5.5zM637.7 524.9c0-2.3 1.5-4 3.7-4 2.3 0 3.7 1.8 3.7 4 0 2.3-1.4 4.1-3.7 4.1-2.3-.1-3.7-1.9-3.7-4.1zm6.5 0c0-1.7-1-3.3-2.8-3.3-1.8 0-2.8 1.6-2.8 3.3 0 1.7 1 3.3 2.8 3.3 1.8 0 2.8-1.6 2.8-3.3zM648.7 528.7V518h.8v10.7h-.8zM653.6 528.7V518h.8v10.7h-.8zM663.3 528.7v-.9c-.7.8-1.6 1.1-2.6 1.1-1.3 0-2.7-.9-2.7-2.6 0-1.7 1.4-2.6 2.7-2.6 1.1 0 2 .4 2.6 1.1v-1.6c0-1.2-.9-1.8-2.1-1.8-1 0-1.7.3-2.4 1.1l-.5-.6c.8-.9 1.7-1.3 3-1.3 1.6 0 2.8.8 2.8 2.5v5.4h-.8zm0-1.5v-1.7c-.5-.7-1.4-1.1-2.3-1.1-1.3 0-2.1.8-2.1 1.9 0 1.1.8 1.9 2.1 1.9.9.1 1.8-.3 2.3-1zM668.2 528.7V518h.8v4.2c.6-.9 1.6-1.4 2.7-1.4 2.1 0 3.5 1.6 3.5 4.1 0 2.5-1.4 4-3.5 4-1.2 0-2.1-.6-2.7-1.4v1.2h-.8zm3.4-.5c1.7 0 2.7-1.4 2.7-3.3s-1-3.3-2.7-3.3c-1.1 0-2.1.7-2.5 1.4v3.8c.4.7 1.4 1.4 2.5 1.4zM678.3 524.9c0-2.3 1.5-4 3.7-4 2.3 0 3.7 1.8 3.7 4 0 2.3-1.4 4.1-3.7 4.1-2.2-.1-3.7-1.9-3.7-4.1zm6.6 0c0-1.7-1-3.3-2.8-3.3-1.8 0-2.8 1.6-2.8 3.3 0 1.7 1 3.3 2.8 3.3 1.8 0 2.8-1.6 2.8-3.3zM689.4 528.7V521h.8v1.3c.7-.9 1.5-1.5 2.6-1.5v.9h-.4c-.8 0-1.8.7-2.2 1.4v5.6h-.8zM700.8 528.7v-.9c-.7.8-1.6 1.1-2.6 1.1-1.3 0-2.7-.9-2.7-2.6 0-1.7 1.4-2.6 2.7-2.6 1.1 0 2 .4 2.6 1.1v-1.6c0-1.2-.9-1.8-2.1-1.8-1 0-1.7.3-2.4 1.1l-.5-.6c.8-.9 1.7-1.3 3-1.3 1.6 0 2.8.8 2.8 2.5v5.4h-.8zm0-1.5v-1.7c-.5-.7-1.4-1.1-2.3-1.1-1.3 0-2.1.8-2.1 1.9 0 1.1.8 1.9 2.1 1.9.9.1 1.7-.3 2.3-1zM705.8 527.3v-5.5h-1.3v-.8h1.3v-2.1h.8v2.1h1.6v.7h-1.6v5.4c0 .6.3 1.1.8 1.1.4 0 .7-.2.9-.4l.3.6c-.3.3-.7.5-1.3.5-1 0-1.5-.6-1.5-1.6zM711.3 519.2c0-.4.3-.6.6-.6.4 0 .6.3.6.6s-.3.6-.6.6-.6-.3-.6-.6zm.2 9.5V521h.8v7.7h-.8zM715.9 524.9c0-2.3 1.5-4 3.7-4 2.3 0 3.7 1.8 3.7 4 0 2.3-1.4 4.1-3.7 4.1-2.2-.1-3.7-1.9-3.7-4.1zm6.5 0c0-1.7-1-3.3-2.8-3.3-1.8 0-2.8 1.6-2.8 3.3 0 1.7 1 3.3 2.8 3.3 1.8 0 2.8-1.6 2.8-3.3zM732.1 528.7v-5.2c0-1.5-.8-1.9-1.9-1.9-1 0-2 .6-2.5 1.3v5.8h-.8V521h.8v1.2c.6-.7 1.7-1.4 2.8-1.4 1.6 0 2.4.8 2.4 2.5v5.4h-.8zM736.3 527.7l.5-.6c.5.6 1.4 1.1 2.5 1.1 1.3 0 2.1-.7 2.1-1.6 0-2.1-4.9-.9-4.9-3.7 0-1.2 1-2.1 2.8-2.1 1.3 0 2.2.5 2.8 1.1l-.5.6c-.4-.6-1.3-1-2.3-1-1.2 0-1.9.6-1.9 1.4 0 1.9 4.9.8 4.9 3.7 0 1.2-1 2.3-2.9 2.3-1.3 0-2.3-.3-3.1-1.2z"/></g><g><path d="M246.6 419v-72h29.6c12.1 0 19.9 7 19.9 18.4 0 9.1-6.2 15.2-12.6 16.5 7.7 1.2 14 9.2 14 17.7 0 12-7.8 19.4-20.6 19.4h-30.3zm42.9-53c0-7.3-4.9-13.4-14.1-13.4h-22.7v26.7h22.7c9.3 0 14.1-5.9 14.1-13.3zm1.4 33.1c0-7.3-5.1-14.3-15.1-14.3h-23.1v28.5h23.1c9.5.1 15.1-5.4 15.1-14.2zM370.4 419l-7.1-17.7h-38.1l-7.1 17.7H311l29.5-72h7.7l29.5 72h-7.3zm-26.2-65.4l-17 42.1h34l-17-42.1zM393.5 419v-72h6.2v66.4h34.9v5.6h-41.1zM453.4 419v-72h6.2v66.4h34.9v5.6h-41.1zM555.4 419l-20.2-29.8h-15.9V419h-6.2v-72H540c12.4 0 21.9 7.9 21.9 21.1 0 13.1-9.3 20.3-20 20.7l20.8 30.2h-7.3zm.1-51c0-9.1-6.5-15.4-16-15.4h-20.2v31h20.2c9.6 0 16-6.5 16-15.6zM582.8 419v-72h6.2v72h-6.2zM612.2 419v-72h23c22.4 0 36.4 16.3 36.4 36.1 0 20-14 36-36.4 36h-23zm53-36c0-16.8-10.8-30.5-29.9-30.5h-16.8v60.8h16.8c19 .1 29.9-13.4 29.9-30.3zM692.4 419v-72h45.7v5.6h-39.5v26.7h38.8v5.6h-38.8v28.5h39.5v5.6h-45.7zM800.9 419l-20.2-29.8h-15.9V419h-6.2v-72h26.9c12.4 0 21.9 7.9 21.9 21.1 0 13.1-9.3 20.3-20 20.7l20.8 30.2h-7.3zm.1-51c0-9.1-6.5-15.4-16-15.4h-20.2v31H785c9.5 0 16-6.5 16-15.6zM824.2 408.9l4-4.6c4.6 5.4 12.2 10.5 22.5 10.5 14.8 0 19-8.2 19-14.4 0-21.2-43.2-10.2-43.2-35.3 0-11.8 10.6-19.2 23.7-19.2 10.8 0 18.8 3.8 24.4 10.2l-4.1 4.5c-5.2-6.3-12.5-9.1-20.6-9.1-9.6 0-16.8 5.5-16.8 13.3 0 18.5 43.2 8.3 43.2 35.2 0 9.3-6.2 20.4-25.6 20.4-12-.1-20.9-4.8-26.5-11.5z"/></g><path d="M567 165.8l12.4 9-3.3 3.2-7.4-6.8zM557.9 197.7l-5.2 4.4 1.5-77.9 3.8 7.1zM589.4 172.3L565.8 151v-4.7l29.1 21.7zM589.7 190.2l-41.5 32.3v-3.3l37.6-33z"/><path d="M565.8 164.9l3.4 2.5.1 17.4-3.4 3.3z"/><path d="M589.5 172.2L565.9 191v-3l19.7-19.6z"/><path d="M589.5 190.3l-12.7-11.7 2.4-3.8 15.5 11.6z"/></svg>