<?xml version="1.0" encoding="utf-8"?>
<!-- Generator: Adobe Illustrator 18.0.0, SVG Export Plug-In . SVG Version: 6.00 Build 0)  -->
<!DOCTYPE svg PUBLIC "-//W3C//DTD SVG 1.1//EN" "http://www.w3.org/Graphics/SVG/1.1/DTD/svg11.dtd">
<svg version="1.1" id="START" xmlns="http://www.w3.org/2000/svg" xmlns:xlink="http://www.w3.org/1999/xlink" x="0px" y="0px"
	 viewBox="135.3 -11.4 850.4 708.7" enable-background="new 135.3 -11.4 850.4 708.7" xml:space="preserve">
<line fill="none" stroke="#000000" stroke-width="0.763" x1="467.4" y1="470.2" x2="653.7" y2="470.2"/>
<linearGradient id="SVGID_1_" gradientUnits="userSpaceOnUse" x1="277.5779" y1="422.495" x2="843.4891" y2="260.2225">
	<stop  offset="0" style="stop-color:#EAFF00"/>
	<stop  offset="0.2033" style="stop-color:#EAFF00"/>
	<stop  offset="0.73" style="stop-color:#A2FC59"/>
	<stop  offset="1" style="stop-color:#57F866"/>
</linearGradient>
<ellipse fill="none" stroke="url(#SVGID_1_)" stroke-width="15" stroke-miterlimit="10" cx="560.5" cy="341.4" rx="286.3" ry="293"/>
<g>
	<path d="M407.6,307.6l0.8-0.9c0.9,1.1,2.5,2.1,4.6,2.1c3,0,3.9-1.7,3.9-2.9c0-4.3-8.8-2.1-8.8-7.2c0-2.4,2.2-3.9,4.8-3.9
		c2.2,0,3.8,0.8,5,2.1l-0.8,0.9c-1.1-1.3-2.6-1.8-4.2-1.8c-2,0-3.4,1.1-3.4,2.7c0,3.8,8.8,1.7,8.8,7.2c0,1.9-1.3,4.2-5.2,4.2
		C410.5,309.9,408.7,308.9,407.6,307.6z"/>
	<path d="M421.7,302.3c0-4.3,2.8-7.6,7.1-7.6c4.3,0,7.1,3.3,7.1,7.6s-2.8,7.6-7.1,7.6C424.5,309.9,421.7,306.6,421.7,302.3z
		 M434.7,302.3c0-3.7-2.3-6.4-5.8-6.4c-3.6,0-5.8,2.7-5.8,6.4c0,3.7,2.2,6.4,5.8,6.4C432.4,308.8,434.7,306,434.7,302.3z"/>
	<path d="M450.8,309.6l-1.5-3.6h-7.8l-1.5,3.6h-1.5l6-14.7h1.6l6,14.7H450.8z M445.5,296.3l-3.5,8.6h6.9L445.5,296.3z"/>
	<path d="M464.1,309.6l-4.1-6.1h-3.2v6.1h-1.3V295h5.5c2.5,0,4.5,1.6,4.5,4.3c0,2.7-1.9,4.1-4.1,4.2l4.2,6.2H464.1z M464.1,299.2
		c0-1.8-1.3-3.1-3.3-3.1h-4.1v6.3h4.1C462.8,302.4,464.1,301.1,464.1,299.2z"/>
	<path d="M469.7,309.6V295h1.3v14.7H469.7z"/>
	<path d="M486.2,309.6l-9.2-12.6v12.6h-1.3V295h1.3l9.2,12.4V295h1.3v14.7H486.2z"/>
	<path d="M491.6,302.3c0-4.5,3.3-7.6,7.4-7.6c2.4,0,4.2,1,5.5,2.5l-0.9,0.7c-1-1.2-2.7-2-4.6-2c-3.5,0-6.1,2.6-6.1,6.4
		c0,3.8,2.7,6.5,6.1,6.5c2,0,3.5-1,4.3-1.8v-3.5h-5.5v-1.1h6.8v5.1c-1.3,1.5-3.3,2.4-5.6,2.4C494.9,309.9,491.6,306.8,491.6,302.3z"
		/>
	<path d="M515.7,309.6V295h6c2.5,0,4,1.4,4,3.7c0,1.8-1.3,3.1-2.6,3.4c1.6,0.2,2.9,1.9,2.9,3.6c0,2.4-1.6,4-4.2,4H515.7z
		 M524.5,298.8c0-1.5-1-2.7-2.9-2.7H517v5.4h4.6C523.5,301.5,524.5,300.4,524.5,298.8z M524.8,305.6c0-1.5-1-2.9-3.1-2.9H517v5.8
		h4.7C523.6,308.5,524.8,307.4,524.8,305.6z"/>
	<path d="M540.9,309.6l-1.5-3.6h-7.8l-1.5,3.6h-1.5l6-14.7h1.6l6,14.7H540.9z M535.6,296.3l-3.5,8.6h6.9L535.6,296.3z"/>
	<path d="M545.7,309.6V295h1.3v13.5h7.1v1.1H545.7z"/>
	<path d="M557.8,309.6V295h1.3v13.5h7.1v1.1H557.8z"/>
	<path d="M569.2,307.6l0.8-0.9c0.9,1.1,2.5,2.1,4.6,2.1c3,0,3.9-1.7,3.9-2.9c0-4.3-8.8-2.1-8.8-7.2c0-2.4,2.2-3.9,4.8-3.9
		c2.2,0,3.8,0.8,5,2.1l-0.8,0.9c-1.1-1.3-2.6-1.8-4.2-1.8c-2,0-3.4,1.1-3.4,2.7c0,3.8,8.8,1.7,8.8,7.2c0,1.9-1.3,4.2-5.2,4.2
		C572.2,309.9,570.3,308.9,569.2,307.6z"/>
	<path d="M589.9,307.6l0.8-0.9c0.9,1.1,2.5,2.1,4.6,2.1c3,0,3.9-1.7,3.9-2.9c0-4.3-8.8-2.1-8.8-7.2c0-2.4,2.2-3.9,4.8-3.9
		c2.2,0,3.8,0.8,5,2.1l-0.8,0.9c-1.1-1.3-2.6-1.8-4.2-1.8c-2,0-3.4,1.1-3.4,2.7c0,3.8,8.8,1.7,8.8,7.2c0,1.9-1.3,4.2-5.2,4.2
		C592.8,309.9,591,308.9,589.9,307.6z"/>
	<path d="M608.9,309.6v-6.3l-5.8-8.4h1.5l5,7.2l5-7.2h1.5l-5.8,8.4v6.3H608.9z"/>
	<path d="M629.8,309.6l-9.2-12.6v12.6h-1.3V295h1.3l9.2,12.4V295h1.3v14.7H629.8z"/>
	<path d="M635.8,309.6V295h4.7c4.6,0,7.4,3.3,7.4,7.3c0,4.1-2.9,7.3-7.4,7.3H635.8z M646.5,302.3c0-3.4-2.2-6.2-6.1-6.2H637v12.4
		h3.4C644.3,308.5,646.5,305.7,646.5,302.3z"/>
	<path d="M652.1,309.6V295h1.3v14.7H652.1z"/>
	<path d="M657.5,302.3c0-4.5,3.3-7.6,7.4-7.6c2.3,0,4.1,1,5.3,2.6l-1.1,0.7c-0.9-1.3-2.5-2.1-4.3-2.1c-3.5,0-6.1,2.6-6.1,6.4
		c0,3.8,2.7,6.4,6.1,6.4c1.8,0,3.4-0.9,4.3-2.1l1.1,0.7c-1.3,1.6-3,2.6-5.3,2.6C660.8,309.9,657.5,306.8,657.5,302.3z"/>
	<path d="M684.6,309.6l-1.5-3.6h-7.8l-1.5,3.6h-1.5l6-14.7h1.6l6,14.7H684.6z M679.3,296.3l-3.5,8.6h6.9L679.3,296.3z"/>
	<path d="M693,309.6v-13.5h-4.8V295h10.9v1.1h-4.8v13.5H693z"/>
	<path d="M702.8,309.6V295h9.3v1.1h-8.1v5.4h7.9v1.1h-7.9v5.8h8.1v1.1H702.8z"/>
</g>
<g>
	<path d="M400.5,528.7l-1.1-2.6h-5.6l-1.1,2.6h-1.1l4.4-10.7h1.1l4.4,10.7H400.5z M396.6,519l-2.5,6.2h5L396.6,519z"/>
	<path d="M404.1,524.9c0-2.3,1.5-4,3.8-4c1.3,0,2.1,0.5,2.7,1.3l-0.6,0.5c-0.6-0.8-1.3-1.1-2.1-1.1c-1.8,0-2.9,1.4-2.9,3.3
		c0,1.9,1.1,3.3,2.9,3.3c0.8,0,1.6-0.3,2.1-1.1l0.6,0.5c-0.6,0.8-1.4,1.3-2.7,1.3C405.6,528.9,404.1,527.1,404.1,524.9z"/>
	<path d="M413.9,528.7V521h0.8v1.3c0.7-0.9,1.5-1.5,2.6-1.5v0.9c-0.1,0-0.3,0-0.4,0c-0.8,0-1.8,0.7-2.2,1.4v5.6H413.9z"/>
	<path d="M420,524.9c0-2.3,1.5-4,3.7-4c2.3,0,3.7,1.8,3.7,4c0,2.3-1.4,4.1-3.7,4.1C421.4,528.9,420,527.1,420,524.9z M426.5,524.9
		c0-1.7-1-3.3-2.8-3.3c-1.8,0-2.8,1.6-2.8,3.3c0,1.7,1,3.3,2.8,3.3C425.5,528.2,426.5,526.6,426.5,524.9z"/>
	<path d="M431,528.7v-10.7h0.8v4.2c0.6-0.9,1.6-1.4,2.7-1.4c2.1,0,3.5,1.6,3.5,4.1c0,2.5-1.4,4-3.5,4c-1.2,0-2.1-0.6-2.7-1.4v1.2
		H431z M434.4,528.2c1.7,0,2.7-1.4,2.7-3.3s-1-3.3-2.7-3.3c-1.1,0-2.1,0.7-2.5,1.4v3.8C432.3,527.5,433.3,528.2,434.4,528.2z"/>
	<path d="M446.5,528.7v-0.9c-0.7,0.8-1.6,1.1-2.6,1.1c-1.3,0-2.7-0.9-2.7-2.6c0-1.7,1.4-2.6,2.7-2.6c1.1,0,2,0.4,2.6,1.1v-1.6
		c0-1.2-0.9-1.8-2.1-1.8c-1,0-1.7,0.3-2.4,1.1l-0.5-0.6c0.8-0.9,1.7-1.3,3-1.3c1.6,0,2.8,0.8,2.8,2.5v5.4H446.5z M446.5,527.2v-1.7
		c-0.5-0.7-1.4-1.1-2.3-1.1c-1.3,0-2.1,0.8-2.1,1.9c0,1.1,0.8,1.9,2.1,1.9C445.1,528.3,445.9,527.9,446.5,527.2z"/>
	<path d="M451.5,527.3v-5.5h-1.3V521h1.3v-2.1h0.8v2.1h1.6v0.7h-1.6v5.4c0,0.6,0.3,1.1,0.8,1.1c0.4,0,0.7-0.2,0.9-0.4l0.3,0.6
		c-0.3,0.3-0.7,0.5-1.3,0.5C452,528.9,451.5,528.3,451.5,527.3z"/>
	<path d="M457,519.2c0-0.4,0.3-0.6,0.6-0.6c0.4,0,0.6,0.3,0.6,0.6s-0.3,0.6-0.6,0.6C457.3,519.8,457,519.5,457,519.2z M457.2,528.7
		V521h0.8v7.7H457.2z"/>
	<path d="M461.6,524.9c0-2.3,1.5-4,3.8-4c1.3,0,2.1,0.5,2.7,1.3l-0.6,0.5c-0.6-0.8-1.3-1.1-2.1-1.1c-1.8,0-2.9,1.4-2.9,3.3
		c0,1.9,1.1,3.3,2.9,3.3c0.8,0,1.6-0.3,2.1-1.1l0.6,0.5c-0.6,0.8-1.4,1.3-2.7,1.3C463.1,528.9,461.6,527.1,461.6,524.9z"/>
	<path d="M477,528.7v-10.7h4.4c1.8,0,2.9,1,2.9,2.7c0,1.3-0.9,2.3-1.9,2.4c1.1,0.2,2.1,1.4,2.1,2.6c0,1.8-1.2,2.9-3.1,2.9H477z
		 M483.4,520.9c0-1.1-0.7-2-2.1-2h-3.4v4h3.4C482.6,522.9,483.4,522,483.4,520.9z M483.6,525.8c0-1.1-0.8-2.1-2.2-2.1h-3.4v4.2h3.4
		C482.7,527.9,483.6,527.1,483.6,525.8z"/>
	<path d="M493.1,528.7v-0.9c-0.7,0.8-1.6,1.1-2.6,1.1c-1.3,0-2.7-0.9-2.7-2.6c0-1.7,1.4-2.6,2.7-2.6c1.1,0,2,0.4,2.6,1.1v-1.6
		c0-1.2-0.9-1.8-2.1-1.8c-1,0-1.7,0.3-2.4,1.1l-0.5-0.6c0.8-0.9,1.7-1.3,3-1.3c1.6,0,2.8,0.8,2.8,2.5v5.4H493.1z M493.1,527.2v-1.7
		c-0.5-0.7-1.4-1.1-2.3-1.1c-1.3,0-2.1,0.8-2.1,1.9c0,1.1,0.8,1.9,2.1,1.9C491.7,528.3,492.6,527.9,493.1,527.2z"/>
	<path d="M497.3,527.7l0.5-0.6c0.5,0.6,1.4,1.1,2.5,1.1c1.3,0,2.1-0.7,2.1-1.6c0-2.1-4.9-0.9-4.9-3.7c0-1.2,1-2.1,2.8-2.1
		c1.3,0,2.2,0.5,2.8,1.1l-0.5,0.6c-0.4-0.6-1.3-1-2.3-1c-1.2,0-1.9,0.6-1.9,1.4c0,1.9,4.9,0.8,4.9,3.7c0,1.2-1,2.3-2.9,2.3
		C499.1,528.9,498.1,528.6,497.3,527.7z"/>
	<path d="M512.2,528.7l-3.1-3.7l-1.4,1.4v2.3h-0.8v-10.7h0.8v7.4l4.6-4.4h1.1l-3.6,3.5l3.6,4.2H512.2z"/>
	<path d="M515.9,524.9c0-2.2,1.6-4,3.7-4c2.4,0,3.6,1.9,3.6,4.1v0.2h-6.5c0.1,1.7,1.2,3.1,3,3.1c1,0,1.9-0.4,2.5-1.1l0.4,0.5
		c-0.8,0.8-1.7,1.2-3,1.2C517.5,528.9,515.9,527.3,515.9,524.9z M519.6,521.5c-1.8,0-2.7,1.6-2.8,2.9h5.6
		C522.4,523.2,521.5,521.5,519.6,521.5z"/>
	<path d="M527,527.3v-5.5h-1.3V521h1.3v-2.1h0.8v2.1h1.6v0.7h-1.6v5.4c0,0.6,0.3,1.1,0.8,1.1c0.4,0,0.7-0.2,0.9-0.4l0.3,0.6
		c-0.3,0.3-0.7,0.5-1.3,0.5C527.5,528.9,527,528.3,527,527.3z"/>
	<path d="M532.7,528.7v-10.7h0.8v4.2c0.6-0.9,1.6-1.4,2.7-1.4c2.1,0,3.5,1.6,3.5,4.1c0,2.5-1.4,4-3.5,4c-1.2,0-2.1-0.6-2.7-1.4v1.2
		H532.7z M536,528.2c1.7,0,2.7-1.4,2.7-3.3s-1-3.3-2.7-3.3c-1.1,0-2.1,0.7-2.5,1.4v3.8C533.9,527.5,535,528.2,536,528.2z"/>
	<path d="M548.2,528.7v-0.9c-0.7,0.8-1.6,1.1-2.6,1.1c-1.3,0-2.7-0.9-2.7-2.6c0-1.7,1.4-2.6,2.7-2.6c1.1,0,2,0.4,2.6,1.1v-1.6
		c0-1.2-0.9-1.8-2.1-1.8c-1,0-1.7,0.3-2.4,1.1l-0.5-0.6c0.8-0.9,1.7-1.3,3-1.3c1.6,0,2.8,0.8,2.8,2.5v5.4H548.2z M548.2,527.2v-1.7
		c-0.5-0.7-1.4-1.1-2.3-1.1c-1.3,0-2.1,0.8-2.1,1.9c0,1.1,0.8,1.9,2.1,1.9C546.7,528.3,547.6,527.9,548.2,527.2z"/>
	<path d="M553,528.7v-10.7h0.8v10.7H553z"/>
	<path d="M557.9,528.7v-10.7h0.8v10.7H557.9z"/>
	<path d="M567.8,527.2l0.6-0.7c0.7,0.8,1.8,1.6,3.3,1.6c2.2,0,2.8-1.2,2.8-2.1c0-3.1-6.4-1.5-6.4-5.2c0-1.7,1.6-2.8,3.5-2.8
		c1.6,0,2.8,0.6,3.6,1.5l-0.6,0.7c-0.8-0.9-1.9-1.3-3.1-1.3c-1.4,0-2.5,0.8-2.5,2c0,2.7,6.4,1.2,6.4,5.2c0,1.4-0.9,3-3.8,3
		C569.9,528.9,568.6,528.2,567.8,527.2z"/>
	<path d="M584.3,528.7v-5.3c0-1.5-0.8-1.9-1.9-1.9c-1,0-2,0.6-2.5,1.3v5.8h-0.8v-10.7h0.8v4.1c0.6-0.7,1.7-1.4,2.8-1.4
		c1.6,0,2.4,0.7,2.4,2.5v5.4H584.3z"/>
	<path d="M588.7,524.9c0-2.3,1.5-4,3.7-4c2.3,0,3.7,1.8,3.7,4c0,2.3-1.4,4.1-3.7,4.1C590.1,528.9,588.7,527.1,588.7,524.9z
		 M595.2,524.9c0-1.7-1-3.3-2.8-3.3c-1.8,0-2.8,1.6-2.8,3.3c0,1.7,1,3.3,2.8,3.3C594.2,528.2,595.2,526.6,595.2,524.9z"/>
	<path d="M606.3,528.7l-2.2-6.6l-2.2,6.6h-0.8l-2.5-7.7h0.9l2,6.6l2.2-6.6h0.7l2.2,6.6l2-6.6h0.9l-2.5,7.7H606.3z"/>
	<path d="M619.8,526.5c-0.9,0-1.6-0.7-1.6-1.6c0-0.9,0.7-1.6,1.6-1.6c0.9,0,1.6,0.7,1.6,1.6C621.5,525.8,620.7,526.5,619.8,526.5z"
		/>
	<path d="M640.1,528.7v-9.4l-3.9,9.4h-0.4l-3.9-9.4v9.4H631v-10.7h1.4l3.6,8.8l3.6-8.8h1.4v10.7H640.1z"/>
	<path d="M650,528.7v-0.9c-0.7,0.8-1.6,1.1-2.6,1.1c-1.3,0-2.7-0.9-2.7-2.6c0-1.7,1.4-2.6,2.7-2.6c1.1,0,2,0.4,2.6,1.1v-1.6
		c0-1.2-0.9-1.8-2.1-1.8c-1,0-1.7,0.3-2.4,1.1l-0.5-0.6c0.8-0.9,1.7-1.3,3-1.3c1.6,0,2.8,0.8,2.8,2.5v5.4H650z M650,527.2v-1.7
		c-0.5-0.7-1.4-1.1-2.3-1.1c-1.3,0-2.1,0.8-2.1,1.9c0,1.1,0.8,1.9,2.1,1.9C648.6,528.3,649.4,527.9,650,527.2z"/>
	<path d="M654.2,527.7l0.5-0.6c0.5,0.6,1.4,1.1,2.5,1.1c1.3,0,2.1-0.7,2.1-1.6c0-2.1-4.9-0.9-4.9-3.7c0-1.2,1-2.1,2.8-2.1
		c1.3,0,2.2,0.5,2.8,1.1l-0.5,0.6c-0.4-0.6-1.3-1-2.3-1c-1.2,0-1.9,0.6-1.9,1.4c0,1.9,4.9,0.8,4.9,3.7c0,1.2-1,2.3-2.9,2.3
		C655.9,528.9,654.9,528.6,654.2,527.7z"/>
	<path d="M663.8,527.3v-5.5h-1.3V521h1.3v-2.1h0.8v2.1h1.6v0.7h-1.6v5.4c0,0.6,0.3,1.1,0.8,1.1c0.4,0,0.7-0.2,0.9-0.4l0.3,0.6
		c-0.3,0.3-0.7,0.5-1.3,0.5C664.3,528.9,663.8,528.3,663.8,527.3z"/>
	<path d="M669,524.9c0-2.2,1.6-4,3.7-4c2.4,0,3.6,1.9,3.6,4.1v0.2h-6.5c0.1,1.7,1.2,3.1,3,3.1c1,0,1.9-0.4,2.5-1.1l0.4,0.5
		c-0.8,0.8-1.7,1.2-3,1.2C670.6,528.9,669,527.3,669,524.9z M672.7,521.5c-1.8,0-2.7,1.6-2.8,2.9h5.6
		C675.5,523.2,674.7,521.5,672.7,521.5z"/>
	<path d="M680,528.7V521h0.8v1.3c0.7-0.9,1.5-1.5,2.6-1.5v0.9c-0.1,0-0.3,0-0.4,0c-0.8,0-1.8,0.7-2.2,1.4v5.6H680z"/>
	<path d="M686.1,523.4c0-3.3,2.4-5.5,5.4-5.5c1.7,0,3,0.8,3.9,1.9l-0.8,0.5c-0.7-0.9-1.8-1.6-3.1-1.6c-2.5,0-4.5,1.9-4.5,4.7
		c0,2.8,1.9,4.7,4.5,4.7c1.3,0,2.4-0.6,3.1-1.6l0.8,0.5c-0.9,1.2-2.2,1.9-3.9,1.9C688.5,528.9,686.1,526.7,686.1,523.4z"/>
	<path d="M698.7,528.7v-10.7h0.8v10.7H698.7z"/>
	<path d="M708.5,528.7v-0.9c-0.7,0.8-1.6,1.1-2.6,1.1c-1.3,0-2.7-0.9-2.7-2.6c0-1.7,1.4-2.6,2.7-2.6c1.1,0,2,0.4,2.6,1.1v-1.6
		c0-1.2-0.9-1.8-2.1-1.8c-1,0-1.7,0.3-2.4,1.1l-0.5-0.6c0.8-0.9,1.7-1.3,3-1.3c1.6,0,2.8,0.8,2.8,2.5v5.4H708.5z M708.5,527.2v-1.7
		c-0.5-0.7-1.4-1.1-2.3-1.1c-1.3,0-2.1,0.8-2.1,1.9c0,1.1,0.8,1.9,2.1,1.9C707.1,528.3,707.9,527.9,708.5,527.2z"/>
	<path d="M712.7,527.7l0.5-0.6c0.5,0.6,1.4,1.1,2.5,1.1c1.3,0,2.1-0.7,2.1-1.6c0-2.1-4.9-0.9-4.9-3.7c0-1.2,1-2.1,2.8-2.1
		c1.3,0,2.2,0.5,2.8,1.1l-0.5,0.6c-0.4-0.6-1.3-1-2.3-1c-1.2,0-1.9,0.6-1.9,1.4c0,1.9,4.9,0.8,4.9,3.7c0,1.2-1,2.3-2.9,2.3
		C714.4,528.9,713.4,528.6,712.7,527.7z"/>
	<path d="M721.4,527.7l0.5-0.6c0.5,0.6,1.4,1.1,2.5,1.1c1.3,0,2.1-0.7,2.1-1.6c0-2.1-4.9-0.9-4.9-3.7c0-1.2,1-2.1,2.8-2.1
		c1.3,0,2.2,0.5,2.8,1.1l-0.5,0.6c-0.4-0.6-1.3-1-2.3-1c-1.2,0-1.9,0.6-1.9,1.4c0,1.9,4.9,0.8,4.9,3.7c0,1.2-1,2.3-2.9,2.3
		C723.2,528.9,722.2,528.6,721.4,527.7z"/>
</g>
<g>
	<path d="M244.6,419v-72h29.6c12.1,0,19.9,7,19.9,18.4c0,9.1-6.2,15.2-12.6,16.5c7.7,1.2,14,9.2,14,17.7c0,12-7.8,19.4-20.6,19.4
		H244.6z M287.6,366c0-7.3-4.9-13.4-14.1-13.4h-22.7v26.7h22.7C282.7,379.3,287.6,373.4,287.6,366z M289,399.1
		c0-7.3-5.1-14.3-15.1-14.3h-23.1v28.5h23.1C283.4,413.4,289,407.9,289,399.1z"/>
	<path d="M368.5,419l-7.1-17.7h-38.1l-7.1,17.7H309l29.5-72h7.7l29.5,72H368.5z M342.2,353.6l-17,42.1h34L342.2,353.6z"/>
	<path d="M391.6,419v-72h6.2v66.4h34.9v5.6H391.6z"/>
	<path d="M451.4,419v-72h6.2v66.4h34.9v5.6H451.4z"/>
	<path d="M553.5,419l-20.2-29.8h-15.9V419h-6.2v-72h26.9c12.4,0,21.9,7.9,21.9,21.1c0,13.1-9.3,20.3-20,20.7l20.8,30.2H553.5z
		 M553.6,368c0-9.1-6.5-15.4-16-15.4h-20.2v31h20.2C547.1,383.6,553.6,377.1,553.6,368z"/>
	<path d="M580.8,419v-72h6.2v72H580.8z"/>
	<path d="M610.3,419v-72h23c22.4,0,36.4,16.3,36.4,36.1c0,20-14,36-36.4,36H610.3z M663.2,383c0-16.8-10.8-30.5-29.9-30.5h-16.8
		v60.8h16.8C652.3,413.4,663.2,399.9,663.2,383z"/>
	<path d="M690.4,419v-72h45.7v5.6h-39.5v26.7h38.8v5.6h-38.8v28.5h39.5v5.6H690.4z"/>
	<path d="M798.9,419l-20.2-29.8h-15.9V419h-6.2v-72h26.9c12.4,0,21.9,7.9,21.9,21.1c0,13.1-9.3,20.3-20,20.7l20.8,30.2H798.9z
		 M799,368c0-9.1-6.5-15.4-16-15.4h-20.2v31h20.2C792.6,383.6,799,377.1,799,368z"/>
	<path d="M822.3,408.9l4-4.6c4.6,5.4,12.2,10.5,22.5,10.5c14.8,0,19-8.2,19-14.4c0-21.2-43.2-10.2-43.2-35.3
		c0-11.8,10.6-19.2,23.7-19.2c10.8,0,18.8,3.8,24.4,10.2l-4.1,4.5c-5.2-6.3-12.5-9.1-20.6-9.1c-9.6,0-16.8,5.5-16.8,13.3
		c0,18.5,43.2,8.3,43.2,35.2c0,9.3-6.2,20.4-25.6,20.4C836.7,420.3,827.8,415.6,822.3,408.9z"/>
</g>
<g>
	<polygon points="556,169.3 568.4,178.3 565.1,181.5 557.6,174.8 	"/>
	<polygon points="546.9,201.3 541.7,205.7 543.2,127.7 546.9,134.8 	"/>
	<polygon points="578.4,175.9 554.8,154.6 554.8,149.8 583.9,171.6 	"/>
	<polygon points="578.6,193.8 537.2,226.1 537.2,222.8 574.8,189.7 	"/>
	<polygon points="554.8,168.5 558.2,171 558.3,188.4 554.9,191.7 	"/>
	<polygon points="578.5,175.8 554.8,194.6 554.9,191.6 574.6,171.9 	"/>
	<polygon points="578.5,193.9 565.8,182.2 568.2,178.3 583.7,190 	"/>
</g>
<g>
	<path d="M473.3,575.9l-1.4-5.9l-1.4,5.9h-2.5l-2.7-9.3h2.7l1.4,6.2l1.6-6.2h1.8l1.6,6.2l1.4-6.2h2.7l-2.7,9.3H473.3z"/>
	<path d="M483.8,575.9V572c0-0.8-0.4-1.1-1.1-1.1c-0.6,0-1,0.3-1.3,0.7v4.4h-2.2v-9.3h2.2v3.4c0.4-0.5,1.2-1,2.3-1
		c1.5,0,2.2,0.9,2.2,2.1v4.8H483.8z"/>
	<path d="M491.5,575.9v-0.7c-0.4,0.5-1.2,0.8-2.1,0.8c-1,0-2.3-0.7-2.3-2.2c0-1.6,1.3-2.2,2.3-2.2c0.9,0,1.7,0.3,2.1,0.8v-0.8
		c0-0.6-0.5-1-1.4-1c-0.7,0-1.4,0.3-1.9,0.7l-0.8-1.4c0.9-0.7,2-1.1,3.1-1.1c1.6,0,3.2,0.6,3.2,2.7v4.2H491.5z M491.5,574.2v-0.6
		c-0.2-0.3-0.7-0.5-1.2-0.5c-0.6,0-1.1,0.3-1.1,0.8s0.5,0.8,1.1,0.8C490.8,574.7,491.3,574.5,491.5,574.2z"/>
	<path d="M495.7,574.1V571h-1.1v-1.9h1.1v-1.8h2.1v1.8h1.4v1.9h-1.4v2.5c0,0.4,0.2,0.7,0.6,0.7c0.2,0,0.5-0.1,0.5-0.2l0.4,1.6
		c-0.3,0.3-0.8,0.4-1.6,0.4C496.4,576.1,495.7,575.4,495.7,574.1z"/>
	<path d="M499.7,575.1l0.9-1.5c0.5,0.4,1.6,0.9,2.4,0.9c0.6,0,0.9-0.2,0.9-0.5c0-0.9-3.9,0-3.9-2.7c0-1.2,1-2.2,2.9-2.2
		c1.1,0,2.1,0.4,2.8,0.9l-0.8,1.4c-0.4-0.4-1.2-0.7-2-0.7c-0.5,0-0.9,0.2-0.9,0.5c0,0.8,3.9,0,3.9,2.8c0,1.3-1.1,2.2-3.1,2.2
		C501.6,576.1,500.4,575.7,499.7,575.1z"/>
	<path d="M513.4,575.9l-0.5-1.3h-3.7l-0.5,1.3h-2.7l3.5-9.3h3l3.5,9.3H513.4z M511.1,569l-1.2,3.5h2.4L511.1,569z"/>
	<path d="M518.9,575.1v3.4h-2.2v-9.3h2.2v0.8c0.5-0.6,1.2-1,2-1c1.7,0,3,1.3,3,3.5c0,2.3-1.3,3.6-3,3.6
		C520.2,576.1,519.5,575.8,518.9,575.1z M521.7,572.5c0-1-0.6-1.6-1.5-1.6c-0.5,0-1,0.3-1.3,0.6v2.1c0.3,0.4,0.8,0.6,1.3,0.6
		C521.1,574.2,521.7,573.6,521.7,572.5z"/>
	<path d="M527.2,575.1v3.4H525v-9.3h2.2v0.8c0.5-0.6,1.2-1,2-1c1.7,0,3,1.3,3,3.5c0,2.3-1.3,3.6-3,3.6
		C528.4,576.1,527.7,575.8,527.2,575.1z M530,572.5c0-1-0.6-1.6-1.5-1.6c-0.5,0-1,0.3-1.3,0.6v2.1c0.3,0.4,0.8,0.6,1.3,0.6
		C529.3,574.2,530,573.6,530,572.5z"/>
	<path d="M533,570.4c0-0.7,0.6-1.3,1.3-1.3c0.7,0,1.3,0.6,1.3,1.3c0,0.7-0.6,1.3-1.3,1.3C533.6,571.7,533,571.1,533,570.4z
		 M533,574.8c0-0.7,0.6-1.3,1.3-1.3c0.7,0,1.3,0.6,1.3,1.3c0,0.7-0.6,1.3-1.3,1.3C533.6,576.1,533,575.5,533,574.8z"/>
	<path d="M547.5,571.9v2.8h-1.4v-2.8h-2.4v-1.3h2.4v-2.7h1.4v2.7h2.4v1.3H547.5z"/>
	<path d="M552.1,575.9l3.2-7.2h-4.6v-2.1h7.3v1.7l-3.3,7.7H552.1z"/>
	<path d="M562.6,575.2l1-1.8c0.5,0.4,1,0.6,1.8,0.6c1.4,0,2.2-1,2.2-2.1c0,0,0-0.1,0-0.1c-0.5,0.6-1.3,1.1-2.3,1.1
		c-1.7,0-3.2-1.1-3.2-3.1c0-1.9,1.6-3.3,3.7-3.3c3,0,4.2,2.1,4.2,4.8c0,3-1.8,4.8-4.6,4.8C564.4,576.1,563.3,575.8,562.6,575.2z
		 M567.6,570.1c-0.1-0.8-0.5-1.5-1.7-1.5c-0.9,0-1.4,0.5-1.4,1.1c0,0.8,0.8,1.1,1.5,1.1C566.6,570.7,567.2,570.5,567.6,570.1z"/>
	<path d="M573.5,575.9v-6.3l-1.6,1.6l-1.4-1.4l3.3-3.2h2.1v9.3H573.5z"/>
	<path d="M577.1,571.3c0-3,1.8-4.8,4.6-4.8c1.1,0,2.1,0.4,2.8,0.9l-1.1,1.8c-0.5-0.4-1-0.6-1.8-0.6c-1.1,0-2.2,0.8-2.2,2.1
		c0,0.1,0,0.1,0,0.1c0.5-0.6,1.3-1.1,2.3-1.1c1.7,0,3.2,1.1,3.2,3.1c0,1.9-1.6,3.3-3.7,3.3C578.4,576.1,577.1,574,577.1,571.3z
		 M582.6,572.9c0-0.8-0.8-1.1-1.5-1.1c-0.6,0-1.2,0.2-1.6,0.6c0.1,0.8,0.5,1.5,1.7,1.5C582,574,582.6,573.4,582.6,572.9z"/>
	<path d="M590.6,575.9l3.2-7.2h-4.6v-2.1h7.3v1.7l-3.3,7.7H590.6z"/>
	<path d="M597.1,571.3c0-2.5,1.3-4.8,4-4.8s4,2.4,4,4.8c0,2.5-1.3,4.8-4,4.8S597.1,573.7,597.1,571.3z M602.7,571.3
		c0-1.7-0.4-2.7-1.6-2.7c-1.1,0-1.6,1-1.6,2.7c0,1.7,0.4,2.7,1.6,2.7C602.2,574,602.7,572.9,602.7,571.3z"/>
	<path d="M606.3,575.2l1-1.8c0.5,0.4,1,0.6,1.8,0.6c1.4,0,2.2-1,2.2-2.1c0,0,0-0.1,0-0.1c-0.5,0.6-1.3,1.1-2.3,1.1
		c-1.7,0-3.2-1.1-3.2-3.1c0-1.9,1.6-3.3,3.7-3.3c3,0,4.2,2.1,4.2,4.8c0,3-1.8,4.8-4.6,4.8C608,576.1,607,575.8,606.3,575.2z
		 M611.3,570.1c-0.1-0.8-0.5-1.5-1.7-1.5c-0.9,0-1.4,0.5-1.4,1.1c0,0.8,0.8,1.1,1.5,1.1C610.3,570.7,610.9,570.5,611.3,570.1z"/>
	<path d="M618.1,571.3c0-3,1.8-4.8,4.6-4.8c1.1,0,2.1,0.4,2.8,0.9l-1.1,1.8c-0.5-0.4-1-0.6-1.8-0.6c-1.1,0-2.2,0.8-2.2,2.1
		c0,0.1,0,0.1,0,0.1c0.5-0.6,1.3-1.1,2.3-1.1c1.7,0,3.2,1.1,3.2,3.1c0,1.9-1.6,3.3-3.7,3.3C619.4,576.1,618.1,574,618.1,571.3z
		 M623.6,572.9c0-0.8-0.8-1.1-1.5-1.1c-0.6,0-1.2,0.2-1.6,0.6c0.1,0.8,0.5,1.5,1.7,1.5C623.1,574,623.6,573.4,623.6,572.9z"/>
	<path d="M627.2,575.2l1-1.8c0.5,0.4,1,0.6,1.8,0.6c1.4,0,2.2-1,2.2-2.1c0,0,0-0.1,0-0.1c-0.5,0.6-1.3,1.1-2.3,1.1
		c-1.7,0-3.2-1.1-3.2-3.1c0-1.9,1.6-3.3,3.7-3.3c3,0,4.2,2.1,4.2,4.8c0,3-1.8,4.8-4.6,4.8C628.9,576.1,627.9,575.8,627.2,575.2z
		 M632.2,570.1c-0.1-0.8-0.5-1.5-1.7-1.5c-0.9,0-1.4,0.5-1.4,1.1c0,0.8,0.8,1.1,1.5,1.1C631.2,570.7,631.8,570.5,632.2,570.1z"/>
	<path d="M638.9,571.3c0-3,1.8-4.8,4.6-4.8c1.1,0,2.1,0.4,2.8,0.9l-1.1,1.8c-0.5-0.4-1-0.6-1.8-0.6c-1.1,0-2.2,0.8-2.2,2.1
		c0,0.1,0,0.1,0,0.1c0.5-0.6,1.3-1.1,2.3-1.1c1.7,0,3.2,1.1,3.2,3.1c0,1.9-1.6,3.3-3.7,3.3C640.2,576.1,638.9,574,638.9,571.3z
		 M644.5,572.9c0-0.8-0.8-1.1-1.5-1.1c-0.6,0-1.2,0.2-1.6,0.6c0.1,0.8,0.5,1.5,1.7,1.5C643.9,574,644.5,573.4,644.5,572.9z"/>
	<path d="M647.6,573.5c0-1.1,0.8-1.9,1.9-2.4c-1-0.4-1.7-1.1-1.7-2.2c0-1.8,2-2.5,3.8-2.5c1.8,0,3.8,0.7,3.8,2.5
		c0,1.1-0.8,1.8-1.8,2.2c1.1,0.4,1.9,1.3,1.9,2.4c0,1.8-1.9,2.6-4,2.6C649.5,576.1,647.6,575.3,647.6,573.5z M653.1,573.2
		c0-0.6-0.9-0.9-1.5-1c-0.6,0.1-1.5,0.4-1.5,1c0,0.5,0.6,0.9,1.5,0.9C652.4,574.1,653.1,573.7,653.1,573.2z M652.9,569.3
		c0-0.5-0.5-0.8-1.3-0.8c-0.8,0-1.4,0.3-1.4,0.8c0,0.5,0.8,0.8,1.4,0.9C652.1,570.1,652.9,569.8,652.9,569.3z"/>
</g>
</svg>
