<svg xmlns="http://www.w3.org/2000/svg" viewBox="208.5 8.8 704 668.3"><path fill="none" stroke="#000" stroke-width="1.094" d="M372.4 468.3h383.3"/><linearGradient id="a" gradientUnits="userSpaceOnUse" x1="280.055" y1="422.495" x2="845.966" y2="260.223"><stop offset="0" stop-color="#eaff00"/><stop offset=".203" stop-color="#eaff00"/><stop offset=".73" stop-color="#a2fc59"/><stop offset="1" stop-color="#57f866"/></linearGradient><ellipse fill="none" stroke="url(#a)" stroke-width="15" stroke-miterlimit="10" cx="563" cy="341.4" rx="286.3" ry="293"/><text transform="translate(414.6 309.636)" font-family="'ProximaNova-Light'" font-size="22" letter-spacing="1">SOARING BALLS SYNDICATE</text><text transform="translate(396.29 528.749)" font-family="'ProximaNova-Light'" font-size="16" letter-spacing="1">Choreography • Classes • Collaborations</text><text transform="translate(237.593 419.007)" font-family="'ProximaNova-Light'" font-size="108" letter-spacing="5">BALLRIDERS</text><path d="M567 165.8l12.4 9-3.3 3.2-7.4-6.8zM557.9 197.7l-5.2 4.4 1.5-77.9 3.8 7.1zM589.4 172.3L565.8 151v-4.7l29.1 21.7zM589.7 190.2l-41.5 32.3v-3.3l37.6-33z"/><path d="M565.8 164.9l3.4 2.5.1 17.4-3.4 3.3z"/><path d="M589.5 172.2L565.9 191v-3l19.7-19.6z"/><path d="M589.5 190.3l-12.7-11.7 2.4-3.8 15.5 11.6z"/></svg>