<?xml version="1.0" encoding="utf-8"?>
<!-- Generator: Adobe Illustrator 18.0.0, SVG Export Plug-In . SVG Version: 6.00 Build 0)  -->
<!DOCTYPE svg PUBLIC "-//W3C//DTD SVG 1.1//EN" "http://www.w3.org/Graphics/SVG/1.1/DTD/svg11.dtd">
<svg version="1.1" id="START" xmlns="http://www.w3.org/2000/svg" xmlns:xlink="http://www.w3.org/1999/xlink" x="0px" y="0px"
	 viewBox="135.3 -11.4 850.4 708.7" enable-background="new 135.3 -11.4 850.4 708.7" xml:space="preserve">
<line fill="none" stroke="#000000" stroke-width="0.763" x1="467.4" y1="470.2" x2="653.7" y2="470.2"/>
<linearGradient id="SVGID_1_" gradientUnits="userSpaceOnUse" x1="277.5779" y1="422.495" x2="843.4891" y2="260.2225">
	<stop  offset="0" style="stop-color:#EAFF00"/>
	<stop  offset="0.2033" style="stop-color:#EAFF00"/>
	<stop  offset="0.73" style="stop-color:#A2FC59"/>
	<stop  offset="1" style="stop-color:#57F866"/>
</linearGradient>
<ellipse fill="none" stroke="url(#SVGID_1_)" stroke-width="15" stroke-miterlimit="10" cx="560.5" cy="341.4" rx="286.3" ry="293"/>
<text transform="matrix(1 0 0 1 406.5681 309.6356)" font-family="'ProximaNova-Light'" font-size="22" letter-spacing="1">SOARING BALLS SYNDICATE</text>
<text transform="matrix(1 0 0 1 391.4635 528.749)" font-family="'ProximaNova-Light'" font-size="16" letter-spacing="1">Acrobatic Basketball Show • MasterClass</text>
<text transform="matrix(1 0 0 1 235.6187 419.0072)" font-family="'ProximaNova-Light'" font-size="108" letter-spacing="5">BALLRIDERS</text>
<g>
	<polygon points="556,169.3 568.4,178.3 565.1,181.5 557.6,174.8 	"/>
	<polygon points="546.9,201.3 541.7,205.7 543.2,127.7 546.9,134.8 	"/>
	<polygon points="578.4,175.9 554.8,154.6 554.8,149.8 583.9,171.6 	"/>
	<polygon points="578.6,193.8 537.2,226.1 537.2,222.8 574.8,189.7 	"/>
	<polygon points="554.8,168.5 558.2,171 558.3,188.4 554.9,191.7 	"/>
	<polygon points="578.5,175.8 554.8,194.6 554.9,191.6 574.6,171.9 	"/>
	<polygon points="578.5,193.9 565.8,182.2 568.2,178.3 583.7,190 	"/>
</g>
<text transform="matrix(1 0 0 1 465.2864 575.9329)" font-family="'ProximaNova-Extrabld'" font-size="14">WhatsApp:  +7 916 709 69 68</text>
</svg>
