<svg xmlns="http://www.w3.org/2000/svg" viewBox="135.3 -11.4 850.4 708.7"><path fill="none" stroke="#000" stroke-width=".763" d="M467.4 470.2h186.3"/><linearGradient id="a" gradientUnits="userSpaceOnUse" x1="277.578" y1="422.495" x2="843.489" y2="260.223"><stop offset="0" stop-color="#eaff00"/><stop offset=".203" stop-color="#eaff00"/><stop offset=".73" stop-color="#a2fc59"/><stop offset="1" stop-color="#57f866"/></linearGradient><ellipse fill="none" stroke="url(#a)" stroke-width="15" stroke-miterlimit="10" cx="560.5" cy="341.4" rx="286.3" ry="293"/><path d="M407.6 307.6l.8-.9c.9 1.1 2.5 2.1 4.6 2.1 3 0 3.9-1.7 3.9-2.9 0-4.3-8.8-2.1-8.8-7.2 0-2.4 2.2-3.9 4.8-3.9 2.2 0 3.8.8 5 2.1l-.8.9c-1.1-1.3-2.6-1.8-4.2-1.8-2 0-3.4 1.1-3.4 2.7 0 3.8 8.8 1.7 8.8 7.2 0 1.9-1.3 4.2-5.2 4.2-2.6-.2-4.4-1.2-5.5-2.5zM421.7 302.3c0-4.3 2.8-7.6 7.1-7.6s7.1 3.3 7.1 7.6-2.8 7.6-7.1 7.6-7.1-3.3-7.1-7.6zm13 0c0-3.7-2.3-6.4-5.8-6.4-3.6 0-5.8 2.7-5.8 6.4s2.2 6.4 5.8 6.4c3.5.1 5.8-2.7 5.8-6.4zM450.8 309.6l-1.5-3.6h-7.8l-1.5 3.6h-1.5l6-14.7h1.6l6 14.7h-1.3zm-5.3-13.3l-3.5 8.6h6.9l-3.4-8.6zM464.1 309.6l-4.1-6.1h-3.2v6.1h-1.3V295h5.5c2.5 0 4.5 1.6 4.5 4.3 0 2.7-1.9 4.1-4.1 4.2l4.2 6.2h-1.5zm0-10.4c0-1.8-1.3-3.1-3.3-3.1h-4.1v6.3h4.1c2 0 3.3-1.3 3.3-3.2zM469.7 309.6V295h1.3v14.7h-1.3zM486.2 309.6L477 297v12.6h-1.3V295h1.3l9.2 12.4V295h1.3v14.7h-1.3zM491.6 302.3c0-4.5 3.3-7.6 7.4-7.6 2.4 0 4.2 1 5.5 2.5l-.9.7c-1-1.2-2.7-2-4.6-2-3.5 0-6.1 2.6-6.1 6.4 0 3.8 2.7 6.5 6.1 6.5 2 0 3.5-1 4.3-1.8v-3.5h-5.5v-1.1h6.8v5.1c-1.3 1.5-3.3 2.4-5.6 2.4-4.1 0-7.4-3.1-7.4-7.6zM515.7 309.6V295h6c2.5 0 4 1.4 4 3.7 0 1.8-1.3 3.1-2.6 3.4 1.6.2 2.9 1.9 2.9 3.6 0 2.4-1.6 4-4.2 4h-6.1zm8.8-10.8c0-1.5-1-2.7-2.9-2.7H517v5.4h4.6c1.9 0 2.9-1.1 2.9-2.7zm.3 6.8c0-1.5-1-2.9-3.1-2.9H517v5.8h4.7c1.9 0 3.1-1.1 3.1-2.9zM540.9 309.6l-1.5-3.6h-7.8l-1.5 3.6h-1.5l6-14.7h1.6l6 14.7h-1.3zm-5.3-13.3l-3.5 8.6h6.9l-3.4-8.6zM545.7 309.6V295h1.3v13.5h7.1v1.1h-8.4zM557.8 309.6V295h1.3v13.5h7.1v1.1h-8.4zM569.2 307.6l.8-.9c.9 1.1 2.5 2.1 4.6 2.1 3 0 3.9-1.7 3.9-2.9 0-4.3-8.8-2.1-8.8-7.2 0-2.4 2.2-3.9 4.8-3.9 2.2 0 3.8.8 5 2.1l-.8.9c-1.1-1.3-2.6-1.8-4.2-1.8-2 0-3.4 1.1-3.4 2.7 0 3.8 8.8 1.7 8.8 7.2 0 1.9-1.3 4.2-5.2 4.2-2.5-.2-4.4-1.2-5.5-2.5zM589.9 307.6l.8-.9c.9 1.1 2.5 2.1 4.6 2.1 3 0 3.9-1.7 3.9-2.9 0-4.3-8.8-2.1-8.8-7.2 0-2.4 2.2-3.9 4.8-3.9 2.2 0 3.8.8 5 2.1l-.8.9c-1.1-1.3-2.6-1.8-4.2-1.8-2 0-3.4 1.1-3.4 2.7 0 3.8 8.8 1.7 8.8 7.2 0 1.9-1.3 4.2-5.2 4.2-2.6-.2-4.4-1.2-5.5-2.5zM608.9 309.6v-6.3l-5.8-8.4h1.5l5 7.2 5-7.2h1.5l-5.8 8.4v6.3h-1.4zM629.8 309.6l-9.2-12.6v12.6h-1.3V295h1.3l9.2 12.4V295h1.3v14.7h-1.3zM635.8 309.6V295h4.7c4.6 0 7.4 3.3 7.4 7.3 0 4.1-2.9 7.3-7.4 7.3h-4.7zm10.7-7.3c0-3.4-2.2-6.2-6.1-6.2H637v12.4h3.4c3.9 0 6.1-2.8 6.1-6.2zM652.1 309.6V295h1.3v14.7h-1.3zM657.5 302.3c0-4.5 3.3-7.6 7.4-7.6 2.3 0 4.1 1 5.3 2.6l-1.1.7c-.9-1.3-2.5-2.1-4.3-2.1-3.5 0-6.1 2.6-6.1 6.4 0 3.8 2.7 6.4 6.1 6.4 1.8 0 3.4-.9 4.3-2.1l1.1.7c-1.3 1.6-3 2.6-5.3 2.6-4.1 0-7.4-3.1-7.4-7.6zM684.6 309.6l-1.5-3.6h-7.8l-1.5 3.6h-1.5l6-14.7h1.6l6 14.7h-1.3zm-5.3-13.3l-3.5 8.6h6.9l-3.4-8.6zM693 309.6v-13.5h-4.8V295h10.9v1.1h-4.8v13.5H693zM702.8 309.6V295h9.3v1.1H704v5.4h7.9v1.1H704v5.8h8.1v1.1h-9.3z"/><g><path d="M400.5 528.7l-1.1-2.6h-5.6l-1.1 2.6h-1.1L396 518h1.1l4.4 10.7h-1zm-3.9-9.7l-2.5 6.2h5l-2.5-6.2zM404.1 524.9c0-2.3 1.5-4 3.8-4 1.3 0 2.1.5 2.7 1.3l-.6.5c-.6-.8-1.3-1.1-2.1-1.1-1.8 0-2.9 1.4-2.9 3.3s1.1 3.3 2.9 3.3c.8 0 1.6-.3 2.1-1.1l.6.5c-.6.8-1.4 1.3-2.7 1.3-2.3 0-3.8-1.8-3.8-4zM413.9 528.7V521h.8v1.3c.7-.9 1.5-1.5 2.6-1.5v.9h-.4c-.8 0-1.8.7-2.2 1.4v5.6h-.8zM420 524.9c0-2.3 1.5-4 3.7-4 2.3 0 3.7 1.8 3.7 4 0 2.3-1.4 4.1-3.7 4.1-2.3-.1-3.7-1.9-3.7-4.1zm6.5 0c0-1.7-1-3.3-2.8-3.3-1.8 0-2.8 1.6-2.8 3.3 0 1.7 1 3.3 2.8 3.3 1.8 0 2.8-1.6 2.8-3.3zM431 528.7V518h.8v4.2c.6-.9 1.6-1.4 2.7-1.4 2.1 0 3.5 1.6 3.5 4.1 0 2.5-1.4 4-3.5 4-1.2 0-2.1-.6-2.7-1.4v1.2h-.8zm3.4-.5c1.7 0 2.7-1.4 2.7-3.3s-1-3.3-2.7-3.3c-1.1 0-2.1.7-2.5 1.4v3.8c.4.7 1.4 1.4 2.5 1.4zM446.5 528.7v-.9c-.7.8-1.6 1.1-2.6 1.1-1.3 0-2.7-.9-2.7-2.6 0-1.7 1.4-2.6 2.7-2.6 1.1 0 2 .4 2.6 1.1v-1.6c0-1.2-.9-1.8-2.1-1.8-1 0-1.7.3-2.4 1.1l-.5-.6c.8-.9 1.7-1.3 3-1.3 1.6 0 2.8.8 2.8 2.5v5.4h-.8zm0-1.5v-1.7c-.5-.7-1.4-1.1-2.3-1.1-1.3 0-2.1.8-2.1 1.9 0 1.1.8 1.9 2.1 1.9.9.1 1.7-.3 2.3-1zM451.5 527.3v-5.5h-1.3v-.8h1.3v-2.1h.8v2.1h1.6v.7h-1.6v5.4c0 .6.3 1.1.8 1.1.4 0 .7-.2.9-.4l.3.6c-.3.3-.7.5-1.3.5-1 0-1.5-.6-1.5-1.6zM457 519.2c0-.4.3-.6.6-.6.4 0 .6.3.6.6s-.3.6-.6.6-.6-.3-.6-.6zm.2 9.5V521h.8v7.7h-.8zM461.6 524.9c0-2.3 1.5-4 3.8-4 1.3 0 2.1.5 2.7 1.3l-.6.5c-.6-.8-1.3-1.1-2.1-1.1-1.8 0-2.9 1.4-2.9 3.3s1.1 3.3 2.9 3.3c.8 0 1.6-.3 2.1-1.1l.6.5c-.6.8-1.4 1.3-2.7 1.3-2.3 0-3.8-1.8-3.8-4zM477 528.7V518h4.4c1.8 0 2.9 1 2.9 2.7 0 1.3-.9 2.3-1.9 2.4 1.1.2 2.1 1.4 2.1 2.6 0 1.8-1.2 2.9-3.1 2.9H477zm6.4-7.8c0-1.1-.7-2-2.1-2h-3.4v4h3.4c1.3 0 2.1-.9 2.1-2zm.2 4.9c0-1.1-.8-2.1-2.2-2.1H478v4.2h3.4c1.3 0 2.2-.8 2.2-2.1zM493.1 528.7v-.9c-.7.8-1.6 1.1-2.6 1.1-1.3 0-2.7-.9-2.7-2.6 0-1.7 1.4-2.6 2.7-2.6 1.1 0 2 .4 2.6 1.1v-1.6c0-1.2-.9-1.8-2.1-1.8-1 0-1.7.3-2.4 1.1l-.5-.6c.8-.9 1.7-1.3 3-1.3 1.6 0 2.8.8 2.8 2.5v5.4h-.8zm0-1.5v-1.7c-.5-.7-1.4-1.1-2.3-1.1-1.3 0-2.1.8-2.1 1.9 0 1.1.8 1.9 2.1 1.9.9.1 1.8-.3 2.3-1zM497.3 527.7l.5-.6c.5.6 1.4 1.1 2.5 1.1 1.3 0 2.1-.7 2.1-1.6 0-2.1-4.9-.9-4.9-3.7 0-1.2 1-2.1 2.8-2.1 1.3 0 2.2.5 2.8 1.1l-.5.6c-.4-.6-1.3-1-2.3-1-1.2 0-1.9.6-1.9 1.4 0 1.9 4.9.8 4.9 3.7 0 1.2-1 2.3-2.9 2.3-1.3 0-2.3-.3-3.1-1.2zM512.2 528.7l-3.1-3.7-1.4 1.4v2.3h-.8V518h.8v7.4l4.6-4.4h1.1l-3.6 3.5 3.6 4.2h-1.2zM515.9 524.9c0-2.2 1.6-4 3.7-4 2.4 0 3.6 1.9 3.6 4.1v.2h-6.5c.1 1.7 1.2 3.1 3 3.1 1 0 1.9-.4 2.5-1.1l.4.5c-.8.8-1.7 1.2-3 1.2-2.1 0-3.7-1.6-3.7-4zm3.7-3.4c-1.8 0-2.7 1.6-2.8 2.9h5.6c0-1.2-.9-2.9-2.8-2.9zM527 527.3v-5.5h-1.3v-.8h1.3v-2.1h.8v2.1h1.6v.7h-1.6v5.4c0 .6.3 1.1.8 1.1.4 0 .7-.2.9-.4l.3.6c-.3.3-.7.5-1.3.5-1 0-1.5-.6-1.5-1.6zM532.7 528.7V518h.8v4.2c.6-.9 1.6-1.4 2.7-1.4 2.1 0 3.5 1.6 3.5 4.1 0 2.5-1.4 4-3.5 4-1.2 0-2.1-.6-2.7-1.4v1.2h-.8zm3.3-.5c1.7 0 2.7-1.4 2.7-3.3s-1-3.3-2.7-3.3c-1.1 0-2.1.7-2.5 1.4v3.8c.4.7 1.5 1.4 2.5 1.4zM548.2 528.7v-.9c-.7.8-1.6 1.1-2.6 1.1-1.3 0-2.7-.9-2.7-2.6 0-1.7 1.4-2.6 2.7-2.6 1.1 0 2 .4 2.6 1.1v-1.6c0-1.2-.9-1.8-2.1-1.8-1 0-1.7.3-2.4 1.1l-.5-.6c.8-.9 1.7-1.3 3-1.3 1.6 0 2.8.8 2.8 2.5v5.4h-.8zm0-1.5v-1.7c-.5-.7-1.4-1.1-2.3-1.1-1.3 0-2.1.8-2.1 1.9 0 1.1.8 1.9 2.1 1.9.8.1 1.7-.3 2.3-1zM553 528.7V518h.8v10.7h-.8zM557.9 528.7V518h.8v10.7h-.8zM567.8 527.2l.6-.7c.7.8 1.8 1.6 3.3 1.6 2.2 0 2.8-1.2 2.8-2.1 0-3.1-6.4-1.5-6.4-5.2 0-1.7 1.6-2.8 3.5-2.8 1.6 0 2.8.6 3.6 1.5l-.6.7c-.8-.9-1.9-1.3-3.1-1.3-1.4 0-2.5.8-2.5 2 0 2.7 6.4 1.2 6.4 5.2 0 1.4-.9 3-3.8 3-1.7-.2-3-.9-3.8-1.9zM584.3 528.7v-5.3c0-1.5-.8-1.9-1.9-1.9-1 0-2 .6-2.5 1.3v5.8h-.8v-10.7h.8v4.1c.6-.7 1.7-1.4 2.8-1.4 1.6 0 2.4.7 2.4 2.5v5.4h-.8zM588.7 524.9c0-2.3 1.5-4 3.7-4 2.3 0 3.7 1.8 3.7 4 0 2.3-1.4 4.1-3.7 4.1-2.3-.1-3.7-1.9-3.7-4.1zm6.5 0c0-1.7-1-3.3-2.8-3.3-1.8 0-2.8 1.6-2.8 3.3 0 1.7 1 3.3 2.8 3.3 1.8 0 2.8-1.6 2.8-3.3zM606.3 528.7l-2.2-6.6-2.2 6.6h-.8l-2.5-7.7h.9l2 6.6 2.2-6.6h.7l2.2 6.6 2-6.6h.9l-2.5 7.7h-.7zM619.8 526.5c-.9 0-1.6-.7-1.6-1.6 0-.9.7-1.6 1.6-1.6.9 0 1.6.7 1.6 1.6.1.9-.7 1.6-1.6 1.6zM640.1 528.7v-9.4l-3.9 9.4h-.4l-3.9-9.4v9.4h-.9V518h1.4l3.6 8.8 3.6-8.8h1.4v10.7h-.9zM650 528.7v-.9c-.7.8-1.6 1.1-2.6 1.1-1.3 0-2.7-.9-2.7-2.6 0-1.7 1.4-2.6 2.7-2.6 1.1 0 2 .4 2.6 1.1v-1.6c0-1.2-.9-1.8-2.1-1.8-1 0-1.7.3-2.4 1.1l-.5-.6c.8-.9 1.7-1.3 3-1.3 1.6 0 2.8.8 2.8 2.5v5.4h-.8zm0-1.5v-1.7c-.5-.7-1.4-1.1-2.3-1.1-1.3 0-2.1.8-2.1 1.9 0 1.1.8 1.9 2.1 1.9.9.1 1.7-.3 2.3-1zM654.2 527.7l.5-.6c.5.6 1.4 1.1 2.5 1.1 1.3 0 2.1-.7 2.1-1.6 0-2.1-4.9-.9-4.9-3.7 0-1.2 1-2.1 2.8-2.1 1.3 0 2.2.5 2.8 1.1l-.5.6c-.4-.6-1.3-1-2.3-1-1.2 0-1.9.6-1.9 1.4 0 1.9 4.9.8 4.9 3.7 0 1.2-1 2.3-2.9 2.3-1.4 0-2.4-.3-3.1-1.2zM663.8 527.3v-5.5h-1.3v-.8h1.3v-2.1h.8v2.1h1.6v.7h-1.6v5.4c0 .6.3 1.1.8 1.1.4 0 .7-.2.9-.4l.3.6c-.3.3-.7.5-1.3.5-1 0-1.5-.6-1.5-1.6zM669 524.9c0-2.2 1.6-4 3.7-4 2.4 0 3.6 1.9 3.6 4.1v.2h-6.5c.1 1.7 1.2 3.1 3 3.1 1 0 1.9-.4 2.5-1.1l.4.5c-.8.8-1.7 1.2-3 1.2-2.1 0-3.7-1.6-3.7-4zm3.7-3.4c-1.8 0-2.7 1.6-2.8 2.9h5.6c0-1.2-.8-2.9-2.8-2.9zM680 528.7V521h.8v1.3c.7-.9 1.5-1.5 2.6-1.5v.9h-.4c-.8 0-1.8.7-2.2 1.4v5.6h-.8zM686.1 523.4c0-3.3 2.4-5.5 5.4-5.5 1.7 0 3 .8 3.9 1.9l-.8.5c-.7-.9-1.8-1.6-3.1-1.6-2.5 0-4.5 1.9-4.5 4.7 0 2.8 1.9 4.7 4.5 4.7 1.3 0 2.4-.6 3.1-1.6l.8.5c-.9 1.2-2.2 1.9-3.9 1.9-3 0-5.4-2.2-5.4-5.5zM698.7 528.7V518h.8v10.7h-.8zM708.5 528.7v-.9c-.7.8-1.6 1.1-2.6 1.1-1.3 0-2.7-.9-2.7-2.6 0-1.7 1.4-2.6 2.7-2.6 1.1 0 2 .4 2.6 1.1v-1.6c0-1.2-.9-1.8-2.1-1.8-1 0-1.7.3-2.4 1.1l-.5-.6c.8-.9 1.7-1.3 3-1.3 1.6 0 2.8.8 2.8 2.5v5.4h-.8zm0-1.5v-1.7c-.5-.7-1.4-1.1-2.3-1.1-1.3 0-2.1.8-2.1 1.9 0 1.1.8 1.9 2.1 1.9.9.1 1.7-.3 2.3-1zM712.7 527.7l.5-.6c.5.6 1.4 1.1 2.5 1.1 1.3 0 2.1-.7 2.1-1.6 0-2.1-4.9-.9-4.9-3.7 0-1.2 1-2.1 2.8-2.1 1.3 0 2.2.5 2.8 1.1l-.5.6c-.4-.6-1.3-1-2.3-1-1.2 0-1.9.6-1.9 1.4 0 1.9 4.9.8 4.9 3.7 0 1.2-1 2.3-2.9 2.3-1.4 0-2.4-.3-3.1-1.2zM721.4 527.7l.5-.6c.5.6 1.4 1.1 2.5 1.1 1.3 0 2.1-.7 2.1-1.6 0-2.1-4.9-.9-4.9-3.7 0-1.2 1-2.1 2.8-2.1 1.3 0 2.2.5 2.8 1.1l-.5.6c-.4-.6-1.3-1-2.3-1-1.2 0-1.9.6-1.9 1.4 0 1.9 4.9.8 4.9 3.7 0 1.2-1 2.3-2.9 2.3-1.3 0-2.3-.3-3.1-1.2z"/></g><g><path d="M244.6 419v-72h29.6c12.1 0 19.9 7 19.9 18.4 0 9.1-6.2 15.2-12.6 16.5 7.7 1.2 14 9.2 14 17.7 0 12-7.8 19.4-20.6 19.4h-30.3zm43-53c0-7.3-4.9-13.4-14.1-13.4h-22.7v26.7h22.7c9.2 0 14.1-5.9 14.1-13.3zm1.4 33.1c0-7.3-5.1-14.3-15.1-14.3h-23.1v28.5h23.1c9.5.1 15.1-5.4 15.1-14.2zM368.5 419l-7.1-17.7h-38.1l-7.1 17.7H309l29.5-72h7.7l29.5 72h-7.2zm-26.3-65.4l-17 42.1h34l-17-42.1zM391.6 419v-72h6.2v66.4h34.9v5.6h-41.1zM451.4 419v-72h6.2v66.4h34.9v5.6h-41.1zM553.5 419l-20.2-29.8h-15.9V419h-6.2v-72h26.9c12.4 0 21.9 7.9 21.9 21.1 0 13.1-9.3 20.3-20 20.7l20.8 30.2h-7.3zm.1-51c0-9.1-6.5-15.4-16-15.4h-20.2v31h20.2c9.5 0 16-6.5 16-15.6zM580.8 419v-72h6.2v72h-6.2zM610.3 419v-72h23c22.4 0 36.4 16.3 36.4 36.1 0 20-14 36-36.4 36h-23zm52.9-36c0-16.8-10.8-30.5-29.9-30.5h-16.8v60.8h16.8c19 .1 29.9-13.4 29.9-30.3zM690.4 419v-72h45.7v5.6h-39.5v26.7h38.8v5.6h-38.8v28.5h39.5v5.6h-45.7zM798.9 419l-20.2-29.8h-15.9V419h-6.2v-72h26.9c12.4 0 21.9 7.9 21.9 21.1 0 13.1-9.3 20.3-20 20.7l20.8 30.2h-7.3zm.1-51c0-9.1-6.5-15.4-16-15.4h-20.2v31H783c9.6 0 16-6.5 16-15.6zM822.3 408.9l4-4.6c4.6 5.4 12.2 10.5 22.5 10.5 14.8 0 19-8.2 19-14.4 0-21.2-43.2-10.2-43.2-35.3 0-11.8 10.6-19.2 23.7-19.2 10.8 0 18.8 3.8 24.4 10.2l-4.1 4.5c-5.2-6.3-12.5-9.1-20.6-9.1-9.6 0-16.8 5.5-16.8 13.3 0 18.5 43.2 8.3 43.2 35.2 0 9.3-6.2 20.4-25.6 20.4-12.1-.1-21-4.8-26.5-11.5z"/></g><g><path d="M556 169.3l12.4 9-3.3 3.2-7.5-6.7zM546.9 201.3l-5.2 4.4 1.5-78 3.7 7.1zM578.4 175.9l-23.6-21.3v-4.8l29.1 21.8zM578.6 193.8l-41.4 32.3v-3.3l37.6-33.1z"/><path d="M554.8 168.5l3.4 2.5.1 17.4-3.4 3.3z"/><path d="M578.5 175.8l-23.7 18.8.1-3 19.7-19.7z"/><path d="M578.5 193.9l-12.7-11.7 2.4-3.9 15.5 11.7z"/></g><g><path d="M373.5 587.3l-3-12.5-3 12.5H362l-5.7-20h5.8l3 13.3 3.4-13.3h4l3.4 13.3 3-13.3h5.8l-5.7 20h-5.5zM396 587.3v-8.4c0-1.8-.9-2.3-2.4-2.3-1.4 0-2.2.8-2.8 1.4v9.4h-4.6v-20h4.6v7.3c.9-1 2.6-2.1 5-2.1 3.3 0 4.8 1.9 4.8 4.5v10.3H396zM412.6 587.3v-1.4c-.9 1.1-2.6 1.8-4.5 1.8-2.2 0-5-1.5-5-4.8 0-3.5 2.8-4.6 5-4.6 1.9 0 3.6.6 4.5 1.7v-1.7c0-1.3-1.1-2.1-2.9-2.1-1.4 0-2.9.5-4.1 1.5l-1.6-2.9c1.9-1.6 4.3-2.2 6.6-2.2 3.5 0 6.8 1.3 6.8 5.8v9.1h-4.8zm0-3.7v-1.3c-.5-.7-1.6-1-2.6-1-1.2 0-2.3.5-2.3 1.7 0 1.1 1.1 1.7 2.3 1.7 1-.1 2.1-.4 2.6-1.1zM421.5 583.4v-6.6h-2.4v-4h2.4v-4h4.6v4h2.9v4h-2.9v5.3c0 .8.5 1.5 1.3 1.5.5 0 1-.2 1.2-.4l.9 3.5c-.6.5-1.7 1-3.4 1-3-.1-4.6-1.5-4.6-4.3zM430.1 585.4l1.9-3.2c1.1 1 3.4 1.9 5.1 1.9 1.4 0 2-.5 2-1.1 0-1.9-8.4 0-8.4-5.8 0-2.6 2.2-4.8 6.2-4.8 2.4 0 4.5.8 6.1 1.9l-1.8 3.1c-.9-.8-2.5-1.6-4.3-1.6-1.1 0-1.8.5-1.8 1.1 0 1.7 8.4 0 8.4 6 0 2.8-2.4 4.8-6.6 4.8-2.6-.1-5.3-.9-6.8-2.3zM459.6 587.3l-1-2.9h-7.9l-1 2.9h-5.8l7.5-20h6.5l7.6 20h-5.9zm-5-14.9l-2.5 7.5h5.1l-2.6-7.5zM471.4 585.6v7.2h-4.6v-20h4.6v1.7c1.1-1.4 2.6-2 4.3-2 3.6 0 6.4 2.7 6.4 7.6 0 4.9-2.7 7.6-6.4 7.6-1.6-.1-3.1-.7-4.3-2.1zm5.9-5.6c0-2.2-1.4-3.5-3.2-3.5-1 0-2.2.5-2.8 1.3v4.4c.6.8 1.8 1.3 2.8 1.3 1.8.1 3.2-1.3 3.2-3.5zM489.1 585.6v7.2h-4.6v-20h4.6v1.7c1.1-1.4 2.6-2 4.3-2 3.6 0 6.4 2.7 6.4 7.6 0 4.9-2.7 7.6-6.4 7.6-1.7-.1-3.1-.7-4.3-2.1zm5.9-5.6c0-2.2-1.4-3.5-3.2-3.5-1 0-2.2.5-2.8 1.3v4.4c.6.8 1.8 1.3 2.8 1.3 1.8.1 3.2-1.3 3.2-3.5zM501.6 575.4c0-1.5 1.3-2.8 2.8-2.8 1.5 0 2.8 1.3 2.8 2.8 0 1.5-1.3 2.8-2.8 2.8-1.5 0-2.8-1.3-2.8-2.8zm0 9.4c0-1.5 1.3-2.8 2.8-2.8 1.5 0 2.8 1.3 2.8 2.8s-1.3 2.8-2.8 2.8c-1.5 0-2.8-1.2-2.8-2.8zM532.7 578.6v5.9h-3v-5.9h-5.2v-2.8h5.2v-5.7h3v5.7h5.2v2.8h-5.2zM542.4 587.3l6.8-15.5h-9.8v-4.5h15.7v3.6l-7 16.4h-5.7zM565 585.7l2.2-4c1.1.9 2.2 1.3 3.8 1.3 2.9 0 4.7-2.1 4.7-4.6v-.2c-1 1.3-2.9 2.3-4.9 2.3-3.6 0-7-2.3-7-6.6 0-4.1 3.3-7 8-7 6.3 0 9.1 4.6 9.1 10.3 0 6.4-3.8 10.3-9.9 10.3-2.3.1-4.5-.6-6-1.8zm10.7-10.9c-.1-1.6-1.1-3.3-3.6-3.3-1.9 0-3 1.2-3 2.3 0 1.7 1.7 2.4 3.2 2.4 1.3 0 2.6-.5 3.4-1.4zM588.2 587.3v-13.4l-3.4 3.4-2.9-3.1 7-6.9h4.5v20h-5.2zM595.9 577.3c0-6.4 3.8-10.3 9.9-10.3 2.4 0 4.6.8 6.1 1.9l-2.2 4c-1.1-.9-2.2-1.3-3.8-1.3-2.4 0-4.7 1.8-4.7 4.6v.2c1-1.3 2.9-2.3 4.9-2.3 3.6 0 6.9 2.3 6.9 6.6 0 4.1-3.3 7-8 7-6.3-.1-9.1-4.6-9.1-10.4zm11.9 3.5c0-1.7-1.7-2.4-3.3-2.4-1.3 0-2.5.5-3.4 1.3.1 1.6 1.1 3.3 3.5 3.3 2 .1 3.2-1.1 3.2-2.2zM625 587.3l6.8-15.5H622v-4.5h15.7v3.6l-7 16.4H625zM638.9 577.3c0-5.3 2.7-10.3 8.6-10.3s8.6 5 8.6 10.3c0 5.3-2.7 10.3-8.6 10.3s-8.6-5-8.6-10.3zm12 0c0-3.5-1-5.8-3.4-5.8s-3.4 2.2-3.4 5.8c0 3.5 1 5.8 3.4 5.8s3.4-2.3 3.4-5.8zM658.6 585.7l2.2-4c1.1.9 2.2 1.3 3.8 1.3 2.9 0 4.7-2.1 4.7-4.6v-.2c-1 1.3-2.9 2.3-4.9 2.3-3.6 0-7-2.3-7-6.6 0-4.1 3.3-7 8-7 6.3 0 9.1 4.6 9.1 10.3 0 6.4-3.8 10.3-9.9 10.3-2.3.1-4.5-.6-6-1.8zm10.8-10.9c-.1-1.6-1.1-3.3-3.6-3.3-1.9 0-3 1.2-3 2.3 0 1.7 1.7 2.4 3.2 2.4 1.3 0 2.5-.5 3.4-1.4zM683.8 577.3c0-6.4 3.8-10.3 9.9-10.3 2.4 0 4.6.8 6.1 1.9l-2.2 4c-1.1-.9-2.2-1.3-3.8-1.3-2.4 0-4.7 1.8-4.7 4.6v.2c1-1.3 2.9-2.3 4.9-2.3 3.6 0 6.9 2.3 6.9 6.6 0 4.1-3.3 7-8 7-6.3-.1-9.1-4.6-9.1-10.4zm11.9 3.5c0-1.7-1.7-2.4-3.3-2.4-1.3 0-2.5.5-3.4 1.3.1 1.6 1.1 3.3 3.5 3.3 2 .1 3.2-1.1 3.2-2.2zM703.3 585.7l2.2-4c1.1.9 2.2 1.3 3.8 1.3 2.9 0 4.7-2.1 4.7-4.6v-.2c-1 1.3-2.9 2.3-4.9 2.3-3.6 0-7-2.3-7-6.6 0-4.1 3.3-7 8-7 6.3 0 9.1 4.6 9.1 10.3 0 6.4-3.8 10.3-9.9 10.3-2.3.1-4.5-.6-6-1.8zm10.8-10.9c-.1-1.6-1.1-3.3-3.6-3.3-1.9 0-3 1.2-3 2.3 0 1.7 1.7 2.4 3.2 2.4 1.3 0 2.5-.5 3.4-1.4zM728.5 577.3c0-6.4 3.8-10.3 9.9-10.3 2.4 0 4.6.8 6.1 1.9l-2.2 4c-1.1-.9-2.2-1.3-3.8-1.3-2.4 0-4.7 1.8-4.7 4.6v.2c1-1.3 2.9-2.3 4.9-2.3 3.6 0 6.9 2.3 6.9 6.6 0 4.1-3.3 7-8 7-6.3-.1-9.1-4.6-9.1-10.4zm11.9 3.5c0-1.7-1.7-2.4-3.3-2.4-1.3 0-2.5.5-3.4 1.3.1 1.6 1.1 3.3 3.5 3.3 2 .1 3.2-1.1 3.2-2.2zM747.1 582c0-2.3 1.7-4.1 4-5-2.1-.8-3.7-2.2-3.7-4.7 0-3.9 4.2-5.3 8.2-5.3 3.9 0 8.2 1.5 8.2 5.3 0 2.4-1.6 3.8-3.8 4.7 2.3.9 4 2.8 4 5 0 3.9-4.1 5.6-8.5 5.6-4.3 0-8.4-1.7-8.4-5.6zm11.7-.6c0-1.2-2-2-3.2-2.1-1.3.1-3.2.9-3.2 2.1 0 1.2 1.3 2 3.2 2 1.8 0 3.2-.8 3.2-2zm-.4-8.3c0-1.1-1.2-1.8-2.9-1.8-1.8 0-2.9.7-2.9 1.8s1.7 1.7 2.9 1.9c1.3-.2 2.9-.9 2.9-1.9z"/></g></svg>