<svg xmlns="http://www.w3.org/2000/svg" viewBox="0 0 100 100"><g fill="#F39"><path d="M37.4 63c-.9-.5-2-.7-3.2-.8s-2.4.1-3.7.4c-1.3.3-2.5.8-3.7 1.3-3.6 1.7-7.3 2.8-11.3 3.1-.3 0-.8-.1-1.3-.3-.6-.2-1-.5-1.2-.9-1-1.4-1.7-3-2.2-4.8-.5-1.8-.7-3.3-.5-4.6.3-2.2 1.6-4.8 4-7.9 2.4-3.1 5.6-6 9.5-8.7 2.3-1.6 4.2-2.6 5.7-3.2 1.5-.5 2.5-.4 3 .3.8 1.2 1.3 2.3 1.4 3.1.1.9.1 1.6-.2 2-.2.5-.7 1.2-1.4 2.2-.8 1.1-1.4 2-1.9 2.9-.5.9-.9 1.7-1.2 2.4-.3.7-.5 1.1-.6 1.2-.2.1-.3.1-.4 0-.2-.3-.2-.9 0-1.8s.6-1.9 1.1-2.9c.6-1.1.8-1.7.7-1.8-.1-.2-.7 0-1.7.7-3 2-5.6 4.2-7.7 6.5-2.2 2.3-3.7 4.3-4.5 6.2-.9 1.9-1 3.3-.4 4.2.4.6 1 .8 1.7.6s2.4-.7 4.8-1.6c2.4-.9 4.7-1.5 6.8-1.9 3-.6 5.5-.7 7.3-.4 1.9.3 3.3 1.1 4.2 2.5.6.9 1 2 1.2 3.2s.1 2.5-.2 3.9-.9 2.7-1.6 3.9c-.7 1.1-1.6 2.3-2.8 3.6-1.2 1.3-2.6 2.7-4.1 4-1.5 1.4-3.1 2.6-4.6 3.6-2.8 1.9-5.3 3.2-7.4 3.9-2.1.6-3.5.4-4.2-.7-.3-.5-.6-1.4-.7-2.9-.1-1.4.1-2.6.6-3.5.5-.7 1.1-1.4 1.7-1.8.6-.5 1-.6 1.1-.4v.2c0 .1 0 .2-.1.2 0 .1-.1.2-.1.2-.2.3-.4.6-.6.8s-.3.4-.3.5c-.1.2-.1.3 0 .4.2.3 2-.6 5.4-2.9 2.9-2 5.2-3.7 6.9-5.2 1.7-1.5 3.1-3 4.1-4.5s2.1-2.8 2.6-4.5zM59.4 46.9l1.1 1.6c-.4 1.7-.8 2.9-1.2 3.7-.4.8-1.3 1.5-2.5 2.3-.4 3.9-1.4 6.4-3 7.5-.9.6-1.9.9-3.1.8-1.1-.1-2.3-.5-3.4-1.2-1.2-.7-2.2-1.7-3-3-.7-1-1.1-2.4-1.3-4.1s-.1-3.5.3-5.3c.3-1.8.9-3.5 1.7-5 .8-1.5 1.7-2.6 2.8-3.4.8-.5 1.4-.8 2-.9s1 .1 1.3.5c.2.3.3.8.2 1.5.7-.3 1.3-.4 1.7-.2.4.1.9.6 1.5 1.4.5.8 1 1.9 1.5 3.3.4 1.4.7 2.9.8 4.3l.7.1.4-.2c.3-.2.5-.4.7-.8.2-.3.3-.6.4-.9-.2-.3.1-1 .4-2zm-9.3-3c-.8 1.7-1.4 3.2-1.9 4.5-.5 1.3-.9 2.5-1.1 3.6-.2 1.1-.2 2.1.1 2.9.8 2.1 1.3 3.2 1.4 3.3.7 1.1 1.8 1.1 3.3.1.7-.5 1.4-1.9 2.3-4.2-.8-.6-1.4-1.2-1.9-1.9-.7-1-1.2-2.2-1.5-3.5-.4-1.2-.6-2.8-.7-4.8z"/><path d="M74.9 36.3l1.1 1.6c-.4 1.7-.8 2.9-1.2 3.7-.4.8-1.3 1.5-2.5 2.3-.4 3.9-1.4 6.4-3 7.5-.9.6-1.9.9-3.1.8s-2.3-.5-3.4-1.2-2.2-1.7-3-3c-.7-1-1.1-2.4-1.3-4.1-.2-1.7-.1-3.5.2-5.3.3-1.8.9-3.5 1.7-5s1.7-2.6 2.8-3.4c.8-.5 1.4-.8 2-.9.6-.1 1 .1 1.3.5.2.3.3.8.2 1.5.7-.3 1.3-.4 1.7-.2.4.1.9.6 1.5 1.4.5.8 1 1.9 1.5 3.3.4 1.4.7 2.9.8 4.3l.7.1.4-.2c.3-.2.5-.4.7-.8s.3-.6.4-.9c-.1-.4.2-1 .5-2zm-9.3-3c-.8 1.7-1.4 3.2-1.9 4.5s-.9 2.5-1.1 3.6c-.2 1.1-.2 2.1.1 2.9.8 2.1 1.3 3.2 1.4 3.3.7 1.1 1.8 1.1 3.3.1.7-.5 1.4-1.9 2.3-4.2-.8-.6-1.4-1.2-1.9-1.9-.7-1-1.2-2.2-1.5-3.5-.4-1.2-.6-2.8-.7-4.8z"/><path d="M88.2 20.8c-.7 5.1-.6 8.3.3 9.5.5.7 1 .8 1.6.5.5-.3.9-1 1.3-2s1-2.7 1.7-5l1.1 1.7c-.7 3.8-1.4 6.7-1.9 8.5-.5 1.8-1.2 3-2 3.6-1.3.9-2.6.5-3.8-1.3-.4-.5-.6-1.1-.8-1.7-.2-.6-.3-1.3-.4-2-.1-.7-.2-1.8-.3-3.2-.1-1.4-.2-3-.3-4.8-.6 1.1-1.1 2.8-1.6 5.1-.3 1.5-.5 2.8-.6 4-.1 1.2-.2 2.5-.2 4-.1 1.5-.1 2.5-.2 3s-.3 1-.7 1.2c-.5.4-1.4.1-2.5-.6-1.2-.8-2.3-1.9-3.2-3.3-.6-.9-1-1.6-1.1-2.3-.1-.6-.2-1.6-.3-2.9-.1-2.5 0-4.4.3-5.7.3-1.3.8-2.3 1.5-2.8.5-.4 1-.5 1.4-.6.4 0 .8.1 1 .5.1.2.2.4.2.6v.7c0 .2-.1.7-.2 1.4-.6 4.6-.6 7.3-.1 8.1.3.5.6.6.9.4.2-.1.4-.7.5-1.7.1-1 .3-2.3.5-3.9s.5-3.4 1-5.3c.4-1.9 1.1-3.9 1.9-6 .4-1.2 1-2 1.5-2.4.3-.2.8 0 1.5.5s1.4 1.2 1.8 1.9c.4.3.4 1.1.2 2.3z"/></g></svg>