<svg xmlns="http://www.w3.org/2000/svg" viewBox="208.5 8.8 704 668.3"><ellipse fill="none" stroke="#FFF" stroke-width="15" stroke-miterlimit="10" cx="563" cy="341.4" rx="286.3" ry="293"/><path d="M568.9 168.9l9 6.5-2.4 2.3-5.4-4.9zM562.3 192.1l-3.8 3.2 1.1-56.7 2.7 5.2zM585.1 173.6L568 158.2v-3.5l21.1 15.8zM585.3 186.6l-30.1 23.5v-2.4l27.3-24z"/><path d="M568 168.2l2.5 1.9v12.6l-2.5 2.4z"/><path d="M585.2 173.6L568 187.2V185l14.4-14.3z"/><path d="M585.2 186.7l-9.2-8.5 1.7-2.8 11.3 8.4z"/><path fill="none" d="M215.9 282.8h696.6v473.8H215.9z"/><text transform="translate(215.888 293.493)"><tspan x="0" y="0" font-family="'Roboto-Light'" font-size="14" letter-spacing="2">Adidas</tspan><tspan x="58.8" y="0" font-family="'Roboto-Light'" font-size="14" letter-spacing="29"> </tspan><tspan x="91.3" y="0" font-family="'Roboto-Light'" font-size="14" letter-spacing="2">•</tspan><tspan x="98.7" y="0" font-family="'Roboto-Light'" font-size="14" letter-spacing="29"> </tspan><tspan x="131.2" y="0" font-family="'Roboto-Light'" font-size="14" letter-spacing="2">A-One</tspan><tspan x="184.1" y="0" font-family="'Roboto-Light'" font-size="14" letter-spacing="29"> </tspan><tspan x="216.6" y="0" font-family="'Roboto-Light'" font-size="14" letter-spacing="2">•</tspan><tspan x="224" y="0" font-family="'Roboto-Light'" font-size="14" letter-spacing="29"> </tspan><tspan x="256.5" y="0" font-family="'Roboto-Bold'" font-size="14" letter-spacing="2">Apple</tspan><tspan x="306.3" y="0" font-family="'Roboto-Light'" font-size="14" letter-spacing="29"> </tspan><tspan x="338.8" y="0" font-family="'Roboto-Light'" font-size="14" letter-spacing="2">•</tspan><tspan x="346.2" y="0" font-family="'Roboto-Light'" font-size="14" letter-spacing="29"> </tspan><tspan x="378.7" y="0" font-family="'Roboto-Light'" font-size="14" letter-spacing="2">Asus</tspan><tspan x="420.5" y="0" font-family="'Roboto-Light'" font-size="14" letter-spacing="29"> </tspan><tspan x="453.1" y="0" font-family="'Roboto-Light'" font-size="14" letter-spacing="2">•</tspan><tspan x="460.4" y="0" font-family="'Roboto-Light'" font-size="14" letter-spacing="29"> </tspan><tspan x="492.9" y="0" font-family="'Roboto-Light'" font-size="14" letter-spacing="2">Ballaholix</tspan><tspan x="579.8" y="0" font-family="'Roboto-Light'" font-size="14" letter-spacing="29"> </tspan><tspan x="612.3" y="0" font-family="'Roboto-Light'" font-size="14" letter-spacing="2">•</tspan><tspan x="619.6" y="0" font-family="'Roboto-Light'" font-size="14" letter-spacing="29"> </tspan><tspan x="652.2" y="0" font-family="'Roboto-Light'" font-size="14" letter-spacing="2">Centr</tspan><tspan x="0" y="25.8" font-family="'Roboto-Light'" font-size="14" letter-spacing="2">Дождь</tspan><tspan x="57.9" y="25.8" font-family="'Roboto-Light'" font-size="14" letter-spacing="13"> </tspan><tspan x="74.9" y="25.8" font-family="'Roboto-Light'" font-size="14" letter-spacing="2">•</tspan><tspan x="82.2" y="25.8" font-family="'Roboto-Light'" font-size="14" letter-spacing="13"> </tspan><tspan x="99.2" y="25.8" font-family="'Roboto-Bold'" font-size="14" letter-spacing="2">FIBA</tspan><tspan x="140.2" y="25.8" font-family="'Roboto-Light'" font-size="14" letter-spacing="13"> </tspan><tspan x="157.2" y="25.8" font-family="'Roboto-Light'" font-size="14" letter-spacing="2">•</tspan><tspan x="164.5" y="25.8" font-family="'Roboto-Light'" font-size="14" letter-spacing="13"> </tspan><tspan x="181.5" y="25.8" font-family="'Roboto-Light'" font-size="14" letter-spacing="2">Funbox</tspan><tspan x="244" y="25.8" font-family="'Roboto-Light'" font-size="14" letter-spacing="13"> </tspan><tspan x="261" y="25.8" font-family="'Roboto-Light'" font-size="14" letter-spacing="2">•</tspan><tspan x="268.4" y="25.8" font-family="'Roboto-Light'" font-size="14" letter-spacing="13"> </tspan><tspan x="285.4" y="25.8" font-family="'Roboto-Light'" font-size="14" letter-spacing="2">Gurme</tspan><tspan x="341.2" y="25.8" font-family="'Roboto-Light'" font-size="14" letter-spacing="13"> </tspan><tspan x="358.2" y="25.8" font-family="'Roboto-Light'" font-size="14" letter-spacing="2">•</tspan><tspan x="365.5" y="25.8" font-family="'Roboto-Light'" font-size="14" letter-spacing="13"> </tspan><tspan x="382.5" y="25.8" font-family="'Roboto-Light'" font-size="14" letter-spacing="2">Kia</tspan><tspan x="410.3" y="25.8" font-family="'Roboto-Light'" font-size="14" letter-spacing="13"> </tspan><tspan x="427.3" y="25.8" font-family="'Roboto-Light'" font-size="14" letter-spacing="2">•</tspan><tspan x="434.6" y="25.8" font-family="'Roboto-Light'" font-size="14" letter-spacing="13"> </tspan><tspan x="451.6" y="25.8" font-family="'Roboto-Bold'" font-size="14" letter-spacing="2">Ленинград</tspan><tspan x="548.3" y="25.8" font-family="'Roboto-Bold'" font-size="14" letter-spacing="13"> </tspan><tspan x="565.5" y="25.8" font-family="'Roboto-Bold'" font-size="14" letter-spacing="2">Центр</tspan><tspan x="620.6" y="25.8" font-family="'Roboto-Light'" font-size="14" letter-spacing="13"> </tspan><tspan x="637.6" y="25.8" font-family="'Roboto-Light'" font-size="14" letter-spacing="2">•</tspan><tspan x="645" y="25.8" font-family="'Roboto-Light'" font-size="14" letter-spacing="13"> </tspan><tspan x="662" y="25.8" font-family="'Roboto-Light'" font-size="14" letter-spacing="2">МЕЧ</tspan><tspan x="0" y="51.6" font-family="'Roboto-Light'" font-size="14" letter-spacing="2">Minsk</tspan><tspan x="51.1" y="51.6" font-family="'Roboto-Light'" font-size="14" letter-spacing="22"> </tspan><tspan x="76.7" y="51.6" font-family="'Roboto-Light'" font-size="14" letter-spacing="2">Street</tspan><tspan x="130.2" y="51.6" font-family="'Roboto-Light'" font-size="14" letter-spacing="22"> </tspan><tspan x="155.8" y="51.6" font-family="'Roboto-Light'" font-size="14" letter-spacing="2">Gamez</tspan><tspan x="213.4" y="51.6" font-family="'Roboto-Light'" font-size="14" letter-spacing="22"> </tspan><tspan x="239.1" y="51.6" font-family="'Roboto-Light'" font-size="14" letter-spacing="2">•</tspan><tspan x="246.4" y="51.6" font-family="'Roboto-Light'" font-size="14" letter-spacing="22"> </tspan><tspan x="272.1" y="51.6" font-family="'Roboto-Light'" font-size="14" letter-spacing="2">НТВ</tspan><tspan x="307.3" y="51.6" font-family="'Roboto-Light'" font-size="14" letter-spacing="22"> </tspan><tspan x="333" y="51.6" font-family="'Roboto-Light'" font-size="14" letter-spacing="2">•</tspan><tspan x="340.3" y="51.6" font-family="'Roboto-Light'" font-size="14" letter-spacing="22"> </tspan><tspan x="366" y="51.6" font-family="'Roboto-Bold'" font-size="14" letter-spacing="2">Redbull</tspan><tspan x="433" y="51.6" font-family="'Roboto-Light'" font-size="14" letter-spacing="22"> </tspan><tspan x="458.7" y="51.6" font-family="'Roboto-Light'" font-size="14" letter-spacing="2">•</tspan><tspan x="466" y="51.6" font-family="'Roboto-Light'" font-size="14" letter-spacing="22"> </tspan><tspan x="491.7" y="51.6" font-family="'Roboto-Light'" font-size="14" letter-spacing="2">Reebok</tspan><tspan x="554.5" y="51.6" font-family="'Roboto-Light'" font-size="14" letter-spacing="22"> </tspan><tspan x="580.1" y="51.6" font-family="'Roboto-Light'" font-size="14" letter-spacing="2">•</tspan><tspan x="587.5" y="51.6" font-family="'Roboto-Light'" font-size="14" letter-spacing="22"> </tspan><tspan x="613.1" y="51.6" font-family="'Roboto-Light'" font-size="14" letter-spacing="2">Streetball</tspan><tspan x="0" y="77.4" font-family="'Roboto-Bold'" font-size="14" letter-spacing="2">ТНТ</tspan><tspan x="34.3" y="77.4" font-family="'Roboto-Light'" font-size="14" letter-spacing="73"> </tspan><tspan x="111" y="77.4" font-family="'Roboto-Light'" font-size="14" letter-spacing="2">•</tspan><tspan x="118.3" y="77.4" font-family="'Roboto-Light'" font-size="14" letter-spacing="73"> </tspan><tspan x="194.9" y="77.4" font-family="'Roboto-Light'" font-size="14" letter-spacing="2">WFBA</tspan><tspan x="243.4" y="77.4" font-family="'Roboto-Light'" font-size="14" letter-spacing="73"> </tspan><tspan x="320" y="77.4" font-family="'Roboto-Light'" font-size="14" letter-spacing="2">•</tspan><tspan x="327.4" y="77.4" font-family="'Roboto-Light'" font-size="14" letter-spacing="73"> </tspan><tspan x="404" y="77.4" font-family="'Roboto-Light'" font-size="14" letter-spacing="2">Zero</tspan><tspan x="443.3" y="77.4" font-family="'Roboto-Light'" font-size="14" letter-spacing="73"> </tspan><tspan x="519.9" y="77.4" font-family="'Roboto-Light'" font-size="14" letter-spacing="2">•</tspan><tspan x="527.2" y="77.4" font-family="'Roboto-Light'" font-size="14" letter-spacing="73"> </tspan><tspan x="603.9" y="77.4" font-family="'Roboto-Bold'" font-size="14" letter-spacing="2">Zuiderpark</tspan></text></svg>