<?xml version="1.0" encoding="utf-8"?>
<!-- Generator: Adobe Illustrator 18.0.0, SVG Export Plug-In . SVG Version: 6.00 Build 0)  -->
<!DOCTYPE svg PUBLIC "-//W3C//DTD SVG 1.1//EN" "http://www.w3.org/Graphics/SVG/1.1/DTD/svg11.dtd">
<svg version="1.1" id="START" xmlns="http://www.w3.org/2000/svg" xmlns:xlink="http://www.w3.org/1999/xlink" x="0px" y="0px"
	 viewBox="135.3 -11.4 850.4 708.7" enable-background="new 135.3 -11.4 850.4 708.7" xml:space="preserve">
<ellipse fill="none" stroke="#FFFFFF" stroke-width="15" stroke-miterlimit="10" cx="560.5" cy="341.4" rx="286.3" ry="293"/>
<g>
	<path d="M145.6,325.8l-0.6-1.7h-4.7l-0.6,1.7h-3.5l4.5-12h3.9l4.5,12H145.6z M142.6,316.9l-1.5,4.5h3.1L142.6,316.9z"/>
	<path d="M159.3,325.8v-1c-0.7,0.8-1.6,1.2-2.6,1.2c-2.1,0-3.9-1.6-3.9-4.6c0-2.8,1.7-4.6,3.9-4.6c1,0,1.9,0.4,2.6,1.2v-4.3h2.8v12
		H159.3z M159.3,322.8v-2.7c-0.4-0.5-1.1-0.8-1.7-0.8c-1.1,0-1.9,0.8-1.9,2.1c0,1.3,0.8,2.1,1.9,2.1
		C158.3,323.6,159,323.3,159.3,322.8z"/>
	<path d="M167.5,314.8c0-0.9,0.7-1.6,1.6-1.6c0.9,0,1.6,0.7,1.6,1.6c0,0.9-0.7,1.6-1.6,1.6C168.2,316.4,167.5,315.7,167.5,314.8z
		 M167.7,325.8v-8.7h2.8v8.7H167.7z"/>
	<path d="M182,325.8v-1c-0.7,0.8-1.6,1.2-2.6,1.2c-2.1,0-3.9-1.6-3.9-4.6c0-2.8,1.7-4.6,3.9-4.6c1,0,1.9,0.4,2.6,1.2v-4.3h2.8v12
		H182z M182,322.8v-2.7c-0.4-0.5-1.1-0.8-1.7-0.8c-1.1,0-1.9,0.8-1.9,2.1c0,1.3,0.8,2.1,1.9,2.1C180.9,323.6,181.6,323.3,182,322.8z
		"/>
	<path d="M195.5,325.8V325c-0.5,0.6-1.6,1.1-2.7,1.1c-1.3,0-3-0.9-3-2.9c0-2.1,1.7-2.8,3-2.8c1.2,0,2.2,0.4,2.7,1v-1
		c0-0.8-0.6-1.3-1.8-1.3c-0.9,0-1.8,0.3-2.5,0.9l-1-1.7c1.1-1,2.6-1.4,3.9-1.4c2.1,0,4.1,0.8,4.1,3.5v5.4H195.5z M195.5,323.6v-0.8
		c-0.3-0.4-0.9-0.6-1.5-0.6c-0.7,0-1.4,0.3-1.4,1c0,0.7,0.6,1,1.4,1C194.5,324.2,195.2,324,195.5,323.6z"/>
	<path d="M203.1,324.7l1.2-1.9c0.6,0.6,2,1.2,3.1,1.2c0.8,0,1.2-0.3,1.2-0.7c0-1.1-5.1,0-5.1-3.5c0-1.5,1.3-2.9,3.7-2.9
		c1.5,0,2.7,0.5,3.6,1.2l-1.1,1.8c-0.5-0.5-1.5-1-2.6-1c-0.6,0-1.1,0.3-1.1,0.6c0,1,5.1,0,5.1,3.6c0,1.7-1.5,2.9-4,2.9
		C205.7,326.1,204,325.5,203.1,324.7z"/>
	<path d="M254.9,323.3c-1,0-1.9-0.8-1.9-1.8c0-1,0.8-1.9,1.9-1.9s1.9,0.8,1.9,1.9C256.8,322.5,255.9,323.3,254.9,323.3z"/>
	<path d="M308.4,325.8l-1.2-3h-6.4l-1.2,3h-1.2l4.9-12h1.3l4.9,12H308.4z M304,314.9l-2.8,7h5.7L304,314.9z"/>
	<path d="M314,321.9v-0.9h4.3v0.9H314z"/>
	<path d="M323.5,319.9c0-3.5,2.3-6.2,5.8-6.2c3.5,0,5.8,2.7,5.8,6.2c0,3.5-2.3,6.2-5.8,6.2C325.8,326.1,323.5,323.4,323.5,319.9z
		 M334.1,319.9c0-3.1-1.9-5.3-4.8-5.3c-2.9,0-4.8,2.2-4.8,5.3c0,3,1.8,5.3,4.8,5.3C332.2,325.1,334.1,322.9,334.1,319.9z"/>
	<path d="M347.1,325.8V320c0-1.7-0.8-2.2-2.1-2.2c-1.1,0-2.3,0.7-2.8,1.5v6.6h-0.9v-8.7h0.9v1.3c0.6-0.8,1.9-1.5,3.1-1.5
		c1.8,0,2.7,0.9,2.7,2.8v6.1H347.1z"/>
	<path d="M354.1,321.5c0-2.5,1.8-4.6,4.2-4.6c2.6,0,4.1,2.1,4.1,4.6v0.3h-7.3c0.1,1.9,1.4,3.5,3.4,3.5c1.1,0,2.1-0.4,2.8-1.2
		l0.5,0.6c-0.9,0.9-2,1.4-3.4,1.4C355.9,326.1,354.1,324.2,354.1,321.5z M358.3,317.7c-2.1,0-3.1,1.8-3.2,3.3h6.3
		C361.4,319.6,360.4,317.7,358.3,317.7z"/>
	<path d="M406.7,323.3c-1,0-1.9-0.8-1.9-1.8c0-1,0.8-1.9,1.9-1.9s1.9,0.8,1.9,1.9C408.5,322.5,407.7,323.3,406.7,323.3z"/>
	<path d="M459.2,325.8l-0.6-1.7h-4.7l-0.6,1.7h-3.5l4.5-12h3.9l4.5,12H459.2z M456.3,316.9l-1.5,4.5h3.1L456.3,316.9z"/>
	<path d="M469.9,324.8v4.3h-2.8v-12h2.8v1c0.7-0.8,1.6-1.2,2.6-1.2c2.2,0,3.8,1.6,3.8,4.6c0,3-1.6,4.6-3.8,4.6
		C471.5,326.1,470.6,325.7,469.9,324.8z M473.5,321.5c0-1.3-0.8-2.1-1.9-2.1c-0.6,0-1.3,0.3-1.7,0.8v2.6c0.3,0.4,1.1,0.8,1.7,0.8
		C472.7,323.6,473.5,322.8,473.5,321.5z"/>
	<path d="M484.1,324.8v4.3h-2.8v-12h2.8v1c0.7-0.8,1.6-1.2,2.6-1.2c2.2,0,3.8,1.6,3.8,4.6c0,3-1.6,4.6-3.8,4.6
		C485.7,326.1,484.8,325.7,484.1,324.8z M487.7,321.5c0-1.3-0.8-2.1-1.9-2.1c-0.6,0-1.3,0.3-1.7,0.8v2.6c0.3,0.4,1.1,0.8,1.7,0.8
		C486.9,323.6,487.7,322.8,487.7,321.5z"/>
	<path d="M495.6,325.8v-12h2.8v12H495.6z"/>
	<path d="M503.4,321.5c0-2.5,1.9-4.6,4.6-4.6c2.6,0,4.4,1.9,4.4,4.8v0.6h-6.2c0.2,0.8,0.9,1.5,2.2,1.5c0.6,0,1.7-0.3,2.2-0.7
		l1.2,1.7c-0.9,0.8-2.3,1.2-3.6,1.2C505.4,326.1,503.4,324.3,503.4,321.5z M508,319.1c-1.2,0-1.7,0.9-1.8,1.5h3.6
		C509.7,320,509.3,319.1,508,319.1z"/>
	<path d="M556.1,323.3c-1,0-1.9-0.8-1.9-1.8c0-1,0.8-1.9,1.9-1.9s1.9,0.8,1.9,1.9C558,322.5,557.2,323.3,556.1,323.3z"/>
	<path d="M609.6,325.8l-1.2-3h-6.4l-1.2,3h-1.2l4.9-12h1.3l4.9,12H609.6z M605.3,314.9l-2.8,7h5.7L605.3,314.9z"/>
	<path d="M615.4,324.7l0.6-0.7c0.6,0.7,1.6,1.3,2.8,1.3c1.5,0,2.3-0.8,2.3-1.8c0-2.4-5.5-1-5.5-4.2c0-1.3,1.1-2.4,3.1-2.4
		c1.5,0,2.5,0.6,3.1,1.3l-0.5,0.7c-0.5-0.7-1.4-1.2-2.6-1.2c-1.4,0-2.2,0.7-2.2,1.6c0,2.2,5.5,0.8,5.5,4.2c0,1.4-1.1,2.6-3.3,2.6
		C617.3,326.1,616.3,325.6,615.4,324.7z"/>
	<path d="M633.9,325.8v-1.3c-0.7,0.8-1.9,1.5-3.1,1.5c-1.8,0-2.7-0.8-2.7-2.8v-6.1h0.9v5.9c0,1.7,0.8,2.2,2.1,2.2
		c1.1,0,2.3-0.7,2.8-1.4v-6.6h0.9v8.7H633.9z"/>
	<path d="M640.6,324.7l0.6-0.7c0.6,0.7,1.6,1.3,2.8,1.3c1.5,0,2.3-0.8,2.3-1.8c0-2.4-5.5-1-5.5-4.2c0-1.3,1.1-2.4,3.1-2.4
		c1.5,0,2.5,0.6,3.1,1.3l-0.5,0.7c-0.5-0.7-1.4-1.2-2.6-1.2c-1.4,0-2.2,0.7-2.2,1.6c0,2.2,5.5,0.8,5.5,4.2c0,1.4-1.1,2.6-3.3,2.6
		C642.5,326.1,641.4,325.6,640.6,324.7z"/>
	<path d="M691.5,323.3c-1,0-1.9-0.8-1.9-1.8c0-1,0.8-1.9,1.9-1.9s1.9,0.8,1.9,1.9C693.3,322.5,692.5,323.3,691.5,323.3z"/>
	<path d="M736.3,325.8v-12h4.9c2,0,3.3,1.2,3.3,3.1c0,1.5-1,2.5-2.1,2.8c1.3,0.2,2.3,1.5,2.3,3c0,2-1.3,3.2-3.4,3.2H736.3z
		 M743.4,317c0-1.2-0.8-2.2-2.4-2.2h-3.8v4.4h3.8C742.6,319.2,743.4,318.2,743.4,317z M743.7,322.5c0-1.2-0.8-2.4-2.5-2.4h-3.9v4.8
		h3.9C742.7,324.9,743.7,324,743.7,322.5z"/>
	<path d="M756.4,325.8v-1c-0.8,0.8-1.7,1.2-3,1.2c-1.5,0-3-1-3-2.9c0-1.9,1.5-2.9,3-2.9c1.2,0,2.2,0.4,3,1.2v-1.8c0-1.3-1-2-2.3-2
		c-1.1,0-1.9,0.4-2.7,1.3l-0.5-0.6c0.9-1,1.9-1.5,3.3-1.5c1.8,0,3.2,0.8,3.2,2.8v6.1H756.4z M756.4,324.1v-1.9
		c-0.6-0.8-1.6-1.2-2.6-1.2c-1.4,0-2.4,0.9-2.4,2.2c0,1.2,0.9,2.1,2.4,2.1C754.8,325.3,755.8,324.9,756.4,324.1z"/>
	<path d="M763.9,325.8v-12h0.9v12H763.9z"/>
	<path d="M771.3,325.8v-12h0.9v12H771.3z"/>
	<path d="M784.3,325.8v-1c-0.8,0.8-1.7,1.2-3,1.2c-1.5,0-3-1-3-2.9c0-1.9,1.5-2.9,3-2.9c1.2,0,2.2,0.4,3,1.2v-1.8c0-1.3-1-2-2.3-2
		c-1.1,0-1.9,0.4-2.7,1.3l-0.5-0.6c0.9-1,1.9-1.5,3.3-1.5c1.8,0,3.2,0.8,3.2,2.8v6.1H784.3z M784.3,324.1v-1.9
		c-0.6-0.8-1.6-1.2-2.6-1.2c-1.4,0-2.4,0.9-2.4,2.2c0,1.2,0.9,2.1,2.4,2.1C782.7,325.3,783.7,324.9,784.3,324.1z"/>
	<path d="M797.6,325.8v-5.9c0-1.7-0.8-2.1-2.1-2.1c-1.1,0-2.3,0.7-2.8,1.5v6.6h-0.9v-12h0.9v4.6c0.6-0.8,1.9-1.5,3.1-1.5
		c1.8,0,2.7,0.8,2.7,2.8v6.1H797.6z"/>
	<path d="M804.6,321.5c0-2.5,1.6-4.6,4.2-4.6c2.6,0,4.2,2,4.2,4.6s-1.6,4.6-4.2,4.6C806.2,326.1,804.6,324,804.6,321.5z
		 M811.9,321.5c0-1.9-1.1-3.7-3.2-3.7c-2,0-3.2,1.8-3.2,3.7c0,1.9,1.2,3.7,3.2,3.7C810.8,325.2,811.9,323.4,811.9,321.5z"/>
	<path d="M819,325.8v-12h0.9v12H819z"/>
	<path d="M826.2,315.1c0-0.4,0.3-0.7,0.7-0.7c0.4,0,0.7,0.3,0.7,0.7s-0.3,0.7-0.7,0.7C826.5,315.8,826.2,315.5,826.2,315.1z
		 M826.4,325.8v-8.7h0.9v8.7H826.4z"/>
	<path d="M839.6,325.8l-2.9-3.8l-2.9,3.8h-1.1l3.4-4.5l-3.2-4.2h1.1l2.7,3.6l2.7-3.6h1.1l-3.2,4.2l3.4,4.5H839.6z"/>
	<path d="M884.4,323.3c-1,0-1.9-0.8-1.9-1.8c0-1,0.8-1.9,1.9-1.9s1.9,0.8,1.9,1.9C886.2,322.5,885.4,323.3,884.4,323.3z"/>
	<path d="M928.7,319.9c0-3.7,2.7-6.2,6.1-6.2c1.9,0,3.3,0.8,4.4,2.1l-0.9,0.6c-0.8-1-2.1-1.7-3.5-1.7c-2.8,0-5,2.1-5,5.3
		c0,3.1,2.2,5.3,5,5.3c1.4,0,2.8-0.7,3.5-1.7l0.9,0.5c-1.1,1.3-2.5,2.1-4.4,2.1C931.4,326.1,928.7,323.5,928.7,319.9z"/>
	<path d="M944.3,321.5c0-2.5,1.8-4.6,4.2-4.6c2.6,0,4.1,2.1,4.1,4.6v0.3h-7.3c0.1,1.9,1.4,3.5,3.4,3.5c1.1,0,2.1-0.4,2.8-1.2
		l0.5,0.6c-0.9,0.9-2,1.4-3.4,1.4C946.1,326.1,944.3,324.2,944.3,321.5z M948.5,317.7c-2.1,0-3.1,1.8-3.2,3.3h6.3
		C951.6,319.6,950.7,317.7,948.5,317.7z"/>
	<path d="M964.5,325.8V320c0-1.7-0.8-2.2-2.1-2.2c-1.1,0-2.3,0.7-2.8,1.5v6.6h-0.9v-8.7h0.9v1.3c0.6-0.8,1.9-1.5,3.1-1.5
		c1.8,0,2.7,0.9,2.7,2.8v6.1H964.5z"/>
	<path d="M972.1,324.2V318h-1.4v-0.8h1.4v-2.4h1v2.4h1.8v0.8h-1.8v6c0,0.7,0.3,1.2,0.9,1.2c0.4,0,0.8-0.2,1-0.4l0.4,0.7
		c-0.3,0.3-0.8,0.5-1.5,0.5C972.7,326.1,972.1,325.4,972.1,324.2z"/>
	<path d="M980.5,325.8v-8.7h0.9v1.5c0.7-1,1.7-1.7,2.9-1.7v1c-0.2,0-0.3,0-0.5,0c-0.9,0-2.1,0.8-2.5,1.5v6.3H980.5z"/>
	<path d="M137,382c1.5,0,2.4-0.8,3-5.2l0.8-5.9h6.8v11.1h1.1v3.2h-1v-2.2H138v2.2h-1V382z M139,381.9h7.5v-10.1h-4.8l-0.6,5.1
		C140.6,379.9,139.9,381.3,139,381.9z"/>
	<path d="M153.8,378.5c0-2.5,1.6-4.6,4.2-4.6c2.6,0,4.2,2,4.2,4.6s-1.6,4.6-4.2,4.6C155.4,383.1,153.8,381,153.8,378.5z
		 M161.2,378.5c0-1.9-1.1-3.7-3.2-3.7c-2,0-3.2,1.8-3.2,3.7c0,1.9,1.2,3.7,3.2,3.7C160,382.2,161.2,380.4,161.2,378.5z"/>
	<path d="M167.1,382.8l4-4.8l-4.1-3.9h1.3l4.2,4.1v-4.1h1v4.1l4.2-4.1h1.2l-4.1,3.9l4,4.8h-1.3l-3.5-4.1l-0.7,0.7v3.5h-1v-3.5
		l-0.7-0.7l-3.5,4.1H167.1z"/>
	<path d="M183.2,382.1c0.8-0.1,1.4-0.8,1.8-3.6l0.6-4.3h5.5v7.8h1v3.1h-0.9v-2.2h-7.1v2.2h-1V382.1z M185.9,378.6
		c-0.3,2-0.7,3-1.4,3.4h5.6v-7h-3.8L185.9,378.6z"/>
	<path d="M198.8,374.2v3.5h3.4c1.7,0,2.6,1.2,2.6,2.6c0,1.4-0.9,2.6-2.6,2.6h-4.3v-8.7H198.8z M198.8,378.5v3.5h3.3
		c1.1,0,1.7-0.7,1.7-1.7c0-1-0.6-1.7-1.7-1.7H198.8z"/>
	<path d="M238.8,380.3c-1,0-1.9-0.8-1.9-1.8c0-1,0.8-1.9,1.9-1.9s1.9,0.8,1.9,1.9C240.7,379.5,239.9,380.3,238.8,380.3z"/>
	<path d="M273.2,382.8v-12h8.8v2.7h-5.7v1.9h5.6v2.7h-5.6v4.7H273.2z"/>
	<path d="M287.3,382.8v-12h3.1v12H287.3z"/>
	<path d="M296.1,382.8v-12h6.8c2.4,0,3.5,1.5,3.5,3.1c0,1.5-0.9,2.5-2.1,2.8c1.3,0.2,2.3,1.4,2.3,2.9c0,1.7-1.2,3.3-3.5,3.3H296.1z
		 M303.3,374.4c0-0.6-0.4-1-1.1-1h-3v2h3C302.8,375.4,303.3,375,303.3,374.4z M303.5,379.2c0-0.6-0.4-1.1-1.2-1.1h-3.1v2.2h3.1
		C303.1,380.2,303.5,379.8,303.5,379.2z"/>
	<path d="M320.1,382.8l-0.6-1.7h-4.7l-0.6,1.7h-3.5l4.5-12h3.9l4.5,12H320.1z M317.1,373.9l-1.5,4.5h3.1L317.1,373.9z"/>
	<path d="M356.7,380.3c-1,0-1.9-0.8-1.9-1.8c0-1,0.8-1.9,1.9-1.9s1.9,0.8,1.9,1.9C358.6,379.5,357.7,380.3,356.7,380.3z"/>
	<path d="M391.5,382.8v-12h7.6v0.9h-6.6v4.4h6.5v0.9h-6.5v5.7H391.5z"/>
	<path d="M410.7,382.8v-1.3c-0.7,0.8-1.9,1.5-3.1,1.5c-1.8,0-2.7-0.8-2.7-2.8v-6.1h0.9v5.9c0,1.7,0.8,2.2,2.1,2.2
		c1.1,0,2.3-0.7,2.8-1.4v-6.6h0.9v8.7H410.7z"/>
	<path d="M424,382.8V377c0-1.7-0.8-2.2-2.1-2.2c-1.1,0-2.3,0.7-2.8,1.5v6.6h-0.9v-8.7h0.9v1.3c0.6-0.8,1.9-1.5,3.1-1.5
		c1.8,0,2.7,0.9,2.7,2.8v6.1H424z"/>
	<path d="M431.4,382.8v-12h0.9v4.7c0.7-1,1.8-1.6,3-1.6c2.3,0,3.9,1.8,3.9,4.6c0,2.8-1.6,4.6-3.9,4.6c-1.3,0-2.4-0.7-3-1.6v1.4
		H431.4z M435.2,382.2c1.9,0,3-1.6,3-3.7c0-2.1-1.1-3.7-3-3.7c-1.2,0-2.4,0.8-2.9,1.6v4.3C432.9,381.5,434,382.2,435.2,382.2z"/>
	<path d="M444.8,378.5c0-2.5,1.6-4.6,4.2-4.6c2.6,0,4.2,2,4.2,4.6s-1.6,4.6-4.2,4.6C446.4,383.1,444.8,381,444.8,378.5z
		 M452.2,378.5c0-1.9-1.1-3.7-3.2-3.7c-2,0-3.2,1.8-3.2,3.7c0,1.9,1.2,3.7,3.2,3.7C451,382.2,452.2,380.4,452.2,378.5z"/>
	<path d="M464.9,382.8L462,379l-2.9,3.8H458l3.4-4.5l-3.2-4.2h1.1l2.7,3.6l2.7-3.6h1.1l-3.2,4.2l3.4,4.5H464.9z"/>
	<path d="M499.6,380.3c-1,0-1.9-0.8-1.9-1.8c0-1,0.8-1.9,1.9-1.9s1.9,0.8,1.9,1.9C501.5,379.5,500.7,380.3,499.6,380.3z"/>
	<path d="M534,376.9c0-3.7,2.7-6.2,6.1-6.2c2,0,3.4,0.8,4.5,2.1l-0.8,0.6c-0.8-1-2.2-1.7-3.7-1.7c-2.8,0-5,2.1-5,5.3
		c0,3.1,2.2,5.3,5,5.3c1.6,0,2.9-0.8,3.5-1.5v-2.9H539v-0.9h5.6v4.2c-1.1,1.2-2.7,2-4.6,2C536.7,383.1,534,380.6,534,376.9z"/>
	<path d="M556.6,382.8v-1.3c-0.7,0.8-1.9,1.5-3.1,1.5c-1.8,0-2.7-0.8-2.7-2.8v-6.1h0.9v5.9c0,1.7,0.8,2.2,2.1,2.2
		c1.1,0,2.3-0.7,2.8-1.4v-6.6h0.9v8.7H556.6z"/>
	<path d="M564.1,382.8v-8.7h0.9v1.5c0.7-1,1.7-1.7,2.9-1.7v1c-0.2,0-0.3,0-0.5,0c-0.9,0-2.1,0.8-2.5,1.5v6.3H564.1z"/>
	<path d="M583.7,382.8v-6.1c0-1.2-0.5-2-1.7-2c-0.9,0-2,0.7-2.5,1.5v6.6h-1v-6.1c0-1.2-0.5-2-1.7-2c-0.9,0-2,0.7-2.5,1.5v6.6h-0.9
		v-8.7h0.9v1.3c0.4-0.6,1.5-1.5,2.8-1.5c1.4,0,2.1,0.8,2.3,1.6c0.5-0.8,1.7-1.6,2.9-1.6c1.6,0,2.4,0.9,2.4,2.6v6.3H583.7z"/>
	<path d="M590.7,378.5c0-2.5,1.8-4.6,4.2-4.6c2.6,0,4.1,2.1,4.1,4.6v0.3h-7.3c0.1,1.9,1.4,3.5,3.4,3.5c1.1,0,2.1-0.4,2.8-1.2
		l0.5,0.6c-0.9,0.9-2,1.4-3.4,1.4C592.5,383.1,590.7,381.2,590.7,378.5z M594.9,374.7c-2.1,0-3.1,1.8-3.2,3.3h6.3
		C598,376.6,597,374.7,594.9,374.7z"/>
	<path d="M633.2,380.3c-1,0-1.9-0.8-1.9-1.8c0-1,0.8-1.9,1.9-1.9s1.9,0.8,1.9,1.9C635.1,379.5,634.3,380.3,633.2,380.3z"/>
	<path d="M675.3,382.8l-5-5.7l-1.3,1.5v4.2h-1v-12h1v6.6l5.8-6.6h1.3l-5.1,5.7l5.6,6.3H675.3z"/>
	<path d="M681.8,372.1c0-0.4,0.3-0.7,0.7-0.7c0.4,0,0.7,0.3,0.7,0.7s-0.3,0.7-0.7,0.7C682.2,372.8,681.8,372.5,681.8,372.1z
		 M682.1,382.8v-8.7h0.9v8.7H682.1z"/>
	<path d="M695.1,382.8v-1c-0.8,0.8-1.7,1.2-3,1.2c-1.5,0-3-1-3-2.9c0-1.9,1.5-2.9,3-2.9c1.2,0,2.2,0.4,3,1.2v-1.8c0-1.3-1-2-2.3-2
		c-1.1,0-1.9,0.4-2.7,1.3l-0.5-0.6c0.9-1,1.9-1.5,3.3-1.5c1.8,0,3.2,0.8,3.2,2.8v6.1H695.1z M695.1,381.1v-1.9
		c-0.6-0.8-1.6-1.2-2.6-1.2c-1.4,0-2.4,0.9-2.4,2.2c0,1.2,0.9,2.1,2.4,2.1C693.5,382.3,694.5,381.9,695.1,381.1z"/>
	<path d="M730.8,380.3c-1,0-1.9-0.8-1.9-1.8c0-1,0.8-1.9,1.9-1.9s1.9,0.8,1.9,1.9C732.6,379.5,731.8,380.3,730.8,380.3z"/>
	<path d="M764.4,380.3c1.1,0,1.8-0.7,2.2-3.4l0.7-6.1h8.9v12h-3.1v-9.3h-3.1l-0.4,3.6c-0.6,4.9-2.6,5.9-5.3,5.9V380.3z"/>
	<path d="M781.4,378.5c0-2.5,1.9-4.6,4.6-4.6c2.6,0,4.4,1.9,4.4,4.8v0.6h-6.2c0.2,0.8,0.9,1.5,2.2,1.5c0.6,0,1.7-0.3,2.2-0.7
		l1.2,1.7c-0.9,0.8-2.3,1.2-3.6,1.2C783.5,383.1,781.4,381.3,781.4,378.5z M786,376.1c-1.2,0-1.7,0.9-1.8,1.5h3.6
		C787.8,377,787.3,376.1,786,376.1z"/>
	<path d="M795.4,382.8v-8.7h2.8v3h3.1v-3h2.8v8.7h-2.8v-3.3h-3.1v3.3H795.4z"/>
	<path d="M809.7,382.8v-8.7h2.8v4.6l3.1-4.6h2.8v8.7h-2.8v-4.8l-3.2,4.8H809.7z"/>
	<path d="M824,382.8v-8.7h2.8v3h3.1v-3h2.8v8.7h-2.8v-3.3h-3.1v3.3H824z"/>
	<path d="M845.2,376.6H841v6.3h-2.8v-8.7h6.9V376.6z"/>
	<path d="M852.8,381.8v4.3h-2.8v-12h2.8v1c0.7-0.8,1.6-1.2,2.6-1.2c2.2,0,3.8,1.6,3.8,4.6c0,3-1.6,4.6-3.8,4.6
		C854.4,383.1,853.5,382.7,852.8,381.8z M856.4,378.5c0-1.3-0.8-2.1-1.9-2.1c-0.6,0-1.3,0.3-1.7,0.8v2.6c0.3,0.4,1.1,0.8,1.7,0.8
		C855.6,380.6,856.4,379.8,856.4,378.5z"/>
	<path d="M869.4,382.8V382c-0.5,0.6-1.6,1.1-2.7,1.1c-1.3,0-3-0.9-3-2.9c0-2.1,1.7-2.8,3-2.8c1.2,0,2.2,0.4,2.7,1v-1
		c0-0.8-0.6-1.3-1.8-1.3c-0.9,0-1.8,0.3-2.5,0.9l-1-1.7c1.1-1,2.6-1.4,3.9-1.4c2.1,0,4.1,0.8,4.1,3.5v5.4H869.4z M869.4,380.6v-0.8
		c-0.3-0.4-0.9-0.6-1.5-0.6c-0.7,0-1.4,0.3-1.4,1c0,0.7,0.6,1,1.4,1C868.4,381.2,869.1,381,869.4,380.6z"/>
	<path d="M877.1,380.5c0.6-0.1,1.1-0.3,1.3-2.2l0.6-4.2h7.4v6.3h1v4.6h-2.8v-2.2h-4.8v2.2h-2.8V380.5z M881.2,378.4
		c-0.1,0.9-0.4,1.5-0.8,2h3.3v-3.9h-2.3L881.2,378.4z"/>
	<path d="M927.8,382.8h-9.1v-12h3.1v9.3h5v-9.3h3.1v9.3h1.1v4.9h-3.1V382.8z"/>
	<path d="M935.2,378.5c0-2.5,1.9-4.6,4.6-4.6c2.6,0,4.4,1.9,4.4,4.8v0.6H938c0.2,0.8,0.9,1.5,2.2,1.5c0.6,0,1.7-0.3,2.2-0.7l1.2,1.7
		c-0.9,0.8-2.3,1.2-3.6,1.2C937.2,383.1,935.2,381.3,935.2,378.5z M939.8,376.1c-1.2,0-1.7,0.9-1.8,1.5h3.6
		C941.5,377,941.1,376.1,939.8,376.1z"/>
	<path d="M949.2,382.8v-8.7h2.8v3h3.1v-3h2.8v8.7h-2.8v-3.3H952v3.3H949.2z"/>
	<path d="M965.1,382.8v-6.3h-2.4v-2.4h7.5v2.4h-2.4v6.3H965.1z"/>
	<path d="M977.9,381.8v4.3h-2.8v-12h2.8v1c0.7-0.8,1.6-1.2,2.6-1.2c2.2,0,3.8,1.6,3.8,4.6c0,3-1.6,4.6-3.8,4.6
		C979.5,383.1,978.6,382.7,977.9,381.8z M981.5,378.5c0-1.3-0.8-2.1-1.9-2.1c-0.6,0-1.3,0.3-1.7,0.8v2.6c0.3,0.4,1.1,0.8,1.7,0.8
		C980.7,380.6,981.5,379.8,981.5,378.5z"/>
	<path d="M137.8,439.8v-12h1v11.1h5.8v0.9H137.8z"/>
	<path d="M150.2,429.1c0-0.4,0.3-0.7,0.7-0.7c0.4,0,0.7,0.3,0.7,0.7s-0.3,0.7-0.7,0.7C150.6,429.8,150.2,429.5,150.2,429.1z
		 M150.5,439.8v-8.7h0.9v8.7H150.5z"/>
	<path d="M157,435.9v-0.9h4.3v0.9H157z"/>
	<path d="M175.5,439.8l-7.6-10.3v10.3h-1v-12h1l7.5,10.2v-10.2h1v12H175.5z"/>
	<path d="M182.8,429.1c0-0.4,0.3-0.7,0.7-0.7c0.4,0,0.7,0.3,0.7,0.7s-0.3,0.7-0.7,0.7C183.2,429.8,182.8,429.5,182.8,429.1z
		 M183.1,439.8v-8.7h0.9v8.7H183.1z"/>
	<path d="M196.4,439.8V434c0-1.7-0.8-2.2-2.1-2.2c-1.1,0-2.3,0.7-2.8,1.5v6.6h-0.9v-8.7h0.9v1.3c0.6-0.8,1.9-1.5,3.1-1.5
		c1.8,0,2.7,0.9,2.7,2.8v6.1H196.4z"/>
	<path d="M203.9,442.1l0.5-0.7c0.8,0.9,1.6,1.2,2.9,1.2c1.6,0,3-0.8,3-2.8v-1.4c-0.6,0.9-1.7,1.6-3,1.6c-2.3,0-3.9-1.7-3.9-4.5
		c0-2.8,1.6-4.6,3.9-4.6c1.2,0,2.3,0.6,3,1.6v-1.4h1v8.6c0,2.7-1.8,3.6-3.9,3.6C205.8,443.4,204.9,443.1,203.9,442.1z M210.3,437.6
		v-4.2c-0.5-0.8-1.7-1.6-2.9-1.6c-1.9,0-3,1.6-3,3.7s1.1,3.7,3,3.7C208.6,439.2,209.8,438.4,210.3,437.6z"/>
	<path d="M302.6,437.3c-1,0-1.9-0.8-1.9-1.8c0-1,0.8-1.9,1.9-1.9s1.9,0.8,1.9,1.9C304.4,436.5,303.6,437.3,302.6,437.3z"/>
	<path d="M404.1,439.8V432l-3,7.8h-1.4l-3-7.8v7.8h-3.1v-12h4.3l2.5,6.5l2.5-6.5h4.3v12H404.1z"/>
	<path d="M412.9,439.8v-12h8.8v2.7H416v1.9h5.6v2.7H416v2h5.7v2.7H412.9z"/>
	<path d="M430,431.4c0,1.4,0.8,1.8,1.9,1.8c0.8,0,1.5-0.1,2-0.3v-5.1h3.1v12H434v-4.2c-0.8,0.2-1.6,0.3-2.4,0.3
		c-3.2,0-4.6-1.8-4.6-4.5v-3.6h3.1V431.4z"/>
	<path d="M528.1,437.3c-1,0-1.9-0.8-1.9-1.8c0-1,0.8-1.9,1.9-1.9s1.9,0.8,1.9,1.9C529.9,436.5,529.1,437.3,528.1,437.3z"/>
	<path d="M629.6,439.8v-10.6l-4.4,10.6h-0.4l-4.4-10.6v10.6h-1v-12h1.5l4.1,9.9l4.1-9.9h1.5v12H629.6z"/>
	<path d="M637,429.1c0-0.4,0.3-0.7,0.7-0.7c0.4,0,0.7,0.3,0.7,0.7s-0.3,0.7-0.7,0.7C637.3,429.8,637,429.5,637,429.1z M637.2,439.8
		v-8.7h0.9v8.7H637.2z"/>
	<path d="M650.5,439.8V434c0-1.7-0.8-2.2-2.1-2.2c-1.1,0-2.3,0.7-2.8,1.5v6.6h-0.9v-8.7h0.9v1.3c0.6-0.8,1.9-1.5,3.1-1.5
		c1.8,0,2.7,0.9,2.7,2.8v6.1H650.5z"/>
	<path d="M657.2,438.7l0.6-0.7c0.6,0.7,1.6,1.3,2.8,1.3c1.5,0,2.3-0.8,2.3-1.8c0-2.4-5.5-1-5.5-4.2c0-1.3,1.1-2.4,3.1-2.4
		c1.5,0,2.5,0.6,3.1,1.3l-0.5,0.7c-0.5-0.7-1.4-1.2-2.6-1.2c-1.4,0-2.2,0.7-2.2,1.6c0,2.2,5.5,0.8,5.5,4.2c0,1.4-1.1,2.6-3.3,2.6
		C659.2,440.1,658.1,439.6,657.2,438.7z"/>
	<path d="M675.9,439.8l-3.5-4.1l-1.6,1.5v2.6h-0.9v-12h0.9v8.3l5.1-5h1.2l-4.1,3.9l4,4.8H675.9z"/>
	<path d="M765,438.2l0.7-0.8c0.8,0.9,2,1.7,3.7,1.7c2.5,0,3.2-1.4,3.2-2.4c0-3.5-7.2-1.7-7.2-5.9c0-2,1.8-3.2,3.9-3.2
		c1.8,0,3.1,0.6,4.1,1.7l-0.7,0.8c-0.9-1-2.1-1.5-3.4-1.5c-1.6,0-2.8,0.9-2.8,2.2c0,3.1,7.2,1.4,7.2,5.9c0,1.5-1,3.4-4.3,3.4
		C767.4,440.1,765.9,439.3,765,438.2z"/>
	<path d="M779.9,438.2V432h-1.4v-0.8h1.4v-2.4h1v2.4h1.8v0.8h-1.8v6c0,0.7,0.3,1.2,0.9,1.2c0.4,0,0.8-0.2,1-0.4l0.4,0.7
		c-0.3,0.3-0.8,0.5-1.5,0.5C780.4,440.1,779.9,439.4,779.9,438.2z"/>
	<path d="M788.2,439.8v-8.7h0.9v1.5c0.7-1,1.7-1.7,2.9-1.7v1c-0.2,0-0.3,0-0.5,0c-0.9,0-2.1,0.8-2.5,1.5v6.3H788.2z"/>
	<path d="M797,435.5c0-2.5,1.8-4.6,4.2-4.6c2.6,0,4.1,2.1,4.1,4.6v0.3h-7.3c0.1,1.9,1.4,3.5,3.4,3.5c1.1,0,2.1-0.4,2.8-1.2l0.5,0.6
		c-0.9,0.9-2,1.4-3.4,1.4C798.9,440.1,797,438.2,797,435.5z M801.2,431.7c-2.1,0-3.1,1.8-3.2,3.3h6.3
		C804.4,433.6,803.4,431.7,801.2,431.7z"/>
	<path d="M810.8,435.5c0-2.5,1.8-4.6,4.2-4.6c2.6,0,4.1,2.1,4.1,4.6v0.3h-7.3c0.1,1.9,1.4,3.5,3.4,3.5c1.1,0,2.1-0.4,2.8-1.2
		l0.5,0.6c-0.9,0.9-2,1.4-3.4,1.4C812.7,440.1,810.8,438.2,810.8,435.5z M815,431.7c-2.1,0-3.1,1.8-3.2,3.3h6.3
		C818.2,433.6,817.2,431.7,815,431.7z"/>
	<path d="M825.3,438.2V432h-1.4v-0.8h1.4v-2.4h1v2.4h1.8v0.8h-1.8v6c0,0.7,0.3,1.2,0.9,1.2c0.4,0,0.8-0.2,1-0.4l0.4,0.7
		c-0.3,0.3-0.8,0.5-1.5,0.5C825.9,440.1,825.3,439.4,825.3,438.2z"/>
	<path d="M916.4,433.9c0-3.7,2.7-6.2,6.1-6.2c2,0,3.4,0.8,4.5,2.1l-0.8,0.6c-0.8-1-2.2-1.7-3.7-1.7c-2.8,0-5,2.1-5,5.3
		c0,3.1,2.2,5.3,5,5.3c1.6,0,2.9-0.8,3.5-1.5v-2.9h-4.5v-0.9h5.6v4.2c-1.1,1.2-2.7,2-4.6,2C919.1,440.1,916.4,437.6,916.4,433.9z"/>
	<path d="M938.7,439.8v-1c-0.8,0.8-1.7,1.2-3,1.2c-1.5,0-3-1-3-2.9c0-1.9,1.5-2.9,3-2.9c1.2,0,2.2,0.4,3,1.2v-1.8c0-1.3-1-2-2.3-2
		c-1.1,0-1.9,0.4-2.7,1.3l-0.5-0.6c0.9-1,1.9-1.5,3.3-1.5c1.8,0,3.2,0.8,3.2,2.8v6.1H938.7z M938.7,438.1v-1.9
		c-0.6-0.8-1.6-1.2-2.6-1.2c-1.4,0-2.4,0.9-2.4,2.2c0,1.2,0.9,2.1,2.4,2.1C937.1,439.3,938.1,438.9,938.7,438.1z"/>
	<path d="M956.5,439.8v-6.1c0-1.2-0.5-2-1.7-2c-0.9,0-2,0.7-2.5,1.5v6.6h-1v-6.1c0-1.2-0.5-2-1.7-2c-0.9,0-2,0.7-2.5,1.5v6.6h-0.9
		v-8.7h0.9v1.3c0.4-0.6,1.5-1.5,2.8-1.5c1.4,0,2.1,0.8,2.3,1.6c0.5-0.8,1.7-1.6,2.9-1.6c1.6,0,2.4,0.9,2.4,2.6v6.3H956.5z"/>
	<path d="M963.5,435.5c0-2.5,1.8-4.6,4.2-4.6c2.6,0,4.1,2.1,4.1,4.6v0.3h-7.3c0.1,1.9,1.4,3.5,3.4,3.5c1.1,0,2.1-0.4,2.8-1.2
		l0.5,0.6c-0.9,0.9-2,1.4-3.4,1.4C965.3,440.1,963.5,438.2,963.5,435.5z M967.6,431.7c-2.1,0-3.1,1.8-3.2,3.3h6.3
		C970.8,433.6,969.8,431.7,967.6,431.7z"/>
	<path d="M977.3,439.8v-0.8l5.1-7.1h-5.1v-0.8h6.4v0.8l-5.2,7.1h5.3v0.8H977.3z"/>
	<path d="M146.5,496.8v-5.7h-7.6v5.7h-1v-12h1v5.4h7.6v-5.4h1v12H146.5z"/>
	<path d="M157.1,496.8v-11.1h-3.9v-0.9h8.9v0.9h-3.9v11.1H157.1z"/>
	<path d="M167.8,496.8v-12h4.9c2,0,3.3,1.2,3.3,3.1c0,1.5-1,2.5-2.1,2.8c1.3,0.2,2.3,1.5,2.3,3c0,2-1.3,3.2-3.4,3.2H167.8z M175,488
		c0-1.2-0.8-2.2-2.4-2.2h-3.8v4.4h3.8C174.2,490.2,175,489.2,175,488z M175.2,493.5c0-1.2-0.8-2.4-2.5-2.4h-3.9v4.8h3.9
		C174.3,495.9,175.2,495,175.2,493.5z"/>
	<path d="M231.2,494.3c-1,0-1.9-0.8-1.9-1.8c0-1,0.8-1.9,1.9-1.9s1.9,0.8,1.9,1.9C233,493.5,232.2,494.3,231.2,494.3z"/>
	<path d="M293.4,496.8l-3.4-5h-2.6v5h-1v-12h4.5c2.1,0,3.7,1.3,3.7,3.5c0,2.2-1.5,3.4-3.3,3.5l3.5,5H293.4z M293.4,488.3
		c0-1.5-1.1-2.6-2.7-2.6h-3.4v5.2h3.4C292.4,490.9,293.4,489.9,293.4,488.3z"/>
	<path d="M300.1,492.5c0-2.5,1.8-4.6,4.2-4.6c2.6,0,4.1,2.1,4.1,4.6v0.3h-7.3c0.1,1.9,1.4,3.5,3.4,3.5c1.1,0,2.1-0.4,2.8-1.2
		l0.5,0.6c-0.9,0.9-2,1.4-3.4,1.4C301.9,497.1,300.1,495.2,300.1,492.5z M304.3,488.7c-2.1,0-3.1,1.8-3.2,3.3h6.3
		C307.5,490.6,306.5,488.7,304.3,488.7z"/>
	<path d="M320.9,496.8v-1.4c-0.6,0.9-1.7,1.6-3,1.6c-2.3,0-3.9-1.8-3.9-4.6c0-2.8,1.6-4.6,3.9-4.6c1.2,0,2.3,0.6,3,1.6v-4.7h1v12
		H320.9z M320.9,494.7v-4.3c-0.5-0.8-1.6-1.6-2.9-1.6c-1.9,0-3,1.6-3,3.7c0,2.1,1.1,3.7,3,3.7C319.2,496.2,320.3,495.5,320.9,494.7z
		"/>
	<path d="M328.3,496.8v-12h0.9v4.7c0.7-1,1.8-1.6,3-1.6c2.3,0,3.9,1.8,3.9,4.6c0,2.8-1.6,4.6-3.9,4.6c-1.3,0-2.4-0.7-3-1.6v1.4
		H328.3z M332.1,496.2c1.9,0,3-1.6,3-3.7c0-2.1-1.1-3.7-3-3.7c-1.2,0-2.4,0.8-2.9,1.6v4.3C329.8,495.5,330.9,496.2,332.1,496.2z"/>
	<path d="M348.1,496.8v-1.3c-0.7,0.8-1.9,1.5-3.1,1.5c-1.8,0-2.7-0.8-2.7-2.8v-6.1h0.9v5.9c0,1.7,0.8,2.2,2.1,2.2
		c1.1,0,2.3-0.7,2.8-1.4v-6.6h0.9v8.7H348.1z"/>
	<path d="M355.5,496.8v-12h0.9v12H355.5z"/>
	<path d="M363,496.8v-12h0.9v12H363z"/>
	<path d="M419.1,494.3c-1,0-1.9-0.8-1.9-1.8c0-1,0.8-1.9,1.9-1.9s1.9,0.8,1.9,1.9C421,493.5,420.2,494.3,419.1,494.3z"/>
	<path d="M480.6,496.8l-2-4H477v4h-3.1v-12h6c2.7,0,4.2,1.8,4.2,4c0,2.1-1.3,3.2-2.4,3.6l2.4,4.4H480.6z M481,488.8
		c0-0.8-0.7-1.3-1.5-1.3H477v2.6h2.4C480.3,490.1,481,489.7,481,488.8z"/>
	<path d="M488.8,492.5c0-2.5,1.9-4.6,4.6-4.6c2.6,0,4.4,1.9,4.4,4.8v0.6h-6.2c0.2,0.8,0.9,1.5,2.2,1.5c0.6,0,1.7-0.3,2.2-0.7
		l1.2,1.7c-0.9,0.8-2.3,1.2-3.6,1.2C490.9,497.1,488.8,495.3,488.8,492.5z M493.4,490.1c-1.2,0-1.7,0.9-1.8,1.5h3.6
		C495.1,491,494.7,490.1,493.4,490.1z"/>
	<path d="M502.2,492.5c0-2.5,1.9-4.6,4.6-4.6c2.6,0,4.4,1.9,4.4,4.8v0.6h-6.2c0.2,0.8,0.9,1.5,2.2,1.5c0.6,0,1.7-0.3,2.2-0.7
		l1.2,1.7c-0.9,0.8-2.3,1.2-3.6,1.2C504.3,497.1,502.2,495.3,502.2,492.5z M506.9,490.1c-1.2,0-1.7,0.9-1.8,1.5h3.6
		C508.6,491,508.2,490.1,506.9,490.1z"/>
	<path d="M516.3,496.8v-12h2.8v4.3c0.7-0.9,1.6-1.2,2.6-1.2c2.2,0,3.8,1.7,3.8,4.6c0,3-1.7,4.6-3.8,4.6c-1,0-1.9-0.4-2.6-1.2v1
		H516.3z M520.7,494.6c1.1,0,1.9-0.8,1.9-2.1c0-1.3-0.8-2.1-1.9-2.1c-0.6,0-1.3,0.3-1.7,0.8v2.7
		C519.4,494.3,520.1,494.6,520.7,494.6z"/>
	<path d="M530,492.5c0-2.4,1.8-4.6,4.7-4.6c3,0,4.8,2.1,4.8,4.6c0,2.4-1.8,4.6-4.8,4.6C531.7,497.1,530,494.9,530,492.5z
		 M536.6,492.5c0-1.2-0.7-2.1-1.9-2.1c-1.2,0-1.9,1-1.9,2.1c0,1.2,0.7,2.1,1.9,2.1C535.9,494.6,536.6,493.7,536.6,492.5z"/>
	<path d="M550,496.8l-1.9-3.1l-0.8,1v2.1h-2.8v-12h2.8v6.8l2.6-3.5h3.3l-3.2,4l3.4,4.7H550z"/>
	<path d="M607.1,494.3c-1,0-1.9-0.8-1.9-1.8c0-1,0.8-1.9,1.9-1.9s1.9,0.8,1.9,1.9C608.9,493.5,608.1,494.3,607.1,494.3z"/>
	<path d="M661.6,495.2l0.7-0.8c0.8,0.9,2,1.7,3.7,1.7c2.5,0,3.2-1.4,3.2-2.4c0-3.5-7.2-1.7-7.2-5.9c0-2,1.8-3.2,3.9-3.2
		c1.8,0,3.1,0.6,4.1,1.7l-0.7,0.8c-0.9-1-2.1-1.5-3.4-1.5c-1.6,0-2.8,0.9-2.8,2.2c0,3.1,7.2,1.4,7.2,5.9c0,1.5-1,3.4-4.3,3.4
		C664,497.1,662.6,496.3,661.6,495.2z"/>
	<path d="M676.5,495.2V489h-1.4v-0.8h1.4v-2.4h1v2.4h1.8v0.8h-1.8v6c0,0.7,0.3,1.2,0.9,1.2c0.4,0,0.8-0.2,1-0.4l0.4,0.7
		c-0.3,0.3-0.8,0.5-1.5,0.5C677.1,497.1,676.5,496.4,676.5,495.2z"/>
	<path d="M684.9,496.8v-8.7h0.9v1.5c0.7-1,1.7-1.7,2.9-1.7v1c-0.2,0-0.3,0-0.5,0c-0.9,0-2.1,0.8-2.5,1.5v6.3H684.9z"/>
	<path d="M693.7,492.5c0-2.5,1.8-4.6,4.2-4.6c2.6,0,4.1,2.1,4.1,4.6v0.3h-7.3c0.1,1.9,1.4,3.5,3.4,3.5c1.1,0,2.1-0.4,2.8-1.2
		l0.5,0.6c-0.9,0.9-2,1.4-3.4,1.4C695.5,497.1,693.7,495.2,693.7,492.5z M697.9,488.7c-2.1,0-3.1,1.8-3.2,3.3h6.3
		C701,490.6,700,488.7,697.9,488.7z"/>
	<path d="M707.5,492.5c0-2.5,1.8-4.6,4.2-4.6c2.6,0,4.1,2.1,4.1,4.6v0.3h-7.3c0.1,1.9,1.4,3.5,3.4,3.5c1.1,0,2.1-0.4,2.8-1.2
		l0.5,0.6c-0.9,0.9-2,1.4-3.4,1.4C709.3,497.1,707.5,495.2,707.5,492.5z M711.7,488.7c-2.1,0-3.1,1.8-3.2,3.3h6.3
		C714.8,490.6,713.8,488.7,711.7,488.7z"/>
	<path d="M722,495.2V489h-1.4v-0.8h1.4v-2.4h1v2.4h1.8v0.8h-1.8v6c0,0.7,0.3,1.2,0.9,1.2c0.4,0,0.8-0.2,1-0.4l0.4,0.7
		c-0.3,0.3-0.8,0.5-1.5,0.5C722.5,497.1,722,496.4,722,495.2z"/>
	<path d="M730.3,496.8v-12h0.9v4.7c0.7-1,1.8-1.6,3-1.6c2.3,0,3.9,1.8,3.9,4.6c0,2.8-1.6,4.6-3.9,4.6c-1.3,0-2.4-0.7-3-1.6v1.4
		H730.3z M734.1,496.2c1.9,0,3-1.6,3-3.7c0-2.1-1.1-3.7-3-3.7c-1.2,0-2.4,0.8-2.9,1.6v4.3C731.8,495.5,732.9,496.2,734.1,496.2z"/>
	<path d="M749.7,496.8v-1c-0.8,0.8-1.7,1.2-3,1.2c-1.5,0-3-1-3-2.9c0-1.9,1.5-2.9,3-2.9c1.2,0,2.2,0.4,3,1.2v-1.8c0-1.3-1-2-2.3-2
		c-1.1,0-1.9,0.4-2.7,1.3l-0.5-0.6c0.9-1,1.9-1.5,3.3-1.5c1.8,0,3.2,0.8,3.2,2.8v6.1H749.7z M749.7,495.1v-1.9
		c-0.6-0.8-1.6-1.2-2.6-1.2c-1.4,0-2.4,0.9-2.4,2.2c0,1.2,0.9,2.1,2.4,2.1C748.2,496.3,749.1,495.9,749.7,495.1z"/>
	<path d="M757.2,496.8v-12h0.9v12H757.2z"/>
	<path d="M764.6,496.8v-12h0.9v12H764.6z"/>
	<path d="M820.8,494.3c-1,0-1.9-0.8-1.9-1.8c0-1,0.8-1.9,1.9-1.9s1.9,0.8,1.9,1.9C822.7,493.5,821.8,494.3,820.8,494.3z"/>
	<path d="M878.3,496.8v-9.3h-3.4v-2.7h9.8v2.7h-3.3v9.3H878.3z"/>
	<path d="M894.9,496.8V496c-0.5,0.6-1.6,1.1-2.7,1.1c-1.3,0-3-0.9-3-2.9c0-2.1,1.7-2.8,3-2.8c1.2,0,2.2,0.4,2.7,1v-1
		c0-0.8-0.6-1.3-1.8-1.3c-0.9,0-1.8,0.3-2.5,0.9l-1-1.7c1.1-1,2.6-1.4,3.9-1.4c2.1,0,4.1,0.8,4.1,3.5v5.4H894.9z M894.9,494.6v-0.8
		c-0.3-0.4-0.9-0.6-1.5-0.6c-0.7,0-1.4,0.3-1.4,1c0,0.7,0.6,1,1.4,1C893.9,495.2,894.6,495,894.9,494.6z"/>
	<path d="M902.7,492.5c0-2.7,2-4.6,4.8-4.6c1.9,0,3,0.8,3.6,1.6l-1.8,1.7c-0.3-0.5-0.9-0.8-1.6-0.8c-1.2,0-2,0.8-2,2.1
		s0.9,2.1,2,2.1c0.7,0,1.3-0.4,1.6-0.8l1.8,1.7c-0.5,0.8-1.7,1.6-3.6,1.6C904.7,497.1,902.7,495.2,902.7,492.5z"/>
	<path d="M921.8,496.8v-5.1c0-1.1-0.6-1.4-1.4-1.4c-0.8,0-1.4,0.5-1.7,0.8v5.6h-2.8v-12h2.8v4.4c0.5-0.6,1.5-1.3,3-1.3
		c2,0,2.9,1.1,2.9,2.7v6.2H921.8z"/>
	<path d="M930,485.8c0-0.9,0.7-1.6,1.6-1.6c0.9,0,1.6,0.7,1.6,1.6c0,0.9-0.7,1.6-1.6,1.6C930.7,487.4,930,486.7,930,485.8z
		 M930.2,496.8v-8.7h2.8v8.7H930.2z"/>
	<path d="M944.1,496.8l-1.9-3.1l-0.8,1v2.1h-2.8v-12h2.8v6.8l2.6-3.5h3.3l-3.2,4l3.4,4.7H944.1z"/>
	<path d="M957.1,496.8V496c-0.5,0.6-1.6,1.1-2.7,1.1c-1.3,0-3-0.9-3-2.9c0-2.1,1.7-2.8,3-2.8c1.2,0,2.2,0.4,2.7,1v-1
		c0-0.8-0.6-1.3-1.8-1.3c-0.9,0-1.8,0.3-2.5,0.9l-1-1.7c1.1-1,2.6-1.4,3.9-1.4c2.1,0,4.1,0.8,4.1,3.5v5.4H957.1z M957.1,494.6v-0.8
		c-0.3-0.4-0.9-0.6-1.5-0.6c-0.7,0-1.4,0.3-1.4,1c0,0.7,0.6,1,1.4,1C956.2,495.2,956.8,495,957.1,494.6z"/>
	<path d="M965.5,496.8v-8.7h2.8v1.1c0.6-0.7,1.7-1.3,2.7-1.3v2.7c-0.2,0-0.4-0.1-0.7-0.1c-0.7,0-1.7,0.3-2,0.8v5.5H965.5z"/>
	<path d="M981,496.8V496c-0.5,0.6-1.6,1.1-2.7,1.1c-1.3,0-3-0.9-3-2.9c0-2.1,1.7-2.8,3-2.8c1.2,0,2.2,0.4,2.7,1v-1
		c0-0.8-0.6-1.3-1.8-1.3c-0.9,0-1.8,0.3-2.5,0.9l-1-1.7c1.1-1,2.6-1.4,3.9-1.4c2.1,0,4.1,0.8,4.1,3.5v5.4H981z M981,494.6v-0.8
		c-0.3-0.4-0.9-0.6-1.5-0.6c-0.7,0-1.4,0.3-1.4,1c0,0.7,0.6,1,1.4,1C980,495.2,980.7,495,981,494.6z"/>
	<path d="M140.1,553.8v-9.3h-3.4v-2.7h9.8v2.7h-3.3v9.3H140.1z"/>
	<path d="M159.7,553.8V549h-5v4.8h-3.1v-12h3.1v4.5h5v-4.5h3.1v12H159.7z"/>
	<path d="M171.2,553.8v-9.3h-3.4v-2.7h9.8v2.7h-3.3v9.3H171.2z"/>
	<path d="M275.3,551.3c-1,0-1.9-0.8-1.9-1.8c0-1,0.8-1.9,1.9-1.9s1.9,0.8,1.9,1.9C277.2,550.5,276.3,551.3,275.3,551.3z"/>
	<path d="M383.2,553.8l-2.9-10.3l-2.9,10.3h-1.2l-3.4-12h1.2l2.9,10.6l3-10.6h0.9l2.9,10.6l2.9-10.6h1.2l-3.4,12H383.2z"/>
	<path d="M393.2,553.8v-12h7.6v0.9h-6.6v4.4h6.5v0.9h-6.5v5.7H393.2z"/>
	<path d="M406.6,553.8v-12h4.9c2,0,3.3,1.2,3.3,3.1c0,1.5-1,2.5-2.1,2.8c1.3,0.2,2.3,1.5,2.3,3c0,2-1.3,3.2-3.4,3.2H406.6z
		 M413.8,545c0-1.2-0.8-2.2-2.4-2.2h-3.8v4.4h3.8C412.9,547.2,413.8,546.2,413.8,545z M414,550.5c0-1.2-0.8-2.4-2.5-2.4h-3.9v4.8
		h3.9C413.1,552.9,414,552,414,550.5z"/>
	<path d="M429.9,553.8l-1.2-3h-6.4l-1.2,3H420l4.9-12h1.3l4.9,12H429.9z M425.6,542.9l-2.8,7h5.7L425.6,542.9z"/>
	<path d="M528.6,551.3c-1,0-1.9-0.8-1.9-1.8c0-1,0.8-1.9,1.9-1.9s1.9,0.8,1.9,1.9C530.5,550.5,529.7,551.3,528.6,551.3z"/>
	<path d="M626.8,553.8v-0.9l7.2-10.2h-7.2v-0.9h8.5v0.9l-7.2,10.2h7.4v0.9H626.8z"/>
	<path d="M640.9,549.5c0-2.5,1.8-4.6,4.2-4.6c2.6,0,4.1,2.1,4.1,4.6v0.3h-7.3c0.1,1.9,1.4,3.5,3.4,3.5c1.1,0,2.1-0.4,2.8-1.2
		l0.5,0.6c-0.9,0.9-2,1.4-3.4,1.4C642.7,554.1,640.9,552.2,640.9,549.5z M645,545.7c-2.1,0-3.1,1.8-3.2,3.3h6.3
		C648.2,547.6,647.2,545.7,645,545.7z"/>
	<path d="M655.2,553.8v-8.7h0.9v1.5c0.7-1,1.7-1.7,2.9-1.7v1c-0.2,0-0.3,0-0.5,0c-0.9,0-2.1,0.8-2.5,1.5v6.3H655.2z"/>
	<path d="M664,549.5c0-2.5,1.6-4.6,4.2-4.6c2.6,0,4.2,2,4.2,4.6s-1.6,4.6-4.2,4.6C665.6,554.1,664,552,664,549.5z M671.3,549.5
		c0-1.9-1.1-3.7-3.2-3.7c-2,0-3.2,1.8-3.2,3.7c0,1.9,1.2,3.7,3.2,3.7C670.2,553.2,671.3,551.4,671.3,549.5z"/>
	<path d="M770.5,551.3c-1,0-1.9-0.8-1.9-1.8c0-1,0.8-1.9,1.9-1.9s1.9,0.8,1.9,1.9C772.4,550.5,771.6,551.3,770.5,551.3z"/>
	<path d="M868.7,553.8v-0.9l7.2-10.2h-7.2v-0.9h8.5v0.9l-7.2,10.2h7.4v0.9H868.7z"/>
	<path d="M889.1,553.8v-1.3c-0.7,0.8-1.9,1.5-3.1,1.5c-1.8,0-2.7-0.8-2.7-2.8v-6.1h0.9v5.9c0,1.7,0.8,2.2,2.1,2.2
		c1.1,0,2.3-0.7,2.8-1.4v-6.6h0.9v8.7H889.1z"/>
	<path d="M896.3,543.1c0-0.4,0.3-0.7,0.7-0.7c0.4,0,0.7,0.3,0.7,0.7s-0.3,0.7-0.7,0.7C896.7,543.8,896.3,543.5,896.3,543.1z
		 M896.6,553.8v-8.7h0.9v8.7H896.6z"/>
	<path d="M910.5,553.8v-1.4c-0.6,0.9-1.7,1.6-3,1.6c-2.3,0-3.9-1.8-3.9-4.6c0-2.8,1.6-4.6,3.9-4.6c1.2,0,2.3,0.6,3,1.6v-4.7h1v12
		H910.5z M910.5,551.7v-4.3c-0.5-0.8-1.6-1.6-2.9-1.6c-1.9,0-3,1.6-3,3.7c0,2.1,1.1,3.7,3,3.7C908.8,553.2,909.9,552.5,910.5,551.7z
		"/>
	<path d="M917.4,549.5c0-2.5,1.8-4.6,4.2-4.6c2.6,0,4.1,2.1,4.1,4.6v0.3h-7.3c0.1,1.9,1.4,3.5,3.4,3.5c1.1,0,2.1-0.4,2.8-1.2
		l0.5,0.6c-0.9,0.9-2,1.4-3.4,1.4C919.2,554.1,917.4,552.2,917.4,549.5z M921.6,545.7c-2.1,0-3.1,1.8-3.2,3.3h6.3
		C924.7,547.6,923.8,545.7,921.6,545.7z"/>
	<path d="M931.7,553.8v-8.7h0.9v1.5c0.7-1,1.7-1.7,2.9-1.7v1c-0.2,0-0.3,0-0.5,0c-0.9,0-2.1,0.8-2.5,1.5v6.3H931.7z"/>
	<path d="M942,552.4v4.7H941v-12h0.9v1.4c0.6-0.9,1.7-1.6,3-1.6c2.3,0,3.9,1.8,3.9,4.6c0,2.8-1.6,4.6-3.9,4.6
		C943.8,554.1,942.7,553.4,942,552.4z M947.9,549.5c0-2.1-1.1-3.7-3-3.7c-1.2,0-2.4,0.7-2.9,1.5v4.3c0.5,0.8,1.7,1.6,2.9,1.6
		C946.8,553.2,947.9,551.6,947.9,549.5z"/>
	<path d="M960.4,553.8v-1c-0.8,0.8-1.7,1.2-3,1.2c-1.5,0-3-1-3-2.9c0-1.9,1.5-2.9,3-2.9c1.2,0,2.2,0.4,3,1.2v-1.8c0-1.3-1-2-2.3-2
		c-1.1,0-1.9,0.4-2.7,1.3l-0.5-0.6c0.9-1,1.9-1.5,3.3-1.5c1.8,0,3.2,0.8,3.2,2.8v6.1H960.4z M960.4,552.1v-1.9
		c-0.6-0.8-1.6-1.2-2.6-1.2c-1.4,0-2.4,0.9-2.4,2.2c0,1.2,0.9,2.1,2.4,2.1C958.8,553.3,959.8,552.9,960.4,552.1z"/>
	<path d="M967.8,553.8v-8.7h0.9v1.5c0.7-1,1.7-1.7,2.9-1.7v1c-0.2,0-0.3,0-0.5,0c-0.9,0-2.1,0.8-2.5,1.5v6.3H967.8z"/>
	<path d="M983.2,553.8l-3.5-4.1l-1.6,1.5v2.6h-0.9v-12h0.9v8.3l5.1-5h1.2l-4.1,3.9l4,4.8H983.2z"/>
</g>
<path fill="none" stroke="#000000" stroke-width="0.763" d="M560.5,472.7"/>
<path fill="none" stroke="#000000" stroke-width="0.763" d="M560.5,472.7"/>
<linearGradient id="SVGID_1_" gradientUnits="userSpaceOnUse" x1="560.5334" y1="50.8046" x2="560.5334" y2="50.8046">
	<stop  offset="0" style="stop-color:#EAFF00"/>
	<stop  offset="0.2033" style="stop-color:#EAFF00"/>
	<stop  offset="0.73" style="stop-color:#A2FC59"/>
	<stop  offset="1" style="stop-color:#57F866"/>
</linearGradient>
<path fill="none" stroke="url(#SVGID_1_)" stroke-width="15" stroke-miterlimit="10" d="M560.5,50.8"/>
<linearGradient id="SVGID_2_" gradientUnits="userSpaceOnUse" x1="560.5334" y1="343.7786" x2="560.5334" y2="343.7786">
	<stop  offset="0" style="stop-color:#EAFF00"/>
	<stop  offset="0.2033" style="stop-color:#EAFF00"/>
	<stop  offset="0.73" style="stop-color:#A2FC59"/>
	<stop  offset="1" style="stop-color:#57F866"/>
</linearGradient>
<path fill="none" stroke="url(#SVGID_2_)" stroke-width="15" stroke-miterlimit="10" d="M560.5,343.8"/>
<linearGradient id="SVGID_3_" gradientUnits="userSpaceOnUse" x1="560.5334" y1="636.7526" x2="560.5334" y2="636.7526">
	<stop  offset="0" style="stop-color:#EAFF00"/>
	<stop  offset="0.2033" style="stop-color:#EAFF00"/>
	<stop  offset="0.73" style="stop-color:#A2FC59"/>
	<stop  offset="1" style="stop-color:#57F866"/>
</linearGradient>
<path fill="none" stroke="url(#SVGID_3_)" stroke-width="15" stroke-miterlimit="10" d="M560.5,636.8"/>
<linearGradient id="SVGID_4_" gradientUnits="userSpaceOnUse" x1="560.5334" y1="343.7786" x2="560.5334" y2="343.7786">
	<stop  offset="0" style="stop-color:#EAFF00"/>
	<stop  offset="0.2033" style="stop-color:#EAFF00"/>
	<stop  offset="0.73" style="stop-color:#A2FC59"/>
	<stop  offset="1" style="stop-color:#57F866"/>
</linearGradient>
<path fill="none" stroke="url(#SVGID_4_)" stroke-width="15" stroke-miterlimit="10" d="M560.5,343.8"/>
<g>
	<polygon points="556,171.8 568.4,180.8 565.1,184 557.6,177.2 	"/>
	<polygon points="546.9,203.7 541.7,208.1 543.2,130.1 546.9,137.2 	"/>
	<polygon points="578.4,178.3 554.8,157 554.8,152.3 583.9,174 	"/>
	<polygon points="578.6,196.2 537.2,228.5 537.2,225.2 574.8,192.1 	"/>
	<polygon points="554.8,170.9 558.2,173.4 558.3,190.8 554.9,194.1 	"/>
	<polygon points="578.5,178.2 554.8,197 554.9,194 574.6,174.3 	"/>
	<polygon points="578.5,196.3 565.8,184.6 568.2,180.7 583.7,192.4 	"/>
</g>
</svg>
