<?xml version="1.0" encoding="utf-8"?>
<!-- Generator: Adobe Illustrator 18.0.0, SVG Export Plug-In . SVG Version: 6.00 Build 0)  -->
<!DOCTYPE svg PUBLIC "-//W3C//DTD SVG 1.1//EN" "http://www.w3.org/Graphics/SVG/1.1/DTD/svg11.dtd">
<svg version="1.1" id="START" xmlns="http://www.w3.org/2000/svg" xmlns:xlink="http://www.w3.org/1999/xlink" x="0px" y="0px"
	 viewBox="135.3 -11.4 850.4 708.7" enable-background="new 135.3 -11.4 850.4 708.7" xml:space="preserve">
<ellipse fill="none" stroke="#FFFFFF" stroke-width="15" stroke-miterlimit="10" cx="560.5" cy="341.4" rx="286.3" ry="293"/>
<g>
	<path d="M148.6,329.8l-0.8-2.3h-6.3l-0.8,2.3h-4.7l6-16h5.2l6,16H148.6z M144.7,317.9l-2,6h4.1L144.7,317.9z"/>
	<path d="M167,329.8v-1.3c-1,1.1-2.1,1.6-3.4,1.6c-2.9,0-5.1-2.2-5.1-6.1c0-3.8,2.2-6.1,5.1-6.1c1.3,0,2.5,0.5,3.4,1.7v-5.8h3.7v16
		H167z M167,325.8v-3.6c-0.5-0.6-1.4-1-2.2-1c-1.5,0-2.5,1.1-2.5,2.8s1.1,2.8,2.5,2.8C165.6,326.9,166.5,326.4,167,325.8z"/>
	<path d="M177.9,315.1c0-1.2,0.9-2.1,2.1-2.1s2.1,0.9,2.1,2.1c0,1.2-0.9,2.1-2.1,2.1S177.9,316.3,177.9,315.1z M178.2,329.8v-11.6
		h3.7v11.6H178.2z"/>
	<path d="M197.2,329.8v-1.3c-1,1.1-2.1,1.6-3.4,1.6c-2.9,0-5.1-2.2-5.1-6.1c0-3.8,2.2-6.1,5.1-6.1c1.3,0,2.5,0.5,3.4,1.7v-5.8h3.7
		v16H197.2z M197.2,325.8v-3.6c-0.5-0.6-1.4-1-2.2-1c-1.5,0-2.5,1.1-2.5,2.8s1.1,2.8,2.5,2.8C195.7,326.9,196.7,326.4,197.2,325.8z"
		/>
	<path d="M215.2,329.8v-1.2c-0.7,0.9-2.1,1.4-3.6,1.4c-1.8,0-4-1.2-4-3.8c0-2.8,2.2-3.7,4-3.7c1.5,0,2.9,0.5,3.6,1.3v-1.4
		c0-1-0.9-1.7-2.4-1.7c-1.2,0-2.4,0.4-3.3,1.2l-1.3-2.3c1.5-1.3,3.5-1.8,5.3-1.8c2.8,0,5.4,1,5.4,4.6v7.2H215.2z M215.2,326.9v-1
		c-0.4-0.5-1.2-0.8-2.1-0.8c-1,0-1.8,0.4-1.8,1.3s0.9,1.3,1.8,1.3C213.9,327.7,214.8,327.4,215.2,326.9z"/>
	<path d="M225.4,328.4l1.5-2.5c0.9,0.8,2.7,1.5,4.1,1.5c1.1,0,1.6-0.4,1.6-0.9c0-1.5-6.7,0-6.7-4.7c0-2,1.8-3.8,5-3.8
		c1.9,0,3.6,0.6,4.8,1.5l-1.4,2.4c-0.7-0.7-2-1.3-3.4-1.3c-0.9,0-1.5,0.4-1.5,0.8c0,1.3,6.7,0,6.7,4.8c0,2.2-1.9,3.8-5.3,3.8
		C228.8,330.1,226.6,329.4,225.4,328.4z"/>
	<path d="M266.2,326.5c-1.4,0-2.5-1.1-2.5-2.4c0-1.4,1.1-2.5,2.5-2.5s2.5,1.1,2.5,2.5C268.6,325.4,267.5,326.5,266.2,326.5z"/>
	<path d="M309.2,329.8l-1.6-3.9h-8.5l-1.6,3.9H296l6.6-16h1.7l6.6,16H309.2z M303.4,315.3l-3.8,9.4h7.6L303.4,315.3z"/>
	<path d="M316.7,324.6v-1.2h5.8v1.2H316.7z"/>
	<path d="M329.3,321.9c0-4.7,3.1-8.3,7.8-8.3c4.7,0,7.8,3.6,7.8,8.3c0,4.7-3.1,8.3-7.8,8.3C332.4,330.1,329.3,326.5,329.3,321.9z
		 M343.5,321.9c0-4.1-2.5-7-6.3-7c-3.9,0-6.3,3-6.3,7c0,4,2.4,7,6.3,7C341,328.9,343.5,325.9,343.5,321.9z"/>
	<path d="M360.9,329.8V322c0-2.2-1.1-2.9-2.8-2.9c-1.5,0-3,0.9-3.8,2v8.8H353v-11.6h1.2v1.8c0.8-1,2.5-2,4.2-2
		c2.4,0,3.6,1.2,3.6,3.8v8.1H360.9z"/>
	<path d="M370.1,324c0-3.4,2.4-6.1,5.6-6.1c3.5,0,5.5,2.8,5.5,6.1v0.3h-9.7c0.1,2.5,1.8,4.6,4.5,4.6c1.5,0,2.8-0.6,3.8-1.6l0.6,0.8
		c-1.2,1.2-2.6,1.9-4.5,1.9C372.5,330.1,370.1,327.6,370.1,324z M375.7,319c-2.7,0-4.1,2.4-4.2,4.4h8.4
		C379.9,321.5,378.6,319,375.7,319z"/>
	<path d="M412,326.5c-1.4,0-2.5-1.1-2.5-2.4c0-1.4,1.1-2.5,2.5-2.5s2.5,1.1,2.5,2.5C414.4,325.4,413.3,326.5,412,326.5z"/>
	<path d="M453.7,329.8l-0.8-2.3h-6.3l-0.8,2.3h-4.7l6-16h5.2l6,16H453.7z M449.8,317.9l-2,6h4.1L449.8,317.9z"/>
	<path d="M468,328.5v5.8h-3.7v-16h3.7v1.3c0.9-1.1,2.1-1.6,3.4-1.6c2.9,0,5.1,2.2,5.1,6.1c0,3.9-2.2,6.1-5.1,6.1
		C470.1,330.1,468.9,329.6,468,328.5z M472.7,324c0-1.7-1.1-2.8-2.5-2.8c-0.8,0-1.8,0.4-2.2,1.1v3.5c0.5,0.6,1.4,1.1,2.2,1.1
		C471.6,326.9,472.7,325.8,472.7,324z"/>
	<path d="M486.9,328.5v5.8h-3.7v-16h3.7v1.3c0.9-1.1,2.1-1.6,3.4-1.6c2.9,0,5.1,2.2,5.1,6.1c0,3.9-2.2,6.1-5.1,6.1
		C489.1,330.1,487.9,329.6,486.9,328.5z M491.7,324c0-1.7-1.1-2.8-2.5-2.8c-0.8,0-1.8,0.4-2.2,1.1v3.5c0.5,0.6,1.4,1.1,2.2,1.1
		C490.6,326.9,491.7,325.8,491.7,324z"/>
	<path d="M502.2,329.8v-16h3.7v16H502.2z"/>
	<path d="M512.6,324c0-3.4,2.5-6.1,6.2-6.1c3.4,0,5.9,2.5,5.9,6.5v0.8h-8.3c0.2,1.1,1.2,2.1,2.9,2.1c0.8,0,2.2-0.4,2.9-1l1.6,2.3
		c-1.2,1-3.1,1.5-4.8,1.5C515.3,330.1,512.6,327.8,512.6,324z M518.7,320.8c-1.6,0-2.2,1.2-2.4,2h4.8
		C521.1,322,520.5,320.8,518.7,320.8z"/>
	<path d="M554.7,326.5c-1.4,0-2.5-1.1-2.5-2.4c0-1.4,1.1-2.5,2.5-2.5s2.5,1.1,2.5,2.5C557.1,325.4,556,326.5,554.7,326.5z"/>
	<path d="M597.7,329.8l-1.6-3.9h-8.5l-1.6,3.9h-1.6l6.6-16h1.7l6.6,16H597.7z M591.9,315.3l-3.8,9.4h7.6L591.9,315.3z"/>
	<path d="M605.4,328.3l0.7-0.9c0.7,0.9,2.1,1.7,3.7,1.7c1.9,0,3.1-1,3.1-2.4c0-3.2-7.3-1.4-7.3-5.5c0-1.8,1.5-3.2,4.1-3.2
		c2,0,3.3,0.8,4.2,1.7l-0.7,0.9c-0.7-0.9-1.9-1.5-3.5-1.5c-1.8,0-2.9,0.9-2.9,2.1c0,2.9,7.3,1.1,7.3,5.6c0,1.9-1.4,3.4-4.3,3.4
		C608,330.1,606.5,329.6,605.4,328.3z"/>
	<path d="M630,329.8v-1.7c-1,1.1-2.5,2-4.2,2c-2.4,0-3.6-1.1-3.6-3.7v-8.2h1.2v7.9c0,2.3,1.1,2.9,2.8,2.9c1.5,0,3-0.9,3.8-1.9v-8.8
		h1.2v11.6H630z"/>
	<path d="M639,328.3l0.7-0.9c0.7,0.9,2.1,1.7,3.7,1.7c1.9,0,3.1-1,3.1-2.4c0-3.2-7.3-1.4-7.3-5.5c0-1.8,1.5-3.2,4.1-3.2
		c2,0,3.3,0.8,4.2,1.7l-0.7,0.9c-0.7-0.9-1.9-1.5-3.5-1.5c-1.8,0-2.9,0.9-2.9,2.1c0,2.9,7.3,1.1,7.3,5.6c0,1.9-1.4,3.4-4.3,3.4
		C641.6,330.1,640.1,329.6,639,328.3z"/>
	<path d="M678.6,326.5c-1.4,0-2.5-1.1-2.5-2.4c0-1.4,1.1-2.5,2.5-2.5s2.5,1.1,2.5,2.5C681,325.4,679.9,326.5,678.6,326.5z"/>
	<path d="M710,329.8v-16h6.6c2.7,0,4.4,1.6,4.4,4.1c0,2-1.4,3.4-2.8,3.7c1.7,0.3,3.1,2,3.1,3.9c0,2.7-1.7,4.3-4.6,4.3H710z
		 M719.6,318.1c0-1.6-1.1-3-3.1-3h-5v5.9h5C718.5,321,719.6,319.7,719.6,318.1z M719.9,325.4c0-1.6-1.1-3.2-3.4-3.2h-5.1v6.3h5.1
		C718.6,328.6,719.9,327.4,719.9,325.4z"/>
	<path d="M736.9,329.8v-1.4c-1,1.1-2.3,1.7-3.9,1.7c-2,0-4.1-1.4-4.1-3.9c0-2.5,2-3.8,4.1-3.8c1.6,0,2.9,0.5,3.9,1.7v-2.4
		c0-1.7-1.4-2.7-3.1-2.7c-1.4,0-2.6,0.5-3.6,1.7l-0.7-0.9c1.2-1.3,2.5-1.9,4.5-1.9c2.4,0,4.2,1.1,4.2,3.7v8.2H736.9z M736.9,327.6
		V325c-0.8-1.1-2.1-1.6-3.5-1.6c-1.9,0-3.2,1.2-3.2,2.9c0,1.6,1.2,2.9,3.2,2.9C734.8,329.2,736,328.6,736.9,327.6z"/>
	<path d="M746.8,329.8v-16h1.2v16H746.8z"/>
	<path d="M756.7,329.8v-16h1.2v16H756.7z"/>
	<path d="M774,329.8v-1.4c-1,1.1-2.3,1.7-3.9,1.7c-2,0-4.1-1.4-4.1-3.9c0-2.5,2-3.8,4.1-3.8c1.6,0,2.9,0.5,3.9,1.7v-2.4
		c0-1.7-1.4-2.7-3.1-2.7c-1.4,0-2.6,0.5-3.6,1.7l-0.7-0.9c1.2-1.3,2.5-1.9,4.5-1.9c2.4,0,4.2,1.1,4.2,3.7v8.2H774z M774,327.6V325
		c-0.8-1.1-2.1-1.6-3.5-1.6c-1.9,0-3.2,1.2-3.2,2.9c0,1.6,1.2,2.9,3.2,2.9C771.9,329.2,773.2,328.6,774,327.6z"/>
	<path d="M791.8,329.8V322c0-2.2-1.1-2.9-2.8-2.9c-1.5,0-3,0.9-3.8,2v8.8H784v-16h1.2v6.2c0.8-1,2.5-2,4.2-2c2.4,0,3.6,1.1,3.6,3.7
		v8.2H791.8z"/>
	<path d="M801.1,324c0-3.4,2.2-6.1,5.6-6.1c3.4,0,5.6,2.7,5.6,6.1c0,3.4-2.2,6.1-5.6,6.1C803.2,330.1,801.1,327.4,801.1,324z
		 M810.9,324c0-2.6-1.5-4.9-4.2-4.9c-2.7,0-4.2,2.4-4.2,4.9c0,2.6,1.5,5,4.2,5C809.4,329,810.9,326.6,810.9,324z"/>
	<path d="M820.2,329.8v-16h1.2v16H820.2z"/>
	<path d="M829.8,315.5c0-0.5,0.5-0.9,1-0.9c0.5,0,1,0.4,1,0.9c0,0.5-0.4,1-1,1C830.3,316.4,829.8,316,829.8,315.5z M830.2,329.8
		v-11.6h1.2v11.6H830.2z"/>
	<path d="M847.8,329.8l-3.8-5.1l-3.9,5.1h-1.5l4.6-6l-4.3-5.6h1.5l3.6,4.8l3.6-4.8h1.5l-4.3,5.6l4.6,6H847.8z"/>
	<path d="M879.2,326.5c-1.4,0-2.5-1.1-2.5-2.4c0-1.4,1.1-2.5,2.5-2.5s2.5,1.1,2.5,2.5C881.6,325.4,880.5,326.5,879.2,326.5z"/>
	<path d="M910,321.9c0-4.9,3.6-8.3,8.1-8.3c2.5,0,4.5,1.1,5.8,2.8l-1.2,0.7c-1-1.4-2.8-2.3-4.7-2.3c-3.8,0-6.7,2.9-6.7,7
		c0,4.1,2.9,7,6.7,7c1.9,0,3.7-0.9,4.7-2.3l1.2,0.7c-1.4,1.8-3.3,2.9-5.8,2.9C913.6,330.1,910,326.8,910,321.9z"/>
	<path d="M930.8,324c0-3.4,2.4-6.1,5.6-6.1c3.5,0,5.5,2.8,5.5,6.1v0.3h-9.7c0.1,2.5,1.8,4.6,4.5,4.6c1.5,0,2.8-0.6,3.8-1.6l0.6,0.8
		c-1.2,1.2-2.6,1.9-4.5,1.9C933.3,330.1,930.8,327.6,930.8,324z M936.4,319c-2.7,0-4.1,2.4-4.2,4.4h8.4
		C940.6,321.5,939.3,319,936.4,319z"/>
	<path d="M957.7,329.8V322c0-2.2-1.1-2.9-2.8-2.9c-1.5,0-3,0.9-3.8,2v8.8h-1.2v-11.6h1.2v1.8c0.8-1,2.5-2,4.2-2
		c2.4,0,3.6,1.2,3.6,3.8v8.1H957.7z"/>
	<path d="M967.9,327.6v-8.3H966v-1.1h1.9v-3.2h1.3v3.2h2.4v1.1h-2.4v8.1c0,0.9,0.4,1.6,1.2,1.6c0.6,0,1-0.3,1.3-0.6l0.5,1
		c-0.5,0.4-1,0.7-2,0.7C968.7,330.1,967.9,329.2,967.9,327.6z"/>
	<path d="M979.1,329.8v-11.6h1.2v2c1-1.3,2.3-2.2,3.9-2.2v1.4c-0.2,0-0.4,0-0.6,0c-1.2,0-2.8,1.1-3.3,2.1v8.4H979.1z"/>
	<path d="M137.2,415.7c2,0,3.3-1,4-6.9l1-7.9h9v14.8h1.4v4.2h-1.4v-3h-12.7v3h-1.4V415.7z M139.9,415.6h10v-13.5h-6.4l-0.9,6.8
		C142.1,412.9,141.1,414.8,139.9,415.6z"/>
	<path d="M159.6,411c0-3.4,2.2-6.1,5.6-6.1c3.4,0,5.6,2.7,5.6,6.1c0,3.4-2.2,6.1-5.6,6.1C161.8,417.1,159.6,414.4,159.6,411z
		 M169.4,411c0-2.6-1.5-4.9-4.2-4.9c-2.7,0-4.2,2.4-4.2,4.9c0,2.6,1.5,5,4.2,5C167.9,416,169.4,413.6,169.4,411z"/>
	<path d="M177.3,416.8l5.4-6.4l-5.4-5.2h1.7l5.6,5.5v-5.5h1.3v5.5l5.6-5.5h1.7l-5.4,5.2l5.4,6.4h-1.7l-4.6-5.5l-1,0.9v4.6h-1.3v-4.6
		l-0.9-0.9l-4.6,5.5H177.3z"/>
	<path d="M198.8,415.8c1.1-0.1,1.9-1.1,2.4-4.8l0.8-5.8h7.4v10.5h1.4v4.1h-1.2v-3H200v3h-1.3V415.8z M202.4,411.2
		c-0.4,2.6-0.9,3.9-1.8,4.5h7.5v-9.4h-5L202.4,411.2z"/>
	<path d="M219.6,405.3v4.7h4.5c2.3,0,3.5,1.6,3.5,3.4c0,1.8-1.2,3.4-3.5,3.4h-5.8v-11.6H219.6z M219.6,411.1v4.6h4.4
		c1.5,0,2.3-1,2.3-2.3c0-1.3-0.8-2.3-2.3-2.3H219.6z"/>
	<path d="M247.3,413.5c-1.4,0-2.5-1.1-2.5-2.4c0-1.4,1.1-2.5,2.5-2.5s2.5,1.1,2.5,2.5C249.8,412.4,248.7,413.5,247.3,413.5z"/>
	<path d="M267.3,416.8v-16h11.7v3.6h-7.6v2.5h7.4v3.6h-7.4v6.3H267.3z"/>
	<path d="M286.1,416.8v-16h4.1v16H286.1z"/>
	<path d="M297.9,416.8v-16h9.1c3.2,0,4.7,2.1,4.7,4.1c0,2-1.2,3.3-2.7,3.7c1.7,0.3,3,1.9,3,3.9c0,2.3-1.6,4.3-4.7,4.3H297.9z
		 M307.5,405.6c0-0.8-0.6-1.3-1.4-1.3h-4v2.7h4C306.9,407,307.5,406.4,307.5,405.6z M307.8,411.9c0-0.8-0.6-1.4-1.6-1.4H302v2.9h4.2
		C307.2,413.4,307.8,412.8,307.8,411.9z"/>
	<path d="M329.9,416.8l-0.8-2.3h-6.3l-0.8,2.3h-4.7l6-16h5.2l6,16H329.9z M326,404.9l-2,6h4.1L326,404.9z"/>
	<path d="M353,413.5c-1.4,0-2.5-1.1-2.5-2.4c0-1.4,1.1-2.5,2.5-2.5s2.5,1.1,2.5,2.5C355.5,412.4,354.4,413.5,353,413.5z"/>
	<path d="M373.6,416.8v-16h10.2v1.2H375v5.9h8.6v1.2H375v7.6H373.6z"/>
	<path d="M399.2,416.8v-1.7c-1,1.1-2.5,2-4.2,2c-2.4,0-3.6-1.1-3.6-3.7v-8.2h1.2v7.9c0,2.3,1.1,2.9,2.8,2.9c1.5,0,3-0.9,3.8-1.9
		v-8.8h1.2v11.6H399.2z"/>
	<path d="M417,416.8V409c0-2.2-1.1-2.9-2.8-2.9c-1.5,0-3,0.9-3.8,2v8.8h-1.2v-11.6h1.2v1.8c0.8-1,2.5-2,4.2-2c2.4,0,3.6,1.2,3.6,3.8
		v8.1H417z"/>
	<path d="M426.9,416.8v-16h1.2v6.3c0.9-1.3,2.4-2.2,4-2.2c3.1,0,5.2,2.4,5.2,6.1c0,3.7-2.1,6.1-5.2,6.1c-1.7,0-3.2-0.9-4-2.1v1.8
		H426.9z M432,416c2.6,0,4.1-2.1,4.1-4.9c0-2.8-1.5-5-4.1-5c-1.6,0-3.1,1-3.8,2.1v5.7C428.8,415,430.3,416,432,416z"/>
	<path d="M444.7,411c0-3.4,2.2-6.1,5.6-6.1c3.4,0,5.6,2.7,5.6,6.1c0,3.4-2.2,6.1-5.6,6.1C446.9,417.1,444.7,414.4,444.7,411z
		 M454.5,411c0-2.6-1.5-4.9-4.2-4.9c-2.7,0-4.2,2.4-4.2,4.9c0,2.6,1.5,5,4.2,5C453,416,454.5,413.6,454.5,411z"/>
	<path d="M471.6,416.8l-3.8-5.1l-3.9,5.1h-1.5l4.6-6l-4.3-5.6h1.5l3.6,4.8l3.6-4.8h1.5l-4.3,5.6l4.6,6H471.6z"/>
	<path d="M492.1,413.5c-1.4,0-2.5-1.1-2.5-2.4c0-1.4,1.1-2.5,2.5-2.5s2.5,1.1,2.5,2.5C494.6,412.4,493.5,413.5,492.1,413.5z"/>
	<path d="M512.1,408.9c0-4.9,3.6-8.3,8.1-8.3c2.6,0,4.6,1.1,6,2.7l-1,0.7c-1.1-1.3-3-2.2-5-2.2c-3.8,0-6.7,2.9-6.7,7
		c0,4.1,2.9,7.1,6.7,7.1c2.1,0,3.8-1.1,4.7-1.9v-3.8h-6v-1.2h7.4v5.6c-1.4,1.6-3.6,2.7-6.1,2.7C515.8,417.2,512.1,413.8,512.1,408.9
		z"/>
	<path d="M542.4,416.8v-1.7c-1,1.1-2.5,2-4.2,2c-2.4,0-3.6-1.1-3.6-3.7v-8.2h1.2v7.9c0,2.3,1.1,2.9,2.8,2.9c1.5,0,3-0.9,3.8-1.9
		v-8.8h1.2v11.6H542.4z"/>
	<path d="M552.3,416.8v-11.6h1.2v2c1-1.3,2.3-2.2,3.9-2.2v1.4c-0.2,0-0.4,0-0.6,0c-1.2,0-2.8,1.1-3.3,2.1v8.4H552.3z"/>
	<path d="M578.5,416.8v-8.1c0-1.6-0.7-2.6-2.3-2.6c-1.2,0-2.7,0.9-3.3,2v8.8h-1.3v-8.1c0-1.6-0.7-2.6-2.3-2.6c-1.2,0-2.6,0.9-3.3,2
		v8.8h-1.2v-11.6h1.2v1.8c0.5-0.7,2.1-2,3.7-2c1.8,0,2.8,1.1,3,2.2c0.6-1.1,2.2-2.2,3.8-2.2c2.1,0,3.2,1.2,3.2,3.5v8.4H578.5z"/>
	<path d="M587.8,411c0-3.4,2.4-6.1,5.6-6.1c3.5,0,5.5,2.8,5.5,6.1v0.3h-9.7c0.1,2.5,1.8,4.6,4.5,4.6c1.5,0,2.8-0.6,3.8-1.6l0.6,0.8
		c-1.2,1.2-2.6,1.9-4.5,1.9C590.2,417.1,587.8,414.6,587.8,411z M593.4,406c-2.7,0-4.1,2.4-4.2,4.4h8.4
		C597.6,408.5,596.3,406,593.4,406z"/>
	<path d="M618.8,413.5c-1.4,0-2.5-1.1-2.5-2.4c0-1.4,1.1-2.5,2.5-2.5s2.5,1.1,2.5,2.5C621.3,412.4,620.2,413.5,618.8,413.5z"/>
	<path d="M649.1,416.8l-6.6-7.5l-1.8,1.9v5.6h-1.4v-16h1.4v8.8l7.7-8.8h1.8l-6.8,7.6l7.5,8.4H649.1z"/>
	<path d="M657.9,402.5c0-0.5,0.5-0.9,1-0.9c0.5,0,1,0.4,1,0.9c0,0.5-0.4,1-1,1C658.3,403.4,657.9,403,657.9,402.5z M658.2,416.8
		v-11.6h1.2v11.6H658.2z"/>
	<path d="M675.5,416.8v-1.4c-1,1.1-2.3,1.7-3.9,1.7c-2,0-4.1-1.4-4.1-3.9c0-2.5,2-3.8,4.1-3.8c1.6,0,2.9,0.5,3.9,1.7v-2.4
		c0-1.7-1.4-2.7-3.1-2.7c-1.4,0-2.6,0.5-3.6,1.7l-0.7-0.9c1.2-1.3,2.5-1.9,4.5-1.9c2.4,0,4.2,1.1,4.2,3.7v8.2H675.5z M675.5,414.6
		V412c-0.8-1.1-2.1-1.6-3.5-1.6c-1.9,0-3.2,1.2-3.2,2.9c0,1.6,1.2,2.9,3.2,2.9C673.4,416.2,674.7,415.6,675.5,414.6z"/>
	<path d="M697.4,413.5c-1.4,0-2.5-1.1-2.5-2.4c0-1.4,1.1-2.5,2.5-2.5s2.5,1.1,2.5,2.5C699.9,412.4,698.8,413.5,697.4,413.5z"/>
	<path d="M716.6,413.5c1.5,0,2.4-0.9,2.9-4.5l1-8.1h11.9v16h-4.1v-12.4h-4.1l-0.6,4.8c-0.8,6.5-3.5,7.9-7,7.9V413.5z"/>
	<path d="M739.2,411c0-3.4,2.5-6.1,6.2-6.1c3.4,0,5.9,2.5,5.9,6.5v0.8H743c0.2,1.1,1.2,2.1,2.9,2.1c0.8,0,2.2-0.4,2.9-1l1.6,2.3
		c-1.2,1-3.1,1.5-4.8,1.5C741.9,417.1,739.2,414.8,739.2,411z M745.3,407.8c-1.6,0-2.2,1.2-2.4,2h4.8
		C747.6,409,747,407.8,745.3,407.8z"/>
	<path d="M757.9,416.8v-11.6h3.7v4h4.2v-4h3.7v11.6h-3.7v-4.4h-4.2v4.4H757.9z"/>
	<path d="M776.9,416.8v-11.6h3.7v6.1l4.1-6.1h3.7v11.6h-3.7v-6.4l-4.3,6.4H776.9z"/>
	<path d="M795.9,416.8v-11.6h3.7v4h4.2v-4h3.7v11.6h-3.7v-4.4h-4.2v4.4H795.9z"/>
	<path d="M824.2,408.5h-5.5v8.4H815v-11.6h9.2V408.5z"/>
	<path d="M834.4,415.5v5.8h-3.7v-16h3.7v1.3c0.9-1.1,2.1-1.6,3.4-1.6c2.9,0,5.1,2.2,5.1,6.1c0,3.9-2.2,6.1-5.1,6.1
		C836.5,417.1,835.4,416.6,834.4,415.5z M839.1,411c0-1.7-1.1-2.8-2.5-2.8c-0.8,0-1.8,0.4-2.2,1.1v3.5c0.5,0.6,1.4,1.1,2.2,1.1
		C838,413.9,839.1,412.8,839.1,411z"/>
	<path d="M856.5,416.8v-1.2c-0.7,0.9-2.1,1.4-3.6,1.4c-1.8,0-4-1.2-4-3.8c0-2.8,2.2-3.7,4-3.7c1.5,0,2.9,0.5,3.6,1.3v-1.4
		c0-1-0.9-1.7-2.4-1.7c-1.2,0-2.4,0.4-3.3,1.2l-1.3-2.3c1.5-1.3,3.5-1.8,5.3-1.8c2.8,0,5.4,1,5.4,4.6v7.2H856.5z M856.5,413.9v-1
		c-0.4-0.5-1.2-0.8-2.1-0.8c-1,0-1.8,0.4-1.8,1.3s0.9,1.3,1.8,1.3C855.2,414.7,856.1,414.4,856.5,413.9z"/>
	<path d="M866.7,413.8c0.9-0.1,1.4-0.4,1.8-3l0.8-5.6h9.9v8.4h1.3v6.2h-3.7v-3h-6.3v3h-3.7V413.8z M872.2,410.9
		c-0.1,1.2-0.5,2.1-1.1,2.7h4.5v-5.2h-3L872.2,410.9z"/>
	<path d="M908.8,416.8h-12.2v-16h4.1v12.4h6.6v-12.4h4.1v12.4h1.4v6.6h-4.2V416.8z"/>
	<path d="M918.6,411c0-3.4,2.5-6.1,6.2-6.1c3.4,0,5.9,2.5,5.9,6.5v0.8h-8.3c0.2,1.1,1.2,2.1,2.9,2.1c0.8,0,2.2-0.4,2.9-1l1.6,2.3
		c-1.2,1-3.1,1.5-4.8,1.5C921.4,417.1,918.6,414.8,918.6,411z M924.8,407.8c-1.6,0-2.2,1.2-2.4,2h4.8
		C927.1,409,926.5,407.8,924.8,407.8z"/>
	<path d="M937.3,416.8v-11.6h3.7v4h4.2v-4h3.7v11.6h-3.7v-4.4H941v4.4H937.3z"/>
	<path d="M958.6,416.8v-8.4h-3.2v-3.2h10v3.2h-3.1v8.4H958.6z"/>
	<path d="M975.6,415.5v5.8h-3.7v-16h3.7v1.3c0.9-1.1,2.1-1.6,3.4-1.6c2.9,0,5.1,2.2,5.1,6.1c0,3.9-2.2,6.1-5.1,6.1
		C977.8,417.1,976.6,416.6,975.6,415.5z M980.4,411c0-1.7-1.1-2.8-2.5-2.8c-0.8,0-1.8,0.4-2.2,1.1v3.5c0.5,0.6,1.4,1.1,2.2,1.1
		C979.3,413.9,980.4,412.8,980.4,411z"/>
	<path d="M138.3,503.8v-16h1.4v14.8h7.8v1.2H138.3z"/>
	<path d="M154.8,489.5c0-0.5,0.5-0.9,1-0.9c0.5,0,1,0.4,1,0.9c0,0.5-0.4,1-1,1C155.3,490.4,154.8,490,154.8,489.5z M155.2,503.8
		v-11.6h1.2v11.6H155.2z"/>
	<path d="M163.9,498.6v-1.2h5.8v1.2H163.9z"/>
	<path d="M188.6,503.8l-10.1-13.8v13.8h-1.4v-16h1.4l10,13.6v-13.6h1.4v16H188.6z"/>
	<path d="M198.3,489.5c0-0.5,0.5-0.9,1-0.9c0.5,0,1,0.4,1,0.9c0,0.5-0.4,1-1,1C198.8,490.4,198.3,490,198.3,489.5z M198.7,503.8
		v-11.6h1.2v11.6H198.7z"/>
	<path d="M216.4,503.8V496c0-2.2-1.1-2.9-2.8-2.9c-1.5,0-3,0.9-3.8,2v8.8h-1.2v-11.6h1.2v1.8c0.8-1,2.5-2,4.2-2
		c2.4,0,3.6,1.2,3.6,3.8v8.1H216.4z"/>
	<path d="M226.4,506.8l0.7-1c1,1.2,2.1,1.6,3.8,1.6c2.1,0,4-1.1,4-3.7v-1.8c-0.8,1.2-2.3,2.2-4,2.2c-3.1,0-5.2-2.3-5.2-6
		c0-3.7,2.1-6.1,5.2-6.1c1.7,0,3.1,0.8,4,2.2v-1.9h1.3v11.5c0,3.6-2.4,4.8-5.2,4.8C229,508.6,227.8,508.2,226.4,506.8z M234.9,500.8
		v-5.6c-0.7-1.1-2.2-2.1-3.8-2.1c-2.6,0-4.1,2.1-4.1,4.9s1.5,4.9,4.1,4.9C232.7,503,234.3,502,234.9,500.8z"/>
	<path d="M310.9,500.5c-1.4,0-2.5-1.1-2.5-2.4c0-1.4,1.1-2.5,2.5-2.5s2.5,1.1,2.5,2.5C313.3,499.4,312.2,500.5,310.9,500.5z"/>
	<path d="M399.1,503.8v-10.4l-4.1,10.4h-1.8l-4-10.4v10.4H385v-16h5.7l3.3,8.7l3.4-8.7h5.7v16H399.1z"/>
	<path d="M410.9,503.8v-16h11.7v3.6H415v2.5h7.4v3.6H415v2.7h7.6v3.6H410.9z"/>
	<path d="M433.6,492.6c0,1.8,1,2.4,2.6,2.4c1,0,1.9-0.2,2.7-0.5v-6.8h4.1v16h-4.1v-5.6c-1.1,0.3-2.1,0.4-3.3,0.4
		c-4.2,0-6.2-2.4-6.2-6v-4.8h4.2V492.6z"/>
	<path d="M517.2,500.5c-1.4,0-2.5-1.1-2.5-2.4c0-1.4,1.1-2.5,2.5-2.5s2.5,1.1,2.5,2.5C519.7,499.4,518.6,500.5,517.2,500.5z"/>
	<path d="M605.5,503.8v-14.1l-5.8,14.1h-0.5l-5.9-14.1v14.1h-1.4v-16h2l5.4,13.2l5.4-13.2h2.1v16H605.5z"/>
	<path d="M615.3,489.5c0-0.5,0.5-0.9,1-0.9c0.5,0,1,0.4,1,0.9c0,0.5-0.4,1-1,1C615.8,490.4,615.3,490,615.3,489.5z M615.6,503.8
		v-11.6h1.2v11.6H615.6z"/>
	<path d="M633.4,503.8V496c0-2.2-1.1-2.9-2.8-2.9c-1.5,0-3,0.9-3.8,2v8.8h-1.2v-11.6h1.2v1.8c0.8-1,2.5-2,4.2-2
		c2.4,0,3.6,1.2,3.6,3.8v8.1H633.4z"/>
	<path d="M642.3,502.3l0.7-0.9c0.7,0.9,2.1,1.7,3.7,1.7c1.9,0,3.1-1,3.1-2.4c0-3.2-7.3-1.4-7.3-5.5c0-1.8,1.5-3.2,4.1-3.2
		c2,0,3.3,0.8,4.2,1.7l-0.7,0.9c-0.7-0.9-1.9-1.5-3.5-1.5c-1.8,0-2.9,0.9-2.9,2.1c0,2.9,7.3,1.1,7.3,5.6c0,1.9-1.4,3.4-4.3,3.4
		C644.9,504.1,643.5,503.6,642.3,502.3z"/>
	<path d="M667.2,503.8l-4.6-5.5l-2.2,2v3.5h-1.2v-16h1.2v11l6.8-6.6h1.7l-5.4,5.2l5.4,6.4H667.2z"/>
	<path d="M738.9,501.6l0.9-1c1,1.2,2.7,2.3,5,2.3c3.3,0,4.2-1.8,4.2-3.2c0-4.7-9.6-2.3-9.6-7.8c0-2.6,2.4-4.3,5.3-4.3
		c2.4,0,4.2,0.8,5.4,2.3l-0.9,1c-1.2-1.4-2.8-2-4.6-2c-2.1,0-3.7,1.2-3.7,3c0,4.1,9.6,1.8,9.6,7.8c0,2.1-1.4,4.5-5.7,4.5
		C742.1,504.1,740.1,503.1,738.9,501.6z"/>
	<path d="M758.7,501.6v-8.3h-1.9v-1.1h1.9v-3.2h1.3v3.2h2.4v1.1H760v8.1c0,0.9,0.4,1.6,1.2,1.6c0.6,0,1-0.3,1.3-0.6l0.5,1
		c-0.5,0.4-1,0.7-2,0.7C759.4,504.1,758.7,503.2,758.7,501.6z"/>
	<path d="M769.9,503.8v-11.6h1.2v2c1-1.3,2.3-2.2,3.9-2.2v1.4c-0.2,0-0.4,0-0.6,0c-1.2,0-2.8,1.1-3.3,2.1v8.4H769.9z"/>
	<path d="M781.6,498c0-3.4,2.4-6.1,5.6-6.1c3.5,0,5.5,2.8,5.5,6.1v0.3H783c0.1,2.5,1.8,4.6,4.5,4.6c1.5,0,2.8-0.6,3.8-1.6l0.6,0.8
		c-1.2,1.2-2.6,1.9-4.5,1.9C784,504.1,781.6,501.6,781.6,498z M787.2,493c-2.7,0-4.1,2.4-4.2,4.4h8.4
		C791.4,495.5,790.1,493,787.2,493z"/>
	<path d="M800,498c0-3.4,2.4-6.1,5.6-6.1c3.5,0,5.5,2.8,5.5,6.1v0.3h-9.7c0.1,2.5,1.8,4.6,4.5,4.6c1.5,0,2.8-0.6,3.8-1.6l0.6,0.8
		c-1.2,1.2-2.6,1.9-4.5,1.9C802.4,504.1,800,501.6,800,498z M805.6,493c-2.7,0-4.1,2.4-4.2,4.4h8.4C809.8,495.5,808.5,493,805.6,493
		z"/>
	<path d="M819.3,501.6v-8.3h-1.9v-1.1h1.9v-3.2h1.3v3.2h2.4v1.1h-2.4v8.1c0,0.9,0.4,1.6,1.2,1.6c0.6,0,1-0.3,1.3-0.6l0.5,1
		c-0.5,0.4-1,0.7-2,0.7C820.1,504.1,819.3,503.2,819.3,501.6z"/>
	<path d="M893.6,495.9c0-4.9,3.6-8.3,8.1-8.3c2.6,0,4.6,1.1,6,2.7l-1,0.7c-1.1-1.3-3-2.2-5-2.2c-3.8,0-6.7,2.9-6.7,7
		c0,4.1,2.9,7.1,6.7,7.1c2.1,0,3.8-1.1,4.7-1.9v-3.8h-6v-1.2h7.4v5.6c-1.4,1.6-3.6,2.7-6.1,2.7C897.2,504.2,893.6,500.8,893.6,495.9
		z"/>
	<path d="M923.3,503.8v-1.4c-1,1.1-2.3,1.7-3.9,1.7c-2,0-4.1-1.4-4.1-3.9c0-2.5,2-3.8,4.1-3.8c1.6,0,2.9,0.5,3.9,1.7v-2.4
		c0-1.7-1.4-2.7-3.1-2.7c-1.4,0-2.6,0.5-3.6,1.7l-0.7-0.9c1.2-1.3,2.5-1.9,4.5-1.9c2.4,0,4.2,1.1,4.2,3.7v8.2H923.3z M923.3,501.6
		V499c-0.8-1.1-2.1-1.6-3.5-1.6c-1.9,0-3.2,1.2-3.2,2.9c0,1.6,1.2,2.9,3.2,2.9C921.2,503.2,922.5,502.6,923.3,501.6z"/>
	<path d="M947.1,503.8v-8.1c0-1.6-0.7-2.6-2.3-2.6c-1.2,0-2.7,0.9-3.3,2v8.8h-1.3v-8.1c0-1.6-0.7-2.6-2.3-2.6c-1.2,0-2.6,0.9-3.3,2
		v8.8h-1.2v-11.6h1.2v1.8c0.5-0.7,2.1-2,3.7-2c1.8,0,2.8,1.1,3,2.2c0.6-1.1,2.2-2.2,3.8-2.2c2.1,0,3.2,1.2,3.2,3.5v8.4H947.1z"/>
	<path d="M956.3,498c0-3.4,2.4-6.1,5.6-6.1c3.5,0,5.5,2.8,5.5,6.1v0.3h-9.7c0.1,2.5,1.8,4.6,4.5,4.6c1.5,0,2.8-0.6,3.8-1.6l0.6,0.8
		c-1.2,1.2-2.6,1.9-4.5,1.9C958.8,504.1,956.3,501.6,956.3,498z M961.9,493c-2.7,0-4.1,2.4-4.2,4.4h8.4
		C966.1,495.5,964.8,493,961.9,493z"/>
	<path d="M974.8,503.8v-1l6.9-9.5h-6.9v-1.1h8.5v1l-6.9,9.5h7v1.1H974.8z"/>
	<path d="M149.8,590.8v-7.6h-10.2v7.6h-1.4v-16h1.4v7.2h10.2v-7.2h1.4v16H149.8z"/>
	<path d="M164.1,590.8v-14.8h-5.2v-1.2h11.9v1.2h-5.2v14.8H164.1z"/>
	<path d="M178.3,590.8v-16h6.6c2.7,0,4.4,1.6,4.4,4.1c0,2-1.4,3.4-2.8,3.7c1.7,0.3,3.1,2,3.1,3.9c0,2.7-1.7,4.3-4.6,4.3H178.3z
		 M187.9,579.1c0-1.6-1.1-3-3.1-3h-5v5.9h5C186.8,582,187.9,580.7,187.9,579.1z M188.2,586.4c0-1.6-1.1-3.2-3.4-3.2h-5.1v6.3h5.1
		C187,589.6,188.2,588.4,188.2,586.4z"/>
	<path d="M227.4,587.5c-1.4,0-2.5-1.1-2.5-2.4c0-1.4,1.1-2.5,2.5-2.5s2.5,1.1,2.5,2.5C229.9,586.4,228.8,587.5,227.4,587.5z"/>
	<path d="M275.1,590.8l-4.5-6.6h-3.5v6.6h-1.4v-16h6c2.8,0,4.9,1.8,4.9,4.7c0,2.9-2.1,4.5-4.4,4.6l4.6,6.7H275.1z M275.1,579.5
		c0-2-1.4-3.4-3.6-3.4h-4.5v6.9h4.5C273.7,583,275.1,581.5,275.1,579.5z"/>
	<path d="M284,585c0-3.4,2.4-6.1,5.6-6.1c3.5,0,5.5,2.8,5.5,6.1v0.3h-9.7c0.1,2.5,1.8,4.6,4.5,4.6c1.5,0,2.8-0.6,3.8-1.6l0.6,0.8
		c-1.2,1.2-2.6,1.9-4.5,1.9C286.5,591.1,284,588.6,284,585z M289.6,580c-2.7,0-4.1,2.4-4.2,4.4h8.4C293.8,582.5,292.5,580,289.6,580
		z"/>
	<path d="M311.7,590.8V589c-0.8,1.2-2.3,2.1-4,2.1c-3.1,0-5.2-2.4-5.2-6.1c0-3.7,2.1-6.1,5.2-6.1c1.7,0,3.1,0.8,4,2.2v-6.3h1.3v16
		H311.7z M311.7,587.9v-5.7c-0.7-1.1-2.2-2.1-3.8-2.1c-2.6,0-4.1,2.2-4.1,5c0,2.8,1.5,4.9,4.1,4.9C309.5,590,311,589,311.7,587.9z"
		/>
	<path d="M321.6,590.8v-16h1.2v6.3c0.9-1.3,2.4-2.2,4-2.2c3.1,0,5.2,2.4,5.2,6.1c0,3.7-2.1,6.1-5.2,6.1c-1.7,0-3.2-0.9-4-2.1v1.8
		H321.6z M326.7,590c2.6,0,4.1-2.1,4.1-4.9c0-2.8-1.5-5-4.1-5c-1.6,0-3.1,1-3.8,2.1v5.7C323.5,589,325.1,590,326.7,590z"/>
	<path d="M347.9,590.8v-1.7c-1,1.1-2.5,2-4.2,2c-2.4,0-3.6-1.1-3.6-3.7v-8.2h1.2v7.9c0,2.3,1.1,2.9,2.8,2.9c1.5,0,3-0.9,3.8-1.9
		v-8.8h1.2v11.6H347.9z"/>
	<path d="M357.9,590.8v-16h1.2v16H357.9z"/>
	<path d="M367.8,590.8v-16h1.2v16H367.8z"/>
	<path d="M407.3,587.5c-1.4,0-2.5-1.1-2.5-2.4c0-1.4,1.1-2.5,2.5-2.5s2.5,1.1,2.5,2.5C409.8,586.4,408.7,587.5,407.3,587.5z"/>
	<path d="M454,590.8l-2.7-5.4h-2.1v5.4h-4.1v-16h8c3.6,0,5.6,2.4,5.6,5.3c0,2.8-1.7,4.3-3.2,4.8l3.3,5.9H454z M454.4,580.1
		c0-1.1-0.9-1.7-2-1.7h-3.3v3.4h3.3C453.5,581.9,454.4,581.3,454.4,580.1z"/>
	<path d="M464.9,585c0-3.4,2.5-6.1,6.2-6.1c3.4,0,5.9,2.5,5.9,6.5v0.8h-8.3c0.2,1.1,1.2,2.1,2.9,2.1c0.8,0,2.2-0.4,2.9-1l1.6,2.3
		c-1.2,1-3.1,1.5-4.8,1.5C467.6,591.1,464.9,588.8,464.9,585z M471,581.8c-1.6,0-2.2,1.2-2.4,2h4.8C473.3,583,472.7,581.8,471,581.8
		z"/>
	<path d="M482.8,585c0-3.4,2.5-6.1,6.2-6.1c3.4,0,5.9,2.5,5.9,6.5v0.8h-8.3c0.2,1.1,1.2,2.1,2.9,2.1c0.8,0,2.2-0.4,2.9-1l1.6,2.3
		c-1.2,1-3.1,1.5-4.8,1.5C485.6,591.1,482.8,588.8,482.8,585z M489,581.8c-1.6,0-2.2,1.2-2.4,2h4.8C491.3,583,490.7,581.8,489,581.8
		z"/>
	<path d="M501.5,590.8v-16h3.7v5.8c0.9-1.2,2.2-1.7,3.4-1.7c2.9,0,5.1,2.3,5.1,6.1c0,3.9-2.3,6.1-5.1,6.1c-1.3,0-2.5-0.5-3.4-1.6
		v1.3H501.5z M507.4,587.9c1.5,0,2.6-1.1,2.6-2.8c0-1.7-1.1-2.8-2.6-2.8c-0.8,0-1.8,0.4-2.2,1.1v3.6
		C505.7,587.5,506.6,587.9,507.4,587.9z"/>
	<path d="M519.7,585c0-3.3,2.4-6.1,6.3-6.1c4,0,6.3,2.8,6.3,6.1s-2.4,6.1-6.3,6.1C522.1,591.1,519.7,588.3,519.7,585z M528.6,585
		c0-1.5-0.9-2.8-2.5-2.8c-1.6,0-2.5,1.3-2.5,2.8c0,1.6,0.9,2.8,2.5,2.8C527.7,587.9,528.6,586.6,528.6,585z"/>
	<path d="M546.5,590.8l-2.5-4.1l-1.1,1.3v2.8h-3.7v-16h3.7v9l3.5-4.6h4.5l-4.3,5.3l4.5,6.3H546.5z"/>
	<path d="M587.2,587.5c-1.4,0-2.5-1.1-2.5-2.4c0-1.4,1.1-2.5,2.5-2.5s2.5,1.1,2.5,2.5C589.7,586.4,588.6,587.5,587.2,587.5z"/>
	<path d="M624.6,588.6l0.9-1c1,1.2,2.7,2.3,5,2.3c3.3,0,4.2-1.8,4.2-3.2c0-4.7-9.6-2.3-9.6-7.8c0-2.6,2.4-4.3,5.3-4.3
		c2.4,0,4.2,0.8,5.4,2.3l-0.9,1c-1.2-1.4-2.8-2-4.6-2c-2.1,0-3.7,1.2-3.7,3c0,4.1,9.6,1.8,9.6,7.8c0,2.1-1.4,4.5-5.7,4.5
		C627.8,591.1,625.8,590.1,624.6,588.6z"/>
	<path d="M644.4,588.6v-8.3h-1.9v-1.1h1.9v-3.2h1.3v3.2h2.4v1.1h-2.4v8.1c0,0.9,0.4,1.6,1.2,1.6c0.6,0,1-0.3,1.3-0.6l0.5,1
		c-0.5,0.4-1,0.7-2,0.7C645.2,591.1,644.4,590.2,644.4,588.6z"/>
	<path d="M655.6,590.8v-11.6h1.2v2c1-1.3,2.3-2.2,3.9-2.2v1.4c-0.2,0-0.4,0-0.6,0c-1.2,0-2.8,1.1-3.3,2.1v8.4H655.6z"/>
	<path d="M667.3,585c0-3.4,2.4-6.1,5.6-6.1c3.5,0,5.5,2.8,5.5,6.1v0.3h-9.7c0.1,2.5,1.8,4.6,4.5,4.6c1.5,0,2.8-0.6,3.8-1.6l0.6,0.8
		c-1.2,1.2-2.6,1.9-4.5,1.9C669.8,591.1,667.3,588.6,667.3,585z M672.9,580c-2.7,0-4.1,2.4-4.2,4.4h8.4
		C677.1,582.5,675.8,580,672.9,580z"/>
	<path d="M685.8,585c0-3.4,2.4-6.1,5.6-6.1c3.5,0,5.5,2.8,5.5,6.1v0.3h-9.7c0.1,2.5,1.8,4.6,4.5,4.6c1.5,0,2.8-0.6,3.8-1.6l0.6,0.8
		c-1.2,1.2-2.6,1.9-4.5,1.9C688.2,591.1,685.8,588.6,685.8,585z M691.3,580c-2.7,0-4.1,2.4-4.2,4.4h8.4
		C695.5,582.5,694.2,580,691.3,580z"/>
	<path d="M705.1,588.6v-8.3h-1.9v-1.1h1.9v-3.2h1.3v3.2h2.4v1.1h-2.4v8.1c0,0.9,0.4,1.6,1.2,1.6c0.6,0,1-0.3,1.3-0.6l0.5,1
		c-0.5,0.4-1,0.7-2,0.7C705.8,591.1,705.1,590.2,705.1,588.6z"/>
	<path d="M716.2,590.8v-16h1.2v6.3c0.9-1.3,2.4-2.2,4-2.2c3.1,0,5.2,2.4,5.2,6.1c0,3.7-2.1,6.1-5.2,6.1c-1.7,0-3.2-0.9-4-2.1v1.8
		H716.2z M721.3,590c2.6,0,4.1-2.1,4.1-4.9c0-2.8-1.5-5-4.1-5c-1.6,0-3.1,1-3.8,2.1v5.7C718.1,589,719.7,590,721.3,590z"/>
	<path d="M742.1,590.8v-1.4c-1,1.1-2.3,1.7-3.9,1.7c-2,0-4.1-1.4-4.1-3.9c0-2.5,2-3.8,4.1-3.8c1.6,0,2.9,0.5,3.9,1.7v-2.4
		c0-1.7-1.4-2.7-3.1-2.7c-1.4,0-2.6,0.5-3.6,1.7l-0.7-0.9c1.2-1.3,2.5-1.9,4.5-1.9c2.4,0,4.2,1.1,4.2,3.7v8.2H742.1z M742.1,588.6
		V586c-0.8-1.1-2.1-1.6-3.5-1.6c-1.9,0-3.2,1.2-3.2,2.9c0,1.6,1.2,2.9,3.2,2.9C740,590.2,741.3,589.6,742.1,588.6z"/>
	<path d="M752,590.8v-16h1.2v16H752z"/>
	<path d="M762,590.8v-16h1.2v16H762z"/>
	<path d="M801.5,587.5c-1.4,0-2.5-1.1-2.5-2.4c0-1.4,1.1-2.5,2.5-2.5s2.5,1.1,2.5,2.5C804,586.4,802.9,587.5,801.5,587.5z"/>
	<path d="M842.8,590.8v-12.4h-4.5v-3.6h13.1v3.6h-4.5v12.4H842.8z"/>
	<path d="M864.9,590.8v-1.2c-0.7,0.9-2.1,1.4-3.6,1.4c-1.8,0-4-1.2-4-3.8c0-2.8,2.2-3.7,4-3.7c1.5,0,2.9,0.5,3.6,1.3v-1.4
		c0-1-0.9-1.7-2.4-1.7c-1.2,0-2.4,0.4-3.3,1.2l-1.3-2.3c1.5-1.3,3.5-1.8,5.3-1.8c2.8,0,5.4,1,5.4,4.6v7.2H864.9z M864.9,587.9v-1
		c-0.4-0.5-1.2-0.8-2.1-0.8c-1,0-1.8,0.4-1.8,1.3s0.9,1.3,1.8,1.3C863.7,588.7,864.5,588.4,864.9,587.9z"/>
	<path d="M875.3,585c0-3.6,2.7-6.1,6.3-6.1c2.5,0,4.1,1.1,4.8,2.1l-2.4,2.2c-0.5-0.7-1.2-1.1-2.2-1.1c-1.5,0-2.7,1.1-2.7,2.8
		s1.2,2.8,2.7,2.8c1,0,1.7-0.5,2.2-1.1l2.4,2.3c-0.7,1-2.3,2.1-4.8,2.1C878,591.1,875.3,588.7,875.3,585z"/>
	<path d="M900.8,590.8v-6.7c0-1.4-0.7-1.9-1.9-1.9c-1.1,0-1.8,0.6-2.2,1.1v7.5h-3.7v-16h3.7v5.8c0.7-0.8,2.1-1.7,4-1.7
		c2.6,0,3.8,1.5,3.8,3.6v8.3H900.8z"/>
	<path d="M911.7,576.1c0-1.2,0.9-2.1,2.1-2.1s2.1,0.9,2.1,2.1c0,1.2-0.9,2.1-2.1,2.1S911.7,577.3,911.7,576.1z M911.9,590.8v-11.6
		h3.7v11.6H911.9z"/>
	<path d="M930.5,590.8l-2.5-4.1l-1.1,1.3v2.8h-3.7v-16h3.7v9l3.5-4.6h4.5l-4.3,5.3l4.5,6.3H930.5z"/>
	<path d="M947.9,590.8v-1.2c-0.7,0.9-2.1,1.4-3.6,1.4c-1.8,0-4-1.2-4-3.8c0-2.8,2.2-3.7,4-3.7c1.5,0,2.9,0.5,3.6,1.3v-1.4
		c0-1-0.9-1.7-2.4-1.7c-1.2,0-2.4,0.4-3.3,1.2l-1.3-2.3c1.5-1.3,3.5-1.8,5.3-1.8c2.8,0,5.4,1,5.4,4.6v7.2H947.9z M947.9,587.9v-1
		c-0.4-0.5-1.2-0.8-2.1-0.8c-1,0-1.8,0.4-1.8,1.3s0.9,1.3,1.8,1.3C946.6,588.7,947.5,588.4,947.9,587.9z"/>
	<path d="M959.1,590.8v-11.6h3.7v1.4c0.8-0.9,2.2-1.7,3.6-1.7v3.6c-0.2,0-0.5-0.1-0.9-0.1c-1,0-2.2,0.4-2.7,1.1v7.4H959.1z"/>
	<path d="M979.7,590.8v-1.2c-0.7,0.9-2.1,1.4-3.6,1.4c-1.8,0-4-1.2-4-3.8c0-2.8,2.2-3.7,4-3.7c1.5,0,2.9,0.5,3.6,1.3v-1.4
		c0-1-0.9-1.7-2.4-1.7c-1.2,0-2.4,0.4-3.3,1.2l-1.3-2.3c1.5-1.3,3.5-1.8,5.3-1.8c2.8,0,5.4,1,5.4,4.6v7.2H979.7z M979.7,587.9v-1
		c-0.4-0.5-1.2-0.8-2.1-0.8c-1,0-1.8,0.4-1.8,1.3s0.9,1.3,1.8,1.3C978.4,588.7,979.3,588.4,979.7,587.9z"/>
	<path d="M141.3,677.8v-12.4h-4.5v-3.6h13.1v3.6h-4.5v12.4H141.3z"/>
	<path d="M167.5,677.8v-6.4h-6.6v6.4h-4.1v-16h4.1v6h6.6v-6h4.1v16H167.5z"/>
	<path d="M182.9,677.8v-12.4h-4.5v-3.6h13.1v3.6H187v12.4H182.9z"/>
	<path d="M274.5,674.5c-1.4,0-2.5-1.1-2.5-2.4c0-1.4,1.1-2.5,2.5-2.5s2.5,1.1,2.5,2.5C277,673.4,275.9,674.5,274.5,674.5z"/>
	<path d="M371.2,677.8l-3.8-13.8l-3.8,13.8H362l-4.6-16h1.5l3.9,14.1l3.9-14.1h1.2l3.9,14.1l3.9-14.1h1.5l-4.6,16H371.2z"/>
	<path d="M384.6,677.8v-16h10.2v1.2H386v5.9h8.6v1.2H386v7.6H384.6z"/>
	<path d="M402.4,677.8v-16h6.6c2.7,0,4.4,1.6,4.4,4.1c0,2-1.4,3.4-2.8,3.7c1.7,0.3,3.1,2,3.1,3.9c0,2.7-1.7,4.3-4.6,4.3H402.4z
		 M412,666.1c0-1.6-1.1-3-3.1-3h-5v5.9h5C410.9,669,412,667.7,412,666.1z M412.3,673.4c0-1.6-1.1-3.2-3.4-3.2h-5.1v6.3h5.1
		C411,676.6,412.3,675.4,412.3,673.4z"/>
	<path d="M433.5,677.8l-1.6-3.9h-8.5l-1.6,3.9h-1.6l6.6-16h1.7l6.6,16H433.5z M427.7,663.3l-3.8,9.4h7.6L427.7,663.3z"/>
	<path d="M518,674.5c-1.4,0-2.5-1.1-2.5-2.4c0-1.4,1.1-2.5,2.5-2.5s2.5,1.1,2.5,2.5C520.5,673.4,519.4,674.5,518,674.5z"/>
	<path d="M601.7,677.8v-1.2l9.6-13.6h-9.6v-1.2h11.4v1.2l-9.6,13.6h9.8v1.2H601.7z"/>
	<path d="M620.5,672c0-3.4,2.4-6.1,5.6-6.1c3.5,0,5.5,2.8,5.5,6.1v0.3h-9.7c0.1,2.5,1.8,4.6,4.5,4.6c1.5,0,2.8-0.6,3.8-1.6l0.6,0.8
		c-1.2,1.2-2.6,1.9-4.5,1.9C622.9,678.1,620.5,675.6,620.5,672z M626.1,667c-2.7,0-4.1,2.4-4.2,4.4h8.4
		C630.3,669.5,629,667,626.1,667z"/>
	<path d="M639.6,677.8v-11.6h1.2v2c1-1.3,2.3-2.2,3.9-2.2v1.4c-0.2,0-0.4,0-0.6,0c-1.2,0-2.8,1.1-3.3,2.1v8.4H639.6z"/>
	<path d="M651.3,672c0-3.4,2.2-6.1,5.6-6.1c3.4,0,5.6,2.7,5.6,6.1c0,3.4-2.2,6.1-5.6,6.1C653.5,678.1,651.3,675.4,651.3,672z
		 M661.1,672c0-2.6-1.5-4.9-4.2-4.9c-2.7,0-4.2,2.4-4.2,4.9c0,2.6,1.5,5,4.2,5C659.6,677,661.1,674.6,661.1,672z"/>
	<path d="M746.3,674.5c-1.4,0-2.5-1.1-2.5-2.4c0-1.4,1.1-2.5,2.5-2.5s2.5,1.1,2.5,2.5C748.7,673.4,747.6,674.5,746.3,674.5z"/>
	<path d="M829.9,677.8v-1.2l9.6-13.6h-9.6v-1.2h11.4v1.2l-9.6,13.6h9.8v1.2H829.9z"/>
	<path d="M857.3,677.8v-1.7c-1,1.1-2.5,2-4.2,2c-2.4,0-3.6-1.1-3.6-3.7v-8.2h1.2v7.9c0,2.3,1.1,2.9,2.8,2.9c1.5,0,3-0.9,3.8-1.9
		v-8.8h1.2v11.6H857.3z"/>
	<path d="M866.9,663.5c0-0.5,0.5-0.9,1-0.9c0.5,0,1,0.4,1,0.9c0,0.5-0.4,1-1,1C867.3,664.4,866.9,664,866.9,663.5z M867.2,677.8
		v-11.6h1.2v11.6H867.2z"/>
	<path d="M885.7,677.8V676c-0.8,1.2-2.3,2.1-4,2.1c-3.1,0-5.2-2.4-5.2-6.1c0-3.7,2.1-6.1,5.2-6.1c1.7,0,3.1,0.8,4,2.2v-6.3h1.3v16
		H885.7z M885.7,674.9v-5.7c-0.7-1.1-2.2-2.1-3.8-2.1c-2.6,0-4.1,2.2-4.1,5c0,2.8,1.5,4.9,4.1,4.9C883.5,677,885,676,885.7,674.9z"
		/>
	<path d="M895,672c0-3.4,2.4-6.1,5.6-6.1c3.5,0,5.5,2.8,5.5,6.1v0.3h-9.7c0.1,2.5,1.8,4.6,4.5,4.6c1.5,0,2.8-0.6,3.8-1.6l0.6,0.8
		c-1.2,1.2-2.6,1.9-4.5,1.9C897.4,678.1,895,675.6,895,672z M900.5,667c-2.7,0-4.1,2.4-4.2,4.4h8.4C904.7,669.5,903.4,667,900.5,667
		z"/>
	<path d="M914,677.8v-11.6h1.2v2c1-1.3,2.3-2.2,3.9-2.2v1.4c-0.2,0-0.4,0-0.6,0c-1.2,0-2.8,1.1-3.3,2.1v8.4H914z"/>
	<path d="M927.7,676v6.3h-1.2v-16h1.2v1.8c0.8-1.2,2.3-2.1,4-2.1c3.1,0,5.2,2.4,5.2,6.1c0,3.7-2.1,6.1-5.2,6.1
		C930.1,678.1,928.6,677.3,927.7,676z M935.6,672c0-2.8-1.5-4.9-4.1-4.9c-1.6,0-3.1,1-3.8,2.1v5.7c0.7,1.1,2.2,2.1,3.8,2.1
		C934.1,677,935.6,674.8,935.6,672z"/>
	<path d="M952.2,677.8v-1.4c-1,1.1-2.3,1.7-3.9,1.7c-2,0-4.1-1.4-4.1-3.9c0-2.5,2-3.8,4.1-3.8c1.6,0,2.9,0.5,3.9,1.7v-2.4
		c0-1.7-1.4-2.7-3.1-2.7c-1.4,0-2.6,0.5-3.6,1.7l-0.7-0.9c1.2-1.3,2.5-1.9,4.5-1.9c2.4,0,4.2,1.1,4.2,3.7v8.2H952.2z M952.2,675.6
		V673c-0.8-1.1-2.1-1.6-3.5-1.6c-1.9,0-3.2,1.2-3.2,2.9c0,1.6,1.2,2.9,3.2,2.9C950.1,677.2,951.4,676.6,952.2,675.6z"/>
	<path d="M962.2,677.8v-11.6h1.2v2c1-1.3,2.3-2.2,3.9-2.2v1.4c-0.2,0-0.4,0-0.6,0c-1.2,0-2.8,1.1-3.3,2.1v8.4H962.2z"/>
	<path d="M982.6,677.8l-4.6-5.5l-2.2,2v3.5h-1.2v-16h1.2v11l6.8-6.6h1.7l-5.4,5.2l5.4,6.4H982.6z"/>
</g>
<path fill="none" stroke="#000000" stroke-width="0.763" d="M560.5,472.7"/>
<path fill="none" stroke="#000000" stroke-width="0.763" d="M560.5,472.7"/>
<linearGradient id="SVGID_1_" gradientUnits="userSpaceOnUse" x1="560.5334" y1="50.8046" x2="560.5334" y2="50.8046">
	<stop  offset="0" style="stop-color:#EAFF00"/>
	<stop  offset="0.2033" style="stop-color:#EAFF00"/>
	<stop  offset="0.73" style="stop-color:#A2FC59"/>
	<stop  offset="1" style="stop-color:#57F866"/>
</linearGradient>
<path fill="none" stroke="url(#SVGID_1_)" stroke-width="15" stroke-miterlimit="10" d="M560.5,50.8"/>
<linearGradient id="SVGID_2_" gradientUnits="userSpaceOnUse" x1="560.5334" y1="343.7786" x2="560.5334" y2="343.7786">
	<stop  offset="0" style="stop-color:#EAFF00"/>
	<stop  offset="0.2033" style="stop-color:#EAFF00"/>
	<stop  offset="0.73" style="stop-color:#A2FC59"/>
	<stop  offset="1" style="stop-color:#57F866"/>
</linearGradient>
<path fill="none" stroke="url(#SVGID_2_)" stroke-width="15" stroke-miterlimit="10" d="M560.5,343.8"/>
<linearGradient id="SVGID_3_" gradientUnits="userSpaceOnUse" x1="560.5334" y1="636.7526" x2="560.5334" y2="636.7526">
	<stop  offset="0" style="stop-color:#EAFF00"/>
	<stop  offset="0.2033" style="stop-color:#EAFF00"/>
	<stop  offset="0.73" style="stop-color:#A2FC59"/>
	<stop  offset="1" style="stop-color:#57F866"/>
</linearGradient>
<path fill="none" stroke="url(#SVGID_3_)" stroke-width="15" stroke-miterlimit="10" d="M560.5,636.8"/>
<linearGradient id="SVGID_4_" gradientUnits="userSpaceOnUse" x1="560.5334" y1="343.7786" x2="560.5334" y2="343.7786">
	<stop  offset="0" style="stop-color:#EAFF00"/>
	<stop  offset="0.2033" style="stop-color:#EAFF00"/>
	<stop  offset="0.73" style="stop-color:#A2FC59"/>
	<stop  offset="1" style="stop-color:#57F866"/>
</linearGradient>
<path fill="none" stroke="url(#SVGID_4_)" stroke-width="15" stroke-miterlimit="10" d="M560.5,343.8"/>
<g>
	<polygon points="556,171.8 568.4,180.8 565.1,184 557.6,177.2 	"/>
	<polygon points="546.9,203.7 541.7,208.1 543.2,130.1 546.9,137.2 	"/>
	<polygon points="578.4,178.3 554.8,157 554.8,152.3 583.9,174 	"/>
	<polygon points="578.6,196.2 537.2,228.5 537.2,225.2 574.8,192.1 	"/>
	<polygon points="554.8,170.9 558.2,173.4 558.3,190.8 554.9,194.1 	"/>
	<polygon points="578.5,178.2 554.8,197 554.9,194 574.6,174.3 	"/>
	<polygon points="578.5,196.3 565.8,184.6 568.2,180.7 583.7,192.4 	"/>
</g>
</svg>
