<svg xmlns="http://www.w3.org/2000/svg" viewBox="135.3 -11.4 850.4 708.7"><ellipse fill="none" stroke="#FFF" stroke-width="15" stroke-miterlimit="10" cx="560.5" cy="341.4" rx="286.3" ry="293"/><path d="M221.8 323.4h-5.3l-1.2 3.4h-1l4.4-12.1h.9l4.4 12.1h-1l-1.2-3.4zm-5-.9h4.7l-2.3-6.4-2.4 6.4zM228.7 322.4c0-1.4.3-2.6.9-3.4.6-.9 1.5-1.3 2.5-1.3.6 0 1.2.1 1.6.4.5.3.8.6 1.2 1.1v-5.3h1v12.9h-.9l-.1-1.3c-.3.5-.7.8-1.2 1.1-.5.3-1 .4-1.7.4-1.1 0-1.9-.4-2.5-1.2-.6-.8-.9-1.9-.9-3.2v-.2zm1 .1c0 1.1.2 1.9.7 2.6.4.6 1.1 1 2 1 .6 0 1.2-.1 1.6-.4.4-.3.8-.7 1-1.2v-4.3c-.2-.5-.5-.9-1-1.2-.4-.3-1-.5-1.6-.5-.9 0-1.5.4-2 1.1-.4.7-.7 1.6-.7 2.8v.1zM243 315.2h-1v-1.4h1v1.4zm0 11.6h-1v-9h1v9zM248.8 322.4c0-1.4.3-2.6.9-3.4.6-.9 1.5-1.3 2.5-1.3.6 0 1.2.1 1.6.4.5.3.8.6 1.2 1.1v-5.3h1v12.9h-.8l-.1-1.3c-.3.5-.7.8-1.2 1.1-.5.3-1 .4-1.7.4-1.1 0-1.9-.4-2.5-1.2-.6-.8-.9-1.9-.9-3.2v-.2zm1 .1c0 1.1.2 1.9.7 2.6.4.6 1.1 1 2 1 .6 0 1.2-.1 1.6-.4.4-.3.8-.7 1-1.2v-4.3c-.2-.5-.5-.9-1-1.2-.4-.3-1-.5-1.6-.5-.9 0-1.5.4-2 1.1-.4.7-.7 1.6-.7 2.8v.1zM267.7 326.8c-.1-.3-.1-.6-.1-.8v-.7c-.3.5-.7.9-1.3 1.2s-1.2.5-1.9.5c-.9 0-1.6-.2-2-.7s-.7-1.1-.7-1.9c0-.8.4-1.5 1.1-2 .7-.5 1.6-.7 2.7-.7h2.2v-1.1c0-.6-.2-1.1-.6-1.5-.4-.4-1-.5-1.7-.5s-1.2.2-1.6.5-.6.8-.6 1.3H262v-.1c0-.7.3-1.3.9-1.8s1.4-.8 2.4-.8 1.8.3 2.4.8c.6.5.9 1.2.9 2.2v4.4c0 .3 0 .6.1.9s.1.6.2.9h-1.2zm-3.3-.7c.8 0 1.4-.2 2-.5s.9-.8 1.1-1.4v-1.7h-2.2c-.8 0-1.5.2-2 .6-.5.4-.8.8-.8 1.4 0 .5.2.9.5 1.2.4.2.8.4 1.4.4zM279.9 324.5c0-.4-.2-.8-.5-1.1s-1-.6-1.9-.8c-1.1-.2-1.9-.5-2.4-.9s-.8-.9-.8-1.6c0-.7.3-1.3.9-1.7s1.3-.7 2.3-.7c1 0 1.8.3 2.4.8.6.5.9 1.1.9 1.9h-.9c0-.5-.2-.9-.6-1.3-.4-.4-1-.5-1.7-.5s-1.3.2-1.6.5c-.4.3-.5.7-.5 1.1 0 .4.2.7.5 1s.9.5 1.9.7c1.1.2 1.8.6 2.4 1 .5.4.8 1 .8 1.7s-.3 1.4-.9 1.8c-.6.5-1.4.7-2.4.7-1.1 0-1.9-.3-2.6-.8-.6-.5-.9-1.1-.9-1.9v-.1h.9c0 .6.3 1.1.8 1.4.5.3 1.1.4 1.7.4.7 0 1.3-.2 1.7-.5.3-.3.5-.7.5-1.1zM311.2 320.3c0-.4.1-.8.4-1.1s.7-.4 1.1-.4c.5 0 .8.1 1.1.4s.4.6.4 1.1v.5c0 .4-.1.8-.4 1.1-.3.3-.7.4-1.1.4-.5 0-.8-.1-1.1-.4-.3-.3-.4-.6-.4-1.1v-.5zM351.3 323.4H346l-1.2 3.4h-1l4.4-12.1h.9l4.4 12.1h-1l-1.2-3.4zm-5-.9h4.7l-2.3-6.4-2.4 6.4zM363.3 322.1h-4.9v-.8h4.9v.8zM378.2 321.7c0 1.6-.4 2.8-1.3 3.8s-2 1.4-3.4 1.4-2.5-.5-3.4-1.4-1.3-2.2-1.3-3.8v-2c0-1.6.4-2.8 1.3-3.8s2-1.5 3.4-1.5 2.6.5 3.4 1.5c.9 1 1.3 2.2 1.3 3.8v2zm-.9-1.9c0-1.3-.3-2.4-1-3.2s-1.6-1.2-2.8-1.2c-1.2 0-2 .4-2.7 1.2s-1 1.8-1 3.2v2c0 1.3.3 2.4 1 3.2s1.5 1.2 2.7 1.2c1.2 0 2.1-.4 2.8-1.2.7-.8 1-1.9 1-3.2v-2zM384.9 317.8l.1 1.6c.3-.5.7-1 1.2-1.3s1.1-.5 1.7-.5c1 0 1.7.3 2.2.9.5.6.8 1.5.8 2.8v5.5h-1v-5.5c0-1-.2-1.8-.6-2.2-.4-.4-.9-.6-1.6-.6s-1.3.2-1.7.5c-.4.3-.7.8-.9 1.4v6.4h-1v-9h.8zM400.3 327c-1.2 0-2.1-.4-2.8-1.2-.7-.8-1.1-1.9-1.1-3.2v-.5c0-1.3.4-2.4 1.1-3.2s1.6-1.3 2.7-1.3 1.9.3 2.5 1 .9 1.6.9 2.8v.8h-6.3v.3c0 1 .3 1.9.8 2.5s1.2 1 2.1 1c.5 0 1.1-.1 1.5-.3.5-.2.8-.4 1.1-.7l.4.7c-.3.3-.7.6-1.2.8s-1 .5-1.7.5zm-.1-8.5c-.8 0-1.4.3-1.9.8s-.8 1.2-.9 2.1h5.1v-.2c0-.8-.2-1.5-.6-2s-1-.7-1.7-.7zM433.5 320.3c0-.4.1-.8.4-1.1s.7-.4 1.1-.4c.5 0 .8.1 1.1.4s.4.6.4 1.1v.5c0 .4-.1.8-.4 1.1-.3.3-.7.4-1.1.4-.5 0-.8-.1-1.1-.4-.3-.3-.4-.6-.4-1.1v-.5zM473.2 324.2h-3.9l-.8 2.6H466l4.1-12.1h2.5l4.1 12.1h-2.5l-1-2.6zm-3.3-1.9h2.7l-1.3-4.3-1.4 4.3zM488.7 322.5c0 1.3-.3 2.4-.9 3.2-.6.8-1.5 1.2-2.6 1.2-.5 0-.9-.1-1.3-.3-.4-.2-.7-.4-.9-.8v4.3h-2.4v-12.4h2.2l.1 1.1c.3-.4.6-.7 1-.9.4-.2.8-.3 1.3-.3 1.1 0 2 .4 2.6 1.3.6.9.9 2 .9 3.4v.2zm-2.4-.1c0-.8-.1-1.5-.4-2.1-.3-.5-.7-.8-1.3-.8-.4 0-.7.1-.9.2-.3.1-.5.4-.6.6v3.9c.1.3.4.4.6.6.3.1.6.2 1 .2.6 0 1-.2 1.3-.7.3-.5.4-1.1.4-1.9zM501.7 322.5c0 1.3-.3 2.4-.9 3.2-.6.8-1.5 1.2-2.6 1.2-.5 0-.9-.1-1.3-.3-.4-.2-.7-.4-.9-.8v4.3h-2.4v-12.4h2.2l.1 1.1c.3-.4.6-.7 1-.9.4-.2.8-.3 1.3-.3 1.1 0 2 .4 2.6 1.3.6.9.9 2 .9 3.4v.2zm-2.4-.1c0-.8-.1-1.5-.4-2.1-.3-.5-.7-.8-1.3-.8-.4 0-.7.1-.9.2-.3.1-.5.4-.6.6v3.9c.1.3.4.4.6.6.3.1.6.2 1 .2.6 0 1-.2 1.3-.7.3-.5.4-1.1.4-1.9zM509.1 326.8h-2.4v-12.9h2.4v12.9zM518.4 327c-1.3 0-2.4-.4-3.1-1.2-.8-.8-1.1-1.9-1.1-3.2v-.3c0-1.3.4-2.4 1.1-3.3s1.7-1.3 3-1.3c1.2 0 2.1.4 2.8 1.1.6.7 1 1.7 1 3v1.3h-5.4c0 .6.2 1.1.6 1.5s.8.6 1.5.6c.5 0 1-.1 1.4-.2.4-.1.8-.3 1.2-.5l.7 1.5c-.4.3-.8.5-1.5.7-.8.2-1.5.3-2.2.3zm-.2-7.5c-.5 0-.9.2-1.1.5s-.4.8-.5 1.3h3v-.2c0-.5-.1-.9-.3-1.2s-.6-.4-1.1-.4zM551.7 320.3c0-.4.1-.8.4-1.1s.7-.4 1.1-.4c.5 0 .8.1 1.1.4s.4.6.4 1.1v.5c0 .4-.1.8-.4 1.1-.3.3-.7.4-1.1.4-.5 0-.8-.1-1.1-.4-.3-.3-.4-.6-.4-1.1v-.5zM591.9 323.4h-5.3l-1.2 3.4h-1l4.4-12.1h.9l4.4 12.1h-1l-1.2-3.4zm-5-.9h4.7l-2.3-6.4-2.4 6.4zM604.5 324.5c0-.4-.2-.8-.5-1.1s-1-.6-1.9-.8c-1.1-.2-1.9-.5-2.4-.9s-.8-.9-.8-1.6c0-.7.3-1.3.9-1.7s1.3-.7 2.3-.7c1 0 1.8.3 2.4.8.6.5.9 1.1.9 1.9h-.9c0-.5-.2-.9-.6-1.3-.4-.4-1-.5-1.7-.5s-1.3.2-1.6.5c-.4.3-.5.7-.5 1.1 0 .4.2.7.5 1s.9.5 1.9.7c1.1.2 1.8.6 2.4 1 .5.4.8 1 .8 1.7s-.3 1.4-.9 1.8c-.6.5-1.4.7-2.4.7-1.1 0-1.9-.3-2.6-.8-.6-.5-.9-1.1-.9-1.9v-.1h.9c0 .6.3 1.1.8 1.4.5.3 1.1.4 1.7.4.7 0 1.3-.2 1.7-.5.3-.3.5-.7.5-1.1zM617.1 325.3c-.3.5-.7.9-1.2 1.2s-1.1.4-1.7.4c-.9 0-1.7-.3-2.2-1-.5-.6-.8-1.6-.8-3v-5.2h1v5.2c0 1.1.2 1.9.6 2.4.4.5.9.7 1.6.7.7 0 1.3-.2 1.8-.5s.8-.8.9-1.4v-6.4h1v9h-.9l-.1-1.4zM629.5 324.5c0-.4-.2-.8-.5-1.1s-1-.6-1.9-.8c-1.1-.2-1.9-.5-2.4-.9s-.8-.9-.8-1.6c0-.7.3-1.3.9-1.7s1.3-.7 2.3-.7c1 0 1.8.3 2.4.8.6.5.9 1.1.9 1.9h-.9c0-.5-.2-.9-.6-1.3-.4-.4-1-.5-1.7-.5s-1.3.2-1.6.5c-.4.3-.5.7-.5 1.1 0 .4.2.7.5 1s.9.5 1.9.7c1.1.2 1.8.6 2.4 1 .5.4.8 1 .8 1.7s-.3 1.4-.9 1.8c-.6.5-1.4.7-2.4.7-1.1 0-1.9-.3-2.6-.8-.6-.5-.9-1.1-.9-1.9v-.1h.9c0 .6.3 1.1.8 1.4.5.3 1.1.4 1.7.4.7 0 1.3-.2 1.7-.5.2-.3.5-.7.5-1.1zM660.7 320.3c0-.4.1-.8.4-1.1s.7-.4 1.1-.4c.5 0 .8.1 1.1.4s.4.6.4 1.1v.5c0 .4-.1.8-.4 1.1-.3.3-.7.4-1.1.4-.5 0-.8-.1-1.1-.4-.3-.3-.4-.6-.4-1.1v-.5zM694.5 326.8v-12.1h3.5c1.3 0 2.2.3 2.9.8.7.5 1.1 1.3 1.1 2.4 0 .6-.2 1.1-.5 1.6s-.8.8-1.4 1c.8.1 1.4.4 1.9 1s.7 1.2.7 2c0 1.1-.3 1.9-1 2.5-.7.6-1.6.9-2.8.9h-4.4zm1-6.7h2.9c.8 0 1.5-.2 1.9-.6.5-.4.7-.9.7-1.7 0-.8-.3-1.3-.8-1.7s-1.3-.6-2.2-.6h-2.5v4.6zm0 .9v5h3.4c.9 0 1.6-.2 2.1-.7.5-.4.8-1.1.8-1.8s-.2-1.3-.8-1.8-1.2-.7-2-.7h-3.5zM713.9 326.8c-.1-.3-.1-.6-.1-.8v-.7c-.3.5-.7.9-1.3 1.2s-1.2.5-1.9.5c-.9 0-1.6-.2-2-.7s-.7-1.1-.7-1.9c0-.8.4-1.5 1.1-2 .7-.5 1.6-.7 2.7-.7h2.2v-1.1c0-.6-.2-1.1-.6-1.5-.4-.4-1-.5-1.7-.5s-1.2.2-1.6.5-.6.8-.6 1.3h-.9v-.1c0-.7.3-1.3.9-1.8s1.4-.8 2.4-.8 1.8.3 2.4.8c.6.5.9 1.2.9 2.2v4.4c0 .3 0 .6.1.9s.1.6.2.9h-1.5zm-3.3-.7c.8 0 1.4-.2 2-.5s.9-.8 1.1-1.4v-1.7h-2.2c-.8 0-1.5.2-2 .6-.5.4-.8.8-.8 1.4 0 .5.2.9.5 1.2.3.2.8.4 1.4.4zM721.8 326.8h-1v-12.9h1v12.9zM729.1 326.8h-1v-12.9h1v12.9zM740.9 326.8c-.1-.3-.1-.6-.1-.8v-.7c-.3.5-.7.9-1.3 1.2s-1.2.5-1.9.5c-.9 0-1.6-.2-2-.7s-.7-1.1-.7-1.9c0-.8.4-1.5 1.1-2 .7-.5 1.6-.7 2.7-.7h2.2v-1.1c0-.6-.2-1.1-.6-1.5-.4-.4-1-.5-1.7-.5s-1.2.2-1.6.5-.6.8-.6 1.3h-.9v-.1c0-.7.3-1.3.9-1.8s1.4-.8 2.4-.8 1.8.3 2.4.8c.6.5.9 1.2.9 2.2v4.4c0 .3 0 .6.1.9s.1.6.2.9h-1.5zm-3.3-.7c.8 0 1.4-.2 2-.5s.9-.8 1.1-1.4v-1.7h-2.2c-.8 0-1.5.2-2 .6-.5.4-.8.8-.8 1.4 0 .5.2.9.5 1.2.4.2.8.4 1.4.4zM748.8 319.3c.3-.5.7-1 1.2-1.2s1.1-.4 1.7-.4c.9 0 1.7.3 2.2.9.5.6.8 1.5.8 2.7v5.5h-1v-5.6c0-1-.2-1.7-.6-2.1-.4-.4-.9-.6-1.6-.6-.7 0-1.3.2-1.7.5-.5.3-.8.8-1 1.4v6.4h-1v-12.9h1v5.4zM760.1 322.2c0-1.3.4-2.4 1.1-3.3.7-.8 1.7-1.3 2.9-1.3s2.2.4 2.9 1.3c.7.8 1.1 1.9 1.1 3.3v.3c0 1.3-.4 2.4-1.1 3.3-.7.8-1.7 1.3-2.9 1.3s-2.2-.4-2.9-1.3-1.1-1.9-1.1-3.3v-.3zm1 .2c0 1 .3 1.9.8 2.6s1.3 1.1 2.2 1.1c.9 0 1.7-.4 2.2-1.1s.8-1.6.8-2.6v-.3c0-1-.3-1.9-.8-2.6-.5-.7-1.3-1.1-2.2-1.1s-1.7.4-2.2 1.1c-.5.7-.8 1.6-.8 2.6v.3zM774.6 326.8h-1v-12.9h1v12.9zM781.9 315.2h-1v-1.4h1v1.4zm0 11.6h-1v-9h1v9zM790.8 321.5l2.4-3.7h1.2l-3 4.4 3.2 4.6h-1.2l-2.6-3.8-2.6 3.8H787l3.2-4.6-3-4.4h1.2l2.4 3.7zM824.3 320.3c0-.4.1-.8.4-1.1s.7-.4 1.1-.4c.5 0 .8.1 1.1.4s.4.6.4 1.1v.5c0 .4-.1.8-.4 1.1-.3.3-.7.4-1.1.4-.5 0-.8-.1-1.1-.4-.3-.3-.4-.6-.4-1.1v-.5zM866.4 323c0 1.2-.3 2.2-1.1 2.9-.8.7-1.8 1.1-3.1 1.1s-2.4-.5-3.3-1.5c-.8-1-1.2-2.2-1.2-3.8v-2c0-1.5.4-2.8 1.2-3.8.8-1 1.9-1.5 3.3-1.5 1.3 0 2.4.3 3.2 1 .8.7 1.2 1.6 1.2 2.9h-.9c0-1-.3-1.7-.9-2.3s-1.4-.8-2.5-.8-1.9.4-2.5 1.2c-.6.8-1 1.9-1 3.1v2c0 1.3.3 2.3 1 3.2.6.8 1.5 1.2 2.5 1.2s1.9-.3 2.5-.8.9-1.3.9-2.3h.7zM875.6 327c-1.2 0-2.1-.4-2.8-1.2-.7-.8-1.1-1.9-1.1-3.2v-.5c0-1.3.4-2.4 1.1-3.2s1.6-1.3 2.7-1.3 1.9.3 2.5 1 .9 1.6.9 2.8v.8h-6.3v.3c0 1 .3 1.9.8 2.5s1.2 1 2.1 1c.5 0 1.1-.1 1.5-.3.5-.2.8-.4 1.1-.7l.4.7c-.3.3-.7.6-1.2.8s-1 .5-1.7.5zm-.1-8.5c-.8 0-1.4.3-1.9.8s-.8 1.2-.9 2.1h5.1v-.2c0-.8-.2-1.5-.6-2s-.9-.7-1.7-.7zM885.2 317.8l.1 1.6c.3-.5.7-1 1.2-1.3s1.1-.5 1.7-.5c1 0 1.7.3 2.2.9.5.6.8 1.5.8 2.8v5.5h-1v-5.5c0-1-.2-1.8-.6-2.2-.4-.4-.9-.6-1.6-.6s-1.3.2-1.7.5c-.4.3-.7.8-.9 1.4v6.4h-1v-9h.8zM898.7 315.5v2.3h2v.8h-2v5.9c0 .6.1 1 .3 1.2s.5.4.9.4h.4c.2 0 .2 0 .4-.1l.2.7c-.1.1-.3.1-.5.2-.2 0-.4.1-.6.1-.6 0-1.1-.2-1.5-.6s-.5-1-.5-1.9v-5.9h-1.6v-.8h1.6v-2.3h.9zM910.2 318.7h-.7c-.6 0-1.1.2-1.5.5s-.7.8-.9 1.4v6.2h-1v-9h.9l.1 1.5v.1c.3-.6.6-1 1-1.3s1-.5 1.6-.5h.3c.1 0 .2 0 .3.1l-.1 1zM224.5 370h1.3v3.8h-1v-2.9h-9.4v2.9h-1V370h.5c.8 0 1.4-.6 1.9-1.8.5-1.2.8-2.9.9-5.1l.3-4.3h6.5V370zm-5.8-6.9c-.1 1.7-.3 3.1-.6 4.3-.3 1.2-.7 2.1-1.3 2.6h6.7v-10.4H219l-.3 3.5zM230.5 366.2c0-1.3.4-2.4 1.1-3.3.7-.8 1.7-1.3 2.9-1.3s2.2.4 2.9 1.3c.7.8 1.1 1.9 1.1 3.3v.3c0 1.3-.4 2.4-1.1 3.3-.7.8-1.7 1.3-2.9 1.3s-2.2-.4-2.9-1.3-1.1-1.9-1.1-3.3v-.3zm1 .2c0 1 .3 1.9.8 2.6s1.3 1.1 2.2 1.1c.9 0 1.7-.4 2.2-1.1s.8-1.6.8-2.6v-.3c0-1-.3-1.9-.8-2.6-.5-.7-1.3-1.1-2.2-1.1s-1.7.4-2.2 1.1c-.5.7-.8 1.6-.8 2.6v.3zM249.8 366.6h-.8v4.2h-1v-4.2h-.7l-3.4 4.2h-1.2l3.8-4.6-3.4-4.3h1.2l3 3.9h.8v-3.9h1v3.9h.8l3-3.9h1.2l-3.4 4.3 3.8 4.6h-1.2l-3.5-4.2zM259.5 370c.4 0 .8-.4 1-1.3.3-.8.4-2.1.5-3.6l.2-3.2h5.4v8.1h.8v3.8h-1v-2.9h-6.8v2.9h-.9V370h.8zm2.5-4.9c-.1 1.2-.2 2.2-.3 3s-.4 1.4-.7 1.9h4.6v-7.2h-3.5l-.1 2.3zM273.9 365.4h2.6c1 0 1.8.2 2.4.7s.9 1.1.9 1.9c0 .8-.3 1.4-.9 2-.6.5-1.4.8-2.4.8h-3.6v-9h1v3.6zm0 .8v3.7h2.6c.8 0 1.3-.2 1.7-.5s.6-.8.6-1.3-.2-.9-.6-1.3-1-.5-1.7-.5h-2.6zM294.5 364.3c0-.4.1-.8.4-1.1s.7-.4 1.1-.4c.5 0 .8.1 1.1.4s.4.6.4 1.1v.5c0 .4-.1.8-.4 1.1-.3.3-.7.4-1.1.4-.5 0-.8-.1-1.1-.4-.3-.3-.4-.6-.4-1.1v-.5zM319.5 365.8h-4.6v5h-2.4v-12.1h7.9v1.9h-5.5v3.3h4.6v1.9zM327.9 370.8h-2.4v-12.1h2.4v12.1zM333.7 370.8v-12.1h4c1.4 0 2.5.3 3.3.8.8.6 1.2 1.4 1.2 2.5 0 .6-.1 1-.4 1.5s-.7.8-1.3 1c.8.1 1.3.5 1.7 1 .4.5.6 1.1.6 1.8 0 1.2-.4 2-1.1 2.6s-1.8.9-3.2.9h-4.8zm2.5-7h1.6c.6 0 1.1-.1 1.5-.4.3-.3.5-.7.5-1.2 0-.6-.2-1-.5-1.2s-.9-.4-1.6-.4h-1.5v3.2zm0 1.6v3.5h2.2c.6 0 1.1-.1 1.5-.4s.5-.7.5-1.2c0-.6-.2-1-.5-1.4-.3-.3-.8-.5-1.5-.5h-2.2zM354.3 368.2h-3.9l-.8 2.6H347l4.1-12.1h2.5l4.1 12.1h-2.5l-.9-2.6zm-3.4-1.9h2.7l-1.3-4.3-1.4 4.3zM371.5 364.3c0-.4.1-.8.4-1.1s.7-.4 1.1-.4c.5 0 .8.1 1.1.4s.4.6.4 1.1v.5c0 .4-.1.8-.4 1.1-.3.3-.7.4-1.1.4-.5 0-.8-.1-1.1-.4-.3-.3-.4-.6-.4-1.1v-.5zM396.5 365.1h-5.6v5.7h-1v-12.1h7.4v.8h-6.4v4.7h5.6v.9zM408.2 369.3c-.3.5-.7.9-1.2 1.2s-1.1.4-1.7.4c-.9 0-1.7-.3-2.2-1-.5-.6-.8-1.6-.8-3v-5.2h1v5.2c0 1.1.2 1.9.6 2.4.4.5.9.7 1.6.7.7 0 1.3-.2 1.8-.5s.8-.8.9-1.4v-6.4h1v9h-.9l-.1-1.4zM416 361.8l.1 1.6c.3-.5.7-1 1.2-1.3s1.1-.5 1.7-.5c1 0 1.7.3 2.2.9.5.6.8 1.5.8 2.8v5.5h-1v-5.5c0-1-.2-1.8-.6-2.2-.4-.4-.9-.6-1.6-.6s-1.3.2-1.7.5c-.4.3-.7.8-.9 1.4v6.4h-1v-9h.8zM435.3 366.5c0 1.3-.3 2.4-.9 3.2s-1.4 1.2-2.5 1.2c-.7 0-1.2-.1-1.7-.4s-.9-.6-1.2-1.1l-.2 1.3h-.8v-12.9h1v5.3c.3-.5.7-.9 1.1-1.1s1-.4 1.7-.4c1.1 0 1.9.4 2.5 1.3s.9 2 .9 3.4v.2zm-1-.1c0-1.1-.2-2.1-.7-2.8-.4-.7-1.1-1.1-2-1.1-.7 0-1.2.2-1.7.5s-.7.8-.9 1.3v4.1c.2.5.5.9 1 1.2s1 .5 1.6.5c.9 0 1.5-.3 2-1 .4-.6.7-1.5.7-2.6v-.1zM440.3 366.2c0-1.3.4-2.4 1.1-3.3.7-.8 1.7-1.3 2.9-1.3s2.2.4 2.9 1.3c.7.8 1.1 1.9 1.1 3.3v.3c0 1.3-.4 2.4-1.1 3.3-.7.8-1.7 1.3-2.9 1.3s-2.2-.4-2.9-1.3-1.1-1.9-1.1-3.3v-.3zm1 .2c0 1 .3 1.9.8 2.6s1.3 1.1 2.2 1.1c.9 0 1.7-.4 2.2-1.1s.8-1.6.8-2.6v-.3c0-1-.3-1.9-.8-2.6-.5-.7-1.3-1.1-2.2-1.1s-1.7.4-2.2 1.1c-.5.7-.8 1.6-.8 2.6v.3zM456.4 365.5l2.4-3.7h1.2l-3 4.4 3.2 4.6H459l-2.6-3.8-2.6 3.8h-1.2l3.2-4.6-3-4.4h1.2l2.4 3.7zM474.4 364.3c0-.4.1-.8.4-1.1s.7-.4 1.1-.4c.5 0 .8.1 1.1.4s.4.6.4 1.1v.5c0 .4-.1.8-.4 1.1-.3.3-.7.4-1.1.4-.5 0-.8-.1-1.1-.4-.3-.3-.4-.6-.4-1.1v-.5zM501.5 369.2c-.3.4-.8.8-1.5 1.2-.7.4-1.6.6-2.7.6-1.4 0-2.5-.5-3.4-1.4s-1.3-2.2-1.3-3.7v-2.2c0-1.5.4-2.7 1.3-3.7.9-.9 2-1.4 3.3-1.4 1.3 0 2.4.3 3.1 1 .8.7 1.1 1.6 1.1 2.6h-.9c0-.8-.3-1.5-.9-2.1-.6-.5-1.4-.8-2.4-.8-1.1 0-2 .4-2.6 1.2-.7.8-1 1.8-1 3v2.2c0 1.3.3 2.3 1 3.1.7.8 1.6 1.2 2.7 1.2.8 0 1.5-.1 2.1-.4.5-.3.9-.6 1.1-.9v-3.1h-3.3v-.8h4.2v4.4zM513.6 369.3c-.3.5-.7.9-1.2 1.2s-1.1.4-1.7.4c-.9 0-1.7-.3-2.2-1-.5-.6-.8-1.6-.8-3v-5.2h1v5.2c0 1.1.2 1.9.6 2.4.4.5.9.7 1.6.7.7 0 1.3-.2 1.8-.5s.8-.8.9-1.4v-6.4h1v9h-.9l-.1-1.4zM524.7 362.7h-.7c-.6 0-1.1.2-1.5.5s-.7.8-.9 1.4v6.2h-1v-9h.9l.1 1.5v.1c.3-.6.6-1 1-1.3s1-.5 1.6-.5h.3c.1 0 .2 0 .3.1l-.1 1zM530.6 361.8l.1 1.5c.3-.5.7-.9 1.1-1.2s1-.4 1.7-.4 1.3.2 1.7.5.8.8 1 1.5c.3-.6.7-1.1 1.2-1.5s1.1-.5 1.8-.5c1 0 1.7.3 2.2 1 .5.6.8 1.6.8 3v5.2h-1v-5.3c0-1.1-.2-1.9-.6-2.3-.4-.5-.9-.7-1.6-.7-.8 0-1.3.2-1.8.7s-.7 1.1-.8 1.8V370.9h-1v-5.3c0-1.1-.2-1.9-.6-2.3s-.9-.7-1.6-.7c-.7 0-1.3.2-1.7.5s-.7.8-.9 1.4v6.3h-1v-9h1zM551.7 371c-1.2 0-2.1-.4-2.8-1.2-.7-.8-1.1-1.9-1.1-3.2v-.5c0-1.3.4-2.4 1.1-3.2s1.6-1.3 2.7-1.3 1.9.3 2.5 1 .9 1.6.9 2.8v.8h-6.3v.3c0 1 .3 1.9.8 2.5s1.2 1 2.1 1c.5 0 1.1-.1 1.5-.3.5-.2.8-.4 1.1-.7l.4.7c-.3.3-.7.6-1.2.8s-1 .5-1.7.5zm-.1-8.5c-.8 0-1.4.3-1.9.8s-.8 1.2-.9 2.1h5.1v-.2c0-.8-.2-1.5-.6-2s-.9-.7-1.7-.7zM569.5 364.3c0-.4.1-.8.4-1.1s.7-.4 1.1-.4c.5 0 .8.1 1.1.4s.4.6.4 1.1v.5c0 .4-.1.8-.4 1.1-.3.3-.7.4-1.1.4-.5 0-.8-.1-1.1-.4-.3-.3-.4-.6-.4-1.1v-.5zM590.3 365.1H589v5.7h-1v-12.1h1v5.5h1.3l4.7-5.5h1.1l-5 5.8 5.5 6.2h-1.2l-5.1-5.6zM602.7 359.2h-1v-1.4h1v1.4zm0 11.6h-1v-9h1v9zM614.6 370.8c-.1-.3-.1-.6-.1-.8v-.7c-.3.5-.7.9-1.3 1.2s-1.2.5-1.9.5c-.9 0-1.6-.2-2-.7s-.7-1.1-.7-1.9c0-.8.4-1.5 1.1-2 .7-.5 1.6-.7 2.7-.7h2.2v-1.1c0-.6-.2-1.1-.6-1.5-.4-.4-1-.5-1.7-.5s-1.2.2-1.6.5-.6.8-.6 1.3h-.9v-.1c0-.7.3-1.3.9-1.8s1.4-.8 2.4-.8 1.8.3 2.4.8c.6.5.9 1.2.9 2.2v4.4c0 .3 0 .6.1.9s.1.6.2.9h-1.5zm-3.3-.7c.8 0 1.4-.2 2-.5s.9-.8 1.1-1.4v-1.7h-2.2c-.8 0-1.5.2-2 .6-.5.4-.8.8-.8 1.4 0 .5.2.9.5 1.2.3.2.8.4 1.4.4zM630.5 364.3c0-.4.1-.8.4-1.1s.7-.4 1.1-.4c.5 0 .8.1 1.1.4s.4.6.4 1.1v.5c0 .4-.1.8-.4 1.1-.3.3-.7.4-1.1.4-.5 0-.8-.1-1.1-.4-.3-.3-.4-.6-.4-1.1v-.5zM658.3 358.7v12.1h-2.4v-10.2h-3.4v3.6c0 2.3-.4 4-1.1 5-.7 1-1.8 1.5-3.3 1.5h-.4v-1.9h.3c.8 0 1.3-.3 1.5-1s.4-1.9.4-3.7v-5.5h8.4zM667.7 371c-1.3 0-2.4-.4-3.1-1.2-.8-.8-1.1-1.9-1.1-3.2v-.3c0-1.3.4-2.4 1.1-3.3s1.7-1.3 3-1.3c1.2 0 2.1.4 2.8 1.1.6.7 1 1.7 1 3v1.3H666c0 .6.2 1.1.6 1.5s.8.6 1.5.6c.5 0 1-.1 1.4-.2.4-.1.8-.3 1.2-.5l.7 1.5c-.4.3-.8.5-1.5.7-.8.2-1.5.3-2.2.3zm-.2-7.5c-.5 0-.9.2-1.1.5s-.4.8-.5 1.3h3v-.2c0-.5-.1-.9-.3-1.2s-.6-.4-1.1-.4zM683.8 370.8h-2.4v-3.5h-3v3.5H676v-9h2.4v3.6h3v-3.6h2.4v9zM694.4 361.8h2.4v9h-2.4v-5.5l-2.9 5.5H689v-9h2.4v5.5l3-5.5zM709.8 370.8h-2.4v-3.5h-3v3.5H702v-9h2.4v3.6h3v-3.6h2.4v9zM721.1 363.7h-3.7v7.1H715v-9h6.1v1.9zM733.6 366.5c0 1.3-.3 2.4-.9 3.2-.6.8-1.5 1.2-2.6 1.2-.5 0-.9-.1-1.3-.3-.4-.2-.7-.4-.9-.8v4.3h-2.4v-12.4h2.2l.1 1.1c.3-.4.6-.7 1-.9.4-.2.8-.3 1.3-.3 1.1 0 2 .4 2.6 1.3.6.9.9 2 .9 3.4v.2zm-2.4-.1c0-.8-.1-1.5-.4-2.1-.3-.5-.7-.8-1.3-.8-.4 0-.7.1-.9.2-.3.1-.5.4-.6.6v3.9c.1.3.4.4.6.6.3.1.6.2 1 .2.6 0 1-.2 1.3-.7.3-.5.4-1.1.4-1.9zM743.8 370.8c-.1-.2-.2-.4-.2-.6s-.1-.5-.1-.7c-.2.4-.6.8-1 1.1-.4.3-.9.4-1.5.4-.9 0-1.7-.2-2.2-.7-.5-.5-.8-1.1-.8-2 0-.9.3-1.6 1-2s1.7-.7 3-.7h1.4v-.7c0-.4-.1-.8-.3-1s-.6-.4-1-.4-.7.1-.9.3c-.2.2-.3.5-.3.8h-2.3c0-.8.3-1.4 1-2s1.6-.8 2.7-.8 2 .3 2.6.8 1 1.3 1 2.3v3.7c0 .4 0 .8.1 1.2.1.4.2.7.3 1.1h-2.5zm-2.2-1.6c.4 0 .8-.1 1.1-.3.3-.2.6-.5.7-.7v-1.3H742c-.5 0-.9.1-1.2.4s-.4.6-.4.9c0 .3.1.5.3.7s.6.3.9.3zM751.3 368.9h.3c.4 0 .7-.3.9-.8s.3-1.4.4-2.6l.2-3.7h6.6v7.1h1.2v4.8h-2.4v-3h-5.3v3h-2.4v-4.8h.5zm4-3.4c0 .7-.1 1.4-.2 2-.1.6-.2 1.1-.4 1.5h2.6v-5.2h-1.9l-.1 1.7zM775.2 358.7h2.4v10.2h4.9v-10.2h2.4v10.2h1.6v4.8h-2.4v-3h-9v-12zM795.4 371c-1.3 0-2.4-.4-3.1-1.2-.8-.8-1.1-1.9-1.1-3.2v-.3c0-1.3.4-2.4 1.1-3.3s1.7-1.3 3-1.3c1.2 0 2.1.4 2.8 1.1.6.7 1 1.7 1 3v1.3h-5.4c0 .6.2 1.1.6 1.5s.8.6 1.5.6c.5 0 1-.1 1.4-.2.4-.1.8-.3 1.2-.5l.7 1.5c-.4.3-.8.5-1.5.7-.8.2-1.5.3-2.2.3zm-.2-7.5c-.5 0-.9.2-1.1.5s-.4.8-.5 1.3h3v-.2c0-.5-.1-.9-.3-1.2s-.6-.4-1.1-.4zM811.5 370.8h-2.4v-3.5h-3v3.5h-2.4v-9h2.4v3.6h3v-3.6h2.4v9zM824.4 363.7h-2.9v7.1h-2.4v-7.1h-2.8v-1.9h8.1v1.9zM837.1 366.5c0 1.3-.3 2.4-.9 3.2-.6.8-1.5 1.2-2.6 1.2-.5 0-.9-.1-1.3-.3-.4-.2-.7-.4-.9-.8v4.3H829v-12.4h2.2l.1 1.1c.3-.4.6-.7 1-.9.4-.2.8-.3 1.3-.3 1.1 0 2 .4 2.6 1.3.6.9.9 2 .9 3.4v.2zm-2.4-.1c0-.8-.1-1.5-.4-2.1-.3-.5-.7-.8-1.3-.8-.4 0-.7.1-.9.2-.3.1-.5.4-.6.6v3.9c.1.3.4.4.6.6.3.1.6.2 1 .2.6 0 1-.2 1.3-.7.3-.5.4-1.1.4-1.9zM851.5 364.3c0-.4.1-.8.4-1.1s.7-.4 1.1-.4c.5 0 .8.1 1.1.4s.4.6.4 1.1v.5c0 .4-.1.8-.4 1.1-.3.3-.7.4-1.1.4-.5 0-.8-.1-1.1-.4-.3-.3-.4-.6-.4-1.1v-.5zM875.8 369.3l4.5-10.6h1.2v12.1h-1v-10.2l-4.3 10.2h-.7l-4.4-10.4v10.4h-1v-12.1h1.3l4.4 10.6zM894.5 364.9H889v5h6.3v.8H888v-12.1h7.2v.8H889v4.5h5.4v1zM909 358.7v12.1h-1v-5.5c-.6.2-1.1.3-1.6.4-.5.1-1.1.1-1.7.1-1.3 0-2.3-.3-3-.9-.7-.6-1-1.5-1-2.8v-3.3h1v3.3c0 1 .2 1.8.7 2.2.5.4 1.3.7 2.3.7.6 0 1.1 0 1.7-.1s1.1-.2 1.6-.4v-5.7h1zM221.3 413.3l4.5-10.6h1.2v12.1h-1v-10.2l-4.3 10.2h-.7l-4.4-10.4v10.4h-1v-12.1h1.3l4.4 10.6zM234.4 403.2h-1v-1.4h1v1.4zm0 11.6h-1v-9h1v9zM241.4 405.8l.1 1.6c.3-.5.7-1 1.2-1.3s1.1-.5 1.7-.5c1 0 1.7.3 2.2.9.5.6.8 1.5.8 2.8v5.5h-1v-5.5c0-1-.2-1.8-.6-2.2-.4-.4-.9-.6-1.6-.6s-1.3.2-1.7.5c-.4.3-.7.8-.9 1.4v6.4h-1v-9h.8zM258.8 412.5c0-.4-.2-.8-.5-1.1s-1-.6-1.9-.8c-1.1-.2-1.9-.5-2.4-.9s-.8-.9-.8-1.6c0-.7.3-1.3.9-1.7s1.3-.7 2.3-.7c1 0 1.8.3 2.4.8.6.5.9 1.1.9 1.9h-.9c0-.5-.2-.9-.6-1.3-.4-.4-1-.5-1.7-.5s-1.3.2-1.6.5c-.4.3-.5.7-.5 1.1 0 .4.2.7.5 1s.9.5 1.9.7c1.1.2 1.8.6 2.4 1 .5.4.8 1 .8 1.7s-.3 1.4-.9 1.8c-.6.5-1.4.7-2.4.7-1.1 0-1.9-.3-2.6-.8-.6-.5-.9-1.1-.9-1.9v-.1h.9c0 .6.3 1.1.8 1.4.5.3 1.1.4 1.7.4.7 0 1.3-.2 1.7-.5.3-.3.5-.7.5-1.1zM267.5 410.4h-1v4.4h-1v-12.9h1v7.7h.9l3.4-3.8h1.2l-3.7 4.1 4 4.8h-1.1l-3.7-4.3zM300.5 411.9c0-.6-.2-1.1-.7-1.5-.5-.4-1.3-.8-2.5-1.1-1.3-.4-2.3-.8-2.9-1.3-.7-.5-1-1.2-1-2.2 0-.9.4-1.7 1.1-2.3s1.7-.9 2.9-.9 2.2.3 3 1c.7.7 1.1 1.5 1.1 2.6v.1h-.9c0-.8-.3-1.5-.9-2s-1.3-.8-2.2-.8c-.9 0-1.7.2-2.2.7s-.8 1-.8 1.6c0 .6.2 1.1.7 1.5s1.3.8 2.6 1.1c1.3.4 2.2.8 2.9 1.4.7.5 1 1.3 1 2.2 0 .9-.4 1.7-1.2 2.3-.8.6-1.8.9-3 .9s-2.2-.3-3.1-.9c-.9-.6-1.3-1.5-1.3-2.7h.9c0 .9.4 1.6 1.1 2.1.7.5 1.5.7 2.4.7.9 0 1.7-.2 2.3-.6.5-.7.7-1.3.7-1.9zM308.7 403.5v2.3h2v.8h-2v5.9c0 .6.1 1 .3 1.2s.5.4.9.4h.4c.2 0 .2 0 .4-.1l.2.7c-.1.1-.3.1-.5.2-.2 0-.4.1-.6.1-.6 0-1.1-.2-1.5-.6s-.5-1-.5-1.9v-5.9h-1.6v-.8h1.6v-2.3h.9zM320.1 406.7h-.7c-.6 0-1.1.2-1.5.5s-.7.8-.9 1.4v6.2h-1v-9h.9l.1 1.5v.1c.3-.6.6-1 1-1.3s1-.5 1.6-.5h.3c.1 0 .2 0 .3.1l-.1 1zM328.5 415c-1.2 0-2.1-.4-2.8-1.2-.7-.8-1.1-1.9-1.1-3.2v-.5c0-1.3.4-2.4 1.1-3.2s1.6-1.3 2.7-1.3 1.9.3 2.5 1 .9 1.6.9 2.8v.8h-6.3v.3c0 1 .3 1.9.8 2.5s1.2 1 2.1 1c.5 0 1.1-.1 1.5-.3.5-.2.8-.4 1.1-.7l.4.7c-.3.3-.7.6-1.2.8s-1 .5-1.7.5zm-.1-8.5c-.8 0-1.4.3-1.9.8s-.8 1.2-.9 2.1h5.1v-.2c0-.8-.2-1.5-.6-2s-.9-.7-1.7-.7zM340.6 415c-1.2 0-2.1-.4-2.8-1.2-.7-.8-1.1-1.9-1.1-3.2v-.5c0-1.3.4-2.4 1.1-3.2s1.6-1.3 2.7-1.3 1.9.3 2.5 1 .9 1.6.9 2.8v.8h-6.3v.3c0 1 .3 1.9.8 2.5s1.2 1 2.1 1c.5 0 1.1-.1 1.5-.3.5-.2.8-.4 1.1-.7l.4.7c-.3.3-.7.6-1.2.8s-1 .5-1.7.5zm-.1-8.5c-.8 0-1.4.3-1.9.8s-.8 1.2-.9 2.1h5.1v-.2c0-.8-.2-1.5-.6-2s-.9-.7-1.7-.7zM350.9 403.5v2.3h2v.8h-2v5.9c0 .6.1 1 .3 1.2s.5.4.9.4h.4c.2 0 .2 0 .4-.1l.2.7c-.1.1-.3.1-.5.2-.2 0-.4.1-.6.1-.6 0-1.1-.2-1.5-.6s-.5-1-.5-1.9v-5.9h-1.6v-.8h1.6v-2.3h.9zM383.4 413.2c-.3.4-.8.8-1.5 1.2s-1.6.6-2.7.6c-1.4 0-2.5-.5-3.4-1.4s-1.3-2.2-1.3-3.7v-2.2c0-1.5.4-2.7 1.3-3.7.9-.9 2-1.4 3.3-1.4 1.3 0 2.4.3 3.1 1 .8.7 1.1 1.6 1.1 2.6h-.9c0-.8-.3-1.5-.9-2.1-.6-.5-1.4-.8-2.4-.8-1.1 0-2 .4-2.6 1.2-.7.8-1 1.8-1 3v2.2c0 1.3.3 2.3 1 3.1.7.8 1.6 1.2 2.7 1.2.8 0 1.5-.1 2.1-.4.5-.3.9-.6 1.1-.9v-3.1h-3.3v-.8h4.2v4.4zM395.3 414.8c-.1-.3-.1-.6-.1-.8v-.7c-.3.5-.7.9-1.3 1.2s-1.2.5-1.9.5c-.9 0-1.6-.2-2-.7s-.7-1.1-.7-1.9c0-.8.4-1.5 1.1-2 .7-.5 1.6-.7 2.7-.7h2.2v-1.1c0-.6-.2-1.1-.6-1.5-.4-.4-1-.5-1.7-.5s-1.2.2-1.6.5-.6.8-.6 1.3h-.9v-.1c0-.7.3-1.3.9-1.8s1.4-.8 2.4-.8 1.8.3 2.4.8c.6.5.9 1.2.9 2.2v4.4c0 .3 0 .6.1.9s.1.6.2.9h-1.5zm-3.3-.7c.8 0 1.4-.2 2-.5s.9-.8 1.1-1.4v-1.7h-2.2c-.8 0-1.5.2-2 .6-.5.4-.8.8-.8 1.4 0 .5.2.9.5 1.2.4.2.8.4 1.4.4zM403 405.8l.1 1.5c.3-.5.7-.9 1.1-1.2s1-.4 1.7-.4 1.3.2 1.7.5.8.8 1 1.5c.3-.6.7-1.1 1.2-1.5s1.1-.5 1.8-.5c1 0 1.7.3 2.2 1 .5.6.8 1.6.8 3v5.2h-1v-5.3c0-1.1-.2-1.9-.6-2.3-.4-.5-.9-.7-1.6-.7-.8 0-1.3.2-1.8.7s-.7 1.1-.8 1.8V414.9h-1v-5.3c0-1.1-.2-1.9-.6-2.3s-.9-.7-1.6-.7c-.7 0-1.3.2-1.7.5s-.7.8-.9 1.4v6.3h-1v-9h1zM424.1 415c-1.2 0-2.1-.4-2.8-1.2-.7-.8-1.1-1.9-1.1-3.2v-.5c0-1.3.4-2.4 1.1-3.2s1.6-1.3 2.7-1.3 1.9.3 2.5 1 .9 1.6.9 2.8v.8h-6.3v.3c0 1 .3 1.9.8 2.5s1.2 1 2.1 1c.5 0 1.1-.1 1.5-.3.5-.2.8-.4 1.1-.7l.4.7c-.3.3-.7.6-1.2.8s-1 .5-1.7.5zm-.1-8.5c-.8 0-1.4.3-1.9.8s-.8 1.2-.9 2.1h5.1v-.2c0-.8-.2-1.5-.6-2s-1-.7-1.7-.7zM433.5 414h5.8v.8h-7.1v-.7l5.4-7.4h-5.2v-.9h6.5v.7l-5.4 7.5zM460.7 408.3c0-.4.1-.8.4-1.1s.7-.4 1.1-.4c.5 0 .8.1 1.1.4s.4.6.4 1.1v.5c0 .4-.1.8-.4 1.1-.3.3-.7.4-1.1.4-.5 0-.8-.1-1.1-.4-.3-.3-.4-.6-.4-1.1v-.5zM495.1 414.8h-1v-5.6h-6.9v5.6h-1v-12.1h1v5.7h6.9v-5.7h1v12.1zM509.5 403.6h-4.1v11.2h-1v-11.2h-4.3v-.8h9.4v.8zM514.9 414.8v-12.1h3.5c1.3 0 2.2.3 2.9.8.7.5 1.1 1.3 1.1 2.4 0 .6-.2 1.1-.5 1.6s-.8.8-1.4 1c.8.1 1.4.4 1.9 1s.7 1.2.7 2c0 1.1-.3 1.9-1 2.5-.7.6-1.6.9-2.8.9h-4.4zm1-6.7h2.9c.8 0 1.5-.2 1.9-.6.5-.4.7-.9.7-1.7 0-.8-.3-1.3-.8-1.7s-1.3-.6-2.2-.6h-2.5v4.6zm0 .9v5h3.4c.9 0 1.6-.2 2.1-.7.5-.4.8-1.1.8-1.8s-.2-1.3-.8-1.8-1.2-.7-2-.7h-3.5zM544.7 408.3c0-.4.1-.8.4-1.1s.7-.4 1.1-.4c.5 0 .8.1 1.1.4s.4.6.4 1.1v.5c0 .4-.1.8-.4 1.1-.3.3-.7.4-1.1.4-.5 0-.8-.1-1.1-.4-.3-.3-.4-.6-.4-1.1v-.5zM572.2 410v4.8h-2.4v-12.1h4.2c1.4 0 2.5.3 3.2.9s1.2 1.5 1.2 2.6c0 .6-.2 1.2-.5 1.6s-.8.8-1.4 1.1c.7.2 1.2.6 1.5 1.1s.5 1.1.5 1.8v.9c0 .3 0 .7.1 1.1.1.4.2.6.5.8v.2h-2.5c-.2-.2-.4-.5-.4-.9s-.1-.8-.1-1.2v-.9c0-.6-.2-1.1-.5-1.4s-.8-.5-1.4-.5h-2zm0-1.9h1.7c.7 0 1.2-.1 1.5-.4.3-.3.5-.7.5-1.3 0-.6-.2-1-.5-1.3s-.8-.5-1.5-.5h-1.8v3.5zM587.7 415c-1.3 0-2.4-.4-3.1-1.2-.8-.8-1.1-1.9-1.1-3.2v-.3c0-1.3.4-2.4 1.1-3.3s1.7-1.3 3-1.3c1.2 0 2.1.4 2.8 1.1.6.7 1 1.7 1 3v1.3H586c0 .6.2 1.1.6 1.5s.8.6 1.5.6c.5 0 1-.1 1.4-.2.4-.1.8-.3 1.2-.5l.7 1.5c-.4.3-.8.5-1.5.7-.8.2-1.4.3-2.2.3zm-.1-7.5c-.5 0-.9.2-1.1.5s-.4.8-.5 1.3h3v-.2c0-.5-.1-.9-.3-1.2s-.6-.4-1.1-.4zM595.8 410.4c0-1.4.3-2.6.9-3.4.6-.9 1.5-1.3 2.6-1.3.4 0 .9.1 1.2.3.4.2.7.5.9.8v-4.9h2.4v12.9h-2.1l-.2-1.1c-.3.4-.6.7-1 1-.4.2-.8.3-1.3.3-1.1 0-2-.4-2.6-1.2-.6-.8-.9-1.9-.9-3.2v-.2zm2.4.1c0 .8.1 1.4.4 1.9s.7.7 1.3.7c.3 0 .7-.1.9-.2.3-.1.5-.3.6-.6v-3.8c-.2-.3-.4-.5-.6-.7-.3-.2-.6-.2-.9-.2-.6 0-1 .3-1.3.8-.3.5-.4 1.2-.4 2.1zM617.2 410.5c0 1.3-.3 2.4-.9 3.2s-1.5 1.2-2.6 1.2c-.5 0-1-.1-1.4-.3-.4-.2-.7-.5-1-1l-.2 1.1H609v-12.9h2.4v4.9c.3-.4.6-.6.9-.8.4-.2.8-.3 1.2-.3 1.1 0 2 .4 2.6 1.3s.9 2 .9 3.4v.2zm-2.4-.1c0-.9-.1-1.6-.4-2.1-.3-.5-.7-.8-1.3-.8-.4 0-.7.1-1 .2-.3.2-.5.4-.6.7v3.8c.1.3.4.5.6.6s.6.2 1 .2c.6 0 1.1-.2 1.3-.7.2-.4.4-1.1.4-1.9zM627.6 413.5c-.3.5-.6.9-1.1 1.1s-.9.4-1.5.4c-.9 0-1.7-.3-2.2-1-.5-.6-.8-1.6-.8-3v-5.2h2.4v5.2c0 .8.1 1.3.3 1.6.2.3.5.4 1 .4.4 0 .7-.1 1-.2.3-.1.5-.3.7-.6v-6.5h2.4v9h-2l-.2-1.2zM637.7 414.8h-2.4v-12.9h2.4v12.9zM645.6 414.8h-2.4v-12.9h2.4v12.9zM667.6 408.3c0-.4.1-.8.4-1.1s.7-.4 1.1-.4c.5 0 .8.1 1.1.4s.4.6.4 1.1v.5c0 .4-.1.8-.4 1.1-.3.3-.7.4-1.1.4-.5 0-.8-.1-1.1-.4-.3-.3-.4-.6-.4-1.1v-.5zM694.1 409.3v5.5h-1v-12.1h4c1.3 0 2.3.3 3 .9.7.6 1 1.4 1 2.5 0 .6-.2 1.2-.6 1.7-.4.5-.9.9-1.6 1.1.7.2 1.3.5 1.6 1s.5 1.1.5 1.8v1.1c0 .4 0 .7.1 1 .1.3.2.5.4.7v.2h-1c-.2-.2-.3-.5-.4-.8-.1-.4-.1-.7-.1-1.1v-1.1c0-.7-.2-1.3-.7-1.8s-1.1-.6-2-.6h-3.2zm0-.8h2.9c1.1 0 1.9-.2 2.4-.7.5-.4.8-1 .8-1.8s-.2-1.4-.8-1.8-1.3-.6-2.3-.6h-3v4.9zM710.8 415c-1.2 0-2.1-.4-2.8-1.2-.7-.8-1.1-1.9-1.1-3.2v-.5c0-1.3.4-2.4 1.1-3.2s1.6-1.3 2.7-1.3 1.9.3 2.5 1 .9 1.6.9 2.8v.8h-6.3v.3c0 1 .3 1.9.8 2.5s1.2 1 2.1 1c.5 0 1.1-.1 1.5-.3.5-.2.8-.4 1.1-.7l.4.7c-.3.3-.7.6-1.2.8s-1 .5-1.7.5zm-.1-8.5c-.8 0-1.4.3-1.9.8s-.8 1.2-.9 2.1h5.1v-.2c0-.8-.2-1.5-.6-2s-.9-.7-1.7-.7zM722.9 415c-1.2 0-2.1-.4-2.8-1.2-.7-.8-1.1-1.9-1.1-3.2v-.5c0-1.3.4-2.4 1.1-3.2s1.6-1.3 2.7-1.3 1.9.3 2.5 1 .9 1.6.9 2.8v.8H720v.3c0 1 .3 1.9.8 2.5s1.2 1 2.1 1c.5 0 1.1-.1 1.5-.3.5-.2.8-.4 1.1-.7l.4.7c-.3.3-.7.6-1.2.8s-1.1.5-1.8.5zm-.1-8.5c-.8 0-1.4.3-1.9.8s-.8 1.2-.9 2.1h5.1v-.2c0-.8-.2-1.5-.6-2s-.9-.7-1.7-.7zM738.9 410.5c0 1.3-.3 2.4-.9 3.2s-1.4 1.2-2.5 1.2c-.7 0-1.2-.1-1.7-.4s-.9-.6-1.2-1.1l-.2 1.3h-.8v-12.9h1v5.3c.3-.5.7-.9 1.1-1.1s1-.4 1.7-.4c1.1 0 1.9.4 2.5 1.3s.9 2 .9 3.4v.2zm-1-.1c0-1.1-.2-2.1-.7-2.8-.4-.7-1.1-1.1-2-1.1-.7 0-1.2.2-1.7.5s-.7.8-.9 1.3v4.1c.2.5.5.9 1 1.2s1 .5 1.6.5c.9 0 1.5-.3 2-1 .4-.6.7-1.5.7-2.6v-.1zM744 410.2c0-1.3.4-2.4 1.1-3.3.7-.8 1.7-1.3 2.9-1.3s2.2.4 2.9 1.3c.7.8 1.1 1.9 1.1 3.3v.3c0 1.3-.4 2.4-1.1 3.3-.7.8-1.7 1.3-2.9 1.3s-2.2-.4-2.9-1.3-1.1-1.9-1.1-3.3v-.3zm1 .2c0 1 .3 1.9.8 2.6s1.3 1.1 2.2 1.1c.9 0 1.7-.4 2.2-1.1s.8-1.6.8-2.6v-.3c0-1-.3-1.9-.8-2.6-.5-.7-1.3-1.1-2.2-1.1s-1.7.4-2.2 1.1c-.5.7-.8 1.6-.8 2.6v.3zM759.4 410.4h-1v4.4h-1v-12.9h1v7.7h.9l3.4-3.8h1.2l-3.7 4.1 4 4.8h-1.1l-3.7-4.3zM785.3 408.3c0-.4.1-.8.4-1.1s.7-.4 1.1-.4c.5 0 .8.1 1.1.4s.4.6.4 1.1v.5c0 .4-.1.8-.4 1.1-.3.3-.7.4-1.1.4-.5 0-.8-.1-1.1-.4-.3-.3-.4-.6-.4-1.1v-.5zM817.7 411.9c0-.6-.2-1.1-.7-1.5-.5-.4-1.3-.8-2.5-1.1-1.3-.4-2.3-.8-2.9-1.3-.7-.5-1-1.2-1-2.2 0-.9.4-1.7 1.1-2.3s1.7-.9 2.9-.9 2.2.3 3 1c.7.7 1.1 1.5 1.1 2.6v.1h-.9c0-.8-.3-1.5-.9-2s-1.3-.8-2.2-.8c-.9 0-1.7.2-2.2.7s-.8 1-.8 1.6c0 .6.2 1.1.7 1.5s1.3.8 2.6 1.1c1.3.4 2.2.8 2.9 1.4.7.5 1 1.3 1 2.2 0 .9-.4 1.7-1.2 2.3-.8.6-1.8.9-3 .9s-2.2-.3-3.1-.9c-.9-.6-1.3-1.5-1.3-2.7h.9c0 .9.4 1.6 1.1 2.1.7.5 1.5.7 2.4.7.9 0 1.7-.2 2.3-.6.4-.7.7-1.3.7-1.9zM825.8 403.5v2.3h2v.8h-2v5.9c0 .6.1 1 .3 1.2s.5.4.9.4h.4c.2 0 .2 0 .4-.1l.2.7c-.1.1-.3.1-.5.2-.2 0-.4.1-.6.1-.6 0-1.1-.2-1.5-.6s-.5-1-.5-1.9v-5.9h-1.6v-.8h1.6v-2.3h.9zM837.2 406.7h-.7c-.6 0-1.1.2-1.5.5s-.7.8-.9 1.4v6.2h-1v-9h.9l.1 1.5v.1c.3-.6.6-1 1-1.3s1-.5 1.6-.5h.3c.1 0 .2 0 .3.1l-.1 1zM845.6 415c-1.2 0-2.1-.4-2.8-1.2-.7-.8-1.1-1.9-1.1-3.2v-.5c0-1.3.4-2.4 1.1-3.2s1.6-1.3 2.7-1.3 1.9.3 2.5 1 .9 1.6.9 2.8v.8h-6.3v.3c0 1 .3 1.9.8 2.5s1.2 1 2.1 1c.5 0 1.1-.1 1.5-.3.5-.2.8-.4 1.1-.7l.4.7c-.3.3-.7.6-1.2.8s-1 .5-1.7.5zm-.1-8.5c-.8 0-1.4.3-1.9.8s-.8 1.2-.9 2.1h5.1v-.2c0-.8-.2-1.5-.6-2s-.9-.7-1.7-.7zM857.7 415c-1.2 0-2.1-.4-2.8-1.2-.7-.8-1.1-1.9-1.1-3.2v-.5c0-1.3.4-2.4 1.1-3.2s1.6-1.3 2.7-1.3 1.9.3 2.5 1 .9 1.6.9 2.8v.8h-6.3v.3c0 1 .3 1.9.8 2.5s1.2 1 2.1 1c.5 0 1.1-.1 1.5-.3.5-.2.8-.4 1.1-.7l.4.7c-.3.3-.7.6-1.2.8s-.9.5-1.7.5zm-.1-8.5c-.8 0-1.4.3-1.9.8s-.8 1.2-.9 2.1h5.1v-.2c0-.8-.2-1.5-.6-2s-.9-.7-1.7-.7zM868 403.5v2.3h2v.8h-2v5.9c0 .6.1 1 .3 1.2s.5.4.9.4h.4c.2 0 .2 0 .4-.1l.2.7c-.1.1-.3.1-.5.2-.2 0-.4.1-.6.1-.6 0-1.1-.2-1.5-.6s-.5-1-.5-1.9v-5.9h-1.6v-.8h1.6v-2.3h.9zM882.6 410.5c0 1.3-.3 2.4-.9 3.2s-1.4 1.2-2.5 1.2c-.7 0-1.2-.1-1.7-.4s-.9-.6-1.2-1.1l-.2 1.3h-.8v-12.9h1v5.3c.3-.5.7-.9 1.1-1.1s1-.4 1.7-.4c1.1 0 1.9.4 2.5 1.3s.9 2 .9 3.4v.2zm-1-.1c0-1.1-.2-2.1-.7-2.8-.4-.7-1.1-1.1-2-1.1-.7 0-1.2.2-1.7.5s-.7.8-.9 1.3v4.1c.2.5.5.9 1 1.2s1 .5 1.6.5c.9 0 1.5-.3 2-1 .4-.6.7-1.5.7-2.6v-.1zM893.9 414.8c-.1-.3-.1-.6-.1-.8v-.7c-.3.5-.7.9-1.3 1.2s-1.2.5-1.9.5c-.9 0-1.6-.2-2-.7s-.7-1.1-.7-1.9c0-.8.4-1.5 1.1-2 .7-.5 1.6-.7 2.7-.7h2.2v-1.1c0-.6-.2-1.1-.6-1.5-.4-.4-1-.5-1.7-.5s-1.2.2-1.6.5-.6.8-.6 1.3h-.9v-.1c0-.7.3-1.3.9-1.8s1.4-.8 2.4-.8 1.8.3 2.4.8c.6.5.9 1.2.9 2.2v4.4c0 .3 0 .6.1.9s.1.6.2.9h-1.5zm-3.3-.7c.8 0 1.4-.2 2-.5s.9-.8 1.1-1.4v-1.7h-2.2c-.8 0-1.5.2-2 .6-.5.4-.8.8-.8 1.4 0 .5.2.9.5 1.2.3.2.8.4 1.4.4zM901.9 414.8h-1v-12.9h1v12.9zM909.1 414.8h-1v-12.9h1v12.9zM223.4 448.6H220v10.2h-2.4v-10.2h-3.4v-1.9h9.3v1.9zM237.9 458.8h-2.4v-5h-4.9v5h-2.4v-12.1h2.4v5.2h4.9v-5.2h2.4v12.1zM251.8 448.6h-3.5v10.2h-2.4v-10.2h-3.4v-1.9h9.3v1.9zM324.9 452.3c0-.4.1-.8.4-1.1s.7-.4 1.1-.4c.5 0 .8.1 1.1.4s.4.6.4 1.1v.5c0 .4-.1.8-.4 1.1-.3.3-.7.4-1.1.4-.5 0-.8-.1-1.1-.4-.3-.3-.4-.6-.4-1.1v-.5zM404.5 455.3l.4 2h.1l.4-2 2.5-8.6h1l2.5 8.6.4 2h.1l.4-2 2.1-8.6h1.1l-3.1 12.1h-.9l-2.7-9.3-.3-1.3-.3 1.3-2.8 9.3h-.9l-3.1-12.1h1.1l2 8.6zM427.3 453.1h-5.6v5.7h-1v-12.1h7.4v.8h-6.4v4.7h5.6v.9zM433.6 458.8v-12.1h3.5c1.3 0 2.2.3 2.9.8.7.5 1.1 1.3 1.1 2.4 0 .6-.2 1.1-.5 1.6s-.8.8-1.4 1c.8.1 1.4.4 1.9 1s.7 1.2.7 2c0 1.1-.3 1.9-1 2.5-.7.6-1.6.9-2.8.9h-4.4zm1-6.7h2.9c.8 0 1.5-.2 1.9-.6.5-.4.7-.9.7-1.7 0-.8-.3-1.3-.8-1.7s-1.3-.6-2.2-.6h-2.5v4.6zm0 .9v5h3.4c.9 0 1.6-.2 2.1-.7.5-.4.8-1.1.8-1.8s-.2-1.3-.8-1.8-1.2-.7-2-.7h-3.5zM453.8 455.4h-5.3l-1.2 3.4h-1l4.4-12.1h.9l4.4 12.1h-1l-1.2-3.4zm-5-.9h4.7l-2.3-6.4-2.4 6.4zM529.2 452.3c0-.4.1-.8.4-1.1s.7-.4 1.1-.4c.5 0 .8.1 1.1.4s.4.6.4 1.1v.5c0 .4-.1.8-.4 1.1-.3.3-.7.4-1.1.4-.5 0-.8-.1-1.1-.4-.3-.3-.4-.6-.4-1.1v-.5zM607.1 458h7.4v.8H606v-.8l7.1-10.5h-6.9v-.8h8.1v.7l-7.2 10.6zM623.3 459c-1.2 0-2.1-.4-2.8-1.2-.7-.8-1.1-1.9-1.1-3.2v-.5c0-1.3.4-2.4 1.1-3.2s1.6-1.3 2.7-1.3 1.9.3 2.5 1 .9 1.6.9 2.8v.8h-6.3v.3c0 1 .3 1.9.8 2.5s1.2 1 2.1 1c.5 0 1.1-.1 1.5-.3.5-.2.8-.4 1.1-.7l.4.7c-.3.3-.7.6-1.2.8s-1 .5-1.7.5zm-.1-8.5c-.8 0-1.4.3-1.9.8s-.8 1.2-.9 2.1h5.1v-.2c0-.8-.2-1.5-.6-2s-.9-.7-1.7-.7zM636.1 450.7h-.7c-.6 0-1.1.2-1.5.5s-.7.8-.9 1.4v6.2h-1v-9h.9l.1 1.5v.1c.3-.6.6-1 1-1.3s1-.5 1.6-.5h.3c.1 0 .2 0 .3.1l-.1 1zM640.5 454.2c0-1.3.4-2.4 1.1-3.3.7-.8 1.7-1.3 2.9-1.3s2.2.4 2.9 1.3c.7.8 1.1 1.9 1.1 3.3v.3c0 1.3-.4 2.4-1.1 3.3-.7.8-1.7 1.3-2.9 1.3s-2.2-.4-2.9-1.3-1.1-1.9-1.1-3.3v-.3zm1 .2c0 1 .3 1.9.8 2.6s1.3 1.1 2.2 1.1c.9 0 1.7-.4 2.2-1.1s.8-1.6.8-2.6v-.3c0-1-.3-1.9-.8-2.6-.5-.7-1.3-1.1-2.2-1.1s-1.7.4-2.2 1.1c-.5.7-.8 1.6-.8 2.6v.3zM722.1 452.3c0-.4.1-.8.4-1.1s.7-.4 1.1-.4c.5 0 .8.1 1.1.4s.4.6.4 1.1v.5c0 .4-.1.8-.4 1.1-.3.3-.7.4-1.1.4-.5 0-.8-.1-1.1-.4-.3-.3-.4-.6-.4-1.1v-.5zM801.5 456.9h5.5v1.9h-8.4v-1.3l5.4-9h-5.4v-1.9h8.3v1.2l-5.4 9.1zM817.3 457.5c-.3.5-.6.9-1.1 1.1s-.9.4-1.5.4c-.9 0-1.7-.3-2.2-1-.5-.6-.8-1.6-.8-3v-5.2h2.4v5.2c0 .8.1 1.3.3 1.6.2.3.5.4 1 .4.4 0 .7-.1 1-.2.3-.1.5-.3.7-.6v-6.5h2.4v9h-2l-.2-1.2zM827.4 447.7H825v-1.8h2.4v1.8zm0 11.1H825v-9h2.4v9zM832.4 454.4c0-1.4.3-2.6.9-3.4.6-.9 1.5-1.3 2.6-1.3.4 0 .9.1 1.2.3.4.2.7.5.9.8v-4.9h2.4v12.9h-2.1l-.2-1.1c-.3.4-.6.7-1 1-.4.2-.8.3-1.3.3-1.1 0-2-.4-2.6-1.2-.6-.8-.9-1.9-.9-3.2v-.2zm2.4.1c0 .8.1 1.4.4 1.9s.7.7 1.3.7c.3 0 .7-.1.9-.2.3-.1.5-.3.6-.6v-3.8c-.2-.3-.4-.5-.6-.7-.3-.2-.6-.2-.9-.2-.6 0-1 .3-1.3.8-.3.5-.4 1.2-.4 2.1zM849.7 459c-1.3 0-2.4-.4-3.1-1.2-.8-.8-1.1-1.9-1.1-3.2v-.3c0-1.3.4-2.4 1.1-3.3s1.7-1.3 3-1.3c1.2 0 2.1.4 2.8 1.1.6.7 1 1.7 1 3v1.3H848c0 .6.2 1.1.6 1.5s.8.6 1.5.6c.5 0 1-.1 1.4-.2.4-.1.8-.3 1.2-.5l.7 1.5c-.4.3-.8.5-1.5.7-.8.2-1.5.3-2.2.3zm-.2-7.5c-.5 0-.9.2-1.1.5s-.4.8-.5 1.3h3v-.2c0-.5-.1-.9-.3-1.2s-.6-.4-1.1-.4zM862.8 451.9h-.9c-.4 0-.7.1-.9.2-.2.2-.4.4-.5.6v6.1h-2.4v-9h2.2l.1 1.3c.2-.5.5-.8.8-1.1s.7-.4 1.2-.4h.3c.1 0 .2 0 .3.1l-.2 2.2zM875.6 454.5c0 1.3-.3 2.4-.9 3.2-.6.8-1.5 1.2-2.6 1.2-.5 0-.9-.1-1.3-.3-.4-.2-.7-.4-.9-.8v4.3h-2.4v-12.4h2.2l.1 1.1c.3-.4.6-.7 1-.9.4-.2.8-.3 1.3-.3 1.1 0 2 .4 2.6 1.3.6.9.9 2 .9 3.4v.2zm-2.5-.1c0-.8-.1-1.5-.4-2.1-.3-.5-.7-.8-1.3-.8-.4 0-.7.1-.9.2-.3.1-.5.4-.6.6v3.9c.1.3.4.4.6.6.3.1.6.2 1 .2.6 0 1-.2 1.3-.7.3-.5.4-1.1.4-1.9zM885.7 458.8c-.1-.2-.2-.4-.2-.6s-.1-.5-.1-.7c-.2.4-.6.8-1 1.1-.4.3-.9.4-1.5.4-.9 0-1.7-.2-2.2-.7-.5-.5-.8-1.1-.8-2 0-.9.3-1.6 1-2s1.7-.7 3-.7h1.4v-.7c0-.4-.1-.8-.3-1s-.6-.4-1-.4-.7.1-.9.3c-.2.2-.3.5-.3.8h-2.3c0-.8.3-1.4 1-2s1.6-.8 2.7-.8 2 .3 2.6.8 1 1.3 1 2.3v3.7c0 .4 0 .8.1 1.2.1.4.2.7.3 1.1h-2.5zm-2.2-1.6c.4 0 .8-.1 1.1-.3.3-.2.6-.5.7-.7v-1.3H884c-.5 0-.9.1-1.2.4s-.4.6-.4.9c0 .3.1.5.3.7s.5.3.8.3zM897.7 451.9h-.9c-.4 0-.7.1-.9.2-.2.2-.4.4-.5.6v6.1H893v-9h2.2l.1 1.3c.2-.5.5-.8.8-1.1s.7-.4 1.2-.4h.3c.1 0 .2 0 .3.1l-.2 2.2zM905.4 455h-.6v3.8h-2.4v-12.9h2.4v7.3h.5l2.2-3.4h2.8l-2.9 4.1 3.3 4.9h-2.8l-2.5-3.8z"/><linearGradient id="a" gradientUnits="userSpaceOnUse" x1="560.533" y1="50.805" x2="560.533" y2="50.805"><stop offset="0" stop-color="#eaff00"/><stop offset=".203" stop-color="#eaff00"/><stop offset=".73" stop-color="#a2fc59"/><stop offset="1" stop-color="#57f866"/></linearGradient><linearGradient id="b" gradientUnits="userSpaceOnUse" x1="560.533" y1="343.779" x2="560.533" y2="343.779"><stop offset="0" stop-color="#eaff00"/><stop offset=".203" stop-color="#eaff00"/><stop offset=".73" stop-color="#a2fc59"/><stop offset="1" stop-color="#57f866"/></linearGradient><linearGradient id="c" gradientUnits="userSpaceOnUse" x1="560.533" y1="636.753" x2="560.533" y2="636.753"><stop offset="0" stop-color="#eaff00"/><stop offset=".203" stop-color="#eaff00"/><stop offset=".73" stop-color="#a2fc59"/><stop offset="1" stop-color="#57f866"/></linearGradient><linearGradient id="d" gradientUnits="userSpaceOnUse" x1="560.533" y1="343.779" x2="560.533" y2="343.779"><stop offset="0" stop-color="#eaff00"/><stop offset=".203" stop-color="#eaff00"/><stop offset=".73" stop-color="#a2fc59"/><stop offset="1" stop-color="#57f866"/></linearGradient><g><path d="M556 171.8l12.4 9-3.3 3.2-7.5-6.8zM546.9 203.7l-5.2 4.4 1.5-78 3.7 7.1zM578.4 178.3L554.8 157v-4.7l29.1 21.7zM578.6 196.2l-41.4 32.3v-3.3l37.6-33.1z"/><path d="M554.8 170.9l3.4 2.5.1 17.4-3.4 3.3z"/><path d="M578.5 178.2L554.8 197l.1-3 19.7-19.7z"/><path d="M578.5 196.3l-12.7-11.7 2.4-3.9 15.5 11.7z"/></g></svg>