<?xml version="1.0" encoding="utf-8"?>
<!-- Generator: Adobe Illustrator 18.0.0, SVG Export Plug-In . SVG Version: 6.00 Build 0)  -->
<!DOCTYPE svg PUBLIC "-//W3C//DTD SVG 1.1//EN" "http://www.w3.org/Graphics/SVG/1.1/DTD/svg11.dtd">
<svg version="1.1" id="START" xmlns="http://www.w3.org/2000/svg" xmlns:xlink="http://www.w3.org/1999/xlink" x="0px" y="0px"
	 viewBox="126 -11.4 850.4 708.7" enable-background="new 126 -11.4 850.4 708.7" xml:space="preserve">
<linearGradient id="SVGID_1_" gradientUnits="userSpaceOnUse" x1="268.262" y1="422.495" x2="834.1732" y2="260.2225">
	<stop  offset="0" style="stop-color:#EAFF00"/>
	<stop  offset="0.2033" style="stop-color:#EAFF00"/>
	<stop  offset="0.73" style="stop-color:#A2FC59"/>
	<stop  offset="1" style="stop-color:#57F866"/>
</linearGradient>
<ellipse fill="none" stroke="url(#SVGID_1_)" stroke-width="15" stroke-miterlimit="10" cx="551.2" cy="341.4" rx="286.3" ry="293"/>
<g>
	<path d="M524.2,314.3l-3.5-12.6l-3.5,12.6h-1.4l-4.2-14.7h1.4l3.5,12.9l3.6-12.9h1.1l3.6,12.9l3.5-12.9h1.4l-4.2,14.7H524.2z"/>
	<path d="M532.6,306.9c0-4.3,2.8-7.6,7.1-7.6c4.3,0,7.1,3.3,7.1,7.6s-2.8,7.6-7.1,7.6C535.4,314.5,532.6,311.2,532.6,306.9z
		 M545.5,306.9c0-3.7-2.3-6.4-5.8-6.4c-3.6,0-5.8,2.7-5.8,6.4c0,3.7,2.2,6.4,5.8,6.4C543.3,313.4,545.5,310.6,545.5,306.9z"/>
	<path d="M559.7,314.3l-4.1-6.1h-3.2v6.1h-1.3v-14.7h5.5c2.5,0,4.5,1.6,4.5,4.3c0,2.7-1.9,4.1-4.1,4.2l4.2,6.2H559.7z M559.7,303.9
		c0-1.8-1.3-3.1-3.3-3.1h-4.1v6.3h4.1C558.4,307.1,559.7,305.7,559.7,303.9z"/>
	<path d="M574.2,314.3l-6.1-6.9l-1.6,1.8v5.1h-1.3v-14.7h1.3v8l7.1-8h1.6l-6.2,7l6.8,7.7H574.2z"/>
	<path d="M578.4,312.2l0.8-0.9c0.9,1.1,2.5,2.1,4.6,2.1c3,0,3.9-1.7,3.9-2.9c0-4.3-8.8-2.1-8.8-7.2c0-2.4,2.2-3.9,4.8-3.9
		c2.2,0,3.8,0.8,5,2.1l-0.8,0.9c-1.1-1.3-2.6-1.8-4.2-1.8c-2,0-3.4,1.1-3.4,2.7c0,3.8,8.8,1.7,8.8,7.2c0,1.9-1.3,4.2-5.2,4.2
		C581.4,314.5,579.5,313.6,578.4,312.2z"/>
</g>
<g>
	<path d="M446.6,522.8c0-3.3,2.4-5.5,5.4-5.5c1.7,0,3,0.8,3.9,1.9l-0.8,0.5c-0.7-0.9-1.8-1.6-3.1-1.6c-2.5,0-4.5,1.9-4.5,4.7
		c0,2.8,1.9,4.7,4.5,4.7c1.3,0,2.4-0.6,3.1-1.6l0.8,0.5c-0.9,1.2-2.2,1.9-3.9,1.9C449,528.3,446.6,526.1,446.6,522.8z"/>
	<path d="M459.2,528.1v-10.7h0.8v10.7H459.2z"/>
	<path d="M463.8,518.5c0-0.4,0.3-0.6,0.6-0.6c0.4,0,0.6,0.3,0.6,0.6s-0.3,0.6-0.6,0.6C464.1,519.2,463.8,518.9,463.8,518.5z
		 M464,528.1v-7.7h0.8v7.7H464z"/>
	<path d="M468.4,524.2c0-2.3,1.5-4,3.8-4c1.3,0,2.1,0.5,2.7,1.3l-0.6,0.5c-0.6-0.8-1.3-1.1-2.1-1.1c-1.8,0-2.9,1.4-2.9,3.3
		c0,1.9,1.1,3.3,2.9,3.3c0.8,0,1.6-0.3,2.1-1.1l0.6,0.5c-0.6,0.8-1.4,1.3-2.7,1.3C469.9,528.3,468.4,526.5,468.4,524.2z"/>
	<path d="M483.6,528.1l-3.1-3.7l-1.4,1.4v2.3h-0.8v-10.7h0.8v7.4l4.6-4.4h1.1l-3.6,3.5l3.6,4.2H483.6z"/>
	<path d="M492.9,524.2c0-2.3,1.5-4,3.7-4c2.3,0,3.7,1.8,3.7,4c0,2.3-1.4,4.1-3.7,4.1C494.3,528.3,492.9,526.5,492.9,524.2z
		 M499.4,524.2c0-1.7-1-3.3-2.8-3.3c-1.8,0-2.8,1.6-2.8,3.3c0,1.7,1,3.3,2.8,3.3C498.4,527.5,499.4,526,499.4,524.2z"/>
	<path d="M509.1,528.1v-5.2c0-1.5-0.8-1.9-1.9-1.9c-1,0-2,0.6-2.5,1.3v5.8h-0.8v-7.7h0.8v1.2c0.6-0.7,1.7-1.4,2.8-1.4
		c1.6,0,2.4,0.8,2.4,2.5v5.4H509.1z"/>
	<path d="M519.7,526.6v-5.5h-1.3v-0.7h1.3v-2.1h0.8v2.1h1.6v0.7h-1.6v5.4c0,0.6,0.3,1.1,0.8,1.1c0.4,0,0.7-0.2,0.9-0.4l0.3,0.6
		c-0.3,0.3-0.7,0.5-1.3,0.5C520.2,528.3,519.7,527.7,519.7,526.6z"/>
	<path d="M525,524.2c0-2.3,1.5-4,3.7-4c2.3,0,3.7,1.8,3.7,4c0,2.3-1.4,4.1-3.7,4.1C526.4,528.3,525,526.5,525,524.2z M531.5,524.2
		c0-1.7-1-3.3-2.8-3.3c-1.8,0-2.8,1.6-2.8,3.3c0,1.7,1,3.3,2.8,3.3C530.5,527.5,531.5,526,531.5,524.2z"/>
	<path d="M548.2,528.1l-2.2-6.6l-2.2,6.6h-0.8l-2.5-7.7h0.9l2,6.6l2.2-6.6h0.7l2.2,6.6l2-6.6h0.9l-2.5,7.7H548.2z"/>
	<path d="M559.4,528.1v-0.9c-0.7,0.8-1.6,1.1-2.6,1.1c-1.3,0-2.7-0.9-2.7-2.6c0-1.7,1.4-2.6,2.7-2.6c1.1,0,2,0.4,2.6,1.1v-1.6
		c0-1.2-0.9-1.8-2.1-1.8c-1,0-1.7,0.3-2.4,1.1l-0.5-0.6c0.8-0.9,1.7-1.3,3-1.3c1.6,0,2.8,0.8,2.8,2.5v5.4H559.4z M559.4,526.6v-1.7
		c-0.5-0.7-1.4-1.1-2.3-1.1c-1.3,0-2.1,0.8-2.1,1.9c0,1.1,0.8,1.9,2.1,1.9C558,527.6,558.9,527.3,559.4,526.6z"/>
	<path d="M564.5,526.6v-5.5h-1.3v-0.7h1.3v-2.1h0.8v2.1h1.6v0.7h-1.6v5.4c0,0.6,0.3,1.1,0.8,1.1c0.4,0,0.7-0.2,0.9-0.4l0.3,0.6
		c-0.3,0.3-0.7,0.5-1.3,0.5C565,528.3,564.5,527.7,564.5,526.6z"/>
	<path d="M569.7,524.2c0-2.3,1.5-4,3.8-4c1.3,0,2.1,0.5,2.7,1.3l-0.6,0.5c-0.6-0.8-1.3-1.1-2.1-1.1c-1.8,0-2.9,1.4-2.9,3.3
		c0,1.9,1.1,3.3,2.9,3.3c0.8,0,1.6-0.3,2.1-1.1l0.6,0.5c-0.6,0.8-1.4,1.3-2.7,1.3C571.2,528.3,569.7,526.5,569.7,524.2z"/>
	<path d="M584.7,528.1v-5.3c0-1.5-0.8-1.9-1.9-1.9c-1,0-2,0.6-2.5,1.3v5.8h-0.8v-10.7h0.8v4.1c0.6-0.7,1.7-1.4,2.8-1.4
		c1.6,0,2.4,0.7,2.4,2.5v5.4H584.7z"/>
	<path d="M604.3,528.1v-5.4c0-1.1-0.5-1.8-1.6-1.8c-0.8,0-1.8,0.6-2.2,1.3v5.9h-0.8v-5.4c0-1.1-0.4-1.8-1.6-1.8
		c-0.8,0-1.7,0.6-2.2,1.3v5.8h-0.8v-7.7h0.8v1.2c0.3-0.5,1.4-1.4,2.5-1.4c1.2,0,1.8,0.7,2,1.5c0.4-0.7,1.5-1.5,2.6-1.5
		c1.4,0,2.1,0.8,2.1,2.4v5.6H604.3z"/>
	<path d="M608.8,530.4c0.2,0.1,0.5,0.1,0.7,0.1c0.5,0,0.9-0.2,1.2-0.9l0.6-1.4l-3.3-7.8h0.9l2.8,6.8l2.8-6.8h0.9l-4,9.4
		c-0.4,1-1.1,1.4-2,1.4c-0.3,0-0.6,0-0.8-0.1L608.8,530.4z"/>
	<path d="M626,528.1l-3.3-7.7h0.9l2.8,6.8l2.8-6.8h0.9l-3.3,7.7H626z"/>
	<path d="M632.8,518.5c0-0.4,0.3-0.6,0.6-0.6c0.4,0,0.6,0.3,0.6,0.6s-0.3,0.6-0.6,0.6C633.1,519.2,632.8,518.9,632.8,518.5z
		 M633.1,528.1v-7.7h0.8v7.7H633.1z"/>
	<path d="M643.6,528.1v-1.2c-0.5,0.8-1.5,1.4-2.7,1.4c-2,0-3.5-1.6-3.5-4c0-2.4,1.4-4.1,3.5-4.1c1.1,0,2.1,0.6,2.7,1.4v-4.2h0.8
		v10.7H643.6z M643.6,526.2v-3.8c-0.4-0.8-1.5-1.4-2.5-1.4c-1.7,0-2.7,1.4-2.7,3.3s1,3.3,2.7,3.3
		C642.2,527.5,643.2,526.9,643.6,526.2z"/>
	<path d="M648.1,524.2c0-2.2,1.6-4,3.7-4c2.4,0,3.6,1.9,3.6,4.1v0.2H649c0.1,1.7,1.2,3.1,3,3.1c1,0,1.9-0.4,2.5-1.1l0.4,0.5
		c-0.8,0.8-1.7,1.2-3,1.2C649.7,528.3,648.1,526.6,648.1,524.2z M651.8,520.9c-1.8,0-2.7,1.6-2.8,2.9h5.6
		C654.6,522.5,653.7,520.9,651.8,520.9z"/>
	<path d="M658.6,524.2c0-2.3,1.5-4,3.7-4c2.3,0,3.7,1.8,3.7,4c0,2.3-1.4,4.1-3.7,4.1C660,528.3,658.6,526.5,658.6,524.2z
		 M665.1,524.2c0-1.7-1-3.3-2.8-3.3c-1.8,0-2.8,1.6-2.8,3.3c0,1.7,1,3.3,2.8,3.3C664.1,527.5,665.1,526,665.1,524.2z"/>
	<path d="M668.9,527.1l0.5-0.6c0.5,0.6,1.4,1.1,2.5,1.1c1.3,0,2.1-0.7,2.1-1.6c0-2.1-4.9-0.9-4.9-3.7c0-1.2,1-2.1,2.8-2.1
		c1.3,0,2.2,0.5,2.8,1.1l-0.5,0.6c-0.4-0.6-1.3-1-2.3-1c-1.2,0-1.9,0.6-1.9,1.4c0,1.9,4.9,0.8,4.9,3.7c0,1.2-1,2.3-2.9,2.3
		C670.6,528.3,669.7,527.9,668.9,527.1z"/>
</g>
<g>
	<path d="M148.3,408.9l4-4.6c4.6,5.4,12.2,10.5,22.5,10.5c14.8,0,19-8.2,19-14.4c0-21.2-43.2-10.2-43.2-35.3
		c0-11.8,10.6-19.2,23.7-19.2c10.8,0,18.8,3.8,24.4,10.2l-4.1,4.5c-5.2-6.3-12.5-9.1-20.6-9.1c-9.6,0-16.8,5.5-16.8,13.3
		c0,18.5,43.2,8.3,43.2,35.2c0,9.3-6.2,20.4-25.6,20.4C162.8,420.3,153.8,415.6,148.3,408.9z"/>
	<path d="M247.4,419v-72h45.7v5.6h-39.5v26.7h38.8v5.6h-38.8v28.5h39.5v5.6H247.4z"/>
	<path d="M340.7,419v-72h6.2v66.4h34.9v5.6H340.7z"/>
	<path d="M427.6,419v-72h45.7v5.6h-39.5v26.7h38.8v5.6h-38.8v28.5h39.5v5.6H427.6z"/>
	<path d="M518.2,383c0-22.1,16.1-37.3,36.5-37.3c11.4,0,20.1,5.1,26.2,12.7l-5.2,3.3c-4.5-6.3-12.4-10.5-21.1-10.5
		c-17,0-30,12.9-30,31.6c0,18.6,13.1,31.6,30,31.6c8.6,0,16.5-4.2,21.1-10.5l5.2,3.2c-6.4,7.9-14.8,12.9-26.2,12.9
		C534.3,420.3,518.2,405.2,518.2,383z"/>
	<path d="M644.2,419v-66.4h-23.5V347H674v5.6h-23.5V419H644.2z"/>
	<path d="M719.2,419v-72h6.2v72H719.2z"/>
	<path d="M772.9,383c0-21.1,13.8-37.3,35-37.3c21.1,0,35,16.2,35,37.3c0,21.1-13.9,37.3-35,37.3C786.8,420.3,772.9,404.1,772.9,383z
		 M836.5,383c0-18.4-11.2-31.6-28.5-31.6c-17.5,0-28.5,13.3-28.5,31.6c0,18.1,11,31.6,28.5,31.6C825.2,414.7,836.5,401.2,836.5,383z
		"/>
	<path d="M942.1,419l-45.4-61.9V419h-6.2v-72h6.3l45.1,61v-61h6.2v72H942.1z"/>
</g>
<line fill="none" stroke="#000000" stroke-width="0.763" x1="458.1" y1="470.6" x2="644.4" y2="470.6"/>
<g>
	<polygon points="546.7,169.7 559.1,178.7 555.8,181.9 548.3,175.1 	"/>
	<polygon points="537.6,201.6 532.3,206 533.9,128.1 537.6,135.2 	"/>
	<polygon points="569,176.3 545.5,154.9 545.5,150.2 574.6,171.9 	"/>
	<polygon points="569.3,194.1 527.9,226.4 527.9,223.1 565.5,190.1 	"/>
	<polygon points="545.5,168.8 548.9,171.4 549,188.8 545.5,192.1 	"/>
	<polygon points="569.2,176.1 545.5,194.9 545.5,191.9 565.3,172.3 	"/>
	<polygon points="569.2,194.2 556.4,182.5 558.9,178.7 574.4,190.3 	"/>
</g>
<g id="Ebene_5">
	<g display="none">
		<path display="inline" d="M551.2,561.1c0.3,0,0.6,0.3,0.6,0.6v26.9l9.2-9.3c0.1-0.1,0.2-0.2,0.4-0.2c0.3,0,0.6,0.3,0.6,0.6
			c0,0.2-0.1,0.3-0.2,0.4l-10.2,10.2c-0.1,0.1-0.2,0.2-0.4,0.2c-0.1,0-0.3-0.1-0.4-0.2l-10.2-10.2c-0.1-0.1-0.2-0.2-0.2-0.4
			c0-0.3,0.3-0.6,0.6-0.6c0.1,0,0.3,0.1,0.4,0.2l9.2,9.2v-26.8C550.6,561.4,550.9,561.1,551.2,561.1z"/>
	</g>
	<g display="none">
		<path display="inline" d="M550.6,589.9v-26.8l-9.2,9.2c-0.1,0.1-0.2,0.2-0.4,0.2c-0.3,0-0.6-0.3-0.6-0.6c0-0.2,0.1-0.3,0.2-0.4
			l10.2-10.2c0.1-0.1,0.3-0.2,0.4-0.2c0.1,0,0.3,0.1,0.4,0.2l10.2,10.2c0.1,0.1,0.2,0.2,0.2,0.4c0,0.3-0.3,0.6-0.6,0.6
			c-0.1,0-0.3-0.1-0.4-0.2l-9.2-9.3v26.9c0,0.3-0.3,0.6-0.6,0.6C550.9,590.5,550.6,590.2,550.6,589.9z"/>
	</g>
	<g>
		<path d="M536.5,575.8c0-0.3,0.3-0.6,0.6-0.6H564l-9.3-9.2c-0.1-0.1-0.2-0.2-0.2-0.4c0-0.3,0.3-0.6,0.6-0.6c0.2,0,0.3,0.1,0.4,0.2
			l10.2,10.2c0.1,0.1,0.2,0.2,0.2,0.4c0,0.1-0.1,0.3-0.2,0.4l-10.2,10.2c-0.1,0.1-0.2,0.2-0.4,0.2c-0.3,0-0.6-0.3-0.6-0.6
			c0-0.2,0.1-0.3,0.2-0.4l9.2-9.2h-26.8C536.8,576.4,536.5,576.1,536.5,575.8z"/>
	</g>
	<g display="none">
		<path display="inline" d="M565.3,576.4h-26.8l9.2,9.2c0.1,0.1,0.2,0.2,0.2,0.4c0,0.3-0.3,0.6-0.6,0.6c-0.1,0-0.3-0.1-0.4-0.2
			l-10.2-10.2c-0.1-0.1-0.2-0.3-0.2-0.4c0-0.2,0.1-0.3,0.2-0.4l10.2-10.2c0.1-0.1,0.2-0.2,0.4-0.2c0.3,0,0.6,0.3,0.6,0.6
			c0,0.2-0.1,0.3-0.2,0.4l-9.3,9.2h26.9c0.3,0,0.6,0.3,0.6,0.6C565.9,576.1,565.6,576.4,565.3,576.4z"/>
	</g>
</g>
</svg>
