<?xml version="1.0" encoding="utf-8"?>
<!-- Generator: Adobe Illustrator 18.0.0, SVG Export Plug-In . SVG Version: 6.00 Build 0)  -->
<!DOCTYPE svg PUBLIC "-//W3C//DTD SVG 1.1//EN" "http://www.w3.org/Graphics/SVG/1.1/DTD/svg11.dtd">
<svg version="1.1" id="START" xmlns="http://www.w3.org/2000/svg" xmlns:xlink="http://www.w3.org/1999/xlink" x="0px" y="0px"
	 viewBox="126 -11.4 850.4 708.7" enable-background="new 126 -11.4 850.4 708.7" xml:space="preserve">
<linearGradient id="SVGID_1_" gradientUnits="userSpaceOnUse" x1="268.262" y1="422.495" x2="834.1732" y2="260.2225">
	<stop  offset="0" style="stop-color:#EAFF00"/>
	<stop  offset="0.2033" style="stop-color:#EAFF00"/>
	<stop  offset="0.73" style="stop-color:#A2FC59"/>
	<stop  offset="1" style="stop-color:#57F866"/>
</linearGradient>
<ellipse fill="none" stroke="url(#SVGID_1_)" stroke-width="15" stroke-miterlimit="10" cx="551.2" cy="341.4" rx="286.3" ry="293"/>
<g>
	<path d="M525.2,314.3l-3.5-12.6l-3.5,12.6h-1.4l-4.2-14.7h1.4l3.5,12.9l3.6-12.9h1.1l3.6,12.9l3.5-12.9h1.4l-4.2,14.7H525.2z"/>
	<path d="M533.5,306.9c0-4.3,2.8-7.6,7.1-7.6c4.3,0,7.1,3.3,7.1,7.6s-2.8,7.6-7.1,7.6C536.4,314.5,533.5,311.2,533.5,306.9z
		 M546.5,306.9c0-3.7-2.3-6.4-5.8-6.4c-3.6,0-5.8,2.7-5.8,6.4c0,3.7,2.2,6.4,5.8,6.4C544.2,313.4,546.5,310.6,546.5,306.9z"/>
	<path d="M560.6,314.3l-4.1-6.1h-3.2v6.1H552v-14.7h5.5c2.5,0,4.5,1.6,4.5,4.3c0,2.7-1.9,4.1-4.1,4.2l4.2,6.2H560.6z M560.6,303.9
		c0-1.8-1.3-3.1-3.3-3.1h-4.1v6.3h4.1C559.3,307.1,560.6,305.7,560.6,303.9z"/>
	<path d="M575.1,314.3l-6.1-6.9l-1.6,1.8v5.1h-1.3v-14.7h1.3v8l7.1-8h1.6l-6.2,7l6.8,7.7H575.1z"/>
	<path d="M579.3,312.2l0.8-0.9c0.9,1.1,2.5,2.1,4.6,2.1c3,0,3.9-1.7,3.9-2.9c0-4.3-8.8-2.1-8.8-7.2c0-2.4,2.2-3.9,4.8-3.9
		c2.2,0,3.8,0.8,5,2.1l-0.8,0.9c-1.1-1.3-2.6-1.8-4.2-1.8c-2,0-3.4,1.1-3.4,2.7c0,3.8,8.8,1.7,8.8,7.2c0,1.9-1.3,4.2-5.2,4.2
		C582.3,314.5,580.5,313.6,579.3,312.2z"/>
</g>
<g>
	<path d="M324.3,572c0-6.2,4.7-10.3,10.8-10.3c4.8,0,7.4,2.7,8.7,5.4l-4.4,2.1c-0.7-1.6-2.4-2.9-4.3-2.9c-3.3,0-5.6,2.5-5.6,5.8
		c0,3.3,2.3,5.8,5.6,5.8c1.9,0,3.6-1.3,4.3-2.9l4.4,2.1c-1.3,2.6-3.9,5.4-8.7,5.4C329,582.3,324.3,578.1,324.3,572z"/>
	<path d="M348.7,582v-20h4.6v20H348.7z"/>
	<path d="M359,563.5c0-1.5,1.2-2.6,2.6-2.6c1.5,0,2.6,1.2,2.6,2.6s-1.2,2.7-2.6,2.7C360.2,566.2,359,565,359,563.5z M359.4,582
		v-14.5h4.6V582H359.4z"/>
	<path d="M369.1,574.7c0-4.5,3.4-7.6,7.9-7.6c3.1,0,5.1,1.4,5.9,2.7l-3,2.8c-0.6-0.8-1.5-1.4-2.7-1.4c-1.9,0-3.4,1.3-3.4,3.5
		c0,2.2,1.5,3.5,3.4,3.5c1.2,0,2.2-0.6,2.7-1.4l3,2.8c-0.9,1.3-2.8,2.7-5.9,2.7C372.5,582.3,369.1,579.3,369.1,574.7z"/>
	<path d="M396.9,582l-3.2-5.1l-1.4,1.7v3.5h-4.6v-20h4.6v11.3l4.4-5.8h5.6l-5.3,6.6l5.6,7.9H396.9z"/>
	<path d="M416.3,574.7c0-4.1,3-7.6,7.9-7.6c5,0,7.9,3.5,7.9,7.6s-2.9,7.6-7.9,7.6C419.2,582.3,416.3,578.8,416.3,574.7z
		 M427.3,574.7c0-1.9-1.1-3.5-3.2-3.5c-2,0-3.1,1.6-3.1,3.5c0,2,1.1,3.5,3.1,3.5C426.2,578.2,427.3,576.7,427.3,574.7z"/>
	<path d="M447,582v-8.4c0-1.8-0.9-2.4-2.4-2.4c-1.4,0-2.3,0.8-2.8,1.4v9.4h-4.6v-14.5h4.6v1.8c0.9-1,2.6-2.1,5-2.1
		c3.3,0,4.8,1.9,4.8,4.6V582H447z"/>
	<path d="M469,578.1v-6.6h-2.4v-4h2.4v-4h4.6v4h2.9v4h-2.9v5.3c0,0.8,0.5,1.5,1.3,1.5c0.5,0,1-0.2,1.2-0.4l0.9,3.5
		c-0.6,0.5-1.7,1-3.4,1C470.6,582.3,469,580.9,469,578.1z"/>
	<path d="M480.6,574.7c0-4.1,3-7.6,7.9-7.6c5,0,7.9,3.5,7.9,7.6s-2.9,7.6-7.9,7.6C483.6,582.3,480.6,578.8,480.6,574.7z
		 M491.7,574.7c0-1.9-1.1-3.5-3.2-3.5c-2,0-3.1,1.6-3.1,3.5c0,2,1.1,3.5,3.1,3.5C490.5,578.2,491.7,576.7,491.7,574.7z"/>
	<path d="M524.8,582l-2.7-9l-2.7,9h-5l-4.3-14.5h4.7l2.3,8.9l2.9-8.9h4.1l2.8,8.9l2.3-8.9h4.8l-4.3,14.5H524.8z"/>
	<path d="M546.8,582v-1.4c-0.9,1.1-2.6,1.8-4.5,1.8c-2.2,0-5-1.5-5-4.8c0-3.5,2.8-4.6,5-4.6c1.9,0,3.6,0.6,4.5,1.7v-1.7
		c0-1.3-1.1-2.1-2.9-2.1c-1.4,0-2.9,0.5-4.1,1.5l-1.6-2.9c1.9-1.6,4.3-2.2,6.6-2.2c3.5,0,6.8,1.3,6.8,5.8v9.1H546.8z M546.8,578.2
		V577c-0.5-0.7-1.6-1-2.6-1c-1.2,0-2.3,0.5-2.3,1.7c0,1.1,1.1,1.7,2.3,1.7C545.2,579.3,546.3,578.9,546.8,578.2z"/>
	<path d="M558.4,578.1v-6.6H556v-4h2.4v-4h4.6v4h2.9v4H563v5.3c0,0.8,0.5,1.5,1.3,1.5c0.5,0,1-0.2,1.2-0.4l0.9,3.5
		c-0.6,0.5-1.7,1-3.4,1C560,582.3,558.4,580.9,558.4,578.1z"/>
	<path d="M570,574.7c0-4.5,3.4-7.6,7.9-7.6c3.1,0,5.1,1.4,5.9,2.7l-3,2.8c-0.6-0.8-1.5-1.4-2.7-1.4c-1.9,0-3.4,1.3-3.4,3.5
		c0,2.2,1.5,3.5,3.4,3.5c1.2,0,2.2-0.6,2.7-1.4l3,2.8c-0.9,1.3-2.8,2.7-5.9,2.7C573.4,582.3,570,579.3,570,574.7z"/>
	<path d="M598.5,582v-8.4c0-1.8-0.9-2.3-2.4-2.3c-1.3,0-2.2,0.8-2.8,1.4v9.4h-4.6v-20h4.6v7.3c0.9-1,2.6-2.1,5-2.1
		c3.3,0,4.8,1.9,4.8,4.5V582H598.5z"/>
	<path d="M637.8,582v-8.8c0-1.1-0.5-2-1.9-2c-1.3,0-2.2,0.8-2.6,1.4v9.4h-4.6v-8.8c0-1.1-0.5-2-1.9-2c-1.2,0-2.1,0.8-2.6,1.4v9.4
		h-4.6v-14.5h4.6v1.8c0.6-0.8,2.5-2.1,4.8-2.1c2.1,0,3.5,0.9,4.1,2.6c0.8-1.3,2.7-2.6,5-2.6c2.7,0,4.3,1.4,4.3,4.3V582H637.8z"/>
	<path d="M648.9,583.5c0.3,0.2,0.8,0.3,1.1,0.3c1,0,1.7-0.2,2-0.8l0.3-0.8l-5.8-14.7h4.9l3.3,9.2l3.3-9.2h4.9l-6.5,16.6
		c-1.2,3.1-3.4,3.7-6.1,3.8c-0.4,0-1.5-0.1-2-0.2L648.9,583.5z"/>
	<path d="M681,582l-5.7-14.5h4.9l3.3,9.2l3.3-9.2h4.9l-5.7,14.5H681z"/>
	<path d="M695.4,563.5c0-1.5,1.2-2.6,2.6-2.6c1.5,0,2.6,1.2,2.6,2.6s-1.2,2.7-2.6,2.7C696.6,566.2,695.4,565,695.4,563.5z
		 M695.7,582v-14.5h4.6V582H695.7z"/>
	<path d="M716.2,582v-1.7c-1.2,1.4-2.7,2-4.3,2c-3.6,0-6.4-2.7-6.4-7.6c0-4.7,2.8-7.6,6.4-7.6c1.6,0,3.1,0.6,4.3,2.1V562h4.6v20
		H716.2z M716.2,576.9v-4.4c-0.6-0.8-1.8-1.3-2.8-1.3c-1.8,0-3.2,1.3-3.2,3.5s1.3,3.5,3.2,3.5C714.4,578.2,715.6,577.7,716.2,576.9z
		"/>
	<path d="M725.9,574.7c0-4.2,3.2-7.6,7.7-7.6c4.3,0,7.4,3.2,7.4,8.1v1h-10.3c0.3,1.4,1.5,2.6,3.6,2.6c1,0,2.8-0.5,3.6-1.2l2,2.9
		c-1.4,1.3-3.8,1.9-6.1,1.9C729.3,582.3,725.9,579.4,725.9,574.7z M733.6,570.7c-2,0-2.8,1.4-3,2.5h6
		C736.5,572.2,735.7,570.7,733.6,570.7z"/>
	<path d="M745,574.7c0-4.1,3-7.6,7.9-7.6c5,0,7.9,3.5,7.9,7.6s-2.9,7.6-7.9,7.6C748,582.3,745,578.8,745,574.7z M756.1,574.7
		c0-1.9-1.1-3.5-3.2-3.5c-2,0-3.1,1.6-3.1,3.5c0,2,1.1,3.5,3.1,3.5C754.9,578.2,756.1,576.7,756.1,574.7z"/>
	<path d="M764.7,580.1l1.9-3.2c1.1,1,3.4,1.9,5.1,1.9c1.4,0,2-0.5,2-1.1c0-1.9-8.4,0-8.4-5.8c0-2.6,2.2-4.8,6.2-4.8
		c2.4,0,4.5,0.8,6.1,1.9l-1.8,3.1c-0.9-0.8-2.5-1.6-4.3-1.6c-1.1,0-1.8,0.5-1.8,1.1c0,1.7,8.4,0,8.4,6c0,2.8-2.4,4.8-6.6,4.8
		C768.9,582.3,766.3,581.5,764.7,580.1z"/>
</g>
<g>
	<path d="M151.3,408.9l4-4.6c4.6,5.4,12.2,10.5,22.5,10.5c14.8,0,19-8.2,19-14.4c0-21.2-43.2-10.2-43.2-35.3
		c0-11.8,10.6-19.2,23.7-19.2c10.8,0,18.8,3.8,24.4,10.2l-4.1,4.5c-5.2-6.3-12.5-9.1-20.6-9.1c-9.6,0-16.8,5.5-16.8,13.3
		c0,18.5,43.2,8.3,43.2,35.2c0,9.3-6.2,20.4-25.6,20.4C165.8,420.3,156.8,415.6,151.3,408.9z"/>
	<path d="M250.4,419v-72h45.7v5.6h-39.5v26.7h38.8v5.6h-38.8v28.5h39.5v5.6H250.4z"/>
	<path d="M343.8,419v-72h6.2v66.4h34.9v5.6H343.8z"/>
	<path d="M430.6,419v-72h45.7v5.6h-39.5v26.7h38.8v5.6h-38.8v28.5h39.5v5.6H430.6z"/>
	<path d="M521.2,383c0-22.1,16.1-37.3,36.5-37.3c11.4,0,20.1,5.1,26.2,12.7l-5.2,3.3c-4.5-6.3-12.4-10.5-21.1-10.5
		c-17,0-30,12.9-30,31.6c0,18.6,13.1,31.6,30,31.6c8.6,0,16.5-4.2,21.1-10.5l5.2,3.2c-6.4,7.9-14.8,12.9-26.2,12.9
		C537.3,420.3,521.2,405.2,521.2,383z"/>
	<path d="M647.2,419v-66.4h-23.5V347H677v5.6h-23.5V419H647.2z"/>
	<path d="M722.2,419v-72h6.2v72H722.2z"/>
	<path d="M776,383c0-21.1,13.8-37.3,35-37.3c21.1,0,35,16.2,35,37.3c0,21.1-13.9,37.3-35,37.3C789.8,420.3,776,404.1,776,383z
		 M839.5,383c0-18.4-11.2-31.6-28.5-31.6c-17.5,0-28.5,13.3-28.5,31.6c0,18.1,11,31.6,28.5,31.6C828.2,414.7,839.5,401.2,839.5,383z
		"/>
	<path d="M945.1,419l-45.4-61.9V419h-6.2v-72h6.3l45.1,61v-61h6.2v72H945.1z"/>
</g>
<line fill="none" stroke="#000000" stroke-width="0.763" x1="458.1" y1="470.6" x2="644.4" y2="470.6"/>
<g>
	<polygon points="546.7,169.7 559.1,178.7 555.8,181.9 548.3,175.1 	"/>
	<polygon points="537.6,201.6 532.3,206 533.9,128.1 537.6,135.2 	"/>
	<polygon points="569,176.3 545.5,154.9 545.5,150.2 574.6,171.9 	"/>
	<polygon points="569.3,194.1 527.9,226.4 527.9,223.1 565.5,190.1 	"/>
	<polygon points="545.5,168.8 548.9,171.4 549,188.8 545.5,192.1 	"/>
	<polygon points="569.2,176.1 545.5,194.9 545.5,191.9 565.3,172.3 	"/>
	<polygon points="569.2,194.2 556.4,182.5 558.9,178.7 574.4,190.3 	"/>
</g>
<g id="Ebene_5">
	<g display="none">
		<path display="inline" d="M551.2,503.7c0.3,0,0.6,0.3,0.6,0.6v26.9l9.2-9.3c0.1-0.1,0.2-0.2,0.4-0.2c0.3,0,0.6,0.3,0.6,0.6
			c0,0.2-0.1,0.3-0.2,0.4l-10.2,10.2c-0.1,0.1-0.2,0.2-0.4,0.2c-0.1,0-0.3-0.1-0.4-0.2l-10.2-10.2c-0.1-0.1-0.2-0.2-0.2-0.4
			c0-0.3,0.3-0.6,0.6-0.6c0.1,0,0.3,0.1,0.4,0.2l9.2,9.2v-26.8C550.6,503.9,550.9,503.7,551.2,503.7z"/>
	</g>
	<g display="none">
		<path display="inline" d="M550.6,532.5v-26.8l-9.2,9.2c-0.1,0.1-0.2,0.2-0.4,0.2c-0.3,0-0.6-0.3-0.6-0.6c0-0.2,0.1-0.3,0.2-0.4
			l10.2-10.2c0.1-0.1,0.3-0.2,0.4-0.2c0.1,0,0.3,0.1,0.4,0.2l10.2,10.2c0.1,0.1,0.2,0.2,0.2,0.4c0,0.3-0.3,0.6-0.6,0.6
			c-0.1,0-0.3-0.1-0.4-0.2l-9.2-9.3v26.9c0,0.3-0.3,0.6-0.6,0.6C550.9,533,550.6,532.8,550.6,532.5z"/>
	</g>
	<g>
		<path d="M536.5,518.4c0-0.3,0.3-0.6,0.6-0.6H564l-9.3-9.2c-0.1-0.1-0.2-0.2-0.2-0.4c0-0.3,0.3-0.6,0.6-0.6c0.2,0,0.3,0.1,0.4,0.2
			l10.2,10.2c0.1,0.1,0.2,0.2,0.2,0.4c0,0.1-0.1,0.3-0.2,0.4L555.5,529c-0.1,0.1-0.2,0.2-0.4,0.2c-0.3,0-0.6-0.3-0.6-0.6
			c0-0.2,0.1-0.3,0.2-0.4l9.2-9.2h-26.8C536.8,519,536.5,518.7,536.5,518.4z"/>
	</g>
	<g display="none">
		<path display="inline" d="M565.3,519h-26.8l9.2,9.2c0.1,0.1,0.2,0.2,0.2,0.4c0,0.3-0.3,0.6-0.6,0.6c-0.1,0-0.3-0.1-0.4-0.2
			l-10.2-10.2c-0.1-0.1-0.2-0.3-0.2-0.4c0-0.2,0.1-0.3,0.2-0.4l10.2-10.2c0.1-0.1,0.2-0.2,0.4-0.2c0.3,0,0.6,0.3,0.6,0.6
			c0,0.1-0.1,0.3-0.2,0.4l-9.3,9.2h26.9c0.3,0,0.6,0.3,0.6,0.6C565.9,518.7,565.6,519,565.3,519z"/>
	</g>
</g>
</svg>
