<?xml version="1.0" encoding="utf-8"?>
<!-- Generator: Adobe Illustrator 18.0.0, SVG Export Plug-In . SVG Version: 6.00 Build 0)  -->
<!DOCTYPE svg PUBLIC "-//W3C//DTD SVG 1.1//EN" "http://www.w3.org/Graphics/SVG/1.1/DTD/svg11.dtd">
<svg version="1.1" id="START" xmlns="http://www.w3.org/2000/svg" xmlns:xlink="http://www.w3.org/1999/xlink" x="0px" y="0px"
	 viewBox="126 -11.4 850.4 708.7" enable-background="new 126 -11.4 850.4 708.7" xml:space="preserve">
<linearGradient id="SVGID_1_" gradientUnits="userSpaceOnUse" x1="268.262" y1="422.495" x2="834.1732" y2="260.2225">
	<stop  offset="0" style="stop-color:#EAFF00"/>
	<stop  offset="0.2033" style="stop-color:#EAFF00"/>
	<stop  offset="0.73" style="stop-color:#A2FC59"/>
	<stop  offset="1" style="stop-color:#57F866"/>
</linearGradient>
<ellipse fill="none" stroke="url(#SVGID_1_)" stroke-width="15" stroke-miterlimit="10" cx="551.2" cy="341.4" rx="286.3" ry="293"/>
<g>
	<path d="M520.8,314.3l-3.5-12.6l-3.5,12.6h-1.4l-4.2-14.7h1.4l3.5,12.9l3.6-12.9h1.1l3.6,12.9l3.5-12.9h1.4l-4.2,14.7H520.8z"/>
	<path d="M529.2,306.9c0-4.3,2.8-7.6,7.1-7.6c4.3,0,7.1,3.3,7.1,7.6s-2.8,7.6-7.1,7.6C532,314.5,529.2,311.2,529.2,306.9z
		 M542.1,306.9c0-3.7-2.3-6.4-5.8-6.4c-3.6,0-5.8,2.7-5.8,6.4c0,3.7,2.2,6.4,5.8,6.4C539.9,313.4,542.1,310.6,542.1,306.9z"/>
	<path d="M556.3,314.3l-4.1-6.1h-3.2v6.1h-1.3v-14.7h5.5c2.5,0,4.5,1.6,4.5,4.3c0,2.7-1.9,4.1-4.1,4.2l4.2,6.2H556.3z M556.3,303.9
		c0-1.8-1.3-3.1-3.3-3.1h-4.1v6.3h4.1C555,307.1,556.3,305.7,556.3,303.9z"/>
	<path d="M570.8,314.3l-6.1-6.9l-1.6,1.8v5.1h-1.3v-14.7h1.3v8l7.1-8h1.6l-6.2,7l6.8,7.7H570.8z"/>
	<path d="M575,312.2l0.8-0.9c0.9,1.1,2.5,2.1,4.6,2.1c3,0,3.9-1.7,3.9-2.9c0-4.3-8.8-2.1-8.8-7.2c0-2.4,2.2-3.9,4.8-3.9
		c2.2,0,3.8,0.8,5,2.1l-0.8,0.9c-1.1-1.3-2.6-1.8-4.2-1.8c-2,0-3.4,1.1-3.4,2.7c0,3.8,8.8,1.7,8.8,7.2c0,1.9-1.3,4.2-5.2,4.2
		C578,314.5,576.1,313.6,575,312.2z"/>
</g>
<g>
	<path d="M436.4,522.8c0-3.3,2.4-5.5,5.4-5.5c1.7,0,3,0.8,3.9,1.9l-0.8,0.5c-0.7-0.9-1.8-1.6-3.1-1.6c-2.5,0-4.5,1.9-4.5,4.7
		c0,2.8,1.9,4.7,4.5,4.7c1.3,0,2.4-0.6,3.1-1.6l0.8,0.5c-0.9,1.2-2.2,1.9-3.9,1.9C438.8,528.3,436.4,526.1,436.4,522.8z"/>
	<path d="M449,528.1v-10.7h0.8v10.7H449z"/>
	<path d="M453.6,518.5c0-0.4,0.3-0.6,0.6-0.6c0.4,0,0.6,0.3,0.6,0.6s-0.3,0.6-0.6,0.6C453.9,519.2,453.6,518.9,453.6,518.5z
		 M453.9,528.1v-7.7h0.8v7.7H453.9z"/>
	<path d="M458.3,524.2c0-2.3,1.5-4,3.8-4c1.3,0,2.1,0.5,2.7,1.3l-0.6,0.5c-0.6-0.8-1.3-1.1-2.1-1.1c-1.8,0-2.9,1.4-2.9,3.3
		c0,1.9,1.1,3.3,2.9,3.3c0.8,0,1.6-0.3,2.1-1.1l0.6,0.5c-0.6,0.8-1.4,1.3-2.7,1.3C459.8,528.3,458.3,526.5,458.3,524.2z"/>
	<path d="M473.4,528.1l-3.1-3.7l-1.4,1.4v2.3h-0.8v-10.7h0.8v7.4l4.6-4.4h1.1l-3.6,3.5l3.6,4.2H473.4z"/>
	<path d="M482.7,524.2c0-2.3,1.5-4,3.7-4c2.3,0,3.7,1.8,3.7,4c0,2.3-1.4,4.1-3.7,4.1C484.2,528.3,482.7,526.5,482.7,524.2z
		 M489.3,524.2c0-1.7-1-3.3-2.8-3.3c-1.8,0-2.8,1.6-2.8,3.3c0,1.7,1,3.3,2.8,3.3C488.3,527.5,489.3,526,489.3,524.2z"/>
	<path d="M499,528.1v-5.2c0-1.5-0.8-1.9-1.9-1.9c-1,0-2,0.6-2.5,1.3v5.8h-0.8v-7.7h0.8v1.2c0.6-0.7,1.7-1.4,2.8-1.4
		c1.6,0,2.4,0.8,2.4,2.5v5.4H499z"/>
	<path d="M509.6,526.6v-5.5h-1.3v-0.7h1.3v-2.1h0.8v2.1h1.6v0.7h-1.6v5.4c0,0.6,0.3,1.1,0.8,1.1c0.4,0,0.7-0.2,0.9-0.4l0.3,0.6
		c-0.3,0.3-0.7,0.5-1.3,0.5C510.1,528.3,509.6,527.7,509.6,526.6z"/>
	<path d="M514.8,524.2c0-2.3,1.5-4,3.7-4c2.3,0,3.7,1.8,3.7,4c0,2.3-1.4,4.1-3.7,4.1C516.3,528.3,514.8,526.5,514.8,524.2z
		 M521.4,524.2c0-1.7-1-3.3-2.8-3.3c-1.8,0-2.8,1.6-2.8,3.3c0,1.7,1,3.3,2.8,3.3C520.3,527.5,521.4,526,521.4,524.2z"/>
	<path d="M538,528.1l-2.2-6.6l-2.2,6.6h-0.8l-2.5-7.7h0.9l2,6.6l2.2-6.6h0.7l2.2,6.6l2-6.6h0.9l-2.5,7.7H538z"/>
	<path d="M549.3,528.1v-0.9c-0.7,0.8-1.6,1.1-2.6,1.1c-1.3,0-2.7-0.9-2.7-2.6c0-1.7,1.4-2.6,2.7-2.6c1.1,0,2,0.4,2.6,1.1v-1.6
		c0-1.2-0.9-1.8-2.1-1.8c-1,0-1.7,0.3-2.4,1.1l-0.5-0.6c0.8-0.9,1.7-1.3,3-1.3c1.6,0,2.8,0.8,2.8,2.5v5.4H549.3z M549.3,526.6v-1.7
		c-0.5-0.7-1.4-1.1-2.3-1.1c-1.3,0-2.1,0.8-2.1,1.9c0,1.1,0.8,1.9,2.1,1.9C547.9,527.6,548.7,527.3,549.3,526.6z"/>
	<path d="M554.3,526.6v-5.5H553v-0.7h1.3v-2.1h0.8v2.1h1.6v0.7h-1.6v5.4c0,0.6,0.3,1.1,0.8,1.1c0.4,0,0.7-0.2,0.9-0.4l0.3,0.6
		c-0.3,0.3-0.7,0.5-1.3,0.5C554.8,528.3,554.3,527.7,554.3,526.6z"/>
	<path d="M559.5,524.2c0-2.3,1.5-4,3.8-4c1.3,0,2.1,0.5,2.7,1.3l-0.6,0.5c-0.6-0.8-1.3-1.1-2.1-1.1c-1.8,0-2.9,1.4-2.9,3.3
		c0,1.9,1.1,3.3,2.9,3.3c0.8,0,1.6-0.3,2.1-1.1l0.6,0.5c-0.6,0.8-1.4,1.3-2.7,1.3C561,528.3,559.5,526.5,559.5,524.2z"/>
	<path d="M574.5,528.1v-5.3c0-1.5-0.8-1.9-1.9-1.9c-1,0-2,0.6-2.5,1.3v5.8h-0.8v-10.7h0.8v4.1c0.6-0.7,1.7-1.4,2.8-1.4
		c1.6,0,2.4,0.7,2.4,2.5v5.4H574.5z"/>
	<path d="M594.2,528.1v-5.4c0-1.1-0.5-1.8-1.6-1.8c-0.8,0-1.8,0.6-2.2,1.3v5.9h-0.8v-5.4c0-1.1-0.4-1.8-1.6-1.8
		c-0.8,0-1.7,0.6-2.2,1.3v5.8H585v-7.7h0.8v1.2c0.3-0.5,1.4-1.4,2.5-1.4c1.2,0,1.8,0.7,2,1.5c0.4-0.7,1.5-1.5,2.6-1.5
		c1.4,0,2.1,0.8,2.1,2.4v5.6H594.2z"/>
	<path d="M598.7,530.4c0.2,0.1,0.5,0.1,0.7,0.1c0.5,0,0.9-0.2,1.2-0.9l0.6-1.4l-3.3-7.8h0.9l2.8,6.8l2.8-6.8h0.9l-4,9.4
		c-0.4,1-1.1,1.4-2,1.4c-0.3,0-0.6,0-0.8-0.1L598.7,530.4z"/>
	<path d="M615.8,528.1l-3.3-7.7h0.9l2.8,6.8l2.8-6.8h0.9l-3.3,7.7H615.8z"/>
	<path d="M622.7,518.5c0-0.4,0.3-0.6,0.6-0.6c0.4,0,0.6,0.3,0.6,0.6s-0.3,0.6-0.6,0.6C623,519.2,622.7,518.9,622.7,518.5z
		 M622.9,528.1v-7.7h0.8v7.7H622.9z"/>
	<path d="M633.5,528.1v-1.2c-0.5,0.8-1.5,1.4-2.7,1.4c-2,0-3.5-1.6-3.5-4c0-2.4,1.4-4.1,3.5-4.1c1.1,0,2.1,0.6,2.7,1.4v-4.2h0.8
		v10.7H633.5z M633.5,526.2v-3.8c-0.4-0.8-1.5-1.4-2.5-1.4c-1.7,0-2.7,1.4-2.7,3.3s1,3.3,2.7,3.3C632,527.5,633,526.9,633.5,526.2z"
		/>
	<path d="M637.9,524.2c0-2.2,1.6-4,3.7-4c2.4,0,3.6,1.9,3.6,4.1v0.2h-6.5c0.1,1.7,1.2,3.1,3,3.1c1,0,1.9-0.4,2.5-1.1l0.4,0.5
		c-0.8,0.8-1.7,1.2-3,1.2C639.5,528.3,637.9,526.6,637.9,524.2z M641.6,520.9c-1.8,0-2.7,1.6-2.8,2.9h5.6
		C644.4,522.5,643.5,520.9,641.6,520.9z"/>
	<path d="M648.4,524.2c0-2.3,1.5-4,3.7-4c2.3,0,3.7,1.8,3.7,4c0,2.3-1.4,4.1-3.7,4.1C649.9,528.3,648.4,526.5,648.4,524.2z
		 M655,524.2c0-1.7-1-3.3-2.8-3.3c-1.8,0-2.8,1.6-2.8,3.3c0,1.7,1,3.3,2.8,3.3C653.9,527.5,655,526,655,524.2z"/>
	<path d="M658.8,527.1l0.5-0.6c0.5,0.6,1.4,1.1,2.5,1.1c1.3,0,2.1-0.7,2.1-1.6c0-2.1-4.9-0.9-4.9-3.7c0-1.2,1-2.1,2.8-2.1
		c1.3,0,2.2,0.5,2.8,1.1l-0.5,0.6c-0.4-0.6-1.3-1-2.3-1c-1.2,0-1.9,0.6-1.9,1.4c0,1.9,4.9,0.8,4.9,3.7c0,1.2-1,2.3-2.9,2.3
		C660.5,528.3,659.5,527.9,658.8,527.1z"/>
</g>
<g>
	<path d="M133.1,408.9l4-4.6c4.6,5.4,12.2,10.5,22.5,10.5c14.8,0,19-8.2,19-14.4c0-21.2-43.2-10.2-43.2-35.3
		c0-11.8,10.6-19.2,23.7-19.2c10.8,0,18.8,3.8,24.4,10.2l-4.1,4.5c-5.2-6.3-12.5-9.1-20.6-9.1c-9.6,0-16.8,5.5-16.8,13.3
		c0,18.5,43.2,8.3,43.2,35.2c0,9.3-6.2,20.4-25.6,20.4C147.6,420.3,138.6,415.6,133.1,408.9z"/>
	<path d="M232.2,419v-72h45.7v5.6h-39.5v26.7h38.8v5.6h-38.8v28.5h39.5v5.6H232.2z"/>
	<path d="M325.6,419v-72h6.2v66.4h34.9v5.6H325.6z"/>
	<path d="M412.4,419v-72h45.7v5.6h-39.5v26.7h38.8v5.6h-38.8v28.5h39.5v5.6H412.4z"/>
	<path d="M503,383c0-22.1,16.1-37.3,36.5-37.3c11.4,0,20.1,5.1,26.2,12.7l-5.2,3.3c-4.5-6.3-12.4-10.5-21.1-10.5
		c-17,0-30,12.9-30,31.6c0,18.6,13.1,31.6,30,31.6c8.6,0,16.5-4.2,21.1-10.5l5.2,3.2c-6.4,7.9-14.8,12.9-26.2,12.9
		C519.1,420.3,503,405.2,503,383z"/>
	<path d="M629,419v-66.4h-23.5V347h53.4v5.6h-23.5V419H629z"/>
	<path d="M704,419v-72h6.2v72H704z"/>
	<path d="M757.8,383c0-21.1,13.8-37.3,35-37.3c21.1,0,35,16.2,35,37.3c0,21.1-13.9,37.3-35,37.3C771.6,420.3,757.8,404.1,757.8,383z
		 M821.3,383c0-18.4-11.2-31.6-28.5-31.6c-17.5,0-28.5,13.3-28.5,31.6c0,18.1,11,31.6,28.5,31.6C810,414.7,821.3,401.2,821.3,383z"
		/>
	<path d="M926.9,419l-45.4-61.9V419h-6.2v-72h6.3l45.1,61v-61h6.2v72H926.9z"/>
</g>
<line fill="none" stroke="#000000" stroke-width="0.763" x1="458.1" y1="470.6" x2="644.4" y2="470.6"/>
<g>
	<polygon points="546.7,169.7 559.1,178.7 555.8,181.9 548.3,175.1 	"/>
	<polygon points="537.6,201.6 532.3,206 533.9,128.1 537.6,135.2 	"/>
	<polygon points="569,176.3 545.5,154.9 545.5,150.2 574.6,171.9 	"/>
	<polygon points="569.3,194.1 527.9,226.4 527.9,223.1 565.5,190.1 	"/>
	<polygon points="545.5,168.8 548.9,171.4 549,188.8 545.5,192.1 	"/>
	<polygon points="569.2,176.1 545.5,194.9 545.5,191.9 565.3,172.3 	"/>
	<polygon points="569.2,194.2 556.4,182.5 558.9,178.7 574.4,190.3 	"/>
</g>
<g id="Ebene_5">
	<g display="none">
		<path display="inline" d="M551.2,561.1c0.3,0,0.6,0.3,0.6,0.6v26.9l9.2-9.3c0.1-0.1,0.2-0.2,0.4-0.2c0.3,0,0.6,0.3,0.6,0.6
			c0,0.2-0.1,0.3-0.2,0.4l-10.2,10.2c-0.1,0.1-0.2,0.2-0.4,0.2c-0.1,0-0.3-0.1-0.4-0.2l-10.2-10.2c-0.1-0.1-0.2-0.2-0.2-0.4
			c0-0.3,0.3-0.6,0.6-0.6c0.1,0,0.3,0.1,0.4,0.2l9.2,9.2v-26.8C550.6,561.4,550.9,561.1,551.2,561.1z"/>
	</g>
	<g display="none">
		<path display="inline" d="M550.6,589.9v-26.8l-9.2,9.2c-0.1,0.1-0.2,0.2-0.4,0.2c-0.3,0-0.6-0.3-0.6-0.6c0-0.2,0.1-0.3,0.2-0.4
			l10.2-10.2c0.1-0.1,0.3-0.2,0.4-0.2c0.1,0,0.3,0.1,0.4,0.2l10.2,10.2c0.1,0.1,0.2,0.2,0.2,0.4c0,0.3-0.3,0.6-0.6,0.6
			c-0.1,0-0.3-0.1-0.4-0.2l-9.2-9.3v26.9c0,0.3-0.3,0.6-0.6,0.6C550.9,590.5,550.6,590.2,550.6,589.9z"/>
	</g>
	<g>
		<path d="M536.5,575.8c0-0.3,0.3-0.6,0.6-0.6H564l-9.3-9.2c-0.1-0.1-0.2-0.2-0.2-0.4c0-0.3,0.3-0.6,0.6-0.6c0.2,0,0.3,0.1,0.4,0.2
			l10.2,10.2c0.1,0.1,0.2,0.2,0.2,0.4c0,0.1-0.1,0.3-0.2,0.4l-10.2,10.2c-0.1,0.1-0.2,0.2-0.4,0.2c-0.3,0-0.6-0.3-0.6-0.6
			c0-0.2,0.1-0.3,0.2-0.4l9.2-9.2h-26.8C536.8,576.4,536.5,576.1,536.5,575.8z"/>
	</g>
	<g display="none">
		<path display="inline" d="M565.3,576.4h-26.8l9.2,9.2c0.1,0.1,0.2,0.2,0.2,0.4c0,0.3-0.3,0.6-0.6,0.6c-0.1,0-0.3-0.1-0.4-0.2
			l-10.2-10.2c-0.1-0.1-0.2-0.3-0.2-0.4c0-0.2,0.1-0.3,0.2-0.4l10.2-10.2c0.1-0.1,0.2-0.2,0.4-0.2c0.3,0,0.6,0.3,0.6,0.6
			c0,0.2-0.1,0.3-0.2,0.4l-9.3,9.2h26.9c0.3,0,0.6,0.3,0.6,0.6C565.9,576.1,565.6,576.4,565.3,576.4z"/>
	</g>
</g>
</svg>
