<svg xmlns="http://www.w3.org/2000/svg" viewBox="126 -11.4 850.4 708.7"><linearGradient id="a" gradientUnits="userSpaceOnUse" x1="268.262" y1="422.495" x2="834.173" y2="260.223"><stop offset="0" stop-color="#eaff00"/><stop offset=".203" stop-color="#eaff00"/><stop offset=".73" stop-color="#a2fc59"/><stop offset="1" stop-color="#57f866"/></linearGradient><ellipse fill="none" stroke="url(#a)" stroke-width="15" stroke-miterlimit="10" cx="551.2" cy="341.4" rx="286.3" ry="293"/><path d="M524.2 314.3l-3.5-12.6-3.5 12.6h-1.4l-4.2-14.7h1.4l3.5 12.9 3.6-12.9h1.1l3.6 12.9 3.5-12.9h1.4l-4.2 14.7h-1.3zM532.6 306.9c0-4.3 2.8-7.6 7.1-7.6s7.1 3.3 7.1 7.6-2.8 7.6-7.1 7.6-7.1-3.3-7.1-7.6zm12.9 0c0-3.7-2.3-6.4-5.8-6.4-3.6 0-5.8 2.7-5.8 6.4s2.2 6.4 5.8 6.4c3.6.1 5.8-2.7 5.8-6.4zM559.7 314.3l-4.1-6.1h-3.2v6.1h-1.3v-14.7h5.5c2.5 0 4.5 1.6 4.5 4.3 0 2.7-1.9 4.1-4.1 4.2l4.2 6.2h-1.5zm0-10.4c0-1.8-1.3-3.1-3.3-3.1h-4.1v6.3h4.1c2 0 3.3-1.4 3.3-3.2zM574.2 314.3l-6.1-6.9-1.6 1.8v5.1h-1.3v-14.7h1.3v8l7.1-8h1.6l-6.2 7 6.8 7.7h-1.6zM578.4 312.2l.8-.9c.9 1.1 2.5 2.1 4.6 2.1 3 0 3.9-1.7 3.9-2.9 0-4.3-8.8-2.1-8.8-7.2 0-2.4 2.2-3.9 4.8-3.9 2.2 0 3.8.8 5 2.1l-.8.9c-1.1-1.3-2.6-1.8-4.2-1.8-2 0-3.4 1.1-3.4 2.7 0 3.8 8.8 1.7 8.8 7.2 0 1.9-1.3 4.2-5.2 4.2-2.5-.2-4.4-1.1-5.5-2.5zM376 528.3c-3 0-5.5-2.5-5.5-5.5 0-3.1 2.5-5.5 5.5-5.5 3.1 0 5.5 2.5 5.5 5.5s-2.4 5.5-5.5 5.5zm0-10.6c-2.8 0-5.1 2.3-5.1 5.1s2.3 5.1 5.1 5.1 5.1-2.3 5.1-5.1-2.3-5.1-5.1-5.1zm2.4 7.4c-.6.7-1.3 1.1-2.3 1.1-1.8 0-3.3-1.5-3.3-3.5s1.5-3.4 3.3-3.4c1 0 1.8.4 2.3 1l-.4.4c-.4-.6-1.2-.9-2-.9-1.5 0-2.8 1.2-2.8 2.9s1.3 3 2.8 3c.8 0 1.6-.4 2-.9l.4.3zM384.6 528.1v-.8c3.6-2.9 6.1-5 6.1-7.1 0-1.5-1.3-2.2-2.4-2.2-1.3 0-2.4.6-2.9 1.4l-.6-.6c.8-1 2-1.6 3.6-1.6s3.4.9 3.4 3c0 2.4-2.5 4.5-5.6 7h5.6v.8h-7.2zM395.4 522.8c0-2.5 1.1-5.5 4-5.5 2.8 0 3.9 3 3.9 5.5s-1.1 5.5-3.9 5.5c-3 0-4-3-4-5.5zm6.9 0c0-2.2-.7-4.7-3-4.7s-3 2.5-3 4.7.7 4.7 3 4.7c2.2 0 3-2.5 3-4.7zM408.3 528.1v-9.4l-1.7 1.8-.6-.6 2.4-2.5h.8v10.7h-.9zM412.9 522.8c0-2.7 1.1-5.5 4.1-5.5 1.4 0 2.2.6 2.9 1.4l-.5.7c-.5-.7-1.2-1.2-2.3-1.2-2.3 0-3.2 2.4-3.2 4.7v.5c.4-.7 1.7-1.8 3.1-1.8 1.9 0 3.4 1.1 3.4 3.4 0 1.7-1.3 3.4-3.6 3.4-2.9-.1-3.9-2.8-3.9-5.6zm6.6 2.1c0-1.7-1.1-2.6-2.7-2.6-1.2 0-2.3.8-2.9 1.8.1 1.5.9 3.3 2.9 3.3 1.8.1 2.7-1.3 2.7-2.5zM431.2 525.9c-.9 0-1.6-.7-1.6-1.6 0-.9.7-1.6 1.6-1.6.9 0 1.6.7 1.6 1.6.1.8-.7 1.6-1.6 1.6zM442.4 528.1v-10.7h4.4c1.8 0 2.9 1 2.9 2.7 0 1.3-.9 2.3-1.9 2.4 1.1.2 2.1 1.4 2.1 2.6 0 1.8-1.2 2.9-3.1 2.9h-4.4zm6.4-7.9c0-1.1-.7-2-2.1-2h-3.4v4h3.4c1.4 0 2.1-.9 2.1-2zm.2 5c0-1.1-.8-2.1-2.2-2.1h-3.4v4.2h3.4c1.4 0 2.2-.8 2.2-2.1zM458.6 528.1v-.9c-.7.8-1.6 1.1-2.6 1.1-1.3 0-2.7-.9-2.7-2.6 0-1.7 1.4-2.6 2.7-2.6 1.1 0 2 .4 2.6 1.1v-1.6c0-1.2-.9-1.8-2.1-1.8-1 0-1.7.3-2.4 1.1l-.5-.6c.8-.9 1.7-1.3 3-1.3 1.6 0 2.8.8 2.8 2.5v5.4h-.8zm0-1.5v-1.7c-.5-.7-1.4-1.1-2.3-1.1-1.3 0-2.1.8-2.1 1.9 0 1.1.8 1.9 2.1 1.9.9 0 1.7-.3 2.3-1zM463.4 528.1v-10.7h.8v10.7h-.8zM468.3 528.1v-10.7h.8v10.7h-.8zM473.2 528.1v-7.7h.8v1.3c.7-.9 1.5-1.5 2.6-1.5v.9h-.4c-.8 0-1.8.7-2.2 1.4v5.6h-.8zM479.4 518.5c0-.4.3-.6.6-.6.4 0 .6.3.6.6s-.3.6-.6.6c-.3.1-.6-.2-.6-.6zm.3 9.6v-7.7h.8v7.7h-.8zM490.2 528.1v-1.2c-.5.8-1.5 1.4-2.7 1.4-2 0-3.5-1.6-3.5-4s1.4-4.1 3.5-4.1c1.1 0 2.1.6 2.7 1.4v-4.2h.8v10.7h-.8zm0-1.9v-3.8c-.4-.8-1.5-1.4-2.5-1.4-1.7 0-2.7 1.4-2.7 3.3s1 3.3 2.7 3.3c1.1-.1 2.1-.7 2.5-1.4zM494.7 524.2c0-2.2 1.6-4 3.7-4 2.4 0 3.6 1.9 3.6 4.1v.2h-6.5c.1 1.7 1.2 3.1 3 3.1 1 0 1.9-.4 2.5-1.1l.4.5c-.8.8-1.7 1.2-3 1.2-2.1.1-3.7-1.6-3.7-4zm3.7-3.3c-1.8 0-2.7 1.6-2.8 2.9h5.6c0-1.3-.9-2.9-2.8-2.9zM505.6 528.1v-7.7h.8v1.3c.7-.9 1.5-1.5 2.6-1.5v.9h-.4c-.8 0-1.8.7-2.2 1.4v5.6h-.8zM511.5 527.1l.5-.6c.5.6 1.4 1.1 2.5 1.1 1.3 0 2.1-.7 2.1-1.6 0-2.1-4.9-.9-4.9-3.7 0-1.2 1-2.1 2.8-2.1 1.3 0 2.2.5 2.8 1.1l-.5.6c-.4-.6-1.3-1-2.3-1-1.2 0-1.9.6-1.9 1.4 0 1.9 4.9.8 4.9 3.7 0 1.2-1 2.3-2.9 2.3-1.4 0-2.4-.4-3.1-1.2zM528.1 525.9c-.9 0-1.6-.7-1.6-1.6 0-.9.7-1.6 1.6-1.6.9 0 1.6.7 1.6 1.6 0 .8-.7 1.6-1.6 1.6zM538.7 526.6l.6-.7c.7.8 1.8 1.6 3.3 1.6 2.2 0 2.8-1.2 2.8-2.1 0-3.1-6.4-1.5-6.4-5.2 0-1.7 1.6-2.8 3.5-2.8 1.6 0 2.8.6 3.6 1.5l-.6.7c-.8-.9-1.9-1.3-3.1-1.3-1.4 0-2.5.8-2.5 2 0 2.7 6.4 1.2 6.4 5.2 0 1.4-.9 3-3.8 3-1.7-.2-3-.9-3.8-1.9zM549.5 524.2c0-2.3 1.5-4 3.7-4 2.3 0 3.7 1.8 3.7 4 0 2.3-1.4 4.1-3.7 4.1-2.2 0-3.7-1.8-3.7-4.1zm6.6 0c0-1.7-1-3.3-2.8-3.3-1.8 0-2.8 1.6-2.8 3.3 0 1.7 1 3.3 2.8 3.3 1.8 0 2.8-1.5 2.8-3.3zM565.5 528.1v-.9c-.7.8-1.6 1.1-2.6 1.1-1.3 0-2.7-.9-2.7-2.6 0-1.7 1.4-2.6 2.7-2.6 1.1 0 2 .4 2.6 1.1v-1.6c0-1.2-.9-1.8-2.1-1.8-1 0-1.7.3-2.4 1.1l-.5-.6c.8-.9 1.7-1.3 3-1.3 1.6 0 2.8.8 2.8 2.5v5.4h-.8zm0-1.5v-1.7c-.5-.7-1.4-1.1-2.3-1.1-1.3 0-2.1.8-2.1 1.9 0 1.1.8 1.9 2.1 1.9.9 0 1.7-.3 2.3-1zM570.3 528.1v-7.7h.8v1.3c.7-.9 1.5-1.5 2.6-1.5v.9h-.4c-.8 0-1.8.7-2.2 1.4v5.6h-.8zM576.6 518.5c0-.4.3-.6.6-.6.4 0 .6.3.6.6s-.3.6-.6.6c-.3.1-.6-.2-.6-.6zm.3 9.6v-7.7h.8v7.7h-.8zM586.9 528.1v-5.2c0-1.5-.8-1.9-1.9-1.9-1 0-2 .6-2.5 1.3v5.8h-.8v-7.7h.8v1.2c.6-.7 1.7-1.4 2.8-1.4 1.6 0 2.4.8 2.4 2.5v5.4h-.8zM591.8 530.1l.5-.6c.7.8 1.4 1.1 2.6 1.1 1.4 0 2.6-.7 2.6-2.5v-1.2c-.5.8-1.5 1.4-2.7 1.4-2 0-3.5-1.6-3.5-4s1.4-4 3.5-4c1.1 0 2.1.6 2.7 1.4v-1.2h.8v7.7c0 2.4-1.6 3.2-3.5 3.2-1.2-.2-2.1-.4-3-1.3zm5.7-4v-3.8c-.4-.8-1.5-1.4-2.5-1.4-1.7 0-2.7 1.4-2.7 3.3s1 3.3 2.7 3.3c1 0 2-.6 2.5-1.4zM608 528.1v-10.7h4.4c1.8 0 2.9 1 2.9 2.7 0 1.3-.9 2.3-1.9 2.4 1.1.2 2.1 1.4 2.1 2.6 0 1.8-1.2 2.9-3.1 2.9H608zm6.3-7.9c0-1.1-.7-2-2.1-2h-3.4v4h3.4c1.4 0 2.1-.9 2.1-2zm.2 5c0-1.1-.8-2.1-2.2-2.1h-3.4v4.2h3.4c1.4 0 2.2-.8 2.2-2.1zM624.1 528.1v-.9c-.7.8-1.6 1.1-2.6 1.1-1.3 0-2.7-.9-2.7-2.6 0-1.7 1.4-2.6 2.7-2.6 1.1 0 2 .4 2.6 1.1v-1.6c0-1.2-.9-1.8-2.1-1.8-1 0-1.7.3-2.4 1.1l-.5-.6c.8-.9 1.7-1.3 3-1.3 1.6 0 2.8.8 2.8 2.5v5.4h-.8zm0-1.5v-1.7c-.5-.7-1.4-1.1-2.3-1.1-1.3 0-2.1.8-2.1 1.9 0 1.1.8 1.9 2.1 1.9.9 0 1.8-.3 2.3-1zM629 528.1v-10.7h.8v10.7h-.8zM633.8 528.1v-10.7h.8v10.7h-.8zM638 527.1l.5-.6c.5.6 1.4 1.1 2.5 1.1 1.3 0 2.1-.7 2.1-1.6 0-2.1-4.9-.9-4.9-3.7 0-1.2 1-2.1 2.8-2.1 1.3 0 2.2.5 2.8 1.1l-.5.6c-.4-.6-1.3-1-2.3-1-1.2 0-1.9.6-1.9 1.4 0 1.9 4.9.8 4.9 3.7 0 1.2-1 2.3-2.9 2.3-1.3 0-2.3-.4-3.1-1.2zM652.5 526.6l.6-.7c.7.8 1.8 1.6 3.3 1.6 2.2 0 2.8-1.2 2.8-2.1 0-3.1-6.4-1.5-6.4-5.2 0-1.7 1.6-2.8 3.5-2.8 1.6 0 2.8.6 3.6 1.5l-.6.7c-.8-.9-1.9-1.3-3.1-1.3-1.4 0-2.5.8-2.5 2 0 2.7 6.4 1.2 6.4 5.2 0 1.4-.9 3-3.8 3-1.6-.2-3-.9-3.8-1.9zM663.4 530.4c.2.1.5.1.7.1.5 0 .9-.2 1.2-.9l.6-1.4-3.3-7.8h.9l2.8 6.8 2.8-6.8h.9l-4 9.4c-.4 1-1.1 1.4-2 1.4-.3 0-.6 0-.8-.1l.2-.7zM678.2 528.1v-5.2c0-1.5-.8-1.9-1.9-1.9-1 0-2 .6-2.5 1.3v5.8h-.8v-7.7h.8v1.2c.6-.7 1.7-1.4 2.8-1.4 1.6 0 2.4.8 2.4 2.5v5.4h-.8zM688.7 528.1v-1.2c-.5.8-1.5 1.4-2.7 1.4-2 0-3.5-1.6-3.5-4s1.4-4.1 3.5-4.1c1.1 0 2.1.6 2.7 1.4v-4.2h.8v10.7h-.8zm0-1.9v-3.8c-.4-.8-1.5-1.4-2.5-1.4-1.7 0-2.7 1.4-2.7 3.3s1 3.3 2.7 3.3c1.1-.1 2.1-.7 2.5-1.4zM693.4 518.5c0-.4.3-.6.6-.6.4 0 .6.3.6.6s-.3.6-.6.6c-.3.1-.6-.2-.6-.6zm.2 9.6v-7.7h.8v7.7h-.8zM698 524.2c0-2.3 1.5-4 3.8-4 1.3 0 2.1.5 2.7 1.3l-.6.5c-.6-.8-1.3-1.1-2.1-1.1-1.8 0-2.9 1.4-2.9 3.3s1.1 3.3 2.9 3.3c.8 0 1.6-.3 2.1-1.1l.6.5c-.6.8-1.4 1.3-2.7 1.3-2.3.1-3.8-1.7-3.8-4zM712.7 528.1v-.9c-.7.8-1.6 1.1-2.6 1.1-1.3 0-2.7-.9-2.7-2.6 0-1.7 1.4-2.6 2.7-2.6 1.1 0 2 .4 2.6 1.1v-1.6c0-1.2-.9-1.8-2.1-1.8-1 0-1.7.3-2.4 1.1l-.5-.6c.8-.9 1.7-1.3 3-1.3 1.6 0 2.8.8 2.8 2.5v5.4h-.8zm0-1.5v-1.7c-.5-.7-1.4-1.1-2.3-1.1-1.3 0-2.1.8-2.1 1.9 0 1.1.8 1.9 2.1 1.9.9 0 1.8-.3 2.3-1zM717.7 526.6v-5.5h-1.3v-.7h1.3v-2.1h.8v2.1h1.6v.7h-1.6v5.4c0 .6.3 1.1.8 1.1.4 0 .7-.2.9-.4l.3.6c-.3.3-.7.5-1.3.5-1 0-1.5-.6-1.5-1.7zM723 524.2c0-2.2 1.6-4 3.7-4 2.4 0 3.6 1.9 3.6 4.1v.2h-6.5c.1 1.7 1.2 3.1 3 3.1 1 0 1.9-.4 2.5-1.1l.4.5c-.8.8-1.7 1.2-3 1.2-2.1.1-3.7-1.6-3.7-4zm3.7-3.3c-1.8 0-2.7 1.6-2.8 2.9h5.6c0-1.3-.9-2.9-2.8-2.9z"/><g><path d="M148.3 408.9l4-4.6c4.6 5.4 12.2 10.5 22.5 10.5 14.8 0 19-8.2 19-14.4 0-21.2-43.2-10.2-43.2-35.3 0-11.8 10.6-19.2 23.7-19.2 10.8 0 18.8 3.8 24.4 10.2l-4.1 4.5c-5.2-6.3-12.5-9.1-20.6-9.1-9.6 0-16.8 5.5-16.8 13.3 0 18.5 43.2 8.3 43.2 35.2 0 9.3-6.2 20.4-25.6 20.4-12-.1-21-4.8-26.5-11.5zM247.4 419v-72h45.7v5.6h-39.5v26.7h38.8v5.6h-38.8v28.5h39.5v5.6h-45.7zM340.7 419v-72h6.2v66.4h34.9v5.6h-41.1zM427.6 419v-72h45.7v5.6h-39.5v26.7h38.8v5.6h-38.8v28.5h39.5v5.6h-45.7zM518.2 383c0-22.1 16.1-37.3 36.5-37.3 11.4 0 20.1 5.1 26.2 12.7l-5.2 3.3c-4.5-6.3-12.4-10.5-21.1-10.5-17 0-30 12.9-30 31.6 0 18.6 13.1 31.6 30 31.6 8.6 0 16.5-4.2 21.1-10.5l5.2 3.2c-6.4 7.9-14.8 12.9-26.2 12.9-20.4.3-36.5-14.8-36.5-37zM644.2 419v-66.4h-23.5V347H674v5.6h-23.5V419h-6.3zM719.2 419v-72h6.2v72h-6.2zM772.9 383c0-21.1 13.8-37.3 35-37.3 21.1 0 35 16.2 35 37.3 0 21.1-13.9 37.3-35 37.3s-35-16.2-35-37.3zm63.6 0c0-18.4-11.2-31.6-28.5-31.6-17.5 0-28.5 13.3-28.5 31.6 0 18.1 11 31.6 28.5 31.6 17.2.1 28.5-13.4 28.5-31.6zM942.1 419l-45.4-61.9V419h-6.2v-72h6.3l45.1 61v-61h6.2v72h-6z"/></g><path fill="none" stroke="#000" stroke-width=".763" d="M458.1 470.6h186.3"/><g><path d="M546.7 169.7l12.4 9-3.3 3.2-7.5-6.8zM537.6 201.6l-5.3 4.4 1.6-77.9 3.7 7.1zM569 176.3l-23.5-21.4v-4.7l29.1 21.7zM569.3 194.1l-41.4 32.3v-3.3l37.6-33z"/><path d="M545.5 168.8l3.4 2.6.1 17.4-3.5 3.3z"/><path d="M569.2 176.1l-23.7 18.8v-3l19.8-19.6z"/><path d="M569.2 194.2l-12.8-11.7 2.5-3.8 15.5 11.6z"/></g><path fill="none" stroke="#000" stroke-width="2" stroke-miterlimit="10" d="M639.7 305.9h-36.5M625.4 294.2l15.7 11.7-15.4 11"/></svg>