<?xml version="1.0" encoding="utf-8"?>
<!-- Generator: Adobe Illustrator 18.0.0, SVG Export Plug-In . SVG Version: 6.00 Build 0)  -->
<!DOCTYPE svg PUBLIC "-//W3C//DTD SVG 1.1//EN" "http://www.w3.org/Graphics/SVG/1.1/DTD/svg11.dtd">
<svg version="1.1" id="START" xmlns="http://www.w3.org/2000/svg" xmlns:xlink="http://www.w3.org/1999/xlink" x="0px" y="0px"
	 viewBox="55.2 -11.4 992.1 708.7" enable-background="new 55.2 -11.4 992.1 708.7" xml:space="preserve">
<linearGradient id="SVGID_1_" gradientUnits="userSpaceOnUse" x1="268.262" y1="422.495" x2="834.1732" y2="260.2225">
	<stop  offset="0" style="stop-color:#EAFF00"/>
	<stop  offset="0.2033" style="stop-color:#EAFF00"/>
	<stop  offset="0.73" style="stop-color:#A2FC59"/>
	<stop  offset="1" style="stop-color:#57F866"/>
</linearGradient>
<ellipse fill="none" stroke="url(#SVGID_1_)" stroke-width="15" stroke-miterlimit="10" cx="551.2" cy="341.4" rx="286.3" ry="293"/>
<g>
	<path d="M509.6,314.3l-6.1-6.9l-1.6,1.8v5.1h-1.3v-14.7h1.3v8l7.1-8h1.6l-6.2,7l6.8,7.7H509.6z"/>
	<path d="M514.1,306.9c0-4.3,2.8-7.6,7.1-7.6c4.3,0,7.1,3.3,7.1,7.6s-2.8,7.6-7.1,7.6C516.9,314.5,514.1,311.2,514.1,306.9z
		 M527,306.9c0-3.7-2.3-6.4-5.8-6.4c-3.6,0-5.8,2.7-5.8,6.4c0,3.7,2.2,6.4,5.8,6.4C524.8,313.4,527,310.6,527,306.9z"/>
	<path d="M543.1,314.3v-7h-9.3v7h-1.3v-14.7h1.3v6.6h9.3v-6.6h1.3v14.7H543.1z"/>
	<path d="M552.9,314.3v-13.5h-4.8v-1.1h10.9v1.1h-4.8v13.5H552.9z"/>
	<path d="M573.3,314.3l-1.5-3.6H564l-1.5,3.6h-1.5l6-14.7h1.6l6,14.7H573.3z M567.9,300.9l-3.5,8.6h6.9L567.9,300.9z"/>
	<path d="M586.9,314.3l-6.1-6.9l-1.6,1.8v5.1H578v-14.7h1.3v8l7.1-8h1.6l-6.2,7l6.8,7.7H586.9z"/>
	<path d="M595.7,314.3v-13.5h-4.8v-1.1h10.9v1.1H597v13.5H595.7z"/>
</g>
<g>
	<path d="M248.4,569.3c0-6.1,4.6-10.3,10.7-10.3c6.1,0,10.7,4.3,10.7,10.3s-4.6,10.3-10.7,10.3C252.9,579.7,248.4,575.4,248.4,569.3
		z M264.5,569.3c0-3.3-2.1-5.8-5.4-5.8c-3.3,0-5.5,2.5-5.5,5.8c0,3.2,2.1,5.8,5.5,5.8C262.4,575.1,264.5,572.6,264.5,569.3z"/>
	<path d="M277.7,579.3v-10.5h-4v-4h12.5v4h-3.9v10.5H277.7z"/>
	<path d="M300.9,579.3v-10.5h-5.2v10.5h-4.6v-14.5h14.4v14.5H300.9z"/>
	<path d="M316.2,577.6v7.2h-4.6v-20h4.6v1.7c1.1-1.4,2.6-2,4.3-2c3.6,0,6.4,2.7,6.4,7.6c0,4.9-2.7,7.6-6.4,7.6
		C318.9,579.7,317.4,579.1,316.2,577.6z M322.2,572.1c0-2.2-1.4-3.5-3.2-3.5c-1,0-2.2,0.5-2.8,1.3v4.4c0.6,0.8,1.8,1.3,2.8,1.3
		C320.8,575.6,322.2,574.3,322.2,572.1z"/>
	<path d="M340.5,579.3v-1.4c-0.9,1.1-2.6,1.8-4.5,1.8c-2.2,0-5-1.5-5-4.8c0-3.5,2.8-4.6,5-4.6c1.9,0,3.6,0.6,4.5,1.7v-1.7
		c0-1.3-1.1-2.1-2.9-2.1c-1.4,0-2.9,0.5-4.1,1.5l-1.6-2.9c1.9-1.6,4.3-2.2,6.6-2.2c3.5,0,6.8,1.3,6.8,5.8v9.1H340.5z M340.5,575.6
		v-1.3c-0.5-0.7-1.6-1-2.6-1c-1.2,0-2.3,0.5-2.3,1.7c0,1.1,1.1,1.7,2.3,1.7C339,576.7,340,576.3,340.5,575.6z"/>
	<path d="M351.2,579.3v-14.5h9.8c3.1,0,4.6,1.9,4.6,3.7c0,1.7-1.1,2.9-2.5,3.3c1.6,0.3,2.8,1.7,2.8,3.5c0,2.1-1.5,4-4.6,4H351.2z
		 M360.9,569.3c0-0.5-0.4-0.9-1-0.9h-4.1v1.8h4.1C360.6,570.2,360.9,569.8,360.9,569.3z M361.3,574.8c0-0.6-0.5-1-1.1-1h-4.3v2h4.3
		C360.8,575.8,361.3,575.4,361.3,574.8z"/>
	<path d="M372,579.3v-14.5h4.6v7.6l5.2-7.6h4.6v14.5h-4.6v-8l-5.4,8H372z"/>
	<path d="M395.2,579.3v-10.5h-4v-4h12.5v4h-3.9v10.5H395.2z"/>
	<path d="M413.2,564.8v4.6h4.8c3.5,0,5.3,2.2,5.3,4.9c0,2.6-1.9,4.9-5.3,4.9h-9.4v-14.5H413.2z M413.2,573.2v2.4h4
		c0.9,0,1.4-0.5,1.4-1.2c0-0.7-0.5-1.2-1.4-1.2H413.2z"/>
	<path d="M452.4,579.3v-8.7l-3.3,8.7h-2.4l-3.3-8.7v8.7h-4.6v-14.5h6.1l3,7.8l3-7.8h6.1v14.5H452.4z"/>
	<path d="M463.1,579.3v-14.5h4.6v5h5.2v-5h4.6v14.5h-4.6v-5.5h-5.2v5.5H463.1z"/>
	<path d="M482.6,572.1c0-4.2,3.2-7.6,7.7-7.6c4.3,0,7.4,3.2,7.4,8.1v1h-10.3c0.3,1.4,1.5,2.6,3.6,2.6c1,0,2.8-0.5,3.6-1.2l2,2.9
		c-1.4,1.3-3.8,1.9-6.1,1.9C486,579.7,482.6,576.8,482.6,572.1z M490.3,568c-2,0-2.8,1.4-3,2.5h6C493.2,569.5,492.4,568,490.3,568z"
		/>
	<path d="M511.8,577l2.8-2.4c0.6,0.9,1.6,1.6,2.8,1.6c1.5,0,2.8-0.9,3.2-2.5h-5v-3.2h5c-0.5-1.6-1.7-2.4-3.2-2.4
		c-1.2,0-2.2,0.7-2.8,1.5l-2.8-2.4c0.9-1.3,2.8-2.7,5.9-2.7c4.5,0,7.9,3.1,7.9,7.6c0,4.6-3.4,7.6-7.9,7.6
		C514.6,579.7,512.7,578.3,511.8,577z"/>
	<path d="M529.6,575.9c1.1,0,1.8-1,2.2-4.1l1-7h12.4v14.5h-4.6v-10.5h-3.8l-0.5,3.5c-0.6,4.7-2.5,7.3-6.7,7.3V575.9z"/>
	<path d="M550.3,572.1c0-4.2,3.2-7.6,7.7-7.6c4.3,0,7.4,3.2,7.4,8.1v1h-10.3c0.3,1.4,1.5,2.6,3.6,2.6c1,0,2.8-0.5,3.6-1.2l2,2.9
		c-1.4,1.3-3.8,1.9-6.1,1.9C553.8,579.7,550.3,576.8,550.3,572.1z M558,568c-2,0-2.8,1.4-3,2.5h6C560.9,569.5,560.1,568,558,568z"/>
	<path d="M579.6,579.3l-3.2-5.1l-1.4,1.7v3.5h-4.6v-14.5h4.6v5.8l4.4-5.8h5.6l-5.3,6.6l5.6,7.9H579.6z"/>
	<path d="M592.2,579.3v-10.5h-4v-4h12.5v4h-3.9v10.5H592.2z"/>
	<path d="M610.3,577.6v7.2h-4.6v-20h4.6v1.7c1.1-1.4,2.6-2,4.3-2c3.6,0,6.4,2.7,6.4,7.6c0,4.9-2.7,7.6-6.4,7.6
		C612.9,579.7,611.5,579.1,610.3,577.6z M616.2,572.1c0-2.2-1.4-3.5-3.2-3.5c-1,0-2.2,0.5-2.8,1.3v4.4c0.6,0.8,1.8,1.3,2.8,1.3
		C614.8,575.6,616.2,574.3,616.2,572.1z"/>
	<path d="M625.1,572.1c0-4.1,3-7.6,7.9-7.6c5,0,7.9,3.5,7.9,7.6s-2.9,7.6-7.9,7.6C628,579.7,625.1,576.1,625.1,572.1z M636.1,572.1
		c0-1.9-1.1-3.5-3.2-3.5c-2,0-3.1,1.6-3.1,3.5c0,2,1.1,3.5,3.1,3.5C635,575.6,636.1,574,636.1,572.1z"/>
	<path d="M646,579.3v-14.5h4.6v5h5.2v-5h4.6v14.5h-4.6v-5.5h-5.2v5.5H646z"/>
	<path d="M666.5,579.3v-14.5h4.6v5h5.2v-5h4.6v14.5h-4.6v-5.5h-5.2v5.5H666.5z"/>
	<path d="M686,572.1c0-4.1,3-7.6,7.9-7.6c5,0,7.9,3.5,7.9,7.6s-2.9,7.6-7.9,7.6C689,579.7,686,576.1,686,572.1z M697.1,572.1
		c0-1.9-1.1-3.5-3.2-3.5c-2,0-3.1,1.6-3.1,3.5c0,2,1.1,3.5,3.1,3.5C696,575.6,697.1,574,697.1,572.1z"/>
	<path d="M706,572.1c0-4.2,3.2-7.6,7.7-7.6c4.3,0,7.4,3.2,7.4,8.1v1h-10.3c0.3,1.4,1.5,2.6,3.6,2.6c1,0,2.8-0.5,3.6-1.2l2,2.9
		c-1.4,1.3-3.8,1.9-6.1,1.9C709.5,579.7,706,576.8,706,572.1z M713.7,568c-2,0-2.8,1.4-3,2.5h6C716.6,569.5,715.8,568,713.7,568z"/>
	<path d="M746.3,579.3v-10.5h-5.2v10.5h-4.6v-14.5h14.4v14.5H746.3z"/>
	<path d="M757,579.3v-14.5h4.6v7.6l5.2-7.6h4.6v14.5h-4.6v-8l-5.4,8H757z"/>
	<path d="M776.5,572.1c0-4.5,3.4-7.6,7.9-7.6c3.1,0,5.1,1.4,5.9,2.7l-3,2.8c-0.6-0.8-1.5-1.4-2.7-1.4c-1.9,0-3.4,1.3-3.4,3.5
		c0,2.2,1.5,3.5,3.4,3.5c1.2,0,2.2-0.6,2.7-1.4l3,2.8c-0.9,1.3-2.8,2.7-5.9,2.7C779.9,579.7,776.5,576.6,776.5,572.1z"/>
	<path d="M799.8,564.8v4.6h4.8c3.5,0,5.3,2.2,5.3,4.9c0,2.6-1.9,4.9-5.3,4.9h-9.4v-14.5H799.8z M799.8,573.2v2.4h4
		c0.9,0,1.4-0.5,1.4-1.2c0-0.7-0.5-1.2-1.4-1.2H799.8z"/>
	<path d="M828.6,579.3v-8.7l-3.3,8.7h-2.4l-3.3-8.7v8.7h-4.6v-14.5h6.1l3,7.8l3-7.8h6.1v14.5H828.6z"/>
	<path d="M838.3,572.1c0-4.1,3-7.6,7.9-7.6c5,0,7.9,3.5,7.9,7.6s-2.9,7.6-7.9,7.6C841.2,579.7,838.3,576.1,838.3,572.1z
		 M849.3,572.1c0-1.9-1.1-3.5-3.2-3.5c-2,0-3.1,1.6-3.1,3.5c0,2,1.1,3.5,3.1,3.5C848.2,575.6,849.3,574,849.3,572.1z"/>
</g>
<g>
	<path d="M136,419v-34.2H90.3V419h-6.2v-72h6.2v32.2H136V347h6.3v72H136z"/>
	<path d="M243.6,419l-7.1-17.7h-38.1l-7.1,17.7h-7.1l29.5-72h7.7l29.5,72H243.6z M217.3,353.6l-17,42.1h34L217.3,353.6z"/>
	<path d="M344.5,419v-66.4h-45.7V419h-6.2v-72h58.1v72H344.5z"/>
	<path d="M399.9,419v-72h6.2v61l45.1-61h6.3v72h-6.2v-61.9L405.9,419H399.9z"/>
	<path d="M592.6,347v72h-86v-72h6.2v66.4h33.7V347h6.3v66.4h33.7V347H592.6z"/>
	<path d="M641.9,419v-72h6.2v61l45.1-61h6.3v72h-6.2v-61.9L647.9,419H641.9z"/>
	<path d="M809.8,419v-63.6L783.6,419h-2.4l-26.4-63.6V419h-6.2v-72h9.2l24.5,59.4l24.4-59.4h9.3v72H809.8z"/>
	<path d="M917.2,419v-34.2h-45.7V419h-6.2v-72h6.2v32.2h45.7V347h6.3v72H917.2z"/>
	<path d="M972.6,419v-72h45.7v5.6h-39.5v26.7h38.8v5.6h-38.8v28.5h39.5v5.6H972.6z"/>
</g>
<line fill="none" stroke="#000000" stroke-width="0.763" x1="458.1" y1="470.6" x2="644.4" y2="470.6"/>
<g>
	<polygon points="546.7,169.7 559.1,178.7 555.8,181.9 548.3,175.1 	"/>
	<polygon points="537.6,201.6 532.3,206 533.9,128.1 537.6,135.2 	"/>
	<polygon points="569,176.3 545.5,154.9 545.5,150.2 574.6,171.9 	"/>
	<polygon points="569.3,194.1 527.9,226.4 527.9,223.1 565.5,190.1 	"/>
	<polygon points="545.5,168.8 548.9,171.4 549,188.8 545.5,192.1 	"/>
	<polygon points="569.2,176.1 545.5,194.9 545.5,191.9 565.3,172.3 	"/>
	<polygon points="569.2,194.2 556.4,182.5 558.9,178.7 574.4,190.3 	"/>
</g>
<g id="Ebene_5">
	<g display="none">
		<path display="inline" d="M551.2,501.2c0.3,0,0.6,0.3,0.6,0.6v26.8l9.2-9.3c0.1-0.1,0.2-0.2,0.4-0.2c0.3,0,0.6,0.3,0.6,0.6
			c0,0.1-0.1,0.3-0.2,0.4l-10.2,10.2c-0.1,0.1-0.2,0.2-0.4,0.2c-0.1,0-0.3-0.1-0.4-0.2l-10.2-10.2c-0.1-0.1-0.2-0.2-0.2-0.4
			c0-0.3,0.3-0.6,0.6-0.6c0.2,0,0.3,0.1,0.4,0.2l9.2,9.2v-26.8C550.6,501.4,550.9,501.2,551.2,501.2z"/>
	</g>
	<g display="none">
		<path display="inline" d="M550.6,530v-26.8l-9.2,9.2c-0.1,0.1-0.2,0.2-0.4,0.2c-0.3,0-0.6-0.3-0.6-0.6c0-0.1,0.1-0.3,0.2-0.4
			l10.2-10.2c0.1-0.1,0.3-0.2,0.4-0.2c0.1,0,0.3,0.1,0.4,0.2l10.2,10.2c0.1,0.1,0.2,0.2,0.2,0.4c0,0.3-0.3,0.6-0.6,0.6
			c-0.1,0-0.3-0.1-0.4-0.2l-9.2-9.3V530c0,0.3-0.3,0.6-0.6,0.6C550.9,530.5,550.6,530.3,550.6,530z"/>
	</g>
	<g>
		<path d="M536.5,515.9c0-0.3,0.3-0.6,0.6-0.6H564l-9.3-9.2c-0.1-0.1-0.2-0.2-0.2-0.4c0-0.3,0.3-0.6,0.6-0.6c0.1,0,0.3,0.1,0.4,0.2
			l10.2,10.2c0.1,0.1,0.2,0.2,0.2,0.4c0,0.1-0.1,0.3-0.2,0.4l-10.2,10.2c-0.1,0.1-0.2,0.2-0.4,0.2c-0.3,0-0.6-0.3-0.6-0.6
			c0-0.1,0.1-0.3,0.2-0.4l9.2-9.2h-26.8C536.8,516.5,536.5,516.2,536.5,515.9z"/>
	</g>
	<g display="none">
		<path display="inline" d="M565.3,516.5h-26.8l9.2,9.2c0.1,0.1,0.2,0.2,0.2,0.4c0,0.3-0.3,0.6-0.6,0.6c-0.2,0-0.3-0.1-0.4-0.2
			l-10.2-10.2c-0.1-0.1-0.2-0.3-0.2-0.4c0-0.1,0.1-0.3,0.2-0.4l10.2-10.2c0.1-0.1,0.2-0.2,0.4-0.2c0.3,0,0.6,0.3,0.6,0.6
			c0,0.1-0.1,0.3-0.2,0.4l-9.3,9.2h26.8c0.3,0,0.6,0.3,0.6,0.6C565.9,516.2,565.6,516.5,565.3,516.5z"/>
	</g>
</g>
</svg>
