<?xml version="1.0" encoding="utf-8"?>
<!-- Generator: Adobe Illustrator 18.0.0, SVG Export Plug-In . SVG Version: 6.00 Build 0)  -->
<!DOCTYPE svg PUBLIC "-//W3C//DTD SVG 1.1//EN" "http://www.w3.org/Graphics/SVG/1.1/DTD/svg11.dtd">
<svg version="1.1" id="START" xmlns="http://www.w3.org/2000/svg" xmlns:xlink="http://www.w3.org/1999/xlink" x="0px" y="0px"
	 viewBox="65.5 -16.1 992.1 708.7" enable-background="new 65.5 -16.1 992.1 708.7" xml:space="preserve">
<ellipse stroke="#FFFFFF" stroke-width="1.0505" stroke-miterlimit="10" cx="553.2" cy="338.4" rx="286.3" ry="291.2"/>
<linearGradient id="SVGID_1_" gradientUnits="userSpaceOnUse" x1="270.2614" y1="422.4631" x2="836.1725" y2="260.1906">
	<stop  offset="0" style="stop-color:#EAFF00"/>
	<stop  offset="0.2033" style="stop-color:#EAFF00"/>
	<stop  offset="0.73" style="stop-color:#A2FC59"/>
	<stop  offset="1" style="stop-color:#57F866"/>
</linearGradient>
<ellipse fill="none" stroke="url(#SVGID_1_)" stroke-width="15" stroke-miterlimit="10" cx="553.2" cy="341.3" rx="286.3" ry="293"/>
<g>
	<path fill="#FFFFFF" d="M204.9,382.6v-14.4l-5.4,14.4h-3.2l-5.4-14.4v14.4h-7.3v-24h10l4.2,11.5l4.2-11.5h10v24H204.9z"/>
	<path fill="#FFFFFF" d="M233.2,382.6v-1.7c-1,1.2-3.1,2.1-5.3,2.1c-2.6,0-6-1.8-6-5.7c0-4.3,3.4-5.5,6-5.5c2.3,0,4.3,0.7,5.3,1.9
		v-1.8c0-1.2-1.1-2.2-3.2-2.2c-1.6,0-3.5,0.6-4.8,1.7l-2.2-4c2.3-1.9,5.6-2.6,8.2-2.6c4.3,0,8.5,1.5,8.5,7.3v10.5H233.2z
		 M233.2,377.8v-1c-0.4-0.6-1.5-0.9-2.6-0.9c-1.1,0-2.3,0.4-2.3,1.4c0,1.1,1.2,1.4,2.3,1.4C231.6,378.8,232.7,378.5,233.2,377.8z"/>
	<path fill="#FFFFFF" d="M249.2,373.8c0-5.5,4.2-9.1,9.8-9.1c4,0,6.4,1.8,7.4,3.3l-4.2,3.9c-0.5-0.8-1.5-1.5-2.9-1.5
		c-1.8,0-3.4,1.2-3.4,3.4c0,2.2,1.6,3.4,3.4,3.4c1.4,0,2.4-0.7,2.9-1.5l4.2,4c-1,1.4-3.4,3.3-7.4,3.3
		C253.5,383,249.2,379.4,249.2,373.8z"/>
	<path fill="#FFFFFF" d="M279.1,382.6v-11.8h-4.6v-5.6h15.7v5.6h-4.6v11.8H279.1z"/>
	<path fill="#FFFFFF" d="M298.5,373.8c0-5,3.9-9.1,9.5-9.1c5.1,0,9,3.7,9,9.8v1.3h-11.8c0.4,1.1,1.6,2.2,3.7,2.2c1,0,3.1-0.5,4-1.2
		l2.7,4c-1.7,1.5-4.8,2.2-7.4,2.2C302.7,383,298.5,379.6,298.5,373.8z M308,369.7c-2,0-2.6,1.3-2.8,2.1h5.7
		C310.7,371,310,369.7,308,369.7z"/>
	<path fill="#FFFFFF" d="M332.9,380.7v8.5h-6.5v-24h6.5v1.8c1.4-1.7,3.1-2.3,4.9-2.3c4.3,0,7.6,3.2,7.6,9.1c0,6-3.3,9.1-7.6,9.1
		C336,383,334.3,382.4,332.9,380.7z M338.8,373.8c0-2.2-1.5-3.4-3.2-3.4c-0.8,0-2.1,0.4-2.7,1.2v4.4c0.6,0.7,1.8,1.2,2.7,1.2
		C337.3,377.3,338.8,376,338.8,373.8z"/>
	<path fill="#FFFFFF" d="M365.8,382.6l-3-5.6l-1.3,1.7v3.9H355v-17.4h6.5v6.2l4-6.2h7.8l-6,7.9l6.4,9.5H365.8z"/>
	<path fill="#FFFFFF" d="M381.1,377.7c1.2,0,2.1-0.9,2.6-4.2l1.2-8.3h15.6v17.4h-6.5v-11.8h-3.6l-0.5,3.6c-0.8,5.3-3,8.6-8.8,8.6
		V377.7z"/>
	<path fill="#FFFFFF" d="M421.4,382.6v-1.7c-1,1.2-3.1,2.1-5.3,2.1c-2.6,0-6-1.8-6-5.7c0-4.3,3.4-5.5,6-5.5c2.3,0,4.3,0.7,5.3,1.9
		v-1.8c0-1.2-1.1-2.2-3.2-2.2c-1.6,0-3.5,0.6-4.8,1.7l-2.2-4c2.3-1.9,5.6-2.6,8.2-2.6c4.3,0,8.5,1.5,8.5,7.3v10.5H421.4z
		 M421.4,377.8v-1c-0.4-0.6-1.5-0.9-2.6-0.9c-1.1,0-2.3,0.4-2.3,1.4c0,1.1,1.2,1.4,2.3,1.4C419.8,378.8,421,378.5,421.4,377.8z"/>
	<path fill="#FFFFFF" d="M437.5,373.8c0-5.5,4.2-9.1,9.8-9.1c4,0,6.4,1.8,7.4,3.3l-4.2,3.9c-0.5-0.8-1.5-1.5-2.9-1.5
		c-1.8,0-3.4,1.2-3.4,3.4c0,2.2,1.6,3.4,3.4,3.4c1.4,0,2.4-0.7,2.9-1.5l4.2,4c-1,1.4-3.4,3.3-7.4,3.3
		C441.7,383,437.5,379.4,437.5,373.8z"/>
	<path fill="#FFFFFF" d="M462.8,373.8c0-5.5,4.2-9.1,9.8-9.1c4,0,6.4,1.8,7.4,3.3l-4.2,3.9c-0.5-0.8-1.5-1.5-2.9-1.5
		c-1.8,0-3.4,1.2-3.4,3.4c0,2.2,1.6,3.4,3.4,3.4c1.4,0,2.4-0.7,2.9-1.5l4.2,4c-1,1.4-3.4,3.3-7.4,3.3
		C467,383,462.8,379.4,462.8,373.8z"/>
	<path fill="#FFFFFF" d="M524.8,382.6v-11.8h-5.3v11.8h-6.5v-17.4h18.2v17.4H524.8z"/>
	<path fill="#FFFFFF" d="M540.9,373.8c0-4.9,3.6-9.1,9.8-9.1c6.2,0,9.8,4.2,9.8,9.1s-3.6,9.1-9.8,9.1
		C544.5,383,540.9,378.7,540.9,373.8z M553.8,373.8c0-1.9-1.1-3.4-3.1-3.4c-2,0-3.1,1.5-3.1,3.4c0,1.9,1.1,3.4,3.1,3.4
		C552.7,377.3,553.8,375.8,553.8,373.8z"/>
	<path fill="#FFFFFF" d="M614.1,358.6v6.3h-12.7v1.9h5.9c5.4,0,8.3,3.6,8.3,7.8c0,4.3-2.9,7.9-8.3,7.9h-13.2v-24H614.1z
		 M601.4,373.1v3.1h5c1,0,1.8-0.5,1.8-1.5s-0.8-1.5-1.8-1.5H601.4z"/>
	<path fill="#FFFFFF" d="M623.8,373.8c0-4.9,3.6-9.1,9.8-9.1c6.2,0,9.8,4.2,9.8,9.1s-3.6,9.1-9.8,9.1
		C627.4,383,623.8,378.7,623.8,373.8z M636.7,373.8c0-1.9-1.1-3.4-3.1-3.4c-2,0-3.1,1.5-3.1,3.4c0,1.9,1.1,3.4,3.1,3.4
		C635.6,377.3,636.7,375.8,636.7,373.8z"/>
	<path fill="#FFFFFF" d="M651.8,377.7c1.2,0,2.1-0.9,2.6-4.2l1.2-8.3h15.6v17.4h-6.5v-11.8h-3.6l-0.5,3.6c-0.8,5.3-3,8.6-8.8,8.6
		V377.7z"/>
	<path fill="#FFFFFF" d="M688.5,380.7v8.5H682v-24h6.5v1.8c1.4-1.7,3.1-2.3,4.9-2.3c4.3,0,7.6,3.2,7.6,9.1c0,6-3.3,9.1-7.6,9.1
		C691.6,383,689.9,382.4,688.5,380.7z M694.4,373.8c0-2.2-1.5-3.4-3.2-3.4c-0.8,0-2.1,0.4-2.7,1.2v4.4c0.6,0.7,1.8,1.2,2.7,1.2
		C692.9,377.3,694.4,376,694.4,373.8z"/>
	<path fill="#FFFFFF" d="M720.7,382.6v-1.7c-1,1.2-3.1,2.1-5.3,2.1c-2.6,0-6-1.8-6-5.7c0-4.3,3.4-5.5,6-5.5c2.3,0,4.3,0.7,5.3,1.9
		v-1.8c0-1.2-1.1-2.2-3.2-2.2c-1.6,0-3.5,0.6-4.8,1.7l-2.2-4c2.3-1.9,5.6-2.6,8.2-2.6c4.3,0,8.5,1.5,8.5,7.3v10.5H720.7z
		 M720.7,377.8v-1c-0.4-0.6-1.5-0.9-2.6-0.9c-1.1,0-2.3,0.4-2.3,1.4c0,1.1,1.2,1.4,2.3,1.4C719.1,378.8,720.2,378.5,720.7,377.8z"/>
	<path fill="#FFFFFF" d="M738,382.6v-17.4h6.5v7.7l5.2-7.7h6.6v17.4h-6.5v-8.2l-5.6,8.2H738z M747.1,363.7c-2.6,0-4.9-1.2-6.3-3.2
		l2.7-2.2c0.8,1.1,2,1.9,3.6,1.9c1.5,0,2.7-0.7,3.6-1.9l2.7,2.2C752,362.5,749.7,363.7,747.1,363.7z"/>
	<path fill="#FFFFFF" d="M765.9,377.2c1.2,0,2.1-0.3,2.6-3.7l1.2-8.3h15.6v11.8h1.9v10h-6.5v-4.4h-8.4v4.4h-6.5V377.2z M774.8,373.5
		c-0.2,1.4-0.6,2.6-1.4,3.5h5.4v-6.2h-3.6L774.8,373.5z"/>
	<path fill="#FFFFFF" d="M797.4,383.6c0.4,0.2,0.9,0.3,1.4,0.3c1.3,0,2.1-0.2,2.3-0.7l0.1-0.4l-6.8-17.7h6.8l3.3,9.9l3.3-9.9h6.8
		l-7.6,19.5c-1.5,4-4.4,4.8-8.1,4.9c-0.5,0-1.9-0.1-2.5-0.3L797.4,383.6z"/>
</g>
<g>
	<path fill="#FFFFFF" d="M588.9,162.3v-16h8.5c3.7,0,5.8,2.5,5.8,5.5c0,3-2,5.5-5.8,5.5h-3.7v5H588.9z M598.3,151.8
		c0-0.9-0.6-1.3-1.5-1.3h-3.1v2.5h3.1C597.7,153.1,598.3,152.6,598.3,151.8z"/>
	<path fill="#FFFFFF" d="M608.7,156.5c0-3.4,2.6-6.1,6.3-6.1c3.4,0,6,2.4,6,6.5v0.9h-7.9c0.2,0.7,1.1,1.5,2.5,1.5
		c0.6,0,2.1-0.3,2.7-0.8l1.8,2.7c-1.2,1-3.2,1.4-4.9,1.4C611.6,162.6,608.7,160.3,608.7,156.5z M615.1,153.7c-1.3,0-1.8,0.9-1.9,1.4
		h3.8C616.9,154.6,616.4,153.7,615.1,153.7z"/>
	<path fill="#FFFFFF" d="M625.9,162.3l4.2-6.3l-4-5.3h5.2l2.2,3.4v-3.4h4.3v3.4l2.2-3.4h5.2l-4,5.3l4.2,6.3h-5.3l-2-3.7l-0.4,0.5
		v3.3h-4.3v-3.3l-0.4-0.5l-2,3.7H625.9z"/>
	<path fill="#FFFFFF" d="M651.2,162.3v-11.6h4.3v5.2l3.5-5.2h4.4v11.6h-4.3v-5.5l-3.7,5.5H651.2z"/>
	<path fill="#FFFFFF" d="M669.8,156.5c0-3.7,2.8-6.1,6.5-6.1c2.6,0,4.3,1.2,4.9,2.2l-2.8,2.6c-0.4-0.6-1-1-1.9-1
		c-1.2,0-2.3,0.8-2.3,2.3s1.1,2.3,2.3,2.3c0.9,0,1.6-0.5,1.9-1l2.8,2.6c-0.6,1-2.3,2.2-4.9,2.2C672.6,162.6,669.8,160.2,669.8,156.5
		z"/>
	<path fill="#FFFFFF" d="M686.6,156.5c0-3.7,2.8-6.1,6.5-6.1c2.6,0,4.3,1.2,4.9,2.2l-2.8,2.6c-0.4-0.6-1-1-1.9-1
		c-1.2,0-2.3,0.8-2.3,2.3s1.1,2.3,2.3,2.3c0.9,0,1.6-0.5,1.9-1l2.8,2.6c-0.6,1-2.3,2.2-4.9,2.2C689.5,162.6,686.6,160.2,686.6,156.5
		z"/>
	<path fill="#FFFFFF" d="M704.3,162.3v-11.6h4.3v5.2l3.5-5.2h4.4v11.6h-4.3v-5.5l-3.7,5.5H704.3z"/>
	<path fill="#FFFFFF" d="M728,161.1v5.6h-4.3v-16h4.3v1.2c0.9-1.1,2.1-1.5,3.3-1.5c2.9,0,5.1,2.1,5.1,6.1c0,4-2.2,6.1-5.1,6.1
		C730,162.6,728.9,162.2,728,161.1z M731.9,156.5c0-1.4-1-2.3-2.2-2.3c-0.6,0-1.4,0.3-1.8,0.8v3c0.4,0.5,1.2,0.8,1.8,0.8
		C730.9,158.8,731.9,158,731.9,156.5z"/>
	<path fill="#FFFFFF" d="M743.2,163c0.3,0.1,0.6,0.2,0.9,0.2c0.8,0,1.4-0.1,1.5-0.5l0.1-0.2l-4.6-11.8h4.6l2.2,6.6l2.2-6.6h4.6
		l-5,13c-1,2.7-3,3.2-5.4,3.3c-0.3,0-1.3-0.1-1.7-0.2L743.2,163z"/>
	<path fill="#FFFFFF" d="M766.4,158.1h-1.7v4.2h-4.3v-11.6h4.3v3.7h1.9c0.8-2.3,3-4,6.1-4c4.1,0,6.5,2.8,6.5,6.1s-2.4,6.1-6.5,6.1
		C769.3,162.6,767.1,160.7,766.4,158.1z M774.8,156.5c0-1.3-0.7-2.3-2.1-2.3c-1.3,0-2.1,1-2.1,2.3c0,1.3,0.7,2.3,2.1,2.3
		C774.1,158.8,774.8,157.8,774.8,156.5z"/>
	<path fill="#FFFFFF" d="M817.5,146.3v16h-22.7v-16h4.8v11.8h4.1v-11.8h4.8v11.8h4.1v-11.8H817.5z"/>
	<path fill="#FFFFFF" d="M824,156.5c0-3.2,2.4-6.1,6.5-6.1c4.1,0,6.5,2.8,6.5,6.1s-2.4,6.1-6.5,6.1C826.4,162.6,824,159.7,824,156.5
		z M832.5,156.5c0-1.3-0.7-2.3-2.1-2.3c-1.3,0-2.1,1-2.1,2.3c0,1.3,0.7,2.3,2.1,2.3C831.8,158.8,832.5,157.8,832.5,156.5z"/>
	<path fill="#FFFFFF" d="M843.9,163c0.3,0.1,0.6,0.2,0.9,0.2c0.8,0,1.4-0.1,1.5-0.5l0.1-0.2l-4.6-11.8h4.6l2.2,6.6l2.2-6.6h4.6
		l-5,13c-1,2.7-3,3.2-5.4,3.3c-0.3,0-1.3-0.1-1.7-0.2L843.9,163z"/>
</g>
<g>
	<path fill="#FFFFFF" d="M359.3,492v-1.2c-3.8-0.3-6-1.8-6-4.5s2.2-4.1,6-4.5v-1.2h3.6v1.2c3.8,0.3,6,1.8,6,4.5s-2.2,4.2-6,4.5v1.2
		H359.3z M359.3,487.8v-2.9c-1.5,0.2-2.3,0.6-2.3,1.5C357,487.1,357.7,487.6,359.3,487.8z M362.9,484.8v2.9c1.5-0.2,2.3-0.6,2.3-1.5
		C365.2,485.5,364.4,485,362.9,484.8z"/>
	<path fill="#FFFFFF" d="M376.3,487.8c0-2.3,1.8-4.3,4.9-4.3c3.1,0,4.9,2,4.9,4.3s-1.8,4.3-4.9,4.3
		C378.1,492.2,376.3,490.1,376.3,487.8z M382.7,487.8c0-0.9-0.6-1.6-1.6-1.6c-1,0-1.5,0.7-1.5,1.6c0,0.9,0.6,1.6,1.5,1.6
		C382.2,489.5,382.7,488.8,382.7,487.8z"/>
	<path fill="#FFFFFF" d="M395.8,492v-5.6h-2.3v-2.7h7.8v2.7H399v5.6H395.8z"/>
	<path fill="#FFFFFF" d="M408.7,487.8c0-2.3,1.8-4.3,4.9-4.3c3.1,0,4.9,2,4.9,4.3s-1.8,4.3-4.9,4.3
		C410.5,492.2,408.7,490.1,408.7,487.8z M415.1,487.8c0-0.9-0.6-1.6-1.6-1.6c-1,0-1.5,0.7-1.5,1.6c0,0.9,0.6,1.6,1.5,1.6
		C414.6,489.5,415.1,488.8,415.1,487.8z"/>
	<path fill="#FFFFFF" d="M425.9,487.8c0-2.6,2.1-4.3,4.9-4.3c2,0,3.2,0.8,3.7,1.5l-2.1,1.9c-0.3-0.4-0.8-0.7-1.4-0.7
		c-0.9,0-1.7,0.5-1.7,1.6c0,1.1,0.8,1.6,1.7,1.6c0.7,0,1.2-0.3,1.4-0.7l2.1,1.9c-0.5,0.7-1.7,1.5-3.7,1.5
		C428,492.2,425.9,490.5,425.9,487.8z"/>
	<path fill="#FFFFFF" d="M444,492v-5.6h-2.3v-2.7h5.5v2.4h2.7c2.2,0,3.3,1.3,3.3,2.9c0,1.5-1.2,2.9-3.3,2.9H444z M447.2,488.6v1h2.1
		c0.4,0,0.7-0.2,0.7-0.5c0-0.3-0.3-0.5-0.7-0.5H447.2z"/>
	<path fill="#FFFFFF" d="M460.7,487.8c0-2.4,1.9-4.3,4.7-4.3c2.5,0,4.5,1.7,4.5,4.6v0.6h-5.9c0.2,0.5,0.8,1,1.9,1
		c0.5,0,1.6-0.2,2-0.6l1.3,1.9c-0.9,0.7-2.4,1-3.7,1C462.9,492.2,460.7,490.5,460.7,487.8z M465.4,485.9c-1,0-1.3,0.6-1.4,1h2.8
		C466.8,486.5,466.5,485.9,465.4,485.9z"/>
	<path fill="#FFFFFF" d="M486.2,492v-4.5l-1.7,4.5h-1.8l-1.7-4.5v4.5h-3.2v-8.2h4.3l1.5,4l1.5-4h4.3v8.2H486.2z"/>
	<path fill="#FFFFFF" d="M503.4,492l-1.5-2.7l-0.6,0.8v1.9h-3.2v-8.2h3.2v2.9l2-2.9h3.9l-3,3.7l3.2,4.5H503.4z"/>
	<path fill="#FFFFFF" d="M514.9,492v-8.2h3.2v3.7l2.6-3.7h3.3v8.2h-3.2v-3.9L518,492H514.9z"/>
</g>
<g>
	<path fill="#FFFFFF" d="M350,273.6v24h-34v-24h7.3v17.7h6.1v-17.7h7.3v17.7h6.1v-17.7H350z"/>
	<path fill="#FFFFFF" d="M359.8,288.9c0-4.9,3.6-9.1,9.8-9.1c6.2,0,9.8,4.2,9.8,9.1s-3.6,9.1-9.8,9.1
		C363.4,298,359.8,293.7,359.8,288.9z M372.7,288.9c0-1.9-1.1-3.4-3.1-3.4c-2,0-3.1,1.5-3.1,3.4c0,1.9,1.1,3.4,3.1,3.4
		C371.6,292.3,372.7,290.8,372.7,288.9z"/>
	<path fill="#FFFFFF" d="M389.7,298.6c0.4,0.2,0.9,0.3,1.4,0.3c1.3,0,2.1-0.2,2.3-0.7l0.1-0.4l-6.8-17.7h6.8l3.3,9.9l3.3-9.9h6.8
		l-7.6,19.5c-1.5,4-4.4,4.8-8.1,4.9c-0.5,0-1.9-0.1-2.5-0.3L389.7,298.6z"/>
	<path fill="#FFFFFF" d="M483,291.6c2.1,0,3.6-1.4,4.1-5.9l1.5-12.1h18.8v24h-7.3v-17.7h-4.9l-0.8,6.3c-1.2,9.5-5.8,11.8-11.4,11.8
		V291.6z"/>
	<path fill="#FFFFFF" d="M517.2,288.9c0-5,3.9-9.1,9.5-9.1c5.1,0,9,3.7,9,9.8v1.3h-11.8c0.4,1.1,1.6,2.2,3.7,2.2c1,0,3.1-0.5,4-1.2
		l2.7,4c-1.7,1.5-4.8,2.2-7.4,2.2C521.4,298,517.2,294.6,517.2,288.9z M526.6,284.7c-2,0-2.6,1.3-2.8,2.1h5.7
		C529.3,286,528.7,284.7,526.6,284.7z"/>
	<path fill="#FFFFFF" d="M548.5,297.6v-11.8h-4.6v-5.6h15.7v5.6H555v11.8H548.5z"/>
	<path fill="#FFFFFF" d="M579.1,297.6v-1.7c-1,1.2-3.1,2.1-5.3,2.1c-2.6,0-6-1.8-6-5.7c0-4.3,3.4-5.5,6-5.5c2.3,0,4.3,0.7,5.3,1.9
		v-1.8c0-1.2-1.1-2.2-3.2-2.2c-1.6,0-3.5,0.6-4.8,1.7l-2.2-4c2.3-1.9,5.6-2.6,8.2-2.6c4.3,0,8.5,1.5,8.5,7.3v10.5H579.1z
		 M579.1,292.9v-1c-0.4-0.6-1.5-0.9-2.6-0.9c-1.1,0-2.3,0.4-2.3,1.4s1.2,1.4,2.3,1.4C577.6,293.8,578.7,293.5,579.1,292.9z"/>
	<path fill="#FFFFFF" d="M605.5,291.3h-2.6v6.3h-6.5v-17.4h6.5v5.5h2.8c1.2-3.4,4.4-5.9,9.2-5.9c6.2,0,9.8,4.2,9.8,9.1
		s-3.6,9.1-9.8,9.1C609.8,298,606.5,295.1,605.5,291.3z M618.1,288.9c0-1.9-1.1-3.4-3.1-3.4c-2,0-3.1,1.5-3.1,3.4
		c0,1.9,1.1,3.4,3.1,3.4C617,292.3,618.1,290.8,618.1,288.9z"/>
	<path fill="#FFFFFF" d="M663,280.2V292h1.9v10h-6.5v-4.4h-24.1v-17.4h6.5V292h4.6v-11.8h6.5V292h4.6v-11.8H663z"/>
	<path fill="#FFFFFF" d="M674.4,297.6v-17.4h6.5v7.7l5.2-7.7h6.6v17.4h-6.5v-8.2l-5.6,8.2H674.4z"/>
	<path fill="#FFFFFF" d="M713.7,297.6L711,293l-2.8,4.6h-7.1l5.7-8.9l-5.3-8.5h7.1l2.3,4.1l2.3-4.1h7.1l-5.3,8.5l5.7,8.9H713.7z"/>
	<path fill="#FFFFFF" d="M819.5,297.6v-14.4l-5.4,14.4h-3.2l-5.4-14.4v14.4h-7.3v-24h10l4.2,11.5l4.2-11.5h10v24H819.5z"/>
	<path fill="#FFFFFF" d="M837.3,297.6l3.4-5.8c-1.3-0.6-3.4-2.1-3.4-5.5c0-3.3,2.5-6.1,6.7-6.1h12v17.4h-6.5v-5.2h-2.6l-2.4,5.2
		H837.3z M849.5,287.3v-2.1h-4.2c-0.8,0-1.3,0.4-1.3,1c0,0.6,0.5,1,1.3,1H849.5z"/>
	<path fill="#FFFFFF" d="M872.7,280.2v4.9c0,1.8,1,2.5,2.5,2.5c1.5,0,2.2-0.4,2.8-0.8v-6.6h6.5v17.4H878v-5.7
		c-1,0.6-2.9,1.4-5.3,1.4c-4.7,0-6.5-2.4-6.5-6.2v-6.9H872.7z"/>
	<path fill="#FFFFFF" d="M894.1,288.9c0-5,3.9-9.1,9.5-9.1c5.1,0,9,3.7,9,9.8v1.3h-11.8c0.4,1.1,1.6,2.2,3.7,2.2c1,0,3.1-0.5,4-1.2
		l2.7,4c-1.7,1.5-4.8,2.2-7.4,2.2C898.3,298,894.1,294.6,894.1,288.9z M903.5,284.7c-2,0-2.6,1.3-2.8,2.1h5.7
		C906.2,286,905.6,284.7,903.5,284.7z"/>
	<path fill="#FFFFFF" d="M922,297.6v-17.4h6.5v7.7l5.2-7.7h6.6v17.4h-6.5v-8.2l-5.6,8.2H922z M931.1,278.7c-2.6,0-4.9-1.2-6.3-3.2
		l2.7-2.2c0.8,1.1,2,1.9,3.6,1.9c1.5,0,2.7-0.7,3.6-1.9l2.7,2.2C936,277.5,933.7,278.7,931.1,278.7z"/>
</g>
<g>
	<path fill="#FFFFFF" d="M553.2,582.7c-1,0-1.8-0.8-1.8-1.7c0-1,0.8-1.8,1.8-1.8s1.8,0.8,1.8,1.8C555,581.9,554.2,582.7,553.2,582.7
		z"/>
</g>
<g>
	<path fill="#FFFFFF" d="M553.2,109c-1,0-1.8-0.8-1.8-1.7c0-1,0.8-1.8,1.8-1.8s1.8,0.8,1.8,1.8C555,108.2,554.2,109,553.2,109z"/>
</g>
<g>
	<path fill="#FFFFFF" d="M183.1,433.9v-16h6.9c2.8,0,4.6,1.6,4.6,4.1c0,2-1.4,3.4-3,3.7c1.8,0.3,3.3,2,3.3,3.9
		c0,2.7-1.8,4.3-4.8,4.3H183.1z M193.2,422.1c0-1.6-1.1-3-3.3-3h-5.3v5.9h5.3C192.1,425.1,193.2,423.8,193.2,422.1z M193.5,429.5
		c0-1.6-1.2-3.2-3.5-3.2h-5.4v6.3h5.4C192.2,432.7,193.5,431.4,193.5,429.5z"/>
	<path fill="#FFFFFF" d="M203.7,433.9v-11.6h1.3v9.6l6.9-9.6h1.3v11.6h-1.3v-9.8l-7,9.8H203.7z"/>
	<path fill="#FFFFFF" d="M220.8,432.9c1.2-0.1,2-1.1,2.6-4.8l0.8-5.8h7.8v10.5h1.5v4.1H232v-3h-10v3h-1.3V432.9z M224.6,428.3
		c-0.4,2.6-1,3.9-1.9,4.5h7.9v-9.4h-5.3L224.6,428.3z"/>
	<path fill="#FFFFFF" d="M240.7,428.1c0-3.4,2.5-6.1,5.9-6.1c3.7,0,5.8,2.8,5.8,6.1v0.3h-10.2c0.1,2.5,1.9,4.6,4.8,4.6
		c1.5,0,3-0.6,4-1.6l0.7,0.8c-1.2,1.2-2.8,1.9-4.8,1.9C243.2,434.2,240.7,431.7,240.7,428.1z M246.5,423.1c-2.9,0-4.3,2.4-4.4,4.4
		h8.9C250.9,425.6,249.6,423.1,246.5,423.1z"/>
	<path fill="#FFFFFF" d="M260,428.1c0-3.4,2.3-6.1,5.9-6.1c3.6,0,5.9,2.7,5.9,6.1c0,3.4-2.3,6.1-5.9,6.1
		C262.3,434.2,260,431.5,260,428.1z M270.4,428.1c0-2.6-1.6-4.9-4.5-4.9c-2.8,0-4.4,2.4-4.4,4.9c0,2.6,1.6,5,4.4,5
		C268.8,433.1,270.4,430.7,270.4,428.1z"/>
	<path fill="#FFFFFF" d="M279.5,428.1c0-3.4,2.3-6.1,5.9-6.1c2.1,0,3.3,0.8,4.3,2l-0.9,0.8c-0.9-1.2-2-1.6-3.3-1.6
		c-2.9,0-4.6,2.2-4.6,4.9s1.7,5,4.6,5c1.3,0,2.4-0.5,3.3-1.6l0.9,0.8c-1,1.2-2.2,2-4.3,2C281.9,434.2,279.5,431.5,279.5,428.1z"/>
	<path fill="#FFFFFF" d="M300,433.9v-10.5h-3.6v-1.1h4.9v4.7h4.7c2.4,0,3.7,1.6,3.7,3.4c0,1.8-1.3,3.4-3.7,3.4H300z M301.3,428.2
		v4.6h4.6c1.6,0,2.4-1,2.4-2.3c0-1.3-0.8-2.3-2.4-2.3H301.3z"/>
	<path fill="#FFFFFF" d="M317.2,428.1c0-3.4,2.5-6.1,5.9-6.1c3.7,0,5.8,2.8,5.8,6.1v0.3h-10.2c0.1,2.5,1.9,4.6,4.8,4.6
		c1.5,0,3-0.6,4-1.6l0.7,0.8c-1.2,1.2-2.8,1.9-4.8,1.9C319.7,434.2,317.2,431.7,317.2,428.1z M323,423.1c-2.9,0-4.3,2.4-4.4,4.4h8.9
		C327.4,425.6,326.1,423.1,323,423.1z"/>
	<path fill="#FFFFFF" d="M347.4,433.9V424l-4.2,9.9h-0.5l-4.2-9.9v9.9h-1.3v-11.6h1.8l4,9.4l3.9-9.4h1.8v11.6H347.4z"/>
	<path fill="#FFFFFF" d="M366.4,433.9l-4.9-5.5l-2.3,2v3.5h-1.3v-11.6h1.3v6.6l7.2-6.6h1.7l-5.7,5.2l5.7,6.4H366.4z"/>
	<path fill="#FFFFFF" d="M375.7,433.9v-11.6h1.3v9.6l6.9-9.6h1.3v11.6H384v-9.8l-7,9.8H375.7z"/>
</g>
<g>
	<path fill="#FFFFFF" d="M661.3,517v-11.3h4.5c2.3,0,3.6,1.5,3.6,3.3c0,1.8-1.3,3.3-3.6,3.3h-3.5v4.7H661.3z M668.3,509
		c0-1.4-1.1-2.4-2.6-2.4h-3.3v4.9h3.3C667.3,511.4,668.3,510.4,668.3,509z"/>
	<path fill="#FFFFFF" d="M680.6,517v-1c-0.8,0.8-1.7,1.2-2.9,1.2c-1.5,0-3-1-3-2.7c0-1.8,1.5-2.7,3-2.7c1.2,0,2.2,0.4,2.9,1.2v-1.7
		c0-1.2-1-1.9-2.3-1.9c-1.1,0-1.9,0.4-2.7,1.2L675,510c0.9-0.9,1.9-1.4,3.3-1.4c1.8,0,3.1,0.8,3.1,2.6v5.8H680.6z M680.6,515.4v-1.8
		c-0.6-0.7-1.6-1.1-2.6-1.1c-1.4,0-2.4,0.9-2.4,2c0,1.2,0.9,2,2.4,2C679,516.5,680,516.2,680.6,515.4z"/>
	<path fill="#FFFFFF" d="M687.5,512.5c0-4,1.5-5.6,4.6-5.9c2-0.3,2.5-0.5,2.5-0.9h0.9c0,1.2-1.7,1.4-3.2,1.7c-2.9,0.4-3.6,1.6-4,3.2
		c0.6-1,1.6-2,3.4-2c2.4,0,4,1.9,4,4.3c0,2.4-1.6,4.3-4.2,4.3C689.1,517.2,687.5,515.3,687.5,512.5z M694.8,512.9
		c0-1.8-1.1-3.5-3.2-3.5c-2,0-3.2,1.7-3.2,3.5c0,1.9,1.1,3.5,3.2,3.5C693.7,516.4,694.8,514.7,694.8,512.9z"/>
	<path fill="#FFFFFF" d="M701.4,512.9c0-2.4,1.6-4.3,4.2-4.3c2.6,0,4.2,1.9,4.2,4.3c0,2.4-1.6,4.3-4.2,4.3
		C703,517.2,701.4,515.3,701.4,512.9z M708.7,512.9c0-1.8-1.1-3.5-3.2-3.5c-2,0-3.2,1.7-3.2,3.5c0,1.8,1.1,3.5,3.2,3.5
		C707.6,516.4,708.7,514.7,708.7,512.9z"/>
	<path fill="#FFFFFF" d="M717.3,517v-7.4h-2.5v-0.8h6v0.8h-2.6v7.4H717.3z"/>
	<path fill="#FFFFFF" d="M731.7,517v-1c-0.8,0.8-1.7,1.2-2.9,1.2c-1.5,0-3-1-3-2.7c0-1.8,1.5-2.7,3-2.7c1.2,0,2.2,0.4,2.9,1.2v-1.7
		c0-1.2-1-1.9-2.3-1.9c-1.1,0-1.9,0.4-2.7,1.2l-0.5-0.6c0.9-0.9,1.9-1.4,3.3-1.4c1.8,0,3.1,0.8,3.1,2.6v5.8H731.7z M731.7,515.4
		v-1.8c-0.6-0.7-1.6-1.1-2.6-1.1c-1.4,0-2.4,0.9-2.4,2c0,1.2,0.9,2,2.4,2C730.2,516.5,731.1,516.2,731.7,515.4z"/>
	<path fill="#FFFFFF" d="M741.9,513.2h-1.8v3.9h-0.9v-8.2h0.9v3.6h1.8c0.2-2.1,1.8-3.8,4.1-3.8c2.6,0,4.2,1.9,4.2,4.3
		c0,2.4-1.6,4.3-4.2,4.3C743.6,517.2,742,515.4,741.9,513.2z M749.2,512.9c0-1.8-1.1-3.5-3.2-3.5c-2,0-3.2,1.7-3.2,3.5
		c0,1.8,1.1,3.5,3.2,3.5C748,516.4,749.2,514.7,749.2,512.9z"/>
	<path fill="#FFFFFF" d="M771.6,517v-7l-3,7h-0.3l-3-7v7h-0.9v-8.2h1.3l2.8,6.7l2.8-6.7h1.3v8.2H771.6z"/>
	<path fill="#FFFFFF" d="M778.5,512.9c0-2.4,1.6-4.3,4.2-4.3c2.6,0,4.2,1.9,4.2,4.3c0,2.4-1.6,4.3-4.2,4.3
		C780.1,517.2,778.5,515.3,778.5,512.9z M785.8,512.9c0-1.8-1.1-3.5-3.2-3.5c-2,0-3.2,1.7-3.2,3.5c0,1.8,1.1,3.5,3.2,3.5
		C784.7,516.4,785.8,514.7,785.8,512.9z"/>
	<path fill="#FFFFFF" d="M791.7,516.3c0.8-0.1,1.4-0.7,1.8-3.4l0.6-4.1h5.5v7.4h1v2.9h-0.9V517h-7.1v2.1h-0.9V516.3z M794.4,513
		c-0.3,1.9-0.7,2.8-1.3,3.2h5.6v-6.6h-3.7L794.4,513z"/>
	<path fill="#FFFFFF" d="M805.8,512.9c0-2.4,1.8-4.3,4.2-4.3c2.6,0,4.1,2,4.1,4.4v0.2h-7.2c0.1,1.8,1.3,3.3,3.4,3.3
		c1.1,0,2.1-0.4,2.8-1.1l0.5,0.6c-0.9,0.9-2,1.3-3.4,1.3C807.6,517.2,805.8,515.4,805.8,512.9z M809.9,509.4c-2,0-3.1,1.7-3.1,3.1
		h6.3C813,511.1,812.1,509.4,809.9,509.4z"/>
	<path fill="#FFFFFF" d="M818.9,516.5c0.8,0,1.4-0.9,1.8-3.6l0.6-4.1h5.5v8.2h-0.9v-7.4h-3.7l-0.5,3.4c-0.4,3.1-1.3,4.2-2.7,4.2
		V516.5z"/>
	<path fill="#FFFFFF" d="M834.2,508.8v3.3h3.4c1.7,0,2.6,1.1,2.6,2.4s-0.9,2.4-2.6,2.4h-4.3v-8.2H834.2z M834.2,512.9v3.3h3.3
		c1.1,0,1.7-0.7,1.7-1.6s-0.6-1.6-1.7-1.6H834.2z"/>
	<path fill="#FFFFFF" d="M848.6,513.2h-1.8v3.9h-0.9v-8.2h0.9v3.6h1.8c0.2-2.1,1.8-3.8,4.1-3.8c2.6,0,4.2,1.9,4.2,4.3
		c0,2.4-1.6,4.3-4.2,4.3C850.3,517.2,848.7,515.4,848.6,513.2z M855.9,512.9c0-1.8-1.1-3.5-3.2-3.5c-2,0-3.2,1.7-3.2,3.5
		c0,1.8,1.1,3.5,3.2,3.5C854.8,516.4,855.9,514.7,855.9,512.9z"/>
</g>
<g>
	<path fill="#FFFFFF" d="M398.3,223.6c0-3.5,2.8-5.9,6.3-5.9c2,0,3.5,0.8,4.5,2l-0.9,0.5c-0.8-1-2.1-1.6-3.6-1.6c-2.9,0-5.2,2-5.2,5
		c0,2.9,2.3,5,5.2,5c1.5,0,2.9-0.7,3.6-1.6l0.9,0.5c-1.1,1.2-2.6,2-4.5,2C401.1,229.5,398.3,227.1,398.3,223.6z"/>
	<path fill="#FFFFFF" d="M416.7,229.3v-7.4H414V221h6.3v0.8h-2.7v7.4H416.7z"/>
	<path fill="#FFFFFF" d="M431.8,229.3v-1c-0.8,0.8-1.8,1.2-3.1,1.2c-1.6,0-3.2-1-3.2-2.7c0-1.8,1.6-2.7,3.2-2.7
		c1.3,0,2.3,0.4,3.1,1.2v-1.7c0-1.2-1.1-1.9-2.4-1.9c-1.1,0-2,0.4-2.8,1.2l-0.5-0.6c0.9-0.9,2-1.4,3.5-1.4c1.8,0,3.3,0.8,3.3,2.6
		v5.8H431.8z M431.8,227.6v-1.8c-0.6-0.7-1.6-1.1-2.7-1.1c-1.5,0-2.5,0.9-2.5,2c0,1.2,1,2,2.5,2
		C430.2,228.8,431.2,228.4,431.8,227.6z"/>
	<path fill="#FFFFFF" d="M439.6,229.3V221h4.6c1.5,0,2.4,0.8,2.4,2.1c0,1-0.7,1.7-1.4,1.9c0.9,0.2,1.6,1.1,1.6,2
		c0,1.4-1,2.2-2.5,2.2H439.6z M445.6,223.2c0-0.8-0.6-1.4-1.6-1.4h-3.5v2.8h3.5C445.1,224.6,445.6,224,445.6,223.2z M445.8,227
		c0-0.8-0.6-1.5-1.7-1.5h-3.5v3h3.5C445.2,228.5,445.8,227.9,445.8,227z"/>
	<path fill="#FFFFFF" d="M452.2,228.7c0.9,0,1.5-0.9,1.9-3.6l0.6-4.1h5.8v8.2h-1v-7.4h-3.9l-0.5,3.4c-0.4,3.1-1.3,4.2-2.9,4.2V228.7
		z"/>
	<path fill="#FFFFFF" d="M470.1,225.4h-1.8v3.9h-1V221h1v3.6h1.9c0.2-2.1,1.9-3.8,4.3-3.8c2.7,0,4.3,1.9,4.3,4.3
		c0,2.4-1.7,4.3-4.3,4.3C471.9,229.5,470.2,227.7,470.1,225.4z M477.7,225.1c0-1.8-1.2-3.5-3.3-3.5c-2.1,0-3.3,1.7-3.3,3.5
		c0,1.8,1.2,3.5,3.3,3.5C476.5,228.7,477.7,227,477.7,225.1z"/>
	<path fill="#FFFFFF" d="M499.5,229.3l-3-3.6l-3,3.6h-1.2l3.6-4.2l-3.4-4h1.2l2.8,3.4l2.8-3.4h1.2l-3.4,4l3.6,4.2H499.5z"/>
	<path fill="#FFFFFF" d="M505.7,225.1c0-2.4,1.7-4.3,4.3-4.3c2.7,0,4.4,1.9,4.4,4.3c0,2.4-1.7,4.3-4.4,4.3
		C507.4,229.5,505.7,227.5,505.7,225.1z M513.4,225.1c0-1.8-1.2-3.5-3.3-3.5c-2.1,0-3.3,1.7-3.3,3.5c0,1.8,1.2,3.5,3.3,3.5
		C512.2,228.7,513.4,227,513.4,225.1z"/>
	<path fill="#FFFFFF" d="M521.6,227.9v4.5h-1V221h1v1.3c0.6-0.8,1.8-1.5,3.1-1.5c2.4,0,4,1.7,4,4.3c0,2.6-1.6,4.3-4,4.3
		C523.5,229.5,522.4,228.9,521.6,227.9z M527.8,225.1c0-2-1.1-3.5-3.2-3.5c-1.3,0-2.4,0.7-3,1.5v4.1c0.5,0.8,1.7,1.5,3,1.5
		C526.6,228.7,527.8,227.1,527.8,225.1z"/>
	<path fill="#FFFFFF" d="M534.5,225.1c0-2.4,1.8-4.3,4.4-4.3c2.7,0,4.3,2,4.3,4.4v0.2h-7.5c0.1,1.8,1.4,3.3,3.5,3.3
		c1.1,0,2.2-0.4,3-1.1l0.5,0.6c-0.9,0.9-2,1.3-3.5,1.3C536.3,229.5,534.5,227.7,534.5,225.1z M538.8,221.6c-2.1,0-3.2,1.7-3.3,3.1
		h6.6C542.1,223.3,541.1,221.6,538.8,221.6z"/>
	<path fill="#FFFFFF" d="M548.8,225.1c0-2.4,1.7-4.3,4.3-4.3c2.7,0,4.4,1.9,4.4,4.3c0,2.4-1.7,4.3-4.4,4.3
		C550.5,229.5,548.8,227.5,548.8,225.1z M556.4,225.1c0-1.8-1.2-3.5-3.3-3.5c-2.1,0-3.3,1.7-3.3,3.5c0,1.8,1.2,3.5,3.3,3.5
		C555.3,228.7,556.4,227,556.4,225.1z"/>
	<path fill="#FFFFFF" d="M569.6,221.8h-4.9v7.4h-1V221h5.9V221.8z"/>
	<path fill="#FFFFFF" d="M576.4,227.9v4.5h-1V221h1v1.3c0.6-0.8,1.8-1.5,3.1-1.5c2.4,0,4,1.7,4,4.3c0,2.6-1.6,4.3-4,4.3
		C578.2,229.5,577.1,228.9,576.4,227.9z M582.5,225.1c0-2-1.1-3.5-3.2-3.5c-1.3,0-2.4,0.7-3,1.5v4.1c0.5,0.8,1.7,1.5,3,1.5
		C581.4,228.7,582.5,227.1,582.5,225.1z"/>
	<path fill="#FFFFFF" d="M595.5,229.3v-1c-0.8,0.8-1.8,1.2-3.1,1.2c-1.5,0-3.2-1-3.2-2.7c0-1.8,1.6-2.7,3.2-2.7
		c1.3,0,2.3,0.4,3.1,1.2v-1.7c0-1.2-1.1-1.9-2.4-1.9c-1.1,0-2,0.4-2.8,1.2l-0.5-0.6c0.9-0.9,2-1.4,3.5-1.4c1.8,0,3.3,0.8,3.3,2.6
		v5.8H595.5z M595.5,227.6v-1.8c-0.6-0.7-1.6-1.1-2.7-1.1c-1.5,0-2.5,0.9-2.5,2c0,1.2,1,2,2.5,2
		C593.8,228.8,594.8,228.4,595.5,227.6z"/>
	<path fill="#FFFFFF" d="M608.4,222.4v-4.5h1v4.4c0.5-0.8,1.4-1.5,2.5-1.5c1.9,0,3.2,1.7,3.2,4.3c0,2.6-1.3,4.3-3.2,4.3
		c-1,0-1.9-0.6-2.5-1.5v4.5h-1v-4.4c-0.5,0.9-1.4,1.5-2.5,1.5c-1.9,0-3.2-1.7-3.2-4.3c0-2.6,1.3-4.3,3.2-4.3
		C607,220.8,607.8,221.4,608.4,222.4z M603.8,225.2c0,2,0.9,3.5,2.4,3.5c1,0,1.8-0.7,2.3-1.5v-4c-0.4-0.8-1.3-1.5-2.3-1.5
		C604.6,221.6,603.8,223.2,603.8,225.2z M614,225.1c0-2-0.9-3.5-2.4-3.5c-1,0-1.8,0.7-2.3,1.5v4.1c0.4,0.8,1.3,1.5,2.3,1.5
		C613.2,228.7,614,227.1,614,225.1z"/>
	<path fill="#FFFFFF" d="M621.4,229.3V221h1v6.8l5.1-6.8h1v8.2h-1v-6.9l-5.2,6.9H621.4z"/>
	<path fill="#FFFFFF" d="M635.2,229.3V221h1v6.8l5.1-6.8h1v8.2h-1v-6.9l-5.2,6.9H635.2z"/>
</g>
<g>
	<path fill="#FFFFFF" d="M456.2,199.7l1.9-3.3c-0.8-0.4-1.8-1.2-1.8-2.8c0-1.8,1.3-3.2,3.7-3.2h5.5v9.3h-3.1v-2.9h-1.1l-1.4,2.9
		H456.2z M462.2,194.3v-1.5h-1.9c-0.5,0-1,0.2-1,0.7c0,0.5,0.5,0.7,1,0.7H462.2z"/>
	<path fill="#FFFFFF" d="M469.8,194.3c0-0.8,0.8-1.5,1.6-1.5c0.9,0,1.6,0.7,1.6,1.5s-0.8,1.5-1.6,1.5
		C470.5,195.8,469.8,195.1,469.8,194.3z M469.8,198.4c0-0.8,0.8-1.5,1.6-1.5c0.9,0,1.6,0.7,1.6,1.5s-0.8,1.5-1.6,1.5
		C470.5,199.9,469.8,199.2,469.8,198.4z"/>
</g>
</svg>
