<?xml version="1.0" encoding="utf-8"?>
<!-- Generator: Adobe Illustrator 18.0.0, SVG Export Plug-In . SVG Version: 6.00 Build 0)  -->
<!DOCTYPE svg PUBLIC "-//W3C//DTD SVG 1.1//EN" "http://www.w3.org/Graphics/SVG/1.1/DTD/svg11.dtd">
<svg version="1.1" id="START" xmlns="http://www.w3.org/2000/svg" xmlns:xlink="http://www.w3.org/1999/xlink" x="0px" y="0px"
	 viewBox="64.5 -11.4 992.1 708.7" enable-background="new 64.5 -11.4 992.1 708.7" xml:space="preserve">
<line fill="none" stroke="#000000" stroke-width="0.763" x1="467.4" y1="470.2" x2="653.7" y2="470.2"/>
<linearGradient id="SVGID_1_" gradientUnits="userSpaceOnUse" x1="277.5779" y1="422.495" x2="843.4891" y2="260.2225">
	<stop  offset="0" style="stop-color:#EAFF00"/>
	<stop  offset="0.2033" style="stop-color:#EAFF00"/>
	<stop  offset="0.73" style="stop-color:#A2FC59"/>
	<stop  offset="1" style="stop-color:#57F866"/>
</linearGradient>
<ellipse fill="none" stroke="url(#SVGID_1_)" stroke-width="15" stroke-miterlimit="10" cx="560.5" cy="341.4" rx="286.3" ry="293"/>
<g>
	<path d="M386.9,302.3c0-4.5,3.3-7.6,7.4-7.6c2.3,0,4.1,1,5.3,2.6l-1.1,0.7c-0.9-1.3-2.5-2.1-4.3-2.1c-3.5,0-6.1,2.6-6.1,6.4
		c0,3.8,2.7,6.4,6.1,6.4c1.8,0,3.4-0.9,4.3-2.1l1.1,0.7c-1.3,1.6-3,2.6-5.3,2.6C390.2,309.9,386.9,306.8,386.9,302.3z"/>
	<path d="M403.3,309.6V295h1.3v12.4l9.2-12.4h1.3v14.7h-1.3V297l-9.2,12.6H403.3z"/>
	<path d="M430.4,309.6v-7h-9.3v7h-1.3V295h1.3v6.6h9.3V295h1.3v14.7H430.4z"/>
	<path d="M435.3,308.6c1.9,0,3-0.9,3.7-6.4l0.9-7.2h8.3v13.5h1.3v3.9h-1.3v-2.7h-11.7v2.7h-1.3V308.6z M437.8,308.5h9.2v-12.4h-5.9
		l-0.8,6.2C439.8,306,438.9,307.7,437.8,308.5z"/>
	<path d="M453.2,309.6V295h1.3v12.4l9.2-12.4h1.3v14.7h-1.3V297l-9.2,12.6H453.2z"/>
	<path d="M478.7,309.6l-6.1-6.9l-1.6,1.8v5.1h-1.3V295h1.3v8l7.1-8h1.6l-6.2,7l6.8,7.7H478.7z"/>
	<path d="M494.3,309.6l-1.5-3.6h-7.8l-1.5,3.6h-1.5l6-14.7h1.6l6,14.7H494.3z M489,296.3l-3.5,8.6h6.9L489,296.3z"/>
	<path d="M502.8,309.6v-13.5H498V295h10.9v1.1h-4.8v13.5H502.8z"/>
	<path d="M518.3,308.8c1.9,0,3-1.1,3.7-6.6l0.9-7.2h8.3v14.7h-1.3v-13.5h-5.9l-0.8,6.2c-0.9,6.6-2.5,7.6-5,7.6V308.8z"/>
	<path d="M535.9,309.6V295h9.3v1.1h-8.1v5.4h7.9v1.1h-7.9v5.8h8.1v1.1H535.9z"/>
	<path d="M553.2,309.6v-13.5h-4.8V295h10.9v1.1h-4.8v13.5H553.2z"/>
	<path d="M573.6,309.6l-1.5-3.6h-7.8l-1.5,3.6h-1.5l6-14.7h1.6l6,14.7H573.6z M568.2,296.3l-3.5,8.6h6.9L568.2,296.3z"/>
	<path d="M582.3,302.7h-2.8v7h-1.3V295h1.3v6.6h2.8c0.3-3.9,3.1-6.8,7.1-6.8c4.3,0,7.1,3.3,7.1,7.6s-2.8,7.6-7.1,7.6
		C585.3,309.9,582.5,306.8,582.3,302.7z M595.3,302.3c0-3.7-2.3-6.4-5.8-6.4c-3.5,0-5.8,2.7-5.8,6.4c0,3.7,2.3,6.4,5.8,6.4
		C593,308.8,595.3,306,595.3,302.3z"/>
	<path d="M618.5,295v13.5h1.3v3.9h-1.3v-2.7H601V295h1.3v13.5h6.8V295h1.3v13.5h6.9V295H618.5z"/>
	<path d="M623.5,309.6V295h1.3v12.4L634,295h1.3v14.7H634V297l-9.2,12.6H623.5z"/>
	<path d="M650.4,309.6l-5.1-6.6l-5.1,6.6h-1.6l5.9-7.5l-5.6-7.2h1.6l4.8,6.2l4.8-6.2h1.6l-5.6,7.1l5.9,7.5H650.4z"/>
	<path d="M674.6,309.6v-13l-5.3,13h-0.5l-5.4-13v13h-1.3V295h1.9l5,12.1l5-12.1h1.9v14.7H674.6z"/>
	<path d="M679.9,309.6l4.2-6.2c-2.2-0.1-4.1-1.6-4.1-4.2c0-2.7,1.9-4.3,4.5-4.3h5.5v14.7h-1.3v-6.1h-3.2l-4.1,6.1H679.9z
		 M688.7,302.4v-6.3h-4.1c-2,0-3.3,1.3-3.3,3.1c0,1.8,1.3,3.2,3.3,3.2H688.7z"/>
	<path d="M695.5,298.7c0,2.4,1.3,3.7,3.8,3.7c1.3,0,2.6-0.2,3.6-0.5v-7h1.3v14.7h-1.3v-6.6c-1,0.3-2.2,0.5-3.7,0.5c-3.3,0-5-2-5-4.8
		V295h1.3V298.7z"/>
	<path d="M708.9,309.6V295h9.3v1.1h-8.1v5.4h7.9v1.1h-7.9v5.8h8.1v1.1H708.9z"/>
	<path d="M722.5,309.6V295h1.3v12.4l9.2-12.4h1.3v14.7h-1.3V297l-9.2,12.6H722.5z M728.3,294.1c-1.6,0-3-0.7-3.9-1.9l0.6-0.5
		c0.7,1,1.9,1.6,3.2,1.6c1.3,0,2.5-0.6,3.2-1.6l0.6,0.5C731.3,293.3,729.9,294.1,728.3,294.1z"/>
</g>
<g>
	<path d="M411.1,528.7l-1.1-2.6h-5.6l-1.1,2.6h-1.1l4.4-10.7h1.1l4.4,10.7H411.1z M407.2,519l-2.5,6.2h5L407.2,519z"/>
	<path d="M420.5,528.7l-3.1-3.7l-1.4,1.4v2.3h-0.8V521h0.8v4.4l4.6-4.4h1.1l-3.6,3.5l3.6,4.2H420.5z"/>
	<path d="M425.5,527.5v4.2h-0.8V521h0.8v1.2c0.5-0.8,1.5-1.4,2.7-1.4c2.1,0,3.5,1.6,3.5,4c0,2.5-1.4,4.1-3.5,4.1
		C427.1,528.9,426.1,528.4,425.5,527.5z M430.7,524.9c0-1.9-1-3.3-2.7-3.3c-1.1,0-2.1,0.6-2.5,1.4v3.8c0.4,0.7,1.5,1.4,2.5,1.4
		C429.8,528.2,430.7,526.7,430.7,524.9z"/>
	<path d="M434.7,524.9c0-2.3,1.5-4,3.7-4c2.3,0,3.7,1.8,3.7,4c0,2.3-1.4,4.1-3.7,4.1C436.2,528.9,434.7,527.1,434.7,524.9z
		 M441.3,524.9c0-1.7-1-3.3-2.8-3.3c-1.8,0-2.8,1.6-2.8,3.3c0,1.7,1,3.3,2.8,3.3C440.2,528.2,441.3,526.6,441.3,524.9z"/>
	<path d="M445.3,524.5c0-3.8,1.4-5.2,4.1-5.6c1.7-0.3,2.2-0.5,2.2-0.8h0.8c0,1.1-1.5,1.4-2.8,1.6c-2.6,0.4-3.2,1.5-3.6,3.1
		c0.5-0.9,1.5-1.9,3-1.9c2.2,0,3.6,1.8,3.6,4c0,2.3-1.4,4.1-3.7,4.1C446.7,528.9,445.3,527.1,445.3,524.5z M451.8,524.9
		c0-1.7-1-3.3-2.8-3.3c-1.8,0-2.8,1.6-2.8,3.3c0,1.7,1,3.3,2.8,3.3C450.8,528.2,451.8,526.6,451.8,524.9z"/>
	<path d="M461.3,528.7v-0.9c-0.7,0.8-1.6,1.1-2.6,1.1c-1.3,0-2.7-0.9-2.7-2.6c0-1.7,1.4-2.6,2.7-2.6c1.1,0,2,0.4,2.6,1.1v-1.6
		c0-1.2-0.9-1.8-2.1-1.8c-1,0-1.7,0.3-2.4,1.1l-0.5-0.6c0.8-0.9,1.7-1.3,3-1.3c1.6,0,2.8,0.8,2.8,2.5v5.4H461.3z M461.3,527.2v-1.7
		c-0.5-0.7-1.4-1.1-2.3-1.1c-1.3,0-2.1,0.8-2.1,1.9c0,1.1,0.8,1.9,2.1,1.9C459.9,528.3,460.8,527.9,461.3,527.2z"/>
	<path d="M467.6,528.7v-7h-2.3V521h5.4v0.7h-2.3v7H467.6z"/>
	<path d="M473.9,528.7V521h0.8v6.4l4.4-6.4h0.8v7.7h-0.8v-6.5l-4.4,6.5H473.9z"/>
	<path d="M484.7,521v2.2c0,1.6,0.7,2.1,2.1,2.1c0.8,0,1.8-0.2,2.3-0.5V521h0.8v7.7h-0.8v-3.3c-0.6,0.3-1.6,0.6-2.5,0.6
		c-1.9,0-2.8-0.7-2.8-2.6V521H484.7z"/>
	<path d="M493.5,524.9c0-2.2,1.6-4,3.7-4c2.4,0,3.6,1.9,3.6,4.1v0.2h-6.5c0.1,1.7,1.2,3.1,3,3.1c1,0,1.9-0.4,2.5-1.1l0.4,0.5
		c-0.8,0.8-1.7,1.2-3,1.2C495.1,528.9,493.5,527.3,493.5,524.9z M497.2,521.5c-1.8,0-2.7,1.6-2.8,2.9h5.6
		C500,523.2,499.2,521.5,497.2,521.5z"/>
	<path d="M504,524.9c0-2.3,1.5-4,3.8-4c1.3,0,2.1,0.5,2.7,1.3l-0.6,0.5c-0.6-0.8-1.3-1.1-2.1-1.1c-1.8,0-2.9,1.4-2.9,3.3
		c0,1.9,1.1,3.3,2.9,3.3c0.8,0,1.6-0.3,2.1-1.1l0.6,0.5c-0.6,0.8-1.4,1.3-2.7,1.3C505.5,528.9,504,527.1,504,524.9z"/>
	<path d="M519.2,528.7l-3.1-3.7l-1.4,1.4v2.3h-0.8V521h0.8v4.4l4.6-4.4h1.1l-3.6,3.5l3.6,4.2H519.2z"/>
	<path d="M522.9,524.9c0-2.3,1.5-4,3.7-4c2.3,0,3.7,1.8,3.7,4c0,2.3-1.4,4.1-3.7,4.1C524.3,528.9,522.9,527.1,522.9,524.9z
		 M529.4,524.9c0-1.7-1-3.3-2.8-3.3c-1.8,0-2.8,1.6-2.8,3.3c0,1.7,1,3.3,2.8,3.3C528.4,528.2,529.4,526.6,529.4,524.9z"/>
	<path d="M533.5,524.9c0-2.2,1.6-4,3.7-4c2.4,0,3.6,1.9,3.6,4.1v0.2h-6.5c0.1,1.7,1.2,3.1,3,3.1c1,0,1.9-0.4,2.5-1.1l0.4,0.5
		c-0.8,0.8-1.7,1.2-3,1.2C535.1,528.9,533.5,527.3,533.5,524.9z M537.2,521.5c-1.8,0-2.7,1.6-2.8,2.9h5.6
		C540,523.2,539.1,521.5,537.2,521.5z"/>
	<path d="M556.7,518.1v0.8h-5.7v3.6h3.1c2,0,3.2,1.4,3.2,3.1s-1.2,3.1-3.2,3.1h-4v-10.7H556.7z M550.9,523.3v4.6h3
		c1.4,0,2.4-0.9,2.4-2.3s-0.9-2.3-2.4-2.3H550.9z"/>
	<path d="M565.5,528.7v-0.9c-0.7,0.8-1.6,1.1-2.6,1.1c-1.3,0-2.7-0.9-2.7-2.6c0-1.7,1.4-2.6,2.7-2.6c1.1,0,2,0.4,2.6,1.1v-1.6
		c0-1.2-0.9-1.8-2.1-1.8c-1,0-1.7,0.3-2.4,1.1l-0.5-0.6c0.8-0.9,1.7-1.3,3-1.3c1.6,0,2.8,0.8,2.8,2.5v5.4H565.5z M565.5,527.2v-1.7
		c-0.5-0.7-1.4-1.1-2.3-1.1c-1.3,0-2.1,0.8-2.1,1.9c0,1.1,0.8,1.9,2.1,1.9C564.1,528.3,565,527.9,565.5,527.2z"/>
	<path d="M569.9,524.9c0-2.3,1.5-4,3.8-4c1.3,0,2.1,0.5,2.7,1.3l-0.6,0.5c-0.6-0.8-1.3-1.1-2.1-1.1c-1.8,0-2.9,1.4-2.9,3.3
		c0,1.9,1.1,3.3,2.9,3.3c0.8,0,1.6-0.3,2.1-1.1l0.6,0.5c-0.6,0.8-1.4,1.3-2.7,1.3C571.4,528.9,569.9,527.1,569.9,524.9z"/>
	<path d="M585.1,528.7l-3.1-3.7l-1.4,1.4v2.3h-0.8V521h0.8v4.4l4.6-4.4h1.1l-3.6,3.5l3.6,4.2H585.1z"/>
	<path d="M588.8,524.9c0-2.2,1.6-4,3.7-4c2.4,0,3.6,1.9,3.6,4.1v0.2h-6.5c0.1,1.7,1.2,3.1,3,3.1c1,0,1.9-0.4,2.5-1.1l0.4,0.5
		c-0.8,0.8-1.7,1.2-3,1.2C590.4,528.9,588.8,527.3,588.8,524.9z M592.5,521.5c-1.8,0-2.7,1.6-2.8,2.9h5.6
		C595.3,523.2,594.4,521.5,592.5,521.5z"/>
	<path d="M601.1,528.7v-7h-2.3V521h5.4v0.7H602v7H601.1z"/>
	<path d="M607,524.5c0-3.8,1.4-5.2,4.1-5.6c1.7-0.3,2.2-0.5,2.2-0.8h0.8c0,1.1-1.5,1.4-2.8,1.6c-2.6,0.4-3.2,1.5-3.6,3.1
		c0.5-0.9,1.5-1.9,3-1.9c2.2,0,3.6,1.8,3.6,4c0,2.3-1.4,4.1-3.7,4.1C608.4,528.9,607,527.1,607,524.5z M613.5,524.9
		c0-1.7-1-3.3-2.8-3.3c-1.8,0-2.8,1.6-2.8,3.3c0,1.7,1,3.3,2.8,3.3C612.5,528.2,613.5,526.6,613.5,524.9z"/>
	<path d="M617.7,524.9c0-2.3,1.5-4,3.7-4c2.3,0,3.7,1.8,3.7,4c0,2.3-1.4,4.1-3.7,4.1C619.1,528.9,617.7,527.1,617.7,524.9z
		 M624.2,524.9c0-1.7-1-3.3-2.8-3.3c-1.8,0-2.8,1.6-2.8,3.3c0,1.7,1,3.3,2.8,3.3C623.2,528.2,624.2,526.6,624.2,524.9z"/>
	<path d="M627.7,528.2c0.8,0,1.3-0.9,1.6-3.3l0.5-3.9h4.9v7.7h-0.8v-7h-3.3l-0.4,3.2c-0.4,2.9-1.1,4-2.4,4V528.2z"/>
	<path d="M639.6,521v3.2h3c1.5,0,2.4,1.1,2.4,2.3s-0.8,2.3-2.4,2.3h-3.8V521H639.6z M639.6,524.9v3.1h2.9c1,0,1.5-0.6,1.5-1.5
		s-0.5-1.6-1.5-1.6H639.6z"/>
	<path d="M648.3,528.7V521h0.8v3.4h4.4V521h0.8v7.7h-0.8v-3.6h-4.4v3.6H648.3z"/>
	<path d="M658,524.9c0-2.3,1.5-4,3.7-4c2.3,0,3.7,1.8,3.7,4c0,2.3-1.4,4.1-3.7,4.1C659.4,528.9,658,527.1,658,524.9z M664.5,524.9
		c0-1.7-1-3.3-2.8-3.3c-1.8,0-2.8,1.6-2.8,3.3c0,1.7,1,3.3,2.8,3.3C663.5,528.2,664.5,526.6,664.5,524.9z"/>
	<path d="M668.5,524.9c0-2.2,1.6-4,3.7-4c2.4,0,3.6,1.9,3.6,4.1v0.2h-6.5c0.1,1.7,1.2,3.1,3,3.1c1,0,1.9-0.4,2.5-1.1l0.4,0.5
		c-0.8,0.8-1.7,1.2-3,1.2C670.2,528.9,668.5,527.3,668.5,524.9z M672.3,521.5c-1.8,0-2.7,1.6-2.8,2.9h5.6
		C675.1,523.2,674.2,521.5,672.3,521.5z"/>
	<path d="M697.9,518.1v10.7h-12.7v-10.7h0.9v9.8h5v-9.8h0.9v9.8h5v-9.8H697.9z"/>
	<path d="M701.5,524.9c0-2.3,1.5-4,3.7-4c2.3,0,3.7,1.8,3.7,4c0,2.3-1.4,4.1-3.7,4.1C702.9,528.9,701.5,527.1,701.5,524.9z
		 M708,524.9c0-1.7-1-3.3-2.8-3.3c-1.8,0-2.8,1.6-2.8,3.3c0,1.7,1,3.3,2.8,3.3C707,528.2,708,526.6,708,524.9z"/>
	<path d="M712.1,531c0.2,0.1,0.5,0.1,0.7,0.1c0.5,0,0.9-0.2,1.2-0.9l0.6-1.4l-3.3-7.8h0.9l2.8,6.8l2.8-6.8h0.9l-4,9.4
		c-0.4,1-1.1,1.4-2,1.4c-0.3,0-0.6,0-0.8-0.1L712.1,531z"/>
</g>
<g>
	<path d="M245.7,419v-72h29.6c12.1,0,19.9,7,19.9,18.4c0,9.1-6.2,15.2-12.6,16.5c7.7,1.2,14,9.2,14,17.7c0,12-7.8,19.4-20.6,19.4
		H245.7z M288.7,366c0-7.3-4.9-13.4-14.1-13.4h-22.7v26.7h22.7C283.8,379.3,288.7,373.4,288.7,366z M290.1,399.1
		c0-7.3-5.1-14.3-15.1-14.3h-23.1v28.5H275C284.5,413.4,290.1,407.9,290.1,399.1z"/>
	<path d="M369.6,419l-7.1-17.7h-38.1l-7.1,17.7h-7.1l29.5-72h7.7l29.5,72H369.6z M343.3,353.6l-17,42.1h34L343.3,353.6z"/>
	<path d="M392.7,419v-72h6.2v66.4h34.9v5.6H392.7z"/>
	<path d="M452.5,419v-72h6.2v66.4h34.9v5.6H452.5z"/>
	<path d="M554.6,419l-20.2-29.8h-15.9V419h-6.2v-72h26.9c12.4,0,21.9,7.9,21.9,21.1c0,13.1-9.3,20.3-20,20.7L562,419H554.6z
		 M554.7,368c0-9.1-6.5-15.4-16-15.4h-20.2v31h20.2C548.2,383.6,554.7,377.1,554.7,368z"/>
	<path d="M581.9,419v-72h6.2v72H581.9z"/>
	<path d="M611.4,419v-72h23c22.4,0,36.4,16.3,36.4,36.1c0,20-14,36-36.4,36H611.4z M664.3,383c0-16.8-10.8-30.5-29.9-30.5h-16.8
		v60.8h16.8C653.4,413.4,664.3,399.9,664.3,383z"/>
	<path d="M691.5,419v-72h45.7v5.6h-39.5v26.7h38.8v5.6h-38.8v28.5h39.5v5.6H691.5z"/>
	<path d="M800.1,419l-20.2-29.8H764V419h-6.2v-72h26.9c12.4,0,21.9,7.9,21.9,21.1c0,13.1-9.3,20.3-20,20.7l20.8,30.2H800.1z
		 M800.2,368c0-9.1-6.5-15.4-16-15.4H764v31h20.2C793.7,383.6,800.2,377.1,800.2,368z"/>
	<path d="M823.4,408.9l4-4.6c4.6,5.4,12.2,10.5,22.5,10.5c14.8,0,19-8.2,19-14.4c0-21.2-43.2-10.2-43.2-35.3
		c0-11.8,10.6-19.2,23.7-19.2c10.8,0,18.8,3.8,24.4,10.2l-4.1,4.5c-5.2-6.3-12.5-9.1-20.6-9.1c-9.6,0-16.8,5.5-16.8,13.3
		c0,18.5,43.2,8.3,43.2,35.2c0,9.3-6.2,20.4-25.6,20.4C837.9,420.3,828.9,415.6,823.4,408.9z"/>
</g>
<g>
	<polygon points="556,169.3 568.4,178.3 565.1,181.5 557.6,174.8 	"/>
	<polygon points="546.9,201.3 541.7,205.7 543.2,127.7 546.9,134.8 	"/>
	<polygon points="578.4,175.9 554.8,154.6 554.8,149.8 583.9,171.6 	"/>
	<polygon points="578.6,193.8 537.2,226.1 537.2,222.8 574.8,189.7 	"/>
	<polygon points="554.8,168.5 558.2,171 558.3,188.4 554.9,191.7 	"/>
	<polygon points="578.5,175.8 554.8,194.6 554.9,191.6 574.6,171.9 	"/>
	<polygon points="578.5,193.9 565.8,182.2 568.2,178.3 583.7,190 	"/>
</g>
<g>
	<path d="M373.9,587.3l-3-12.5l-3,12.5h-5.5l-5.7-20h5.8l3,13.3l3.4-13.3h4l3.4,13.3l3-13.3h5.8l-5.7,20H373.9z"/>
	<path d="M396.4,587.3v-8.4c0-1.8-0.9-2.3-2.4-2.3c-1.4,0-2.2,0.8-2.8,1.4v9.4h-4.6v-20h4.6v7.3c0.9-1,2.6-2.1,5-2.1
		c3.3,0,4.8,1.9,4.8,4.5v10.3H396.4z"/>
	<path d="M413,587.3v-1.4c-0.9,1.1-2.6,1.8-4.5,1.8c-2.2,0-5-1.5-5-4.8c0-3.5,2.8-4.6,5-4.6c1.9,0,3.6,0.6,4.5,1.7v-1.7
		c0-1.3-1.1-2.1-2.9-2.1c-1.4,0-2.9,0.5-4.1,1.5l-1.6-2.9c1.9-1.6,4.3-2.2,6.6-2.2c3.5,0,6.8,1.3,6.8,5.8v9.1H413z M413,583.6v-1.3
		c-0.5-0.7-1.6-1-2.6-1c-1.2,0-2.3,0.5-2.3,1.7c0,1.1,1.1,1.7,2.3,1.7C411.4,584.6,412.5,584.3,413,583.6z"/>
	<path d="M421.9,583.4v-6.6h-2.4v-4h2.4v-4h4.6v4h2.9v4h-2.9v5.3c0,0.8,0.5,1.5,1.3,1.5c0.5,0,1-0.2,1.2-0.4l0.9,3.5
		c-0.6,0.5-1.7,1-3.4,1C423.5,587.6,421.9,586.2,421.9,583.4z"/>
	<path d="M430.5,585.4l1.9-3.2c1.1,1,3.4,1.9,5.1,1.9c1.4,0,2-0.5,2-1.1c0-1.9-8.4,0-8.4-5.8c0-2.6,2.2-4.8,6.2-4.8
		c2.4,0,4.5,0.8,6.1,1.9l-1.8,3.1c-0.9-0.8-2.5-1.6-4.3-1.6c-1.1,0-1.8,0.5-1.8,1.1c0,1.7,8.4,0,8.4,6c0,2.8-2.4,4.8-6.6,4.8
		C434.7,587.6,432,586.8,430.5,585.4z"/>
	<path d="M460,587.3l-1-2.9h-7.9l-1,2.9h-5.8l7.5-20h6.5l7.6,20H460z M455,572.4l-2.5,7.5h5.1L455,572.4z"/>
	<path d="M471.8,585.6v7.2h-4.6v-20h4.6v1.7c1.1-1.4,2.6-2,4.3-2c3.6,0,6.4,2.7,6.4,7.6c0,4.9-2.7,7.6-6.4,7.6
		C474.5,587.6,473,587,471.8,585.6z M477.7,580c0-2.2-1.4-3.5-3.2-3.5c-1,0-2.2,0.5-2.8,1.3v4.4c0.6,0.8,1.8,1.3,2.8,1.3
		C476.4,583.6,477.7,582.2,477.7,580z"/>
	<path d="M489.5,585.6v7.2h-4.6v-20h4.6v1.7c1.1-1.4,2.6-2,4.3-2c3.6,0,6.4,2.7,6.4,7.6c0,4.9-2.7,7.6-6.4,7.6
		C492.1,587.6,490.7,587,489.5,585.6z M495.4,580c0-2.2-1.4-3.5-3.2-3.5c-1,0-2.2,0.5-2.8,1.3v4.4c0.6,0.8,1.8,1.3,2.8,1.3
		C494,583.6,495.4,582.2,495.4,580z"/>
	<path d="M502,575.4c0-1.5,1.3-2.8,2.8-2.8c1.5,0,2.8,1.3,2.8,2.8c0,1.5-1.3,2.8-2.8,2.8C503.3,578.2,502,576.9,502,575.4z
		 M502,584.8c0-1.5,1.3-2.8,2.8-2.8c1.5,0,2.8,1.3,2.8,2.8s-1.3,2.8-2.8,2.8C503.3,587.6,502,586.4,502,584.8z"/>
	<path d="M533.1,578.6v5.9h-3v-5.9h-5.2v-2.8h5.2v-5.7h3v5.7h5.2v2.8H533.1z"/>
	<path d="M542.8,587.3l6.8-15.5h-9.8v-4.5h15.7v3.6l-7,16.4H542.8z"/>
	<path d="M565.4,585.7l2.2-4c1.1,0.9,2.2,1.3,3.8,1.3c2.9,0,4.7-2.1,4.7-4.6c0-0.1,0-0.1,0-0.2c-1,1.3-2.9,2.3-4.9,2.3
		c-3.6,0-7-2.3-7-6.6c0-4.1,3.3-7,8-7c6.3,0,9.1,4.6,9.1,10.3c0,6.4-3.8,10.3-9.9,10.3C569.1,587.6,566.9,586.9,565.4,585.7z
		 M576.1,574.8c-0.1-1.6-1.1-3.3-3.6-3.3c-1.9,0-3,1.2-3,2.3c0,1.7,1.7,2.4,3.2,2.4C574,576.2,575.3,575.7,576.1,574.8z"/>
	<path d="M588.6,587.3v-13.4l-3.4,3.4l-2.9-3.1l7-6.9h4.5v20H588.6z"/>
	<path d="M596.4,577.3c0-6.4,3.8-10.3,9.9-10.3c2.4,0,4.6,0.8,6.1,1.9l-2.2,4c-1.1-0.9-2.2-1.3-3.8-1.3c-2.4,0-4.7,1.8-4.7,4.6
		c0,0.1,0,0.2,0,0.2c1-1.3,2.9-2.3,4.9-2.3c3.6,0,6.9,2.3,6.9,6.6c0,4.1-3.3,7-8,7C599.1,587.6,596.4,583.1,596.4,577.3z
		 M608.2,580.8c0-1.7-1.7-2.4-3.3-2.4c-1.3,0-2.5,0.5-3.4,1.3c0.1,1.6,1.1,3.3,3.5,3.3C607,583.1,608.2,581.9,608.2,580.8z"/>
	<path d="M625.4,587.3l6.8-15.5h-9.8v-4.5h15.7v3.6l-7,16.4H625.4z"/>
	<path d="M639.3,577.3c0-5.3,2.7-10.3,8.6-10.3s8.6,5,8.6,10.3c0,5.3-2.7,10.3-8.6,10.3S639.3,582.6,639.3,577.3z M651.3,577.3
		c0-3.5-1-5.8-3.4-5.8c-2.4,0-3.4,2.2-3.4,5.8c0,3.5,1,5.8,3.4,5.8C650.3,583.1,651.3,580.8,651.3,577.3z"/>
	<path d="M659,585.7l2.2-4c1.1,0.9,2.2,1.3,3.8,1.3c2.9,0,4.7-2.1,4.7-4.6c0-0.1,0-0.1,0-0.2c-1,1.3-2.9,2.3-4.9,2.3
		c-3.6,0-7-2.3-7-6.6c0-4.1,3.3-7,8-7c6.3,0,9.1,4.6,9.1,10.3c0,6.4-3.8,10.3-9.9,10.3C662.7,587.6,660.5,586.9,659,585.7z
		 M669.8,574.8c-0.1-1.6-1.1-3.3-3.6-3.3c-1.9,0-3,1.2-3,2.3c0,1.7,1.7,2.4,3.2,2.4C667.7,576.2,668.9,575.7,669.8,574.8z"/>
	<path d="M684.3,577.3c0-6.4,3.8-10.3,9.9-10.3c2.4,0,4.6,0.8,6.1,1.9l-2.2,4c-1.1-0.9-2.2-1.3-3.8-1.3c-2.4,0-4.7,1.8-4.7,4.6
		c0,0.1,0,0.2,0,0.2c1-1.3,2.9-2.3,4.9-2.3c3.6,0,6.9,2.3,6.9,6.6c0,4.1-3.3,7-8,7C687,587.6,684.3,583.1,684.3,577.3z M696.1,580.8
		c0-1.7-1.7-2.4-3.3-2.4c-1.3,0-2.5,0.5-3.4,1.3c0.1,1.6,1.1,3.3,3.5,3.3C694.9,583.1,696.1,581.9,696.1,580.8z"/>
	<path d="M703.7,585.7l2.2-4c1.1,0.9,2.2,1.3,3.8,1.3c2.9,0,4.7-2.1,4.7-4.6c0-0.1,0-0.1,0-0.2c-1,1.3-2.9,2.3-4.9,2.3
		c-3.6,0-7-2.3-7-6.6c0-4.1,3.3-7,8-7c6.3,0,9.1,4.6,9.1,10.3c0,6.4-3.8,10.3-9.9,10.3C707.4,587.6,705.2,586.9,703.7,585.7z
		 M714.5,574.8c-0.1-1.6-1.1-3.3-3.6-3.3c-1.9,0-3,1.2-3,2.3c0,1.7,1.7,2.4,3.2,2.4C712.4,576.2,713.6,575.7,714.5,574.8z"/>
	<path d="M729,577.3c0-6.4,3.8-10.3,9.9-10.3c2.4,0,4.6,0.8,6.1,1.9l-2.2,4c-1.1-0.9-2.2-1.3-3.8-1.3c-2.4,0-4.7,1.8-4.7,4.6
		c0,0.1,0,0.2,0,0.2c1-1.3,2.9-2.3,4.9-2.3c3.6,0,6.9,2.3,6.9,6.6c0,4.1-3.3,7-8,7C731.7,587.6,729,583.1,729,577.3z M740.8,580.8
		c0-1.7-1.7-2.4-3.3-2.4c-1.3,0-2.5,0.5-3.4,1.3c0.1,1.6,1.1,3.3,3.5,3.3C739.6,583.1,740.8,581.9,740.8,580.8z"/>
	<path d="M747.5,582c0-2.3,1.7-4.1,4-5c-2.1-0.8-3.7-2.2-3.7-4.7c0-3.9,4.2-5.3,8.2-5.3c3.9,0,8.2,1.5,8.2,5.3
		c0,2.4-1.6,3.8-3.8,4.7c2.3,0.9,4,2.8,4,5c0,3.9-4.1,5.6-8.5,5.6C751.6,587.6,747.5,585.9,747.5,582z M759.2,581.4
		c0-1.2-2-2-3.2-2.1c-1.3,0.1-3.2,0.9-3.2,2.1c0,1.2,1.3,2,3.2,2C757.8,583.4,759.2,582.6,759.2,581.4z M758.8,573.1
		c0-1.1-1.2-1.8-2.9-1.8c-1.8,0-2.9,0.7-2.9,1.8c0,1.1,1.7,1.7,2.9,1.9C757.2,574.8,758.8,574.1,758.8,573.1z"/>
</g>
</svg>
