<?xml version="1.0" encoding="utf-8"?>
<!-- Generator: Adobe Illustrator 18.0.0, SVG Export Plug-In . SVG Version: 6.00 Build 0)  -->
<!DOCTYPE svg PUBLIC "-//W3C//DTD SVG 1.1//EN" "http://www.w3.org/Graphics/SVG/1.1/DTD/svg11.dtd">
<svg version="1.1" id="START" xmlns="http://www.w3.org/2000/svg" xmlns:xlink="http://www.w3.org/1999/xlink" x="0px" y="0px"
	 viewBox="64.5 -11.4 992.1 708.7" enable-background="new 64.5 -11.4 992.1 708.7" xml:space="preserve">
<ellipse fill="none" stroke="#FFFFFF" stroke-width="15" stroke-miterlimit="10" cx="560.5" cy="341.4" rx="286.3" ry="293"/>
<g>
	<path d="M171.6,322.2l-0.7-1.9h-5.3l-0.7,1.9h-3.9l5-13.3h4.3l5,13.3H171.6z M168.3,312.2l-1.7,5h3.4L168.3,312.2z"/>
	<path d="M186.9,322.2v-1.1c-0.8,0.9-1.8,1.4-2.9,1.4c-2.4,0-4.3-1.8-4.3-5.1c0-3.2,1.9-5.1,4.3-5.1c1.1,0,2.1,0.4,2.9,1.4v-4.8h3.1
		v13.3H186.9z M186.9,318.8v-3c-0.4-0.5-1.2-0.9-1.9-0.9c-1.2,0-2.1,0.9-2.1,2.3s0.9,2.4,2.1,2.4
		C185.7,319.7,186.5,319.3,186.9,318.8z"/>
	<path d="M196,309.9c0-1,0.8-1.8,1.8-1.8c1,0,1.8,0.8,1.8,1.8s-0.8,1.8-1.8,1.8C196.8,311.7,196,310.9,196,309.9z M196.2,322.2v-9.7
		h3.1v9.7H196.2z"/>
	<path d="M212.1,322.2v-1.1c-0.8,0.9-1.8,1.4-2.9,1.4c-2.4,0-4.3-1.8-4.3-5.1c0-3.2,1.9-5.1,4.3-5.1c1.1,0,2.1,0.4,2.9,1.4v-4.8h3.1
		v13.3H212.1z M212.1,318.8v-3c-0.4-0.5-1.2-0.9-1.9-0.9c-1.2,0-2.1,0.9-2.1,2.3s0.9,2.4,2.1,2.4
		C210.9,319.7,211.7,319.3,212.1,318.8z"/>
	<path d="M227.1,322.2v-1c-0.6,0.7-1.8,1.2-3,1.2c-1.5,0-3.3-1-3.3-3.2c0-2.3,1.8-3.1,3.3-3.1c1.3,0,2.4,0.4,3,1.1v-1.2
		c0-0.8-0.7-1.4-2-1.4c-1,0-2,0.4-2.7,1l-1.1-1.9c1.2-1.1,2.9-1.5,4.4-1.5c2.3,0,4.5,0.9,4.5,3.9v6H227.1z M227.1,319.7v-0.9
		c-0.3-0.4-1-0.7-1.7-0.7c-0.8,0-1.5,0.4-1.5,1.1c0,0.8,0.7,1.1,1.5,1.1C226,320.4,226.8,320.2,227.1,319.7z"/>
	<path d="M235.6,320.9l1.3-2.1c0.7,0.6,2.3,1.3,3.4,1.3c0.9,0,1.3-0.3,1.3-0.7c0-1.3-5.6,0-5.6-3.9c0-1.7,1.5-3.2,4.1-3.2
		c1.6,0,3,0.5,4,1.3l-1.2,2c-0.6-0.6-1.7-1.1-2.8-1.1c-0.7,0-1.2,0.3-1.2,0.7c0,1.1,5.6,0,5.6,4c0,1.8-1.6,3.2-4.4,3.2
		C238.4,322.4,236.6,321.8,235.6,320.9z"/>
	<path d="M278.7,319.4c-1.1,0-2.1-0.9-2.1-2c0-1.1,0.9-2.1,2.1-2.1c1.1,0,2.1,0.9,2.1,2.1C280.7,318.5,279.8,319.4,278.7,319.4z"/>
	<path d="M323.7,322.2l-1.3-3.3h-7.1l-1.3,3.3h-1.3l5.5-13.3h1.4l5.5,13.3H323.7z M318.8,310.1l-3.1,7.8h6.3L318.8,310.1z"/>
	<path d="M329.9,317.8v-1h4.8v1H329.9z"/>
	<path d="M340.5,315.5c0-3.9,2.6-6.9,6.5-6.9c3.9,0,6.5,3,6.5,6.9c0,3.9-2.6,6.9-6.5,6.9C343,322.4,340.5,319.4,340.5,315.5z
		 M352.2,315.5c0-3.4-2.1-5.9-5.3-5.9c-3.2,0-5.3,2.5-5.3,5.9c0,3.4,2,5.9,5.3,5.9C350.1,321.4,352.2,318.9,352.2,315.5z"/>
	<path d="M366.7,322.2v-6.5c0-1.9-0.9-2.4-2.3-2.4c-1.2,0-2.5,0.8-3.1,1.7v7.3h-1v-9.7h1v1.5c0.7-0.8,2.1-1.7,3.5-1.7c2,0,3,1,3,3.1
		v6.8H366.7z"/>
	<path d="M374.4,317.3c0-2.8,2-5.1,4.7-5.1c2.9,0,4.6,2.3,4.6,5.1v0.3h-8.1c0.1,2.1,1.5,3.8,3.8,3.8c1.2,0,2.3-0.5,3.2-1.3l0.5,0.7
		c-1,1-2.2,1.6-3.8,1.6C376.5,322.4,374.4,320.3,374.4,317.3z M379.1,313.2c-2.3,0-3.4,2-3.5,3.7h7
		C382.6,315.2,381.5,313.2,379.1,313.2z"/>
	<path d="M418.5,319.4c-1.1,0-2.1-0.9-2.1-2c0-1.1,0.9-2.1,2.1-2.1c1.1,0,2.1,0.9,2.1,2.1C420.5,318.5,419.6,319.4,418.5,319.4z"/>
	<path d="M462.4,322.2l-0.7-1.9h-5.3l-0.7,1.9h-3.9l5-13.3h4.3l5,13.3H462.4z M459.1,312.2l-1.7,5h3.4L459.1,312.2z"/>
	<path d="M474.3,321v4.8h-3.1v-13.3h3.1v1.1c0.8-0.9,1.8-1.4,2.9-1.4c2.4,0,4.2,1.8,4.2,5.1c0,3.3-1.8,5.1-4.2,5.1
		C476.1,322.4,475.1,322,474.3,321z M478.2,317.3c0-1.4-0.9-2.3-2.1-2.3c-0.7,0-1.5,0.4-1.8,0.9v2.9c0.4,0.5,1.2,0.9,1.8,0.9
		C477.3,319.7,478.2,318.8,478.2,317.3z"/>
	<path d="M490.1,321v4.8H487v-13.3h3.1v1.1c0.8-0.9,1.8-1.4,2.9-1.4c2.4,0,4.2,1.8,4.2,5.1c0,3.3-1.8,5.1-4.2,5.1
		C491.8,322.4,490.9,322,490.1,321z M494,317.3c0-1.4-0.9-2.3-2.1-2.3c-0.7,0-1.5,0.4-1.8,0.9v2.9c0.4,0.5,1.2,0.9,1.8,0.9
		C493.1,319.7,494,318.8,494,317.3z"/>
	<path d="M502.8,322.2v-13.3h3.1v13.3H502.8z"/>
	<path d="M511.4,317.3c0-2.8,2.1-5.1,5.1-5.1c2.9,0,4.9,2.1,4.9,5.4v0.7h-6.9c0.2,0.9,1,1.7,2.4,1.7c0.7,0,1.9-0.3,2.4-0.8l1.3,1.9
		c-1,0.9-2.6,1.3-4,1.3C513.7,322.4,511.4,320.5,511.4,317.3z M516.6,314.7c-1.3,0-1.9,1-2,1.7h4C518.5,315.6,518,314.7,516.6,314.7
		z"/>
	<path d="M555.6,319.4c-1.1,0-2.1-0.9-2.1-2c0-1.1,0.9-2.1,2.1-2.1c1.1,0,2.1,0.9,2.1,2.1C557.7,318.5,556.8,319.4,555.6,319.4z"/>
	<path d="M600.7,322.2l-1.3-3.3h-7.1l-1.3,3.3h-1.3l5.5-13.3h1.4l5.5,13.3H600.7z M595.8,310.1l-3.1,7.8h6.3L595.8,310.1z"/>
	<path d="M607,320.9l0.6-0.8c0.6,0.8,1.8,1.4,3.1,1.4c1.6,0,2.6-0.8,2.6-2c0-2.6-6.1-1.2-6.1-4.6c0-1.5,1.3-2.7,3.4-2.7
		c1.7,0,2.8,0.6,3.5,1.4l-0.6,0.7c-0.6-0.8-1.6-1.3-2.9-1.3c-1.5,0-2.4,0.8-2.4,1.8c0,2.4,6.1,0.9,6.1,4.7c0,1.6-1.2,2.8-3.6,2.8
		C609.2,322.4,608,322,607,320.9z"/>
	<path d="M627.6,322.2v-1.4c-0.8,0.9-2.1,1.7-3.5,1.7c-2,0-3-0.9-3-3.1v-6.8h1v6.6c0,1.9,0.9,2.4,2.3,2.4c1.2,0,2.5-0.7,3.1-1.6
		v-7.4h1v9.7H627.6z"/>
	<path d="M635,320.9l0.6-0.8c0.6,0.8,1.8,1.4,3.1,1.4c1.6,0,2.6-0.8,2.6-2c0-2.6-6.1-1.2-6.1-4.6c0-1.5,1.3-2.7,3.4-2.7
		c1.7,0,2.8,0.6,3.5,1.4l-0.6,0.7c-0.6-0.8-1.6-1.3-2.9-1.3c-1.5,0-2.4,0.8-2.4,1.8c0,2.4,6.1,0.9,6.1,4.7c0,1.6-1.2,2.8-3.6,2.8
		C637.2,322.4,636,322,635,320.9z"/>
	<path d="M677.2,319.4c-1.1,0-2.1-0.9-2.1-2c0-1.1,0.9-2.1,2.1-2.1c1.1,0,2.1,0.9,2.1,2.1C679.2,318.5,678.3,319.4,677.2,319.4z"/>
	<path d="M712.5,322.2v-13.3h5.5c2.2,0,3.7,1.3,3.7,3.4c0,1.7-1.1,2.8-2.3,3.1c1.4,0.2,2.6,1.7,2.6,3.3c0,2.2-1.4,3.6-3.8,3.6H712.5
		z M720.5,312.4c0-1.4-0.9-2.5-2.6-2.5h-4.2v4.9h4.2C719.6,314.8,720.5,313.7,720.5,312.4z M720.7,318.5c0-1.4-0.9-2.6-2.8-2.6h-4.3
		v5.3h4.3C719.7,321.1,720.7,320.1,720.7,318.5z"/>
	<path d="M734.9,322.2V321c-0.9,0.9-1.9,1.4-3.3,1.4c-1.7,0-3.4-1.1-3.4-3.2c0-2.1,1.7-3.2,3.4-3.2c1.3,0,2.4,0.4,3.3,1.4v-2
		c0-1.4-1.2-2.2-2.6-2.2c-1.2,0-2.1,0.4-3,1.4l-0.6-0.7c1-1.1,2.1-1.6,3.7-1.6c2,0,3.5,0.9,3.5,3.1v6.8H734.9z M734.9,320.3v-2.1
		c-0.7-0.9-1.8-1.3-2.9-1.3c-1.6,0-2.6,1-2.6,2.4c0,1.4,1,2.4,2.6,2.4C733.1,321.6,734.2,321.2,734.9,320.3z"/>
	<path d="M743.2,322.2v-13.3h1v13.3H743.2z"/>
	<path d="M751.4,322.2v-13.3h1v13.3H751.4z"/>
	<path d="M765.9,322.2V321c-0.9,0.9-1.9,1.4-3.3,1.4c-1.7,0-3.4-1.1-3.4-3.2c0-2.1,1.7-3.2,3.4-3.2c1.3,0,2.4,0.4,3.3,1.4v-2
		c0-1.4-1.2-2.2-2.6-2.2c-1.2,0-2.1,0.4-3,1.4l-0.6-0.7c1-1.1,2.1-1.6,3.7-1.6c2,0,3.5,0.9,3.5,3.1v6.8H765.9z M765.9,320.3v-2.1
		c-0.7-0.9-1.8-1.3-2.9-1.3c-1.6,0-2.6,1-2.6,2.4c0,1.4,1,2.4,2.6,2.4C764.1,321.6,765.2,321.2,765.9,320.3z"/>
	<path d="M780.7,322.2v-6.6c0-1.9-0.9-2.4-2.3-2.4c-1.2,0-2.5,0.8-3.1,1.7v7.3h-1v-13.3h1v5.1c0.7-0.8,2.1-1.7,3.5-1.7
		c2,0,3,0.9,3,3.1v6.8H780.7z"/>
	<path d="M788.4,317.3c0-2.8,1.8-5.1,4.6-5.1c2.9,0,4.7,2.2,4.7,5.1c0,2.8-1.8,5.1-4.7,5.1C790.2,322.4,788.4,320.2,788.4,317.3z
		 M796.6,317.3c0-2.1-1.3-4.1-3.5-4.1c-2.2,0-3.5,2-3.5,4.1c0,2.2,1.3,4.1,3.5,4.1C795.3,321.5,796.6,319.5,796.6,317.3z"/>
	<path d="M804.4,322.2v-13.3h1v13.3H804.4z"/>
	<path d="M812.4,310.2c0-0.4,0.4-0.8,0.8-0.8c0.4,0,0.8,0.3,0.8,0.8s-0.4,0.8-0.8,0.8C812.7,311,812.4,310.6,812.4,310.2z
		 M812.6,322.2v-9.7h1v9.7H812.6z"/>
	<path d="M827.3,322.2l-3.2-4.3l-3.2,4.3h-1.2l3.8-5l-3.6-4.7h1.2l3,4l3-4h1.2l-3.6,4.7l3.8,5H827.3z"/>
	<path d="M862.6,319.4c-1.1,0-2.1-0.9-2.1-2c0-1.1,0.9-2.1,2.1-2.1c1.1,0,2.1,0.9,2.1,2.1C864.7,318.5,863.7,319.4,862.6,319.4z"/>
	<path d="M897.5,315.5c0-4.1,3-6.9,6.8-6.9c2.1,0,3.7,0.9,4.9,2.4l-1,0.6c-0.8-1.2-2.3-1.9-3.9-1.9c-3.1,0-5.6,2.4-5.6,5.9
		c0,3.4,2.4,5.9,5.6,5.9c1.6,0,3.1-0.8,3.9-1.9l1,0.6c-1.2,1.5-2.7,2.4-4.9,2.4C900.4,322.4,897.5,319.6,897.5,315.5z"/>
	<path d="M914.8,317.3c0-2.8,2-5.1,4.7-5.1c2.9,0,4.6,2.3,4.6,5.1v0.3h-8.1c0.1,2.1,1.5,3.8,3.8,3.8c1.2,0,2.3-0.5,3.2-1.3l0.5,0.7
		c-1,1-2.2,1.6-3.8,1.6C916.8,322.4,914.8,320.3,914.8,317.3z M919.4,313.2c-2.3,0-3.4,2-3.5,3.7h7
		C922.9,315.2,921.9,313.2,919.4,313.2z"/>
	<path d="M937.2,322.2v-6.5c0-1.9-0.9-2.4-2.3-2.4c-1.2,0-2.5,0.8-3.1,1.7v7.3h-1v-9.7h1v1.5c0.7-0.8,2.1-1.7,3.5-1.7c2,0,3,1,3,3.1
		v6.8H937.2z"/>
	<path d="M945.7,320.3v-6.9h-1.6v-0.9h1.6v-2.6h1.1v2.6h2v0.9h-2v6.7c0,0.8,0.3,1.3,1,1.3c0.5,0,0.9-0.2,1.1-0.5l0.4,0.8
		c-0.4,0.4-0.8,0.6-1.6,0.6C946.3,322.4,945.7,321.6,945.7,320.3z"/>
	<path d="M955,322.2v-9.7h1v1.7c0.8-1.1,1.9-1.9,3.3-1.9v1.1c-0.2,0-0.3,0-0.5,0c-1,0-2.3,0.9-2.7,1.7v7H955z"/>
	<path d="M162.1,378.2c1.7,0,2.7-0.8,3.4-5.8l0.9-6.6h7.5v12.3h1.2v3.5h-1.1v-2.5h-10.6v2.5h-1.2V378.2z M164.3,378.1h8.3v-11.3
		h-5.3l-0.7,5.6C166.1,375.9,165.4,377.4,164.3,378.1z"/>
	<path d="M180.8,374.3c0-2.8,1.8-5.1,4.6-5.1c2.9,0,4.7,2.2,4.7,5.1c0,2.8-1.8,5.1-4.7,5.1C182.6,379.4,180.8,377.2,180.8,374.3z
		 M188.9,374.3c0-2.1-1.3-4.1-3.5-4.1c-2.2,0-3.5,2-3.5,4.1c0,2.2,1.3,4.1,3.5,4.1C187.7,378.5,188.9,376.5,188.9,374.3z"/>
	<path d="M195.5,379.2l4.5-5.3l-4.5-4.4h1.4l4.7,4.6v-4.6h1.1v4.6l4.7-4.6h1.4l-4.5,4.4l4.5,5.3h-1.4l-3.8-4.6l-0.8,0.8v3.8h-1.1
		v-3.9l-0.8-0.7l-3.9,4.6H195.5z"/>
	<path d="M213.4,378.3c0.9-0.1,1.6-0.9,2-4l0.6-4.8h6.2v8.7h1.2v3.4h-1v-2.5h-7.9v2.5h-1.1V378.3z M216.4,374.5
		c-0.3,2.2-0.8,3.3-1.5,3.8h6.2v-7.8H217L216.4,374.5z"/>
	<path d="M230.7,369.5v3.9h3.8c1.9,0,2.9,1.3,2.9,2.9c0,1.5-1,2.9-2.9,2.9h-4.8v-9.7H230.7z M230.7,374.4v3.9h3.7
		c1.3,0,1.9-0.8,1.9-1.9s-0.6-1.9-1.9-1.9H230.7z"/>
	<path d="M262.1,376.4c-1.1,0-2.1-0.9-2.1-2c0-1.1,0.9-2.1,2.1-2.1c1.1,0,2.1,0.9,2.1,2.1C264.2,375.5,263.3,376.4,262.1,376.4z"/>
	<path d="M287.2,379.2v-13.3h9.8v3h-6.3v2.1h6.2v3h-6.2v5.3H287.2z"/>
	<path d="M302.8,379.2v-13.3h3.4v13.3H302.8z"/>
	<path d="M312.6,379.2v-13.3h7.6c2.6,0,3.9,1.7,3.9,3.4c0,1.7-1,2.8-2.3,3.1c1.4,0.2,2.5,1.6,2.5,3.3c0,1.9-1.3,3.6-3.9,3.6H312.6z
		 M320.6,369.8c0-0.6-0.5-1.1-1.2-1.1h-3.3v2.2h3.3C320.1,371,320.6,370.5,320.6,369.8z M320.9,375.1c0-0.7-0.5-1.2-1.3-1.2h-3.5
		v2.4h3.5C320.4,376.3,320.9,375.8,320.9,375.1z"/>
	<path d="M339.3,379.2l-0.7-1.9h-5.3l-0.7,1.9h-3.9l5-13.3h4.3l5,13.3H339.3z M336,369.2l-1.7,5h3.4L336,369.2z"/>
	<path d="M366.8,376.4c-1.1,0-2.1-0.9-2.1-2c0-1.1,0.9-2.1,2.1-2.1c1.1,0,2.1,0.9,2.1,2.1C368.9,375.5,368,376.4,366.8,376.4z"/>
	<path d="M392.3,379.2v-13.3h8.5v1h-7.3v4.9h7.2v1h-7.2v6.3H392.3z"/>
	<path d="M413.6,379.2v-1.4c-0.8,0.9-2.1,1.7-3.5,1.7c-2,0-3-0.9-3-3.1v-6.8h1v6.6c0,1.9,0.9,2.4,2.3,2.4c1.2,0,2.5-0.7,3.1-1.6
		v-7.4h1v9.7H413.6z"/>
	<path d="M428.4,379.2v-6.5c0-1.9-0.9-2.4-2.3-2.4c-1.2,0-2.5,0.8-3.1,1.7v7.3h-1v-9.7h1v1.5c0.7-0.8,2.1-1.7,3.5-1.7c2,0,3,1,3,3.1
		v6.8H428.4z"/>
	<path d="M436.7,379.2v-13.3h1v5.2c0.8-1.1,2-1.8,3.4-1.8c2.6,0,4.3,2,4.3,5.1c0,3.1-1.8,5.1-4.3,5.1c-1.4,0-2.7-0.8-3.4-1.8v1.5
		H436.7z M440.9,378.5c2.2,0,3.4-1.8,3.4-4.1c0-2.3-1.2-4.1-3.4-4.1c-1.3,0-2.6,0.8-3.2,1.8v4.8
		C438.3,377.7,439.6,378.5,440.9,378.5z"/>
	<path d="M451.6,374.3c0-2.8,1.8-5.1,4.6-5.1c2.9,0,4.7,2.2,4.7,5.1c0,2.8-1.8,5.1-4.7,5.1C453.4,379.4,451.6,377.2,451.6,374.3z
		 M459.8,374.3c0-2.1-1.3-4.1-3.5-4.1c-2.2,0-3.5,2-3.5,4.1c0,2.2,1.3,4.1,3.5,4.1C458.5,378.5,459.8,376.5,459.8,374.3z"/>
	<path d="M473.9,379.2l-3.2-4.3l-3.2,4.3h-1.2l3.8-5l-3.6-4.7h1.2l3,4l3-4h1.2l-3.6,4.7l3.8,5H473.9z"/>
	<path d="M499.4,376.4c-1.1,0-2.1-0.9-2.1-2c0-1.1,0.9-2.1,2.1-2.1c1.1,0,2.1,0.9,2.1,2.1C501.5,375.5,500.5,376.4,499.4,376.4z"/>
	<path d="M524.4,372.5c0-4.1,3-6.9,6.8-6.9c2.2,0,3.8,0.9,5,2.3l-0.9,0.6c-0.9-1.1-2.5-1.9-4.2-1.9c-3.1,0-5.6,2.4-5.6,5.9
		c0,3.4,2.4,5.9,5.6,5.9c1.8,0,3.2-0.9,3.9-1.6v-3.2h-5v-1h6.2v4.7c-1.2,1.3-3,2.2-5.1,2.2C527.4,379.4,524.4,376.6,524.4,372.5z"/>
	<path d="M549.6,379.2v-1.4c-0.8,0.9-2.1,1.7-3.5,1.7c-2,0-3-0.9-3-3.1v-6.8h1v6.6c0,1.9,0.9,2.4,2.3,2.4c1.2,0,2.5-0.7,3.1-1.6
		v-7.4h1v9.7H549.6z"/>
	<path d="M557.9,379.2v-9.7h1v1.7c0.8-1.1,1.9-1.9,3.3-1.9v1.1c-0.2,0-0.3,0-0.5,0c-1,0-2.3,0.9-2.7,1.7v7H557.9z"/>
	<path d="M579.7,379.2v-6.8c0-1.4-0.6-2.2-1.9-2.2c-1,0-2.2,0.8-2.8,1.6v7.3h-1.1v-6.8c0-1.4-0.6-2.2-1.9-2.2c-1,0-2.2,0.8-2.8,1.7
		v7.3h-1v-9.7h1v1.5c0.4-0.6,1.7-1.7,3.1-1.7c1.5,0,2.3,0.9,2.5,1.8c0.5-0.9,1.8-1.8,3.2-1.8c1.8,0,2.6,1,2.6,2.9v7H579.7z"/>
	<path d="M587.4,374.3c0-2.8,2-5.1,4.7-5.1c2.9,0,4.6,2.3,4.6,5.1v0.3h-8.1c0.1,2.1,1.5,3.8,3.8,3.8c1.2,0,2.3-0.5,3.2-1.3l0.5,0.7
		c-1,1-2.2,1.6-3.8,1.6C589.4,379.4,587.4,377.3,587.4,374.3z M592.1,370.2c-2.3,0-3.4,2-3.5,3.7h7
		C595.6,372.2,594.5,370.2,592.1,370.2z"/>
	<path d="M621.6,376.4c-1.1,0-2.1-0.9-2.1-2c0-1.1,0.9-2.1,2.1-2.1c1.1,0,2.1,0.9,2.1,2.1C623.6,375.5,622.7,376.4,621.6,376.4z"/>
	<path d="M655.2,379.2l-5.5-6.3l-1.5,1.6v4.7h-1.1v-13.3h1.1v7.3l6.4-7.3h1.5l-5.7,6.4l6.2,7H655.2z"/>
	<path d="M662.5,367.2c0-0.4,0.4-0.8,0.8-0.8c0.4,0,0.8,0.3,0.8,0.8s-0.4,0.8-0.8,0.8C662.8,368,662.5,367.6,662.5,367.2z
		 M662.7,379.2v-9.7h1v9.7H662.7z"/>
	<path d="M677.2,379.2V378c-0.9,0.9-1.9,1.4-3.3,1.4c-1.7,0-3.4-1.1-3.4-3.2c0-2.1,1.7-3.2,3.4-3.2c1.3,0,2.4,0.4,3.3,1.4v-2
		c0-1.4-1.2-2.2-2.6-2.2c-1.2,0-2.1,0.4-3,1.4l-0.6-0.7c1-1.1,2.1-1.6,3.7-1.6c2,0,3.5,0.9,3.5,3.1v6.8H677.2z M677.2,377.3v-2.1
		c-0.7-0.9-1.8-1.3-2.9-1.3c-1.6,0-2.6,1-2.6,2.4c0,1.4,1,2.4,2.6,2.4C675.4,378.6,676.5,378.2,677.2,377.3z"/>
	<path d="M703.7,376.4c-1.1,0-2.1-0.9-2.1-2c0-1.1,0.9-2.1,2.1-2.1c1.1,0,2.1,0.9,2.1,2.1C705.7,375.5,704.8,376.4,703.7,376.4z"/>
	<path d="M728,376.4c1.2,0,2-0.7,2.4-3.8l0.8-6.8h9.9v13.3h-3.4v-10.3h-3.4l-0.5,4c-0.6,5.4-2.9,6.6-5.8,6.6V376.4z"/>
	<path d="M746.8,374.3c0-2.8,2.1-5.1,5.1-5.1c2.9,0,4.9,2.1,4.9,5.4v0.7H750c0.2,0.9,1,1.7,2.4,1.7c0.7,0,1.9-0.3,2.4-0.8l1.3,1.9
		c-1,0.9-2.6,1.3-4,1.3C749.1,379.4,746.8,377.5,746.8,374.3z M752,371.7c-1.3,0-1.9,1-2,1.7h4C753.9,372.6,753.4,371.7,752,371.7z"
		/>
	<path d="M762.4,379.2v-9.7h3.1v3.3h3.5v-3.3h3.1v9.7H769v-3.7h-3.5v3.7H762.4z"/>
	<path d="M778.3,379.2v-9.7h3.1v5.1l3.4-5.1h3.1v9.7h-3.1v-5.3l-3.6,5.3H778.3z"/>
	<path d="M794.1,379.2v-9.7h3.1v3.3h3.5v-3.3h3.1v9.7h-3.1v-3.7h-3.5v3.7H794.1z"/>
	<path d="M817.7,372.2h-4.6v7H810v-9.7h7.7V372.2z"/>
	<path d="M826.2,378v4.8h-3.1v-13.3h3.1v1.1c0.8-0.9,1.8-1.4,2.9-1.4c2.4,0,4.2,1.8,4.2,5.1c0,3.3-1.8,5.1-4.2,5.1
		C827.9,379.4,827,379,826.2,378z M830.1,374.3c0-1.4-0.9-2.3-2.1-2.3c-0.7,0-1.5,0.4-1.8,0.9v2.9c0.4,0.5,1.2,0.9,1.8,0.9
		C829.2,376.7,830.1,375.8,830.1,374.3z"/>
	<path d="M844.6,379.2v-1c-0.6,0.7-1.8,1.2-3,1.2c-1.5,0-3.3-1-3.3-3.2c0-2.3,1.8-3.1,3.3-3.1c1.3,0,2.4,0.4,3,1.1v-1.2
		c0-0.8-0.7-1.4-2-1.4c-1,0-2,0.4-2.7,1l-1.1-1.9c1.2-1.1,2.9-1.5,4.4-1.5c2.3,0,4.5,0.9,4.5,3.9v6H844.6z M844.6,376.7v-0.9
		c-0.3-0.4-1-0.7-1.7-0.7c-0.8,0-1.5,0.4-1.5,1.1c0,0.8,0.7,1.1,1.5,1.1C843.5,377.4,844.2,377.2,844.6,376.7z"/>
	<path d="M853.1,376.6c0.7-0.1,1.2-0.4,1.5-2.5l0.6-4.6h8.3v7h1.1v5.1h-3.1v-2.5h-5.3v2.5h-3.1V376.6z M857.6,374.3
		c-0.1,1-0.4,1.7-0.9,2.2h3.7v-4.3h-2.5L857.6,374.3z"/>
	<path d="M896.4,379.2h-10.2v-13.3h3.4v10.3h5.5v-10.3h3.4v10.3h1.2v5.5h-3.5V379.2z"/>
	<path d="M904.6,374.3c0-2.8,2.1-5.1,5.1-5.1c2.9,0,4.9,2.1,4.9,5.4v0.7h-6.9c0.2,0.9,1,1.7,2.4,1.7c0.7,0,1.9-0.3,2.4-0.8l1.3,1.9
		c-1,0.9-2.6,1.3-4,1.3C906.9,379.4,904.6,377.5,904.6,374.3z M909.8,371.7c-1.3,0-1.9,1-2,1.7h4
		C911.7,372.6,911.2,371.7,909.8,371.7z"/>
	<path d="M920.2,379.2v-9.7h3.1v3.3h3.5v-3.3h3.1v9.7h-3.1v-3.7h-3.5v3.7H920.2z"/>
	<path d="M937.9,379.2v-7h-2.6v-2.7h8.3v2.7H941v7H937.9z"/>
	<path d="M952.1,378v4.8H949v-13.3h3.1v1.1c0.8-0.9,1.8-1.4,2.9-1.4c2.4,0,4.2,1.8,4.2,5.1c0,3.3-1.8,5.1-4.2,5.1
		C953.9,379.4,952.9,379,952.1,378z M956.1,374.3c0-1.4-0.9-2.3-2.1-2.3c-0.7,0-1.5,0.4-1.8,0.9v2.9c0.4,0.5,1.2,0.9,1.8,0.9
		C955.2,376.7,956.1,375.8,956.1,374.3z"/>
	<path d="M163,436.2v-13.3h1.1v12.3h6.5v1H163z"/>
	<path d="M176.8,424.2c0-0.4,0.4-0.8,0.8-0.8c0.4,0,0.8,0.3,0.8,0.8s-0.4,0.8-0.8,0.8C177.2,425,176.8,424.6,176.8,424.2z
		 M177.1,436.2v-9.7h1v9.7H177.1z"/>
	<path d="M184.3,431.8v-1h4.8v1H184.3z"/>
	<path d="M204.9,436.2l-8.4-11.5v11.5h-1.1v-13.3h1.2l8.4,11.3v-11.3h1.1v13.3H204.9z"/>
	<path d="M213,424.2c0-0.4,0.4-0.8,0.8-0.8c0.4,0,0.8,0.3,0.8,0.8s-0.4,0.8-0.8,0.8C213.4,425,213,424.6,213,424.2z M213.3,436.2
		v-9.7h1v9.7H213.3z"/>
	<path d="M228.1,436.2v-6.5c0-1.9-0.9-2.4-2.3-2.4c-1.2,0-2.5,0.8-3.1,1.7v7.3h-1v-9.7h1v1.5c0.7-0.8,2.1-1.7,3.5-1.7c2,0,3,1,3,3.1
		v6.8H228.1z"/>
	<path d="M236.4,438.6l0.6-0.8c0.8,1,1.8,1.4,3.2,1.4c1.8,0,3.3-0.9,3.3-3.1v-1.5c-0.7,1-1.9,1.8-3.4,1.8c-2.6,0-4.3-1.9-4.3-5
		c0-3.1,1.8-5.1,4.3-5.1c1.4,0,2.6,0.7,3.4,1.8v-1.6h1.1v9.6c0,3-2,4-4.4,4C238.6,440.1,237.6,439.8,236.4,438.6z M243.5,433.7V429
		c-0.6-0.9-1.8-1.8-3.2-1.8c-2.1,0-3.4,1.8-3.4,4.1c0,2.3,1.2,4.1,3.4,4.1C241.7,435.4,243,434.6,243.5,433.7z"/>
	<path d="M322,433.4c-1.1,0-2.1-0.9-2.1-2c0-1.1,0.9-2.1,2.1-2.1c1.1,0,2.1,0.9,2.1,2.1C324.1,432.5,323.2,433.4,322,433.4z"/>
	<path d="M410.8,436.2v-8.7l-3.4,8.7h-1.5l-3.4-8.7v8.7h-3.4v-13.3h4.8l2.8,7.2l2.8-7.2h4.8v13.3H410.8z"/>
	<path d="M420.6,436.2v-13.3h9.8v3H424v2.1h6.2v3H424v2.3h6.3v3H420.6z"/>
	<path d="M439.6,426.8c0,1.5,0.8,2,2.1,2c0.9,0,1.6-0.1,2.2-0.4v-5.6h3.4v13.3h-3.4v-4.7c-0.9,0.2-1.8,0.4-2.7,0.4
		c-3.5,0-5.1-2-5.1-5v-4h3.5V426.8z"/>
	<path d="M524.4,433.4c-1.1,0-2.1-0.9-2.1-2c0-1.1,0.9-2.1,2.1-2.1c1.1,0,2.1,0.9,2.1,2.1C526.5,432.5,525.6,433.4,524.4,433.4z"/>
	<path d="M613.2,436.2v-11.8l-4.9,11.8h-0.4l-4.9-11.8v11.8h-1.1v-13.3h1.7l4.5,11l4.5-11h1.7v13.3H613.2z"/>
	<path d="M621.4,424.2c0-0.4,0.4-0.8,0.8-0.8c0.4,0,0.8,0.3,0.8,0.8s-0.4,0.8-0.8,0.8C621.8,425,621.4,424.6,621.4,424.2z
		 M621.7,436.2v-9.7h1v9.7H621.7z"/>
	<path d="M636.5,436.2v-6.5c0-1.9-0.9-2.4-2.3-2.4c-1.2,0-2.5,0.8-3.1,1.7v7.3h-1v-9.7h1v1.5c0.7-0.8,2.1-1.7,3.5-1.7c2,0,3,1,3,3.1
		v6.8H636.5z"/>
	<path d="M643.9,434.9l0.6-0.8c0.6,0.8,1.8,1.4,3.1,1.4c1.6,0,2.6-0.8,2.6-2c0-2.6-6.1-1.2-6.1-4.6c0-1.5,1.3-2.7,3.4-2.7
		c1.7,0,2.8,0.6,3.5,1.4l-0.6,0.7c-0.6-0.8-1.6-1.3-2.9-1.3c-1.5,0-2.4,0.8-2.4,1.8c0,2.4,6.1,0.9,6.1,4.7c0,1.6-1.2,2.8-3.6,2.8
		C646.1,436.4,644.9,436,643.9,434.9z"/>
	<path d="M664.6,436.2l-3.9-4.6l-1.8,1.7v2.9h-1v-13.3h1v9.2l5.7-5.5h1.4l-4.5,4.4l4.5,5.3H664.6z"/>
	<path d="M739.6,434.3l0.7-0.9c0.9,1,2.3,1.9,4.2,1.9c2.7,0,3.5-1.5,3.5-2.7c0-3.9-8-1.9-8-6.5c0-2.2,2-3.6,4.4-3.6
		c2,0,3.5,0.7,4.5,1.9l-0.8,0.8c-1-1.2-2.3-1.7-3.8-1.7c-1.8,0-3.1,1-3.1,2.5c0,3.4,8,1.5,8,6.5c0,1.7-1.1,3.8-4.7,3.8
		C742.3,436.4,740.6,435.5,739.6,434.3z"/>
	<path d="M756.1,434.3v-6.9h-1.6v-0.9h1.6v-2.6h1.1v2.6h2v0.9h-2v6.7c0,0.8,0.3,1.3,1,1.3c0.5,0,0.9-0.2,1.1-0.5l0.4,0.8
		c-0.4,0.4-0.8,0.6-1.6,0.6C756.7,436.4,756.1,435.6,756.1,434.3z"/>
	<path d="M765.4,436.2v-9.7h1v1.7c0.8-1.1,1.9-1.9,3.3-1.9v1.1c-0.2,0-0.3,0-0.5,0c-1,0-2.3,0.9-2.7,1.7v7H765.4z"/>
	<path d="M775.2,431.3c0-2.8,2-5.1,4.7-5.1c2.9,0,4.6,2.3,4.6,5.1v0.3h-8.1c0.1,2.1,1.5,3.8,3.8,3.8c1.2,0,2.3-0.5,3.2-1.3l0.5,0.7
		c-1,1-2.2,1.6-3.8,1.6C777.2,436.4,775.2,434.3,775.2,431.3z M779.8,427.2c-2.3,0-3.4,2-3.5,3.7h7
		C783.3,429.2,782.3,427.2,779.8,427.2z"/>
	<path d="M790.5,431.3c0-2.8,2-5.1,4.7-5.1c2.9,0,4.6,2.3,4.6,5.1v0.3h-8.1c0.1,2.1,1.5,3.8,3.8,3.8c1.2,0,2.3-0.5,3.2-1.3l0.5,0.7
		c-1,1-2.2,1.6-3.8,1.6C792.6,436.4,790.5,434.3,790.5,431.3z M795.2,427.2c-2.3,0-3.4,2-3.5,3.7h7
		C798.7,429.2,797.6,427.2,795.2,427.2z"/>
	<path d="M806.6,434.3v-6.9H805v-0.9h1.6v-2.6h1.1v2.6h2v0.9h-2v6.7c0,0.8,0.3,1.3,1,1.3c0.5,0,0.9-0.2,1.1-0.5l0.4,0.8
		c-0.4,0.4-0.8,0.6-1.6,0.6C807.3,436.4,806.6,435.6,806.6,434.3z"/>
	<path d="M883.7,429.5c0-4.1,3-6.9,6.8-6.9c2.2,0,3.8,0.9,5,2.3l-0.9,0.6c-0.9-1.1-2.5-1.9-4.2-1.9c-3.1,0-5.6,2.4-5.6,5.9
		c0,3.4,2.4,5.9,5.6,5.9c1.8,0,3.2-0.9,3.9-1.6v-3.2h-5v-1h6.2v4.7c-1.2,1.3-3,2.2-5.1,2.2C886.8,436.4,883.7,433.6,883.7,429.5z"/>
	<path d="M908.6,436.2V435c-0.9,0.9-1.9,1.4-3.3,1.4c-1.7,0-3.4-1.1-3.4-3.2c0-2.1,1.7-3.2,3.4-3.2c1.3,0,2.4,0.4,3.3,1.4v-2
		c0-1.4-1.2-2.2-2.6-2.2c-1.2,0-2.1,0.4-3,1.4l-0.6-0.7c1-1.1,2.1-1.6,3.7-1.6c2,0,3.5,0.9,3.5,3.1v6.8H908.6z M908.6,434.3v-2.1
		c-0.7-0.9-1.8-1.3-2.9-1.3c-1.6,0-2.6,1-2.6,2.4c0,1.4,1,2.4,2.6,2.4C906.8,435.6,907.9,435.2,908.6,434.3z"/>
	<path d="M928.3,436.2v-6.8c0-1.4-0.6-2.2-1.9-2.2c-1,0-2.2,0.8-2.8,1.6v7.3h-1.1v-6.8c0-1.4-0.6-2.2-1.9-2.2c-1,0-2.2,0.8-2.8,1.7
		v7.3h-1v-9.7h1v1.5c0.4-0.6,1.7-1.7,3.1-1.7c1.5,0,2.3,0.9,2.5,1.8c0.5-0.9,1.8-1.8,3.2-1.8c1.8,0,2.6,1,2.6,2.9v7H928.3z"/>
	<path d="M936,431.3c0-2.8,2-5.1,4.7-5.1c2.9,0,4.6,2.3,4.6,5.1v0.3h-8.1c0.1,2.1,1.5,3.8,3.8,3.8c1.2,0,2.3-0.5,3.2-1.3l0.5,0.7
		c-1,1-2.2,1.6-3.8,1.6C938.1,436.4,936,434.3,936,431.3z M940.7,427.2c-2.3,0-3.4,2-3.5,3.7h7C944.2,429.2,943.1,427.2,940.7,427.2
		z"/>
	<path d="M951.4,436.2v-0.9l5.7-7.9h-5.7v-0.9h7.1v0.8l-5.8,7.9h5.9v0.9H951.4z"/>
	<path d="M172.6,493.2v-6.3h-8.5v6.3H163v-13.3h1.1v6h8.5v-6h1.2v13.3H172.6z"/>
	<path d="M184.5,493.2v-12.3h-4.4v-1h9.9v1h-4.4v12.3H184.5z"/>
	<path d="M196.4,493.2v-13.3h5.5c2.2,0,3.7,1.3,3.7,3.4c0,1.7-1.1,2.8-2.3,3.1c1.4,0.2,2.6,1.7,2.6,3.3c0,2.2-1.4,3.6-3.8,3.6H196.4
		z M204.3,483.4c0-1.4-0.9-2.5-2.6-2.5h-4.2v4.9h4.2C203.4,485.8,204.3,484.7,204.3,483.4z M204.6,489.5c0-1.4-0.9-2.6-2.8-2.6h-4.3
		v5.3h4.3C203.5,492.1,204.6,491.1,204.6,489.5z"/>
	<path d="M248.7,490.4c-1.1,0-2.1-0.9-2.1-2c0-1.1,0.9-2.1,2.1-2.1c1.1,0,2.1,0.9,2.1,2.1C250.7,489.5,249.8,490.4,248.7,490.4z"/>
	<path d="M299.8,493.2l-3.7-5.5h-2.9v5.5H292v-13.3h5c2.3,0,4.1,1.5,4.1,3.9c0,2.4-1.7,3.8-3.7,3.8l3.9,5.6H299.8z M299.8,483.7
		c0-1.7-1.2-2.9-3-2.9h-3.7v5.7h3.7C298.6,486.6,299.8,485.4,299.8,483.7z"/>
	<path d="M307.3,488.3c0-2.8,2-5.1,4.7-5.1c2.9,0,4.6,2.3,4.6,5.1v0.3h-8.1c0.1,2.1,1.5,3.8,3.8,3.8c1.2,0,2.3-0.5,3.2-1.3l0.5,0.7
		c-1,1-2.2,1.6-3.8,1.6C309.3,493.4,307.3,491.3,307.3,488.3z M311.9,484.2c-2.3,0-3.4,2-3.5,3.7h7
		C315.4,486.2,314.3,484.2,311.9,484.2z"/>
	<path d="M330.3,493.2v-1.5c-0.7,1-1.9,1.8-3.4,1.8c-2.6,0-4.3-2-4.3-5.1c0-3.1,1.8-5.1,4.3-5.1c1.4,0,2.6,0.7,3.4,1.8v-5.2h1.1
		v13.3H330.3z M330.3,490.8V486c-0.6-0.9-1.8-1.8-3.2-1.8c-2.1,0-3.4,1.8-3.4,4.1c0,2.3,1.2,4.1,3.4,4.1
		C328.5,492.5,329.7,491.7,330.3,490.8z"/>
	<path d="M338.6,493.2v-13.3h1v5.2c0.8-1.1,2-1.8,3.4-1.8c2.6,0,4.3,2,4.3,5.1c0,3.1-1.8,5.1-4.3,5.1c-1.4,0-2.7-0.8-3.4-1.8v1.5
		H338.6z M342.8,492.5c2.2,0,3.4-1.8,3.4-4.1c0-2.3-1.2-4.1-3.4-4.1c-1.3,0-2.6,0.8-3.2,1.8v4.8
		C340.2,491.7,341.5,492.5,342.8,492.5z"/>
	<path d="M360.5,493.2v-1.4c-0.8,0.9-2.1,1.7-3.5,1.7c-2,0-3-0.9-3-3.1v-6.8h1v6.6c0,1.9,0.9,2.4,2.3,2.4c1.2,0,2.5-0.7,3.1-1.6
		v-7.4h1v9.7H360.5z"/>
	<path d="M368.8,493.2v-13.3h1v13.3H368.8z"/>
	<path d="M377.1,493.2v-13.3h1v13.3H377.1z"/>
	<path d="M421.4,490.4c-1.1,0-2.1-0.9-2.1-2c0-1.1,0.9-2.1,2.1-2.1c1.1,0,2.1,0.9,2.1,2.1C423.5,489.5,422.6,490.4,421.4,490.4z"/>
	<path d="M471.7,493.2l-2.2-4.5h-1.8v4.5h-3.4v-13.3h6.7c3,0,4.6,2,4.6,4.4c0,2.3-1.4,3.6-2.7,4l2.7,4.9H471.7z M472.1,484.3
		c0-0.9-0.8-1.4-1.7-1.4h-2.7v2.9h2.7C471.4,485.7,472.1,485.2,472.1,484.3z"/>
	<path d="M480.8,488.3c0-2.8,2.1-5.1,5.1-5.1c2.9,0,4.9,2.1,4.9,5.4v0.7H484c0.2,0.9,1,1.7,2.4,1.7c0.7,0,1.9-0.3,2.4-0.8l1.3,1.9
		c-1,0.9-2.6,1.3-4,1.3C483.1,493.4,480.8,491.5,480.8,488.3z M485.9,485.7c-1.3,0-1.9,1-2,1.7h4
		C487.9,486.6,487.4,485.7,485.9,485.7z"/>
	<path d="M495.8,488.3c0-2.8,2.1-5.1,5.1-5.1c2.9,0,4.9,2.1,4.9,5.4v0.7H499c0.2,0.9,1,1.7,2.4,1.7c0.7,0,1.9-0.3,2.4-0.8l1.3,1.9
		c-1,0.9-2.6,1.3-4,1.3C498.1,493.4,495.8,491.5,495.8,488.3z M500.9,485.7c-1.3,0-1.9,1-2,1.7h4
		C502.8,486.6,502.3,485.7,500.9,485.7z"/>
	<path d="M511.4,493.2v-13.3h3.1v4.8c0.8-1,1.8-1.4,2.9-1.4c2.4,0,4.3,1.9,4.3,5.1c0,3.3-1.9,5.1-4.3,5.1c-1.1,0-2.1-0.4-2.9-1.4
		v1.1H511.4z M516.3,490.7c1.2,0,2.1-0.9,2.1-2.4c0-1.4-0.9-2.3-2.1-2.3c-0.7,0-1.5,0.4-1.8,0.9v3
		C514.8,490.4,515.6,490.7,516.3,490.7z"/>
	<path d="M526.5,488.3c0-2.7,2-5.1,5.3-5.1c3.3,0,5.3,2.3,5.3,5.1s-2,5.1-5.3,5.1C528.5,493.4,526.5,491.1,526.5,488.3z
		 M533.9,488.3c0-1.3-0.8-2.3-2.1-2.3c-1.3,0-2.1,1.1-2.1,2.3c0,1.3,0.7,2.4,2.1,2.4C533.2,490.7,533.9,489.6,533.9,488.3z"/>
	<path d="M548.8,493.2l-2.1-3.4l-0.9,1.1v2.3h-3.1v-13.3h3.1v7.5l2.9-3.9h3.7l-3.6,4.4l3.7,5.3H548.8z"/>
	<path d="M594.2,490.4c-1.1,0-2.1-0.9-2.1-2c0-1.1,0.9-2.1,2.1-2.1c1.1,0,2.1,0.9,2.1,2.1C596.3,489.5,595.3,490.4,594.2,490.4z"/>
	<path d="M636.8,491.3l0.7-0.9c0.9,1,2.3,1.9,4.2,1.9c2.7,0,3.5-1.5,3.5-2.7c0-3.9-8-1.9-8-6.5c0-2.2,2-3.6,4.4-3.6
		c2,0,3.5,0.7,4.5,1.9l-0.8,0.8c-1-1.2-2.3-1.7-3.8-1.7c-1.8,0-3.1,1-3.1,2.5c0,3.4,8,1.5,8,6.5c0,1.7-1.1,3.8-4.7,3.8
		C639.5,493.4,637.8,492.5,636.8,491.3z"/>
	<path d="M653.3,491.3v-6.9h-1.6v-0.9h1.6v-2.6h1.1v2.6h2v0.9h-2v6.7c0,0.8,0.3,1.3,1,1.3c0.5,0,0.9-0.2,1.1-0.5l0.4,0.8
		c-0.4,0.4-0.8,0.6-1.6,0.6C653.9,493.4,653.3,492.6,653.3,491.3z"/>
	<path d="M662.6,493.2v-9.7h1v1.7c0.8-1.1,1.9-1.9,3.3-1.9v1.1c-0.2,0-0.3,0-0.5,0c-1,0-2.3,0.9-2.7,1.7v7H662.6z"/>
	<path d="M672.4,488.3c0-2.8,2-5.1,4.7-5.1c2.9,0,4.6,2.3,4.6,5.1v0.3h-8.1c0.1,2.1,1.5,3.8,3.8,3.8c1.2,0,2.3-0.5,3.2-1.3l0.5,0.7
		c-1,1-2.2,1.6-3.8,1.6C674.4,493.4,672.4,491.3,672.4,488.3z M677,484.2c-2.3,0-3.4,2-3.5,3.7h7C680.5,486.2,679.4,484.2,677,484.2
		z"/>
	<path d="M687.7,488.3c0-2.8,2-5.1,4.7-5.1c2.9,0,4.6,2.3,4.6,5.1v0.3h-8.1c0.1,2.1,1.5,3.8,3.8,3.8c1.2,0,2.3-0.5,3.2-1.3l0.5,0.7
		c-1,1-2.2,1.6-3.8,1.6C689.7,493.4,687.7,491.3,687.7,488.3z M692.4,484.2c-2.3,0-3.4,2-3.5,3.7h7
		C695.9,486.2,694.8,484.2,692.4,484.2z"/>
	<path d="M703.8,491.3v-6.9h-1.6v-0.9h1.6v-2.6h1.1v2.6h2v0.9h-2v6.7c0,0.8,0.3,1.3,1,1.3c0.5,0,0.9-0.2,1.1-0.5l0.4,0.8
		c-0.4,0.4-0.8,0.6-1.6,0.6C704.4,493.4,703.8,492.6,703.8,491.3z"/>
	<path d="M713.1,493.2v-13.3h1v5.2c0.8-1.1,2-1.8,3.4-1.8c2.6,0,4.3,2,4.3,5.1c0,3.1-1.8,5.1-4.3,5.1c-1.4,0-2.7-0.8-3.4-1.8v1.5
		H713.1z M717.3,492.5c2.2,0,3.4-1.8,3.4-4.1c0-2.3-1.2-4.1-3.4-4.1c-1.3,0-2.6,0.8-3.2,1.8v4.8C714.7,491.7,716,492.5,717.3,492.5z
		"/>
	<path d="M734.7,493.2V492c-0.9,0.9-1.9,1.4-3.3,1.4c-1.7,0-3.4-1.1-3.4-3.2c0-2.1,1.7-3.2,3.4-3.2c1.3,0,2.4,0.4,3.3,1.4v-2
		c0-1.4-1.2-2.2-2.6-2.2c-1.2,0-2.1,0.4-3,1.4l-0.6-0.7c1-1.1,2.1-1.6,3.7-1.6c2,0,3.5,0.9,3.5,3.1v6.8H734.7z M734.7,491.3v-2.1
		c-0.7-0.9-1.8-1.3-2.9-1.3c-1.6,0-2.6,1-2.6,2.4c0,1.4,1,2.4,2.6,2.4C732.9,492.6,734,492.2,734.7,491.3z"/>
	<path d="M743,493.2v-13.3h1v13.3H743z"/>
	<path d="M751.2,493.2v-13.3h1v13.3H751.2z"/>
	<path d="M795.6,490.4c-1.1,0-2.1-0.9-2.1-2c0-1.1,0.9-2.1,2.1-2.1c1.1,0,2.1,0.9,2.1,2.1C797.7,489.5,796.7,490.4,795.6,490.4z"/>
	<path d="M841.4,493.2v-10.3h-3.7v-3h10.9v3h-3.7v10.3H841.4z"/>
	<path d="M859.9,493.2v-1c-0.6,0.7-1.8,1.2-3,1.2c-1.5,0-3.3-1-3.3-3.2c0-2.3,1.8-3.1,3.3-3.1c1.3,0,2.4,0.4,3,1.1v-1.2
		c0-0.8-0.7-1.4-2-1.4c-1,0-2,0.4-2.7,1l-1.1-1.9c1.2-1.1,2.9-1.5,4.4-1.5c2.3,0,4.5,0.9,4.5,3.9v6H859.9z M859.9,490.7v-0.9
		c-0.3-0.4-1-0.7-1.7-0.7c-0.8,0-1.5,0.4-1.5,1.1c0,0.8,0.7,1.1,1.5,1.1C858.8,491.4,859.5,491.2,859.9,490.7z"/>
	<path d="M868.5,488.3c0-3,2.3-5.1,5.3-5.1c2.1,0,3.4,0.9,4,1.8l-2,1.9c-0.4-0.6-1-0.9-1.8-0.9c-1.3,0-2.3,0.9-2.3,2.3
		c0,1.5,1,2.4,2.3,2.4c0.8,0,1.4-0.4,1.8-0.9l2,1.9c-0.6,0.8-1.9,1.8-4,1.8C870.8,493.4,868.5,491.4,868.5,488.3z"/>
	<path d="M889.7,493.2v-5.6c0-1.2-0.6-1.6-1.6-1.6c-0.9,0-1.5,0.5-1.9,0.9v6.2h-3.1v-13.3h3.1v4.9c0.6-0.7,1.7-1.4,3.3-1.4
		c2.2,0,3.2,1.2,3.2,3v6.9H889.7z"/>
	<path d="M898.8,480.9c0-1,0.8-1.8,1.8-1.8c1,0,1.8,0.8,1.8,1.8s-0.8,1.8-1.8,1.8C899.6,482.7,898.8,481.9,898.8,480.9z M899,493.2
		v-9.7h3.1v9.7H899z"/>
	<path d="M914.5,493.2l-2.1-3.4l-0.9,1.1v2.3h-3.1v-13.3h3.1v7.5l2.9-3.9h3.7l-3.6,4.4l3.7,5.3H914.5z"/>
	<path d="M929,493.2v-1c-0.6,0.7-1.8,1.2-3,1.2c-1.5,0-3.3-1-3.3-3.2c0-2.3,1.8-3.1,3.3-3.1c1.3,0,2.4,0.4,3,1.1v-1.2
		c0-0.8-0.7-1.4-2-1.4c-1,0-2,0.4-2.7,1l-1.1-1.9c1.2-1.1,2.9-1.5,4.4-1.5c2.3,0,4.5,0.9,4.5,3.9v6H929z M929,490.7v-0.9
		c-0.3-0.4-1-0.7-1.7-0.7c-0.8,0-1.5,0.4-1.5,1.1c0,0.8,0.7,1.1,1.5,1.1C927.9,491.4,928.7,491.2,929,490.7z"/>
	<path d="M938.3,493.2v-9.7h3.1v1.2c0.6-0.8,1.9-1.4,3-1.4v3c-0.2,0-0.4-0.1-0.8-0.1c-0.8,0-1.9,0.3-2.3,0.9v6.2H938.3z"/>
	<path d="M955.5,493.2v-1c-0.6,0.7-1.8,1.2-3,1.2c-1.5,0-3.3-1-3.3-3.2c0-2.3,1.8-3.1,3.3-3.1c1.3,0,2.4,0.4,3,1.1v-1.2
		c0-0.8-0.7-1.4-2-1.4c-1,0-2,0.4-2.7,1l-1.1-1.9c1.2-1.1,2.9-1.5,4.4-1.5c2.3,0,4.5,0.9,4.5,3.9v6H955.5z M955.5,490.7v-0.9
		c-0.3-0.4-1-0.7-1.7-0.7c-0.8,0-1.5,0.4-1.5,1.1c0,0.8,0.7,1.1,1.5,1.1C954.5,491.4,955.2,491.2,955.5,490.7z"/>
	<path d="M165.5,550.2v-10.3h-3.7v-3h10.9v3H169v10.3H165.5z"/>
	<path d="M187.3,550.2v-5.4h-5.5v5.4h-3.4v-13.3h3.4v5h5.5v-5h3.4v13.3H187.3z"/>
	<path d="M200.1,550.2v-10.3h-3.7v-3h10.9v3h-3.7v10.3H200.1z"/>
	<path d="M291.7,547.4c-1.1,0-2.1-0.9-2.1-2c0-1.1,0.9-2.1,2.1-2.1c1.1,0,2.1,0.9,2.1,2.1C293.8,546.5,292.9,547.4,291.7,547.4z"/>
	<path d="M387.6,550.2l-3.2-11.5l-3.2,11.5h-1.3l-3.8-13.3h1.3l3.2,11.7l3.3-11.7h1l3.3,11.7l3.2-11.7h1.3l-3.8,13.3H387.6z"/>
	<path d="M398.7,550.2v-13.3h8.5v1h-7.3v4.9h7.2v1h-7.2v6.3H398.7z"/>
	<path d="M413.5,550.2v-13.3h5.5c2.2,0,3.7,1.3,3.7,3.4c0,1.7-1.1,2.8-2.3,3.1c1.4,0.2,2.6,1.7,2.6,3.3c0,2.2-1.4,3.6-3.8,3.6H413.5
		z M421.5,540.4c0-1.4-0.9-2.5-2.6-2.5h-4.2v4.9h4.2C420.6,542.8,421.5,541.7,421.5,540.4z M421.8,546.5c0-1.4-0.9-2.6-2.8-2.6h-4.3
		v5.3h4.3C420.7,549.1,421.8,548.1,421.8,546.5z"/>
	<path d="M439.5,550.2l-1.3-3.3h-7.1l-1.3,3.3h-1.3l5.5-13.3h1.4l5.5,13.3H439.5z M434.6,538.1l-3.1,7.8h6.3L434.6,538.1z"/>
	<path d="M525.1,547.4c-1.1,0-2.1-0.9-2.1-2c0-1.1,0.9-2.1,2.1-2.1c1.1,0,2.1,0.9,2.1,2.1C527.1,546.5,526.2,547.4,525.1,547.4z"/>
	<path d="M610,550.2v-1l8-11.3h-8v-1h9.5v1l-8,11.3h8.2v1H610z"/>
	<path d="M625.7,545.3c0-2.8,2-5.1,4.7-5.1c2.9,0,4.6,2.3,4.6,5.1v0.3h-8.1c0.1,2.1,1.5,3.8,3.8,3.8c1.2,0,2.3-0.5,3.2-1.3l0.5,0.7
		c-1,1-2.2,1.6-3.8,1.6C627.7,550.4,625.7,548.3,625.7,545.3z M630.4,541.2c-2.3,0-3.4,2-3.5,3.7h7
		C633.9,543.2,632.8,541.2,630.4,541.2z"/>
	<path d="M641.6,550.2v-9.7h1v1.7c0.8-1.1,1.9-1.9,3.3-1.9v1.1c-0.2,0-0.3,0-0.5,0c-1,0-2.3,0.9-2.7,1.7v7H641.6z"/>
	<path d="M651.4,545.3c0-2.8,1.8-5.1,4.6-5.1c2.9,0,4.7,2.2,4.7,5.1c0,2.8-1.8,5.1-4.7,5.1C653.2,550.4,651.4,548.2,651.4,545.3z
		 M659.6,545.3c0-2.1-1.3-4.1-3.5-4.1c-2.2,0-3.5,2-3.5,4.1c0,2.2,1.3,4.1,3.5,4.1C658.3,549.5,659.6,547.5,659.6,545.3z"/>
	<path d="M745.8,547.4c-1.1,0-2.1-0.9-2.1-2c0-1.1,0.9-2.1,2.1-2.1c1.1,0,2.1,0.9,2.1,2.1C747.8,546.5,746.9,547.4,745.8,547.4z"/>
	<path d="M830.7,550.2v-1l8-11.3h-8v-1h9.5v1l-8,11.3h8.2v1H830.7z"/>
	<path d="M853.5,550.2v-1.4c-0.8,0.9-2.1,1.7-3.5,1.7c-2,0-3-0.9-3-3.1v-6.8h1v6.6c0,1.9,0.9,2.4,2.3,2.4c1.2,0,2.5-0.7,3.1-1.6
		v-7.4h1v9.7H853.5z"/>
	<path d="M861.5,538.2c0-0.4,0.4-0.8,0.8-0.8c0.4,0,0.8,0.3,0.8,0.8s-0.4,0.8-0.8,0.8C861.9,539,861.5,538.6,861.5,538.2z
		 M861.8,550.2v-9.7h1v9.7H861.8z"/>
	<path d="M877.2,550.2v-1.5c-0.7,1-1.9,1.8-3.4,1.8c-2.6,0-4.3-2-4.3-5.1c0-3.1,1.8-5.1,4.3-5.1c1.4,0,2.6,0.7,3.4,1.8v-5.2h1.1
		v13.3H877.2z M877.2,547.8V543c-0.6-0.9-1.8-1.8-3.2-1.8c-2.1,0-3.4,1.8-3.4,4.1c0,2.3,1.2,4.1,3.4,4.1
		C875.3,549.5,876.6,548.7,877.2,547.8z"/>
	<path d="M884.9,545.3c0-2.8,2-5.1,4.7-5.1c2.9,0,4.6,2.3,4.6,5.1v0.3H886c0.1,2.1,1.5,3.8,3.8,3.8c1.2,0,2.3-0.5,3.2-1.3l0.5,0.7
		c-1,1-2.2,1.6-3.8,1.6C886.9,550.4,884.9,548.3,884.9,545.3z M889.5,541.2c-2.3,0-3.4,2-3.5,3.7h7C893,543.2,892,541.2,889.5,541.2
		z"/>
	<path d="M900.8,550.2v-9.7h1v1.7c0.8-1.1,1.9-1.9,3.3-1.9v1.1c-0.2,0-0.3,0-0.5,0c-1,0-2.3,0.9-2.7,1.7v7H900.8z"/>
	<path d="M912.2,548.6v5.2h-1v-13.3h1v1.5c0.7-1,1.9-1.8,3.4-1.8c2.6,0,4.3,2,4.3,5.1c0,3.1-1.7,5.1-4.3,5.1
		C914.2,550.4,913,549.7,912.2,548.6z M918.7,545.3c0-2.3-1.2-4.1-3.4-4.1c-1.3,0-2.6,0.8-3.2,1.7v4.8c0.6,0.9,1.8,1.8,3.2,1.8
		C917.5,549.5,918.7,547.7,918.7,545.3z"/>
	<path d="M932.6,550.2V549c-0.9,0.9-1.9,1.4-3.3,1.4c-1.7,0-3.4-1.1-3.4-3.2c0-2.1,1.7-3.2,3.4-3.2c1.3,0,2.4,0.4,3.3,1.4v-2
		c0-1.4-1.2-2.2-2.6-2.2c-1.2,0-2.1,0.4-3,1.4l-0.6-0.7c1-1.1,2.1-1.6,3.7-1.6c2,0,3.5,0.9,3.5,3.1v6.8H932.6z M932.6,548.3v-2.1
		c-0.7-0.9-1.8-1.3-2.9-1.3c-1.6,0-2.6,1-2.6,2.4c0,1.4,1,2.4,2.6,2.4C930.9,549.6,931.9,549.2,932.6,548.3z"/>
	<path d="M940.9,550.2v-9.7h1v1.7c0.8-1.1,1.9-1.9,3.3-1.9v1.1c-0.2,0-0.3,0-0.5,0c-1,0-2.3,0.9-2.7,1.7v7H940.9z"/>
	<path d="M957.9,550.2l-3.9-4.6l-1.8,1.7v2.9h-1v-13.3h1v9.2l5.7-5.5h1.4l-4.5,4.4l4.5,5.3H957.9z"/>
</g>
<path fill="none" stroke="#000000" stroke-width="0.763" d="M560.5,472.7"/>
<path fill="none" stroke="#000000" stroke-width="0.763" d="M560.5,472.7"/>
<linearGradient id="SVGID_1_" gradientUnits="userSpaceOnUse" x1="560.5334" y1="50.8046" x2="560.5334" y2="50.8046">
	<stop  offset="0" style="stop-color:#EAFF00"/>
	<stop  offset="0.2033" style="stop-color:#EAFF00"/>
	<stop  offset="0.73" style="stop-color:#A2FC59"/>
	<stop  offset="1" style="stop-color:#57F866"/>
</linearGradient>
<path fill="none" stroke="url(#SVGID_1_)" stroke-width="15" stroke-miterlimit="10" d="M560.5,50.8"/>
<linearGradient id="SVGID_2_" gradientUnits="userSpaceOnUse" x1="560.5334" y1="343.7786" x2="560.5334" y2="343.7786">
	<stop  offset="0" style="stop-color:#EAFF00"/>
	<stop  offset="0.2033" style="stop-color:#EAFF00"/>
	<stop  offset="0.73" style="stop-color:#A2FC59"/>
	<stop  offset="1" style="stop-color:#57F866"/>
</linearGradient>
<path fill="none" stroke="url(#SVGID_2_)" stroke-width="15" stroke-miterlimit="10" d="M560.5,343.8"/>
<linearGradient id="SVGID_3_" gradientUnits="userSpaceOnUse" x1="560.5334" y1="636.7526" x2="560.5334" y2="636.7526">
	<stop  offset="0" style="stop-color:#EAFF00"/>
	<stop  offset="0.2033" style="stop-color:#EAFF00"/>
	<stop  offset="0.73" style="stop-color:#A2FC59"/>
	<stop  offset="1" style="stop-color:#57F866"/>
</linearGradient>
<path fill="none" stroke="url(#SVGID_3_)" stroke-width="15" stroke-miterlimit="10" d="M560.5,636.8"/>
<linearGradient id="SVGID_4_" gradientUnits="userSpaceOnUse" x1="560.5334" y1="343.7786" x2="560.5334" y2="343.7786">
	<stop  offset="0" style="stop-color:#EAFF00"/>
	<stop  offset="0.2033" style="stop-color:#EAFF00"/>
	<stop  offset="0.73" style="stop-color:#A2FC59"/>
	<stop  offset="1" style="stop-color:#57F866"/>
</linearGradient>
<path fill="none" stroke="url(#SVGID_4_)" stroke-width="15" stroke-miterlimit="10" d="M560.5,343.8"/>
<g>
	<polygon points="556,169.6 568.4,178.6 565.1,181.7 557.6,175 	"/>
	<polygon points="546.9,201.5 541.7,205.9 543.2,127.9 546.9,135 	"/>
	<polygon points="578.4,176.1 554.8,154.8 554.8,150 583.9,171.8 	"/>
	<polygon points="578.6,194 537.2,226.3 537.2,223 574.8,189.9 	"/>
	<polygon points="554.8,168.7 558.2,171.2 558.3,188.6 554.9,191.9 	"/>
	<polygon points="578.5,176 554.8,194.8 554.9,191.8 574.6,172.1 	"/>
	<polygon points="578.5,194.1 565.8,182.4 568.2,178.5 583.7,190.2 	"/>
</g>
</svg>
