<?xml version="1.0" encoding="utf-8"?>
<!-- Generator: Adobe Illustrator 18.0.0, SVG Export Plug-In . SVG Version: 6.00 Build 0)  -->
<!DOCTYPE svg PUBLIC "-//W3C//DTD SVG 1.1//EN" "http://www.w3.org/Graphics/SVG/1.1/DTD/svg11.dtd">
<svg version="1.1" id="START" xmlns="http://www.w3.org/2000/svg" xmlns:xlink="http://www.w3.org/1999/xlink" x="0px" y="0px"
	 viewBox="55.2 -11.4 992.1 708.7" enable-background="new 55.2 -11.4 992.1 708.7" xml:space="preserve">
<linearGradient id="SVGID_1_" gradientUnits="userSpaceOnUse" x1="268.262" y1="422.495" x2="834.1732" y2="260.2225">
	<stop  offset="0" style="stop-color:#EAFF00"/>
	<stop  offset="0.2033" style="stop-color:#EAFF00"/>
	<stop  offset="0.73" style="stop-color:#A2FC59"/>
	<stop  offset="1" style="stop-color:#57F866"/>
</linearGradient>
<ellipse fill="none" stroke="url(#SVGID_1_)" stroke-width="15" stroke-miterlimit="10" cx="551.2" cy="341.4" rx="286.3" ry="293"/>
<g>
	<path d="M513.6,314.3v-14.7h6c2.5,0,4,1.4,4,3.7c0,1.8-1.3,3.1-2.6,3.4c1.6,0.2,2.9,1.9,2.9,3.6c0,2.4-1.6,4-4.2,4H513.6z
		 M522.4,303.5c0-1.5-1-2.7-2.9-2.7h-4.6v5.4h4.6C521.4,306.2,522.4,305,522.4,303.5z M522.7,310.2c0-1.5-1-2.9-3.1-2.9h-4.7v5.8
		h4.7C521.5,313.1,522.7,312,522.7,310.2z"/>
	<path d="M528.2,314.3v-14.7h1.3V312l9.2-12.4h1.3v14.7h-1.3v-12.6l-9.2,12.6H528.2z"/>
	<path d="M543.7,313.2c1.9,0,3-0.9,3.7-6.4l0.9-7.2h8.3v13.5h1.3v3.9h-1.3v-2.7h-11.7v2.7h-1.3V313.2z M546.1,313.1h9.2v-12.4h-5.9
		l-0.8,6.2C548.1,310.7,547.3,312.4,546.1,313.1z"/>
	<path d="M561.6,314.3v-14.7h9.3v1.1h-8.1v5.4h7.9v1.1h-7.9v5.8h8.1v1.1H561.6z"/>
	<path d="M574.5,306.9c0-4.3,2.8-7.6,7.1-7.6c4.3,0,7.1,3.3,7.1,7.6s-2.8,7.6-7.1,7.6C577.4,314.5,574.5,311.2,574.5,306.9z
		 M587.5,306.9c0-3.7-2.3-6.4-5.8-6.4c-3.6,0-5.8,2.7-5.8,6.4c0,3.7,2.2,6.4,5.8,6.4C585.2,313.4,587.5,310.6,587.5,306.9z"/>
</g>
<g>
	<path d="M338.8,582v-20h11.3c4,0,5.8,2.6,5.8,5.1c0,2.5-1.5,4.2-3.4,4.6c2.1,0.3,3.8,2.4,3.8,4.9c0,2.9-1.9,5.4-5.9,5.4H338.8z
		 M350.7,568c0-1-0.7-1.6-1.8-1.6h-5v3.3h5C350,569.6,350.7,569,350.7,568z M351.1,575.8c0-1-0.7-1.8-2-1.8h-5.2v3.6h5.2
		C350.4,577.6,351.1,576.9,351.1,575.8z"/>
	<path d="M360.3,580l2.1-2.7c1.3,1,3.3,1.5,4.8,1.5c1.6,0,2.4-0.5,2.4-1.1c0-0.8-0.9-1.3-2.6-1.3h-2.8v-3.4h2.8
		c1.8,0,2.3-0.5,2.3-1.2c0-0.6-0.9-1.1-2.3-1.1c-1.8,0-3.2,0.5-4.3,1.6l-2.2-2.6c1.4-1.4,3.6-2.4,6.3-2.4c4.8,0,7.3,1.6,7.3,4
		c0,1.7-1.7,3-3.8,3.4c1.8,0.1,4,1.3,4,3.4c0,2.6-2.8,4.3-7.2,4.4C364.1,582.3,361.7,581.4,360.3,580z"/>
	<path d="M390.9,571.5H384V582h-4.6v-14.5h11.5V571.5z"/>
	<path d="M394.6,578.5c1.1,0,1.8-1,2.2-4.1l1-7h12.4V582h-4.6v-10.5h-3.8l-0.5,3.5c-0.6,4.7-2.5,7.3-6.7,7.3V578.5z"/>
	<path d="M415.8,582l3.1-5c-1.4-0.5-3-1.9-3-4.5c0-2.6,1.9-4.9,5.3-4.9h9.4V582H426v-4.6h-2.5L421,582H415.8z M426,573.6v-2.4h-4
		c-0.8,0-1.4,0.5-1.4,1.2c0,0.7,0.5,1.2,1.4,1.2H426z"/>
	<path d="M436.6,582v-14.5h4.6v5h5.2v-5h4.6V582h-4.6v-5.5h-5.2v5.5H436.6z"/>
	<path d="M457.4,583.5c0.3,0.2,0.8,0.3,1.1,0.3c1,0,1.7-0.2,2-0.8l0.3-0.8l-5.8-14.7h4.9l3.3,9.2l3.3-9.2h4.9l-6.5,16.6
		c-1.2,3.1-3.4,3.7-6.1,3.8c-0.4,0-1.5-0.1-2-0.2L457.4,583.5z"/>
	<path d="M478.2,582v-10.5h-4v-4h12.5v4h-3.9V582H478.2z"/>
	<path d="M496.3,567.5v4.6h4.8c3.5,0,5.3,2.2,5.3,4.9c0,2.6-1.9,4.9-5.3,4.9h-9.4v-14.5H496.3z M496.3,575.8v2.4h4
		c0.9,0,1.4-0.5,1.4-1.2c0-0.7-0.5-1.2-1.4-1.2H496.3z"/>
	<path d="M521.8,582v-14.5h4.6v5h5.2v-5h4.6V582h-4.6v-5.5h-5.2v5.5H521.8z"/>
	<path d="M550.8,582v-1.4c-0.9,1.1-2.6,1.8-4.5,1.8c-2.2,0-5-1.5-5-4.8c0-3.5,2.8-4.6,5-4.6c1.9,0,3.6,0.6,4.5,1.7v-1.7
		c0-1.3-1.1-2.1-2.9-2.1c-1.4,0-2.9,0.5-4.1,1.5l-1.6-2.9c1.9-1.6,4.3-2.2,6.6-2.2c3.5,0,6.8,1.3,6.8,5.8v9.1H550.8z M550.8,578.2
		V577c-0.5-0.7-1.6-1-2.6-1c-1.2,0-2.3,0.5-2.3,1.7c0,1.1,1.1,1.7,2.3,1.7C549.3,579.3,550.4,578.9,550.8,578.2z"/>
	<path d="M585.6,582v-8.7l-3.3,8.7h-2.4l-3.3-8.7v8.7h-4.6v-14.5h6.1l3,7.8l3-7.8h6.1V582H585.6z"/>
	<path d="M595.2,574.7c0-4.1,3-7.6,7.9-7.6c5,0,7.9,3.5,7.9,7.6s-2.9,7.6-7.9,7.6C598.2,582.3,595.2,578.8,595.2,574.7z
		 M606.3,574.7c0-1.9-1.1-3.5-3.2-3.5c-2,0-3.1,1.6-3.1,3.5c0,2,1.1,3.5,3.1,3.5C605.2,578.2,606.3,576.7,606.3,574.7z"/>
	<path d="M616.2,582v-14.5h4.6v7.6l5.2-7.6h4.6V582H626v-8l-5.4,8H616.2z"/>
	<path d="M651.7,580.3v7.2h-4.6v-20h4.6v1.7c1.1-1.4,2.6-2,4.3-2c3.6,0,6.4,2.7,6.4,7.6c0,4.9-2.7,7.6-6.4,7.6
		C654.3,582.3,652.9,581.7,651.7,580.3z M657.6,574.7c0-2.2-1.4-3.5-3.2-3.5c-1,0-2.2,0.5-2.8,1.3v4.4c0.6,0.8,1.8,1.3,2.8,1.3
		C656.2,578.2,657.6,576.9,657.6,574.7z"/>
	<path d="M676,582v-1.4c-0.9,1.1-2.6,1.8-4.5,1.8c-2.2,0-5-1.5-5-4.8c0-3.5,2.8-4.6,5-4.6c1.9,0,3.6,0.6,4.5,1.7v-1.7
		c0-1.3-1.1-2.1-2.9-2.1c-1.4,0-2.9,0.5-4.1,1.5l-1.6-2.9c1.9-1.6,4.3-2.2,6.6-2.2c3.5,0,6.8,1.3,6.8,5.8v9.1H676z M676,578.2V577
		c-0.5-0.7-1.6-1-2.6-1c-1.2,0-2.3,0.5-2.3,1.7c0,1.1,1.1,1.7,2.3,1.7C674.4,579.3,675.5,578.9,676,578.2z"/>
	<path d="M685.7,574c0-7,2.6-10.3,7.7-11c1.7-0.3,2.5-0.6,2.5-1.1h5c0,2.8-3.6,3.7-5.9,4c-3.4,0.5-4.6,1.7-5,3.3
		c1.2-1.4,2.7-2.1,4.7-2.1c4.1,0,6.8,3.5,6.8,7.6c0,4.1-2.9,7.7-7.9,7.7C688.6,582.3,685.7,578.8,685.7,574z M696.8,574.7
		c0-1.9-1.1-3.5-3.2-3.5c-2,0-3.1,1.6-3.1,3.5c0,2,1.1,3.6,3.1,3.6C695.6,578.2,696.8,576.7,696.8,574.7z"/>
	<path d="M705.7,574.7c0-4.1,3-7.6,7.9-7.6c5,0,7.9,3.5,7.9,7.6s-2.9,7.6-7.9,7.6C708.7,582.3,705.7,578.8,705.7,574.7z
		 M716.8,574.7c0-1.9-1.1-3.5-3.2-3.5c-2,0-3.1,1.6-3.1,3.5c0,2,1.1,3.5,3.1,3.5C715.6,578.2,716.8,576.7,716.8,574.7z"/>
	<path d="M729.4,582v-10.5h-4v-4H738v4H734V582H729.4z"/>
	<path d="M747.4,567.5v4.6h4.8c3.5,0,5.3,2.2,5.3,4.9c0,2.6-1.9,4.9-5.3,4.9h-9.4v-14.5H747.4z M747.4,575.8v2.4h4
		c0.9,0,1.4-0.5,1.4-1.2c0-0.7-0.5-1.2-1.4-1.2H747.4z M759,582v-14.5h4.6V582H759z"/>
</g>
<g>
	<path d="M140,419v-66.4H94.3V419h-6.2v-72h58.1v72H140z"/>
	<path d="M193.7,383c0-21.1,13.8-37.3,35-37.3c21.1,0,35,16.2,35,37.3c0,21.1-13.9,37.3-35,37.3C207.6,420.3,193.7,404.1,193.7,383z
		 M257.2,383c0-18.4-11.2-31.6-28.5-31.6c-17.5,0-28.5,13.3-28.5,31.6c0,18.1,11,31.6,28.5,31.6C246,414.7,257.2,401.2,257.2,383z"
		/>
	<path d="M311.4,419v-72h27c13.8,0,21.7,9.7,21.7,21.1s-8,21.1-21.7,21.1h-20.8V419H311.4z M353.6,368c0-9.1-6.4-15.4-15.9-15.4
		h-20.2v30.9h20.2C347.2,383.5,353.6,377.1,353.6,368z"/>
	<path d="M423.8,419v-66.4h-23.5V347h53.4v5.6H430V419H423.8z"/>
	<path d="M529.1,419v-7c-20.4-1.1-33-12.9-33-28.9c0-16,12.6-27.9,33-28.9V347h6.2v7.1c20.3,1.1,33,13,33,28.9
		c0,16.1-12.7,27.9-33,28.9v7H529.1z M529.1,406.4v-46.7c-16.6,1.1-26.6,10.4-26.6,23.3C502.5,396,512.4,405.4,529.1,406.4z
		 M535.2,359.7v46.7c16.3-1,26.5-10.4,26.5-23.3C561.7,370.1,551.5,360.8,535.2,359.7z"/>
	<path d="M613.2,383c0-21.1,13.8-37.3,35-37.3c21.1,0,35,16.2,35,37.3c0,21.1-13.9,37.3-35,37.3C627,420.3,613.2,404.1,613.2,383z
		 M676.7,383c0-18.4-11.2-31.6-28.5-31.6c-17.5,0-28.5,13.3-28.5,31.6c0,18.1,11,31.6,28.5,31.6C665.5,414.7,676.7,401.2,676.7,383z
		"/>
	<path d="M725.6,414.7c9.2,0,14.7-5.5,18.1-32.2l4.6-35.5h40.5v72h-6.3v-66.4h-28.7L750,383c-4.2,32.3-12.4,37.3-24.4,37.3V414.7z"
		/>
	<path d="M839.1,419v-72h6.2v61l45.1-61h6.3v72h-6.2v-61.9L845.2,419H839.1z"/>
	<path d="M944.3,383c0-21.1,13.8-37.3,35-37.3c21.1,0,35,16.2,35,37.3c0,21.1-13.9,37.3-35,37.3C958.2,420.3,944.3,404.1,944.3,383z
		 M1007.8,383c0-18.4-11.2-31.6-28.5-31.6c-17.5,0-28.5,13.3-28.5,31.6c0,18.1,11,31.6,28.5,31.6
		C996.6,414.7,1007.8,401.2,1007.8,383z"/>
</g>
<line fill="none" stroke="#000000" stroke-width="0.763" x1="458.1" y1="470.6" x2="644.4" y2="470.6"/>
<g>
	<polygon points="546.7,169.7 559.1,178.7 555.8,181.9 548.3,175.1 	"/>
	<polygon points="537.6,201.6 532.3,206 533.9,128.1 537.6,135.2 	"/>
	<polygon points="569,176.3 545.5,154.9 545.5,150.2 574.6,171.9 	"/>
	<polygon points="569.3,194.1 527.9,226.4 527.9,223.1 565.5,190.1 	"/>
	<polygon points="545.5,168.8 548.9,171.4 549,188.8 545.5,192.1 	"/>
	<polygon points="569.2,176.1 545.5,194.9 545.5,191.9 565.3,172.3 	"/>
	<polygon points="569.2,194.2 556.4,182.5 558.9,178.7 574.4,190.3 	"/>
</g>
<g id="Ebene_5">
	<g display="none">
		<path display="inline" d="M551.2,503.7c0.3,0,0.6,0.3,0.6,0.6v26.9l9.2-9.3c0.1-0.1,0.2-0.2,0.4-0.2c0.3,0,0.6,0.3,0.6,0.6
			c0,0.2-0.1,0.3-0.2,0.4l-10.2,10.2c-0.1,0.1-0.2,0.2-0.4,0.2c-0.1,0-0.3-0.1-0.4-0.2l-10.2-10.2c-0.1-0.1-0.2-0.2-0.2-0.4
			c0-0.3,0.3-0.6,0.6-0.6c0.2,0,0.3,0.1,0.4,0.2l9.2,9.2v-26.8C550.6,503.9,550.9,503.7,551.2,503.7z"/>
	</g>
	<g display="none">
		<path display="inline" d="M550.6,532.5v-26.8l-9.2,9.2c-0.1,0.1-0.2,0.2-0.4,0.2c-0.3,0-0.6-0.3-0.6-0.6c0-0.2,0.1-0.3,0.2-0.4
			l10.2-10.2c0.1-0.1,0.3-0.2,0.4-0.2c0.1,0,0.3,0.1,0.4,0.2l10.2,10.2c0.1,0.1,0.2,0.2,0.2,0.4c0,0.3-0.3,0.6-0.6,0.6
			c-0.1,0-0.3-0.1-0.4-0.2l-9.2-9.3v26.9c0,0.3-0.3,0.6-0.6,0.6C550.9,533,550.6,532.8,550.6,532.5z"/>
	</g>
	<g>
		<path d="M536.5,518.4c0-0.3,0.3-0.6,0.6-0.6H564l-9.3-9.2c-0.1-0.1-0.2-0.2-0.2-0.4c0-0.3,0.3-0.6,0.6-0.6c0.1,0,0.3,0.1,0.4,0.2
			l10.2,10.2c0.1,0.1,0.2,0.2,0.2,0.4c0,0.1-0.1,0.3-0.2,0.4L555.5,529c-0.1,0.1-0.2,0.2-0.4,0.2c-0.3,0-0.6-0.3-0.6-0.6
			c0-0.2,0.1-0.3,0.2-0.4l9.2-9.2h-26.8C536.8,519,536.5,518.7,536.5,518.4z"/>
	</g>
	<g display="none">
		<path display="inline" d="M565.3,519h-26.8l9.2,9.2c0.1,0.1,0.2,0.2,0.2,0.4c0,0.3-0.3,0.6-0.6,0.6c-0.2,0-0.3-0.1-0.4-0.2
			l-10.2-10.2c-0.1-0.1-0.2-0.3-0.2-0.4c0-0.2,0.1-0.3,0.2-0.4l10.2-10.2c0.1-0.1,0.2-0.2,0.4-0.2c0.3,0,0.6,0.3,0.6,0.6
			c0,0.1-0.1,0.3-0.2,0.4l-9.3,9.2h26.8c0.3,0,0.6,0.3,0.6,0.6C565.9,518.7,565.6,519,565.3,519z"/>
	</g>
</g>
</svg>
